<?xml version="1.0" encoding="iso-8859-1"?>
<!-- Uploaded to: SVG Repo, www.svgrepo.com, Generator: SVG Repo Mixer Tools -->
<svg version="1.1" id="Layer_1" xmlns="http://www.w3.org/2000/svg" xmlns:xlink="http://www.w3.org/1999/xlink" 
	 viewBox="0 0 505 505" xml:space="preserve">
<circle style="fill:#FD8469;" cx="252.5" cy="252.5" r="252.5"/>
<g>
	<path style="fill:#808184;" d="M192.3,343.3v-14h-23.8v-4.6l22.9-32.8h7.5v31.9h7.2v5.4h-7.2v14h-6.6V343.3z M192.3,323.8v-17.1
		c0-2.7,0.1-5.4,0.2-8.1h-0.2c-1.6,3-2.8,5.2-4.3,7.6l-12.5,17.5v0.2h16.8V323.8z"/>
	<path style="fill:#808184;" d="M210.7,330.2c0-6.5,3.9-11.1,10.2-13.7l-0.1-0.2c-5.7-2.7-8.1-7.1-8.1-11.5
		c0-8.1,6.9-13.7,15.9-13.7c10,0,14.9,6.2,14.9,12.6c0,4.3-2.1,9-8.5,12v0.2c6.4,2.5,10.4,7,10.4,13.3c0,8.9-7.7,14.9-17.5,14.9
		C217.2,344.1,210.7,337.7,210.7,330.2z M238.4,329.9c0-6.2-4.3-9.2-11.3-11.2c-6,1.7-9.2,5.7-9.2,10.6c-0.2,5.2,3.7,9.8,10.3,9.8
		C234.4,339.1,238.4,335.2,238.4,329.9z M219.3,304.3c0,5.1,3.9,7.9,9.8,9.5c4.4-1.5,7.8-4.7,7.8-9.3c0-4.1-2.5-8.4-8.7-8.4
		C222.4,296.1,219.3,299.8,219.3,304.3z"/>
</g>
<path style="fill:#324A5E;" d="M375.5,427.5h-246c-2.6,0-4.8-2.1-4.8-4.8V82.2c0-2.6,2.1-4.8,4.8-4.8h246c2.6,0,4.8,2.1,4.8,4.8
	v340.6C380.2,425.4,378.1,427.5,375.5,427.5z"/>
<rect id="SVGCleanerId_0" x="146.9" y="116.1" style="fill:#FFFFFF;" width="211.2" height="266.1"/>
<g>
	<path style="fill:#2B3B4E;" d="M296,101.1h-60.3c-2.5,0-4.6-2-4.6-4.6l0,0c0-2.5,2.1-4.6,4.6-4.6H296c2.5,0,4.6,2,4.6,4.6l0,0
		C300.6,99,298.5,101.1,296,101.1z"/>
	<path style="fill:#2B3B4E;" d="M217,101.1h-7.9c-2.5,0-4.6-2-4.6-4.6l0,0c0-2.5,2.1-4.6,4.6-4.6h7.9c2.5,0,4.6,2,4.6,4.6l0,0
		C221.5,99,219.5,101.1,217,101.1z"/>
	<circle style="fill:#2B3B4E;" cx="252.5" cy="404.2" r="12.5"/>
</g>
<g>
	<rect id="SVGCleanerId_0_1_" x="146.9" y="116.1" style="fill:#FFFFFF;" width="211.2" height="266.1"/>
</g>
<g>
	<rect x="178.7" y="255.5" style="fill:#E6E9EE;" width="147.5" height="10.8"/>
	<rect x="178.7" y="284.9" style="fill:#E6E9EE;" width="147.5" height="10.8"/>
	<rect x="178.7" y="314.4" style="fill:#E6E9EE;" width="147.5" height="10.8"/>
	<rect x="178.7" y="343.8" style="fill:#E6E9EE;" width="92.6" height="10.8"/>
</g>
<g>
	<rect x="275.8" y="157.7" style="fill:#84DBFF;" width="17.3" height="68.8"/>
	<rect x="243.8" y="177.1" style="fill:#84DBFF;" width="17.3" height="49.4"/>
	<rect x="211.9" y="191.1" style="fill:#84DBFF;" width="17.3" height="35.4"/>
</g>
</svg>