<svg width="72" height="72" viewBox="0 0 72 72" fill="none" xmlns="http://www.w3.org/2000/svg">
<g clip-path="url(#clip0_515_2990)">
<rect width="72" height="72" rx="12" fill="url(#paint0_linear_515_2990)"/>
<path d="M14.7886 17.0096L39.026 17.0031L39.0302 73.5L9.01527 73.5075L9.01601 33.4875L9.01314 22.7882C9.01229 19.5993 11.5998 17.0105 14.7886 17.0096Z" fill="url(#paint1_radial_515_2990)"/>
<path d="M21.1214 27.0001L13.508 27.0022C13.2274 27.0023 13.0001 27.2298 13.0001 27.5103C13.0002 27.7909 13.2277 28.0183 13.5083 28.0182L21.1217 28.0162C21.4023 28.0161 21.6297 27.7886 21.6296 27.508C21.6295 27.2275 21.402 27.0001 21.1214 27.0001Z" fill="#5EEAD4"/>
<path d="M17.765 29.3593L13.5086 29.3604C13.2281 29.3605 13.0007 29.588 13.0007 29.8686C13.0008 30.1491 13.2283 30.3765 13.5089 30.3764L17.7653 30.3753C18.0459 30.3752 18.2732 30.1477 18.2732 29.8671C18.2731 29.5866 18.0456 29.3592 17.765 29.3593Z" fill="#EFF6FF"/>
<path d="M21.9727 64.6244L13.508 64.6266C13.2274 64.6267 13.0001 64.8542 13.0001 65.1348C13.0002 65.4154 13.2277 65.6427 13.5083 65.6427L21.973 65.6404C22.2536 65.6403 22.481 65.4128 22.4809 65.1323C22.4808 64.8517 22.2533 64.6243 21.9727 64.6244Z" fill="#FCD34D"/>
<path d="M21.1298 62.2898L13.5164 62.2918C13.2358 62.2919 13.0084 62.5194 13.0085 62.7999C13.0086 63.0805 13.2361 63.3079 13.5167 63.3078L21.1301 63.3058C21.4107 63.3057 21.638 63.0782 21.638 62.7976C21.6379 62.5171 21.4104 62.2897 21.1298 62.2898Z" fill="#EFF6FF"/>
<path d="M17.7734 60.0029L13.517 60.0041C13.2364 60.0042 13.009 60.2317 13.0091 60.5122C13.0092 60.7928 13.2367 61.0202 13.5173 61.0201L17.7736 61.019C18.0542 61.0189 18.2816 60.7914 18.2815 60.5108C18.2815 60.2303 18.0539 60.0029 17.7734 60.0029Z" fill="#FCD34D"/>
<path d="M27.975 60.0002L19.5103 60.0024C19.2297 60.0025 19.0023 60.23 19.0024 60.5106C19.0025 60.7912 19.23 61.0185 19.5105 61.0185L27.9753 61.0162C28.2558 61.0161 28.4832 60.7886 28.4831 60.508C28.4831 60.2275 28.2556 60.0001 27.975 60.0002Z" fill="#5EEAD4"/>
<path d="M30.4923 64.6221L23.9018 64.6238C23.6212 64.6239 23.3939 64.8514 23.3939 65.132C23.394 65.4126 23.6215 65.6399 23.9021 65.6399L30.4926 65.6381C30.7732 65.638 31.0006 65.4105 31.0005 65.1299C31.0004 64.8494 30.7729 64.622 30.4923 64.6221Z" fill="#EFF6FF"/>
<path d="M15.1295 31.8658L13.5093 31.8662C13.2287 31.8663 13.0013 32.0938 13.0014 32.3744C13.0015 32.6549 13.229 32.8823 13.5096 32.8822L15.1297 32.8818C15.4103 32.8817 15.6377 32.6542 15.6376 32.3736C15.6376 32.0931 15.41 31.8657 15.1295 31.8658Z" fill="#FCA5A5"/>
<path d="M21.1227 31.8641L16.9796 31.8652C16.6991 31.8653 16.4717 32.0928 16.4718 32.3734C16.4718 32.6539 16.6993 32.8813 16.9799 32.8813L21.123 32.8802C21.4036 32.8801 21.631 32.6526 21.6309 32.372C21.6308 32.0914 21.4033 31.864 21.1227 31.8641Z" fill="#FCD34D"/>
<path d="M17.771 49.3362L13.5146 49.3373C13.234 49.3374 13.0067 49.5649 13.0067 49.8455C13.0068 50.1261 13.2343 50.3534 13.5149 50.3534L17.7713 50.3522C18.0518 50.3522 18.2792 50.1246 18.2791 49.8441C18.2791 49.5635 18.0516 49.3361 17.771 49.3362Z" fill="#FCA5A5"/>
<path d="M15.1355 51.8427L13.5153 51.8431C13.2347 51.8432 13.0073 52.0707 13.0074 52.3513C13.0075 52.6319 13.235 52.8592 13.5156 52.8592L15.1357 52.8587C15.4163 52.8587 15.6437 52.6311 15.6436 52.3506C15.6435 52.07 15.416 51.8426 15.1355 51.8427Z" fill="#EFF6FF"/>
<path d="M21.1287 51.8411L16.9856 51.8422C16.705 51.8423 16.4777 52.0698 16.4777 52.3504C16.4778 52.6309 16.7053 52.8583 16.9859 52.8582L21.129 52.8571C21.4096 52.8571 21.637 52.6296 21.6369 52.349C21.6368 52.0684 21.4093 51.841 21.1287 51.8411Z" fill="#5EEAD4"/>
<path d="M24.6707 67.0002L22.1341 67.0008C21.8535 67.0009 21.6261 67.2284 21.6262 67.509C21.6262 67.7896 21.8538 68.017 22.1343 68.0169L24.671 68.0162C24.9516 68.0161 25.179 67.7886 25.1789 67.508C25.1788 67.2275 24.9513 67.0001 24.6707 67.0002Z" fill="#FCD34D"/>
<path d="M20.0985 67.0015L13.508 67.0032C13.2274 67.0033 13.0001 67.2308 13.0001 67.5114C13.0002 67.7919 13.2277 68.0193 13.5083 68.0193L20.0988 68.0175C20.3794 68.0174 20.6068 67.7899 20.6067 67.5093C20.6066 67.2288 20.3791 67.0014 20.0985 67.0015Z" fill="#5EEAD4"/>
<path d="M15.1322 39.5198L13.512 39.5202C13.2314 39.5203 13.004 39.7478 13.0041 40.0283C13.0042 40.3089 13.2317 40.5363 13.5123 40.5362L15.1324 40.5358C15.413 40.5357 15.6404 40.3082 15.6403 40.0276C15.6402 39.7471 15.4127 39.5197 15.1322 39.5198Z" fill="#EFF6FF"/>
<path d="M21.1254 39.5182L16.9823 39.5193C16.7018 39.5193 16.4744 39.7469 16.4744 40.0274C16.4745 40.308 16.702 40.5354 16.9826 40.5353L21.1257 40.5342C21.4063 40.5341 21.6337 40.3066 21.6336 40.026C21.6335 39.7455 21.406 39.5181 21.1254 39.5182Z" fill="#FCA5A5"/>
<path d="M26.1416 44.0272L13.5132 44.0306C13.2326 44.0307 13.0052 44.2582 13.0053 44.5388C13.0054 44.8194 13.2329 45.0467 13.5135 45.0467L26.1419 45.0433C26.4225 45.0432 26.6498 44.8157 26.6498 44.5351C26.6497 44.2546 26.4222 44.0272 26.1416 44.0272Z" fill="#EFF6FF"/>
<path d="M15.9682 46.6833L13.5139 46.6839C13.2333 46.684 13.0059 46.9115 13.006 47.1921C13.0061 47.4727 13.2336 47.7001 13.5142 47.7L15.9684 47.6993C16.249 47.6993 16.4764 47.4717 16.4763 47.1912C16.4762 46.9106 16.2487 46.6832 15.9682 46.6833Z" fill="#FCD34D"/>
<path d="M19 36.8735L25.8717 32V36.8735H19Z" fill="#0D9488"/>
<path d="M50.5362 22.7564C50.5353 19.5779 47.9568 17.0007 44.7782 17.0016L14.7673 17.0096C17.9458 17.0087 20.5244 19.5859 20.5252 22.7645L20.535 51.7516C20.5353 53.1865 20.5354 54.4987 20.5353 55.5065C20.5352 56.6115 21.4311 57.5063 22.5361 57.5061L48.5472 57.5004C49.6519 57.5002 50.5471 56.6044 50.5468 55.4998L50.5362 22.7564Z" fill="url(#paint2_radial_515_2990)"/>
<path d="M25.4317 27H37.9349V29.5456H24V28.4349C24 27.642 24.642 27 25.4349 27H25.4317Z" fill="#E0E7FF"/>
<path d="M45.3406 27H36.5129V29.5456H45.3406V27Z" fill="#C7D2FE"/>
<path d="M50.5544 27H45.3406V29.5456H50.5544V27Z" fill="#E0E7FF"/>
<path d="M37.9381 29.5455H24V32.0911H37.9381V29.5455Z" fill="#C7D2FE"/>
<path d="M45.3406 29.5455H36.5129V32.0911H45.3406V29.5455Z" fill="#E0E7FF"/>
<path d="M50.5462 29.5455H45.3406V32.0911H50.5462V29.5455Z" fill="#C7D2FE"/>
<path d="M37.9381 32.0879H24V34.6335H37.9381V32.0879Z" fill="#E0E7FF"/>
<path d="M45.3406 32.0879H36.5129V34.6335H45.3406V32.0879Z" fill="#C7D2FE"/>
<path d="M50.5462 32.0879H45.3406V34.6335H50.5462V32.0879Z" fill="#E0E7FF"/>
<path d="M37.9381 34.6335H24V37.1791H37.9381V34.6335Z" fill="#C7D2FE"/>
<path d="M45.3406 34.6335H36.5129V37.1791H45.3406V34.6335Z" fill="#E0E7FF"/>
<path d="M50.5462 34.6335H45.3406V37.1791H50.5462V34.6335Z" fill="#C7D2FE"/>
<path d="M37.9381 37.1758H24V39.7214H37.9381V37.1758Z" fill="#E0E7FF"/>
<path d="M45.3406 37.1758H36.5129V39.7214H45.3406V37.1758Z" fill="#C7D2FE"/>
<path d="M50.5627 37.1758H45.3406V39.7214H50.5627V37.1758Z" fill="#E0E7FF"/>
<path d="M37.9381 39.7214H24V42.2669H37.9381V39.7214Z" fill="#C7D2FE"/>
<path d="M45.3406 39.7214H36.5129V42.2669H45.3406V39.7214Z" fill="#E0E7FF"/>
<path d="M50.5462 39.7214H45.3406V42.2669H50.5462V39.7214Z" fill="#C7D2FE"/>
<path d="M37.9381 42.2638H24V44.8094H37.9381V42.2638Z" fill="#E0E7FF"/>
<path d="M45.3406 42.2638H36.5129V44.8094H45.3406V42.2638Z" fill="#C7D2FE"/>
<path d="M50.5544 42.2638H45.3406V44.8094H50.5544V42.2638Z" fill="#E0E7FF"/>
<path d="M37.9381 44.8094H24V47.355H37.9381V44.8094Z" fill="#C7D2FE"/>
<path d="M45.3406 44.8094H36.5129V47.355H45.3406V44.8094Z" fill="#E0E7FF"/>
<path d="M50.5462 44.8094H45.3406V47.355H50.5462V44.8094Z" fill="#C7D2FE"/>
<path d="M37.9381 47.3549H24V49.9005H37.9381V47.3549Z" fill="#E0E7FF"/>
<path d="M45.3406 47.3549H36.5129V49.9005H45.3406V47.3549Z" fill="#C7D2FE"/>
<path d="M50.543 47.3549H45.3406V49.9005H50.543V47.3549Z" fill="#E0E7FF"/>
<path d="M37.9381 49.8973H24V52.4429H37.9381V49.8973Z" fill="#C7D2FE"/>
<path d="M45.3406 49.8973H36.5129V52.4429H45.3406V49.8973Z" fill="#E0E7FF"/>
<path d="M50.5469 49.8973H45.3406V52.4429H50.5469V49.8973Z" fill="#C7D2FE"/>
<path d="M19 36.8735H32.3735C32.9984 36.8735 33.5057 37.3807 33.5057 38.0057V48.0946C33.5057 48.7196 32.9984 49.2268 32.3735 49.2268H20.1322C19.5073 49.2268 19 48.7196 19 48.0946V36.8735Z" fill="#2DD4BF"/>
<path d="M22.399 43.0354C22.399 43.7827 22.9685 44.3667 23.7484 44.3667C24.3324 44.3667 24.8548 43.993 24.9963 43.4453H24.4268C24.3179 43.7028 24.0386 43.8588 23.7484 43.8588C23.2551 43.8588 22.9286 43.4961 22.9286 43.0354C22.9286 42.5747 23.2551 42.2119 23.7484 42.2119C24.0386 42.2119 24.3179 42.3679 24.4268 42.6255H24.9963C24.8548 42.0777 24.3324 41.7041 23.7484 41.7041C22.9685 41.7041 22.399 42.2881 22.399 43.0354Z" fill="white"/>
<path d="M25.4326 43.5251C25.4543 43.9495 25.8062 44.3667 26.4229 44.3667C26.9634 44.3667 27.3189 44.0402 27.3189 43.6013C27.3189 43.2023 27.0686 42.9374 26.6514 42.8214L26.3503 42.7379C26.1399 42.6763 26.0238 42.5892 26.0275 42.4296C26.0311 42.2772 26.1762 42.1902 26.3612 42.1902C26.5135 42.1902 26.684 42.27 26.7421 42.4876H27.2644C27.2463 42.1031 26.9162 41.7041 26.3612 41.7041C25.8461 41.7041 25.4942 41.9907 25.4979 42.4659C25.5015 42.8576 25.7663 43.1116 26.1726 43.2276L26.4446 43.3075C26.6913 43.3764 26.7892 43.4816 26.7892 43.6194C26.7892 43.7827 26.6333 43.8806 26.4229 43.8806C26.1943 43.8806 25.9948 43.7573 25.9585 43.5251H25.4326Z" fill="white"/>
<path d="M28.6623 44.3231H29.1303L30.1968 41.7476H29.6164L28.8981 43.536L28.169 41.7476H27.5995L28.6623 44.3231Z" fill="white"/>
<path d="M64.8212 60.31C65.0598 60.1722 65.0598 59.8278 64.8212 59.6907L62.6789 58.4542C62.2088 58.1827 61.8181 57.792 61.5466 57.322L60.3101 55.1789C60.1723 54.9404 59.828 54.9404 59.6908 55.1789L58.4543 57.3212C58.1828 57.7913 57.7921 58.182 57.3221 58.4535L55.179 59.6907C54.9405 59.8286 54.9405 60.1729 55.179 60.31L57.3213 61.5465C57.7914 61.818 58.1821 62.2087 58.4536 62.6788L59.6901 64.8211C59.828 65.0596 60.1723 65.0596 60.3094 64.8211L61.5459 62.6788C61.8174 62.2087 62.2081 61.818 62.6782 61.5465L64.8212 60.31Z" fill="white"/>
<path d="M62.1213 30L64.2427 32.1213L62.1213 34.2426L60 32.1213L62.1213 30Z" fill="white"/>
<path d="M11.1213 7.99997L13.2427 10.1213L11.1213 12.2426L9.00002 10.1213L11.1213 7.99997Z" fill="white"/>
</g>
<defs>
<linearGradient id="paint0_linear_515_2990" x1="36" y1="0" x2="36" y2="72" gradientUnits="userSpaceOnUse">
<stop stop-color="#06CBB5"/>
<stop offset="1" stop-color="#00A4BA"/>
</linearGradient>
<radialGradient id="paint1_radial_515_2990" cx="0" cy="0" r="1" gradientUnits="userSpaceOnUse" gradientTransform="translate(25.8775 11.7416) rotate(127.893) scale(32.8612 53.3293)">
<stop stop-color="#1C398B"/>
<stop offset="1" stop-color="#1A4CDC"/>
</radialGradient>
<radialGradient id="paint2_radial_515_2990" cx="0" cy="0" r="1" gradientUnits="userSpaceOnUse" gradientTransform="translate(41.9538 62.2743) rotate(-116.949) scale(54.6259 74.0179)">
<stop stop-color="white"/>
<stop offset="1" stop-color="#E8EEFF"/>
</radialGradient>
<clipPath id="clip0_515_2990">
<rect width="72" height="72" rx="12" fill="white"/>
</clipPath>
</defs>
</svg>
