<svg width="72" height="72" viewBox="0 0 72 72" fill="none" xmlns="http://www.w3.org/2000/svg">
<rect width="72" height="72" rx="12" fill="url(#paint0_linear_581_782)"/>
<path d="M41.3636 54.864H36.8547V56.9493C36.8558 57.0688 36.8331 57.1873 36.7881 57.298C36.7431 57.4087 36.6766 57.5094 36.5925 57.5943C36.5083 57.6791 36.4082 57.7465 36.2979 57.7924C36.1876 57.8384 36.0693 57.8621 35.9498 57.8621C35.8303 57.8621 35.712 57.8384 35.6017 57.7924C35.4914 57.7465 35.3912 57.6791 35.3071 57.5943C35.223 57.5094 35.1565 57.4087 35.1115 57.298C35.0665 57.1873 35.0438 57.0688 35.0449 56.9493V54.864H30.6068L29.033 63.4097C29.032 63.4875 29.0465 63.5647 29.0758 63.6368C29.1051 63.7088 29.1485 63.7743 29.2035 63.8293C29.2585 63.8843 29.324 63.9278 29.3961 63.9571C29.4682 63.9864 29.5454 64.0009 29.6232 63.9998H42.3472C42.5038 63.9998 42.6539 63.9377 42.7645 63.827C42.8752 63.7163 42.9374 63.5662 42.9374 63.4097L41.3636 54.864Z" fill="#A9BEFD"/>
<path opacity="0.5" d="M41.3636 54.864H36.8547V56.9493C36.8557 57.0688 36.8331 57.1873 36.7881 57.298C36.7431 57.4087 36.6766 57.5094 36.5924 57.5943C36.5083 57.6791 36.4082 57.7465 36.2979 57.7924C36.1876 57.8384 36.0693 57.8621 35.9498 57.8621C35.8302 57.8621 35.7119 57.8384 35.6016 57.7924C35.4913 57.7465 35.3912 57.6791 35.3071 57.5943C35.2229 57.5094 35.1564 57.4087 35.1114 57.298C35.0664 57.1873 35.0438 57.0688 35.0448 56.9493V54.864H30.6068L29.151 62.7802H42.8193L41.3636 54.864Z" fill="url(#paint1_linear_581_782)"/>
<path d="M61.5474 15H10.3522C8.50081 15 7 16.5008 7 18.3522V51.5197C7 53.371 8.50081 54.8718 10.3522 54.8718H61.5474C63.3987 54.8718 64.8996 53.371 64.8996 51.5197V18.3522C64.8996 16.5008 63.3987 15 61.5474 15Z" fill="#A9BEFD"/>
<path d="M7.00001 49.0095V51.5118C6.99897 51.9523 7.08497 52.3887 7.25306 52.7959C7.42116 53.2031 7.66804 53.573 7.97952 53.8845C8.29101 54.196 8.66095 54.4428 9.06813 54.6109C9.4753 54.779 9.91167 54.865 10.3522 54.864H61.5553C61.9951 54.864 62.4306 54.7772 62.8369 54.6087C63.2432 54.4401 63.6122 54.1931 63.9228 53.8817C64.2335 53.5703 64.4796 53.2007 64.6473 52.7941C64.8149 52.3874 64.9006 51.9517 64.8996 51.5118V49.0095H7.00001Z" fill="#E8EEFF"/>
<path d="M10.8873 16.448H61.1461C61.8118 16.448 62.4503 16.7125 62.9211 17.1832C63.3918 17.654 63.6563 18.2924 63.6563 18.9582V47.7191H8.37708V18.9503C8.37916 18.2859 8.64454 17.6495 9.11507 17.1804C9.58559 16.7114 10.2229 16.448 10.8873 16.448V16.448Z" fill="black" stroke="#2C61E5" stroke-width="0.393446" stroke-miterlimit="10"/>
<path d="M35.9498 15.9365C36.1106 15.9365 36.2409 15.8062 36.2409 15.6454C36.2409 15.4846 36.1106 15.3542 35.9498 15.3542C35.789 15.3542 35.6586 15.4846 35.6586 15.6454C35.6586 15.8062 35.789 15.9365 35.9498 15.9365Z" fill="#2C61E5"/>
<path d="M54.4968 22.4285H26.0664C25.4884 22.4285 25.0198 22.897 25.0198 23.475V43.4306C25.0198 44.0086 25.4884 44.4772 26.0664 44.4772H54.4968C55.0748 44.4772 55.5434 44.0086 55.5434 43.4306V23.475C55.5434 22.897 55.0748 22.4285 54.4968 22.4285Z" fill="#1854FF"/>
<path d="M25.0199 23.9233V43.5091C25.0188 43.6358 25.0429 43.7615 25.0907 43.8789C25.1385 43.9963 25.209 44.103 25.2983 44.193C25.3875 44.283 25.4937 44.3544 25.6107 44.4031C25.7277 44.4519 25.8531 44.477 25.9799 44.477H54.5755C54.8309 44.4749 55.075 44.372 55.2549 44.1907C55.4347 44.0094 55.5356 43.7644 55.5356 43.5091V23.9233H25.0199Z" fill="#A9BEFD"/>
<path d="M50.649 19.6821H17.4736C16.8956 19.6821 16.427 20.1507 16.427 20.7287V40.6843C16.427 41.2623 16.8956 41.7309 17.4736 41.7309H50.649C51.227 41.7309 51.6955 41.2623 51.6955 40.6843V20.7287C51.6955 20.1507 51.227 19.6821 50.649 19.6821Z" fill="#4B79FE"/>
<path d="M16.427 21.1851V40.7708C16.4471 41.0451 16.5753 41.3002 16.7833 41.4802C16.9913 41.6602 17.2622 41.7503 17.5365 41.7308H50.586C50.8604 41.7503 51.1313 41.6602 51.3393 41.4802C51.5473 41.3002 51.6754 41.0451 51.6955 40.7708V21.1851H16.427Z" fill="#E8EEFF"/>
<path d="M58.51 39.9289L57.1723 38.1898L57.9119 37.6154C57.944 37.5913 57.9686 37.5585 57.9828 37.521C57.9909 37.4847 57.9909 37.4471 57.9828 37.4108C57.9895 37.3718 57.9895 37.3318 57.9828 37.2928C57.9578 37.2625 57.9287 37.236 57.8962 37.2141L54.5755 35.3649C54.5121 35.3256 54.4372 35.309 54.3631 35.3177C54.2911 35.3237 54.2226 35.3511 54.1663 35.3964C54.1075 35.4397 54.0635 35.5002 54.0404 35.5695C54.0205 35.6389 54.0205 35.7125 54.0404 35.7819L55.0004 39.4961C55.0108 39.5339 55.0297 39.5689 55.0555 39.5984C55.0846 39.6266 55.1195 39.6481 55.1578 39.6613C55.1963 39.6729 55.2374 39.6729 55.2759 39.6613C55.3156 39.6539 55.3532 39.6378 55.386 39.6141L56.1257 39.0082L57.4792 40.7472C57.5498 40.8408 57.6544 40.9029 57.7703 40.9204C57.89 40.9358 58.0111 40.9048 58.1087 40.8338L58.4942 40.5426C58.5412 40.5083 58.5807 40.4647 58.6105 40.4147C58.6402 40.3647 58.6596 40.3092 58.6674 40.2515C58.6648 40.1898 58.6494 40.1293 58.6224 40.0738C58.5953 40.0182 58.557 39.9689 58.51 39.9289Z" fill="white" stroke="#5200FF" stroke-width="0.786892" stroke-miterlimit="10"/>
<path d="M26.0979 22.9397H20.9122C20.5211 22.9397 20.204 23.255 20.204 23.644C20.204 24.0329 20.5211 24.3482 20.9122 24.3482H26.0979C26.489 24.3482 26.8061 24.0329 26.8061 23.644C26.8061 23.255 26.489 22.9397 26.0979 22.9397Z" fill="#A9BEFD"/>
<path d="M47.4463 22.9397H46.3053C45.9142 22.9397 45.5971 23.255 45.5971 23.644C45.5971 24.0329 45.9142 24.3482 46.3053 24.3482H47.4463C47.8374 24.3482 48.1545 24.0329 48.1545 23.644C48.1545 23.255 47.8374 22.9397 47.4463 22.9397Z" fill="#A9BEFD"/>
<path d="M37.0435 22.9397H29.4658C29.0746 22.9397 28.7576 23.255 28.7576 23.644C28.7576 24.0329 29.0746 24.3482 29.4658 24.3482H37.0435C37.4347 24.3482 37.7517 24.0329 37.7517 23.644C37.7517 23.255 37.4347 22.9397 37.0435 22.9397Z" fill="#A9BEFD"/>
<path d="M51.0424 38.607V30.1636C51.0424 30.0115 50.9191 29.8882 50.7669 29.8882C50.6148 29.8882 50.4915 30.0115 50.4915 30.1636V38.607C50.4915 38.7591 50.6148 38.8824 50.7669 38.8824C50.9191 38.8824 51.0424 38.7591 51.0424 38.607Z" fill="#A9BEFD"/>
<path opacity="0.5" d="M21.8408 37H31.4566C31.8907 37 32.307 37.1724 32.614 37.4794C32.9209 37.7863 33.0933 38.2026 33.0933 38.6367L33.0933 41.7387H20.204L20.204 38.6367C20.204 38.2026 20.3765 37.7863 20.6834 37.4794C20.9904 37.1724 21.4067 37 21.8408 37Z" fill="#A9BEFD"/>
<path opacity="0.5" d="M36.8941 25.6624H46.5099C46.944 25.6624 47.3603 25.8348 47.6673 26.1417C47.9742 26.4487 48.1466 26.865 48.1466 27.2991V34.5464C48.1466 35.0431 47.9493 35.5194 47.5981 35.8706C47.2469 36.2219 46.7705 36.4192 46.2738 36.4192H37.1301C36.8842 36.4192 36.6407 36.3707 36.4135 36.2766C36.1862 36.1825 35.9798 36.0445 35.8059 35.8706C35.632 35.6967 35.494 35.4903 35.3999 35.2631C35.3058 35.0358 35.2573 34.7923 35.2573 34.5464V27.307C35.2563 27.0914 35.2979 26.8777 35.3797 26.6782C35.4615 26.4787 35.5819 26.2973 35.7339 26.1445C35.886 25.9917 36.0668 25.8704 36.2659 25.7877C36.465 25.7049 36.6785 25.6624 36.8941 25.6624Z" fill="#A9BEFD"/>
<path opacity="0.5" d="M48.1545 41.7308V40.157C48.1524 39.7222 47.9782 39.3059 47.67 38.9992C47.3618 38.6924 46.9447 38.5203 46.5099 38.5203H36.8941C36.46 38.5203 36.0437 38.6927 35.7367 38.9997C35.4298 39.3066 35.2573 39.7229 35.2573 40.157V41.7308H48.1545Z" fill="#A9BEFD"/>
<path d="M50.767 20.7681C50.9191 20.7681 51.0424 20.6448 51.0424 20.4927C51.0424 20.3406 50.9191 20.2173 50.767 20.2173C50.6149 20.2173 50.4916 20.3406 50.4916 20.4927C50.4916 20.6448 50.6149 20.7681 50.767 20.7681Z" fill="white"/>
<path d="M49.7204 20.7681C49.8725 20.7681 49.9958 20.6448 49.9958 20.4927C49.9958 20.3406 49.8725 20.2173 49.7204 20.2173C49.5683 20.2173 49.445 20.3406 49.445 20.4927C49.445 20.6448 49.5683 20.7681 49.7204 20.7681Z" fill="white"/>
<path d="M48.6738 20.7681C48.826 20.7681 48.9493 20.6448 48.9493 20.4927C48.9493 20.3406 48.826 20.2173 48.6738 20.2173C48.5217 20.2173 48.3984 20.3406 48.3984 20.4927C48.3984 20.6448 48.5217 20.7681 48.6738 20.7681Z" fill="white"/>
<path d="M54.6778 23.4905C54.8299 23.4905 54.9532 23.3672 54.9532 23.2151C54.9532 23.063 54.8299 22.9397 54.6778 22.9397C54.5257 22.9397 54.4024 23.063 54.4024 23.2151C54.4024 23.3672 54.5257 23.4905 54.6778 23.4905Z" fill="#A9BEFD"/>
<path d="M53.6312 23.4905C53.7834 23.4905 53.9067 23.3672 53.9067 23.2151C53.9067 23.063 53.7834 22.9397 53.6312 22.9397C53.4791 22.9397 53.3558 23.063 53.3558 23.2151C53.3558 23.3672 53.4791 23.4905 53.6312 23.4905Z" fill="#A9BEFD"/>
<path d="M52.5847 23.4905C52.7368 23.4905 52.8601 23.3672 52.8601 23.2151C52.8601 23.063 52.7368 22.9397 52.5847 22.9397C52.4326 22.9397 52.3093 23.063 52.3093 23.2151C52.3093 23.3672 52.4326 23.4905 52.5847 23.4905Z" fill="#A9BEFD"/>
<path d="M25.4373 35.0451C27.9476 35.0792 30.01 33.0726 30.0449 30.5628C30.079 28.0525 28.0724 25.9901 25.5626 25.9551C23.0521 25.9203 20.9891 27.9271 20.955 30.4374C20.9209 32.9477 22.9275 35.0101 25.4373 35.0451Z" fill="url(#paint2_radial_581_782)"/>
<path d="M25.4339 35.2856L25.434 35.2856C28.0771 35.3215 30.2486 33.2087 30.2855 30.5661L30.2855 30.566C30.3214 27.9229 28.2086 25.7514 25.566 25.7146L25.566 25.7146C22.9227 25.6779 20.7504 27.7909 20.7145 30.4341C20.6785 33.0773 22.7913 35.2488 25.4339 35.2856Z" stroke="white" stroke-width="0.48108"/>
<path d="M29.3723 28.1204C28.5841 26.8399 27.178 25.9773 25.5626 25.9549L25.5 30.4999L29.3723 28.1204Z" fill="url(#paint3_radial_581_782)"/>
<path d="M30.0026 31.1129C30.0272 30.9324 30.0423 30.749 30.0447 30.5622C30.0571 29.6671 29.809 28.83 29.3722 28.1207L25.4999 30.5003L30.0035 31.1134L30.0026 31.1129Z" fill="url(#paint4_radial_581_782)"/>
<path d="M37.5 31H39.5V34H37.5V31Z" fill="white"/>
<path d="M40.5 29.5H42.5V34H40.5V29.5Z" fill="white"/>
<path d="M43.5 28H45.5V34H43.5V28Z" fill="white"/>
<path d="M56.1213 6.99997L58.2427 9.12129L56.1213 11.2426L54 9.12129L56.1213 6.99997Z" fill="white"/>
<path d="M14.1213 60L16.2427 62.1213L14.1213 64.2426L12 62.1213L14.1213 60Z" fill="white"/>
<defs>
<linearGradient id="paint0_linear_581_782" x1="36" y1="0" x2="36" y2="72" gradientUnits="userSpaceOnUse">
<stop stop-color="#BF67F5"/>
<stop offset="1" stop-color="#A306FF"/>
</linearGradient>
<linearGradient id="paint1_linear_581_782" x1="35.9812" y1="62.7802" x2="35.9812" y2="54.864" gradientUnits="userSpaceOnUse">
<stop offset="0.52" stop-color="#80A1FF"/>
<stop offset="1" stop-color="#4B79FE"/>
</linearGradient>
<radialGradient id="paint2_radial_581_782" cx="0" cy="0" r="1" gradientUnits="userSpaceOnUse" gradientTransform="translate(24.5501 29.9113) rotate(47.2545) scale(5.83263)">
<stop offset="0.37" stop-color="#80A1FF"/>
<stop offset="1" stop-color="#4B79FE"/>
</radialGradient>
<radialGradient id="paint3_radial_581_782" cx="0" cy="0" r="1" gradientUnits="userSpaceOnUse" gradientTransform="translate(25.068 28.5032) rotate(58.7845) scale(6.3161 5.33507)">
<stop offset="0.14" stop-color="#CCFBF1"/>
<stop offset="0.91" stop-color="#2DD4BF"/>
</radialGradient>
<radialGradient id="paint4_radial_581_782" cx="0" cy="0" r="1" gradientUnits="userSpaceOnUse" gradientTransform="translate(24.816 30.0628) rotate(27.0146) scale(5.34212 8.13933)">
<stop offset="0.15" stop-color="#FEF3C7"/>
<stop offset="1" stop-color="#FBBF24"/>
</radialGradient>
</defs>
</svg>
