<!DOCTYPE svg PUBLIC "-//W3C//DTD SVG 1.1//EN" "http://www.w3.org/Graphics/SVG/1.1/DTD/svg11.dtd">
<!-- Uploaded to: SVG Repo, www.svgrepo.com, Transformed by: SVG Repo Mixer Tools -->
<svg height="800px" width="800px" version="1.1" id="Layer_1" xmlns="http://www.w3.org/2000/svg" xmlns:xlink="http://www.w3.org/1999/xlink" viewBox="-50.5 -50.5 606.00 606.00" xml:space="preserve" fill="#000000">
<g id="SVGRepo_bgCarrier" stroke-width="0"/>
<g id="SVGRepo_tracerCarrier" stroke-linecap="round" stroke-linejoin="round"/>
<g id="SVGRepo_iconCarrier"> <path style="fill:#ffffff;" d="M505,252.5C505,392,392,505,252.5,505C113.1,505,0,392,0,252.5C0,113.1,113.1,0,252.5,0 C392,0,505,113.1,505,252.5z"/> <polygon style="fill:#324A5E;" points="122.5,382.5 122.5,348.9 134.8,348.9 134.8,336.1 122.5,336.1 122.5,308.7 134.8,308.7 134.8,295.9 122.5,295.9 122.5,268.5 134.8,268.5 134.8,255.7 122.5,255.7 122.5,228.3 134.8,228.3 134.8,215.5 122.5,215.5 122.5,188.1 134.8,188.1 134.8,175.3 122.5,175.3 122.5,147.9 134.8,147.9 134.8,135.1 122.5,135.1 122.5,106.7 106.7,106.7 106.7,398.3 398.3,398.3 398.3,382.5 "/> <polygon style="fill:#FF7058;" points="171.7,209.6 171.7,168.5 277.5,141.1 325.8,195.2 358.1,213.9 398.3,195.2 398.3,254.3 171.7,245.7 "/> <polygon style="fill:#324A5E;" points="171.7,269.5 171.7,195.2 248,204.4 306.9,239.9 341.9,247.1 398.3,221.2 398.3,290.4 291.5,296.1 171.7,287.2 "/> <polygon style="fill:#84DBFF;" points="171.7,327.2 171.7,237 226.2,245 294.8,282.1 360,257.2 398.3,270.2 398.3,337.3 "/> <polygon style="fill:#90DFAA;" points="171.7,351.7 398.3,351.7 398.3,317.1 350.1,284.6 285,318.2 201.9,275.3 171.7,303.4 "/> </g>
</svg>