<svg width="310" height="310" viewBox="0 0 310 310" fill="none" xmlns="http://www.w3.org/2000/svg">
<path d="M74.3369 222.894L74.3369 247.713L111.566 247.713L111.566 222.894L74.3369 222.894Z" fill="#737373"/>
<path d="M198.434 223.253L198.434 248.073L235.663 248.073L235.663 223.253L198.434 223.253Z" fill="#404040"/>
<path d="M111.566 37.2875L111.566 49.6971L123.976 49.6971L123.976 37.2875L111.566 37.2875Z" fill="#2A2B42"/>
<path d="M111.566 260.303L111.566 272.713L123.976 272.713L123.976 260.303L111.566 260.303Z" fill="#2A2B42"/>
<path d="M161.205 37.2875L161.205 49.6971L173.615 49.6971L173.615 37.2875L161.205 37.2875Z" fill="#2A2B42"/>
<path d="M161.205 260.303L161.205 272.713L173.615 272.713L173.615 260.303L161.205 260.303Z" fill="#2A2B42"/>
<path d="M136.386 37.2875L136.386 49.6971L148.795 49.6971L148.795 37.2875L136.386 37.2875Z" fill="#2A2B42"/>
<path d="M136.386 260.303L136.386 272.713L148.795 272.713L148.795 260.303L136.386 260.303Z" fill="#2A2B42"/>
<path d="M186.024 37.2875L186.024 49.6971L198.434 49.6971L198.434 37.2875L186.024 37.2875Z" fill="#2A2B42"/>
<path d="M186.024 260.303L186.024 272.713L198.434 272.713L198.434 260.303L186.024 260.303Z" fill="#2A2B42"/>
<path d="M123.976 37.2875L123.976 49.6971L136.385 49.6971L136.385 37.2875L123.976 37.2875Z" fill="#2A2B42"/>
<path d="M123.976 260.303L123.976 272.713L136.385 272.713L136.385 260.303L123.976 260.303Z" fill="#2A2B42"/>
<path d="M173.614 37.2875L173.614 49.6971L186.024 49.6971L186.024 37.2875L173.614 37.2875Z" fill="#2A2B42"/>
<path d="M173.614 260.303L173.614 272.713L186.024 272.713L186.024 260.303L173.614 260.303Z" fill="#2A2B42"/>
<path d="M148.795 37.2875L148.795 49.6971L161.205 49.6971L161.205 37.2875L148.795 37.2875Z" fill="#2A2B42"/>
<path d="M148.795 260.303L148.795 272.713L161.205 272.713L161.205 260.303L148.795 260.303Z" fill="#2A2B42"/>
<path d="M198.434 49.6971L198.434 62.1068L210.843 62.1068L210.843 49.6971L198.434 49.6971Z" fill="#2A2B42"/>
<path d="M74.3369 49.6971L74.3369 62.1068L86.7466 62.1068L86.7466 49.6971L74.3369 49.6971Z" fill="#2A2B42"/>
<path d="M198.434 247.893L198.434 260.303L210.843 260.303L210.843 247.893L198.434 247.893Z" fill="#2A2B42"/>
<path d="M74.3369 247.893L74.3369 260.303L86.7466 260.303L86.7466 247.893L74.3369 247.893Z" fill="#2A2B42"/>
<path d="M210.844 49.6971L210.844 62.1068L223.253 62.1068L223.253 49.6971L210.844 49.6971Z" fill="#2A2B42"/>
<path d="M86.7466 49.6971L86.7466 62.1068L99.1563 62.1068L99.1563 49.6971L86.7466 49.6971Z" fill="#2A2B42"/>
<path d="M210.844 247.893L210.844 260.303L223.253 260.303L223.253 247.893L210.844 247.893Z" fill="#2A2B42"/>
<path d="M86.7466 247.893L86.7466 260.303L99.1563 260.303L99.1563 247.893L86.7466 247.893Z" fill="#2A2B42"/>
<path d="M223.253 49.6971L223.253 62.1068L235.663 62.1068L235.663 49.6971L223.253 49.6971Z" fill="#2A2B42"/>
<path d="M99.1563 49.6971L99.1562 62.1068L111.566 62.1068L111.566 49.6971L99.1563 49.6971Z" fill="#2A2B42"/>
<path d="M223.253 247.893L223.253 260.303L235.663 260.303L235.663 247.893L223.253 247.893Z" fill="#2A2B42"/>
<path d="M99.1563 247.893L99.1562 260.303L111.566 260.303L111.566 247.893L99.1563 247.893Z" fill="#2A2B42"/>
<path d="M235.663 62.1068L235.663 74.5165L248.073 74.5165L248.073 62.1068L235.663 62.1068Z" fill="#2A2B42"/>
<path d="M61.9272 62.1068L61.9272 74.5165L74.3369 74.5165L74.3369 62.1068L61.9272 62.1068Z" fill="#2A2B42"/>
<path d="M74.3369 86.9261L74.3369 99.3358L99.1563 99.3358L99.1563 86.9261L74.3369 86.9261Z" fill="#D4D4D4"/>
<path d="M74.3369 148.975L74.3369 161.385L99.1563 161.385L99.1563 148.975L74.3369 148.975Z" fill="#D4D4D4"/>
<path d="M74.3369 210.844L74.3369 223.253L99.1563 223.253L99.1563 210.844L74.3369 210.844Z" fill="#D4D4D4"/>
<path d="M235.663 86.9261L235.663 99.3358L210.844 99.3358L210.844 86.9261L235.663 86.9261Z" fill="#525252"/>
<path d="M210.844 99.3358L210.844 111.745L186.024 111.745L186.024 99.3358L210.844 99.3358Z" fill="#525252"/>
<path d="M99.1563 99.3358L99.1562 111.745L186.024 111.745L186.024 99.3358L99.1563 99.3358Z" fill="#D4D4D4"/>
<path d="M99.1563 161.385L99.1562 173.794L136.385 173.794L136.385 161.385L99.1563 161.385Z" fill="#D4D4D4"/>
<path d="M99.1563 223.253L99.1562 235.663L136.385 235.663L136.385 223.253L99.1563 223.253Z" fill="#D4D4D4"/>
<path d="M136.386 161.385L136.386 173.794L186.024 173.794L186.024 161.385L136.386 161.385Z" fill="#737373"/>
<path d="M136.386 223.253L136.386 235.663L186.024 235.663L186.024 223.253L136.386 223.253Z" fill="#737373"/>
<path d="M186.024 161.385L186.024 173.794L210.844 173.794L210.844 161.385L186.024 161.385Z" fill="#525252"/>
<path d="M186.024 223.253L186.024 235.663L210.844 235.663L210.844 223.253L186.024 223.253Z" fill="#525252"/>
<path d="M136.386 173.615L136.386 198.254L210.844 198.254L210.844 173.615L136.386 173.615Z" fill="#525252"/>
<path d="M136.386 235.483L136.386 260.123L198.434 260.123L198.434 235.483L136.386 235.483Z" fill="#525252"/>
<path d="M210.844 148.975L210.844 161.385L235.663 161.385L235.663 148.975L210.844 148.975Z" fill="#525252"/>
<path d="M210.844 210.844L210.844 223.253L235.663 223.253L235.663 210.844L210.844 210.844Z" fill="#525252"/>
<path d="M235.663 136.565L235.663 148.974L248.073 148.974L248.073 136.565L235.663 136.565Z" fill="#525252"/>
<path d="M235.663 198.434L235.663 210.843L248.073 210.843L248.073 198.434L235.663 198.434Z" fill="#525252"/>
<path d="M198.434 62.1073H223.253V74.5165H235.663V86.9266H210.844V99.3358H99.1562V86.9266H74.3369V62.1073H111.566V49.6971H198.434V62.1073Z" fill="#737373"/>
<path d="M61.9272 74.5165L61.9272 86.9261L74.3369 86.9261L74.3369 74.5165L61.9272 74.5165Z" fill="#D4D4D4"/>
<path d="M61.9272 136.385L61.9272 148.795L74.3369 148.795L74.3369 136.385L61.9272 136.385Z" fill="#D4D4D4"/>
<path d="M61.9272 198.254L61.9272 210.664L74.3369 210.664L74.3369 198.254L61.9272 198.254Z" fill="#D4D4D4"/>
<path d="M61.9272 86.9261L61.9272 111.745L74.3369 111.745L74.3369 86.9261L61.9272 86.9261Z" fill="#737373"/>
<path d="M61.9272 148.616L61.9272 173.435L74.3369 173.435L74.3369 148.616L61.9272 148.616Z" fill="#737373"/>
<path d="M61.9272 210.484L61.9272 235.304L74.3369 235.304L74.3369 210.484L61.9272 210.484Z" fill="#737373"/>
<path d="M74.3369 99.3358L74.3369 124.155L99.1562 124.155L99.1563 99.3358L74.3369 99.3358Z" fill="#737373"/>
<path d="M74.3369 161.025L74.3369 185.845L99.1562 185.845L99.1563 161.025L74.3369 161.025Z" fill="#737373"/>
<path d="M74.3369 124.155L74.3369 136.565L99.1562 136.565L99.1562 124.155L74.3369 124.155Z" fill="#3EDDBE"/>
<path d="M74.3369 185.845L74.3369 198.254L99.1562 198.254L99.1562 185.845L74.3369 185.845Z" fill="#3EDDBE"/>
<path d="M74.3369 136.565L74.3369 148.974L99.1562 148.974L99.1562 136.565L74.3369 136.565Z" fill="#B7FFEB"/>
<path d="M74.3369 198.254L74.3369 210.664L99.1562 210.664L99.1562 198.254L74.3369 198.254Z" fill="#B7FFEB"/>
<path d="M99.1563 148.975L99.1562 161.385L136.385 161.385L136.385 148.975L99.1563 148.975Z" fill="#B7FFEB"/>
<path d="M99.1563 210.664L99.1562 223.074L136.385 223.074L136.385 210.664L99.1563 210.664Z" fill="#B7FFEB"/>
<path d="M136.386 148.975L136.386 161.385L210.844 161.385L210.844 148.975L136.386 148.975Z" fill="#95F4DC"/>
<path d="M136.386 210.664L136.386 223.074L210.844 223.074L210.844 210.664L136.386 210.664Z" fill="#95F4DC"/>
<path d="M99.1563 148.975L99.1562 161.385L111.566 161.385L111.566 148.975L99.1563 148.975Z" fill="#95F4DC"/>
<path d="M99.1563 210.664L99.1562 223.074L111.566 223.074L111.566 210.664L99.1563 210.664Z" fill="#95F4DC"/>
<path d="M74.3369 136.565L74.3369 148.974L86.7466 148.974L86.7466 136.565L74.3369 136.565Z" fill="#95F4DC"/>
<path d="M74.3369 198.254L74.3369 210.664L86.7466 210.664L86.7466 198.254L74.3369 198.254Z" fill="#95F4DC"/>
<path d="M210.844 136.565L210.844 148.975L235.663 148.975L235.663 136.565L210.844 136.565Z" fill="#95F4DC"/>
<path d="M210.844 198.255L210.844 210.664L235.663 210.664L235.663 198.255L210.844 198.255Z" fill="#95F4DC"/>
<path d="M210.844 124.155L210.844 136.565L235.663 136.565L235.663 124.155L210.844 124.155Z" fill="#3EDDBE"/>
<path d="M210.844 185.845L210.844 198.254L235.663 198.254L235.663 185.845L210.844 185.845Z" fill="#3EDDBE"/>
<path d="M99.1563 136.565L99.1562 148.974L210.843 148.975L210.843 136.565L99.1563 136.565Z" fill="#3EDDBE"/>
<path d="M99.1563 198.254L99.1562 210.664L210.843 210.664L210.843 198.254L99.1563 198.254Z" fill="#3EDDBE"/>
<path d="M99.1563 111.745L99.1562 136.565L136.385 136.565L136.385 111.745L99.1563 111.745Z" fill="#737373"/>
<path d="M99.1563 173.435L99.1562 198.254L136.385 198.254L136.385 173.435L99.1563 173.435Z" fill="#737373"/>
<path d="M111.566 235.304L111.566 260.123L136.385 260.123L136.385 235.304L111.566 235.304Z" fill="#737373"/>
<path d="M136.386 111.745L136.386 136.565L210.844 136.565L210.844 111.745L136.386 111.745Z" fill="#525252"/>
<path d="M210.844 99.3358L210.844 124.155L235.663 124.155L235.663 99.3358L210.844 99.3358Z" fill="#404040"/>
<path d="M210.844 161.385L210.844 186.204L235.663 186.204L235.663 161.385L210.844 161.385Z" fill="#404040"/>
<path d="M235.663 86.9261L235.663 111.745L248.073 111.745L248.073 86.9261L235.663 86.9261Z" fill="#404040"/>
<path d="M235.663 148.975L235.663 173.794L248.073 173.794L248.073 148.975L235.663 148.975Z" fill="#404040"/>
<path d="M235.663 210.844L235.663 235.663L248.073 235.663L248.073 210.844L235.663 210.844Z" fill="#404040"/>
<path d="M248.072 74.5165L248.072 86.9261L235.663 86.9261L235.663 74.5165L248.072 74.5165Z" fill="#525252"/>
<path d="M235.663 62.1068L235.663 74.5165L223.253 74.5165L223.253 62.1068L235.663 62.1068Z" fill="#525252"/>
<path d="M235.663 235.484L235.663 247.893L248.073 247.893L248.073 235.484L235.663 235.484Z" fill="#2A2B42"/>
<path d="M61.9272 235.484L61.9272 247.893L74.3369 247.893L74.3369 235.484L61.9272 235.484Z" fill="#2A2B42"/>
<path d="M248.072 74.5165L248.072 86.9261L260.482 86.9261L260.482 74.5165L248.072 74.5165Z" fill="#2A2B42"/>
<path d="M49.5176 74.5165L49.5176 86.9261L61.9273 86.9261L61.9273 74.5165L49.5176 74.5165Z" fill="#2A2B42"/>
<path d="M248.072 86.9261L248.072 99.3358L260.482 99.3358L260.482 86.9261L248.072 86.9261Z" fill="#2A2B42"/>
<path d="M49.5176 86.9261L49.5176 99.3358L61.9273 99.3358L61.9273 86.9261L49.5176 86.9261Z" fill="#2A2B42"/>
<path d="M248.072 99.3358L248.072 111.745L260.482 111.745L260.482 99.3358L248.072 99.3358Z" fill="#2A2B42"/>
<path d="M49.5176 99.3358L49.5176 111.745L61.9273 111.745L61.9273 99.3358L49.5176 99.3358Z" fill="#2A2B42"/>
<path d="M235.663 111.745L235.663 124.155L248.073 124.155L248.073 111.745L235.663 111.745Z" fill="#2A2B42"/>
<path d="M61.9272 111.745L61.9272 124.155L74.3369 124.155L74.3369 111.745L61.9272 111.745Z" fill="#2A2B42"/>
<path d="M235.663 173.615L235.663 186.024L248.073 186.024L248.073 173.615L235.663 173.615Z" fill="#2A2B42"/>
<path d="M61.9272 173.615L61.9272 186.024L74.3369 186.024L74.3369 173.615L61.9272 173.615Z" fill="#2A2B42"/>
<path d="M235.663 124.155L235.663 136.565L248.073 136.565L248.073 124.155L235.663 124.155Z" fill="#2A2B42"/>
<path d="M61.9272 124.155L61.9272 136.565L74.3369 136.565L74.3369 124.155L61.9272 124.155Z" fill="#2A2B42"/>
<path d="M235.663 186.024L235.663 198.434L248.073 198.434L248.073 186.024L235.663 186.024Z" fill="#2A2B42"/>
<path d="M61.9272 186.024L61.9272 198.434L74.3369 198.434L74.3369 186.024L61.9272 186.024Z" fill="#2A2B42"/>
<path d="M248.072 136.385L248.072 148.795L260.482 148.795L260.482 136.385L248.072 136.385Z" fill="#2A2B42"/>
<path d="M49.5176 136.385L49.5176 148.795L61.9273 148.795L61.9273 136.385L49.5176 136.385Z" fill="#2A2B42"/>
<path d="M248.072 198.255L248.072 210.664L260.482 210.664L260.482 198.255L248.072 198.255Z" fill="#2A2B42"/>
<path d="M49.5176 198.255L49.5176 210.664L61.9273 210.664L61.9273 198.255L49.5176 198.255Z" fill="#2A2B42"/>
<path d="M248.072 148.795L248.072 161.205L260.482 161.205L260.482 148.795L248.072 148.795Z" fill="#2A2B42"/>
<path d="M49.5176 148.795L49.5176 161.205L61.9273 161.205L61.9273 148.795L49.5176 148.795Z" fill="#2A2B42"/>
<path d="M248.072 210.664L248.072 223.074L260.482 223.074L260.482 210.664L248.072 210.664Z" fill="#2A2B42"/>
<path d="M49.5176 210.664L49.5176 223.074L61.9273 223.074L61.9273 210.664L49.5176 210.664Z" fill="#2A2B42"/>
<path d="M248.072 161.205L248.072 173.615L260.482 173.615L260.482 161.205L248.072 161.205Z" fill="#2A2B42"/>
<path d="M49.5176 161.205L49.5176 173.615L61.9273 173.615L61.9273 161.205L49.5176 161.205Z" fill="#2A2B42"/>
<path d="M248.072 223.074L248.072 235.484L260.482 235.484L260.482 223.074L248.072 223.074Z" fill="#2A2B42"/>
<path d="M49.5176 223.074L49.5176 235.484L61.9273 235.484L61.9273 223.074L49.5176 223.074Z" fill="#2A2B42"/>
</svg>
