<svg width="310" height="310" viewBox="0 0 310 310" fill="none" xmlns="http://www.w3.org/2000/svg">
<rect width="310" height="310" fill="white"/>
<path d="M98.7969 247.395L84.7461 247.395L84.7461 191.191L98.7969 191.191L98.7969 247.395Z" fill="#FF5449"/>
<path d="M112.848 149.039L126.898 149.039L126.898 163.089L112.848 163.089L112.848 149.039Z" fill="#262739"/>
<path d="M28.543 92.8356L42.5938 92.8356L42.5938 106.886L28.543 106.886L28.543 92.8356Z" fill="#262739"/>
<path d="M225.254 134.988L239.305 134.988L239.305 149.039L225.254 149.039L225.254 134.988Z" fill="#262739"/>
<path d="M140.949 78.7848L155 78.7848L155 92.8356L140.949 92.8356L140.949 78.7848Z" fill="#262739"/>
<path d="M140.949 106.886L155 106.886L155 120.937L140.949 120.937L140.949 106.886Z" fill="#262739"/>
<path d="M140.949 120.937L155 120.937L155 134.988L140.949 134.988L140.949 120.937Z" fill="#404040"/>
<path d="M126.898 106.886L140.949 106.886L140.949 120.937L126.898 120.937L126.898 106.886Z" fill="#262739"/>
<path d="M126.898 120.937L140.949 120.937L140.949 134.988L126.898 134.988L126.898 120.937Z" fill="#404040"/>
<path d="M112.848 120.937L126.898 120.937L126.898 134.988L112.848 134.988L112.848 120.937Z" fill="#262739"/>
<path d="M112.848 134.988L126.898 134.988L126.898 149.039L112.848 149.039L112.848 134.988Z" fill="#404040"/>
<path d="M70.6953 120.937L98.7969 120.937L98.7969 134.988L70.6953 134.988L70.6953 120.937Z" fill="#404040"/>
<path d="M28.543 106.886L56.6445 106.886L56.6445 120.937L28.543 120.937L28.543 106.886Z" fill="#404040"/>
<path d="M56.6445 106.886L126.898 106.886L126.898 120.937L56.6445 120.937L56.6445 106.886Z" fill="#525252"/>
<path d="M56.6445 106.886L126.898 106.886L126.898 120.937L56.6445 120.937L56.6445 106.886Z" fill="#525252"/>
<path d="M140.949 92.8356L197.152 92.8356L197.152 106.886L140.949 106.886L140.949 92.8356Z" fill="#525252"/>
<path d="M140.949 134.988L197.152 134.988L197.152 149.039L140.949 149.039L140.949 134.988Z" fill="#525252"/>
<path d="M155 106.886L239.305 106.886L239.305 120.937L155 120.937L155 106.886Z" fill="#525252"/>
<path d="M155 120.937L281.457 120.937V134.988L155 134.988L155 120.937Z" fill="#525252"/>
<path d="M126.898 134.988L140.949 134.988L140.949 149.039L126.898 149.039L126.898 134.988Z" fill="#404040"/>
<path d="M197.152 163.089L211.203 163.089L211.203 177.14L197.152 177.14L197.152 163.089Z" fill="#525252"/>
<path d="M126.898 205.242L183.102 205.242L183.102 219.293L126.898 219.293L126.898 205.242Z" fill="#525252"/>
<path d="M98.7969 163.089L112.848 163.089L112.848 177.14L98.7969 177.14L98.7969 163.089Z" fill="#525252"/>
<path d="M112.848 177.141L211.203 177.141L211.203 205.241L112.848 205.241L112.848 177.141Z" fill="#525252"/>
<path d="M112.848 92.8356L140.949 92.8356L140.949 106.886L112.848 106.886L112.848 92.8356Z" fill="#404040"/>
<path d="M98.7969 261.445L84.7461 261.445L84.7461 247.394L98.7969 247.394L98.7969 261.445Z" fill="#DE3730"/>
<path d="M98.7969 205.242L84.7461 205.242L84.7461 191.191L98.7969 191.191L98.7969 205.242Z" fill="#FF897D"/>
<path d="M98.7969 233.344L84.7461 233.344L84.7461 219.293L98.7969 219.293L98.7969 233.344Z" fill="#FF897D"/>
<path d="M98.7969 120.937L112.848 120.937L112.848 134.988L98.7969 134.988L98.7969 120.937Z" fill="#262739"/>
<path d="M84.7461 149.039L98.7969 149.039L98.7969 163.089L84.7461 163.089L84.7461 149.039Z" fill="#262739"/>
<path d="M98.7969 177.14L112.848 177.14L112.848 191.191L98.7969 191.191L98.7969 177.14Z" fill="#262739"/>
<path d="M183.102 205.241L197.152 205.241L197.152 219.292L183.102 219.292L183.102 205.241Z" fill="#262739"/>
<path d="M211.203 191.191L225.254 191.191L225.254 205.241L211.203 205.241L211.203 191.191Z" fill="#262739"/>
<path d="M126.898 219.293L140.949 219.293L140.949 233.343L126.898 233.343L126.898 219.293Z" fill="#262739"/>
<path d="M155 219.293L169.051 219.293L169.051 233.343L155 233.343L155 219.293Z" fill="#262739"/>
<path d="M112.848 205.241L126.898 205.241L126.898 219.292L112.848 219.292L112.848 205.241Z" fill="#262739"/>
<path d="M197.152 205.241L211.203 205.241L211.203 219.292L197.152 219.292L197.152 205.241Z" fill="#262739"/>
<path d="M211.203 149.039L225.254 149.039L225.254 191.191L211.203 191.191L211.203 149.039Z" fill="#262739"/>
<path d="M140.949 219.293L155 219.293L155 233.343L140.949 233.343L140.949 219.293Z" fill="#262739"/>
<path d="M169.051 219.293L183.102 219.293L183.102 233.343L169.051 233.343L169.051 219.293Z" fill="#262739"/>
<path d="M84.7461 163.089L98.7969 163.089L98.7969 177.14L84.7461 177.14L84.7461 163.089Z" fill="#262739"/>
<path d="M84.7461 177.14L98.7969 177.14L98.7969 191.191L84.7461 191.191L84.7461 177.14Z" fill="#262739"/>
<path d="M70.6953 191.191L84.7461 191.191L84.7461 205.242L70.6953 205.242L70.6953 191.191Z" fill="#262739"/>
<path d="M98.7969 191.191L112.848 191.191L112.848 205.242L98.7969 205.242L98.7969 191.191Z" fill="#262739"/>
<path d="M70.6953 205.242L84.7461 205.242L84.7461 219.293L70.6953 219.293L70.6953 205.242Z" fill="#262739"/>
<path d="M98.7969 205.242L112.848 205.242L112.848 219.293L98.7969 219.293L98.7969 205.242Z" fill="#262739"/>
<path d="M70.6953 219.293L84.7461 219.293L84.7461 233.343L70.6953 233.343L70.6953 219.293Z" fill="#262739"/>
<path d="M98.7969 219.293L112.848 219.293L112.848 233.343L98.7969 233.343L98.7969 219.293Z" fill="#262739"/>
<path d="M70.6953 233.343L84.7461 233.343L84.7461 247.394L70.6953 247.394L70.6953 233.343Z" fill="#262739"/>
<path d="M98.7969 233.343L112.848 233.343L112.848 247.394L98.7969 247.394L98.7969 233.343Z" fill="#262739"/>
<path d="M70.6953 247.394L84.7461 247.394L84.7461 261.445H70.6953L70.6953 247.394Z" fill="#262739"/>
<path d="M98.7969 247.394L112.848 247.394L112.848 261.445H98.7969L98.7969 247.394Z" fill="#262739"/>
<path d="M84.7461 261.445H98.7969L98.7969 275.496H84.7461L84.7461 261.445Z" fill="#262739"/>
<path d="M169.051 149.039L183.102 149.039L183.102 163.089L169.051 163.089L169.051 149.039Z" fill="#262739"/>
<path d="M84.7461 92.8356L98.7969 92.8356L98.7969 106.886L84.7461 106.886L84.7461 92.8356Z" fill="#262739"/>
<path d="M140.949 149.039L155 149.039L155 163.089L140.949 163.089L140.949 149.039Z" fill="#262739"/>
<path d="M56.6445 92.8356L70.6953 92.8356L70.6953 106.886L56.6445 106.886L56.6445 92.8356Z" fill="#262739"/>
<path d="M253.355 134.988L267.406 134.988V149.039L253.355 149.039L253.355 134.988Z" fill="#262739"/>
<path d="M169.051 78.7848L183.102 78.7848L183.102 92.8356L169.051 92.8356L169.051 78.7848Z" fill="#262739"/>
<path d="M197.152 134.988L211.203 134.988L211.203 149.039L197.152 149.039L197.152 134.988Z" fill="#262739"/>
<path d="M112.848 78.7848L126.898 78.7848L126.898 92.8356L112.848 92.8356L112.848 78.7848Z" fill="#262739"/>
<path d="M126.898 149.039L140.949 149.039L140.949 163.089L126.898 163.089L126.898 149.039Z" fill="#262739"/>
<path d="M42.5938 92.8356L56.6445 92.8356L56.6445 106.886L42.5938 106.886L42.5938 92.8356Z" fill="#262739"/>
<path d="M239.305 134.988L253.355 134.988L253.355 149.039L239.305 149.039L239.305 134.988Z" fill="#262739"/>
<path d="M155 78.7848L169.051 78.7848L169.051 92.8356L155 92.8356L155 78.7848Z" fill="#262739"/>
<path d="M183.102 149.039L197.152 149.039L197.152 163.089L183.102 163.089L183.102 149.039Z" fill="#262739"/>
<path d="M98.7969 92.8356L112.848 92.8356L112.848 106.886L98.7969 106.886L98.7969 92.8356Z" fill="#262739"/>
<path d="M155 149.039L169.051 149.039L169.051 163.089L155 163.089L155 149.039Z" fill="#262739"/>
<path d="M70.6953 92.8356L84.7461 92.8356L84.7461 106.886L70.6953 106.886L70.6953 92.8356Z" fill="#262739"/>
<path d="M267.406 134.988L281.457 134.988V149.039L267.406 149.039V134.988Z" fill="#262739"/>
<path d="M281.457 120.937L295.508 120.937V134.988L281.457 134.988V120.937Z" fill="#262739"/>
<path d="M28.543 120.937L14.4922 120.937L14.4922 106.886L28.543 106.886L28.543 120.937Z" fill="#262739"/>
<path d="M267.406 106.886L281.457 106.886V120.937L267.406 120.937V106.886Z" fill="#262739"/>
<path d="M42.5938 134.988L28.543 134.988L28.543 120.937L42.5937 120.937L42.5938 134.988Z" fill="#262739"/>
<path d="M253.355 106.886L267.406 106.886V120.937L253.355 120.937L253.355 106.886Z" fill="#262739"/>
<path d="M56.6445 134.988L42.5938 134.988L42.5937 120.937L56.6445 120.937L56.6445 134.988Z" fill="#262739"/>
<path d="M239.305 106.886L253.355 106.886L253.355 120.937L239.305 120.937L239.305 106.886Z" fill="#262739"/>
<path d="M70.6953 134.988L56.6445 134.988L56.6445 120.937L70.6953 120.937L70.6953 134.988Z" fill="#262739"/>
<path d="M225.254 92.8356L239.305 92.8356L239.305 106.886L225.254 106.886L225.254 92.8356Z" fill="#262739"/>
<path d="M84.7461 149.039L70.6953 149.039L70.6953 134.988L84.7461 134.988L84.7461 149.039Z" fill="#262739"/>
<path d="M211.203 92.8356L225.254 92.8356L225.254 106.886L211.203 106.886L211.203 92.8356Z" fill="#262739"/>
<path d="M98.7969 149.039L84.7461 149.039L84.7461 134.988L98.7969 134.988L98.7969 149.039Z" fill="#262739"/>
<path d="M197.152 92.8356L211.203 92.8356L211.203 106.886L197.152 106.886L197.152 92.8356Z" fill="#262739"/>
<path d="M112.848 149.039L98.7969 149.039L98.7969 134.988L112.848 134.988L112.848 149.039Z" fill="#262739"/>
<path d="M183.102 78.7848L197.152 78.7848L197.152 92.8356L183.102 92.8356L183.102 78.7848Z" fill="#262739"/>
<path d="M211.203 134.988L225.254 134.988L225.254 149.039L211.203 149.039L211.203 134.988Z" fill="#262739"/>
<path d="M126.898 78.7848L140.949 78.7848L140.949 92.8356L126.898 92.8356L126.898 78.7848Z" fill="#262739"/>
<path d="M98.7969 163.09L112.848 163.09L112.848 177.14L98.7969 177.14L98.7969 163.09Z" fill="#404040"/>
<path d="M98.7969 149.039L112.848 149.039L112.848 163.09L98.7969 163.09L98.7969 149.039Z" fill="#262626"/>
<path d="M197.152 163.09L211.203 163.09L211.203 177.14L197.152 177.14L197.152 163.09Z" fill="#404040"/>
<path d="M197.152 149.039L211.203 149.039L211.203 163.09L197.152 163.09L197.152 149.039Z" fill="#262626"/>
<path d="M112.848 177.141L197.152 177.141L197.152 191.192L112.848 191.192L112.848 177.141Z" fill="#404040"/>
<path d="M126.898 205.241L183.102 205.241L183.102 219.292L126.898 219.292L126.898 205.241Z" fill="#737373"/>
<path d="M112.848 191.191L126.898 191.191L126.898 205.241L112.848 205.241L112.848 191.191Z" fill="#737373"/>
<path d="M183.102 191.191L211.203 191.191L211.203 205.241L183.102 205.241L183.102 191.191Z" fill="#737373"/>
<path d="M183.102 134.988L197.152 134.988L197.152 149.039L183.102 149.039L183.102 134.988Z" fill="#737373"/>
<path d="M183.102 92.8356L197.152 92.8356L197.152 106.886L183.102 106.886L183.102 92.8356Z" fill="#737373"/>
<path d="M225.254 106.886L239.305 106.886L239.305 120.937L225.254 120.937L225.254 106.886Z" fill="#737373"/>
<path d="M267.406 120.937L281.457 120.937V134.988L267.406 134.988V120.937Z" fill="#737373"/>
<path d="M112.848 163.09L197.152 163.09L197.152 177.141L112.848 177.141L112.848 163.09Z" fill="#262626"/>
</svg>
