<svg width="310" height="310" viewBox="0 0 310 310" fill="none" xmlns="http://www.w3.org/2000/svg">
<rect width="310" height="310" fill="white"/>
<path d="M236.161 147.61H73.8359V206.727H236.161V147.61Z" fill="white"/>
<path d="M191.892 206.727H118.107V236.285H191.892V206.727Z" fill="#EBF1FF"/>
<path d="M191.892 132.831H118.107V147.61H191.892V132.831Z" fill="#EBF1FF"/>
<path d="M118.107 206.727H88.5938V221.506H118.107V206.727Z" fill="#EBF1FF"/>
<path d="M221.405 206.727H191.892V221.506H221.405V206.727Z" fill="#EBF1FF"/>
<path d="M118.107 147.61H88.5938V162.39H118.107V147.61Z" fill="#EBF1FF"/>
<path d="M221.405 147.61H191.892V162.39H221.405V147.61Z" fill="#EBF1FF"/>
<path d="M88.5937 191.948H73.8369V206.727H88.5937V191.948Z" fill="#EBF1FF"/>
<path d="M73.8369 191.948H59.0801V206.727H73.8369V191.948Z" fill="#D5E3FF"/>
<path d="M236.163 191.948H221.406V206.727H236.163V191.948Z" fill="#EBF1FF"/>
<path d="M250.919 191.948H236.162V206.727H250.919V191.948Z" fill="#D5E3FF"/>
<path d="M73.8369 177.169H59.0801V191.948H73.8369V177.169Z" fill="#EBF1FF"/>
<path d="M59.0801 177.169H44.3232V191.948H59.0801V177.169Z" fill="#D5E3FF"/>
<path d="M250.92 177.169H236.163V191.948H250.92V177.169Z" fill="#EBF1FF"/>
<path d="M265.676 177.169H250.919V191.948H265.676V177.169Z" fill="#D5E3FF"/>
<path d="M88.5928 162.39H73.8359V177.169H88.5928V162.39Z" fill="#EBF1FF"/>
<path d="M73.8359 162.39H59.0791V177.169H73.8359V162.39Z" fill="#D5E3FF"/>
<path d="M236.162 162.39H221.405V177.169H236.162V162.39Z" fill="#EBF1FF"/>
<path d="M250.918 162.39H236.161V177.169H250.918V162.39Z" fill="#D5E3FF"/>
<path d="M162.378 118.052H147.621V132.831H162.378V118.052Z" fill="#262739"/>
<path d="M162.378 88.4943H147.621V103.273H162.378V88.4943Z" fill="#262739"/>
<path d="M162.378 73.7152H147.621V88.4942H162.378V73.7152Z" fill="#262739"/>
<path d="M162.378 58.9362H147.621V73.7152H162.378V58.9362Z" fill="#262739"/>
<path d="M162.378 236.285H147.621V251.064H162.378V236.285Z" fill="#262739"/>
<path d="M162.378 206.727H147.621V221.506H162.378V206.727Z" fill="#262739"/>
<path d="M177.135 118.052H162.378V132.831H177.135V118.052Z" fill="#262739"/>
<path d="M177.135 236.285H162.378V251.064H177.135V236.285Z" fill="#262739"/>
<path d="M177.135 206.727H162.378V221.506H177.135V206.727Z" fill="#262739"/>
<path d="M191.892 118.052H177.135V132.831H191.892V118.052Z" fill="#262739"/>
<path d="M191.892 88.4943H177.135V103.273H191.892V88.4943Z" fill="#262739"/>
<path d="M206.649 73.7152H191.892V88.4942H206.649V73.7152Z" fill="#262739"/>
<path d="M191.892 236.285H177.135V251.064H191.892V236.285Z" fill="#262739"/>
<path d="M191.892 191.948H177.135V206.727H191.892V191.948Z" fill="#262739"/>
<path d="M191.892 177.169H177.135V191.948H191.892V177.169Z" fill="#262739"/>
<path d="M147.621 118.052H132.864V132.831H147.621V118.052Z" fill="#262739"/>
<path d="M147.621 236.285H132.864V251.064H147.621V236.285Z" fill="#262739"/>
<path d="M147.621 206.727H132.864V221.506H147.621V206.727Z" fill="#262739"/>
<path d="M132.865 118.052H118.107V132.831H132.865V118.052Z" fill="#262739"/>
<path d="M132.865 88.4943H118.107V103.273H132.865V88.4943Z" fill="#262739"/>
<path d="M118.108 73.7152H103.351V88.4942H118.108V73.7152Z" fill="#262739"/>
<path d="M132.865 236.285H118.107V251.064H132.865V236.285Z" fill="#262739"/>
<path d="M132.865 191.948H118.107V206.727H132.865V191.948Z" fill="#262739"/>
<path d="M132.865 177.169H118.107V191.948H132.865V177.169Z" fill="#262739"/>
<path d="M147.621 191.948H132.864V206.727H147.621V191.948Z" fill="#633F00"/>
<path d="M147.621 191.948H132.864V206.727H147.621V191.948Z" fill="#633F00"/>
<path d="M177.135 191.948H162.378V206.727H177.135V191.948Z" fill="#633F00"/>
<path d="M177.135 162.39H162.378V177.169H177.135V162.39Z" fill="#633F00"/>
<path d="M147.621 177.169H132.864V191.948H147.621V177.169Z" fill="#835500"/>
<path d="M162.378 162.39H147.621V177.169H162.378V162.39Z" fill="#835500"/>
<path d="M162.378 191.948H147.621V206.727H162.378V191.948Z" fill="#835500"/>
<path d="M162.378 177.169H147.621V191.948H162.378V177.169Z" fill="#262739"/>
<path d="M177.135 177.169H162.378V191.948H177.135V177.169Z" fill="#835500"/>
<path d="M118.108 132.831H103.351V147.61H118.108V132.831Z" fill="#262739"/>
<path d="M118.108 221.506H103.351V236.285H118.108V221.506Z" fill="#262739"/>
<path d="M221.406 132.831H206.648V147.61H221.406V132.831Z" fill="#262739"/>
<path d="M221.406 103.273H206.648V118.052H221.406V103.273Z" fill="#262739"/>
<path d="M236.163 88.4943H221.405V103.273H236.163V88.4943Z" fill="#262739"/>
<path d="M221.406 221.506H206.648V236.285H221.406V221.506Z" fill="#262739"/>
<path d="M103.351 132.831H88.5938V147.61H103.351V132.831Z" fill="#262739"/>
<path d="M103.351 103.273H88.5938V118.052H103.351V103.273Z" fill="#262739"/>
<path d="M88.5942 88.4943H73.8369V103.273H88.5942V88.4943Z" fill="#262739"/>
<path d="M103.351 221.506H88.5938V236.285H103.351V221.506Z" fill="#262739"/>
<path d="M206.649 132.831H191.892V147.61H206.649V132.831Z" fill="#262739"/>
<path d="M206.649 221.506H191.892V236.285H206.649V221.506Z" fill="#262739"/>
<path d="M88.5942 147.61H73.8369V162.39H88.5942V147.61Z" fill="#262739"/>
<path d="M162.378 147.61H147.621V162.39H162.378V147.61Z" fill="#262739"/>
<path d="M177.135 147.61H162.378V162.39H177.135V147.61Z" fill="#262739"/>
<path d="M191.892 162.39H177.135V177.169H191.892V162.39Z" fill="#262739"/>
<path d="M147.621 147.61H132.864V162.39H147.621V147.61Z" fill="#262739"/>
<path d="M147.621 162.39H132.864V177.169H147.621V162.39Z" fill="white"/>
<path d="M132.865 162.39H118.107V177.169H132.865V162.39Z" fill="#262739"/>
<path d="M88.5942 206.727H73.8369V221.506H88.5942V206.727Z" fill="#262739"/>
<path d="M250.919 147.61H236.162V162.39H250.919V147.61Z" fill="#262739"/>
<path d="M250.919 118.052H236.162V132.831H250.919V118.052Z" fill="#262739"/>
<path d="M265.676 103.273H250.919V118.052H265.676V103.273Z" fill="#262739"/>
<path d="M250.919 206.727H236.162V221.506H250.919V206.727Z" fill="#262739"/>
<path d="M73.8373 147.61H59.0801V162.39H73.8373V147.61Z" fill="#262739"/>
<path d="M73.8373 118.052H59.0801V132.831H73.8373V118.052Z" fill="#262739"/>
<path d="M73.8373 206.727H59.0801V221.506H73.8373V206.727Z" fill="#262739"/>
<path d="M236.163 147.61H221.405V162.39H236.163V147.61Z" fill="#262739"/>
<path d="M236.163 206.727H221.405V221.506H236.163V206.727Z" fill="#262739"/>
<path d="M59.0805 162.39H44.3232V177.169H59.0805V162.39Z" fill="#262739"/>
<path d="M59.0805 103.273H44.3232V118.052H59.0805V103.273Z" fill="#262739"/>
<path d="M59.0805 191.948H44.3232V206.727H59.0805V191.948Z" fill="#262739"/>
<path d="M265.676 162.39H250.919V177.169H265.676V162.39Z" fill="#262739"/>
<path d="M265.676 191.948H250.919V206.727H265.676V191.948Z" fill="#262739"/>
<path d="M44.3236 177.169H29.5664V191.948H44.3236V177.169Z" fill="#262739"/>
<path d="M29.5668 177.169H14.8096V191.948H29.5668V177.169Z" fill="#262739"/>
<path d="M280.433 177.169H265.676V191.948H280.433V177.169Z" fill="#262739"/>
<path d="M295.192 177.169H280.435V191.948H295.192V177.169Z" fill="#262739"/>
</svg>
