<svg width="72" height="72" viewBox="0 0 72 72" fill="none" xmlns="http://www.w3.org/2000/svg">
<rect width="72" height="72" rx="12" fill="url(#paint0_linear_515_3130)"/>
<path d="M20.28 18.5433C20.28 17.5622 21.0822 16.7706 22.0632 16.7835L52.0548 17.1781C52.989 17.1904 53.7508 17.9305 53.7901 18.8639L55.3988 57.0718C55.4424 58.1068 54.5871 58.9554 53.5525 58.9036L21.9521 57.3236C21.0154 57.2768 20.28 56.5037 20.28 55.5658V18.5433Z" fill="url(#paint1_linear_515_3130)"/>
<rect x="18.52" y="15" width="35.2" height="42.24" rx="1.76" fill="url(#paint2_linear_515_3130)"/>
<path fill-rule="evenodd" clip-rule="evenodd" d="M53.7201 23.8271V55.48C53.7201 56.452 52.9321 57.24 51.9601 57.24H26.4401C25.468 57.24 24.6801 56.452 24.6801 55.48V52.2003C25.08 51.4888 25.5578 50.8228 26.1129 50.2208L48.1489 26.322C49.7408 24.5955 51.7452 23.7664 53.7201 23.8271Z" fill="url(#paint3_linear_515_3130)"/>
<path fill-rule="evenodd" clip-rule="evenodd" d="M53.1664 56.7616C52.8514 57.0583 52.4269 57.2401 51.96 57.2401H20.28C19.308 57.2401 18.52 56.4521 18.52 55.4801V37.9724C22.5282 34.2686 28.7731 34.2164 32.8464 37.981L53.1664 56.7616Z" fill="#2DD4BF"/>
<circle cx="32.16" cy="26" r="3.08" fill="#FEF3C7"/>
<rect x="59.1213" y="10" width="3" height="3" transform="rotate(45 59.1213 10)" fill="white"/>
<rect x="60.1213" y="60" width="3" height="3" transform="rotate(45 60.1213 60)" fill="white"/>
<path d="M15.8212 59.31C16.0597 59.1722 16.0597 58.8278 15.8212 58.6907L13.6789 57.4542C13.2088 57.1827 12.8181 56.792 12.5466 56.322L11.3101 54.1789C11.1722 53.9404 10.8279 53.9404 10.6908 54.1789L9.45427 56.3212C9.18282 56.7913 8.79208 57.182 8.32205 57.4535L6.17904 58.6907C5.94045 58.8286 5.94045 59.1729 6.17904 59.31L8.32133 60.5465C8.79137 60.818 9.18211 61.2087 9.45356 61.6788L10.6901 63.8211C10.8279 64.0596 11.1722 64.0596 11.3094 63.8211L12.5459 61.6788C12.8174 61.2087 13.2081 60.818 13.6781 60.5465L15.8212 59.31Z" fill="white"/>
<circle cx="19" cy="15" r="7" fill="#4F46E5" stroke="white" stroke-width="2"/>
<circle cx="56" cy="33" r="7" fill="#4F46E5" stroke="white" stroke-width="2"/>
<circle cx="31" cy="57" r="7" fill="#4F46E5" stroke="white" stroke-width="2"/>
<path d="M16 13.5C16 12.9477 16.4477 12.5 17 12.5H21C21.5523 12.5 22 12.9477 22 13.5C22 14.0523 21.5523 14.5 21 14.5H17C16.4477 14.5 16 14.0523 16 13.5Z" fill="white"/>
<path d="M53 31.5C53 30.9477 53.4477 30.5 54 30.5H58C58.5523 30.5 59 30.9477 59 31.5C59 32.0523 58.5523 32.5 58 32.5H54C53.4477 32.5 53 32.0523 53 31.5Z" fill="white"/>
<path d="M28 55.5C28 54.9477 28.4477 54.5 29 54.5H33C33.5523 54.5 34 54.9477 34 55.5C34 56.0523 33.5523 56.5 33 56.5H29C28.4477 56.5 28 56.0523 28 55.5Z" fill="white"/>
<path d="M16 16.5C16 15.9477 16.4477 15.5 17 15.5H19C19.5523 15.5 20 15.9477 20 16.5C20 17.0523 19.5523 17.5 19 17.5H17C16.4477 17.5 16 17.0523 16 16.5Z" fill="white"/>
<path d="M53 34.5C53 33.9477 53.4477 33.5 54 33.5H56C56.5523 33.5 57 33.9477 57 34.5C57 35.0523 56.5523 35.5 56 35.5H54C53.4477 35.5 53 35.0523 53 34.5Z" fill="white"/>
<path d="M28 58.5C28 57.9477 28.4477 57.5 29 57.5H31C31.5523 57.5 32 57.9477 32 58.5C32 59.0523 31.5523 59.5 31 59.5H29C28.4477 59.5 28 59.0523 28 58.5Z" fill="white"/>
<path d="M25.5638 25.0753L21.3084 22.45L24.6128 20.1411L25.5638 25.0753Z" fill="white"/>
<path d="M46.0712 39.0883L48.9996 35.0356L51.0615 38.4994L46.0712 39.0883Z" fill="white"/>
<path d="M38.589 47.8587L37.1915 52.6594L34.0861 50.089L38.589 47.8587Z" fill="white"/>
<defs>
<linearGradient id="paint0_linear_515_3130" x1="36" y1="0" x2="36" y2="72" gradientUnits="userSpaceOnUse">
<stop stop-color="#FFC223"/>
<stop offset="1" stop-color="#FFA000"/>
</linearGradient>
<linearGradient id="paint1_linear_515_3130" x1="59" y1="62.96" x2="22.92" y2="20.72" gradientUnits="userSpaceOnUse">
<stop offset="0.0456969" stop-color="#183FB0" stop-opacity="0"/>
<stop offset="1" stop-color="#6366F1"/>
</linearGradient>
<linearGradient id="paint2_linear_515_3130" x1="36.12" y1="15" x2="36.12" y2="57.24" gradientUnits="userSpaceOnUse">
<stop stop-color="#183FB0"/>
<stop offset="0.583609" stop-color="#6366F1"/>
</linearGradient>
<linearGradient id="paint3_linear_515_3130" x1="39.2001" y1="23.824" x2="39.2001" y2="57.24" gradientUnits="userSpaceOnUse">
<stop stop-color="#0D9488"/>
<stop offset="0.855848" stop-color="#2DD4BF"/>
</linearGradient>
</defs>
</svg>
