<svg width="72" height="72" viewBox="0 0 72 72" fill="none" xmlns="http://www.w3.org/2000/svg">
<g clip-path="url(#clip0_515_3181)">
<rect width="72" height="72" rx="12" fill="url(#paint0_linear_515_3181)"/>
<path d="M39.4286 9.59204H-6.94155C-8.0784 9.59204 -9 10.5136 -9 11.6505V45.6355C-9 46.7724 -8.0784 47.694 -6.94155 47.694H39.4286C40.5655 47.694 41.4871 46.7724 41.4871 45.6355V11.6505C41.4871 10.5136 40.5655 9.59204 39.4286 9.59204Z" fill="url(#paint1_radial_515_3181)"/>
<path d="M17.4642 12.5626H3.9053C3.40532 12.5626 3 12.9672 3 13.4662C3 13.9652 3.40532 14.3698 3.9053 14.3698H17.4642C17.9642 14.3698 18.3695 13.9652 18.3695 13.4662C18.3695 12.9672 17.9642 12.5626 17.4642 12.5626Z" fill="#5EEAD4"/>
<path d="M11.4851 16.7622H3.9053C3.40532 16.7622 3 17.1668 3 17.6658C3 18.1648 3.40532 18.5694 3.9053 18.5694H11.4851C11.9851 18.5694 12.3904 18.1648 12.3904 17.6658C12.3904 17.1668 11.9851 16.7622 11.4851 16.7622Z" fill="#EFF6FF"/>
<path d="M29.6463 16.7622H14.5762C14.0762 16.7622 13.6709 17.1668 13.6709 17.6658C13.6709 18.1648 14.0762 18.5694 14.5762 18.5694H29.6463C30.1462 18.5694 30.5516 18.1648 30.5516 17.6658C30.5516 17.1668 30.1462 16.7622 29.6463 16.7622Z" fill="#CBD8FF"/>
<path d="M34.9999 16.7622H33.085C32.585 16.7622 32.1797 17.1668 32.1797 17.6658C32.1797 18.1648 32.585 18.5694 33.085 18.5694H34.9999C35.4999 18.5694 35.9052 18.1648 35.9052 17.6658C35.9052 17.1668 35.4999 16.7622 34.9999 16.7622Z" fill="#FCD34D"/>
<path d="M6.78989 21.2234H3.9053C3.40532 21.2234 3 21.6279 3 22.127C3 22.626 3.40532 23.0306 3.9053 23.0306H6.78989C7.28987 23.0306 7.69519 22.626 7.69519 22.127C7.69519 21.6279 7.28987 21.2234 6.78989 21.2234Z" fill="#EFF6FF"/>
<path d="M17.4608 21.2234H10.0841C9.58415 21.2234 9.17883 21.6279 9.17883 22.127C9.17883 22.626 9.58415 23.0306 10.0841 23.0306H17.4608C17.9608 23.0306 18.3661 22.626 18.3661 22.127C18.3661 21.6279 17.9608 21.2234 17.4608 21.2234Z" fill="#5EEAD4"/>
<path d="M31 21.2234H20.9053C20.4053 21.2234 20 21.6279 20 22.127C20 22.626 20.4053 23.0306 20.9053 23.0306H31C31.5 23.0306 31.9053 22.626 31.9053 22.127C31.9053 21.6279 31.5 21.2234 31 21.2234Z" fill="#FCA5A5"/>
<path d="M38.63 8.50081C39.0445 8.50081 39.3804 8.16484 39.3804 7.7504C39.3804 7.33597 39.0445 7 38.63 7C38.2156 7 37.8796 7.33597 37.8796 7.7504C37.8796 8.16484 38.2156 8.50081 38.63 8.50081Z" fill="white"/>
<path d="M36.1138 8.50081C36.5282 8.50081 36.8642 8.16484 36.8642 7.7504C36.8642 7.33597 36.5282 7 36.1138 7C35.6994 7 35.3634 7.33597 35.3634 7.7504C35.3634 8.16484 35.6994 8.50081 36.1138 8.50081Z" fill="white"/>
<path d="M33.6835 8.50081C34.0979 8.50081 34.4339 8.16484 34.4339 7.7504C34.4339 7.33597 34.0979 7 33.6835 7C33.2691 7 32.9331 7.33597 32.9331 7.7504C32.9331 8.16484 33.2691 8.50081 33.6835 8.50081Z" fill="white"/>
<path d="M67.8834 42.968L46.6939 33.8885C45.8445 33.5242 44.8591 33.9196 44.4948 34.7691L35.4153 55.9585C35.051 56.8079 35.4464 57.7933 36.2959 58.1576L57.4853 67.2372C58.3347 67.6015 59.3201 67.206 59.6844 66.3566L68.764 45.1671C69.1283 44.3177 68.7328 43.3324 67.8834 42.968Z" fill="white"/>
<path d="M65.6938 44.6518L46.9405 36.6151C46.6444 36.4884 46.3027 36.6267 46.1727 36.922L39.8847 51.5952C39.758 51.8913 39.8962 52.2329 40.1915 52.363L58.5239 60.2165C58.82 60.3432 59.7435 60.0185 59.8702 59.7225L66.0007 45.4196C66.1274 45.1235 65.9891 44.7818 65.6938 44.6518Z" fill="url(#paint2_linear_515_3181)"/>
<path d="M24.4541 38.0512C25.1652 37.4951 26.1686 37.5519 26.8276 38.1661C28.1219 39.3752 30.6348 41.2046 34.5349 41.8259C41.3672 42.9174 43.5673 36.9277 43.5673 36.9277L43.9343 39.8402L37.7142 55.5273L59.0373 67.114C59.0373 67.114 57.0014 69.2276 40.6253 63.4662C26.0729 58.3486 13.8357 47.2321 12.9133 35.8388C12.8048 34.5193 14.488 33.893 15.258 34.9698C17.3803 37.9533 21.038 42.1402 26.029 44.341C26.7479 44.6583 27.3578 43.7054 26.7694 43.1847C25.9781 42.4842 25.101 41.6478 24.232 40.6969C23.5215 39.9193 23.6308 38.6984 24.4582 38.0486L24.4541 38.0512Z" fill="url(#paint3_radial_515_3181)"/>
<path d="M13.2381 31.7403C13.9833 31.5986 14.4414 30.7161 14.2612 29.7692C14.0811 28.8223 13.331 28.1697 12.5858 28.3114C11.8407 28.4532 11.3826 29.3357 11.5627 30.2826C11.7429 31.2294 12.493 31.8821 13.2381 31.7403Z" fill="#CBD8FF"/>
<path d="M22.7253 36.4338C23.6064 36.0026 23.8423 34.6757 23.2522 33.4702C22.6622 32.2647 21.4696 31.6371 20.5885 32.0684C19.7074 32.4996 19.4715 33.8265 20.0616 35.032C20.6517 36.2375 21.8443 36.8651 22.7253 36.4338Z" fill="url(#paint4_linear_515_3181)"/>
<path d="M53.9318 45.3006C53.9318 45.3006 52.2316 44.3741 53.8075 42.1568C53.8953 42.6283 54.0836 43.0765 54.355 43.4694C54.8524 44.206 53.9318 45.3006 53.9318 45.3006Z" fill="#2DD4BF"/>
<path d="M53.8006 42.1552C53.8006 42.1552 53.5412 43.1342 53.7988 43.8697C54.1317 44.8198 53.9249 45.2989 53.9249 45.2989" stroke="#0D9488" stroke-width="0.604892" stroke-linecap="round" stroke-linejoin="round"/>
<path d="M47.4015 47.4563C48.0712 44.2022 50.5828 44.0801 52.568 44.9473C53.4835 45.3477 53.7767 45.6748 53.7767 45.6748C54.2071 45.6907 54.6246 45.7953 55.0139 45.9783C57.0673 46.8715 58.794 48.6826 56.8358 51.5476C55.4929 53.5138 53.1795 55.2931 51.6246 54.6146C51.3286 54.4879 51.0595 54.3038 50.8328 54.0728C50.5224 53.7593 50.1048 53.577 49.6661 53.5664C49.3148 53.5437 48.9746 53.4564 48.6554 53.3069C47.4558 52.7896 46.9321 49.7429 47.4015 47.4563Z" fill="#F87171"/>
<path d="M53.77 45.6734C53.8267 45.4215 53.9652 45.1987 54.1617 45.0313C54.3582 44.8638 54.5997 44.763 54.8581 44.7436" stroke="#313A53" stroke-width="0.604892" stroke-linecap="round" stroke-linejoin="round"/>
<path d="M56.8295 51.5603C56.8763 51.4933 56.9198 51.4254 56.9634 51.3576C56.0272 51.6442 55.0447 51.7298 54.0739 51.6063C53.738 51.5624 53.4003 51.6203 53.0982 51.771C52.7961 51.9217 52.5478 52.1622 52.3827 52.4566C52.234 52.7407 52.0055 52.9715 51.7269 53.1275C51.4491 53.2801 51.13 53.3494 50.8112 53.3234C50.1441 53.2931 49.7212 53.3848 49.4455 53.5591C49.5201 53.5724 49.5929 53.5782 49.6698 53.5814C50.1077 53.5954 50.5261 53.7743 50.8366 54.0878C51.0633 54.3188 51.3315 54.5063 51.6284 54.6296C53.1807 55.304 55.4967 53.5288 56.8369 51.5585L56.8295 51.5603Z" fill="#EF4444"/>
<path d="M54.6752 47.7009C54.6494 47.3458 54.5537 47.0031 54.3918 46.6879C54.23 46.3727 54.0072 46.0931 53.733 45.869" stroke="#EF4444" stroke-width="0.604892" stroke-linecap="round" stroke-linejoin="round"/>
<path d="M61.8212 22.31C62.0597 22.1722 62.0597 21.8278 61.8212 21.6907L59.6789 20.4542C59.2088 20.1827 58.8181 19.792 58.5466 19.322L57.3101 17.1789C57.1722 16.9404 56.8279 16.9404 56.6908 17.1789L55.4543 19.3212C55.1828 19.7913 54.7921 20.182 54.322 20.4535L52.179 21.6907C51.9404 21.8286 51.9404 22.1729 52.179 22.31L54.3213 23.5465C54.7914 23.818 55.1821 24.2087 55.4536 24.6788L56.6901 26.8211C56.8279 27.0596 57.1722 27.0596 57.3094 26.8211L58.5459 24.6788C58.8174 24.2087 59.2081 23.818 59.6781 23.5465L61.8212 22.31Z" fill="white"/>
<rect x="12.1213" y="59" width="3" height="3" transform="rotate(45 12.1213 59)" fill="white"/>
</g>
<defs>
<linearGradient id="paint0_linear_515_3181" x1="36" y1="0" x2="36" y2="72" gradientUnits="userSpaceOnUse">
<stop stop-color="#FF7373"/>
<stop offset="1" stop-color="#FF2F2F"/>
</linearGradient>
<radialGradient id="paint1_radial_515_3181" cx="0" cy="0" r="1" gradientUnits="userSpaceOnUse" gradientTransform="translate(28.2009 58.8695) rotate(-126.621) scale(55.7716 73.9003)">
<stop stop-color="#1C398B"/>
<stop offset="1" stop-color="#1854FF"/>
</radialGradient>
<linearGradient id="paint2_linear_515_3181" x1="45.5533" y1="38.6003" x2="59.0822" y2="61.8008" gradientUnits="userSpaceOnUse">
<stop stop-color="#CBD8FF"/>
<stop offset="1" stop-color="#80A1FF"/>
</linearGradient>
<radialGradient id="paint3_radial_515_3181" cx="0" cy="0" r="1" gradientUnits="userSpaceOnUse" gradientTransform="translate(10.9993 19.963) rotate(43.0223) scale(37.1406 70.5975)">
<stop offset="0.32534" stop-color="#CBD8FF"/>
<stop offset="1" stop-color="white"/>
</radialGradient>
<linearGradient id="paint4_linear_515_3181" x1="17.4947" y1="31.0375" x2="33.3775" y2="40.352" gradientUnits="userSpaceOnUse">
<stop stop-color="#CDDAFF"/>
<stop offset="1" stop-color="white"/>
</linearGradient>
<clipPath id="clip0_515_3181">
<rect width="72" height="72" rx="12" fill="white"/>
</clipPath>
</defs>
</svg>
