<svg width="310" height="310" viewBox="0 0 310 310" fill="none" xmlns="http://www.w3.org/2000/svg">
<rect width="310" height="310" fill="white"/>
<path d="M69.2163 59.4313L69.2163 214.377L231.96 214.377L231.961 59.4314L69.2163 59.4313Z" fill="#928F9A"/>
<path d="M69.2163 31.2594L69.2163 45.3453L82.7783 45.3453L82.7783 31.2594L69.2163 31.2594Z" fill="#2A2B42"/>
<path d="M69.2163 45.3454L69.2163 59.4313L82.7783 59.4313L82.7783 45.3454L69.2163 45.3454Z" fill="#787680"/>
<path d="M69.2163 59.4313L69.2163 73.5172L82.7783 73.5172L82.7783 59.4313L69.2163 59.4313Z" fill="#787680"/>
<path d="M69.2163 200.291L69.2163 214.377L82.7783 214.377L82.7783 200.291L69.2163 200.291Z" fill="#5F5D67"/>
<path d="M55.6543 214.377L55.6543 270.72L245.522 270.72L245.522 214.377L55.6543 214.377Z" fill="#5F5D67"/>
<path d="M55.6543 59.4313L55.6543 214.377L69.2163 214.377L69.2163 59.4313L55.6543 59.4313Z" fill="#787680"/>
<path d="M42.0923 87.6032L42.0923 242.548L55.6543 242.548L55.6543 87.6032L42.0923 87.6032Z" fill="#787680"/>
<path d="M245.522 87.6032L245.522 242.548L259.084 242.548L259.084 87.6032L245.522 87.6032Z" fill="#787680"/>
<path d="M231.961 59.4313L231.961 214.377L245.523 214.377L245.523 59.4313L231.961 59.4313Z" fill="#787680"/>
<path d="M231.961 31.2594L231.961 45.3453L218.399 45.3453L218.399 31.2594L231.961 31.2594Z" fill="#2A2B42"/>
<path d="M231.961 45.3454L231.961 59.4313L218.399 59.4313L218.399 45.3454L231.961 45.3454Z" fill="#787680"/>
<path d="M231.961 59.4313L231.961 73.5172L218.399 73.5172L218.399 59.4313L231.961 59.4313Z" fill="#787680"/>
<path d="M231.961 200.291L231.961 214.377L218.399 214.377L218.399 200.291L231.961 200.291Z" fill="#5F5D67"/>
<path d="M259.084 242.548L259.084 256.634L245.522 256.634L245.522 242.548L259.084 242.548Z" fill="#5F5D67"/>
<path d="M55.6543 242.548L55.6543 256.634L42.0923 256.634L42.0923 242.548L55.6543 242.548Z" fill="#5F5D67"/>
<path d="M109.902 31.2594L109.902 45.3453L123.464 45.3453L123.464 31.2594L109.902 31.2594Z" fill="#2A2B42"/>
<path d="M109.902 45.3454L109.902 59.4313L123.464 59.4313L123.464 45.3454L109.902 45.3454Z" fill="#787680"/>
<path d="M137.026 158.033L137.026 172.119L150.588 172.119L150.588 158.033L137.026 158.033Z" fill="white"/>
<path d="M164.15 158.033L164.15 172.119L177.712 172.119L177.712 158.033L164.15 158.033Z" fill="white"/>
<path d="M191.274 158.033L191.274 172.119L204.836 172.119L204.836 158.033L191.274 158.033Z" fill="white"/>
<path d="M96.3403 101.689L96.3403 115.775L109.902 115.775L109.902 101.689L96.3403 101.689Z" fill="white"/>
<path d="M109.902 143.947L109.902 158.033L123.464 158.033L123.464 143.947L109.902 143.947Z" fill="white"/>
<path d="M109.902 115.775L109.902 129.861L123.464 129.861L123.464 115.775L109.902 115.775Z" fill="white"/>
<path d="M96.3403 158.033L96.3403 172.119L109.902 172.119L109.902 158.033L96.3403 158.033Z" fill="white"/>
<path d="M123.464 129.861L123.464 143.947L137.026 143.947L137.026 129.861L123.464 129.861Z" fill="white"/>
<path d="M191.274 31.2594L191.274 45.3453L177.712 45.3453L177.712 31.2594L191.274 31.2594Z" fill="#2A2B42"/>
<path d="M191.274 45.3454L191.274 59.4313L177.712 59.4313L177.712 45.3454L191.274 45.3454Z" fill="#787680"/>
<path d="M82.7783 31.2594L82.7783 45.3453L96.3403 45.3453L96.3403 31.2594L82.7783 31.2594Z" fill="#2A2B42"/>
<path d="M82.7783 45.3454L82.7783 59.4313L96.3403 59.4313L96.3403 45.3454L82.7783 45.3454Z" fill="#787680"/>
<path d="M218.398 31.2594L218.398 45.3453L204.836 45.3453L204.836 31.2594L218.398 31.2594Z" fill="#2A2B42"/>
<path d="M218.398 45.3454L218.398 59.4313L204.836 59.4313L204.836 45.3454L218.398 45.3454Z" fill="#787680"/>
<path d="M123.464 31.2594L123.464 45.3453L137.026 45.3453L137.026 31.2594L123.464 31.2594Z" fill="#2A2B42"/>
<path d="M123.464 45.3454L123.464 59.4313L137.026 59.4313L137.026 45.3454L123.464 45.3454Z" fill="#787680"/>
<path d="M177.712 31.2594L177.712 45.3453L164.15 45.3453L164.15 31.2594L177.712 31.2594Z" fill="#2A2B42"/>
<path d="M177.712 45.3454L177.712 59.4313L164.15 59.4313L164.15 45.3454L177.712 45.3454Z" fill="#787680"/>
<path d="M96.3403 31.2594L96.3403 45.3453L109.902 45.3453L109.902 31.2594L96.3403 31.2594Z" fill="#2A2B42"/>
<path d="M96.3403 45.3454L96.3403 59.4313L109.902 59.4313L109.902 45.3454L96.3403 45.3454Z" fill="#787680"/>
<path d="M204.836 31.2594L204.836 45.3453L191.274 45.3453L191.274 31.2594L204.836 31.2594Z" fill="#2A2B42"/>
<path d="M204.836 45.3454L204.836 59.4313L191.274 59.4313L191.274 45.3454L204.836 45.3454Z" fill="#787680"/>
<path d="M137.026 31.2594L137.026 45.3453L150.588 45.3453L150.588 31.2594L137.026 31.2594Z" fill="#2A2B42"/>
<path d="M137.026 45.3454L137.026 59.4313L150.588 59.4313L150.588 45.3454L137.026 45.3454Z" fill="#787680"/>
<path d="M164.15 31.2594L164.15 45.3453L150.588 45.3453L150.588 31.2594L164.15 31.2594Z" fill="#2A2B42"/>
<path d="M164.15 45.3454L164.15 59.4313L150.588 59.4313L150.588 45.3454L164.15 45.3454Z" fill="#787680"/>
<path d="M55.6543 45.3454L55.6543 59.4313L69.2163 59.4313L69.2163 45.3454L55.6543 45.3454Z" fill="#2A2B42"/>
<path d="M245.522 45.3454L245.522 59.4313L231.96 59.4313L231.96 45.3454L245.522 45.3454Z" fill="#2A2B42"/>
<path d="M42.0923 59.4313L42.0923 73.5172L55.6543 73.5172L55.6543 59.4313L42.0923 59.4313Z" fill="#2A2B42"/>
<path d="M259.084 59.4313L259.084 73.5172L245.522 73.5172L245.522 59.4313L259.084 59.4313Z" fill="#2A2B42"/>
<path d="M28.5303 87.6032L28.5303 101.689L42.0923 101.689L42.0923 87.6032L28.5303 87.6032Z" fill="#2A2B42"/>
<path d="M272.646 87.6032L272.646 101.689L259.084 101.689L259.084 87.6032L272.646 87.6032Z" fill="#2A2B42"/>
<path d="M28.5303 200.291L28.5303 214.377L42.0923 214.377L42.0923 200.291L28.5303 200.291Z" fill="#2A2B42"/>
<path d="M272.646 200.291L272.646 214.377L259.084 214.377L259.084 200.291L272.646 200.291Z" fill="#2A2B42"/>
<path d="M28.5303 143.947L28.5303 158.033L42.0923 158.033L42.0923 143.947L28.5303 143.947Z" fill="#2A2B42"/>
<path d="M272.646 143.947L272.646 158.033L259.084 158.033L259.084 143.947L272.646 143.947Z" fill="#2A2B42"/>
<path d="M42.0923 256.634L42.0923 270.72L55.6543 270.72L55.6543 256.634L42.0923 256.634Z" fill="#2A2B42"/>
<path d="M259.084 256.634L259.084 270.72L245.522 270.72L245.522 256.634L259.084 256.634Z" fill="#2A2B42"/>
<path d="M28.5303 115.775L28.5303 129.861L42.0923 129.861L42.0923 115.775L28.5303 115.775Z" fill="#2A2B42"/>
<path d="M272.646 115.775L272.646 129.861L259.084 129.861L259.084 115.775L272.646 115.775Z" fill="#2A2B42"/>
<path d="M28.5303 228.463L28.5303 242.548L42.0923 242.548L42.0923 228.463L28.5303 228.463Z" fill="#2A2B42"/>
<path d="M272.646 228.463L272.646 242.548L259.084 242.548L259.084 228.463L272.646 228.463Z" fill="#2A2B42"/>
<path d="M28.5303 172.119L28.5303 186.205L42.0923 186.205L42.0923 172.119L28.5303 172.119Z" fill="#2A2B42"/>
<path d="M272.646 172.119L272.646 186.205L259.084 186.205L259.084 172.119L272.646 172.119Z" fill="#2A2B42"/>
<path d="M69.2163 270.72L69.2163 284.806L82.7783 284.806L82.7783 270.72L69.2163 270.72Z" fill="#2A2B42"/>
<path d="M231.961 270.72L231.961 284.806L218.399 284.806L218.399 270.72L231.961 270.72Z" fill="#2A2B42"/>
<path d="M109.902 270.72L109.902 284.806L123.464 284.806L123.464 270.72L109.902 270.72Z" fill="#2A2B42"/>
<path d="M191.274 270.72L191.274 284.806L177.712 284.806L177.712 270.72L191.274 270.72Z" fill="#2A2B42"/>
<path d="M42.0923 73.5172L42.0923 87.6031L55.6543 87.6032L55.6543 73.5172L42.0923 73.5172Z" fill="#2A2B42"/>
<path d="M259.084 73.5172L259.084 87.6031L245.522 87.6032L245.522 73.5172L259.084 73.5172Z" fill="#2A2B42"/>
<path d="M28.5303 101.689L28.5303 115.775L42.0923 115.775L42.0923 101.689L28.5303 101.689Z" fill="#2A2B42"/>
<path d="M272.646 101.689L272.646 115.775L259.084 115.775L259.084 101.689L272.646 101.689Z" fill="#2A2B42"/>
<path d="M28.5303 214.377L28.5303 228.463L42.0923 228.463L42.0923 214.377L28.5303 214.377Z" fill="#2A2B42"/>
<path d="M272.646 214.377L272.646 228.463L259.084 228.463L259.084 214.377L272.646 214.377Z" fill="#2A2B42"/>
<path d="M28.5303 158.033L28.5303 172.119L42.0923 172.119L42.0923 158.033L28.5303 158.033Z" fill="#2A2B42"/>
<path d="M272.646 158.033L272.646 172.119L259.084 172.119L259.084 158.033L272.646 158.033Z" fill="#2A2B42"/>
<path d="M55.6543 270.72L55.6543 284.806L69.2163 284.806L69.2163 270.72L55.6543 270.72Z" fill="#2A2B42"/>
<path d="M245.522 270.72L245.522 284.806L231.96 284.806L231.96 270.72L245.522 270.72Z" fill="#2A2B42"/>
<path d="M28.5303 129.861L28.5303 143.947L42.0923 143.947L42.0923 129.861L28.5303 129.861Z" fill="#2A2B42"/>
<path d="M272.646 129.861L272.646 143.947L259.084 143.947L259.084 129.861L272.646 129.861Z" fill="#2A2B42"/>
<path d="M28.5303 242.548L28.5303 256.634L42.0923 256.634L42.0923 242.548L28.5303 242.548Z" fill="#2A2B42"/>
<path d="M272.646 242.548L272.646 256.634L259.084 256.634L259.084 242.548L272.646 242.548Z" fill="#2A2B42"/>
<path d="M28.5303 186.205L28.5303 200.291L42.0923 200.291L42.0923 186.205L28.5303 186.205Z" fill="#2A2B42"/>
<path d="M272.646 186.205L272.646 200.291L259.084 200.291L259.084 186.205L272.646 186.205Z" fill="#2A2B42"/>
<path d="M82.7783 270.72L82.7783 284.806L96.3403 284.806L96.3403 270.72L82.7783 270.72Z" fill="#2A2B42"/>
<path d="M218.398 270.72L218.398 284.806L204.836 284.806L204.836 270.72L218.398 270.72Z" fill="#2A2B42"/>
<path d="M123.464 270.72L123.464 284.806L137.026 284.806L137.026 270.72L123.464 270.72Z" fill="#2A2B42"/>
<path d="M177.712 270.72L177.712 284.806L164.15 284.806L164.15 270.72L177.712 270.72Z" fill="#2A2B42"/>
<path d="M96.3403 270.72L96.3403 284.806L109.902 284.806L109.902 270.72L96.3403 270.72Z" fill="#2A2B42"/>
<path d="M204.836 270.72L204.836 284.806L191.274 284.806L191.274 270.72L204.836 270.72Z" fill="#2A2B42"/>
<path d="M137.026 270.72L137.026 284.806L150.588 284.806L150.588 270.72L137.026 270.72Z" fill="#2A2B42"/>
<path d="M164.15 270.72L164.15 284.806L150.588 284.806L150.588 270.72L164.15 270.72Z" fill="#2A2B42"/>
</svg>
