<svg width="310" height="310" viewBox="0 0 310 310" fill="none" xmlns="http://www.w3.org/2000/svg">
<path d="M148.685 173.956V148.681H161.322V136.044H173.959V123.404H186.596V110.767H199.236V98.1295H161.322V110.767H136.044V123.404H110.77V136.044H98.1297V148.681H85.4925V173.956H72.8553V186.596H60.2151V211.87H72.8553V224.511H98.1297V237.148H123.407V224.511H148.685V211.87H161.322V199.233H173.959V186.596H211.874V173.956H148.685Z" fill="#EDF2FD"/>
<path d="M47.5776 211.87H34.9404V237.148H47.5776V249.785H60.2149V224.511H47.5776V211.87Z" fill="#EDF2FD"/>
<path d="M199.236 85.4894H186.596V98.1296H199.236V110.767H211.873V98.1296V85.4894H199.236Z" fill="white"/>
<path d="M161.322 148.682H148.684V161.319H161.322V148.682Z" fill="#CAD1E1"/>
<path d="M173.959 136.044H161.321V148.681H173.959V136.044Z" fill="#CAD1E1"/>
<path d="M186.596 123.404H173.959V136.041H186.596V123.404Z" fill="#CAD1E1"/>
<path d="M199.233 110.767H186.596V123.404H199.233V110.767Z" fill="#CAD1E1"/>
<path d="M72.8521 173.956H60.2148V186.593H72.8521V173.956Z" fill="#CAD1E1"/>
<path d="M85.4922 161.319H72.855V173.956H85.4922V161.319Z" fill="#CAD1E1"/>
<path d="M186.596 148.682H173.959V161.319H186.596V148.682Z" fill="#CAD1E1"/>
<path d="M199.233 211.871H186.596V237.148H199.233V211.871Z" fill="#CAD1E1"/>
<path d="M199.236 186.596H186.596H173.959V199.233H161.322V211.871H148.684V224.511H136.044H123.407V237.148H98.1295V224.511H85.4923H72.855V211.871H60.2149H47.5776V224.511H60.2149V237.148H72.855H85.4923V249.785H136.044V237.148H148.684H161.322V224.511H173.959V211.871H186.596V199.233H199.236H211.873V186.596H199.236Z" fill="#CAD1E1"/>
<path d="M161.321 237.148V249.785H173.959H186.596V237.148H173.959H161.321Z" fill="#2A2B42"/>
<path d="M72.855 249.785H47.5776V262.425H60.2149V275.063H85.4923V262.425H72.855V249.785Z" fill="#CAD1E1"/>
<path d="M47.5776 199.233H34.9404V211.871H47.5776V199.233Z" fill="#A2ABC0"/>
<path d="M85.4925 237.148H60.2151V249.785H72.8553V262.425H136.044V249.785H85.4925V237.148Z" fill="#A2ABC0"/>
<path d="M148.681 237.148H136.044V249.785H148.681V237.148Z" fill="#A2ABC0"/>
<path d="M85.4924 275.063H72.8552V287.7H85.4924V275.063Z" fill="#A2ABC0"/>
<path d="M186.596 224.511H173.959V237.148H186.596V224.511Z" fill="#A2ABC0"/>
<path d="M161.322 161.319H148.685V173.956H161.322V161.319Z" fill="#A2ABC0"/>
<path d="M110.767 161.319H98.1296V173.956H110.767V161.319Z" fill="#A2ABC0"/>
<path d="M98.1297 173.956H85.4924V186.593H98.1297V173.956Z" fill="#A2ABC0"/>
<path d="M85.4924 186.596H72.8552V199.233H85.4924V186.596Z" fill="#A2ABC0"/>
<path d="M123.407 173.956H110.77V186.593H123.407V173.956Z" fill="#A2ABC0"/>
<path d="M110.767 186.596H98.1296V199.233H110.767V186.596Z" fill="#A2ABC0"/>
<path d="M98.1297 199.233H85.4924V211.871H98.1297V199.233Z" fill="#A2ABC0"/>
<path d="M34.9402 211.871V199.233H22.3V211.871V224.511V237.148H34.9402V224.511V211.871Z" fill="#2A2B42"/>
<path d="M47.5776 237.148H34.9404V249.785V262.425H47.5776V249.785V237.148Z" fill="#2A2B42"/>
<path d="M60.2149 262.425H47.5776V275.063H60.2149V262.425Z" fill="#2A2B42"/>
<path d="M85.4924 287.7H72.8552V300.337H85.4924V287.7Z" fill="#2A2B42"/>
<path d="M72.8521 275.063H60.2148V287.7H72.8521V275.063Z" fill="#2A2B42"/>
<path d="M110.77 262.425H98.1297H85.4924V275.063V287.7H98.1297V275.063H110.77H123.407H136.044V262.425H123.407H110.77Z" fill="#2A2B42"/>
<path d="M161.322 249.785V237.148H148.684V249.785H136.044V262.425H148.684V249.785H161.322Z" fill="#2A2B42"/>
<path d="M199.233 237.148H186.596V249.785H199.233V237.148Z" fill="#2A2B42"/>
<path d="M173.959 224.511H161.321V237.148H173.959V224.511Z" fill="#2A2B42"/>
<path d="M186.596 211.871H173.959V224.508H186.596V211.871Z" fill="#2A2B42"/>
<path d="M186.596 199.233V211.871H199.236V224.511V237.148H211.873V224.511V211.871V199.233H199.236H186.596Z" fill="#2A2B42"/>
<path d="M211.873 199.233H224.511V186.596V173.956H211.873V186.596V199.233Z" fill="#2A2B42"/>
<path d="M173.958 148.682V161.319H186.596V148.682H199.237V161.319H211.874V173.956H161.322V148.682H173.958ZM186.596 136.044V148.682H173.958V136.044H186.596Z" fill="url(#paint0_linear_2669_29750)"/>
<path d="M199.233 123.404H186.596V136.041H199.233V123.404Z" fill="#535474"/>
<path d="M211.873 110.767H199.236V123.404H211.873V110.767Z" fill="#535474"/>
<path d="M47.5776 211.871H60.2149V199.233V186.596V173.956H47.5776V186.596H34.9404V199.233H47.5776V211.871Z" fill="#2A2B42"/>
<path d="M72.8521 161.319H60.2148V173.956H72.8521V161.319Z" fill="#2A2B42"/>
<path d="M85.4924 148.682H72.8552V161.319H85.4924V148.682Z" fill="#2A2B42"/>
<path d="M224.511 98.1296H211.873V110.767H224.511V98.1296Z" fill="#535474"/>
<path d="M98.1297 136.044H85.4924V148.681H98.1297V136.044Z" fill="#2A2B42"/>
<path d="M110.767 123.404H98.1296V136.041H110.767V123.404Z" fill="#2A2B42"/>
<path d="M161.322 110.767V98.1296H148.684H136.044V110.767H148.684H161.322Z" fill="url(#paint1_linear_2669_29750)"/>
<path d="M136.044 123.404V110.767H123.407H110.77V123.404H123.407H136.044Z" fill="#2A2B42"/>
<path d="M186.596 98.1297V85.4895H173.959H161.321V98.1297H173.959H186.596Z" fill="#535474"/>
<path d="M199.233 72.8522H186.596V85.4895H199.233V72.8522Z" fill="#535474"/>
<path d="M237.148 98.127H224.51V72.8526H237.148V98.127ZM224.51 72.8526H199.236V60.2149H224.51V72.8526ZM249.788 72.8526H237.151V60.2149H249.788V72.8526ZM237.148 60.212H224.51V47.5753H237.148V60.212ZM262.426 47.5743H249.788V34.9376H262.426V47.5743Z" fill="#F6D9FF"/>
<path d="M237.148 148.681H224.51V136.044H237.148V148.681ZM224.51 123.404H211.873V110.766H224.51V123.404ZM237.148 110.766H224.51V98.1297H237.148V110.766ZM262.426 110.766H249.788V98.1297H262.426V110.766ZM186.596 85.4891H173.959V72.8524H186.596V85.4891ZM249.788 85.4891H237.151V72.8524H249.788V85.4891ZM161.321 72.8524H148.684V60.2147H161.321V72.8524ZM199.233 72.8524H186.596V60.2147H199.233V72.8524ZM275.062 72.8524H262.426V60.2147H275.062V72.8524ZM224.51 60.2118H211.873V47.575H224.51V60.2118ZM199.233 47.5741H186.596V34.9373H199.233V47.5741ZM237.148 34.9373H224.51V22.3006H237.148V34.9373ZM287.7 9.66293V22.3006H275.062V9.66293H287.7Z" fill="#A6C8FF"/>
<path d="M224.51 98.1294H211.874V85.4898H199.236V72.8521H224.51V98.1294ZM237.148 72.8521H224.51V60.2144H237.148V72.8521ZM249.788 47.5747V60.2124H237.151V47.5747H249.788Z" fill="white"/>
<defs>
<linearGradient id="paint0_linear_2669_29750" x1="182.772" y1="165.228" x2="192.138" y2="130.028" gradientUnits="userSpaceOnUse">
<stop stop-color="#2A2B42"/>
<stop offset="1" stop-color="#535474"/>
</linearGradient>
<linearGradient id="paint1_linear_2669_29750" x1="141.436" y1="110.767" x2="163.719" y2="96.1187" gradientUnits="userSpaceOnUse">
<stop stop-color="#2A2B42"/>
<stop offset="1" stop-color="#535474"/>
</linearGradient>
</defs>
</svg>
