<svg width="310" height="310" viewBox="0 0 310 310" fill="none" xmlns="http://www.w3.org/2000/svg">
<g clip-path="url(#clip0_2669_29991)">
<path d="M116.357 183.744C117.98 183.741 119.616 183.744 121.239 183.744H131.273L112.562 184.015V193.508H103.341V202.73C103.171 202.769 102.923 202.681 102.799 202.73V193.237H112.291C112.301 190.076 112.278 186.905 112.291 183.744C113.643 183.738 115.005 183.744 116.36 183.744H116.357Z" fill="#FEFEFE"/>
<path d="M254.932 69.8487H245.44C245.423 73.0064 245.466 76.1804 245.44 79.3413C242.279 79.3544 239.108 79.3315 235.947 79.3413V88.834C232.789 88.8601 229.615 88.8177 226.454 88.834C226.383 91.6847 226.546 94.5583 226.477 97.409C226.464 97.8989 226.187 98.2777 226.187 98.3266H216.965V107.819C216.874 107.819 216.785 107.819 216.694 107.819C213.625 107.836 210.542 107.809 207.472 107.819V117.312C204.315 117.325 201.141 117.302 197.98 117.312C197.98 120.473 197.98 123.644 197.98 126.805H188.487V136.026C188.415 136.026 188.275 136.297 188.216 136.297C185.147 136.307 182.064 136.291 178.994 136.297V145.79H169.502C169.489 148.951 169.518 152.122 169.502 155.283C166.253 155.296 162.987 155.273 159.738 155.283C159.725 158.443 159.761 161.614 159.738 164.775C156.577 164.785 153.406 164.769 150.245 164.775C150.239 167.936 150.262 171.107 150.245 174.268C147.176 174.281 144.093 174.258 141.024 174.268V183.76H131.802C131.668 183.718 131.61 183.545 131.531 183.489C131.531 179.607 131.531 175.711 131.531 171.829V169.931C131.531 168.217 131.525 166.493 131.531 164.778C134.692 164.762 137.863 164.788 141.024 164.778C141.03 161.618 141.011 158.447 141.024 155.286C144.093 155.279 147.176 155.289 150.245 155.286C150.245 152.125 150.236 148.954 150.245 145.793C150.337 145.793 150.425 145.793 150.517 145.793C153.586 145.777 156.669 145.803 159.738 145.793C159.741 142.632 159.728 139.461 159.738 136.3C160.137 136.291 160.666 136.033 161.217 136.02C163.973 135.948 166.749 136.092 169.505 136.033C169.505 132.963 169.495 129.881 169.505 126.811C172.575 126.795 175.657 126.821 178.727 126.811V117.318C178.815 117.318 178.906 117.318 178.998 117.318C182.159 117.312 185.329 117.322 188.49 117.318C188.693 114.324 188.219 111.349 188.219 108.368C188.484 108.296 188.474 108.054 188.49 107.826C191.651 107.819 194.822 107.832 197.983 107.826V98.3332H207.067C207.097 98.3332 207.476 97.9544 207.476 97.925V88.8405H216.56C216.857 88.8405 216.949 88.1776 216.981 87.9066C217.269 85.4543 216.952 81.9472 216.968 79.3511C219.613 79.3348 223.316 79.6744 225.795 79.3577C226.01 79.3315 226.2 79.3446 226.187 79.0801C226.196 76.1902 226.174 73.2905 226.187 70.4038L226.729 69.8617C229.446 70.2765 233.122 69.5515 235.95 69.8617C235.954 66.7008 235.941 63.5301 235.95 60.3691C235.95 60.2777 235.95 60.1895 235.95 60.0981L254.678 60.2156C254.955 60.4083 254.91 60.7414 254.945 61.032C255.246 63.5203 254.929 67.2135 254.932 69.8585V69.8487Z" fill="#928F9A"/>
<path d="M133.713 50.5957V69.8488H152.966V79.3414H133.713V98.0524H124.22V79.3414H105.78V69.8488H124.491V51.2716C124.491 51.19 124.119 50.8863 124.22 50.5924H133.713V50.5957Z" fill="#2A2B43"/>
<path d="M87.069 104.854V117.305H99.5201V126.798H87.069C86.9972 126.997 87.34 127.121 87.34 127.206V139.253H77.8474V126.801H65.3962V117.309H77.8474V104.858H87.069V104.854Z" fill="#2A2B43"/>
<path d="M74.3238 259.404C74.3107 262.654 74.3336 265.916 74.3238 269.168H55.6128V259.404H45.8491V240.422H55.3418C55.1948 240.076 55.6128 239.619 55.6128 239.472V230.93H64.8344V221.437H74.3271V212.216H83.8197V221.708H74.3271L74.5981 230.93C74.5524 231.011 74.4087 231.155 74.3271 231.201H64.8344C64.5895 234.081 65.1675 237.484 64.8442 240.298C64.8214 240.491 64.8246 240.739 64.5667 240.693C64.3805 240.289 63.8385 240.429 63.4825 240.422C63.3029 240.419 63.1201 240.422 62.9405 240.422C61.1445 240.403 59.3093 240.36 57.5166 240.422C57.1606 240.436 56.7818 240.383 56.4324 240.422C56.0112 240.471 55.9949 240.328 55.6193 240.693C55.5801 240.733 55.6487 240.873 55.6193 240.965C55.5214 241.275 55.6193 241.193 55.6193 241.236C55.4887 244.142 55.6063 247.254 55.6193 250.186C55.6324 253.119 55.5932 255.976 55.6193 258.862C55.6193 259.003 55.2569 258.856 55.6193 259.133C56.0275 259.447 56.0732 259.385 56.55 259.418C62.1208 259.796 68.655 259.427 74.3303 259.404C74.3434 256.247 74.3303 253.073 74.3303 249.912C77.4913 249.912 80.662 249.925 83.823 249.912C83.836 246.751 83.8164 243.58 83.823 240.419C86.9839 240.413 90.1547 240.432 93.3156 240.419C93.3287 237.258 93.3156 234.087 93.3156 230.927C96.4766 230.927 99.6473 230.927 102.808 230.927C102.808 227.857 102.798 224.774 102.808 221.705C105.966 221.692 109.143 221.757 112.301 221.705C112.314 218.544 112.288 215.373 112.301 212.212C115.462 212.212 118.633 212.212 121.794 212.212C121.784 215.373 121.803 218.544 121.794 221.702C118.682 221.013 115.446 221.653 112.304 221.702C112.291 224.863 112.314 228.033 112.304 231.194H102.812V240.416C99.6506 240.426 96.4798 240.403 93.3189 240.416C93.3058 243.577 93.3287 246.748 93.3189 249.909C90.1579 249.915 86.9872 249.892 83.8262 249.909C83.8132 253.07 83.8328 256.24 83.8262 259.401C80.6653 259.408 77.4945 259.388 74.3336 259.401L74.3238 259.404Z" fill="#2A2B43"/>
<path d="M235.947 60.085C235.96 57.0155 235.937 53.9329 235.947 50.8634H264.151V79.3381C260.99 79.3479 257.819 79.325 254.658 79.3381C254.586 82.4957 254.711 85.673 254.658 88.8307H245.437V98.0523H235.944L235.673 89.1017H226.722V98.3234H235.673V107.545H226.86C226.18 107.545 226.487 112.603 226.464 113.387C226.425 114.69 225.818 115.914 226.451 117.305C223.29 117.315 220.12 117.299 216.962 117.305L216.691 107.813C216.782 107.813 216.871 107.813 216.962 107.813C220.031 107.796 223.114 107.823 226.184 107.813C226.236 104.655 226.108 101.478 226.184 98.3201C226.184 98.2711 226.461 97.8923 226.474 97.4025C226.546 94.5485 226.383 91.6782 226.451 88.8274C229.612 88.8111 232.783 88.8536 235.944 88.8274C238.413 88.8078 241.93 89.1409 244.228 88.8405C244.607 88.7915 244.93 88.7785 245.192 88.4487C245.672 87.838 245.424 80.7716 245.437 79.3381C248.506 79.325 251.589 79.3511 254.658 79.3381C254.727 76.213 254.933 73.0259 254.929 69.8454C254.929 67.2004 255.243 63.5072 254.942 61.0189C254.906 60.7283 254.952 60.3952 254.675 60.2025L235.947 60.085Z" fill="#2A2B43"/>
<path d="M216.965 79.3414C216.952 81.9374 217.266 85.4478 216.978 87.8968C216.946 88.1711 216.854 88.8308 216.557 88.8308H207.473V97.9152C207.473 97.9446 207.094 98.3234 207.064 98.3234H197.98V107.816C194.819 107.823 191.648 107.81 188.487 107.816C188.722 104.753 188.314 101.419 188.487 98.3234H197.709V88.9679C197.709 88.9385 198.088 88.5597 198.117 88.5597H207.473V79.3381C210.633 79.3218 213.804 79.3577 216.965 79.3381V79.3414Z" fill="#2A2B43"/>
<path d="M178.73 155.273V164.765H169.508V174.258H160.016V183.751H150.252C150.239 186.82 150.262 189.903 150.252 192.972L149.981 193.243C147.943 193.629 143.388 193.243 141.03 193.243L141.158 183.738L150.252 183.754C150.265 180.593 150.239 177.422 150.252 174.261C151.516 174.255 159.078 174.431 159.49 174.144C159.95 173.824 159.735 166.068 159.745 164.772C162.892 164.762 166.053 164.811 169.198 164.733C169.724 164.406 169.502 156.589 169.508 155.279C172.578 155.266 175.66 155.292 178.73 155.279V155.273Z" fill="#2A2B43"/>
<path d="M93.3059 202.729C93.2863 205.799 93.3189 208.882 93.3059 211.951H83.8132V202.729C86.9709 202.729 90.1449 202.729 93.3059 202.729Z" fill="#2A2B43"/>
<path d="M121.781 174.255V183.205C122.124 183.551 130.441 182.68 131.544 183.476C131.623 183.532 131.682 183.705 131.815 183.747V193.24C134.794 193.25 137.785 193.224 140.766 193.24V202.733C137.788 202.743 134.797 202.716 131.815 202.733C131.316 199.689 131.551 196.362 131.544 193.24C131.538 190.386 131.727 187.235 131.548 184.423C131.531 184.188 131.655 183.695 131.273 183.751H121.781L121.644 183.486L121.506 183.751H121.235C119.877 183.297 117.732 183.294 116.354 183.751C115.002 183.751 113.637 183.744 112.285 183.751C112.298 180.59 112.278 177.419 112.285 174.258C115.446 174.258 118.617 174.268 121.777 174.258L121.781 174.255Z" fill="#2A2B43"/>
<path d="M112.288 183.744C112.275 186.905 112.298 190.076 112.288 193.237H102.795V202.73C102.72 202.756 102.616 202.707 102.524 202.73H93.3027C93.3223 199.48 93.2864 196.218 93.3027 192.966H102.795V183.744C105.956 183.734 109.127 183.757 112.288 183.744Z" fill="#2A2B43"/>
<path d="M207.476 117.306C210.545 117.292 213.628 117.315 216.697 117.306V126.798C213.628 126.798 210.549 126.792 207.476 126.798V117.577H198.254V126.798C201.232 126.808 204.223 126.782 207.205 126.798V136.291C204.442 136.271 201.67 136.304 198.901 136.31C198.391 136.31 198.032 136.02 197.983 136.02V126.798C197.983 123.637 197.983 120.466 197.983 117.306C201.144 117.299 204.315 117.322 207.476 117.306Z" fill="#2A2B43"/>
<path d="M235.947 60.3561C235.941 63.5171 235.95 66.6878 235.947 69.8488C233.119 69.5386 229.442 70.2635 226.725 69.8488C226.634 69.8357 226.389 69.5549 226.183 69.5778C226.2 66.776 225.987 63.6477 226.183 60.9015L226.448 60.7643L226.183 60.6272C226.216 60.4345 226.046 60.0525 226.343 60.0786L235.947 60.3561Z" fill="#2A2B43"/>
<path d="M131.544 193.237C131.551 196.359 131.316 199.683 131.815 202.73C131.636 202.73 131.453 202.73 131.273 202.73C128.112 202.743 124.942 202.717 121.781 202.73C121.768 205.799 121.79 208.882 121.781 211.951C121.781 212.043 121.781 212.131 121.781 212.222C118.62 212.222 115.449 212.222 112.288 212.222C112.275 215.383 112.301 218.554 112.288 221.715C109.13 221.767 105.953 221.702 102.795 221.715C102.789 224.784 102.799 227.867 102.795 230.936C99.6344 230.936 96.4636 230.936 93.3027 230.936C93.3027 234.097 93.3157 237.268 93.3027 240.429C90.1417 240.442 86.971 240.423 83.81 240.429C83.8035 243.59 83.8231 246.761 83.81 249.922C80.6491 249.935 77.4783 249.922 74.3174 249.922V240.7C74.8007 240.223 75.3297 240.465 75.9436 240.429C76.2146 240.413 76.4856 240.436 76.7567 240.429C77.0277 240.423 77.2987 240.432 77.5698 240.429C77.8408 240.426 78.1118 240.436 78.3829 240.429C79.849 240.4 82.2557 240.671 83.5357 240.429C83.7447 240.39 83.7643 240.357 83.8068 240.158C83.8557 239.936 83.7904 239.606 83.8068 239.345C83.9798 236.788 83.4835 233.644 83.8068 231.211C83.8198 231.113 83.7806 230.999 83.8068 230.94H93.2994V221.718C96.4604 221.708 99.6311 221.731 102.792 221.718C102.799 218.557 102.789 215.386 102.792 212.226C105.953 212.226 109.124 212.226 112.285 212.226C112.298 209.065 112.275 205.894 112.285 202.733C115.446 202.726 118.616 202.749 121.777 202.733C121.79 199.572 121.768 196.401 121.777 193.24H131.541L131.544 193.237Z" fill="#A2ABC0"/>
<path d="M96.8325 40.832V50.5957H87.3398V41.2402C87.3398 41.2108 87.7186 40.832 87.748 40.832H96.8325Z" fill="#2A2B43"/>
<path d="M131.273 164.762C131.433 166.408 130.927 168.367 131.544 169.915V171.812C130.937 172.188 131.456 174.075 131.273 174.255C130.947 174.578 123.316 174.248 122.052 174.255L121.781 165.033L122.052 164.762C125.121 164.746 128.204 164.782 131.273 164.762Z" fill="#2A2B43"/>
<path d="M77.8506 69.8488H68.3579V79.3415H77.8506V69.8488Z" fill="#2A2B43"/>
<path d="M150.255 145.78C150.249 148.941 150.259 152.112 150.255 155.273C147.186 155.273 144.103 155.263 141.034 155.273C141.021 158.434 141.04 161.604 141.034 164.765C137.873 164.775 134.702 164.749 131.541 164.765C131.554 161.604 131.531 158.434 131.541 155.273C134.702 155.269 137.873 155.283 141.034 155.273C141.047 152.112 141.027 148.941 141.034 145.78C144.103 145.77 147.186 145.796 150.255 145.78Z" fill="#2A2B43"/>
<path d="M178.73 117.305V126.798C175.661 126.808 172.578 126.782 169.508 126.798C169.502 129.868 169.512 132.95 169.508 136.02C166.752 136.082 163.98 135.938 161.221 136.007C160.669 136.02 160.143 136.278 159.742 136.287C159.732 139.448 159.748 142.619 159.742 145.78C156.672 145.79 153.589 145.764 150.52 145.78L150.249 144.967C150.262 142.077 150.239 139.177 150.249 136.287C153.407 136.238 156.584 136.359 159.742 136.287C159.751 133.218 159.735 130.135 159.742 127.066L160.013 126.795C163.173 126.782 166.344 126.811 169.505 126.795C169.512 123.634 169.502 120.463 169.505 117.302C172.575 117.296 175.657 117.318 178.727 117.302L178.73 117.305Z" fill="#2A2B43"/>
<path d="M188.219 136.287L188.49 145.78C188.399 145.78 188.311 145.78 188.219 145.78C185.555 145.79 182.221 145.516 179.664 145.767C179.367 145.796 179.047 145.767 178.848 146.045L179.001 155.273C178.91 155.273 178.821 155.273 178.73 155.273C175.661 155.286 172.578 155.26 169.508 155.273C169.502 156.582 169.724 164.4 169.198 164.726C166.054 164.805 162.893 164.752 159.745 164.765C159.735 166.062 159.954 173.817 159.49 174.137C159.079 174.425 151.516 174.248 150.252 174.255C150.239 177.416 150.265 180.586 150.252 183.747L141.158 183.731L141.03 193.237C140.939 193.237 140.851 193.237 140.759 193.237C137.781 193.224 134.787 193.247 131.809 193.237V183.744H141.03V174.251C144.1 174.242 147.183 174.265 150.252 174.251C150.265 171.091 150.242 167.92 150.252 164.759C153.413 164.752 156.584 164.772 159.745 164.759C159.768 161.598 159.728 158.427 159.745 155.266C162.994 155.26 166.259 155.282 169.508 155.266C169.525 152.105 169.495 148.934 169.508 145.774H179.001V136.281C182.071 136.274 185.153 136.291 188.223 136.281L188.219 136.287Z" fill="#525252"/>
<path d="M216.694 107.813L216.965 117.305C216.874 117.305 216.785 117.305 216.694 117.305C213.625 117.315 210.542 117.292 207.472 117.305V107.813C210.542 107.803 213.625 107.829 216.694 107.813Z" fill="#525252"/>
<path d="M124.491 117.034C125.072 116.936 125.853 117.289 126.516 117.315C128.834 117.413 131.45 117.416 133.713 117.034V126.798C130.862 126.527 127.381 127.161 124.615 126.805C124.341 126.769 124.312 126.805 124.223 126.527C124.671 126.184 124.671 124.973 124.223 124.63C124.174 122.563 124.2 120.46 124.223 118.393L124.488 118.256L124.223 118.119C124.23 117.851 124.194 117.57 124.223 117.305C124.331 117.256 124.442 117.044 124.494 117.034H124.491Z" fill="#2A2B43"/>
<path d="M197.983 126.798V136.02C197.892 136.02 197.804 136.02 197.712 136.02C194.734 136.02 191.485 136.003 188.49 136.02V126.798H197.983Z" fill="#525252"/>
<path d="M188.219 107.813C188.219 107.992 188.219 108.175 188.219 108.355C188.219 111.336 188.693 114.311 188.49 117.306C185.33 117.306 182.159 117.296 178.998 117.306C178.998 116.943 179.001 116.584 178.998 116.221V115.95C179.004 113.243 178.998 110.523 178.998 107.813C182.067 107.806 185.15 107.829 188.219 107.813Z" fill="#2A2B43"/>
<path d="M131.544 183.473C130.441 182.68 122.127 183.548 121.781 183.202V174.251C121.872 174.251 121.964 174.251 122.052 174.251C123.316 174.245 130.947 174.578 131.273 174.251C131.456 174.072 130.937 172.184 131.544 171.809C131.544 175.692 131.544 179.587 131.544 183.47V183.473Z" fill="#525252"/>
<path d="M197.712 136.016V145.78C194.643 145.79 191.56 145.76 188.491 145.78L188.219 136.287C188.278 136.287 188.419 136.016 188.491 136.016C191.482 136 194.731 136.016 197.712 136.016Z" fill="#2A2B43"/>
<path d="M188.219 145.78V155.273C185.15 155.279 182.067 155.256 178.998 155.273L178.844 146.045C179.047 145.764 179.363 145.796 179.661 145.767C182.217 145.516 185.551 145.79 188.216 145.78H188.219Z" fill="#2A2B43"/>
<path d="M131.273 202.73V211.951H121.781C121.79 208.882 121.767 205.799 121.781 202.73C124.941 202.717 128.112 202.743 131.273 202.73Z" fill="#2A2B43"/>
<path d="M226.187 69.8488C226.187 70.0284 226.187 70.2113 226.187 70.3909C226.174 73.2808 226.197 76.1805 226.187 79.0672H216.965C216.981 75.9976 216.952 72.9151 216.965 69.8456H226.187V69.8488Z" fill="#2A2B43"/>
<path d="M207.205 126.798C204.227 126.782 201.236 126.808 198.254 126.798V117.576H207.476V126.798C207.384 126.798 207.296 126.798 207.205 126.798Z" fill="#525252"/>
<path d="M235.676 98.3233H226.729V89.1017H235.676L235.947 98.0523L235.676 98.3233Z" fill="#525252"/>
<path d="M93.306 211.948C93.2766 212.323 92.9077 212.199 92.6432 212.232C91.0006 212.434 86.1221 212.434 84.4795 212.232C84.215 212.199 83.846 212.323 83.8167 211.948H93.3093H93.306Z" fill="#A2ABC0"/>
<path d="M226.187 79.0704C226.2 79.3381 226.011 79.3218 225.795 79.3479C223.317 79.6647 219.614 79.3218 216.969 79.3414C216.969 79.25 216.969 79.1618 216.969 79.0704H226.19H226.187Z" fill="#2A2B43"/>
<path d="M131.544 169.915C130.927 168.367 131.433 166.408 131.273 164.762C131.365 164.762 131.453 164.762 131.544 164.762C131.538 166.477 131.544 168.201 131.544 169.915Z" fill="#2A2B43"/>
<path d="M124.22 126.527C124.112 126.187 124.233 125.126 124.22 124.63C124.667 124.973 124.667 126.184 124.22 126.527Z" fill="#2A2B43"/>
<path d="M226.729 69.8487L226.187 70.3907C226.187 70.2111 226.187 70.0283 226.187 69.8487C226.187 69.7572 226.187 69.6691 226.187 69.5776C226.392 69.558 226.637 69.8356 226.729 69.8487Z" fill="#2A2B43"/>
<path d="M150.526 145.78C150.435 145.78 150.347 145.78 150.255 145.78C150.255 145.509 150.255 145.238 150.255 144.967L150.526 145.78Z" fill="#2A2B43"/>
<path d="M188.219 108.358C188.219 108.178 188.219 107.996 188.219 107.816C188.311 107.816 188.399 107.816 188.491 107.816C188.474 108.045 188.484 108.286 188.219 108.358Z" fill="#2A2B43"/>
<path d="M124.22 118.39C124.22 118.298 124.22 118.21 124.22 118.119L124.484 118.256L124.22 118.393V118.39Z" fill="#2A2B43"/>
<path d="M124.22 117.305C124.24 117.129 124.295 117.025 124.491 117.034C124.439 117.044 124.328 117.256 124.22 117.305Z" fill="#A2ABC0"/>
<path d="M149.984 193.237L150.255 192.966C150.252 193.165 150.16 193.204 149.984 193.237Z" fill="#2A2B43"/>
<path d="M226.187 60.8981C226.193 60.8099 226.171 60.7119 226.187 60.627L226.451 60.7642L226.187 60.9013V60.8981Z" fill="#2A2B43"/>
<path d="M254.932 69.8488C254.932 73.0261 254.73 76.2132 254.661 79.3415C251.592 79.3545 248.509 79.3284 245.44 79.3415C245.427 80.7783 245.675 87.8414 245.195 88.4521C244.934 88.7819 244.61 88.7949 244.231 88.8439C241.936 89.1476 238.416 88.8113 235.947 88.8309V79.3382C239.105 79.3317 242.279 79.3545 245.44 79.3382C245.466 76.1772 245.423 73.0065 245.44 69.8456H254.932V69.8488Z" fill="#525252"/>
<path d="M226.187 98.3235C226.115 101.481 226.239 104.658 226.187 107.816C223.117 107.826 220.035 107.8 216.965 107.816V98.3235H226.187Z" fill="#525252"/>
<path d="M131.544 193.237H121.78C121.774 196.395 121.797 199.569 121.78 202.73C118.62 202.743 115.449 202.72 112.288 202.73C112.281 205.891 112.304 209.061 112.288 212.222C109.127 212.222 105.956 212.222 102.795 212.222C102.792 215.383 102.805 218.554 102.795 221.715C99.6342 221.728 96.4635 221.705 93.3025 221.715C93.0348 221.702 93.0511 221.891 93.025 222.107C92.6919 224.713 93.2862 227.981 93.0348 230.665C92.7213 230.979 85.5275 230.46 84.2083 230.659C83.9078 230.705 83.9307 230.685 83.8131 230.936C83.787 230.995 83.8262 231.11 83.8131 231.208C83.3625 231.488 83.5421 232.236 83.5388 232.697C83.516 234.839 83.3397 237.291 83.8131 239.345C83.7968 239.606 83.8621 239.936 83.8131 240.158L83.5421 240.429C82.2621 240.671 79.8554 240.4 78.3892 240.429C78.1182 240.103 77.8472 240.099 77.5761 240.429C77.3051 240.432 77.0341 240.423 76.763 240.429C76.492 240.099 76.221 240.106 75.95 240.429C75.336 240.465 74.8038 240.227 74.3238 240.7C74.056 240.965 74.0821 240.974 74.0364 241.35C73.7425 243.913 74.2846 247.022 74.0527 249.651H55.8838V240.974H64.6972C64.7854 240.974 65.1087 240.615 65.3764 240.703V231.482C68.0051 231.25 71.1106 231.786 73.6772 231.498C74.118 231.449 74.0919 231.341 74.327 231.211C74.4087 231.165 74.5523 231.021 74.5981 230.94C74.7287 230.705 74.8364 230.731 74.8854 230.29C75.1728 227.723 74.6372 224.618 74.8691 221.989H83.6825C83.7707 221.989 84.094 221.63 84.3617 221.718V212.905C84.3617 212.823 84.0189 212.696 84.0907 212.497H93.1752C93.2633 212.497 93.5866 212.137 93.8544 212.226V203.004C96.6921 202.808 99.8138 203.392 102.531 202.733C102.622 202.71 102.73 202.759 102.802 202.733C102.926 202.687 103.177 202.775 103.344 202.733V193.511H112.565V184.019L131.276 183.748C131.658 183.695 131.538 184.188 131.551 184.42C131.73 187.232 131.541 190.383 131.547 193.237H131.544Z" fill="#E4EBF8"/>
<path d="M74.3239 231.201C74.0888 231.331 74.1149 231.439 73.6741 231.488C71.1075 231.775 68.002 231.24 65.3733 231.472V240.693C65.1056 240.605 64.7856 240.964 64.6941 240.964H55.8807V249.641H74.0496C74.2815 247.015 73.7427 243.903 74.0333 241.34C74.0757 240.964 74.0496 240.955 74.3207 240.69V249.912C74.2292 249.912 74.1411 249.912 74.0496 249.912C68.0183 249.912 61.8238 249.683 55.8807 250.183H55.6096C55.5966 247.254 55.479 244.142 55.6096 241.232V240.961C55.639 240.87 55.5705 240.729 55.6096 240.69L56.4227 240.419C56.7754 240.38 57.1509 240.432 57.5069 240.419C59.0841 240.873 61.3764 240.873 62.9308 240.419C63.1104 240.419 63.2932 240.416 63.4728 240.419L64.557 240.69C64.8149 240.736 64.8117 240.488 64.8345 240.295C65.1611 237.48 64.5798 234.078 64.8247 231.198H74.3174L74.3239 231.201Z" fill="#FEFEFE"/>
<path d="M74.324 259.404C68.6486 259.427 62.1145 259.8 56.5436 259.418C56.0636 259.385 56.0179 259.447 55.613 259.133V258.862C55.5868 255.976 55.626 253.073 55.613 250.186H55.884V259.137H74.0529V249.915C74.1444 249.915 74.2325 249.915 74.324 249.915C74.324 253.076 74.337 256.247 74.324 259.408V259.404Z" fill="#E4EBF8"/>
<path d="M62.9339 240.423C61.3796 240.877 59.0872 240.877 57.51 240.423C59.3027 240.361 61.1379 240.403 62.9339 240.423Z" fill="#E4EBF8"/>
<path d="M64.5602 240.694L63.4761 240.423C63.832 240.429 64.3741 240.289 64.5602 240.694Z" fill="#E4EBF8"/>
<path d="M56.4259 240.423L55.6128 240.694C55.9883 240.328 56.0046 240.472 56.4259 240.423Z" fill="#E4EBF8"/>
<path d="M55.6129 241.236C55.6129 241.193 55.5149 241.275 55.6129 240.964V241.236Z" fill="#2A2B43"/>
<path d="M55.613 259.133C55.2505 258.856 55.613 259.003 55.613 258.862V259.133Z" fill="#2A2B43"/>
<path d="M121.239 183.744C119.616 183.744 117.98 183.741 116.357 183.744C117.735 183.287 119.88 183.29 121.239 183.744Z" fill="#ACAAB4"/>
<path d="M121.781 183.744H121.51L121.643 183.48L121.781 183.744Z" fill="#ACAAB4"/>
<path d="M93.3059 230.93H83.8132C83.9308 230.678 83.9079 230.698 84.2084 230.652C85.5276 230.453 92.7246 230.972 93.0348 230.659C93.2863 227.978 92.692 224.706 93.0251 222.1C93.0512 221.885 93.0381 221.695 93.3026 221.708V230.93H93.3059Z" fill="#FEFEFE"/>
<path d="M83.8131 239.338C83.3363 237.284 83.5159 234.832 83.5388 232.69C83.5421 232.233 83.3657 231.485 83.8131 231.201C83.4898 233.634 83.9862 236.778 83.8131 239.335V239.338Z" fill="#FEFEFE"/>
<path d="M76.7633 240.423C76.4923 240.429 76.218 240.406 75.9502 240.423C76.2212 240.099 76.4955 240.093 76.7633 240.423Z" fill="#FEFEFE"/>
<path d="M78.3927 240.423C78.1217 240.429 77.8506 240.419 77.5796 240.423C77.8506 240.093 78.1217 240.096 78.3927 240.423Z" fill="#FEFEFE"/>
<path d="M83.5422 240.423L83.8133 240.152C83.7676 240.351 83.7512 240.384 83.5422 240.423Z" fill="#FEFEFE"/>
<path d="M74.0527 249.915V259.137H55.8838V250.186C61.8269 249.687 68.0247 249.918 74.0527 249.915Z" fill="#A2ABC0"/>
</g>
<defs>
<clipPath id="clip0_2669_29991">
<rect width="218.302" height="228.336" fill="white" transform="translate(45.8491 40.832)"/>
</clipPath>
</defs>
</svg>
