<svg width="72" height="72" viewBox="0 0 72 72" fill="none" xmlns="http://www.w3.org/2000/svg">
<rect width="72" height="72" rx="12" fill="url(#paint0_linear_515_3383)"/>
<mask id="path-2-outside-1_515_3383" maskUnits="userSpaceOnUse" x="11.1807" y="12" width="51" height="23" fill="black">
<rect fill="white" x="11.1807" y="12" width="51" height="23"/>
<path fill-rule="evenodd" clip-rule="evenodd" d="M13.1807 26.458L36.458 14L59.7353 26.458L54.204 32.2916L36.458 22.7939L18.7119 32.2916L13.1807 26.458Z"/>
</mask>
<path fill-rule="evenodd" clip-rule="evenodd" d="M13.1807 26.458L36.458 14L59.7353 26.458L54.204 32.2916L36.458 22.7939L18.7119 32.2916L13.1807 26.458Z" fill="url(#paint1_linear_515_3383)"/>
<path d="M36.458 14L37.4017 12.2367C36.8121 11.9211 36.1038 11.9211 35.5142 12.2367L36.458 14ZM13.1807 26.458L12.2369 24.6947C11.687 24.989 11.3059 25.523 11.2063 26.1388C11.1067 26.7545 11.3002 27.3815 11.7293 27.8341L13.1807 26.458ZM59.7353 26.458L61.1866 27.8341C61.6158 27.3815 61.8092 26.7545 61.7097 26.1388C61.6101 25.523 61.229 24.989 60.679 24.6947L59.7353 26.458ZM54.204 32.2916L53.2603 34.0549C54.0547 34.4801 55.0354 34.3216 55.6553 33.6677L54.204 32.2916ZM36.458 22.7939L37.4017 21.0306C36.8121 20.7151 36.1038 20.7151 35.5142 21.0306L36.458 22.7939ZM18.7119 32.2916L17.2606 33.6677C17.8806 34.3216 18.8612 34.4801 19.6557 34.0549L18.7119 32.2916ZM35.5142 12.2367L12.2369 24.6947L14.1244 28.2213L37.4017 15.7633L35.5142 12.2367ZM60.679 24.6947L37.4017 12.2367L35.5142 15.7633L58.7916 28.2213L60.679 24.6947ZM55.6553 33.6677L61.1866 27.8341L58.284 25.0819L52.7527 30.9155L55.6553 33.6677ZM55.1478 30.5283L37.4017 21.0306L35.5142 24.5573L53.2603 34.0549L55.1478 30.5283ZM35.5142 21.0306L17.7682 30.5283L19.6557 34.0549L37.4017 24.5573L35.5142 21.0306ZM11.7293 27.8341L17.2606 33.6677L20.1633 30.9155L14.632 25.0819L11.7293 27.8341Z" fill="white" mask="url(#path-2-outside-1_515_3383)"/>
<mask id="path-4-outside-2_515_3383" maskUnits="userSpaceOnUse" x="16.6285" y="23.458" width="40" height="20" fill="black">
<rect fill="white" x="16.6285" y="23.458" width="40" height="20"/>
<path fill-rule="evenodd" clip-rule="evenodd" d="M54.1206 34.9557L36.3746 25.458L18.6285 34.9557L24.1598 40.7892L36.3746 34.2519L48.5894 40.7892L54.1206 34.9557Z"/>
</mask>
<path fill-rule="evenodd" clip-rule="evenodd" d="M54.1206 34.9557L36.3746 25.458L18.6285 34.9557L24.1598 40.7892L36.3746 34.2519L48.5894 40.7892L54.1206 34.9557Z" fill="url(#paint2_linear_515_3383)"/>
<path d="M36.3746 25.458L37.3183 23.6947C36.7287 23.3791 36.0204 23.3791 35.4308 23.6947L36.3746 25.458ZM54.1206 34.9557L55.5719 36.3318C56.0011 35.8792 56.1945 35.2522 56.095 34.6365C55.9954 34.0207 55.6143 33.4867 55.0644 33.1923L54.1206 34.9557ZM18.6285 34.9557L17.6848 33.1923C17.1349 33.4866 16.7537 34.0207 16.6542 34.6364C16.5546 35.2522 16.748 35.8791 17.1772 36.3318L18.6285 34.9557ZM24.1598 40.7892L22.7084 42.1653C23.3284 42.8192 24.3091 42.9777 25.1035 42.5525L24.1598 40.7892ZM36.3746 34.2519L37.3183 32.4885C36.7287 32.173 36.0204 32.173 35.4308 32.4885L36.3746 34.2519ZM48.5894 40.7892L47.6457 42.5526C48.4401 42.9778 49.4207 42.8192 50.0407 42.1653L48.5894 40.7892ZM35.4308 27.2213L53.1769 36.719L55.0644 33.1923L37.3183 23.6947L35.4308 27.2213ZM19.5723 36.719L37.3183 27.2213L35.4308 23.6947L17.6848 33.1923L19.5723 36.719ZM17.1772 36.3318L22.7084 42.1653L25.6111 39.4131L20.0799 33.5795L17.1772 36.3318ZM35.4308 32.4885L23.216 39.0259L25.1035 42.5525L37.3183 36.0152L35.4308 32.4885ZM49.5331 39.0259L37.3183 32.4885L35.4308 36.0152L47.6457 42.5526L49.5331 39.0259ZM50.0407 42.1653L55.5719 36.3318L52.6693 33.5796L47.1381 39.4131L50.0407 42.1653Z" fill="white" mask="url(#path-4-outside-2_515_3383)"/>
<mask id="path-6-outside-3_515_3383" maskUnits="userSpaceOnUse" x="22.0765" y="34" width="29" height="17" fill="black">
<rect fill="white" x="22.0765" y="34" width="29" height="17"/>
<path fill-rule="evenodd" clip-rule="evenodd" d="M36.2913 36L48.5061 42.5373L42.9748 48.3709L36.2913 44.7939L29.6078 48.3709L24.0765 42.5373L36.2913 36Z"/>
</mask>
<path fill-rule="evenodd" clip-rule="evenodd" d="M36.2913 36L48.5061 42.5373L42.9748 48.3709L36.2913 44.7939L29.6078 48.3709L24.0765 42.5373L36.2913 36Z" fill="url(#paint3_linear_515_3383)"/>
<path d="M48.5061 42.5373L49.9574 43.9134C50.3866 43.4608 50.58 42.8339 50.4804 42.2181C50.3809 41.6024 49.9997 41.0683 49.4498 40.774L48.5061 42.5373ZM36.2913 36L37.235 34.2367C36.6454 33.9211 35.9372 33.9211 35.3476 34.2367L36.2913 36ZM42.9748 48.3709L42.0311 50.1343C42.8255 50.5595 43.8061 50.4009 44.4261 49.747L42.9748 48.3709ZM36.2913 44.7939L37.2351 43.0306C36.6455 42.7151 35.9372 42.7151 35.3476 43.0306L36.2913 44.7939ZM29.6078 48.3709L28.1565 49.7471C28.7765 50.4009 29.7571 50.5595 30.5516 50.1343L29.6078 48.3709ZM24.0765 42.5373L23.1328 40.774C22.5829 41.0683 22.2017 41.6024 22.1022 42.2181C22.0026 42.8339 22.196 43.4608 22.6252 43.9134L24.0765 42.5373ZM49.4498 40.774L37.235 34.2367L35.3476 37.7633L47.5623 44.3007L49.4498 40.774ZM44.4261 49.747L49.9574 43.9134L47.0547 41.1612L41.5235 46.9948L44.4261 49.747ZM43.9185 46.6076L37.2351 43.0306L35.3476 46.5573L42.0311 50.1343L43.9185 46.6076ZM35.3476 43.0306L28.6641 46.6076L30.5516 50.1343L37.2351 46.5573L35.3476 43.0306ZM22.6252 43.9134L28.1565 49.7471L31.0591 46.9948L25.5279 41.1612L22.6252 43.9134ZM35.3476 34.2367L23.1328 40.774L25.0203 44.3007L37.235 37.7633L35.3476 34.2367Z" fill="white" mask="url(#path-6-outside-3_515_3383)"/>
<path d="M19.8212 54.31C20.0598 54.1722 20.0598 53.8278 19.8212 53.6907L17.6789 52.4542C17.2088 52.1827 16.8181 51.792 16.5466 51.322L15.3101 49.1789C15.1723 48.9404 14.828 48.9404 14.6908 49.1789L13.4543 51.3212C13.1828 51.7913 12.7921 52.182 12.3221 52.4535L10.179 53.6907C9.94046 53.8286 9.94046 54.1729 10.179 54.31L12.3213 55.5465C12.7914 55.818 13.1821 56.2087 13.4536 56.6788L14.6901 58.8211C14.828 59.0596 15.1723 59.0596 15.3094 58.8211L16.5459 56.6788C16.8174 56.2087 17.2081 55.818 17.6782 55.5465L19.8212 54.31Z" fill="white"/>
<rect x="56.1213" y="11" width="3" height="3" transform="rotate(45 56.1213 11)" fill="white"/>
<rect x="62.1213" y="48" width="3" height="3" transform="rotate(45 62.1213 48)" fill="white"/>
<mask id="path-11-outside-4_515_3383" maskUnits="userSpaceOnUse" x="27.5242" y="45" width="18" height="15" fill="black">
<rect fill="white" x="27.5242" y="45" width="18" height="15"/>
<path fill-rule="evenodd" clip-rule="evenodd" d="M42.8913 50.577L36.2078 47L29.5242 50.577L36.2078 57.626L42.8913 50.577Z"/>
</mask>
<path fill-rule="evenodd" clip-rule="evenodd" d="M42.8913 50.577L36.2078 47L29.5242 50.577L36.2078 57.626L42.8913 50.577Z" fill="url(#paint4_linear_515_3383)"/>
<path d="M42.8913 50.577L44.3427 51.9532C44.7718 51.5005 44.9653 50.8736 44.8657 50.2578C44.7662 49.6421 44.385 49.108 43.8351 48.8137L42.8913 50.577ZM36.2078 47L37.1515 45.2367C36.5619 44.9211 35.8536 44.9211 35.264 45.2367L36.2078 47ZM29.5242 50.577L28.5804 48.8137C28.0305 49.108 27.6494 49.6421 27.5498 50.2578C27.4503 50.8736 27.6437 51.5005 28.0728 51.9532L29.5242 50.577ZM36.2078 57.626L34.7564 59.0021C35.1341 59.4004 35.6589 59.626 36.2078 59.626C36.7566 59.626 37.2814 59.4004 37.6591 59.0021L36.2078 57.626ZM43.8351 48.8137L37.1515 45.2367L35.264 48.7633L41.9476 52.3404L43.8351 48.8137ZM35.264 45.2367L28.5804 48.8137L30.4679 52.3404L37.1515 48.7633L35.264 45.2367ZM28.0728 51.9532L34.7564 59.0021L37.6591 56.2499L30.9755 49.2009L28.0728 51.9532ZM37.6591 59.0021L44.3427 51.9532L41.44 49.2009L34.7564 56.2499L37.6591 59.0021Z" fill="white" mask="url(#path-11-outside-4_515_3383)"/>
<path d="M36.5 13.5V58" stroke="white" stroke-width="2"/>
<defs>
<linearGradient id="paint0_linear_515_3383" x1="36" y1="0" x2="36" y2="72" gradientUnits="userSpaceOnUse">
<stop stop-color="#FF71D0"/>
<stop offset="1" stop-color="#E5109F"/>
</linearGradient>
<linearGradient id="paint1_linear_515_3383" x1="12.9999" y1="28.5" x2="59.9999" y2="28.5" gradientUnits="userSpaceOnUse">
<stop stop-color="#1854FF"/>
<stop offset="1" stop-color="#80A1FF"/>
</linearGradient>
<linearGradient id="paint2_linear_515_3383" x1="19" y1="38.5" x2="54" y2="39" gradientUnits="userSpaceOnUse">
<stop stop-color="#14B8A6"/>
<stop offset="1" stop-color="#99F6E4"/>
</linearGradient>
<linearGradient id="paint3_linear_515_3383" x1="25" y1="46" x2="47.5" y2="46" gradientUnits="userSpaceOnUse">
<stop stop-color="#FBBF24"/>
<stop offset="1" stop-color="#FEF3C7"/>
</linearGradient>
<linearGradient id="paint4_linear_515_3383" x1="29.9999" y1="52.5" x2="41.9999" y2="52.5" gradientUnits="userSpaceOnUse">
<stop stop-color="#B45309"/>
<stop offset="1" stop-color="#F59E0B"/>
</linearGradient>
</defs>
</svg>
