<svg width="72" height="72" viewBox="0 0 72 72" fill="none" xmlns="http://www.w3.org/2000/svg">
<g clip-path="url(#clip0_515_3230)">
<rect width="72" height="72" rx="12" fill="url(#paint0_linear_515_3230)"/>
<g clip-path="url(#clip1_515_3230)">
<path d="M39.6877 22.3926H37.1661V35.1733H39.6877V22.3926Z" fill="#F87171"/>
<path d="M9.81075 55.6412H7.28918C7.28918 45.4469 9.48655 35.8451 13.4778 28.601C17.5988 21.1192 23.1624 17 29.1422 17C34.6518 17 39.8966 20.5716 43.9077 27.0574C46.9805 32.0262 49.1697 38.4393 50.2431 45.5C50.5137 47.2795 50.2431 47 49.5 48.5L48.3223 51.1204C48.2511 50.0693 48.1551 49.0283 48.035 48C47.1517 40.4368 44.9638 33.5601 41.7626 28.3849C38.2288 22.6699 33.7458 19.5216 29.1422 19.5216C24.1224 19.5216 19.3423 23.1778 15.686 29.8168C11.8982 36.6934 9.81075 45.8647 9.81075 55.6394V55.6412Z" fill="#F87171"/>
<path d="M50.5 45.5C48.6196 37.9173 47.7297 41.9365 43.8862 37.2914C39.7724 32.3203 34.9274 29.6907 29.8771 29.6907C23.0778 29.6907 16.7487 34.4078 12.0568 42.9739C7.50536 51.2843 5 62.3017 5 73.9982H7.70168C7.70168 62.7466 10.09 52.1902 14.4253 44.2725C18.6201 36.6124 24.1081 32.3924 29.8752 32.3924C37.1261 32.3924 43.8753 39.1603 48 50.1249C48.7503 52.1194 48.4362 48.7433 49 51V48.5L50.5 45.5Z" fill="#F87171"/>
<path d="M44.5255 74C44.5255 50.2757 55.0728 31.0433 68.0859 31.0433H31.2008C18.1895 31.0433 7.64038 50.2757 7.64038 74H44.5255Z" fill="#DC2626"/>
<path d="M7.91418 67.4421H44.0302V66.5721H7.99343C7.96642 66.8603 7.9394 67.1503 7.91418 67.4421Z" fill="#991B1B"/>
<path d="M8.79309 60.7114H45.5755V59.8414H8.95339C8.89756 60.1296 8.84532 60.4196 8.79309 60.7114Z" fill="#991B1B"/>
<path d="M10.3529 53.9805H46.9696V53.1106H10.6104C10.5222 53.3988 10.4357 53.6888 10.3511 53.9805H10.3529Z" fill="#991B1B"/>
<path d="M12.7664 47.2498H49.3165V46.3799H13.1572C13.0257 46.6663 12.8942 46.9562 12.7664 47.2498Z" fill="#991B1B"/>
<path d="M16.4407 40.519H53.1259V39.649H17.0513C16.8441 39.9318 16.6406 40.2236 16.4407 40.519Z" fill="#991B1B"/>
<path d="M21.111 35.1733H57.6755V34.3033H22.1844C21.8224 34.5771 21.464 34.8671 21.111 35.1733Z" fill="#991B1B"/>
<path d="M90.8053 55.978C88.9249 48.3953 85.9044 41.9365 82.0608 37.2914C77.9471 32.3203 73.1021 29.6907 68.0517 29.6907C61.2525 29.6907 54.9234 34.4078 50.2315 42.9739C45.6818 51.2825 43.1747 62.2999 43.1747 73.9982H45.8764C45.8764 62.7466 48.2646 52.1902 52.5999 44.2725C56.7947 36.6124 62.2828 32.3924 68.0499 32.3924C76.6197 32.3924 84.4887 41.8464 88.1522 56.5093H90.9385L90.8053 55.978Z" fill="#F87171"/>
<path d="M48.2287 55.6412H45.7071C45.7071 45.4469 47.9045 35.8451 51.8957 28.601C56.0167 21.1192 61.5803 17 67.5601 17C73.0697 17 78.3145 20.5716 82.3256 27.0574C86.1728 33.2785 88.635 41.7636 89.2563 50.9493L86.7402 51.1204C86.1458 42.3381 83.817 34.2637 80.1805 28.3849C76.6467 22.6699 72.1637 19.5216 67.5601 19.5216C62.5403 19.5216 57.7602 23.1778 54.1039 29.8168C50.3162 36.6934 48.2287 45.8647 48.2287 55.6394V55.6412Z" fill="#F87171"/>
<path d="M68.8208 18.2607H66.2993V31.0415H68.8208V18.2607Z" fill="#F87171"/>
<path d="M30.3255 18.2607H27.804V31.0415H30.3255V18.2607Z" fill="#F87171"/>
<path d="M58.3725 23.3003H55.851V36.081H58.3725V23.3003Z" fill="#F87171"/>
<path d="M19.8773 23.3003H17.3557V36.081H19.8773V23.3003Z" fill="#F87171"/>
<rect x="11.1213" y="17" width="3" height="3" transform="rotate(45 11.1213 17)" fill="white"/>
<rect x="60.1213" y="53" width="3" height="3" transform="rotate(45 60.1213 53)" fill="white"/>
</g>
<path d="M53.8212 12.31C54.0598 12.1722 54.0598 11.8278 53.8212 11.6907L51.6789 10.4542C51.2088 10.1827 50.8181 9.79199 50.5466 9.32195L49.3101 7.17894C49.1723 6.94035 48.828 6.94035 48.6908 7.17894L47.4543 9.32124C47.1828 9.79127 46.7921 10.182 46.3221 10.4535L44.179 11.6907C43.9405 11.8286 43.9405 12.1729 44.179 12.31L46.3213 13.5465C46.7914 13.818 47.1821 14.2087 47.4536 14.6788L48.6901 16.8211C48.828 17.0596 49.1723 17.0596 49.3094 16.8211L50.5459 14.6788C50.8174 14.2087 51.2081 13.818 51.6782 13.5465L53.8212 12.31Z" fill="white"/>
</g>
<defs>
<linearGradient id="paint0_linear_515_3230" x1="36" y1="0" x2="36" y2="72" gradientUnits="userSpaceOnUse">
<stop stop-color="#00B3FF"/>
<stop offset="1" stop-color="#0085FF"/>
</linearGradient>
<clipPath id="clip0_515_3230">
<rect width="72" height="72" rx="12" fill="white"/>
</clipPath>
<clipPath id="clip1_515_3230">
<rect width="85.9404" height="57" fill="white" transform="translate(5 17)"/>
</clipPath>
</defs>
</svg>
