<svg width="24" height="23" viewBox="0 0 24 23" fill="none" xmlns="http://www.w3.org/2000/svg">
<path d="M20 0.5H19V1.5H20V0.5Z" fill="#323353"/>
<path d="M19 1.5H18V3.5H19V1.5Z" fill="#323353"/>
<path d="M20 1.5H19V3.5H20V1.5Z" fill="#4D9BE6"/>
<path d="M21 1.5H20V3.5H21V1.5Z" fill="#323353"/>
<path d="M18 3.5H16V4.5H18V3.5Z" fill="#323353"/>
<path d="M19 3.5H18V4.5H19V3.5Z" fill="#4D9BE6"/>
<path d="M20 3.5H19V6.5H20V3.5Z" fill="#8FD3FF"/>
<path d="M21 3.5H20V4.5H21V3.5Z" fill="#4D9BE6"/>
<path d="M23 3.5H21V4.5H23V3.5Z" fill="#323353"/>
<path d="M11 4.5H10V7.5H11V4.5Z" fill="#323353"/>
<path d="M16 4.5H15V5.5H16V4.5Z" fill="#323353"/>
<path d="M18 4.5H16V5.5H18V4.5Z" fill="#4D9BE6"/>
<path d="M19 4.5H18V5.5H19V4.5Z" fill="#8FD3FF"/>
<path d="M21 4.5H20V5.5H21V4.5Z" fill="#8FD3FF"/>
<path d="M23 4.5H21V5.5H23V4.5Z" fill="#4D9BE6"/>
<path d="M24 4.5H23V5.5H24V4.5Z" fill="#323353"/>
<path d="M18 5.5H16V6.5H18V5.5Z" fill="#323353"/>
<path d="M19 5.5H18V6.5H19V5.5Z" fill="#4D9BE6"/>
<path d="M21 5.5H20V6.5H21V5.5Z" fill="#4D9BE6"/>
<path d="M23 5.5H21V6.5H23V5.5Z" fill="#323353"/>
<path d="M19 6.5H18V8.5H19V6.5Z" fill="#323353"/>
<path d="M20 6.5H19V8.5H20V6.5Z" fill="#4D9BE6"/>
<path d="M21 6.5H20V8.5H21V6.5Z" fill="#323353"/>
<path d="M10 7.5H9V9.5H10V7.5Z" fill="#323353"/>
<path d="M11 7.5H10V9.5H11V7.5Z" fill="#4D9BE6"/>
<path d="M12 7.5H11V9.5H12V7.5Z" fill="#323353"/>
<path d="M20 8.5H19V9.5H20V8.5Z" fill="#323353"/>
<path d="M9 9.5H8V10.5H9V9.5Z" fill="#323353"/>
<path d="M10 9.5H9V11.5H10V9.5Z" fill="#4D9BE6"/>
<path d="M11 9.5H10V16.5H11V9.5Z" fill="#8FD3FF"/>
<path d="M12 9.5H11V11.5H12V9.5Z" fill="#4D9BE6"/>
<path d="M13 9.5H12V10.5H13V9.5Z" fill="#323353"/>
<path d="M8 10.5H7V11.5H8V10.5Z" fill="#323353"/>
<path d="M9 10.5H8V12.5H9V10.5Z" fill="#4D9BE6"/>
<path d="M13 10.5H12V12.5H13V10.5Z" fill="#4D9BE6"/>
<path d="M14 10.5H13V11.5H14V10.5Z" fill="#323353"/>
<path d="M7 11.5H5V12.5H7V11.5Z" fill="#323353"/>
<path d="M8 11.5H7V12.5H8V11.5Z" fill="#4D9BE6"/>
<path d="M10 11.5H9V14.5H10V11.5Z" fill="#8FD3FF"/>
<path d="M12 11.5H11V14.5H12V11.5Z" fill="#8FD3FF"/>
<path d="M14 11.5H13V12.5H14V11.5Z" fill="#4D9BE6"/>
<path d="M16 11.5H14V12.5H16V11.5Z" fill="#323353"/>
<path d="M5 12.5H2V13.5H5V12.5Z" fill="#323353"/>
<path d="M7 12.5H5V13.5H7V12.5Z" fill="#4D9BE6"/>
<path d="M9 12.5H7V13.5H9V12.5Z" fill="#8FD3FF"/>
<path d="M14 12.5H12V13.5H14V12.5Z" fill="#8FD3FF"/>
<path d="M16 12.5H14V13.5H16V12.5Z" fill="#4D9BE6"/>
<path d="M19 12.5H16V13.5H19V12.5Z" fill="#323353"/>
<path d="M7 13.5H5V14.5H7V13.5Z" fill="#323353"/>
<path d="M9 13.5H7V14.5H9V13.5Z" fill="#4D9BE6"/>
<path d="M14 13.5H12V14.5H14V13.5Z" fill="#4D9BE6"/>
<path d="M16 13.5H14V14.5H16V13.5Z" fill="#323353"/>
<path d="M8 14.5H7V15.5H8V14.5Z" fill="#323353"/>
<path d="M10 14.5H8V15.5H10V14.5Z" fill="#4D9BE6"/>
<path d="M13 14.5H11V15.5H13V14.5Z" fill="#4D9BE6"/>
<path d="M14 14.5H13V15.5H14V14.5Z" fill="#323353"/>
<path d="M9 15.5H8V16.5H9V15.5Z" fill="#323353"/>
<path d="M10 15.5H9V16.5H10V15.5Z" fill="#4D9BE6"/>
<path d="M12 15.5H11V16.5H12V15.5Z" fill="#4D9BE6"/>
<path d="M13 15.5H12V16.5H13V15.5Z" fill="#323353"/>
<path d="M10 16.5H9V18.5H10V16.5Z" fill="#323353"/>
<path d="M11 16.5H10V18.5H11V16.5Z" fill="#4D9BE6"/>
<path d="M12 16.5H11V18.5H12V16.5Z" fill="#323353"/>
<path d="M11 18.5H10V21.5H11V18.5Z" fill="#323353"/>
</svg>
