<svg width="310" height="310" viewBox="0 0 310 310" fill="none" xmlns="http://www.w3.org/2000/svg">
<path d="M175.149 215.443V202.012H161.715V188.578H148.285V175.148H134.854V161.717H121.424V148.286H107.99V134.853V121.422H81.1286V107.991H54.2642V121.422H67.6948V134.853V148.286H81.1286V175.148H94.5592V202.012H107.99V215.443H121.424V228.873H161.715H175.149H188.58V215.443H175.149Z" fill="white"/>
<path d="M202.011 242.307H188.58V255.738H202.011V242.307Z" fill="#EA9A00"/>
<path d="M202.011 228.873H188.58V242.304H202.011V228.873Z" fill="#C8C5D0"/>
<path d="M228.875 215.443H202.011V228.873H228.875V215.443Z" fill="#C8C5D0"/>
<path d="M255.739 202.012H228.875V215.443H255.739V202.012Z" fill="#C8C5D0"/>
<path d="M282.601 228.873H202.011V242.304H282.601V228.873Z" fill="#EA9A00"/>
<path d="M188.58 228.873H134.854V242.304H188.58V228.873Z" fill="#EA9A00"/>
<path d="M81.1255 215.443H67.6948V228.873H81.1255V215.443Z" fill="#EA9A00"/>
<path d="M67.6948 188.578H54.2642V202.009H67.6948V188.578Z" fill="#EA9A00"/>
<path d="M54.2646 161.717H40.834V175.148H54.2646V161.717Z" fill="#EA9A00"/>
<path d="M40.8305 134.852H27.3999V148.283H40.8305V134.852Z" fill="#EA9A00"/>
<path d="M40.8305 121.422H27.3999V134.852H40.8305V121.422Z" fill="#FFB955"/>
<path d="M54.2646 148.286H40.834V161.717H54.2646V148.286Z" fill="#FFB955"/>
<path d="M67.6948 175.147H54.2642V188.578H67.6948V175.147Z" fill="#FFB955"/>
<path d="M81.1255 202.012H67.6948V215.443H81.1255V202.012Z" fill="#FFB955"/>
<path d="M94.559 228.873H81.1284V242.304H94.559V228.873Z" fill="#FFB955"/>
<path d="M269.17 215.443H255.74V228.873H269.17V215.443Z" fill="#FFB955"/>
<path d="M134.854 242.307H81.1284V255.738H134.854V242.307Z" fill="#EA9A00"/>
<path d="M107.99 94.5575H94.5591V81.1269H107.99V94.5575ZM134.854 81.1269H121.423V67.6962H134.854V81.1269ZM121.42 67.6933H107.99V54.2626H121.42V67.6933ZM134.854 54.2626H148.285V67.6933H121.423V40.8319H134.854V54.2626ZM94.5591 40.8319V54.2626H81.1284V40.8319H94.5591Z" fill="#2B2C43"/>
<path d="M54.2646 121.422H40.834V148.286H54.2646V121.422Z" fill="#ACAAB4"/>
<path d="M54.2646 107.991H40.834V121.422H54.2646V107.991Z" fill="#C8C5D0"/>
<path d="M67.6953 121.422H54.2646V134.852V148.286H67.6953V134.852V121.422Z" fill="#C8C5D0"/>
<path d="M81.1291 148.286H67.6953V161.717V175.148H81.1291V161.717V148.286Z" fill="#C8C5D0"/>
<path d="M107.99 215.442V202.012H94.5596V228.873H107.99H121.424V215.442H107.99Z" fill="#C8C5D0"/>
<path d="M94.5595 175.147H81.1289V202.012H94.5595V175.147Z" fill="#C8C5D0"/>
<path d="M67.6948 148.286H54.2642V175.151H67.6948V148.286Z" fill="#ACAAB4"/>
<path d="M81.1255 175.147H67.6948V202.012H81.1255V175.147Z" fill="#ACAAB4"/>
<path d="M94.559 202.012H81.1284V228.876H94.559V202.012Z" fill="#ACAAB4"/>
<path d="M255.739 215.443H228.875V228.873H255.739V215.443Z" fill="#ACAAB4"/>
<path d="M134.854 228.873H94.5591V242.304H134.854V228.873Z" fill="#ACAAB4"/>
<path d="M121.42 255.738V269.168H81.1284V255.738H121.42ZM134.854 269.168H121.423V255.738H134.854V269.168ZM202.01 269.168H188.58V255.738H202.01V269.168ZM81.1255 255.738H67.6948V242.307H81.1255V255.738ZM175.146 255.738H134.855V242.307H175.146V255.738ZM188.58 255.738H175.149V242.307H188.58V255.738ZM215.441 255.738H202.01V242.307H215.441V255.738ZM255.737 255.738H215.445V242.307H255.737V255.738ZM282.601 255.738H255.74V242.307H282.601V255.738ZM81.1255 242.304H67.6948V228.873H81.1255V242.304ZM296.032 242.304H282.601V228.873H296.032V242.304ZM67.6948 228.873H54.2642V202.012H67.6948V228.873ZM282.601 228.873H269.17V215.443H282.601V228.873ZM269.17 215.443H255.74V202.012H269.17V215.443ZM54.2642 202.008H40.8335V175.148H54.2642V202.008ZM282.601 202.008H269.17V188.578H282.601V202.008ZM269.17 188.578H255.74V175.148H269.17V188.578ZM40.8306 175.148H27.3999V148.287H40.8306V175.148ZM255.737 175.148H242.306V161.717H255.737V175.148ZM242.306 161.717H228.875V148.287H242.306V161.717ZM27.3999 148.283H13.9692V121.422H27.3999V148.283ZM228.875 148.283H215.445V134.853H228.875V148.283ZM121.42 134.853H107.99V121.422H121.42V134.853ZM215.441 134.853H202.01V121.422H215.441V134.853ZM40.8306 121.422H27.3999V107.992H40.8306V121.422ZM107.99 121.422H81.1284V107.992H107.99V121.422ZM134.854 121.422H121.423V107.992H134.854V121.422ZM148.286 121.422H134.855V107.992H148.286V121.422ZM202.01 121.422H188.58V107.992H202.01V121.422ZM81.1255 107.988H40.8335V94.557H81.1255V107.988ZM175.146 107.988H148.286V94.557H175.146V107.988ZM188.58 107.988H175.149V94.557H188.58V107.988ZM40.8306 94.5609H27.3999V81.1303H40.8306V94.5609Z" fill="#2B2C43"/>
<path d="M188.58 202.012V188.578H175.149V175.148H161.715V161.717H148.285V148.286H134.854V140.333V134.852V121.422H121.424V134.852H107.99V148.286H121.424V161.717H134.854V175.148H148.285V188.578H161.715V202.012H175.149V215.443H188.58V228.873H202.01V202.012H188.58Z" fill="#E8E8E9"/>
<path d="M148.285 121.422H134.854V148.286H148.285V161.717H161.715V175.148H175.149V188.578H188.58V202.012H202.01V215.443H228.875V202.012H269.17V188.578H255.739V175.148H242.305V161.717H228.875V148.286H215.444V134.853H202.01V121.422H188.58V107.991H148.285V121.422Z" fill="white"/>
</svg>
