<svg width="310" height="310" viewBox="0 0 310 310" fill="none" xmlns="http://www.w3.org/2000/svg">
<g clip-path="url(#clip0_2669_29702)">
<path d="M132.327 207.891H56.7424V223H132.327V207.891Z" fill="#928F9A"/>
<path d="M283.476 117.243H268.367V132.366H283.476V117.243Z" fill="#C8C5D0"/>
<path d="M268.338 87.0069H253.229V102.13H268.338V87.0069Z" fill="#928F9A"/>
<path d="M132.334 223V238.109V253.222H147.444V238.109V223H132.334Z" fill="#928F9A"/>
<path d="M147.444 253.222V260.775V268.331H162.557V260.775V253.222H147.444Z" fill="#928F9A"/>
<path d="M147.444 223V238.109V253.222H162.557V238.109V223H147.444Z" fill="#C8C5D0"/>
<path d="M162.556 253.222V260.775V268.331H177.666V260.775V253.222H162.556Z" fill="#C8C5D0"/>
<path d="M177.68 238.109V245.665V253.221H192.789V245.665V238.109H177.68Z" fill="#C8C5D0"/>
<path d="M238.12 117.229V124.782V132.338H253.229V124.782V117.229H238.12Z" fill="#C8C5D0"/>
<path d="M268.367 87.014V102.12H253.229V109.672V117.229H273.575H283.476V102.12V87.014H268.367Z" fill="#C8C5D0"/>
<path d="M223.011 147.447V155V162.553H238.12V155V147.447H223.011Z" fill="#C8C5D0"/>
<path d="M207.898 177.669V185.222V192.771H223.011V185.222V177.669H207.898Z" fill="#C8C5D0"/>
<path d="M192.789 207.891V215.44V222.993H207.898V215.44V207.891H192.789Z" fill="#C8C5D0"/>
<path d="M132.32 253.222V245.665V238.109V230.556V223H117.211V230.556V238.109H41.6335V245.665V253.222V260.775V268.331H120.057H132.32H147.444V260.775V253.222H132.32Z" fill="#C8C5D0"/>
<path d="M177.68 283.44H41.6333V268.332H177.68V283.44ZM41.6294 268.332H26.521V253.222H41.6294V268.332ZM192.789 268.332H177.68V253.222H192.789V268.332ZM26.521 253.222H11.4116V223H26.521V253.222ZM207.898 253.222H192.79V223H207.898V253.222ZM223.011 223.001H207.898V192.779H223.011V223.001ZM56.7427 223H26.521V207.891H56.7427V223ZM71.8521 207.891H56.7427V177.668H71.8521V207.891ZM238.12 192.778H223.01V162.56H238.12V192.778ZM86.9644 177.669H71.8521V147.448H86.9644V177.669ZM253.229 162.56H238.12V132.338H253.229V162.56ZM102.074 147.447H86.9644V117.229H102.074V147.447ZM268.367 132.338H283.476V147.447H253.257V117.229H268.367V132.338ZM298.588 87.0073V132.338H283.476V87.0073H298.588ZM117.211 117.229H102.098V87.0073H117.211V117.229ZM132.321 87.0073H117.211V71.898H132.321V87.0073ZM283.476 87.0073H268.367V71.898H283.476V87.0073ZM268.367 71.8911H132.328V56.7818H268.367V71.8911Z" fill="#2A2B42"/>
<path d="M117.211 223V238.109H41.6337V253.222H26.521V223H117.211Z" fill="white"/>
<path d="M253.229 71.898L132.328 71.8909V87.0072H117.211V117.229H102.099V147.447H86.9645V177.669H71.8518V207.891H132.328V223H162.557V253.222H177.68V238.109H192.789V207.891H207.898V177.669H223.011V147.447H238.12V117.229H253.258V87.0072H268.367V71.898H253.229Z" fill="white"/>
<path d="M177.662 177.658H102.099V192.782H177.662V177.658Z" fill="#928F9A"/>
<path d="M192.789 147.44H117.211V162.563H192.789V147.44Z" fill="#928F9A"/>
<path d="M207.898 117.243H132.32V132.366H207.898V117.243Z" fill="#928F9A"/>
<path d="M70.0442 102.02H54.9351V117.129H70.0442V102.02Z" fill="#2A2B42"/>
<path d="M70.0442 86.9109H54.9351V102.02H70.0442V86.9109Z" fill="#2A2B42"/>
<path d="M70.0442 71.8019H54.9351V86.9111H70.0442V71.8019Z" fill="#2A2B42"/>
<path d="M54.9319 86.9109H39.8228V102.02H54.9319V86.9109Z" fill="#2A2B42"/>
<path d="M85.1536 86.9109H70.0444V102.02H85.1536V86.9109Z" fill="#2A2B42"/>
<path d="M85.1536 26.5597H70.0444V41.6688H85.1536V26.5597Z" fill="#2A2B42"/>
<path d="M100.262 56.7818H85.1533V71.8909H100.262V56.7818Z" fill="#2A2B42"/>
</g>
<defs>
<clipPath id="clip0_2669_29702">
<rect width="287.177" height="256.88" fill="white" transform="translate(11.4116 26.5598)"/>
</clipPath>
</defs>
</svg>
