<svg width="310" height="310" viewBox="0 0 310 310" fill="none" xmlns="http://www.w3.org/2000/svg">
<g clip-path="url(#clip0_2669_32441)">
<path d="M173.613 192.232H161.203V204.641H173.613V192.232Z" fill="#8D7500"/>
<path d="M161.203 179.823H148.794V192.232H161.203V179.823Z" fill="#CAA800"/>
<path d="M74.3297 105.358H54.2791V117.768H74.3297V105.358Z" fill="#CAA800"/>
<path d="M99.152 92.9487H79.677V105.358H99.152V92.9487Z" fill="#CAA800"/>
<path d="M186.025 204.642H173.616V217.051H186.025V204.642Z" fill="#8D7500"/>
<path d="M186.025 192.232H173.616V204.641H186.025V192.232Z" fill="#8D7500"/>
<path d="M198.435 204.642H186.025V217.051H198.435V204.642Z" fill="#8D7500"/>
<path d="M198.435 192.232H186.025V204.641H198.435V192.232Z" fill="#8D7500"/>
<path d="M74.3298 130.181H61.9202V142.59H74.3298V130.181Z" fill="#D5D4FF"/>
<path d="M235.667 130.181H223.257V142.59H235.667V130.181Z" fill="#D5D4FF"/>
<path d="M99.1521 117.769H74.3298V142.591H99.1521V117.769Z" fill="#D5D4FF"/>
<path d="M198.438 105.358H173.616V130.181H198.438V105.358Z" fill="#D5D4FF"/>
<path d="M223.258 117.769H198.435V142.591H223.258V117.769Z" fill="#D5D4FF"/>
<path d="M123.974 105.358H99.1516V130.181H123.974V105.358Z" fill="#D5D4FF"/>
<path d="M173.613 92.9487H123.971V117.771H173.613V92.9487Z" fill="#D5D4FF"/>
<path d="M198.435 179.823H186.025V192.232H198.435V179.823Z" fill="#8D7500"/>
<path d="M210.845 192.232H198.435V204.641H210.845V192.232Z" fill="#8D7500"/>
<path d="M210.845 179.823H198.435V192.232H210.845V179.823Z" fill="#8D7500"/>
<path d="M223.257 192.232H210.848V204.641H223.257V192.232Z" fill="#8D7500"/>
<path d="M223.257 179.823H210.848V192.232H223.257V179.823Z" fill="#8D7500"/>
<path d="M223.257 167.41H210.848V179.82H223.257V167.41Z" fill="#8D7500"/>
<path d="M235.667 179.823H223.257V192.232H235.667V179.823Z" fill="#8D7500"/>
<path d="M235.667 167.41H223.257V179.82H235.667V167.41Z" fill="#8D7500"/>
<path d="M136.384 179.822V167.41H111.562V155H86.7424V142.59H61.9202V217.054H86.7424V229.464H111.562V241.873H136.384V254.286H148.794V179.822H136.384Z" fill="#CAA800"/>
<path d="M248.08 142.59V130.181H235.667V142.59H227.325H223.258H220.821H210.848V155H198.435H193.38H186.026V167.41H173.616H168.83H161.203V192.232H168.83H173.616H186.026V179.822H193.38H198.435H210.848V167.41H223.258H227.325H235.667V155H248.08H260.489V142.59H248.08Z" fill="#CAA800"/>
<path d="M223.257 192.232V204.641H210.848H198.435V217.054H186.025H173.616V204.641H161.203V192.232H148.793V254.286H136.384V266.695H148.793H161.203V254.286H173.616H186.025V241.873H198.435H210.848V229.464H223.257H235.667V192.232H223.257Z" fill="#AB8E00"/>
<path d="M86.7424 217.054H61.9202V229.464H86.7424V217.054Z" fill="#AB8E00"/>
<path d="M111.564 229.464H86.7419V241.874H111.564V229.464Z" fill="#AB8E00"/>
<path d="M136.384 241.873H111.562V254.283H136.384V241.873Z" fill="#AB8E00"/>
<path d="M148.793 68.1267H111.562V80.5364H102.343H86.7422V86.7427V92.949H78.7009H61.9199V105.359H37.0977V117.768H49.5102V130.181H61.9199V117.768H74.3296V105.359H86.7422H99.1518V92.949H111.562H123.971V80.5364H148.793V68.1267Z" fill="#CAA800"/>
<path d="M74.3298 117.769H61.9202V130.178H74.3298V117.769Z" fill="#C3C0FF"/>
<path d="M99.1521 105.358H74.3298V117.768H99.1521V105.358Z" fill="#C3C0FF"/>
<path d="M123.974 92.9487H99.1516V105.358H123.974V92.9487Z" fill="#C3C0FF"/>
<path d="M223.258 105.358H198.435V117.768H223.258V105.358Z" fill="#C3C0FF"/>
<path d="M248.08 117.769H223.257V130.178H248.08V117.769Z" fill="#C3C0FF"/>
<path d="M198.438 92.9487H173.616V105.358H198.438V92.9487Z" fill="#C3C0FF"/>
<path d="M173.616 80.536H123.975V92.9457H173.616V80.536Z" fill="#C3C0FF"/>
<path d="M86.7419 142.591H99.1516V130.181H123.971V117.769H173.615V130.181H198.435V142.591H210.847V155.001H186.025V167.41H161.203V179.823H136.384V167.41H111.561V155.001H86.7419V142.591Z" fill="white"/>
<path d="M272.899 130.181H241.873V142.59H272.899V130.181Z" fill="#CAA800"/>
<path d="M136.385 266.696H161.203V279.105H136.384V266.696H123.974V254.286H136.385V266.696ZM123.971 266.696H111.561V254.286H123.971V266.696ZM173.613 266.696H161.204V254.286H173.613V266.696ZM186.025 266.696H173.616V254.286H186.025V266.696ZM111.561 254.283H86.7419V241.873H111.561V254.283ZM210.844 254.283H186.025V241.873H210.844V254.283ZM86.74 241.874H61.9197V229.464H86.74V241.874ZM235.667 241.874H210.847V229.464H235.667V241.874ZM61.9197 229.464H49.5105V217.055H61.9197V229.464ZM248.077 229.464H235.667V217.055H248.077V229.464ZM61.9197 217.052H49.5105V179.822H61.9197V217.052ZM248.077 217.052H235.667V179.822H248.077V217.052ZM161.203 204.642H148.794V192.231H161.203V204.642ZM186.025 204.642H161.204V192.231H186.025V204.642ZM210.847 192.232H186.025V179.822H210.847V192.232ZM61.9197 179.819H49.5105V167.41H61.9197V179.819ZM248.077 179.819H210.847V167.41H248.077V179.819ZM61.9197 167.409H49.5105V130.181H61.9197V167.409ZM248.077 167.409H235.667V155H248.077V167.409ZM272.899 155H260.49V167.409H248.08V155H260.489V142.59H272.899V155ZM285.308 142.591H272.899V130.181H285.308V142.591ZM49.5076 130.179H37.0984V117.769H49.5076V130.179ZM272.899 130.179H248.08V117.769H272.899V130.179ZM37.0984 117.769H24.6882V105.358H37.0984V117.769ZM248.077 117.769H223.258V105.358H248.077V117.769ZM49.5076 105.358H37.0984V92.9482H49.5076V105.358ZM61.9197 105.358H49.5105V92.9482H61.9197V105.358ZM210.844 105.358H198.435V92.9482H210.844V105.358ZM223.258 105.358H210.847V92.9482H223.258V105.358ZM86.74 92.9453H61.9197V80.5361H86.74V92.9453ZM198.435 92.9453H173.616V80.5361H198.435V92.9453ZM111.561 80.5361H86.7419V68.127H111.561V80.5361ZM161.203 80.5361H148.794V68.127H161.203V80.5361ZM173.613 80.5361H161.204V68.127H173.613V80.5361ZM123.971 68.127H111.561V55.7168H123.971V68.127ZM148.794 68.127H123.974V55.7168H148.794V68.127ZM198.438 55.7168V68.127H186.029V55.7168H198.438ZM148.793 43.3047H136.383V30.8945H148.793V43.3047Z" fill="#2A2B42"/>
<path d="M136.384 154.999H123.975V142.59H136.384V154.999ZM210.845 130.181H198.435V117.771H210.845V130.181ZM111.561 117.768V130.178H99.1516V117.768H111.561ZM161.203 130.178H148.793V117.769H161.203V130.178ZM161.203 105.358H173.614V117.768H136.384V105.358H148.793V92.9487H161.203V105.358Z" fill="#685FFF"/>
</g>
<defs>
<clipPath id="clip0_2669_32441">
<rect width="260.624" height="248.211" fill="white" transform="translate(24.6882 30.8945)"/>
</clipPath>
</defs>
</svg>
