<svg width="310" height="310" viewBox="0 0 310 310" fill="none" xmlns="http://www.w3.org/2000/svg">
<rect width="310" height="310" fill="white"/>
<path d="M35.5684 162.025L49.6191 162.025L49.6191 218.227L35.5684 218.227L35.5684 162.025Z" fill="#A4A1FF"/>
<path d="M105.822 133.923L119.873 133.923L119.873 147.973L105.822 147.973L105.822 133.923Z" fill="#A4A1FF"/>
<path d="M105.822 119.874L119.873 119.874L119.873 133.924L105.822 133.924L105.822 119.874Z" fill="#262739"/>
<path d="M105.822 91.7727L119.873 91.7727L119.873 105.823L105.822 105.823L105.822 91.7727Z" fill="#262739"/>
<path d="M274.432 91.7727L260.381 91.7727L260.381 147.974L274.432 147.974L274.432 91.7727Z" fill="#A4A1FF"/>
<path d="M91.7715 274.429L91.7715 260.378L147.975 260.378L147.975 274.429L91.7715 274.429Z" fill="#A4A1FF"/>
<path d="M119.873 133.924L119.873 119.873L176.076 119.873L176.076 133.924L119.873 133.924Z" fill="#262739"/>
<path d="M190.127 176.075L190.127 190.126L133.924 190.126L133.924 176.075L190.127 176.075Z" fill="#262739"/>
<path d="M119.873 176.075L119.873 133.923L133.924 133.923L133.924 176.075L119.873 176.075Z" fill="#262739"/>
<path d="M190.127 133.923L190.127 176.075L176.076 176.075L176.076 133.923L190.127 133.923Z" fill="#262739"/>
<path d="M218.229 204.177L218.229 218.228L204.178 218.228L204.178 204.177L218.229 204.177Z" fill="#262739"/>
<path d="M260.381 190.127L260.381 204.177L246.33 204.177L246.33 190.127L260.381 190.127Z" fill="#262739"/>
<path d="M218.229 232.279L218.229 246.329L204.178 246.329L204.178 232.279L218.229 232.279Z" fill="#262739"/>
<path d="M246.33 204.177L246.33 218.228L232.279 218.228L232.279 204.177L246.33 204.177Z" fill="#262739"/>
<path d="M204.178 246.329L204.178 260.38L190.127 260.38L190.127 246.329L204.178 246.329Z" fill="#262739"/>
<path d="M190.127 260.38L190.127 274.431L176.076 274.431L176.076 260.38L190.127 260.38Z" fill="#262739"/>
<path d="M63.6699 260.38L63.6699 274.431L49.6191 274.431L49.6191 260.38L63.6699 260.38Z" fill="#262739"/>
<path d="M176.076 274.431L176.076 288.481L63.6699 288.481L63.6699 274.431L176.076 274.431Z" fill="#262739"/>
<path d="M119.873 204.177L119.873 218.228L105.822 218.228L105.822 204.177L119.873 204.177Z" fill="#262739"/>
<path d="M133.924 190.127L133.924 204.177L119.873 204.177L119.873 190.127L133.924 190.127Z" fill="#262739"/>
<path d="M190.127 105.822L190.127 119.872L176.076 119.872L176.076 105.822L190.127 105.822Z" fill="#262739"/>
<path d="M63.6699 232.277L63.6699 246.328L49.6191 246.328L49.6191 232.277L63.6699 232.277Z" fill="#262739"/>
<path d="M35.5684 133.924L35.5684 246.328L21.5176 246.328L21.5176 133.924L35.5684 133.924Z" fill="#262739"/>
<path d="M218.229 77.721L218.229 91.7717L204.178 91.7717L204.178 77.721L218.229 77.721Z" fill="#262739"/>
<path d="M91.7715 204.176L91.7715 218.227L77.7207 218.227L77.7207 204.176L91.7715 204.176Z" fill="#262739"/>
<path d="M204.178 91.7711L204.178 105.822L190.127 105.822L190.127 91.7711L204.178 91.7711Z" fill="#262739"/>
<path d="M77.7207 218.226L77.7207 232.277L63.6699 232.277L63.6699 218.226L77.7207 218.226Z" fill="#262739"/>
<path d="M91.7715 119.873L91.7715 133.924L63.6699 133.924L63.6699 119.873L91.7715 119.873Z" fill="#262739"/>
<path d="M232.279 63.6704L232.279 77.721L218.229 77.721L218.229 63.6703L232.279 63.6704Z" fill="#262739"/>
<path d="M105.822 190.125L105.822 204.176L91.7715 204.176L91.7715 190.125L105.822 190.125Z" fill="#262739"/>
<path d="M204.178 119.873L204.178 133.924L190.127 133.924L190.127 119.873L204.178 119.873Z" fill="#262739"/>
<path d="M77.7207 246.328L77.7207 260.379L63.6699 260.379L63.6699 246.328L77.7207 246.328Z" fill="#262739"/>
<path d="M49.6191 246.328L49.6191 260.379L35.5684 260.379L35.5684 246.328L49.6191 246.328Z" fill="#262739"/>
<path d="M232.279 91.7722L232.279 105.823L218.229 105.823L218.229 91.7722L232.279 91.7722Z" fill="#262739"/>
<path d="M105.822 218.227L105.822 232.278L91.7715 232.278L91.7715 218.227L105.822 218.227Z" fill="#262739"/>
<path d="M190.127 218.227L190.127 246.328L176.076 246.328L176.076 218.227L190.127 218.227Z" fill="#262739"/>
<path d="M63.6699 133.924L63.6699 232.276L49.6191 232.276L49.6191 133.924L63.6699 133.924Z" fill="#262739"/>
<path d="M218.229 105.822L218.229 119.872L204.178 119.872L204.178 105.822L218.229 105.822Z" fill="#262739"/>
<path d="M91.7715 232.277L91.7715 246.328L77.7207 246.328L77.7207 232.277L91.7715 232.277Z" fill="#262739"/>
<path d="M246.33 77.721L246.33 91.7717L232.279 91.7717L232.279 77.721L246.33 77.721Z" fill="#262739"/>
<path d="M119.873 176.075L119.873 190.125L105.822 190.125L105.822 176.075L119.873 176.075Z" fill="#262739"/>
<path d="M105.822 91.7714L105.822 105.822L91.7715 105.822L91.7715 91.7714L105.822 91.7714Z" fill="#262739"/>
<path d="M105.822 63.6699L105.822 77.7205L91.7715 77.7205L91.7715 63.6699L105.822 63.6699Z" fill="#262739"/>
<path d="M119.873 49.6192L119.873 63.6699L105.822 63.6699L105.822 49.6192L119.873 49.6192Z" fill="#262739"/>
<path d="M246.33 49.6192L246.33 63.6699L133.924 63.6699L133.924 49.6192L246.33 49.6192Z" fill="#262739"/>
<path d="M133.924 35.5685L133.924 49.6191L119.873 49.6191L119.873 35.5685L133.924 35.5685Z" fill="#262739"/>
<path d="M260.381 35.5685L260.381 49.6191L246.33 49.6191L246.33 35.5685L260.381 35.5685Z" fill="#262739"/>
<path d="M260.381 63.6703L260.381 176.075L246.33 176.075L246.33 63.6703L260.381 63.6703Z" fill="#262739"/>
<path d="M274.432 49.6191L274.432 63.6698L260.381 63.6698L260.381 49.6191L274.432 49.6191Z" fill="#262739"/>
<path d="M274.432 176.076L274.432 190.127L260.381 190.127L260.381 176.076L274.432 176.076Z" fill="#262739"/>
<path d="M232.279 218.228L232.279 232.279L218.229 232.279L218.229 218.228L232.279 218.228Z" fill="#262739"/>
<path d="M246.33 176.076L246.33 190.127L218.229 190.127L218.229 176.076L246.33 176.076Z" fill="#262739"/>
<path d="M288.482 63.6698L288.482 176.075L274.432 176.075L274.432 63.6698L288.482 63.6698Z" fill="#262739"/>
<path d="M246.33 21.5186L246.33 35.5692L133.924 35.5692L133.924 21.5186L246.33 21.5186Z" fill="#262739"/>
<path d="M91.7715 77.7208L91.7715 91.7714L77.7207 91.7714L77.7207 77.7208L91.7715 77.7208Z" fill="#262739"/>
<path d="M77.7207 91.7722L77.7207 105.823L63.6699 105.823L63.6699 91.7722L77.7207 91.7722Z" fill="#262739"/>
<path d="M63.6699 105.822L63.6699 119.872L49.6191 119.872L49.6191 105.822L63.6699 105.822Z" fill="#262739"/>
<path d="M49.6191 119.872L49.6191 133.923L35.5684 133.923L35.5684 119.872L49.6191 119.872Z" fill="#262739"/>
<path d="M133.924 63.67L133.924 91.772L119.873 91.772L119.873 63.67L133.924 63.67Z" fill="#262739"/>
<path d="M176.076 91.7714L176.076 105.822L119.873 105.822L119.873 91.7714L176.076 91.7714Z" fill="#262739"/>
<path d="M190.127 204.177L190.127 218.228L133.924 218.228L133.924 204.177L190.127 204.177Z" fill="#262739"/>
<path d="M176.076 246.328L176.076 260.378L77.7207 260.378L77.7207 246.328L176.076 246.328Z" fill="#262739"/>
<path d="M218.228 190.127H204.178V133.924H218.228V190.127Z" fill="#262739"/>
<path d="M105.822 176.076H91.7715V119.873H105.822V176.076Z" fill="#262739"/>
<path d="M133.924 49.6193L133.924 35.5685L147.975 35.5685L147.975 49.6193L133.924 49.6193Z" fill="#A4A1FF"/>
<path d="M204.178 133.924L190.127 133.924L190.127 147.974L204.178 147.974L204.178 133.924Z" fill="#A4A1FF"/>
<path d="M204.178 133.924L190.127 133.924L190.127 147.974L204.178 147.974L204.178 133.924Z" fill="#A4A1FF"/>
<path d="M204.178 232.276L190.127 232.276L190.127 246.326L204.178 246.326L204.178 232.276Z" fill="#A4A1FF"/>
<path d="M204.178 147.976L190.127 147.976L190.127 162.026L204.178 162.026L204.178 147.976Z" fill="#A4A1FF"/>
<path d="M204.178 162.026L190.127 162.026L190.127 218.228L204.178 218.228L204.178 162.026Z" fill="#A4A1FF"/>
<path d="M204.178 218.226L190.127 218.226L190.127 232.276L204.178 232.276L204.178 218.226Z" fill="#A4A1FF"/>
<path d="M63.6699 119.873L63.6699 105.822L77.7207 105.822L77.7207 119.873L63.6699 119.873Z" fill="#A4A1FF"/>
<path d="M77.7207 119.874L77.7207 105.823L91.7715 105.823L91.7715 119.874L77.7207 119.874Z" fill="#A4A1FF"/>
<path d="M147.975 119.874L147.975 105.823L162.025 105.823L162.025 119.874L147.975 119.874Z" fill="#A4A1FF"/>
<path d="M91.7715 119.874L91.7715 105.823L147.975 105.823L147.975 119.874L91.7715 119.874Z" fill="#A4A1FF"/>
<path d="M162.025 49.62L162.025 35.5692L218.229 35.5692L218.229 49.62L162.025 49.62Z" fill="#A4A1FF"/>
<path d="M49.6191 119.873L63.6699 119.873L63.6699 133.924L49.6191 133.924L49.6191 119.873Z" fill="#A4A1FF"/>
<path d="M119.873 49.6193L133.924 49.6193L133.924 63.67L119.873 63.67L119.873 49.6193Z" fill="#A4A1FF"/>
<path d="M190.127 119.873L176.076 119.873L176.076 133.924L190.127 133.924L190.127 119.873Z" fill="#A4A1FF"/>
<path d="M204.178 105.822L190.127 105.822L190.127 119.873L204.178 119.873L204.178 105.822Z" fill="#A4A1FF"/>
<path d="M133.924 176.076L119.873 176.076L119.873 190.126L133.924 190.126L133.924 176.076Z" fill="#A4A1FF"/>
<path d="M218.229 91.7713L204.178 91.7713L204.178 105.822L218.229 105.822L218.229 91.7713Z" fill="#A4A1FF"/>
<path d="M218.229 218.227L204.178 218.227L204.178 232.278L218.229 232.278L218.229 218.227Z" fill="#262739"/>
<path d="M91.7715 91.7713L77.7207 91.7713L77.7207 105.822L91.7715 105.822L91.7715 91.7713Z" fill="#262739"/>
<path d="M232.279 77.7205L218.229 77.7205L218.229 91.7713L232.279 91.7713L232.279 77.7205Z" fill="#A4A1FF"/>
<path d="M232.279 190.127L218.229 190.127L218.229 204.175L232.279 204.175L232.279 190.127Z" fill="#262739"/>
<path d="M232.279 204.175L218.229 204.175L218.229 218.224L232.279 218.224L232.279 204.175Z" fill="#A4A1FF"/>
<path d="M105.822 77.7205L91.7715 77.7205L91.7715 91.7713L105.822 91.7713L105.822 77.7205Z" fill="#A4A1FF"/>
<path d="M246.33 63.67L232.279 63.67L232.279 77.7208L246.33 77.7208L246.33 63.67Z" fill="#A4A1FF"/>
<path d="M274.432 63.67L260.381 63.67V77.7208L274.432 77.7208V63.67Z" fill="#A4A1FF"/>
<path d="M274.432 77.7219L260.381 77.7219V91.7727L274.432 91.7727V77.7219Z" fill="#A4A1FF"/>
<path d="M260.381 49.6193L246.33 49.6193L246.33 63.67L260.381 63.67V49.6193Z" fill="#A4A1FF"/>
<path d="M49.6191 246.329L63.6699 246.329L63.6699 260.38H49.6191L49.6191 246.329Z" fill="#A4A1FF"/>
<path d="M105.822 190.126L119.873 190.126L119.873 204.177L105.822 204.177L105.822 190.126Z" fill="#A4A1FF"/>
<path d="M133.924 190.125L147.975 190.125L147.975 204.175L133.924 204.175L133.924 190.125Z" fill="#A4A1FF"/>
<path d="M77.7207 218.227L91.7715 218.227L91.7715 232.278L77.7207 232.278L77.7207 218.227Z" fill="#A4A1FF"/>
<path d="M105.822 77.7214L119.873 77.7214L119.873 91.7722L105.822 91.7722L105.822 77.7214Z" fill="#262739"/>
<path d="M91.7715 204.177L105.822 204.177L105.822 218.228L91.7715 218.228L91.7715 204.177Z" fill="#A4A1FF"/>
<path d="M105.822 147.974L119.873 147.974L119.873 162.025L105.822 162.025L105.822 147.974Z" fill="#A4A1FF"/>
<path d="M147.975 190.127L162.025 190.127L162.025 204.178L147.975 204.178L147.975 190.127Z" fill="#A4A1FF"/>
<path d="M176.076 190.127L190.127 190.127L190.127 204.178L176.076 204.178L176.076 190.127Z" fill="#262739"/>
<path d="M204.178 190.127L218.229 190.127L218.229 204.178L204.178 204.178L204.178 190.127Z" fill="#262739"/>
<path d="M162.025 190.127L176.076 190.127L176.076 204.178L162.025 204.178L162.025 190.127Z" fill="#A4A1FF"/>
<path d="M63.6699 232.278L77.7207 232.278L77.7207 246.329L63.6699 246.329L63.6699 232.278Z" fill="#A4A1FF"/>
<path d="M105.822 63.6703L119.873 63.6703L119.873 77.7211L105.822 77.7211L105.822 63.6703Z" fill="#A4A1FF"/>
<path d="M63.6699 260.38H77.7207L77.7207 274.431H63.6699L63.6699 260.38Z" fill="#A4A1FF"/>
<path d="M77.7207 260.38H91.7715L91.7715 274.431H77.7207L77.7207 260.38Z" fill="#A4A1FF"/>
<path d="M176.076 260.38L176.076 246.329L190.127 246.329L190.127 260.38L176.076 260.38Z" fill="#A4A1FF"/>
<path d="M246.33 190.126L246.33 176.075L260.381 176.075L260.381 190.126L246.33 190.126Z" fill="#A4A1FF"/>
<path d="M35.5684 218.227L49.6191 218.227L49.6191 232.278L35.5684 232.278L35.5684 218.227Z" fill="#A4A1FF"/>
<path d="M35.5684 147.976L49.6191 147.976L49.6191 162.026L35.5684 162.026L35.5684 147.976Z" fill="#A4A1FF"/>
<path d="M274.432 147.974L260.381 147.974V162.025L274.432 162.025V147.974Z" fill="#A4A1FF"/>
<path d="M147.975 274.43L147.975 260.38L162.025 260.38L162.025 274.43L147.975 274.43Z" fill="#A4A1FF"/>
<path d="M218.229 49.6193L218.229 35.5685L232.279 35.5685L232.279 49.6193L218.229 49.6193Z" fill="#A4A1FF"/>
<path d="M147.975 49.6193L147.975 35.5685L162.025 35.5685L162.025 49.6193L147.975 49.6193Z" fill="#A4A1FF"/>
<path d="M35.5684 232.278L49.6191 232.278L49.6191 246.329L35.5684 246.329L35.5684 232.278Z" fill="#A4A1FF"/>
<path d="M35.5684 133.924L49.6191 133.924L49.6191 147.975L35.5684 147.975L35.5684 133.924Z" fill="#A4A1FF"/>
<path d="M105.822 162.025L119.873 162.025L119.873 176.075L105.822 176.075L105.822 162.025Z" fill="#A4A1FF"/>
<path d="M274.432 162.025L260.381 162.025V176.075L274.432 176.075V162.025Z" fill="#A4A1FF"/>
<path d="M162.025 274.43L162.025 260.38L176.076 260.38L176.076 274.43L162.025 274.43Z" fill="#A4A1FF"/>
<path d="M232.279 204.177L232.279 190.126L246.33 190.126L246.33 204.177L232.279 204.177Z" fill="#A4A1FF"/>
<path d="M162.025 119.873L162.025 105.822L176.076 105.822L176.076 119.873L162.025 119.873Z" fill="#A4A1FF"/>
<path d="M232.279 49.6193L232.279 35.5685L246.33 35.5685L246.33 49.6193L232.279 49.6193Z" fill="#A4A1FF"/>
</svg>
