<svg width="288" height="258" viewBox="0 0 288 258" fill="none" xmlns="http://www.w3.org/2000/svg">
<g clip-path="url(#clip0_2669_20793)">
<path d="M121.327 181.891H45.7424V197H121.327V181.891Z" fill="#A2ABC0"/>
<path d="M272.476 91.2432H257.367V106.367H272.476V91.2432Z" fill="#CAD1E1"/>
<path d="M257.338 61.0068H242.229V76.1302H257.338V61.0068Z" fill="#A2ABC0"/>
<path d="M121.334 197V212.109V227.222H136.444V212.109V197H121.334Z" fill="#A2ABC0"/>
<path d="M136.444 227.222V234.775V242.331H151.557V234.775V227.222H136.444Z" fill="#A2ABC0"/>
<path d="M136.444 197V212.109V227.222H151.557V212.109V197H136.444Z" fill="#CAD1E1"/>
<path d="M151.556 227.222V234.775V242.331H166.666V234.775V227.222H151.556Z" fill="#CAD1E1"/>
<path d="M166.68 212.109V219.665V227.222H181.789V219.665V212.109H166.68Z" fill="#CAD1E1"/>
<path d="M227.12 91.2288V98.7816V106.338H242.229V98.7816V91.2288H227.12Z" fill="#CAD1E1"/>
<path d="M257.367 61.0139V76.1195H242.229V83.6723V91.2287H262.575H272.476V76.1195V61.0139H257.367Z" fill="#CAD1E1"/>
<path d="M212.011 121.447V129V136.553H227.12V129V121.447H212.011Z" fill="#CAD1E1"/>
<path d="M196.898 151.669V159.222V166.771H212.011V159.222V151.669H196.898Z" fill="#CAD1E1"/>
<path d="M181.789 181.891V189.44V196.993H196.898V189.44V181.891H181.789Z" fill="#CAD1E1"/>
<path d="M121.32 227.222V219.666V212.109V204.556V197H106.211V204.556V212.109H30.6335V219.666V227.222V234.775V242.331H109.057H121.32H136.444V234.775V227.222H121.32Z" fill="#CAD1E1"/>
<path d="M166.68 257.44H30.6333V242.332H166.68V257.44ZM30.6294 242.332H15.521V227.222H30.6294V242.332ZM181.789 242.332H166.68V227.222H181.789V242.332ZM15.521 227.222H0.411621V197H15.521V227.222ZM196.898 227.222H181.79V197H196.898V227.222ZM212.011 197H196.898V166.779H212.011V197ZM45.7427 197H15.521V181.891H45.7427V197ZM60.8521 181.891H45.7427V151.668H60.8521V181.891ZM227.12 166.778H212.01V136.56H227.12V166.778ZM75.9644 151.669H60.8521V121.448H75.9644V151.669ZM242.229 136.56H227.12V106.338H242.229V136.56ZM91.0737 121.447H75.9644V91.229H91.0737V121.447ZM257.367 106.338H272.476V121.447H242.257V91.229H257.367V106.338ZM287.588 61.0073V106.338H272.476V61.0073H287.588ZM106.211 91.229H91.0981V61.0073H106.211V91.229ZM121.321 61.0073H106.211V45.8979H121.321V61.0073ZM272.476 61.0073H257.367V45.8979H272.476V61.0073ZM257.367 45.8911H121.328V30.7817H257.367V45.8911Z" fill="url(#paint0_radial_2669_20793)"/>
<path d="M106.211 197V212.109H30.6337V227.222H15.521V197H106.211Z" fill="#EDF2FD"/>
<path d="M242.229 45.898L121.328 45.8909V61.0071H106.211V91.229H91.0986V121.447H75.9645V151.669H60.8518V181.891H121.328V197H151.557V227.222H166.68V212.109H181.789V181.891H196.898V151.669H212.011V121.447H227.12V91.229H242.258V61.0071H257.367V45.898H242.229Z" fill="#EDF2FD"/>
<path d="M166.662 151.658H91.0986V166.782H166.662V151.658Z" fill="#8D6D00"/>
<path d="M181.789 121.44H106.211V136.563H181.789V121.44Z" fill="#8D6D00"/>
<path d="M196.898 91.2432H121.32V106.367H196.898V91.2432Z" fill="#8D6D00"/>
<path d="M59.0442 76.0203H43.9351V91.1294H59.0442V76.0203Z" fill="black"/>
<path d="M59.0442 60.9109H43.9351V76.02H59.0442V60.9109Z" fill="black"/>
<path d="M59.0442 45.802H43.9351V60.9112H59.0442V45.802Z" fill="black"/>
<path d="M43.9319 60.9109H28.8228V76.02H43.9319V60.9109Z" fill="black"/>
<path d="M74.1536 60.9109H59.0444V76.02H74.1536V60.9109Z" fill="black"/>
<path d="M74.1536 0.559814H59.0444V15.669H74.1536V0.559814Z" fill="black"/>
<path d="M89.2625 30.7817H74.1533V45.8909H89.2625V30.7817Z" fill="black"/>
</g>
<defs>
<radialGradient id="paint0_radial_2669_20793" cx="0" cy="0" r="1" gradientUnits="userSpaceOnUse" gradientTransform="translate(69.1586 68.2372) rotate(43.8876) scale(161.44 74.0346)">
<stop stop-color="#535474"/>
<stop offset="0.507302" stop-color="#2A2B42"/>
</radialGradient>
<clipPath id="clip0_2669_20793">
<rect width="287.177" height="256.88" fill="white" transform="translate(0.411621 0.559814)"/>
</clipPath>
</defs>
</svg>
