<svg width="310" height="310" viewBox="0 0 310 310" fill="none" xmlns="http://www.w3.org/2000/svg">
<rect width="310" height="310" fill="white"/>
<path d="M134.2 105.47L134.2 119.556L147.762 119.556L147.762 105.47L134.2 105.47Z" fill="#2B2C43"/>
<path d="M134.2 257.272L134.2 271.357L147.762 271.357L147.762 257.272L134.2 257.272Z" fill="#2B2C43"/>
<path d="M120.638 105.47L120.638 119.556L134.2 119.556L134.2 105.47L120.638 105.47Z" fill="#2B2C43"/>
<path d="M120.638 257.272L120.638 271.357L134.2 271.357L134.2 257.272L120.638 257.272Z" fill="#2B2C43"/>
<path d="M243.22 147.728L229.134 147.728L229.134 161.29L243.22 161.29L243.22 147.728Z" fill="#2B2C43"/>
<path d="M93.5137 147.728L79.4277 147.728L79.4277 161.29L93.5137 161.29L93.5137 147.728Z" fill="#2B2C43"/>
<path d="M161.324 105.47L161.324 119.556L174.886 119.556L174.886 105.47L161.324 105.47Z" fill="#2B2C43"/>
<path d="M161.324 257.272L161.324 271.357L174.886 271.357L174.886 257.272L161.324 257.272Z" fill="#2B2C43"/>
<path d="M243.22 174.852L229.134 174.852L229.134 188.414L243.22 188.414L243.22 174.852Z" fill="#2B2C43"/>
<path d="M93.5137 174.852L79.4277 174.852L79.4277 188.414L93.5137 188.414L93.5137 174.852Z" fill="#2B2C43"/>
<path d="M147.762 105.47L147.762 119.556L161.324 119.556L161.324 105.47L147.762 105.47Z" fill="#2B2C43"/>
<path d="M147.762 257.272L147.762 271.357L161.324 271.357L161.324 257.272L147.762 257.272Z" fill="#2B2C43"/>
<path d="M147.762 243.186L147.762 257.272L161.324 257.272L161.324 243.186L147.762 243.186Z" fill="#F8EDFF"/>
<path d="M147.762 243.186L147.762 257.272L161.324 257.272L161.324 243.186L147.762 243.186Z" fill="#F8EDFF"/>
<path d="M161.324 229.1L161.324 243.186L174.886 243.186L174.886 229.1L161.324 229.1Z" fill="#F8EDFF"/>
<path d="M174.886 215.014L174.886 229.1L188.448 229.1L188.448 215.014L174.886 215.014Z" fill="#F8EDFF"/>
<path d="M161.324 215.014L161.324 229.1L174.886 229.1L174.886 215.014L161.324 215.014Z" fill="#F8EDFF"/>
<path d="M134.2 215.014L134.2 229.1L147.762 229.1L147.762 215.014L134.2 215.014Z" fill="#F8EDFF"/>
<path d="M174.886 200.928L174.886 215.014L188.448 215.014L188.448 200.928L174.886 200.928Z" fill="#F8EDFF"/>
<path d="M161.324 200.928L161.324 215.014L174.886 215.014L174.886 200.928L161.324 200.928Z" fill="#F8EDFF"/>
<path d="M147.762 200.928L147.762 215.014L161.324 215.014L161.324 200.928L147.762 200.928Z" fill="#F8EDFF"/>
<path d="M174.886 186.842L174.886 200.928L188.448 200.928L188.448 186.842L174.886 186.842Z" fill="#F8EDFF"/>
<path d="M243.22 161.29L229.134 161.29L229.134 174.852L243.22 174.852L243.22 161.29Z" fill="#2B2C43"/>
<path d="M93.5137 161.29L79.4277 161.29L79.4277 174.852L93.5137 174.852L93.5137 161.29Z" fill="#2B2C43"/>
<path d="M174.886 105.47L174.886 119.556L188.448 119.556L188.448 105.47L174.886 105.47Z" fill="#2B2C43"/>
<path d="M174.886 257.272L174.886 271.357L188.448 271.357L188.448 257.272L174.886 257.272Z" fill="#2B2C43"/>
<path d="M243.22 188.414L229.134 188.414L229.134 201.976L243.22 201.976L243.22 188.414Z" fill="#2B2C43"/>
<path d="M93.5137 188.414L79.4277 188.414L79.4277 201.976L93.5137 201.976L93.5137 188.414Z" fill="#2B2C43"/>
<path d="M188.448 105.47L188.448 119.556L202.01 119.556L202.01 105.47L188.448 105.47Z" fill="#2B2C43"/>
<path d="M188.448 257.272L188.448 271.357L202.01 271.357L202.01 257.272L188.448 257.272Z" fill="#2B2C43"/>
<path d="M243.22 201.976L229.134 201.976L229.134 215.538L243.22 215.538L243.22 201.976Z" fill="#2B2C43"/>
<path d="M93.5137 201.976L79.4277 201.976L79.4277 215.538L93.5137 215.538L93.5137 201.976Z" fill="#2B2C43"/>
<path d="M243.22 215.538L229.134 215.538L229.134 229.1L243.22 229.1L243.22 215.538Z" fill="#2B2C43"/>
<path d="M93.5137 215.538L79.4277 215.538L79.4277 229.1L93.5137 229.1L93.5137 215.538Z" fill="#2B2C43"/>
<path d="M202.01 119.556L202.01 133.642L215.572 133.642L215.572 119.556L202.01 119.556Z" fill="#2B2C43"/>
<path d="M202.01 243.186L202.01 257.272L215.572 257.272L215.572 243.186L202.01 243.186Z" fill="#2B2C43"/>
<path d="M215.572 133.642L215.572 147.728L229.134 147.728L229.134 133.642L215.572 133.642Z" fill="#2B2C43"/>
<path d="M215.572 229.1L215.572 243.186L229.134 243.186L229.134 229.1L215.572 229.1Z" fill="#2B2C43"/>
<path d="M93.5137 133.642L93.5137 147.728L107.076 147.728L107.076 133.642L93.5137 133.642Z" fill="#2B2C43"/>
<path d="M93.5137 229.1L93.5137 243.186L107.076 243.186L107.076 229.1L93.5137 229.1Z" fill="#2B2C43"/>
<path d="M107.076 119.556L107.076 133.642L120.638 133.642L120.638 119.556L107.076 119.556Z" fill="#2B2C43"/>
<path d="M120.638 119.556L120.638 133.642L134.2 133.642L134.2 119.556L120.638 119.556Z" fill="#F8EDFF"/>
<path d="M134.2 119.556L134.2 133.642L147.762 133.642L147.762 119.556L134.2 119.556Z" fill="#F8EDFF"/>
<path d="M147.762 119.556L147.762 133.642L161.324 133.642L161.324 119.556L147.762 119.556Z" fill="#F8EDFF"/>
<path d="M161.324 133.642L161.324 147.728L174.886 147.728L174.886 133.642L161.324 133.642Z" fill="#F8EDFF"/>
<path d="M161.324 147.728L161.324 161.814L174.886 161.814L174.886 147.728L161.324 147.728Z" fill="#F8EDFF"/>
<path d="M147.762 161.814L147.762 175.899L161.324 175.899L161.324 161.814L147.762 161.814Z" fill="#F8EDFF"/>
<path d="M215.572 161.814L215.572 175.899L229.134 175.899L229.134 161.814L215.572 161.814Z" fill="#F8EDFF"/>
<path d="M215.572 215.014L215.572 229.1L229.134 229.1L229.134 215.014L215.572 215.014Z" fill="#F8EDFF"/>
<path d="M202.01 229.1L202.01 243.186L215.572 243.186L215.572 229.1L202.01 229.1Z" fill="#F8EDFF"/>
<path d="M107.076 147.728L107.076 161.814L120.638 161.814L120.638 147.728L107.076 147.728Z" fill="#F8EDFF"/>
<path d="M93.5137 147.728L93.5137 172.756L107.076 172.756L107.076 147.728L93.5137 147.728Z" fill="#EDDCFF"/>
<path d="M107.075 133.642L107.075 147.728L120.637 147.728L120.637 133.642L107.075 133.642Z" fill="#EDDCFF"/>
<path d="M161.324 161.814L161.324 175.899L174.886 175.899L174.886 161.814L161.324 161.814Z" fill="#EDDCFF"/>
<path d="M161.324 186.842L161.324 200.928L174.886 200.928L174.886 186.842L161.324 186.842Z" fill="#EDDCFF"/>
<path d="M147.762 215.014L147.762 243.186L161.324 243.186L161.324 215.014L147.762 215.014Z" fill="#EDDCFF"/>
<path d="M134.2 200.928L134.2 215.014L147.762 215.014L147.762 200.928L134.2 200.928Z" fill="#EDDCFF"/>
<path d="M134.2 229.1L134.2 243.186L147.762 243.186L147.762 229.1L134.2 229.1Z" fill="#EDDCFF"/>
<path d="M161.324 243.186L161.324 257.272L202.01 257.272L202.01 243.186L161.324 243.186Z" fill="#EDDCFF"/>
<path d="M174.886 229.1L174.886 243.186L202.01 243.186L202.01 229.1L174.886 229.1Z" fill="#EDDCFF"/>
<path d="M215.572 175.899L215.572 200.928L229.134 200.928L229.134 175.899L215.572 175.899Z" fill="#EDDCFF"/>
<path d="M188.448 186.842L188.448 215.014L202.01 215.014L202.01 186.842L188.448 186.842Z" fill="#EDDCFF"/>
<path d="M202.01 133.642L202.01 147.728L215.572 147.728L215.572 133.642L202.01 133.642Z" fill="#EDDCFF"/>
<path d="M188.448 147.728L188.448 161.814L202.01 161.814L202.01 147.728L188.448 147.728Z" fill="#EDDCFF"/>
<path d="M215.572 147.728L215.572 161.814L229.134 161.814L229.134 147.728L215.572 147.728Z" fill="#EDDCFF"/>
<path d="M161.324 119.556L161.324 133.642L202.01 133.642L202.01 119.556L161.324 119.556Z" fill="#EDDCFF"/>
<path d="M107.075 215.014L107.075 229.1L120.637 229.1L120.637 215.014L107.075 215.014Z" fill="#EDDCFF"/>
<path d="M120.637 133.642L120.637 147.728L134.199 147.728L134.199 133.642L120.637 133.642Z" fill="#EDDCFF"/>
<path d="M120.637 147.728L120.637 161.814L134.199 161.814L134.199 147.728L120.637 147.728Z" fill="#EDDCFF"/>
<path d="M107.076 161.814L107.076 186.842L120.638 186.842L120.638 161.814L107.076 161.814Z" fill="#EDDCFF"/>
<path d="M147.762 133.642L147.762 147.728L161.324 147.728L161.324 133.642L147.762 133.642Z" fill="#FFF7FF"/>
<path d="M134.2 133.642L134.2 147.728L147.762 147.728L147.762 133.642L134.2 133.642Z" fill="#FFF7FF"/>
<path d="M147.762 147.728L147.762 161.814L161.324 161.814L161.324 147.728L147.762 147.728Z" fill="#FFF7FF"/>
<path d="M134.2 147.728L134.2 161.814L147.762 161.814L147.762 147.728L134.2 147.728Z" fill="#FFF7FF"/>
<path d="M93.5137 215.014L93.5137 229.1L107.076 229.1L107.076 215.014L93.5137 215.014Z" fill="#F8EDFF"/>
<path d="M93.5137 200.928L93.5137 215.014L107.076 215.014L107.076 200.928L93.5137 200.928Z" fill="#F8EDFF"/>
<path d="M107.076 200.928L107.076 215.014L120.638 215.014L120.638 200.928L107.076 200.928Z" fill="#F8EDFF"/>
<path d="M93.5137 186.842L93.5137 200.928L107.076 200.928L107.076 186.842L93.5137 186.842Z" fill="#F8EDFF"/>
<path d="M107.076 186.842L107.076 200.928L120.638 200.928L120.638 186.842L107.076 186.842Z" fill="#F8EDFF"/>
<path d="M120.638 186.842L120.638 200.928L134.2 200.928L134.2 186.842L120.638 186.842Z" fill="#F8EDFF"/>
<path d="M120.638 172.756L120.638 186.842L134.2 186.842L134.2 172.756L120.638 172.756Z" fill="#F8EDFF"/>
<path d="M93.5137 172.756L93.5137 186.842L107.076 186.842L107.076 172.756L93.5137 172.756Z" fill="#D8B9FF"/>
<path d="M120.638 200.928L120.638 257.272L134.2 257.272L134.2 200.928L120.638 200.928Z" fill="#D8B9FF"/>
<path d="M134.199 243.186L134.199 257.272L147.761 257.272L147.761 243.186L134.199 243.186Z" fill="#D8B9FF"/>
<path d="M107.076 229.1L107.076 243.186L120.638 243.186L120.638 229.1L107.076 229.1Z" fill="#D8B9FF"/>
<path d="M120.638 161.814L120.638 172.756L147.762 172.756L147.762 161.814L120.638 161.814Z" fill="#D8B9FF"/>
<path d="M188.448 215.014L188.448 229.1L215.572 229.1L215.572 215.014L188.448 215.014Z" fill="#D8B9FF"/>
<path d="M202.01 200.928L202.01 215.014L229.134 215.014L229.134 200.928L202.01 200.928Z" fill="#D8B9FF"/>
<path d="M202.01 147.728L202.01 200.928L215.572 200.928L215.572 147.728L202.01 147.728Z" fill="#D8B9FF"/>
<path d="M174.886 161.814L174.886 186.842L202.009 186.842L202.009 161.814L174.886 161.814Z" fill="#D8B9FF"/>
<path d="M174.886 133.642L174.886 147.728L202.009 147.728L202.009 133.642L174.886 133.642Z" fill="#D8B9FF"/>
<path d="M188.448 139.637H174.886V166.761H188.448V139.637Z" fill="#D8B9FF"/>
<path d="M147.761 172.756H134.199V200.928H147.761V172.756Z" fill="#D8B9FF"/>
<path d="M161.323 175.899H147.761V200.928H161.323V175.899Z" fill="#D8B9FF"/>
<path d="M174.885 175.899H161.323V186.842H174.885V175.899Z" fill="#D8B9FF"/>
<path d="M107.076 243.186L107.076 257.272L120.638 257.272L120.638 243.186L107.076 243.186Z" fill="#2B2C43"/>
<path d="M93.644 119.556H80.2144V106.125H93.644V119.556ZM243.219 105.47V118.9H229.79V105.47H243.219ZM80.2104 106.122H66.7798V92.6913H80.2104V106.122ZM93.644 106.122H80.2144V79.2607H93.644V106.122ZM107.076 106.122H93.645V92.6913H107.076V106.122ZM161.714 92.5292H148.285V79.0995H161.714V92.5292ZM201.749 92.4872H188.319V79.0566H201.749V92.4872ZM188.315 79.0536H174.885V65.623H188.315V79.0536ZM201.749 79.0536H188.319V52.1923H201.749V79.0536ZM215.18 79.0536H201.75V65.623H215.18V79.0536ZM120.638 78.9345H107.208V65.5038H120.638V78.9345ZM161.192 52.0732H147.761V38.6425H161.192V52.0732Z" fill="#2B2C43"/>
</svg>
