<svg width="310" height="310" viewBox="0 0 310 310" fill="none" xmlns="http://www.w3.org/2000/svg">
<rect width="310" height="310" fill="white"/>
<path d="M99.5266 224.363H113.396V210.493H99.5266V224.363Z" fill="#2A2B42"/>
<path d="M99.5264 210.479V196.609H85.6565V210.479H99.5264Z" fill="#2A2B42"/>
<path d="M127.251 210.479V196.609H113.381V210.479H127.251Z" fill="#2A2B42"/>
<path d="M99.5264 196.61V182.74H85.6565V196.61H99.5264Z" fill="#2A2B42"/>
<path d="M127.267 196.61V182.74H113.397V196.61H127.267Z" fill="#2A2B42"/>
<path d="M71.801 182.74H85.6709V168.87H71.801V182.74Z" fill="#2A2B42"/>
<path d="M141.106 168.87H127.236V182.74H141.106V168.87Z" fill="#2A2B42"/>
<path d="M141.106 141.128H127.236V154.998H141.106V141.128Z" fill="#2A2B42"/>
<path d="M168.861 154.999H154.991V168.868H168.861V154.999Z" fill="#2A2B42"/>
<path d="M154.991 168.87H141.121V182.74H154.991V168.87Z" fill="#2A2B42"/>
<path d="M154.991 141.128H141.121V154.998H154.991V141.128Z" fill="#2A2B42"/>
<path d="M99.541 99.5047V113.375H113.411V99.5047H99.541Z" fill="#2A2B42"/>
<path d="M113.396 113.419V127.289H127.266V113.419H113.396Z" fill="#2A2B42"/>
<path d="M85.6709 113.373V127.243H99.5408V113.373H85.6709Z" fill="#2A2B42"/>
<path d="M113.396 127.29V141.16H127.266V127.29H113.396Z" fill="#2A2B42"/>
<path d="M85.6562 127.274V141.144H99.5261V127.274H85.6562Z" fill="#2A2B42"/>
<path d="M71.801 155.014H85.6709V141.144H71.801V155.014Z" fill="#2A2B42"/>
<path d="M44.1096 168.87H57.9795V155H44.1096V168.87Z" fill="#2A2B42"/>
<path d="M57.9465 182.74H71.8164V168.87H57.9465V182.74Z" fill="#2A2B42"/>
<path d="M57.9465 155.014H71.8164V141.144H57.9465V155.014Z" fill="#2A2B42"/>
<path d="M113.41 210.478H99.5404L99.5101 182.738H85.6402L85.6554 168.868H57.9609V154.998H85.6554L85.6705 141.143H99.5404V113.388H113.41L113.395 141.143L127.235 141.128V154.998H154.99V168.868H127.235L127.25 182.738H113.38L113.41 210.478Z" fill="white"/>
<path d="M99.5257 141.144H85.6709V154.998H99.5257V141.144Z" fill="#FEE17B"/>
<path d="M113.411 155.031H99.5566V168.885H113.411V155.031Z" fill="#FFF8EF"/>
<path d="M99.511 155.031H85.6562V168.885H99.511V155.031Z" fill="#FFF0C5"/>
<path d="M85.6419 155.031H71.7871V168.885H85.6419V155.031Z" fill="#FEE17B"/>
<path d="M127.312 155.031H113.457V168.885H127.312V155.031Z" fill="#FFF0C5"/>
<path d="M141.212 155.031H127.357V168.885H141.212V155.031Z" fill="#FEE17B"/>
<path d="M113.366 141.129H99.5107V154.983H113.366V141.129Z" fill="#FFF0C5"/>
<path d="M113.366 127.243H99.5107V141.098H113.366V127.243Z" fill="#FEE17B"/>
<path d="M113.366 113.436H99.5107V127.29H113.366V113.436Z" fill="#EAC300"/>
<path d="M113.366 196.657H99.5107V210.512H113.366V196.657Z" fill="#EAC300"/>
<path d="M155.067 155.062H141.212V168.916H155.067V155.062Z" fill="#EAC300"/>
<path d="M71.8343 155.062H57.9795V168.916H71.8343V155.062Z" fill="#EAC300"/>
<path d="M113.366 168.916H99.5107V182.771H113.366V168.916Z" fill="#FFF0C5"/>
<path d="M113.366 182.802H99.5107V196.657H113.366V182.802Z" fill="#FEE17B"/>
<path d="M99.5257 168.885H85.6709V182.74H99.5257V168.885Z" fill="#FEE17B"/>
<path d="M127.266 141.144H113.411V154.998H127.266V141.144Z" fill="#FEE17B"/>
<path d="M127.266 168.885H113.411V182.74H127.266V168.885Z" fill="#FEE17B"/>
<path d="M168.862 113.405H182.731V99.5353H168.862V113.405Z" fill="#2A2B42"/>
<path d="M224.296 168.885V155.016H210.426V168.885H224.296Z" fill="#2A2B42"/>
<path d="M210.441 155.014V141.144H196.572V155.014H210.441Z" fill="#2A2B42"/>
<path d="M238.166 155.014V141.144H224.296V155.014H238.166Z" fill="#2A2B42"/>
<path d="M210.441 141.145V127.275H196.571V141.145H210.441Z" fill="#2A2B42"/>
<path d="M238.182 141.145V127.275H224.312V141.145H238.182Z" fill="#2A2B42"/>
<path d="M182.717 127.289H196.587V113.419H182.717V127.289Z" fill="#2A2B42"/>
<path d="M265.891 99.5351H252.021V113.405H265.891V99.5351Z" fill="#2A2B42"/>
<path d="M252.021 113.405H238.151V127.275H252.021V113.405Z" fill="#2A2B42"/>
<path d="M252.021 85.665H238.151V99.5349H252.021V85.665Z" fill="#2A2B42"/>
<path d="M210.441 44.0549V57.9248H224.311V44.0549H210.441Z" fill="#2A2B42"/>
<path d="M224.312 57.9538V71.8237H238.181V57.9538H224.312Z" fill="#2A2B42"/>
<path d="M196.587 57.925V71.7949H210.457V57.925H196.587Z" fill="#2A2B42"/>
<path d="M224.312 71.8269V85.6969H238.181V71.8269H224.312Z" fill="#2A2B42"/>
<path d="M196.571 71.827V85.6969H210.441V71.827H196.571Z" fill="#2A2B42"/>
<path d="M182.717 99.5503H196.587V85.6804H182.717V99.5503Z" fill="#2A2B42"/>
<path d="M210.5 85.6934H196.646V99.5482H210.5V85.6934Z" fill="#FEE17B"/>
<path d="M224.386 99.5804H210.531V113.435H224.386V99.5804Z" fill="#FFF8EF"/>
<path d="M210.486 99.5804H196.631V113.435H210.486V99.5804Z" fill="#FFF0C5"/>
<path d="M196.616 99.5804H182.762V113.435H196.616V99.5804Z" fill="#FEE17B"/>
<path d="M238.286 99.5804H224.432V113.435H238.286V99.5804Z" fill="#FFF0C5"/>
<path d="M252.187 99.5804H238.332V113.435H252.187V99.5804Z" fill="#FEE17B"/>
<path d="M224.34 85.6783H210.485V99.5331H224.34V85.6783Z" fill="#FFF0C5"/>
<path d="M224.34 71.793H210.485V85.6478H224.34V71.793Z" fill="#FEE17B"/>
<path d="M224.34 57.9855H210.485V71.8403H224.34V57.9855Z" fill="#EAC300"/>
<path d="M224.34 141.207H210.485V155.062H224.34V141.207Z" fill="#EAC300"/>
<path d="M224.34 113.466H210.485V127.321H224.34V113.466Z" fill="#FFF0C5"/>
<path d="M224.34 127.352H210.485V141.207H224.34V127.352Z" fill="#FEE17B"/>
<path d="M210.5 113.435H196.646V127.29H210.5V113.435Z" fill="#FEE17B"/>
<path d="M238.241 85.6934H224.386V99.5482H238.241V85.6934Z" fill="#FEE17B"/>
<path d="M238.241 113.435H224.386V127.29H238.241V113.435Z" fill="#FEE17B"/>
<path d="M154.989 238.205H168.859V224.335H154.989V238.205Z" fill="#2A2B42"/>
<path d="M196.554 265.945V252.075H182.684V265.945H196.554Z" fill="#2A2B42"/>
<path d="M168.844 252.075H182.714V238.205H168.844V252.075Z" fill="#2A2B42"/>
<path d="M224.294 224.335H210.424V238.205H224.294V224.335Z" fill="#2A2B42"/>
<path d="M210.439 238.205H196.569V252.075H210.439V238.205Z" fill="#2A2B42"/>
<path d="M210.424 210.465H196.554V224.335H210.424V210.465Z" fill="#2A2B42"/>
<path d="M182.699 196.61V210.48H196.569V196.61H182.699Z" fill="#2A2B42"/>
<path d="M168.844 224.335H182.714V210.465H168.844V224.335Z" fill="#2A2B42"/>
<path d="M196.616 224.414H182.762V238.269H196.616V224.414Z" fill="#FFF8EF"/>
<path d="M182.716 224.414H168.861V238.269H182.716V224.414Z" fill="#FFF0C5"/>
<path d="M210.517 224.414H196.662V238.269H210.517V224.414Z" fill="#FFF0C5"/>
<path d="M196.571 210.512H182.716V224.367H196.571V210.512Z" fill="#FFF0C5"/>
<path d="M196.571 238.3H182.716V252.154H196.571V238.3Z" fill="#FFF0C5"/>
</svg>
