<svg width="310" height="310" viewBox="0 0 310 310" fill="none" xmlns="http://www.w3.org/2000/svg">
<rect width="310" height="310" fill="white"/>
<path d="M103.296 58.9362H59.0254V132.831H103.296V58.9362Z" fill="#737373"/>
<path d="M176.97 206.793L176.97 251.064L250.865 251.064L250.865 206.793L176.97 206.793Z" fill="#737373"/>
<path d="M118.053 88.4943H73.7822V118.052H118.053V88.4943Z" fill="#737373"/>
<path d="M221.396 236.285L221.396 192.014L191.837 192.014L191.837 236.285L221.396 236.285Z" fill="#737373"/>
<path d="M179.979 238.216L179.979 206.727L162.324 206.727L162.324 238.216L179.979 238.216Z" fill="#737373"/>
<path d="M162.323 223.437L162.323 191.948L144.668 191.948L144.668 223.437L162.323 223.437Z" fill="#737373"/>
<path d="M147.566 208.658L147.566 177.169L129.912 177.169L129.912 208.658L147.566 208.658Z" fill="#737373"/>
<path d="M132.81 193.879L132.81 162.39L115.155 162.39L115.155 193.879L132.81 193.879Z" fill="#737373"/>
<path d="M118.052 179.1L118.052 147.61L100.397 147.61L100.397 179.1L118.052 179.1Z" fill="#737373"/>
<path d="M103.296 164.321L103.296 132.831L73.7822 132.831L73.7822 164.321L103.296 164.321Z" fill="#737373"/>
<path d="M147.567 162.39H132.81V177.169H147.567V162.39Z" fill="#262739"/>
<path d="M191.837 118.052H177.08V132.832H191.837V118.052Z" fill="#262739"/>
<path d="M221.396 88.4276H206.639V103.207H221.396V88.4276Z" fill="#262739"/>
<path d="M236.153 103.274H221.396V118.053H236.153V103.274Z" fill="#262739"/>
<path d="M265.621 73.7155H250.864V88.4945H265.621V73.7155Z" fill="#262739"/>
<path d="M280.489 88.4276H265.731V103.207H280.489V88.4276Z" fill="#262739"/>
<path d="M280.489 103.207H265.731V117.986H280.489V103.207Z" fill="#262739"/>
<path d="M280.489 117.986H265.731V132.765H280.489V117.986Z" fill="#262739"/>
<path d="M236.153 118.053H221.396V132.832H236.153V118.053Z" fill="#262739"/>
<path d="M191.727 73.6486H176.97V88.4276H191.727V73.6486Z" fill="#262739"/>
<path d="M206.484 73.7152H191.727V88.4942H206.484V73.7152Z" fill="#262739"/>
<path d="M235.953 44.1571H221.195V58.9361H235.953V44.1571Z" fill="#262739"/>
<path d="M221.196 29.3781H206.438V44.1571H221.196V29.3781Z" fill="#262739"/>
<path d="M191.682 29.3781H176.925V44.1571H191.682V29.3781Z" fill="#262739"/>
<path d="M206.439 29.3781H191.682V44.1571H206.439V29.3781Z" fill="#262739"/>
<path d="M221.351 88.4943H206.594V103.273H221.351V88.4943Z" fill="#262739"/>
<path d="M250.82 58.9362H236.062V73.7152H250.82V58.9362Z" fill="#262739"/>
<path d="M118.053 191.948H103.296V206.727H118.053V191.948Z" fill="#262739"/>
<path d="M162.324 177.169H147.566V191.948H162.324V177.169Z" fill="#262739"/>
<path d="M132.81 206.727H118.053V221.506H132.81V206.727Z" fill="#262739"/>
<path d="M177.08 191.948H162.323V206.727H177.08V191.948Z" fill="#262739"/>
<path d="M147.567 221.506H132.81V236.285H147.567V221.506Z" fill="#262739"/>
<path d="M191.837 177.169H177.08V191.948H191.837V177.169Z" fill="#262739"/>
<path d="M206.594 177.169H191.837V191.948H206.594V177.169Z" fill="#262739"/>
<path d="M221.351 177.169H206.594V191.948H221.351V177.169Z" fill="#262739"/>
<path d="M236.108 191.948H221.351V206.727H236.108V191.948Z" fill="#262739"/>
<path d="M250.865 191.948H236.107V206.727H250.865V191.948Z" fill="#262739"/>
<path d="M265.621 206.727H250.864V221.506H265.621V206.727Z" fill="#262739"/>
<path d="M265.621 221.506H250.864V236.285H265.621V221.506Z" fill="#262739"/>
<path d="M265.621 236.285H250.864V251.064H265.621V236.285Z" fill="#262739"/>
<path d="M250.865 251.064H236.107V265.843H250.865V251.064Z" fill="#262739"/>
<path d="M236.108 265.843H221.351V280.622H236.108V265.843Z" fill="#262739"/>
<path d="M236.108 251.064H221.351V265.843H236.108V251.064Z" fill="#404040"/>
<path d="M221.351 265.843H206.594V280.622H221.351V265.843Z" fill="#262739"/>
<path d="M221.351 251.064H206.594V265.843H221.351V251.064Z" fill="#404040"/>
<path d="M206.594 265.843H191.837V280.622H206.594V265.843Z" fill="#262739"/>
<path d="M206.594 251.064H191.837V265.843H206.594V251.064Z" fill="#404040"/>
<path d="M177.08 236.285H162.323V251.064H177.08V236.285Z" fill="#525252"/>
<path d="M162.324 221.506H147.566V236.285H162.324V221.506Z" fill="#525252"/>
<path d="M147.567 206.727H132.81V221.506H147.567V206.727Z" fill="#525252"/>
<path d="M132.81 191.948H118.053V206.727H132.81V191.948Z" fill="#525252"/>
<path d="M118.053 177.169H103.296V191.948H118.053V177.169Z" fill="#525252"/>
<path d="M103.296 162.39H88.5391V177.169H103.296V162.39Z" fill="#525252"/>
<path d="M88.5395 147.61H73.7822V162.39H88.5395V147.61Z" fill="#525252"/>
<path d="M73.7826 132.831H59.0254V147.61H73.7826V132.831Z" fill="#525252"/>
<path d="M191.837 251.064H177.08V265.843H191.837V251.064Z" fill="#262739"/>
<path d="M177.08 251.064H162.323V265.843H177.08V251.064Z" fill="#262739"/>
<path d="M162.324 236.285H147.566V251.064H162.324V236.285Z" fill="#262739"/>
<path d="M132.81 147.61H118.053V162.39H132.81V147.61Z" fill="#262739"/>
<path d="M103.296 177.169H88.5391V191.948H103.296V177.169Z" fill="#262739"/>
<path d="M118.053 132.831H103.296V147.61H118.053V132.831Z" fill="#262739"/>
<path d="M88.5395 162.39H73.7822V177.169H88.5395V162.39Z" fill="#262739"/>
<path d="M132.81 118.052H118.053V132.831H132.81V118.052Z" fill="#262739"/>
<path d="M132.81 103.273H118.053V118.052H132.81V103.273Z" fill="#262739"/>
<path d="M132.81 88.4943H118.053V103.273H132.81V88.4943Z" fill="#262739"/>
<path d="M118.053 73.7152H103.296V88.4942H118.053V73.7152Z" fill="#262739"/>
<path d="M118.053 58.9362H103.296V73.7152H118.053V58.9362Z" fill="#262739"/>
<path d="M103.296 44.1571H88.5391V58.9361H103.296V44.1571Z" fill="#262739"/>
<path d="M88.5395 44.1571H73.7822V58.9361H88.5395V44.1571Z" fill="#262739"/>
<path d="M73.7826 44.1571H59.0254V58.9361H73.7826V44.1571Z" fill="#262739"/>
<path d="M59.0258 58.9362H44.2686V73.7152H59.0258V58.9362Z" fill="#262739"/>
<path d="M44.269 73.7152H29.5117V88.4942H44.269V73.7152Z" fill="#262739"/>
<path d="M59.0258 73.7152H44.2686V88.4942H59.0258V73.7152Z" fill="#404040"/>
<path d="M44.269 88.4943H29.5117V103.273H44.269V88.4943Z" fill="#262739"/>
<path d="M59.0258 88.4943H44.2686V103.273H59.0258V88.4943Z" fill="#404040"/>
<path d="M44.269 103.273H29.5117V118.052H44.269V103.273Z" fill="#262739"/>
<path d="M59.0258 103.273H44.2686V118.052H59.0258V103.273Z" fill="#404040"/>
<path d="M191.837 191.948H177.08V206.727H191.837V191.948Z" fill="#404040"/>
<path d="M118.053 118.052H103.296V132.831H118.053V118.052Z" fill="#404040"/>
<path d="M59.0258 118.052H44.2686V132.831H59.0258V118.052Z" fill="#262739"/>
<path d="M59.0258 132.831H44.2686V147.61H59.0258V132.831Z" fill="#262739"/>
<path d="M73.7826 147.61H59.0254V162.39H73.7826V147.61Z" fill="#262739"/>
</svg>
