<svg width="72" height="72" viewBox="0 0 72 72" fill="none" xmlns="http://www.w3.org/2000/svg">
<g clip-path="url(#clip0_574_43)">
<rect width="72" height="72" rx="12" fill="url(#paint0_linear_574_43)"/>
<path d="M53.8734 49.0281L64.0822 59.2797L54.2484 62.3599L50.168 58.9609L53.8734 49.0281Z" fill="url(#paint1_radial_574_43)"/>
<path d="M53.8659 54.2342L53.8743 49.0384L31.1113 48.9999C30.4492 48.9989 29.7934 49.1282 29.1813 49.3807C28.5692 49.6331 28.0129 50.0037 27.5441 50.4712C27.0753 50.9388 26.7032 51.4941 26.449 52.1055C26.1949 52.7168 26.0637 53.3723 26.063 54.0344L25.9999 92.7447C25.9984 93.4069 26.1275 94.0629 26.3798 94.6751C26.6321 95.2874 27.0027 95.8439 27.4703 96.3128C27.9379 96.7817 28.4934 97.1538 29.105 97.4078C29.7165 97.6618 30.3722 97.7927 31.0344 97.793L58.9932 97.8399C59.6553 97.841 60.3111 97.7116 60.9232 97.4591C61.5353 97.2067 62.0916 96.8361 62.5604 96.3686C63.0292 95.9011 63.4014 95.3458 63.6555 94.7344C63.9096 94.123 64.0408 93.4675 64.0415 92.8054L64.0862 59.2911L58.8934 59.2836C58.2317 59.2824 57.5767 59.1508 56.9659 58.8963C56.355 58.6419 55.8003 58.2695 55.3335 57.8006C54.8666 57.3317 54.4967 56.7754 54.2449 56.1634C53.9931 55.5515 53.8643 54.8959 53.8659 54.2342Z" fill="url(#paint2_linear_574_43)"/>
<path d="M64.086 60.4375L58.8976 59.2793L64.0864 59.2887L64.086 60.4375Z" fill="url(#paint3_radial_574_43)"/>
<path d="M43 49V53.4245C43 56.8218 39.0325 58.6724 36.4296 56.4893L28.4206 49.7721C29.1226 49.27 29.9641 49 30.8272 49H43Z" fill="url(#paint4_linear_574_43)"/>
<path d="M9 19C9 17.3431 10.3431 16 12 16H29.3469L48 16C49.6569 16 51 17.3431 51 19V44C51 45.6569 49.6569 47 48 47H40.1734V53.8683C40.1734 54.7156 39.1857 55.1789 38.5342 54.6373L29.3469 47H12C10.3431 47 9 45.6569 9 44V19Z" fill="url(#paint5_radial_574_43)" stroke="url(#paint6_radial_574_43)" stroke-width="2"/>
<circle cx="51" cy="16" r="7" fill="#4F46E5" stroke="white" stroke-width="2"/>
<path d="M50.4111 16.6716C50.4111 16.4925 50.4355 16.3324 50.4844 16.1913C50.5332 16.0502 50.6119 15.9172 50.7205 15.7924C50.8345 15.6676 50.9837 15.54 51.1682 15.4098C51.3311 15.2904 51.4613 15.1845 51.559 15.0923C51.6621 15 51.7354 14.9077 51.7788 14.8155C51.8277 14.7232 51.8521 14.6201 51.8521 14.5061C51.8521 14.3324 51.787 14.2022 51.6567 14.1153C51.5319 14.0231 51.3555 13.9769 51.1275 13.9769C50.8996 13.9769 50.6744 14.0122 50.4518 14.0828C50.2293 14.1533 50.0014 14.2483 49.768 14.3677L49.3365 13.4966C49.6024 13.3501 49.8901 13.2307 50.1995 13.1384C50.5088 13.0461 50.848 13 51.2171 13C51.7815 13 52.2185 13.1357 52.5278 13.4071C52.8426 13.6784 53 14.0231 53 14.441C53 14.6635 52.9647 14.8562 52.8942 15.019C52.8236 15.1818 52.7178 15.3338 52.5767 15.4749C52.4355 15.6106 52.2592 15.7571 52.0475 15.9145C51.8901 16.0285 51.768 16.1262 51.6811 16.2076C51.5943 16.289 51.5346 16.3677 51.502 16.4437C51.4749 16.5197 51.4613 16.6147 51.4613 16.7286V16.9647H50.4111V16.6716ZM50.2809 18.3243C50.2809 18.0746 50.3487 17.9009 50.4844 17.8033C50.6201 17.7001 50.7856 17.6486 50.981 17.6486C51.171 17.6486 51.3338 17.7001 51.4695 17.8033C51.6052 17.9009 51.673 18.0746 51.673 18.3243C51.673 18.5631 51.6052 18.7368 51.4695 18.8453C51.3338 18.9484 51.171 19 50.981 19C50.7856 19 50.6201 18.9484 50.4844 18.8453C50.3487 18.7368 50.2809 18.5631 50.2809 18.3243Z" fill="white"/>
<path d="M17.141 23.3077C17.141 24.0299 16.5556 24.6154 15.8333 24.6154C15.1111 24.6154 14.5256 24.0299 14.5256 23.3077C14.5256 22.5855 15.1111 22 15.8333 22C16.5556 22 17.141 22.5855 17.141 23.3077Z" fill="#80A1FF"/>
<path d="M17.141 39.6922C17.141 40.4144 16.5556 40.9999 15.8333 40.9999C15.1111 40.9999 14.5256 40.4144 14.5256 39.6922C14.5256 38.97 15.1111 38.3845 15.8333 38.3845C16.5556 38.3845 17.141 38.97 17.141 39.6922Z" fill="#80A1FF"/>
<path d="M34.1411 23.3077C34.1411 24.0299 33.5557 24.6154 32.8335 24.6154C32.1112 24.6154 31.5258 24.0299 31.5258 23.3077C31.5258 22.5855 32.1112 22 32.8335 22C33.5557 22 34.1411 22.5855 34.1411 23.3077Z" fill="#80A1FF"/>
<path d="M34.1411 39.6922C34.1411 40.4144 33.5557 40.9999 32.8335 40.9999C32.1112 40.9999 31.5258 40.4144 31.5258 39.6922C31.5258 38.97 32.1112 38.3845 32.8335 38.3845C33.5557 38.3845 34.1411 38.97 34.1411 39.6922Z" fill="#80A1FF"/>
<path d="M28.4743 28.9744C28.4743 29.6967 27.8888 30.2821 27.1666 30.2821C26.4444 30.2821 25.8589 29.6967 25.8589 28.9744C25.8589 28.2522 26.4444 27.6667 27.1666 27.6667C27.8888 27.6667 28.4743 28.2522 28.4743 28.9744Z" fill="#80A1FF"/>
<path d="M45.4744 28.9744C45.4744 29.6967 44.8889 30.2821 44.1667 30.2821C43.4445 30.2821 42.859 29.6967 42.859 28.9744C42.859 28.2522 43.4445 27.6667 44.1667 27.6667C44.8889 27.6667 45.4744 28.2522 45.4744 28.9744Z" fill="#80A1FF"/>
<path d="M22.8078 34.2052C22.8078 34.9274 22.2223 35.5129 21.5001 35.5129C20.7779 35.5129 20.1924 34.9274 20.1924 34.2052C20.1924 33.4829 20.7779 32.8975 21.5001 32.8975C22.2223 32.8975 22.8078 33.4829 22.8078 34.2052Z" fill="#80A1FF"/>
<path d="M39.8078 34.2052C39.8078 34.9274 39.2223 35.5129 38.5001 35.5129C37.7779 35.5129 37.1924 34.9274 37.1924 34.2052C37.1924 33.4829 37.7779 32.8975 38.5001 32.8975C39.2223 32.8975 39.8078 33.4829 39.8078 34.2052Z" fill="#80A1FF"/>
<circle cx="21.5001" cy="23.3077" r="1.3077" fill="#A9BEFD"/>
<circle cx="21.5001" cy="39.6922" r="1.3077" fill="#A9BEFD"/>
<circle cx="38.5001" cy="23.3077" r="1.3077" fill="#A9BEFD"/>
<circle cx="38.5001" cy="39.6922" r="1.3077" fill="#A9BEFD"/>
<circle cx="15.8333" cy="28.9744" r="1.3077" fill="#A9BEFD"/>
<circle cx="32.8335" cy="28.9744" r="1.3077" fill="#A9BEFD"/>
<circle cx="15.8333" cy="34.2052" r="1.3077" fill="#A9BEFD"/>
<circle cx="32.8335" cy="34.2052" r="1.3077" fill="#A9BEFD"/>
<path d="M28.4743 23.3077C28.4743 24.0299 27.8888 24.6154 27.1666 24.6154C26.4444 24.6154 25.8589 24.0299 25.8589 23.3077C25.8589 22.5855 26.4444 22 27.1666 22C27.8888 22 28.4743 22.5855 28.4743 23.3077Z" fill="#4B79FE"/>
<path d="M28.4743 39.6922C28.4743 40.4144 27.8888 40.9999 27.1666 40.9999C26.4444 40.9999 25.8589 40.4144 25.8589 39.6922C25.8589 38.97 26.4444 38.3845 27.1666 38.3845C27.8888 38.3845 28.4743 38.97 28.4743 39.6922Z" fill="#4B79FE"/>
<path d="M45.4744 39.6922C45.4744 40.4144 44.8889 40.9999 44.1667 40.9999C43.4445 40.9999 42.859 40.4144 42.859 39.6922C42.859 38.97 43.4445 38.3845 44.1667 38.3845C44.8889 38.3845 45.4744 38.97 45.4744 39.6922Z" fill="#4B79FE"/>
<path d="M22.8078 28.9744C22.8078 29.6967 22.2223 30.2821 21.5001 30.2821C20.7779 30.2821 20.1924 29.6967 20.1924 28.9744C20.1924 28.2522 20.7779 27.6667 21.5001 27.6667C22.2223 27.6667 22.8078 28.2522 22.8078 28.9744Z" fill="#4B79FE"/>
<path d="M39.8078 28.9744C39.8078 29.6967 39.2223 30.2821 38.5001 30.2821C37.7779 30.2821 37.1924 29.6967 37.1924 28.9744C37.1924 28.2522 37.7779 27.6667 38.5001 27.6667C39.2223 27.6667 39.8078 28.2522 39.8078 28.9744Z" fill="#4B79FE"/>
<path d="M28.4743 34.2052C28.4743 34.9274 27.8888 35.5129 27.1666 35.5129C26.4444 35.5129 25.8589 34.9274 25.8589 34.2052C25.8589 33.4829 26.4444 32.8975 27.1666 32.8975C27.8888 32.8975 28.4743 33.4829 28.4743 34.2052Z" fill="#4B79FE"/>
<path d="M45.4744 34.2052C45.4744 34.9274 44.8889 35.5129 44.1667 35.5129C43.4445 35.5129 42.859 34.9274 42.859 34.2052C42.859 33.4829 43.4445 32.8975 44.1667 32.8975C44.8889 32.8975 45.4744 33.4829 45.4744 34.2052Z" fill="#4B79FE"/>
<path d="M66.8212 41.31C67.0598 41.1722 67.0598 40.8278 66.8212 40.6907L64.6789 39.4542C64.2088 39.1827 63.8181 38.792 63.5466 38.322L62.3101 36.1789C62.1723 35.9404 61.828 35.9404 61.6908 36.1789L60.4543 38.3212C60.1828 38.7913 59.7921 39.182 59.3221 39.4535L57.179 40.6907C56.9405 40.8286 56.9405 41.1729 57.179 41.31L59.3213 42.5465C59.7914 42.818 60.1821 43.2087 60.4536 43.6788L61.6901 45.8211C61.828 46.0596 62.1723 46.0596 62.3094 45.8211L63.5459 43.6788C63.8174 43.2087 64.2081 42.818 64.6782 42.5465L66.8212 41.31Z" fill="white"/>
<rect x="13.1213" y="57" width="3" height="3" transform="rotate(45 13.1213 57)" fill="white"/>
<rect x="36.1213" y="6" width="3" height="3" transform="rotate(45 36.1213 6)" fill="white"/>
<rect x="32" y="60" width="18" height="2" rx="1" fill="#7E9FFE"/>
<rect x="32" y="65" width="26" height="2" rx="1" fill="#7E9FFE"/>
</g>
<defs>
<linearGradient id="paint0_linear_574_43" x1="36" y1="0" x2="36" y2="72" gradientUnits="userSpaceOnUse">
<stop stop-color="#BF67F5"/>
<stop offset="1" stop-color="#A205FF"/>
</linearGradient>
<radialGradient id="paint1_radial_574_43" cx="0" cy="0" r="1" gradientUnits="userSpaceOnUse" gradientTransform="translate(55.2165 58.4291) rotate(-48.1844) scale(7.80488 8.28101)">
<stop offset="0.270028" stop-color="white"/>
<stop offset="1" stop-color="#F1F5F9"/>
</radialGradient>
<linearGradient id="paint2_linear_574_43" x1="53.5389" y1="48.4372" x2="37.0907" y2="99.5045" gradientUnits="userSpaceOnUse">
<stop stop-color="#E8EEFF"/>
<stop offset="1" stop-color="white"/>
</linearGradient>
<radialGradient id="paint3_radial_574_43" cx="0" cy="0" r="1" gradientUnits="userSpaceOnUse" gradientTransform="translate(62.5741 57.6747) rotate(90.7504) scale(4.31148 14.4292)">
<stop stop-color="#697087"/>
<stop offset="0.540492" stop-color="#697087" stop-opacity="0"/>
</radialGradient>
<linearGradient id="paint4_linear_574_43" x1="35.5001" y1="40" x2="35.5001" y2="54.5" gradientUnits="userSpaceOnUse">
<stop stop-color="#1854FF"/>
<stop offset="1" stop-color="#1854FF" stop-opacity="0"/>
</linearGradient>
<radialGradient id="paint5_radial_574_43" cx="0" cy="0" r="1" gradientUnits="userSpaceOnUse" gradientTransform="translate(37 16) rotate(99.9262) scale(40.6079 42.6383)">
<stop stop-color="#CBD8FF"/>
<stop offset="1" stop-color="#EFF6FF"/>
</radialGradient>
<radialGradient id="paint6_radial_574_43" cx="0" cy="0" r="1" gradientUnits="userSpaceOnUse" gradientTransform="translate(51 16) rotate(133.152) scale(21.9317 23.0283)">
<stop stop-color="#CBD8FF"/>
<stop offset="0.705948" stop-color="white"/>
</radialGradient>
<clipPath id="clip0_574_43">
<rect width="72" height="72" rx="12" fill="white"/>
</clipPath>
</defs>
</svg>
