<svg width="310" height="310" viewBox="0 0 310 310" fill="none" xmlns="http://www.w3.org/2000/svg">
<rect width="310" height="310" fill="white"/>
<path d="M112.848 274.431L112.848 288.482L126.898 288.482L126.898 274.431L112.848 274.431Z" fill="#262739"/>
<path d="M140.949 274.431L140.949 288.482L155 288.482L155 274.431L140.949 274.431Z" fill="#262739"/>
<path d="M126.898 274.431L126.898 288.482L140.949 288.482L140.949 274.431L126.898 274.431Z" fill="#262739"/>
<path d="M155 260.381L155 274.431L169.051 274.431L169.051 260.381L155 260.381Z" fill="#262739"/>
<path d="M70.6953 246.33L70.6953 260.381L84.7461 260.381L84.7461 246.33L70.6953 246.33Z" fill="#262739"/>
<path d="M56.6445 190.127L56.6445 204.177L70.6953 204.177L70.6953 190.127L56.6445 190.127Z" fill="#262739"/>
<path d="M70.6953 218.228L70.6953 232.279L84.7461 232.279L84.7461 218.228L70.6953 218.228Z" fill="#262739"/>
<path d="M239.305 176.076L239.305 190.127L253.355 190.127L253.355 176.076L239.305 176.076Z" fill="#262739"/>
<path d="M239.305 119.873L239.305 133.923L253.355 133.923L253.355 119.873L239.305 119.873Z" fill="#262739"/>
<path d="M239.305 162.025L239.305 176.076L253.355 176.076L253.355 162.025L239.305 162.025Z" fill="#262739"/>
<path d="M225.254 105.822L225.254 119.873L239.305 119.873L239.305 105.822L225.254 105.822Z" fill="#262739"/>
<path d="M225.254 63.6696L225.254 77.7203L239.305 77.7203L239.305 63.6696L225.254 63.6696Z" fill="#262739"/>
<path d="M239.305 147.974L239.305 162.025L253.355 162.025L253.355 147.974L239.305 147.974Z" fill="#262739"/>
<path d="M225.254 91.7711L225.254 105.822L239.305 105.822L239.305 91.7711L225.254 91.7711Z" fill="#262739"/>
<path d="M211.203 49.6188L211.203 63.6696L225.254 63.6696L225.254 49.6188L211.203 49.6188Z" fill="#262739"/>
<path d="M239.305 133.924L239.305 147.974L253.355 147.974L253.355 133.924L239.305 133.924Z" fill="#262739"/>
<path d="M225.254 77.7203L225.254 91.7711L239.305 91.7711L239.305 77.7203L225.254 77.7203Z" fill="#262739"/>
<path d="M197.152 35.568L197.152 49.6188L211.203 49.6188L211.203 35.568L197.152 35.568Z" fill="#262739"/>
<path d="M166.587 21.5178L166.587 35.5686L197.152 35.5686L197.152 21.5178L166.587 21.5178Z" fill="#262739"/>
<path d="M56.6445 162.025L56.6445 176.076L70.6953 176.076L70.6953 162.025L56.6445 162.025Z" fill="#262739"/>
<path d="M70.6953 232.279L70.6953 246.33L84.7461 246.33L84.7461 232.279L70.6953 232.279Z" fill="#262739"/>
<path d="M253.355 190.127L253.355 204.177L267.406 204.177L267.406 190.127L253.355 190.127Z" fill="#262739"/>
<path d="M56.6445 176.076L56.6445 190.127L70.6953 190.127L70.6953 176.076L56.6445 176.076Z" fill="#262739"/>
<path d="M56.6445 204.177L56.6445 218.228L70.6953 218.228L70.6953 204.177L56.6445 204.177Z" fill="#262739"/>
<path d="M42.5937 147.974L42.5938 162.025L56.6445 162.025L56.6445 147.974L42.5937 147.974Z" fill="#262739"/>
<path d="M56.6445 147.974L56.6445 162.025L70.6953 162.025L70.6953 147.974L56.6445 147.974Z" fill="#928F9A"/>
<path d="M70.6953 147.974L70.6953 162.025L84.7461 162.025L84.7461 147.974L70.6953 147.974Z" fill="#C8C5D0"/>
<path d="M84.7461 147.974L84.7461 162.025L98.7969 162.025L98.7969 147.974L84.7461 147.974Z" fill="white"/>
<path d="M98.7969 204.177L98.7969 218.228L112.848 218.228L112.848 204.177L98.7969 204.177Z" fill="white"/>
<path d="M112.848 246.33L112.848 260.38L126.898 260.38L126.898 246.33L112.848 246.33Z" fill="white"/>
<path d="M126.898 260.38L126.898 274.431L155 274.431L155 260.38L126.898 260.38Z" fill="white"/>
<path d="M70.6953 204.177L70.6953 218.228L84.7461 218.228L84.7461 204.177L70.6953 204.177Z" fill="#928F9A"/>
<path d="M84.7461 204.177L84.7461 218.228L98.7969 218.228L98.7969 204.177L84.7461 204.177Z" fill="#C8C5D0"/>
<path d="M84.7461 246.33L84.7461 260.381L98.7969 260.381L98.7969 246.33L84.7461 246.33Z" fill="#928F9A"/>
<path d="M98.7969 246.33L98.7969 260.381L112.848 260.381L112.848 246.33L98.7969 246.33Z" fill="#C8C5D0"/>
<path d="M98.7969 260.381L98.7969 274.431L112.848 274.431L112.848 260.381L98.7969 260.381Z" fill="#928F9A"/>
<path d="M112.848 260.381L112.848 274.431L126.898 274.431L126.898 260.381L112.848 260.381Z" fill="#C8C5D0"/>
<path d="M42.5937 119.873L42.5938 133.924L56.6445 133.924L56.6445 119.873L42.5937 119.873Z" fill="#262739"/>
<path d="M56.6445 119.873L56.6445 133.924L70.6953 133.924L70.6953 119.873L56.6445 119.873Z" fill="#928F9A"/>
<path d="M70.6953 119.873L70.6953 133.924L84.7461 133.924L84.7461 119.873L70.6953 119.873Z" fill="#C8C5D0"/>
<path d="M84.7461 119.873L84.7461 133.924L239.305 133.924L239.305 119.873L84.7461 119.873Z" fill="white"/>
<path d="M98.7969 176.076L98.7969 190.126L239.305 190.126L239.305 176.076L98.7969 176.076Z" fill="white"/>
<path d="M112.848 218.228L112.848 232.279L126.898 232.279L126.898 218.228L112.848 218.228Z" fill="white"/>
<path d="M126.898 232.279L126.898 246.33L239.305 246.33L239.305 232.279L126.898 232.279Z" fill="white"/>
<path d="M70.6953 176.076L70.6953 190.127L84.7461 190.127L84.7461 176.076L70.6953 176.076Z" fill="#928F9A"/>
<path d="M84.7461 176.076L84.7461 190.127L98.7969 190.127L98.7969 176.076L84.7461 176.076Z" fill="#C8C5D0"/>
<path d="M84.7461 218.228L84.7461 232.279L98.7969 232.279L98.7969 218.228L84.7461 218.228Z" fill="#928F9A"/>
<path d="M98.7969 218.228L98.7969 232.279L112.848 232.279L112.848 218.228L98.7969 218.228Z" fill="#C8C5D0"/>
<path d="M42.5937 133.924L42.5938 147.974L56.6445 147.974L56.6445 133.924L42.5937 133.924Z" fill="#262739"/>
<path d="M56.6445 133.924L56.6445 147.974L70.6953 147.974L70.6953 133.924L56.6445 133.924Z" fill="#928F9A"/>
<path d="M70.6953 133.924L70.6953 147.974L84.7461 147.974L84.7461 133.924L70.6953 133.924Z" fill="#C8C5D0"/>
<path d="M84.7461 133.924L84.7461 147.974L239.305 147.974L239.305 133.924L84.7461 133.924Z" fill="white"/>
<path d="M98.7969 190.126L98.7969 204.177L112.848 204.177L112.848 190.126L98.7969 190.126Z" fill="white"/>
<path d="M112.848 232.279L112.848 246.33L126.898 246.33L126.898 232.279L112.848 232.279Z" fill="white"/>
<path d="M126.898 246.33L126.898 260.38L197.152 260.38L197.152 246.33L126.898 246.33Z" fill="white"/>
<path d="M70.6953 190.127L70.6953 204.177L84.7461 204.177L84.7461 190.127L70.6953 190.127Z" fill="#928F9A"/>
<path d="M84.7461 190.127L84.7461 204.177L98.7969 204.177L98.7969 190.127L84.7461 190.127Z" fill="#C8C5D0"/>
<path d="M84.7461 232.279L84.7461 246.33L98.7969 246.33L98.7969 232.279L84.7461 232.279Z" fill="#928F9A"/>
<path d="M98.7969 232.279L98.7969 246.33L112.848 246.33L112.848 232.279L98.7969 232.279Z" fill="#C8C5D0"/>
<path d="M42.5937 105.822L42.5938 119.873L56.6445 119.873L56.6445 105.822L42.5937 105.822Z" fill="#262739"/>
<path d="M56.6445 105.822L56.6445 119.873L70.6953 119.873L70.6953 105.822L56.6445 105.822Z" fill="#928F9A"/>
<path d="M70.6953 105.822L70.6953 119.873L84.7461 119.873L84.7461 105.822L70.6953 105.822Z" fill="#C8C5D0"/>
<path d="M84.7461 105.822L84.7461 119.873L225.254 119.873L225.254 105.822L84.7461 105.822Z" fill="white"/>
<path d="M98.7969 162.025L98.7969 176.076L239.305 176.076L239.305 162.025L98.7969 162.025Z" fill="white"/>
<path d="M112.848 204.177L112.848 218.228L126.898 218.228L126.898 204.177L112.848 204.177Z" fill="white"/>
<path d="M126.898 218.228L126.898 232.279L253.355 232.279L253.355 218.228L126.898 218.228Z" fill="white"/>
<path d="M70.6953 162.025L70.6953 176.076L84.7461 176.076L84.7461 162.025L70.6953 162.025Z" fill="#928F9A"/>
<path d="M84.7461 162.025L84.7461 176.076L98.7969 176.076L98.7969 162.025L84.7461 162.025Z" fill="#C8C5D0"/>
<path d="M42.5937 91.7712L42.5938 105.822L56.6445 105.822L56.6445 91.7712L42.5937 91.7712Z" fill="#262739"/>
<path d="M56.6445 91.7712L56.6445 105.822L70.6953 105.822L70.6953 91.7712L56.6445 91.7712Z" fill="#928F9A"/>
<path d="M70.6953 77.7203L70.6953 91.7711L84.7461 91.7711L84.7461 77.7203L70.6953 77.7203Z" fill="#928F9A"/>
<path d="M70.6953 91.7712L70.6953 105.822L84.7461 105.822L84.7461 91.7712L70.6953 91.7712Z" fill="#C8C5D0"/>
<path d="M84.7461 91.7712L84.7461 105.822L225.254 105.822L225.254 91.7712L84.7461 91.7712Z" fill="white"/>
<path d="M152.536 63.6694L152.536 93.9238L225.254 93.9238L225.254 63.6694L152.536 63.6694Z" fill="white"/>
<path d="M197.152 49.6186L197.152 79.873L211.203 79.873L211.203 49.6186L197.152 49.6186Z" fill="white"/>
<path d="M112.026 77.7202L112.026 107.975L159.6 107.975L159.6 77.7202L112.026 77.7202Z" fill="white"/>
<path d="M98.7969 147.974L98.7969 162.025L239.305 162.025L239.305 147.974L98.7969 147.974Z" fill="white"/>
<path d="M112.848 190.126L112.848 204.177L253.355 204.177L253.355 190.126L112.848 190.126Z" fill="white"/>
<path d="M126.898 204.177L126.898 218.228L253.355 218.228L253.355 204.177L126.898 204.177Z" fill="white"/>
<path d="M84.7461 77.7205L84.7461 91.7712L112.026 91.7712L112.026 77.7205L84.7461 77.7205Z" fill="#C8C5D0"/>
<path d="M126.077 63.6697L126.077 77.7205L151.89 77.7205L151.89 63.6697L126.077 63.6697Z" fill="#C8C5D0"/>
<path d="M166.587 48.7466L166.587 63.6697L194.688 63.6697L194.688 48.7466L166.587 48.7466Z" fill="#C8C5D0"/>
<path d="M56.6445 77.7203L56.6445 91.7711L70.6953 91.7711L70.6953 77.7203L56.6445 77.7203Z" fill="#262739"/>
<path d="M70.6953 63.6696L70.6953 77.7203L84.7461 77.7203L84.7461 63.6696L70.6953 63.6696Z" fill="#262739"/>
<path d="M84.7461 63.6696L84.7461 77.7203L98.7969 77.7203L98.7969 63.6696L84.7461 63.6696Z" fill="#262739"/>
<path d="M84.7461 49.6189L84.7461 63.6697L112.848 63.6697L112.848 49.6189L84.7461 49.6189Z" fill="#262739"/>
<path d="M112.026 63.6694L112.026 77.7202L126.077 77.7202L126.077 63.6694L112.026 63.6694Z" fill="#262739"/>
<path d="M112.026 49.6188L112.026 63.6696L126.077 63.6696L126.077 49.6188L112.026 49.6188Z" fill="#262739"/>
<path d="M126.077 35.568L126.077 49.6188L152.536 49.6188L152.536 35.568L126.077 35.568Z" fill="#262739"/>
<path d="M152.536 63.6697L166.587 63.6697L166.587 35.568L152.536 35.568L152.536 63.6697Z" fill="#262739"/>
<path d="M84.7461 260.381L84.7461 274.431L98.7969 274.431L98.7969 260.381L84.7461 260.381Z" fill="#262739"/>
<path d="M197.152 246.33L197.152 260.381L211.203 260.381L211.203 246.33L197.152 246.33Z" fill="#262739"/>
<path d="M239.305 232.279L239.305 246.33L253.355 246.33L253.355 232.279L239.305 232.279Z" fill="#262739"/>
<path d="M169.051 260.381L169.051 274.431L183.102 274.431L183.102 260.381L169.051 260.381Z" fill="#262739"/>
<path d="M98.7969 274.431L98.7969 288.482L112.848 288.482L112.848 274.431L98.7969 274.431Z" fill="#262739"/>
<path d="M211.203 246.33L211.203 260.381L225.254 260.381L225.254 246.33L211.203 246.33Z" fill="#262739"/>
<path d="M253.355 218.228L253.355 232.279L267.406 232.279L267.406 218.228L253.355 218.228Z" fill="#262739"/>
<path d="M183.102 260.381L183.102 274.431L197.152 274.431L197.152 260.381L183.102 260.381Z" fill="#262739"/>
<path d="M225.254 246.33L225.254 260.381L239.305 260.381L239.305 246.33L225.254 246.33Z" fill="#262739"/>
<path d="M253.355 204.177L253.355 218.228L267.406 218.228L267.406 204.177L253.355 204.177Z" fill="#262739"/>
<path d="M112.027 63.6696H99.6182V91.7711H112.027V63.6696Z" fill="#DE3730"/>
<path d="M152.537 49.6187H140.128V77.7202H152.537V49.6187Z" fill="#DE3730"/>
<path d="M197.152 35.5687H182.799V63.6697H197.152V35.5687Z" fill="#DE3730"/>
<path d="M99.6186 63.6696H85.5674V77.7205H99.6186V63.6696Z" fill="#BA1A1A"/>
<path d="M140.128 49.6187H126.077V63.6696H140.128V49.6187Z" fill="#BA1A1A"/>
<path d="M183.324 35.5686H166.587V49.6195H183.324V35.5686Z" fill="#BA1A1A"/>
<path d="M112.848 119.873L112.848 133.923L126.898 133.923L126.898 119.873L112.848 119.873Z" fill="#928F9A"/>
<path d="M112.848 119.873L112.848 133.923L126.898 133.923L126.898 119.873L112.848 119.873Z" fill="#928F9A"/>
<path d="M126.077 163.101L126.077 177.152L140.128 177.152L140.128 163.101L126.077 163.101Z" fill="#928F9A"/>
<path d="M141.172 205.253L141.172 219.304L155.223 219.304L155.223 205.253L141.172 205.253Z" fill="#928F9A"/>
<path d="M155 105.822L155 119.873L169.051 119.873L169.051 105.822L155 105.822Z" fill="#928F9A"/>
<path d="M155 105.822L155 119.873L169.051 119.873L169.051 105.822L155 105.822Z" fill="#928F9A"/>
<path d="M168.229 149.051L168.229 163.101L182.28 163.101L182.28 149.051L168.229 149.051Z" fill="#928F9A"/>
<path d="M183.324 191.202L183.324 205.253L197.375 205.253L197.375 191.202L183.324 191.202Z" fill="#928F9A"/>
<path d="M126.898 119.873L126.898 133.923L140.949 133.923L140.949 119.873L126.898 119.873Z" fill="#928F9A"/>
<path d="M126.898 119.873L126.898 133.923L140.949 133.923L140.949 119.873L126.898 119.873Z" fill="#928F9A"/>
<path d="M140.128 163.101L140.128 177.152L154.179 177.152L154.179 163.101L140.128 163.101Z" fill="#928F9A"/>
<path d="M155.223 205.253L155.223 219.304L169.273 219.304L169.273 205.253L155.223 205.253Z" fill="#928F9A"/>
<path d="M169.051 105.822L169.051 119.873L183.102 119.873L183.102 105.822L169.051 105.822Z" fill="#928F9A"/>
<path d="M169.051 105.822L169.051 119.873L183.102 119.873L183.102 105.822L169.051 105.822Z" fill="#928F9A"/>
<path d="M182.28 149.051L182.28 163.101L196.331 163.101L196.331 149.051L182.28 149.051Z" fill="#928F9A"/>
<path d="M197.375 191.202L197.375 205.253L211.426 205.253L211.426 191.202L197.375 191.202Z" fill="#928F9A"/>
<path d="M140.949 119.873L140.949 133.923L155 133.923L155 119.873L140.949 119.873Z" fill="#928F9A"/>
<path d="M140.949 119.873L140.949 133.923L155 133.923L155 119.873L140.949 119.873Z" fill="#928F9A"/>
<path d="M154.179 163.101L154.179 177.152L168.229 177.152L168.229 163.101L154.179 163.101Z" fill="#928F9A"/>
<path d="M169.273 205.253L169.273 219.304L183.324 219.304L183.324 205.253L169.273 205.253Z" fill="#928F9A"/>
<path d="M183.102 105.822L183.102 119.873L197.152 119.873L197.152 105.822L183.102 105.822Z" fill="#928F9A"/>
<path d="M183.102 105.822L183.102 119.873L197.152 119.873L197.152 105.822L183.102 105.822Z" fill="#928F9A"/>
<path d="M196.331 149.051L196.331 163.101L210.382 163.101L210.382 149.051L196.331 149.051Z" fill="#928F9A"/>
<path d="M211.426 191.202L211.426 205.253L225.477 205.253L225.477 191.202L211.426 191.202Z" fill="#928F9A"/>
</svg>
