<svg width="72" height="72" viewBox="0 0 72 72" fill="none" xmlns="http://www.w3.org/2000/svg">
<g clip-path="url(#clip0_577_376)">
<rect width="72" height="72" rx="12" fill="url(#paint0_linear_577_376)"/>
<path d="M35.1569 29.8426L36.577 26.7668C36.7697 26.3495 36.5878 25.8547 36.1701 25.6618L36.0353 25.5996C36.0301 25.1794 35.7887 24.7794 35.3817 24.5915L21.7515 18.2985L21.9892 17.7838C22.1767 17.3776 21.9996 16.8965 21.5933 16.709L19.0326 15.5267C18.6264 15.3391 18.1453 15.5163 17.9578 15.9225L17.7202 16.4372L13.6876 14.5754C13.1237 14.315 12.4551 14.5612 12.1948 15.1251L12.0945 15.3424C11.7384 15.2118 11.3357 15.3737 11.1739 15.7242L-4.06477 48.7298C-4.22659 49.0803 -4.08905 49.4916 -3.7583 49.6782L-3.915 50.0176C-4.17536 50.5815 -3.92915 51.2501 -3.36523 51.5104L18.3292 61.5267C18.766 61.7284 19.2648 61.6261 19.5889 61.3084L19.6909 61.3555C20.1082 61.5481 20.603 61.3662 20.7958 60.9485L32.0041 36.6723C32.1678 36.671 32.3239 36.5777 32.397 36.4193L35.2197 30.3056C35.2929 30.1471 35.2626 29.9678 35.1575 29.8424L35.1569 29.8426Z" fill="url(#paint1_linear_577_376)"/>
<path d="M35.157 29.8427L36.5771 26.7669C36.7697 26.3496 36.5878 25.8548 36.1701 25.6619L36.0353 25.5997C36.0302 25.1795 35.7887 24.7795 35.3817 24.5916L31.8616 22.9663L14.8087 59.9014L18.3289 61.5266C18.7657 61.7283 19.2645 61.626 19.5886 61.3083L19.6905 61.3554C20.1078 61.548 20.6027 61.3661 20.7955 60.9484L32.0038 36.6722C32.1674 36.6709 32.3235 36.5776 32.3967 36.4192L35.2194 30.3055C35.2925 30.147 35.2623 29.9677 35.1572 29.8423L35.157 29.8427Z" fill="#9A9BFF"/>
<path d="M17.7201 16.4373L20.6871 17.8071L17.9578 15.9226L17.7201 16.4373Z" fill="#0E00FF"/>
<path d="M13.2211 15.4614L35.0301 25.5306C35.067 25.5477 35.0831 25.5914 35.0661 25.6283L18.9131 60.6143C18.8961 60.6512 18.8523 60.6673 18.8154 60.6503L-2.99359 50.5811C-3.03051 50.564 -3.0466 50.5203 -3.02956 50.4834L13.1234 15.4974C13.1404 15.4605 13.1842 15.4444 13.2211 15.4614Z" stroke="white" stroke-width="2"/>
<path d="M32.0052 23.4319L31.4146 23.1592L14.6374 59.4971L15.228 59.7698L32.0052 23.4319Z" fill="white"/>
<path d="M29.138 28.7136L10.2043 19.9719L9.96602 20.4881L28.8997 29.2298L29.138 28.7136Z" fill="white"/>
<path d="M35.1569 29.8426L34.5663 29.5699L35.3709 29.3791L35.1569 29.8426Z" fill="#0E00FF"/>
<path d="M32.0035 36.6731L31.4128 36.4004L31.7895 37.1366L32.0035 36.6731Z" fill="#0E00FF"/>
<path d="M18.8614 30.981L12.6175 28.0982C12.2483 27.9277 11.8108 28.0889 11.6403 28.4581L3.7617 45.5225C3.59124 45.8917 3.75236 46.3292 4.12157 46.4997L10.3655 49.3825C10.7347 49.553 11.1722 49.3918 11.3427 49.0226L19.2213 31.9582C19.3917 31.589 19.2306 31.1515 18.8614 30.981Z" fill="#0D162F"/>
<path d="M19.6654 39.387L19.5451 42.0513L19.0297 41.8133L17.6226 44.8608L16.8682 44.5125L18.2752 41.465L17.806 41.2483L19.6658 39.3872M19.9471 38.7487L17.3719 41.3258L17.9404 41.5883L16.5334 44.6358L17.7459 45.1957L19.153 42.1482L19.7803 42.4378L19.9467 38.7485L19.9471 38.7487Z" fill="#CBD8FF"/>
<path d="M14.6894 32.1358C15.1961 32.3697 15.4178 32.9719 15.1839 33.4785C14.95 33.9852 14.3478 34.2069 13.8412 33.973C13.3345 33.7391 13.1128 33.1369 13.3467 32.6303C13.5806 32.1237 14.1828 31.9019 14.6894 32.1358M14.8128 31.8686C14.1577 31.5661 13.3818 31.8521 13.0794 32.5069C12.7771 33.1617 13.063 33.938 13.7178 34.2403C14.3726 34.5426 15.1489 34.2567 15.4512 33.6019C15.7535 32.9471 15.4676 32.1709 14.8128 31.8686Z" fill="#EEF2FF"/>
<path d="M14.0068 33.6273C14.3219 33.7728 14.6951 33.6353 14.8406 33.3203C14.986 33.0052 14.8486 32.6319 14.5335 32.4865C14.2185 32.3411 13.8452 32.4785 13.6998 32.7935C13.5543 33.1086 13.6918 33.4819 14.0068 33.6273Z" fill="#CBD8FF"/>
<path d="M9.5444 43.2799C10.051 43.5138 10.2728 44.1159 10.0389 44.6226C9.80497 45.1292 9.20281 45.351 8.69617 45.1171C8.18952 44.8831 7.96776 44.281 8.20168 43.7743C8.4356 43.2677 9.03776 43.0459 9.5444 43.2799M9.6678 43.0126C9.01263 42.7101 8.23674 42.9962 7.93442 43.6509C7.63211 44.3057 7.91799 45.082 8.57277 45.3843C9.22756 45.6866 10.0038 45.4008 10.3061 44.746C10.6085 44.0912 10.3226 43.3149 9.6678 43.0126Z" fill="#EEF2FF"/>
<path d="M8.86181 44.7711C9.17684 44.9166 9.55012 44.7791 9.69557 44.4641C9.84102 44.149 9.70355 43.7757 9.38852 43.6303C9.07349 43.4849 8.70021 43.6223 8.55476 43.9373C8.40931 44.2524 8.54678 44.6257 8.86181 44.7711Z" fill="#CBD8FF"/>
<path d="M14.8693 36.2625L11.2675 34.5995C11.0313 34.4905 10.7515 34.5935 10.6424 34.8297L8.14284 40.2436C8.0338 40.4798 8.13686 40.7596 8.37302 40.8686L11.9749 42.5316C12.2111 42.6407 12.4909 42.5376 12.5999 42.3014L15.0995 36.8875C15.2086 36.6514 15.1055 36.3715 14.8693 36.2625Z" fill="#E0E7FF"/>
<path d="M11.1761 35.7589C11.296 35.8143 11.4382 35.7619 11.4936 35.642C11.549 35.522 11.4966 35.3798 11.3767 35.3244C11.2567 35.269 11.1145 35.3214 11.0591 35.4414C11.0037 35.5613 11.0561 35.7035 11.1761 35.7589Z" fill="#312E81"/>
<path d="M12.1338 36.201C12.2538 36.2564 12.396 36.2041 12.4514 36.0841C12.5068 35.9641 12.4544 35.822 12.3344 35.7666C12.2145 35.7112 12.0723 35.7635 12.0169 35.8835C11.9615 36.0035 12.0138 36.1457 12.1338 36.201Z" fill="#312E81"/>
<path d="M13.0923 36.6437C13.2123 36.6991 13.3545 36.6467 13.4099 36.5267C13.4653 36.4068 13.4129 36.2646 13.2929 36.2092C13.1729 36.1538 13.0308 36.2061 12.9754 36.3261C12.92 36.4461 12.9723 36.5883 13.0923 36.6437Z" fill="#312E81"/>
<path d="M14.0501 37.0858C14.1701 37.1412 14.3122 37.0888 14.3676 36.9689C14.423 36.8489 14.3707 36.7067 14.2507 36.6513C14.1307 36.5959 13.9885 36.6483 13.9331 36.7683C13.8778 36.8882 13.9301 37.0304 14.0501 37.0858Z" fill="#312E81"/>
<path d="M11.3684 36.8121C11.4884 36.8675 11.6306 36.8152 11.686 36.6952C11.7414 36.5752 11.689 36.433 11.569 36.3776C11.4491 36.3222 11.3069 36.3746 11.2515 36.4946C11.1961 36.6146 11.2485 36.7567 11.3684 36.8121Z" fill="#312E81"/>
<path d="M12.3262 37.2543C12.4462 37.3097 12.5884 37.2573 12.6438 37.1373C12.6991 37.0173 12.6468 36.8752 12.5268 36.8198C12.4068 36.7644 12.2647 36.8167 12.2093 36.9367C12.1539 37.0567 12.2062 37.1989 12.3262 37.2543Z" fill="#312E81"/>
<path d="M13.2842 37.6967C13.4042 37.752 13.5464 37.6997 13.6018 37.5797C13.6572 37.4597 13.6048 37.3176 13.4848 37.2622C13.3648 37.2068 13.2227 37.2591 13.1673 37.3791C13.1119 37.4991 13.1642 37.6413 13.2842 37.6967Z" fill="#312E81"/>
<path d="M10.4419 37.3488C10.5619 37.4041 10.7041 37.3518 10.7595 37.2318C10.8149 37.1118 10.7625 36.9697 10.6425 36.9143C10.5226 36.8589 10.3804 36.9112 10.325 37.0312C10.2696 37.1512 10.322 37.2934 10.4419 37.3488Z" fill="#312E81"/>
<path d="M11.3999 37.7909C11.5199 37.8463 11.6621 37.7939 11.7175 37.6739C11.7729 37.554 11.7205 37.4118 11.6005 37.3564C11.4806 37.301 11.3384 37.3534 11.283 37.4733C11.2276 37.5933 11.28 37.7355 11.3999 37.7909Z" fill="#312E81"/>
<path d="M12.3582 38.2335C12.4782 38.2889 12.6203 38.2366 12.6757 38.1166C12.7311 37.9966 12.6788 37.8544 12.5588 37.799C12.4388 37.7436 12.2966 37.796 12.2413 37.916C12.1859 38.036 12.2382 38.1781 12.3582 38.2335Z" fill="#312E81"/>
<path d="M13.3162 38.6757C13.4362 38.731 13.5784 38.6787 13.6337 38.5587C13.6891 38.4387 13.6368 38.2966 13.5168 38.2412C13.3968 38.1858 13.2547 38.2381 13.1993 38.3581C13.1439 38.4781 13.1962 38.6203 13.3162 38.6757Z" fill="#312E81"/>
<path d="M10.6341 38.4022C10.7541 38.4576 10.8962 38.4053 10.9516 38.2853C11.007 38.1653 10.9547 38.0231 10.8347 37.9677C10.7147 37.9123 10.5725 37.9647 10.5171 38.0847C10.4617 38.2047 10.5141 38.3468 10.6341 38.4022Z" fill="#312E81"/>
<path d="M11.5921 38.8444C11.7121 38.8998 11.8542 38.8474 11.9096 38.7274C11.965 38.6074 11.9127 38.4653 11.7927 38.4099C11.6727 38.3545 11.5305 38.4068 11.4751 38.5268C11.4197 38.6468 11.4721 38.789 11.5921 38.8444Z" fill="#312E81"/>
<path d="M12.5501 39.2867C12.6701 39.3421 12.8122 39.2898 12.8676 39.1698C12.923 39.0498 12.8707 38.9076 12.7507 38.8523C12.6307 38.7969 12.4885 38.8492 12.4331 38.9692C12.3778 39.0892 12.4301 39.2313 12.5501 39.2867Z" fill="#312E81"/>
<path d="M9.7078 38.9388C9.82778 38.9942 9.96995 38.9419 10.0253 38.8219C10.0807 38.7019 10.0284 38.5597 9.9084 38.5044C9.78843 38.449 9.64626 38.5013 9.59086 38.6213C9.53547 38.7413 9.58782 38.8834 9.7078 38.9388Z" fill="#312E81"/>
<path d="M10.6658 39.3812C10.7858 39.4366 10.928 39.3843 10.9834 39.2643C11.0387 39.1443 10.9864 39.0021 10.8664 38.9467C10.7464 38.8913 10.6043 38.9437 10.5489 39.0637C10.4935 39.1837 10.5458 39.3258 10.6658 39.3812Z" fill="#312E81"/>
<path d="M11.6241 39.8236C11.744 39.879 11.8862 39.8266 11.9416 39.7067C11.997 39.5867 11.9446 39.4445 11.8247 39.3891C11.7047 39.3337 11.5625 39.3861 11.5071 39.5061C11.4517 39.626 11.5041 39.7682 11.6241 39.8236Z" fill="#312E81"/>
<path d="M12.5821 40.2657C12.7021 40.3211 12.8442 40.2688 12.8996 40.1488C12.955 40.0288 12.9027 39.8867 12.7827 39.8313C12.6627 39.7759 12.5205 39.8282 12.4651 39.9482C12.4097 40.0682 12.4621 40.2103 12.5821 40.2657Z" fill="#312E81"/>
<path d="M8.97367 40.5289C9.09365 40.5843 9.23582 40.532 9.29122 40.412C9.34661 40.292 9.29425 40.1498 9.17427 40.0944C9.05429 40.039 8.91213 40.0914 8.85673 40.2114C8.80134 40.3314 8.85369 40.4735 8.97367 40.5289Z" fill="#312E81"/>
<path d="M9.93168 40.9713C10.0517 41.0267 10.1938 40.9743 10.2492 40.8544C10.3046 40.7344 10.2523 40.5922 10.1323 40.5368C10.0123 40.4814 9.87013 40.5338 9.81474 40.6538C9.75934 40.7737 9.8117 40.9159 9.93168 40.9713Z" fill="#312E81"/>
<path d="M10.8899 41.4137C11.0099 41.4691 11.1521 41.4167 11.2075 41.2967C11.2629 41.1768 11.2105 41.0346 11.0905 40.9792C10.9706 40.9238 10.8284 40.9762 10.773 41.0961C10.7176 41.2161 10.77 41.3583 10.8899 41.4137Z" fill="#312E81"/>
<path d="M11.8479 41.8561C11.9679 41.9115 12.1101 41.8591 12.1655 41.7391C12.2209 41.6192 12.1685 41.477 12.0485 41.4216C11.9286 41.3662 11.7864 41.4186 11.731 41.5385C11.6756 41.6585 11.728 41.8007 11.8479 41.8561Z" fill="#312E81"/>
<path d="M9.90019 39.9921C10.0202 40.0475 10.1623 39.9951 10.2177 39.8751C10.2731 39.7551 10.2208 39.613 10.1008 39.5576C9.98081 39.5022 9.83864 39.5545 9.78325 39.6745C9.72785 39.7945 9.78021 39.9367 9.90019 39.9921Z" fill="#312E81"/>
<path d="M10.858 40.4342C10.9779 40.4896 11.1201 40.4372 11.1755 40.3173C11.2309 40.1973 11.1785 40.0551 11.0586 39.9997C10.9386 39.9443 10.7964 39.9967 10.741 40.1167C10.6856 40.2366 10.738 40.3788 10.858 40.4342Z" fill="#312E81"/>
<path d="M11.816 40.8766C11.9359 40.932 12.0781 40.8796 12.1335 40.7596C12.1889 40.6397 12.1365 40.4975 12.0166 40.4421C11.8966 40.3867 11.7544 40.4391 11.699 40.559C11.6436 40.679 11.696 40.8212 11.816 40.8766Z" fill="#312E81"/>
<path d="M29.5 12C31.8333 7.66667 33.4 -1.6 21 -4H9C10.8333 3.16667 9.9 18.3 -8.5 21.5L-3 6C1.5 8.33333 7.9 16.4 -2.5 30" stroke="black"/>
<path d="M37.6973 17.7013L38.9452 14.3186L105.601 65.22L104.353 68.6027L52.8049 80.9212L37.6973 17.7013Z" fill="#FBBF24"/>
<rect x="38.9453" y="14.3186" width="53" height="65" transform="rotate(-13.4399 38.9453 14.3186)" fill="#FDE68A"/>
<path d="M43.456 35.346L39.9696 20.7568L38.1406 21.708L43.456 35.346Z" fill="#FDE68A"/>
<path d="M52.6154 75.8256L49.5939 63.1816L49.2327 74.5777L52.6154 75.8256Z" fill="#FDE68A"/>
<rect x="40.3398" y="20.1543" width="53" height="1" transform="rotate(-13.4399 40.3398 20.1543)" fill="#FCD34D"/>
<path d="M41.9668 26.9624L93.5154 14.6439L93.6316 15.1302L42.083 27.4487L41.9668 26.9624Z" fill="#FCD34D"/>
<path d="M49.4043 58.0862L100.953 45.7677L101.069 46.254L49.5205 58.5725L49.4043 58.0862Z" fill="#FCD34D"/>
<path d="M45.6855 42.5244L97.2341 30.2059L97.3503 30.6922L45.8018 43.0107L45.6855 42.5244Z" fill="#FCD34D"/>
<path d="M53.1233 73.6479L104.672 61.3294L104.788 61.8157L53.2395 74.1343L53.1233 73.6479Z" fill="#FCD34D"/>
<path d="M43.8262 34.7434L95.3747 22.4249L95.4909 22.9112L43.9424 35.2297L43.8262 34.7434Z" fill="#FCD34D"/>
<path d="M51.2637 65.8672L102.812 53.5487L102.928 54.035L51.3799 66.3535L51.2637 65.8672Z" fill="#FCD34D"/>
<path d="M47.5449 50.3052L99.0935 37.9867L99.2097 38.473L47.6611 50.7915L47.5449 50.3052Z" fill="#FCD34D"/>
<path d="M42.8965 30.853L94.445 18.5345L94.5613 19.0208L43.0127 31.3393L42.8965 30.853Z" fill="#FCD34D"/>
<path d="M50.334 61.9766L101.883 49.6581L101.999 50.1444L50.4502 62.4629L50.334 61.9766Z" fill="#FCD34D"/>
<path d="M46.6152 46.4148L98.1638 34.0963L98.28 34.5826L46.7314 46.9011L46.6152 46.4148Z" fill="#FCD34D"/>
<path d="M44.7559 38.6338L96.3044 26.3153L96.4206 26.8016L44.8721 39.1201L44.7559 38.6338Z" fill="#FCD34D"/>
<path d="M52.1934 69.7576L103.742 57.4391L103.858 57.9254L52.3096 70.2439L52.1934 69.7576Z" fill="#FCD34D"/>
<path d="M48.4746 54.1958L100.023 41.8773L100.139 42.3636L48.5908 54.6821L48.4746 54.1958Z" fill="#FCD34D"/>
<path d="M54.8153 22.2849L52.925 22.7154L52.2155 23.2766L51.6662 22.7024L51.1773 23.3132L50.6366 23.2366L49.486 23.6984L48.9452 23.6218L47.7946 24.0836L46.5574 24.1656L45.065 24.5054" stroke="#92400E" stroke-width="1.13636" stroke-linecap="round" stroke-linejoin="round"/>
<path d="M72.7187 26.1768L67.7404 27.3829L65.736 28.2694L64.5274 27.8607L63.0699 28.7149L61.714 28.843L58.6156 29.7941L57.2597 29.9222L54.1613 30.8733L50.9712 31.4457L47.041 32.398" stroke="#92400E" stroke-width="1.13636" stroke-linecap="round" stroke-linejoin="round"/>
<path d="M48.1168 36.3746L53.0997 35.1875L55.1075 34.3086L56.3145 34.7219L57.7752 33.8733L59.1317 33.7504L62.2336 32.8111L63.59 32.6882L66.692 31.749L69.8842 31.1887L73.8181 30.2515" stroke="#92400E" stroke-width="1.13636" stroke-linecap="round" stroke-linejoin="round"/>
<path d="M49 40.1231L52.2049 39.3596L53.4641 38.6591L54.2968 39.1616L55.196 38.4468L56.0845 38.4353L58.0635 37.7636L58.9521 37.7522L60.931 37.0804L63.0003 36.7877L65.5305 36.1849" stroke="#92400E" stroke-width="1.13636" stroke-linecap="round" stroke-linejoin="round"/>
<path d="M62.2834 20.5447L61.4655 20.7309L61.2077 21.1892L60.8841 20.5637L60.734 21.0973L60.4755 20.9564L60.0022 21.264L59.7437 21.1231L59.2704 21.4306L58.7106 21.3583L58.065 21.5054" stroke="#92400E" stroke-width="1.13636" stroke-linecap="round" stroke-linejoin="round"/>
<path d="M40.8212 54.31C41.0598 54.1722 41.0598 53.8278 40.8212 53.6907L38.6789 52.4542C38.2088 52.1827 37.8181 51.792 37.5466 51.322L36.3101 49.1789C36.1723 48.9404 35.828 48.9404 35.6908 49.1789L34.4543 51.3212C34.1828 51.7913 33.7921 52.182 33.3221 52.4535L31.179 53.6907C30.9405 53.8286 30.9405 54.1729 31.179 54.31L33.3213 55.5465C33.7914 55.818 34.1821 56.2087 34.4536 56.6788L35.6901 58.8211C35.828 59.0596 36.1723 59.0596 36.3094 58.8211L37.5459 56.6788C37.8174 56.2087 38.2081 55.818 38.6782 55.5465L40.8212 54.31Z" fill="white"/>
<rect x="7.12134" y="63" width="3" height="3" transform="rotate(45 7.12134 63)" fill="white"/>
<rect x="41.1213" y="4" width="3" height="3" transform="rotate(45 41.1213 4)" fill="white"/>
<path d="M59.0274 56.6441L61.8236 53.2529C62.096 52.9225 62.588 52.8752 62.9184 53.1476L66.5147 56.1129L62.729 60.7041L59.1327 57.7389C58.8023 57.4665 58.755 56.9745 59.0274 56.6441V56.6441Z" fill="#3F4861"/>
<path d="M55.5775 49.3851L54.9585 48.8747C54.7687 48.7181 54.4846 48.7454 54.328 48.9353L53.3605 50.1088C53.2039 50.2986 53.2312 50.5827 53.4211 50.7393L54.0401 51.2497C54.2983 51.4626 54.4933 51.7445 54.6078 52.0622L54.7664 52.512C54.8873 52.8605 55.1026 53.1719 55.3912 53.4099L59.147 56.5067L61.7083 53.4003L57.9487 50.3004C57.6639 50.0655 57.3171 49.9136 56.9482 49.8581L56.4764 49.7881C56.1466 49.7394 55.8326 49.6018 55.5706 49.3857L55.5775 49.3851Z" fill="#3F4861"/>
<path d="M53.3887 50.0745L54.2999 48.9694L51.454 47.5543L53.3887 50.0745Z" fill="#0D162F"/>
<path d="M94.1913 78.9331C93.7451 80.983 92.3361 82.6919 90.4057 83.5244L62.2353 60.297C62.751 58.2789 64.1382 56.5966 66.021 55.7057L94.1913 78.9331Z" fill="#6366F1"/>
<path d="M29.1081 16.5042L29.6094 15.4183L29.3467 15.2971L30.8017 11.0633L29.4156 10.4529L27.2148 14.3127L26.9502 14.1906L26.4489 15.2764L26.7135 15.3986L26.6423 15.5528L26.3777 15.4307L25.0138 18.3846L25.2784 18.5068L24.738 19.6774L26.8699 20.6617L27.4104 19.4911L27.673 19.6124L29.0369 16.6584L28.7742 16.5371L28.8454 16.3829L29.1081 16.5042Z" fill="url(#paint2_linear_577_376)"/>
</g>
<defs>
<linearGradient id="paint0_linear_577_376" x1="36" y1="0" x2="36" y2="72" gradientUnits="userSpaceOnUse">
<stop stop-color="#FF7373"/>
<stop offset="1" stop-color="#FF3434"/>
</linearGradient>
<linearGradient id="paint1_linear_577_376" x1="13.5" y1="14.4999" x2="11.5" y2="64.4999" gradientUnits="userSpaceOnUse">
<stop stop-color="#6366F4"/>
<stop offset="1" stop-color="#4237FF"/>
</linearGradient>
<linearGradient id="paint2_linear_577_376" x1="26" y1="15.5" x2="29.5" y2="17.5" gradientUnits="userSpaceOnUse">
<stop stop-color="#160204"/>
<stop offset="1" stop-color="#1C398B"/>
</linearGradient>
<clipPath id="clip0_577_376">
<rect width="72" height="72" rx="12" fill="white"/>
</clipPath>
</defs>
</svg>
