<svg width="72" height="72" viewBox="0 0 72 72" fill="none" xmlns="http://www.w3.org/2000/svg">
<g clip-path="url(#clip0_506_2538)">
<rect width="72" height="72" rx="12" fill="url(#paint0_linear_506_2538)"/>
<path d="M37.5087 14.2605L42.1992 23.9564L34.5307 23.7325L32.4861 20.3486L37.5087 14.2605Z" fill="url(#paint1_radial_506_2538)"/>
<path d="M37.509 14.2605L36.2396 17.9145C36.0776 18.3797 36.0088 18.8722 36.0371 19.3641C36.0655 19.8559 36.1905 20.3373 36.405 20.7807C36.6195 21.2242 36.9193 21.6211 37.2872 21.9487C37.6551 22.2763 38.084 22.5281 38.5493 22.6899L42.2013 23.9578L34.0205 47.5291C33.33 49.4924 31.1787 50.5243 29.2154 49.8338L9.50619 42.9029C7.59929 42.2323 6.59706 40.1428 7.26764 38.2359L16.7249 11.0132C16.8864 10.5475 17.1381 10.1181 17.4656 9.74975C17.7931 9.38136 18.19 9.0811 18.6335 8.86613C19.0771 8.65116 19.5587 8.52569 20.0507 8.49689C20.5428 8.46809 21.0357 8.53653 21.5013 8.69829L37.509 14.2605Z" fill="url(#paint2_radial_506_2538)"/>
<path d="M26.6575 17.3892L14.7572 13.2628C14.6003 13.2083 14.4342 13.1852 14.2683 13.1948C14.1025 13.2045 13.9402 13.2468 13.7906 13.3192C13.6411 13.3916 13.5073 13.4928 13.3969 13.6169C13.2865 13.741 13.2016 13.8856 13.1471 14.0426L12.4076 16.2055L11.9989 17.3742C11.8797 17.7234 11.8646 18.0998 11.9555 18.4574L24.7471 22.9022C24.9038 22.9569 25.0697 22.9801 25.2354 22.9706C25.4011 22.9611 25.5633 22.919 25.7127 22.8468C25.8621 22.7745 25.9958 22.6735 26.1062 22.5495C26.2165 22.4256 26.3013 22.2811 26.3557 22.1243L27.4349 19.0182C27.4927 18.8603 27.5184 18.6924 27.5105 18.5245C27.5026 18.3566 27.4612 18.1919 27.3888 18.0402C27.3164 17.8884 27.2144 17.7527 27.0888 17.6409C26.9632 17.5291 26.8166 17.4435 26.6575 17.3892Z" fill="#EF4444"/>
<path d="M11.956 18.4371C12.0204 18.6972 12.1394 18.9405 12.3051 19.151L13.415 20.5575L13.9141 19.1231L11.956 18.4371Z" fill="url(#paint3_linear_506_2538)"/>
<path d="M41.9199 24.7647L38.5507 22.6881L42.1995 23.9564L41.9199 24.7647Z" fill="url(#paint4_radial_506_2538)"/>
<path d="M14.8881 17.709L15.6687 15.4913C15.6824 15.4251 15.7106 15.3628 15.7515 15.3089C15.7923 15.255 15.8447 15.211 15.9048 15.18C15.9649 15.149 16.0311 15.1318 16.0987 15.1298C16.1663 15.1277 16.2335 15.1408 16.2953 15.1681L17.2668 15.5054C17.425 15.5469 17.5724 15.6218 17.6992 15.7251C17.8261 15.8283 17.9293 15.9574 18.0022 16.1038C18.075 16.2502 18.1157 16.4105 18.1215 16.5739C18.1273 16.7373 18.0981 16.9001 18.0358 17.0513C17.7898 17.7519 17.143 18.0157 16.4126 17.7621L15.9639 17.6051L15.8158 18.034C15.7988 18.0992 15.7685 18.1602 15.7267 18.2131C15.685 18.2661 15.6328 18.3098 15.5734 18.3416C15.5139 18.3734 15.4485 18.3925 15.3813 18.3978C15.3141 18.4031 15.2466 18.3944 15.1829 18.3723C15.1192 18.3502 15.0608 18.3151 15.0113 18.2694C14.9619 18.2236 14.9224 18.1681 14.8954 18.1063C14.8684 18.0445 14.8545 17.9778 14.8546 17.9104C14.8546 17.843 14.8686 17.7764 14.8957 17.7146L14.8881 17.709ZM16.4524 17.0098C16.5125 17.0413 16.5789 17.0589 16.6467 17.0611C16.7145 17.0634 16.7819 17.0503 16.844 17.0228C16.906 16.9954 16.9611 16.9543 17.005 16.9026C17.049 16.8509 17.0807 16.79 17.0978 16.7244C17.1251 16.6628 17.1382 16.5959 17.136 16.5286C17.1338 16.4613 17.1163 16.3954 17.085 16.3358C17.0537 16.2762 17.0093 16.2244 16.9551 16.1844C16.9009 16.1444 16.8384 16.1172 16.7722 16.1049L16.5065 16.0145L16.1915 16.9171L16.4524 17.0098Z" fill="white"/>
<path d="M18.6353 18.9481L19.3818 16.7758C19.3956 16.7094 19.424 16.647 19.4651 16.5931C19.5061 16.5392 19.5587 16.4952 19.619 16.4643C19.6793 16.4335 19.7458 16.4165 19.8135 16.4147C19.8812 16.4129 19.9485 16.4263 20.0103 16.4539L20.8893 16.7572C21.8415 17.0888 22.2105 17.8235 21.8623 18.8252C21.5141 19.8269 20.7491 20.2204 19.8007 19.8916L18.9212 19.585C18.8567 19.5677 18.7968 19.5362 18.746 19.4928C18.6951 19.4495 18.6545 19.3954 18.6272 19.3344C18.5998 19.2734 18.5863 19.2072 18.5877 19.1403C18.5891 19.0735 18.6054 19.0079 18.6353 18.9481ZM19.9302 19.1181C20.3969 19.2828 20.7293 19.0839 20.9304 18.5059C21.113 17.976 20.9519 17.6011 20.5107 17.4497L20.2215 17.3475L19.6415 19.0193L19.9302 19.1181Z" fill="white"/>
<path d="M22.6267 20.3971L23.4073 18.1795C23.4216 18.1157 23.4496 18.0557 23.4892 18.0037C23.5289 17.9518 23.5794 17.909 23.6372 17.8784C23.695 17.8477 23.7587 17.83 23.824 17.8263C23.8893 17.8227 23.9546 17.8332 24.0154 17.8572L25.3946 18.3355C25.4488 18.3472 25.4999 18.3704 25.5445 18.4034C25.589 18.4364 25.6261 18.4785 25.6532 18.5269C25.6803 18.5753 25.6968 18.6289 25.7016 18.6842C25.7064 18.7394 25.6995 18.7951 25.6812 18.8474C25.6629 18.8998 25.6337 18.9477 25.5955 18.9879C25.5574 19.0281 25.5111 19.0598 25.4597 19.0808C25.4084 19.1018 25.3532 19.1117 25.2978 19.1098C25.2424 19.1078 25.188 19.0942 25.1382 19.0696L24.2342 18.7446L24.026 19.3439L24.8503 19.6296C24.9012 19.6408 24.9491 19.663 24.9905 19.6947C25.0319 19.7264 25.0658 19.7668 25.0899 19.8131C25.114 19.8593 25.1277 19.9103 25.1299 19.9624C25.1321 20.0145 25.1229 20.0664 25.1029 20.1146C25.0886 20.1645 25.0633 20.2106 25.029 20.2496C24.9948 20.2887 24.9522 20.3196 24.9046 20.3402C24.8569 20.3609 24.8052 20.3707 24.7533 20.369C24.7014 20.3672 24.6505 20.354 24.6043 20.3303L23.7795 20.0413L23.543 20.7254C23.5239 20.7884 23.4923 20.8469 23.45 20.8974C23.4078 20.9479 23.3558 20.9893 23.2971 21.0191C23.2384 21.049 23.1744 21.0667 23.1087 21.0712C23.043 21.0757 22.9771 21.0668 22.9149 21.0452C22.8528 21.0236 22.7956 20.9896 22.7469 20.9453C22.6982 20.9011 22.6589 20.8474 22.6315 20.7876C22.604 20.7277 22.589 20.663 22.5871 20.5972C22.5853 20.5314 22.5969 20.4659 22.621 20.4047L22.6267 20.3971Z" fill="white"/>
<rect x="15.8889" y="21.8589" width="15.6047" height="1.11462" rx="0.55731" transform="rotate(19.3748 15.8889 21.8589)" fill="#80A1FF"/>
<rect x="11.8213" y="33.4254" width="15.6047" height="1.11462" rx="0.55731" transform="rotate(19.3748 11.8213 33.4254)" fill="#80A1FF"/>
<rect x="15.1492" y="23.9619" width="20.0632" height="1.11462" rx="0.55731" transform="rotate(19.3748 15.1492 23.9619)" fill="#80A1FF"/>
<rect x="13.3005" y="29.2194" width="20.0632" height="1.11462" rx="0.55731" transform="rotate(19.3748 13.3005 29.2194)" fill="#80A1FF"/>
<rect x="10.7119" y="36.5799" width="20.0632" height="1.11462" rx="0.55731" transform="rotate(19.3748 10.7119 36.5799)" fill="#80A1FF"/>
<rect x="14.4097" y="26.0649" width="17.8339" height="1.11462" rx="0.55731" transform="rotate(19.3748 14.4097 26.0649)" fill="#80A1FF"/>
<rect x="12.5608" y="31.3224" width="17.8339" height="1.11462" rx="0.55731" transform="rotate(19.3748 12.5608 31.3224)" fill="#80A1FF"/>
<path opacity="0.5" fill-rule="evenodd" clip-rule="evenodd" d="M39.7572 31L34.0205 47.5291C33.7156 48.3959 33.126 49.0812 32.3934 49.5169V47.5L24 38.25H32.3934V33.7409C32.3934 32.2271 33.6206 31 35.1343 31H39.7572Z" fill="url(#paint5_linear_506_2538)"/>
<path d="M34.6919 47.1305V46.9202L34.5529 46.7623L29.237 40.7214H34.1346H34.6919V40.1641V35.427C34.6919 34.5036 35.4404 33.7551 36.3638 33.7551H59.7708C60.6942 33.7551 61.4427 34.5036 61.4427 35.427V58.834C61.4427 59.7574 60.6942 60.5059 59.7708 60.5059H36.3638C35.4404 60.5059 34.6919 59.7574 34.6919 58.834V47.1305Z" fill="#0D162F" stroke="white" stroke-width="1.11462"/>
<g filter="url(#filter0_d_506_2538)">
<path d="M54.2264 58.5043C54.4287 58.4284 54.8292 58.4748 54.9346 58.7024C55.04 58.93 55.1032 59.2251 55.1074 59.1535C55.0994 58.9357 55.1178 58.7177 55.1622 58.5043C55.2091 58.3676 55.3164 58.2603 55.4531 58.2134C55.5784 58.1738 55.7115 58.1651 55.8409 58.1881C55.9718 58.2151 56.0877 58.2903 56.1655 58.3989C56.2642 58.6447 56.3198 58.9057 56.3299 59.1703C56.3404 58.9445 56.3787 58.7208 56.4438 58.5043C56.5142 58.405 56.6171 58.3335 56.7346 58.3019C56.874 58.2765 57.0168 58.2765 57.1562 58.3019C57.2706 58.3399 57.3706 58.412 57.4428 58.5085C57.5324 58.732 57.5864 58.9681 57.603 59.2083C57.603 59.2673 57.6325 59.0439 57.7253 58.8963C57.7998 58.6751 58.0395 58.5562 58.2607 58.6307C58.4818 58.7052 58.6007 58.9449 58.5262 59.1661C58.5262 59.4401 58.5262 59.4275 58.5262 59.613C58.5262 59.7985 58.5262 59.9629 58.5262 60.1188C58.5111 60.3655 58.4772 60.6107 58.4251 60.8523C58.3519 61.0662 58.2498 61.269 58.1215 61.4552C57.9169 61.6828 57.7478 61.9401 57.6199 62.2182C57.5887 62.3564 57.5745 62.498 57.5777 62.6397C57.5773 62.7707 57.5943 62.9011 57.6283 63.0276C57.456 63.046 57.2822 63.046 57.1098 63.0276C56.9454 63.0023 56.7431 62.6735 56.6883 62.5723C56.6611 62.518 56.6056 62.4836 56.5449 62.4836C56.4842 62.4836 56.4287 62.518 56.4016 62.5723C56.3089 62.7325 56.1023 63.0233 55.98 63.0402C55.6976 63.0739 55.1116 63.0402 54.6564 63.0402C54.6564 63.0402 54.7365 62.6187 54.5594 62.4669C54.3824 62.3151 54.2095 62.1381 54.0788 62.02L53.7289 61.6322C53.4822 61.4032 53.3016 61.112 53.2062 60.7891C53.1177 60.3928 53.1261 60.2031 53.2062 60.043C53.2879 59.9107 53.4155 59.8131 53.5645 59.7689C53.6884 59.7465 53.8159 59.7552 53.9355 59.7942C54.0182 59.8289 54.0897 59.8858 54.1421 59.9586C54.239 60.0893 54.2728 60.1526 54.2306 60.0092C54.1884 59.8659 54.0957 59.7605 54.0493 59.5877C53.9591 59.3836 53.9049 59.1653 53.8891 58.9427C53.9064 58.7429 54.0459 58.5749 54.239 58.5211" fill="white"/>
<path fill-rule="evenodd" clip-rule="evenodd" d="M54.2264 58.5043C54.4287 58.4284 54.8292 58.4748 54.9346 58.7024C55.04 58.93 55.1032 59.2251 55.1074 59.1535C55.0994 58.9357 55.1178 58.7177 55.1622 58.5043C55.2091 58.3676 55.3164 58.2603 55.4531 58.2134C55.5784 58.1738 55.7115 58.1651 55.8409 58.1881C55.9718 58.2151 56.0877 58.2903 56.1655 58.3989C56.2642 58.6447 56.3198 58.9057 56.3299 59.1703C56.3404 58.9445 56.3787 58.7208 56.4438 58.5043C56.5142 58.405 56.6171 58.3335 56.7346 58.3019C56.874 58.2765 57.0168 58.2765 57.1562 58.3019C57.2706 58.3399 57.3706 58.412 57.4428 58.5085C57.5324 58.732 57.5864 58.9681 57.603 59.2083C57.603 59.2673 57.6325 59.0439 57.7253 58.8963C57.7998 58.6751 58.0395 58.5562 58.2607 58.6307C58.4818 58.7052 58.6007 58.9449 58.5262 59.1661C58.5262 59.4401 58.5262 59.4275 58.5262 59.613C58.5262 59.7985 58.5262 59.9629 58.5262 60.1188C58.5111 60.3655 58.4772 60.6107 58.4251 60.8523C58.3519 61.0662 58.2498 61.269 58.1215 61.4552C57.9169 61.6828 57.7478 61.9401 57.6199 62.2182C57.5887 62.3564 57.5745 62.498 57.5777 62.6397C57.5773 62.7707 57.5943 62.9011 57.6283 63.0276C57.456 63.046 57.2822 63.046 57.1098 63.0276C56.9454 63.0023 56.7431 62.6735 56.6883 62.5723C56.6611 62.518 56.6056 62.4836 56.5449 62.4836C56.4842 62.4836 56.4287 62.518 56.4016 62.5723C56.3089 62.7325 56.1023 63.0233 55.98 63.0402C55.6976 63.0739 55.1116 63.0402 54.6564 63.0402C54.6564 63.0402 54.7365 62.6187 54.5594 62.4669C54.3824 62.3151 54.2095 62.1381 54.0788 62.02L53.7289 61.6322C53.4822 61.4032 53.3016 61.112 53.2062 60.7891C53.1177 60.3928 53.1261 60.2031 53.2062 60.043C53.2879 59.9107 53.4155 59.8131 53.5645 59.7689C53.6884 59.7465 53.8159 59.7552 53.9355 59.7942C54.0182 59.8289 54.0897 59.8858 54.1421 59.9586C54.239 60.0893 54.2728 60.1526 54.2306 60.0092C54.1884 59.8659 54.0957 59.7605 54.0493 59.5877C53.9591 59.3836 53.9049 59.1653 53.8891 58.9427C53.8978 58.74 54.0327 58.5646 54.2264 58.5043Z" stroke="black" stroke-width="0.316166" stroke-linejoin="round"/>
<path d="M57.4934 61.7401V60.285C57.4934 60.1979 57.4226 60.1273 57.3353 60.1273C57.248 60.1273 57.1772 60.1979 57.1772 60.285V61.7401C57.1772 61.8272 57.248 61.8978 57.3353 61.8978C57.4226 61.8978 57.4934 61.8272 57.4934 61.7401Z" fill="black"/>
<path d="M56.6588 61.7396L56.6504 60.2837C56.6499 60.1969 56.5787 60.1268 56.4914 60.1273C56.4041 60.1278 56.3337 60.1987 56.3342 60.2856L56.3427 61.7414C56.3432 61.8283 56.4143 61.8983 56.5017 61.8978C56.589 61.8973 56.6593 61.8265 56.6588 61.7396Z" fill="black"/>
<path d="M55.491 60.2875L55.4994 61.7396C55.4999 61.8275 55.5711 61.8984 55.6584 61.8978C55.7457 61.8973 55.8161 61.8256 55.8156 61.7377L55.8071 60.2856C55.8066 60.1977 55.7354 60.1268 55.6481 60.1273C55.5608 60.1278 55.4905 60.1995 55.491 60.2875Z" fill="black"/>
</g>
<rect x="38.593" y="37.6562" width="14.4901" height="1.11462" rx="0.55731" fill="#FDE68A"/>
<rect x="38.593" y="49.9171" width="14.4901" height="1.11462" rx="0.55731" fill="#FDE68A"/>
<rect x="38.593" y="55.4902" width="14.4901" height="1.11462" rx="0.55731" fill="#FDE68A"/>
<rect x="38.593" y="39.8855" width="18.9485" height="1.11462" rx="0.55731" fill="#FDE68A"/>
<rect x="38.593" y="45.4586" width="18.9485" height="1.11462" rx="0.55731" fill="#FDE68A"/>
<rect x="38.593" y="53.2609" width="18.9485" height="1.11462" rx="0.55731" fill="#FDE68A"/>
<rect x="38.593" y="42.1147" width="16.7193" height="1.11462" rx="0.55731" fill="#FDE68A"/>
<rect x="38.593" y="47.6878" width="16.7193" height="1.11462" rx="0.55731" fill="#FDE68A"/>
<path d="M22.8212 58.31C23.0598 58.1722 23.0598 57.8278 22.8212 57.6907L20.6789 56.4542C20.2088 56.1827 19.8181 55.792 19.5466 55.322L18.3101 53.1789C18.1723 52.9404 17.828 52.9404 17.6908 53.1789L16.4543 55.3212C16.1828 55.7913 15.7921 56.182 15.3221 56.4535L13.179 57.6907C12.9405 57.8286 12.9405 58.1729 13.179 58.31L15.3213 59.5465C15.7914 59.818 16.1821 60.2087 16.4536 60.6788L17.6901 62.8211C17.828 63.0596 18.1723 63.0596 18.3094 62.8211L19.5459 60.6788C19.8174 60.2087 20.2081 59.818 20.6782 59.5465L22.8212 58.31Z" fill="white"/>
<rect x="52.1213" y="23" width="3" height="3" transform="rotate(45 52.1213 23)" fill="white"/>
</g>
<defs>
<filter id="filter0_d_506_2538" x="52.6476" y="58.0175" width="6.39617" height="5.95466" filterUnits="userSpaceOnUse" color-interpolation-filters="sRGB">
<feFlood flood-opacity="0" result="BackgroundImageFix"/>
<feColorMatrix in="SourceAlpha" type="matrix" values="0 0 0 0 0 0 0 0 0 0 0 0 0 0 0 0 0 0 127 0" result="hardAlpha"/>
<feOffset dy="0.421555"/>
<feGaussianBlur stdDeviation="0.168622"/>
<feColorMatrix type="matrix" values="0 0 0 0 0 0 0 0 0 0 0 0 0 0 0 0 0 0 0.5 0"/>
<feBlend mode="normal" in2="BackgroundImageFix" result="effect1_dropShadow_506_2538"/>
<feBlend mode="normal" in="SourceGraphic" in2="effect1_dropShadow_506_2538" result="shape"/>
</filter>
<linearGradient id="paint0_linear_506_2538" x1="36" y1="0" x2="36" y2="72" gradientUnits="userSpaceOnUse">
<stop stop-color="#FF71D0"/>
<stop offset="1" stop-color="#E5109F"/>
</linearGradient>
<radialGradient id="paint1_radial_506_2538" cx="0" cy="0" r="1" gradientUnits="userSpaceOnUse" gradientTransform="translate(40 17) rotate(156.038) scale(4.92443 5.22483)">
<stop offset="0.270028" stop-color="white"/>
<stop offset="1" stop-color="#E8EEFF"/>
</radialGradient>
<radialGradient id="paint2_radial_506_2538" cx="0" cy="0" r="1" gradientUnits="userSpaceOnUse" gradientTransform="translate(2.5 37) rotate(-30.75) scale(45.9619 41.7441)">
<stop stop-color="#CBD8FF"/>
<stop offset="1" stop-color="white"/>
</radialGradient>
<linearGradient id="paint3_linear_506_2538" x1="12.8737" y1="18.6278" x2="12.0931" y2="20.8454" gradientUnits="userSpaceOnUse">
<stop stop-color="#991B1B"/>
<stop offset="0.301832" stop-color="#DC2626"/>
</linearGradient>
<radialGradient id="paint4_radial_506_2538" cx="0" cy="0" r="1" gradientUnits="userSpaceOnUse" gradientTransform="translate(41.0711 22.5449) rotate(109.815) scale(3.20978 10.7421)">
<stop stop-color="#697087"/>
<stop offset="0.540492" stop-color="#697087" stop-opacity="0"/>
</radialGradient>
<linearGradient id="paint5_linear_506_2538" x1="40.5" y1="44.5" x2="28" y2="40" gradientUnits="userSpaceOnUse">
<stop stop-color="#1854FF"/>
<stop offset="0.883589" stop-color="#1854FF" stop-opacity="0"/>
</linearGradient>
<clipPath id="clip0_506_2538">
<rect width="72" height="72" rx="12" fill="white"/>
</clipPath>
</defs>
</svg>
