<svg width="310" height="310" viewBox="0 0 310 310" fill="none" xmlns="http://www.w3.org/2000/svg">
<rect width="310" height="310" fill="white"/>
<g clip-path="url(#clip0_2669_32142)">
<path d="M81.0248 66.3333H66.2676V81.1124H81.0248V66.3333Z" fill="#333CEF"/>
<path d="M140.051 66.3333H81.0254V81.1124H140.051V66.3333Z" fill="#787680"/>
<path d="M81.0248 95.8876H66.2676V110.667H81.0248V95.8876Z" fill="#47464F"/>
<path d="M140.051 95.8876H81.0254V110.667H140.051V95.8876Z" fill="#787680"/>
<path d="M81.0248 125.446H66.2676V140.225H81.0248V125.446Z" fill="#47464F"/>
<path d="M66.268 125.446H51.5107V169.779H66.268V125.446Z" fill="#F4F4F4"/>
<path d="M66.2675 66.3333H36.7568V110.667H66.2675V66.3333Z" fill="#F4F4F4"/>
<path d="M169.558 66.3333H140.047V110.667H169.558V66.3333Z" fill="#F4F4F4"/>
<path d="M169.561 110.667H154.804V169.779H169.561V110.667Z" fill="#F4F4F4"/>
<path d="M51.5141 125.446H36.7568V169.779H51.5141V125.446Z" fill="#F4F4F4"/>
<path d="M110.536 140.221H66.2676V169.775H110.536V140.221Z" fill="#F4F4F4"/>
<path d="M140.046 81.1124H66.2676V95.8914H140.046V81.1124Z" fill="#F4F4F4"/>
<path d="M110.535 110.667H36.7568V125.446H110.535V110.667Z" fill="#F4F4F4"/>
<path d="M169.557 36.779H95.7783V66.3333H169.557V36.779Z" fill="#F4F4F4"/>
<path d="M110.536 125.446H81.0254V140.225H110.536V125.446Z" fill="#787680"/>
<path d="M154.804 110.667H110.536V169.779H154.804V110.667Z" fill="#F4F4F4"/>
<path d="M66.2675 36.779V51.5543H51.5103V66.3333H36.7568V81.1124H66.2675H81.0248V36.779H66.2675Z" fill="white"/>
<path d="M66.268 36.779H51.5107V51.5581H66.268V36.779Z" fill="#262739"/>
<path d="M36.7572 66.3333H22V169.779H36.7572V66.3333Z" fill="#262739"/>
<path d="M184.319 36.779H169.562V169.779H184.319V36.779Z" fill="#262739"/>
<path d="M169.561 22H66.2676V36.779H169.561V22Z" fill="#262739"/>
<path d="M169.561 169.779H36.7568V184.558H169.561V169.779Z" fill="#262739"/>
<path d="M51.5141 51.5543H36.7568V66.3333H51.5141V51.5543Z" fill="#262739"/>
<path d="M95.7826 66.3333H81.0254V81.1124H95.7826V66.3333Z" fill="#47464F"/>
<path d="M95.7826 36.779H81.0254V66.3333H95.7826V36.779Z" fill="#C8C5D0"/>
<path d="M36.7568 81.1124V95.8914H81.0248V81.1124H36.7568Z" fill="#C8C5D0"/>
<path d="M140.439 155.212H125.682V258.446H140.439V155.212Z" fill="#262739"/>
<path d="M155 140.357H140.243V155.136H155V140.357Z" fill="#262739"/>
<path d="M288 155H273.243V258.446H288V155Z" fill="#262739"/>
<path d="M155.196 155.212V140.221H273.242V273.221H140.438V155.212H155.196Z" fill="white"/>
<path d="M258.493 140.225V125.446H155.193V140.225H258.493Z" fill="#262739"/>
<path d="M258.497 288.004V273.225H155.196V288.004H258.497Z" fill="#262739"/>
<path d="M228.975 155.212H214.218V169.991H228.975V155.212Z" fill="#3491FB"/>
<path d="M258.496 184.766H243.739V243.667H258.496V184.766Z" fill="#3491FB"/>
<path d="M243.74 199.545H228.982V228.888H243.74V199.545Z" fill="#3491FB"/>
<path d="M228.975 184.766H214.218V214.109H228.975V184.766Z" fill="#3491FB"/>
<path d="M214.237 155.212H199.479V199.364H214.237V155.212Z" fill="#3491FB"/>
<path d="M199.479 155.212H184.722V184.554H199.479V155.212Z" fill="#3491FB"/>
<path d="M184.706 155.212H169.949V199.333H184.706V155.212Z" fill="#3491FB"/>
<path d="M169.954 169.991H155.196V214.112H169.954V169.991Z" fill="#3491FB"/>
<path d="M228.975 228.888H243.732V243.666H243.728V258.446H169.949V243.666H155.196V214.113H169.949V199.333H184.722V184.766H199.479V199.333H214.217V214.113H228.975V228.888ZM243.739 169.991H258.485V184.77H243.739V199.545H228.982V184.77H214.218V169.991H228.982V155.211H243.739V169.991Z" fill="#A6C8FF"/>
<path d="M273.243 140.221H258.485V155H273.243V140.221Z" fill="#262739"/>
<path d="M273.243 258.446H258.485V273.225H273.243V258.446Z" fill="#262739"/>
<path d="M155.196 258.446H140.438V273.225H155.196V258.446Z" fill="#262739"/>
<path d="M125.685 155H110.928V169.779H125.685V155Z" fill="#C8C5D0"/>
<path d="M140.439 140.357H125.682V155.136H140.439V140.357Z" fill="#C8C5D0"/>
<path d="M155.196 125.446H140.438V140.225H155.196V125.446Z" fill="#C8C5D0"/>
</g>
<defs>
<clipPath id="clip0_2669_32142">
<rect width="266" height="266" fill="white" transform="translate(22 22)"/>
</clipPath>
</defs>
</svg>
