<svg width="265" height="265" viewBox="0 0 265 265" fill="none" xmlns="http://www.w3.org/2000/svg">
<g clip-path="url(#clip0_166_2)">
<path d="M172.89 0H91.52C67.25 0 43.97 9.64 26.81 26.81C9.64 43.97 0 67.25 0 91.52V172.88C0 184.9 2.37 196.8 6.96 207.9C11.56 219 18.3 229.09 26.8 237.59C35.3 246.09 45.39 252.83 56.49 257.43C67.59 262.03 79.5 264.39 91.51 264.39H172.87C184.89 264.39 196.79 262.02 207.89 257.42C218.99 252.82 229.08 246.08 237.58 237.58C246.08 229.08 252.82 218.99 257.42 207.89C262.02 196.79 264.39 184.89 264.39 172.87V91.52C264.39 67.25 254.75 43.97 237.59 26.81C220.43 9.65 197.16 0 172.89 0Z" fill="url(#paint0_radial_166_2)"/>
<g clip-path="url(#clip1_166_2)">
<path d="M264.38 173.62L237.61 149.15L228.75 152.98L226.48 162.2L261.56 195.49C263.37 188.35 264.32 181.01 264.37 173.61L264.38 173.62Z" fill="#E8EEFF"/>
<path d="M148.7 28.64C147.68 25.21 144.08 23.25 140.65 24.26L4.06 64.67C1.4 73.32 0 82.38 0 91.59V137.88L30.56 241.2C38.22 248.04 46.98 253.57 56.5 257.51C67.6 262.11 79.51 264.47 91.52 264.47H131.1L205.22 242.55C208.65 241.53 210.61 237.93 209.6 234.5L148.7 28.64Z" fill="url(#paint1_linear_166_2)"/>
<path d="M62.1925 66.3969L9.51909 81.9795C7.10942 82.6924 5.73326 85.2215 6.44533 87.6286C7.15741 90.0356 9.68808 91.4089 12.0977 90.6961L64.7712 75.1135C67.1808 74.4007 68.557 71.8715 67.8449 69.4645C67.1328 67.0575 64.6022 65.6841 62.1925 66.3969Z" fill="#80A1FF"/>
<path d="M82.0441 157.917L36.8023 171.301C34.3926 172.014 33.0165 174.543 33.7285 176.95C34.4406 179.357 36.9713 180.73 39.3809 180.017L84.6227 166.633C87.0324 165.92 88.4086 163.391 87.6965 160.984C86.9844 158.577 84.4537 157.204 82.0441 157.917Z" fill="#80A1FF"/>
<path d="M115.563 74.5729L16.0364 104.016C13.6268 104.729 12.2506 107.258 12.9627 109.665C13.6747 112.072 16.2054 113.446 18.6151 112.733L118.141 83.2894C120.551 82.5766 121.927 80.0474 121.215 77.6404C120.503 75.2334 117.972 73.86 115.563 74.5729Z" fill="#80A1FF"/>
<path d="M138.75 85.628L20.9087 120.49C18.4991 121.202 17.1229 123.732 17.835 126.139C18.5471 128.546 21.0777 129.919 23.4874 129.206L141.329 94.3446C143.739 93.6317 145.115 91.1026 144.403 88.6956C143.691 86.2885 141.16 84.9152 138.75 85.628Z" fill="#80A1FF"/>
<path d="M102.228 114.352L25.7832 136.967C23.3736 137.68 21.9974 140.209 22.7095 142.616C23.4216 145.023 25.9522 146.397 28.3619 145.684L104.807 123.069C107.217 122.356 108.593 119.827 107.881 117.42C107.169 115.013 104.638 113.639 102.228 114.352Z" fill="#80A1FF"/>
<path d="M138.851 121.446L30.6653 153.451C28.2557 154.164 26.8795 156.693 27.5916 159.1C28.3037 161.507 30.8343 162.881 33.244 162.168L141.429 130.163C143.839 129.45 145.215 126.921 144.503 124.514C143.791 122.107 141.26 120.734 138.851 121.446Z" fill="#80A1FF"/>
<path opacity="0.75" d="M152.41 41.19L195.03 185.29C190.19 186.26 185.19 186.78 180.06 186.78C138.41 186.78 104.64 153.01 104.64 111.36C104.64 79.47 124.44 52.23 152.41 41.19V41.19Z" fill="url(#paint2_radial_166_2)"/>
<path d="M160.064 235.083L186.53 227.253C187.362 227.007 187.836 226.134 187.591 225.302L187.588 225.293C187.342 224.461 186.468 223.987 185.637 224.233L159.171 232.062C158.339 232.308 157.865 233.182 158.111 234.013L158.113 234.023C158.359 234.854 159.233 235.329 160.064 235.083Z" fill="#80A1FF"/>
<path d="M150.764 244.029L188.21 232.951C189.041 232.705 189.516 231.831 189.27 231L189.267 230.99C189.021 230.159 188.147 229.684 187.316 229.93L149.87 241.008C149.039 241.254 148.564 242.127 148.81 242.959L148.813 242.969C149.059 243.8 149.932 244.275 150.764 244.029Z" fill="#80A1FF"/>
<path d="M180.07 42.49C142.04 42.49 111.21 73.32 111.21 111.35C111.21 149.38 142.04 180.21 180.07 180.21C218.1 180.21 248.93 149.38 248.93 111.35C248.93 73.32 218.1 42.49 180.07 42.49V42.49ZM180.07 163C151.54 163 128.42 139.87 128.42 111.35C128.42 82.82 151.55 59.7 180.07 59.7C208.6 59.7 231.72 82.83 231.72 111.35C231.72 139.88 208.59 163 180.07 163Z" fill="#E8EEFF"/>
<path opacity="0.25" d="M180.07 162.96C208.573 162.96 231.68 139.853 231.68 111.35C231.68 82.8466 208.573 59.74 180.07 59.74C151.567 59.74 128.46 82.8466 128.46 111.35C128.46 139.853 151.567 162.96 180.07 162.96Z" fill="url(#paint3_radial_166_2)"/>
<path opacity="0.2" d="M188.1 129.85C165.24 127.96 154.22 143.89 149.78 153.13C158.29 159.31 168.75 162.96 180.07 162.96C208.57 162.96 231.68 139.85 231.68 111.35C231.68 109.64 231.59 107.95 231.43 106.29C228.47 122.46 211.08 131.75 188.1 129.85V129.85Z" fill="url(#paint4_linear_166_2)"/>
<path d="M180.07 162.96C208.573 162.96 231.68 139.853 231.68 111.35C231.68 82.8466 208.573 59.74 180.07 59.74C151.567 59.74 128.46 82.8466 128.46 111.35C128.46 139.853 151.567 162.96 180.07 162.96Z" stroke="#80A1FF" stroke-width="3" stroke-miterlimit="10"/>
<path d="M261.96 158.61C257.5 154.83 250.88 155.1 246.75 159.23L236.46 169.52C232.07 173.91 232.07 181.02 236.46 185.41L257.88 206.83C262.17 196.05 264.4 184.57 264.4 172.96V160.69L261.96 158.62V158.61Z" fill="url(#paint5_linear_166_2)"/>
<path d="M241.41 190.36C241.41 190.36 250.72 167.62 268.18 163.89" stroke="white" stroke-width="3" stroke-miterlimit="10" stroke-linecap="round"/>
<path d="M248.78 197.71C248.78 197.71 258.31 174.44 276.18 170.62" stroke="white" stroke-width="3" stroke-miterlimit="10" stroke-linecap="round"/>
</g>
</g>
<defs>
<radialGradient id="paint0_radial_166_2" cx="0" cy="0" r="1" gradientUnits="userSpaceOnUse" gradientTransform="translate(-1.94283 0.752032) rotate(45) scale(373.35)">
<stop stop-color="#1C398B"/>
<stop offset="1" stop-color="#0D162F"/>
</radialGradient>
<linearGradient id="paint1_linear_166_2" x1="210" y1="111.5" x2="-36.5" y2="241" gradientUnits="userSpaceOnUse">
<stop stop-color="white"/>
<stop offset="1" stop-color="#CBD8FF"/>
</linearGradient>
<radialGradient id="paint2_radial_166_2" cx="0" cy="0" r="1" gradientUnits="userSpaceOnUse" gradientTransform="translate(267.5 84.0001) rotate(166.398) scale(240.238 439.503)">
<stop stop-color="#1854FF"/>
<stop offset="1" stop-color="#1854FF" stop-opacity="0"/>
</radialGradient>
<radialGradient id="paint3_radial_166_2" cx="0" cy="0" r="1" gradientUnits="userSpaceOnUse" gradientTransform="translate(114.5 80.5) rotate(27.8188) scale(132.854 132.854)">
<stop stop-color="#4B4BEA"/>
<stop offset="1" stop-color="#1854FF"/>
</radialGradient>
<linearGradient id="paint4_linear_166_2" x1="157.5" y1="166.5" x2="283" y2="99.5" gradientUnits="userSpaceOnUse">
<stop stop-color="white"/>
<stop offset="0.686223" stop-color="white" stop-opacity="0"/>
</linearGradient>
<linearGradient id="paint5_linear_166_2" x1="280" y1="162" x2="240.5" y2="209" gradientUnits="userSpaceOnUse">
<stop stop-color="#1854FF"/>
<stop offset="1" stop-color="#4B79FE"/>
</linearGradient>
<clipPath id="clip0_166_2">
<rect width="264.4" height="264.4" fill="white"/>
</clipPath>
<clipPath id="clip1_166_2">
<rect width="276.68" height="240.47" fill="white" transform="translate(0 24)"/>
</clipPath>
</defs>
</svg>
