<svg width="72" height="72" viewBox="0 0 72 72" fill="none" xmlns="http://www.w3.org/2000/svg">
<g clip-path="url(#clip0_32_104)">
<rect width="72" height="72" rx="12" fill="url(#paint0_linear_32_104)"/>
<circle cx="35.5057" cy="36.4547" r="16.5" transform="rotate(14.2846 35.5057 36.4547)" fill="url(#paint1_radial_32_104)" stroke="white" stroke-width="2"/>
<path d="M24.4103 36.2511C24.8373 36.6014 25.4674 36.5393 25.8177 36.1123C26.168 35.6854 26.1059 35.0553 25.679 34.7049L24.4103 36.2511ZM25.679 34.7049C22.2914 31.9253 19.6428 29.3006 18.0128 27.1632C17.1938 26.0894 16.6694 25.1867 16.4192 24.4846C16.1596 23.7559 16.2651 23.4583 16.3287 23.3633L14.667 22.2504C14.0778 23.1302 14.1956 24.2026 14.5352 25.1558C14.8843 26.1357 15.5462 27.227 16.4225 28.376C18.1828 30.6843 20.9605 33.4204 24.4103 36.2511L25.679 34.7049ZM55.335 49.4868C55.2736 49.5785 55.0525 49.7802 54.3283 49.8264C53.627 49.8711 52.6498 49.7518 51.4109 49.4365C48.945 48.8088 45.6763 47.4666 41.9799 45.5262L41.0503 47.297C44.8169 49.2743 48.2404 50.6932 50.9176 51.3747C52.2503 51.7139 53.4573 51.886 54.4556 51.8223C55.4311 51.7601 56.425 51.4534 56.9967 50.5997L55.335 49.4868ZM16.3287 23.3633C16.3759 23.293 16.5089 23.1603 16.9083 23.0782C17.3123 22.9951 17.8925 22.9869 18.6639 23.0932C20.2021 23.3053 22.2762 23.9398 24.7375 24.9726L25.5114 23.1284C22.9791 22.0658 20.7224 21.3581 18.937 21.112C18.0465 20.9892 17.2167 20.9729 16.5055 21.1192C15.7897 21.2663 15.1023 21.6004 14.667 22.2504L16.3287 23.3633ZM50.0965 41.7857C52.1728 43.791 53.7011 45.59 54.5817 47.0335C55.0235 47.7578 55.2715 48.3432 55.3665 48.7854C55.461 49.2256 55.384 49.4136 55.335 49.4868L56.9967 50.5997C57.4531 49.9183 57.4829 49.1148 57.3219 48.3653C57.1613 47.6178 56.7913 46.8153 56.2891 45.992C55.2815 44.3403 53.6171 42.4054 51.4859 40.3471L50.0965 41.7857Z" fill="white"/>
<circle cx="38.016" cy="44.8331" r="4" transform="rotate(14.2846 38.016 44.8331)" fill="#4B79FE" stroke="white" stroke-width="2"/>
<path d="M19.8212 57.31C20.0597 57.1722 20.0597 56.8278 19.8212 56.6907L17.6789 55.4542C17.2088 55.1827 16.8181 54.792 16.5466 54.322L15.3101 52.1789C15.1722 51.9404 14.8279 51.9404 14.6908 52.1789L13.4543 54.3212C13.1828 54.7913 12.7921 55.182 12.322 55.4535L10.179 56.6907C9.94045 56.8286 9.94045 57.1729 10.179 57.31L12.3213 58.5465C12.7914 58.818 13.1821 59.2087 13.4536 59.6788L14.6901 61.8211C14.8279 62.0596 15.1722 62.0596 15.3094 61.8211L16.5459 59.6788C16.8174 59.2087 17.2081 58.818 17.6781 58.5465L19.8212 57.31Z" fill="white"/>
<rect x="57.1213" y="13" width="3" height="3" transform="rotate(45 57.1213 13)" fill="white"/>
<circle cx="-14.5" cy="-6.5" r="34.5" fill="#D97706"/>
<circle cx="50.5" cy="82.5" r="18.5" fill="#D97706"/>
</g>
<defs>
<linearGradient id="paint0_linear_32_104" x1="36" y1="0" x2="36" y2="72" gradientUnits="userSpaceOnUse">
<stop stop-color="#FFC223"/>
<stop offset="1" stop-color="#FFA000"/>
</linearGradient>
<radialGradient id="paint1_radial_32_104" cx="0" cy="0" r="1" gradientUnits="userSpaceOnUse" gradientTransform="translate(33.0057 30.9547) rotate(66.6444) scale(23.9635)">
<stop stop-color="#E8EEFF"/>
<stop offset="1" stop-color="#80A1FF"/>
</radialGradient>
<clipPath id="clip0_32_104">
<rect width="72" height="72" rx="12" fill="white"/>
</clipPath>
</defs>
</svg>
