<svg width="72" height="72" viewBox="0 0 72 72" fill="none" xmlns="http://www.w3.org/2000/svg">
<rect width="72" height="72" rx="12" fill="url(#paint0_linear_545_248)"/>
<path d="M58.9909 27.2031C58.9925 25.08 57.765 23.1479 55.8424 22.2473L42.7162 16.0984C41.2491 15.4111 39.5526 15.4098 38.0844 16.0949L24.9491 22.2242C23.0251 23.1219 21.7948 25.0522 21.7932 27.1752L21.781 43.404C21.7794 45.5271 23.0069 47.4592 24.9295 48.3599L38.0557 54.5087C39.5229 55.196 41.2193 55.1973 42.6875 54.5122L55.8228 48.383C57.7468 47.4852 58.9771 45.555 58.9787 43.4319L58.9909 27.2031Z" fill="url(#paint1_angular_545_248)" stroke="white" stroke-width="2"/>
<path d="M57.8307 24.2661L56.6679 24.8087L54.3422 25.8939L49.6908 28.0643L40.3882 32.4052L31.092 28.0504L26.4439 25.873L24.1199 24.7844L22.9578 24.24" stroke="white" stroke-width="2"/>
<path d="M40.3879 32.5259L40.3715 54.5063" stroke="white" stroke-width="2"/>
<path d="M13 48.4999C13 53.1944 16.8056 56.9999 21.5 56.9999C26.1944 56.9999 30 53.1944 30 48.4999C30 43.8055 26.1944 39.9999 21.5 39.9999C16.8056 39.9999 13 43.8055 13 48.4999Z" fill="url(#paint2_radial_545_248)" stroke="white" stroke-width="2"/>
<path d="M19.8212 15.31C20.0597 15.1722 20.0597 14.8278 19.8212 14.6907L17.6789 13.4542C17.2088 13.1827 16.8181 12.792 16.5466 12.322L15.3101 10.1789C15.1722 9.94035 14.8279 9.94035 14.6908 10.1789L13.4543 12.3212C13.1828 12.7913 12.7921 13.182 12.322 13.4535L10.179 14.6907C9.94045 14.8286 9.94045 15.1729 10.179 15.31L12.3213 16.5465C12.7914 16.818 13.1821 17.2087 13.4536 17.6788L14.6901 19.8211C14.8279 20.0596 15.1722 20.0596 15.3094 19.8211L16.5459 17.6788C16.8174 17.2087 17.2081 16.818 17.6781 16.5465L19.8212 15.31Z" fill="white"/>
<defs>
<linearGradient id="paint0_linear_545_248" x1="36" y1="0" x2="36" y2="72" gradientUnits="userSpaceOnUse">
<stop stop-color="#BF68F4"/>
<stop offset="1" stop-color="#A003FF"/>
</linearGradient>
<radialGradient id="paint1_angular_545_248" cx="0" cy="0" r="1" gradientUnits="userSpaceOnUse" gradientTransform="translate(40.3881 32.405) rotate(90.0429) scale(29.2268 28.2383)">
<stop stop-color="#EBCBFF"/>
<stop offset="0.313493" stop-color="#DDA9FD"/>
<stop offset="0.686229" stop-color="#E2A9FD"/>
<stop offset="0.999738" stop-color="#D680FF"/>
</radialGradient>
<radialGradient id="paint2_radial_545_248" cx="0" cy="0" r="1" gradientUnits="userSpaceOnUse" gradientTransform="translate(23.4615 45.2524) rotate(119.055) scale(13.4635)">
<stop stop-color="#EBCBFF"/>
<stop offset="1" stop-color="#C780FF"/>
</radialGradient>
</defs>
</svg>
