<svg width="310" height="310" viewBox="0 0 310 310" fill="none" xmlns="http://www.w3.org/2000/svg">
<rect width="310" height="310" fill="white"/>
<path d="M77.7949 134.953L77.7949 149.004L176.15 149.004L176.15 134.953L77.7949 134.953Z" fill="#74ADFF"/>
<path d="M91.8457 120.902L91.8457 134.953L162.1 134.953L162.1 120.902L91.8457 120.902Z" fill="#74ADFF"/>
<path d="M77.7949 134.953L77.7949 163.055L119.947 163.055L119.947 134.953L77.7949 134.953Z" fill="#74ADFF"/>
<path d="M77.7949 149.004L77.7949 177.106L105.896 177.106L105.896 149.004L77.7949 149.004Z" fill="#74ADFF"/>
<path d="M77.7949 177.106L77.7949 247.447L91.8457 247.447L91.8457 177.106L77.7949 177.106Z" fill="#74ADFF"/>
<path d="M133.924 134.953L133.924 163.055L176.076 163.055L176.076 134.953L133.924 134.953Z" fill="#74ADFF"/>
<path d="M148.049 149.004L148.049 177.106L176.076 177.106L176.076 149.004L148.049 149.004Z" fill="#74ADFF"/>
<path d="M162.1 177.106L162.1 247.447L176.076 247.447L176.076 177.106L162.1 177.106Z" fill="#74ADFF"/>
<path d="M190.127 163.055L190.127 177.106L232.279 177.106L232.279 163.055L190.127 163.055Z" fill="#FFB955"/>
<path d="M190.127 177.105L190.127 191.156L218.303 191.156L218.303 177.105L190.127 177.105Z" fill="#FFB955"/>
<path d="M147.975 50.6487L147.975 64.6995L218.229 64.6995L218.229 50.6487L147.975 50.6487Z" fill="#FFB955"/>
<path d="M133.924 64.6995L133.924 78.7503L176.076 78.7503L176.076 64.6995L133.924 64.6995Z" fill="#FFB955"/>
<path d="M190.127 64.6995L190.127 78.7503L232.279 78.7503L232.279 64.6995L190.127 64.6995Z" fill="#FFB955"/>
<path d="M218.229 78.75L218.229 92.8008L232.279 92.8008L232.279 78.75L218.229 78.75Z" fill="#FFB955"/>
<path d="M133.924 78.75L133.924 92.8008L147.975 92.8008L147.975 78.75L133.924 78.75Z" fill="#FFB955"/>
<path d="M133.924 92.801L133.924 120.903L162.1 120.903L162.1 92.801L133.924 92.801Z" fill="#FFB955"/>
<path d="M176.113 92.801L176.113 120.903L190.201 120.903L190.201 92.801L176.113 92.801Z" fill="#FFB955"/>
<path d="M204.252 92.801L204.252 120.903L232.279 120.903L232.279 92.801L204.252 92.801Z" fill="#FFB955"/>
<path d="M190.201 120.903L190.201 134.953L232.279 134.953L232.279 120.903L190.201 120.903Z" fill="#FFB955"/>
<path d="M162.062 120.903L162.062 134.953L176.076 134.953L176.076 120.903L162.062 120.903Z" fill="#262739"/>
<path d="M204.178 134.953L204.178 149.004L232.279 149.004L232.279 134.953L204.178 134.953Z" fill="#FFB955"/>
<path d="M218.303 149.004L218.303 163.055L232.279 163.055L232.279 149.004L218.303 149.004Z" fill="#FFB955"/>
<path d="M190.127 149.005L190.127 191.157L204.252 191.157L204.252 149.005L190.127 149.005Z" fill="#EA9A00"/>
<path d="M133.998 106.853L133.998 120.859L162.063 120.859L162.063 106.853L133.998 106.853Z" fill="#EA9A00"/>
<path d="M162.137 106.853L162.137 120.859L176.076 120.859L176.076 106.853L162.137 106.853Z" fill="#EDF2FD"/>
<path d="M176.076 120.947L176.076 134.953L190.201 134.953L190.201 120.947L176.076 120.947Z" fill="#EDF2FD"/>
<path d="M190.127 134.999L190.127 149.005L204.252 149.005L204.252 134.999L190.127 134.999Z" fill="#EDF2FD"/>
<path d="M105.896 205.207L105.896 233.309L148.049 233.309L148.049 205.207L105.896 205.207Z" fill="#74ADFF"/>
<path d="M91.8457 233.309L91.8457 261.41L162.1 261.41L162.1 233.309L91.8457 233.309Z" fill="#74ADFF"/>
<path d="M119.947 163.055L119.947 177.106L133.998 177.106L133.998 163.055L119.947 163.055Z" fill="#74ADFF"/>
<path d="M162.1 247.359L162.1 261.41L176.15 261.41L176.15 247.359L162.1 247.359Z" fill="#262739"/>
<path d="M91.8457 261.41L91.8457 275.461L162.1 275.461L162.1 261.41L91.8457 261.41Z" fill="#262739"/>
<path d="M77.7949 247.359L77.7949 261.41L91.8457 261.41L91.8457 247.359L77.7949 247.359Z" fill="#262739"/>
<path d="M176.076 191.157L176.076 247.447L190.127 247.447L190.127 191.157L176.076 191.157Z" fill="#262739"/>
<path d="M218.303 177.019L218.303 191.156L232.354 191.156L232.354 177.019L218.303 177.019Z" fill="#262739"/>
<path d="M218.303 50.6487L218.303 64.7864L232.354 64.7864L232.354 50.6487L218.303 50.6487Z" fill="#262739"/>
<path d="M133.998 50.6487L133.998 64.7864L148.049 64.7864L148.049 50.6487L133.998 50.6487Z" fill="#262739"/>
<path d="M148.049 36.5118L148.049 50.6495L218.303 50.6495L218.303 36.5118L148.049 36.5118Z" fill="#262739"/>
<path d="M232.354 64.6995L232.354 177.019L246.404 177.019L246.404 64.6995L232.354 64.6995Z" fill="#262739"/>
<path d="M63.8184 134.953L63.8184 247.447L77.8691 247.447L77.8691 134.953L63.8184 134.953Z" fill="#262739"/>
<path d="M119.873 64.6995L119.873 120.902L133.924 120.902L133.924 64.6995L119.873 64.6995Z" fill="#262739"/>
<path d="M133.982 106.851H91.8291V120.902H133.982V106.851Z" fill="#262739"/>
<path d="M91.8461 120.903H77.7949V134.953H91.8461V120.903Z" fill="#262739"/>
<path d="M184.639 191.156L184.639 205.293L218.303 205.293L218.303 191.156L184.639 191.156Z" fill="#262739"/>
<path d="M105.896 177.106L105.896 191.157L148.049 191.157L148.049 177.106L105.896 177.106Z" fill="#74ADFF"/>
<path d="M190.127 191.156H176.076V134.953H190.127V191.156Z" fill="#262739"/>
</svg>
