<svg width="529" height="296" viewBox="0 0 529 296" fill="none" xmlns="http://www.w3.org/2000/svg">
<rect width="529" height="296" fill="#FF6B00"/>
<path d="M367.673 165.77C393.036 169.434 415.926 156.287 418.798 136.404C421.671 116.522 403.439 97.4328 378.077 93.7682C352.714 90.1036 329.825 103.251 326.952 123.134C324.079 143.016 342.311 162.105 367.673 165.77Z" fill="#F1F5F9"/>
<path d="M338.035 143.433C342.649 143.446 346.41 136.538 346.436 128.002C346.461 119.466 342.741 112.534 338.127 112.521C333.513 112.507 329.752 119.415 329.727 127.952C329.701 136.488 333.421 143.419 338.035 143.433Z" fill="#E0E3ED"/>
<path d="M339.356 141.027C343.243 141.039 346.411 135.207 346.432 128.002C346.454 120.797 343.321 114.947 339.434 114.935C335.548 114.924 332.38 120.755 332.358 127.96C332.336 135.165 335.47 141.015 339.356 141.027Z" fill="#4B79FE"/>
<path d="M391.886 130.508C393.478 128.486 393.412 125.779 391.739 124.462C390.066 123.144 387.419 123.715 385.827 125.736C384.235 127.758 384.3 130.465 385.974 131.782C387.647 133.1 390.294 132.529 391.886 130.508Z" fill="#4B79FE"/>
<path d="M411.525 151.987L356.047 222.412C354.995 223.723 353.471 224.569 351.803 224.77C350.134 224.971 348.453 224.51 347.12 223.485L336.269 215.003C335.02 214.003 334.188 212.573 333.937 210.993C333.686 209.413 334.033 207.796 334.911 206.458L362.679 164.872L411.525 151.987Z" fill="#F1F5F9"/>
<path d="M357.239 220.928L356.057 222.381C355.005 223.692 353.481 224.538 351.812 224.739C350.143 224.94 348.462 224.479 347.129 223.454L336.279 214.971C335.029 213.972 334.198 212.542 333.947 210.962C333.695 209.382 334.043 207.765 334.921 206.427L336.232 204.442L357.239 220.928Z" fill="#A9BEFD"/>
<path d="M379.133 166.329C379.133 166.329 368.457 176.88 356.92 173.731L362.965 164.925C368.278 166.042 373.707 166.513 379.133 166.329V166.329Z" fill="#E0E3ED"/>
<path d="M344.305 202.974L350.714 194.85L353.422 196.987C353.935 197.399 354.273 197.992 354.367 198.644C354.461 199.296 354.305 199.96 353.929 200.501V200.501C353.496 201.036 352.871 201.381 352.187 201.461C351.503 201.541 350.815 201.351 350.27 200.93L347.544 198.856" stroke="#4B79FE" stroke-width="3.21331" stroke-miterlimit="10" stroke-linecap="round"/>
<path d="M350.304 201.042L349.099 206.755" stroke="#4B79FE" stroke-width="3.21331" stroke-miterlimit="10" stroke-linecap="round"/>
<path d="M165.068 168.103C190.341 163.861 208.132 144.361 204.807 124.549C201.481 104.737 178.298 92.1152 153.025 96.3572C127.753 100.599 109.961 120.099 113.287 139.911C116.612 159.723 139.795 172.345 165.068 168.103Z" fill="#F1F5F9"/>
<path d="M194.211 145.065C198.824 144.946 202.384 137.932 202.164 129.399C201.944 120.865 198.026 114.044 193.414 114.163C188.801 114.282 185.24 121.296 185.46 129.83C185.681 138.363 189.598 145.184 194.211 145.065Z" fill="#E0E3ED"/>
<path d="M192.858 142.71C196.743 142.61 199.742 136.689 199.556 129.487C199.37 122.284 196.07 116.526 192.185 116.627C188.3 116.727 185.301 122.647 185.487 129.85C185.673 137.053 188.973 142.81 192.858 142.71Z" fill="#4B79FE"/>
<path d="M146.012 134.545C147.655 133.19 147.659 130.482 146.021 128.497C144.383 126.513 141.724 126.002 140.081 127.358C138.439 128.713 138.435 131.421 140.073 133.406C141.71 135.391 144.37 135.901 146.012 134.545Z" fill="#4B79FE"/>
<path d="M120.907 155.263L177.992 224.409C179.072 225.694 180.612 226.504 182.282 226.668C183.952 226.833 185.62 226.337 186.929 225.288L197.48 216.579C198.709 215.553 199.511 214.104 199.727 212.517C199.944 210.93 199.561 209.32 198.652 208.001L170.034 167.122L120.907 155.263Z" fill="#F1F5F9"/>
<path d="M176.786 222.967L177.992 224.41C179.072 225.694 180.612 226.505 182.282 226.669C183.952 226.833 185.62 226.337 186.929 225.288L197.48 216.58C198.709 215.553 199.51 214.105 199.727 212.518C199.944 210.931 199.561 209.32 198.652 208.001L197.27 206.034L176.786 222.967Z" fill="#A9BEFD"/>
<path d="M153.633 168.906C153.633 168.906 164.571 179.196 176.039 175.74L169.892 167.146C164.605 168.62 159.112 169.215 153.633 168.906V168.906Z" fill="#E0E3ED"/>
<path d="M177.969 200.585L184.589 208.617L189.307 204.715" stroke="#4B79FE" stroke-width="3.21331" stroke-miterlimit="10" stroke-linecap="round"/>
<path d="M213.68 128.329L224.36 128.228C226.241 128.23 227.904 130.047 228.433 132.829L231.022 145.377C232.418 151.816 238.629 151.057 239.244 144.525L241.759 118.215C242.434 111.265 249.095 111.013 250.076 117.93L253.171 139.837C254.154 146.856 261.004 146.425 261.493 139.318L264.166 102.575C264.68 95.2733 271.729 95.0717 272.505 102.33L276.501 138.352C277.239 145.296 283.892 145.511 284.804 138.667L286.883 123.479C287.744 117.022 293.723 116.696 295.051 122.913C295.618 125.572 297.281 127.389 299.14 127.351L318.596 127.003" stroke="url(#paint0_linear_97_394)" stroke-width="6.14303" stroke-miterlimit="10" stroke-linecap="round"/>
<path d="M469.534 229.548L461 244L452.452 229.548L438 221L452.452 212.466L461 198L469.534 212.466L484 221L469.534 229.548Z" fill="white"/>
<path d="M96.8027 234.401L85.4014 223L74 234.401L85.4014 245.803L96.8027 234.401Z" fill="white"/>
<path d="M234.803 52.4014L223.401 41L212 52.4014L223.401 63.8028L234.803 52.4014Z" fill="white"/>
<defs>
<linearGradient id="paint0_linear_97_394" x1="319.781" y1="123.207" x2="212.952" y2="130.535" gradientUnits="userSpaceOnUse">
<stop stop-color="#2DD4BF"/>
<stop offset="1" stop-color="#8A15FF"/>
</linearGradient>
</defs>
</svg>
