<svg width="529" height="296" viewBox="0 0 529 296" fill="none" xmlns="http://www.w3.org/2000/svg">
<rect width="529" height="296" fill="#00B5CE"/>
<path d="M204.5 124L213.5 67.5L327 231L263.5 226.5L222.845 255.539C214.995 261.146 203.97 257.993 200.272 249.083L166 166.5L168.5 155L204.5 124Z" fill="url(#paint0_radial_97_395)"/>
<rect x="258.923" y="114.07" width="100.359" height="100.359" rx="6.08236" transform="rotate(12.039 258.923 114.07)" fill="white"/>
<rect x="268.283" y="128.504" width="76.0294" height="69.9471" transform="rotate(12.039 268.283 128.504)" fill="url(#paint1_linear_97_395)"/>
<path d="M313.27 163.671C316.893 163.235 319.471 159.929 319.02 156.317C318.568 152.704 315.278 150.115 311.665 150.566C308.053 151.018 305.464 154.308 305.915 157.921C306.367 161.533 309.657 164.122 313.27 163.671Z" fill="url(#paint2_radial_97_395)"/>
<path d="M258.892 172.912L268.471 168.329C269.906 167.756 271.491 167.651 273.002 168.017C274.512 168.384 275.857 169.209 276.87 170.378L282.731 177.167L290.422 175.69C293.15 175.171 295.966 175.711 298.307 177.179L308.287 183.436C310.029 184.529 311.947 185.308 313.961 185.741L332.934 189.799L328.775 209.241C328.57 210.206 327.988 211.055 327.146 211.595C326.314 212.14 325.303 212.312 324.337 212.107L255.874 197.454C255.305 197.334 254.811 196.994 254.496 196.497C254.176 196.011 254.072 195.418 254.193 194.848L258.899 172.902L258.892 172.912Z" fill="#ECEFF7"/>
<path d="M290.262 180.677L313.992 185.76C311.977 185.327 310.06 184.547 308.317 183.454L298.385 177.212C296.034 175.738 293.212 175.208 290.5 175.723L282.809 177.2C284.29 178.749 286.2 179.818 288.293 180.284L290.273 180.683L290.262 180.677Z" fill="#E0E3ED"/>
<path fill-rule="evenodd" clip-rule="evenodd" d="M332.237 193.037L328.763 209.261C328.558 210.226 327.975 211.076 327.133 211.615C326.302 212.161 325.29 212.333 324.325 212.128L270.668 200.638C273.215 199.424 275.82 197.421 277.628 194.238C280.023 190.014 287.065 191.58 294.228 193.178C300.79 194.637 307.447 196.125 310.778 193.219C315.335 189.251 318.535 189.966 327.841 192.061C329.169 192.359 330.635 192.685 332.237 193.037V193.037Z" fill="#E0E3ED"/>
<path d="M319.98 192.639L331.853 195.178L328.853 209.203C328.42 211.218 326.44 212.51 324.415 212.07L279.065 202.366C281.106 199.631 283.883 197.55 287.072 196.36C290.261 195.17 293.732 194.903 297.054 195.622L301.026 196.468C302.748 196.739 304.482 196.919 306.219 197.003C307.701 197.115 309.188 196.895 310.582 196.367C311.975 195.84 313.236 195.022 314.281 193.963C315.224 192.954 316.971 192.025 319.978 192.665L319.98 192.639Z" fill="#80A1FF"/>
<path d="M319.98 192.639L331.853 195.178L328.853 209.203C328.42 211.218 326.44 212.51 324.415 212.07L279.065 202.366C281.106 199.631 283.883 197.55 287.072 196.36C290.261 195.17 293.732 194.903 297.054 195.622L301.026 196.468C302.748 196.739 304.482 196.919 306.219 197.003C307.701 197.115 309.188 196.895 310.582 196.367C311.975 195.84 313.236 195.022 314.281 193.963C315.224 192.954 316.971 192.025 319.978 192.665L319.98 192.639Z" fill="url(#paint3_linear_97_395)" fill-opacity="0.5"/>
<rect x="254.328" y="193.938" width="3.04118" height="3.04118" transform="rotate(12.039 254.328 193.938)" fill="#ECEFF7"/>
<rect x="325.711" y="209.162" width="3.04118" height="3.04118" transform="rotate(12.039 325.711 209.162)" fill="#6F94FF"/>
<path fill-rule="evenodd" clip-rule="evenodd" d="M322.336 127.593L264.871 115.338C261.586 114.638 258.355 116.733 257.654 120.018L239.259 206.273C238.558 209.558 240.654 212.789 243.939 213.49L273.543 219.803L298.369 205.345C305.019 201.472 307.271 192.94 303.398 186.29L293.036 168.498L312.104 168.395C317.876 168.364 322.531 163.659 322.499 157.887L322.336 127.593Z" fill="url(#paint4_linear_97_395)"/>
<rect x="213.471" y="61.2263" width="100.359" height="100.359" rx="6.08236" transform="rotate(-0.30967 213.471 61.2263)" fill="white"/>
<rect x="225.701" y="73.3254" width="76.0294" height="69.9471" transform="rotate(-0.30967 225.701 73.3254)" fill="#E8EEFF"/>
<path d="M251.127 104.281C254.573 103.081 256.385 99.2997 255.171 95.867C253.958 92.4344 250.19 90.609 246.757 91.8227C243.325 93.0363 241.499 96.804 242.713 100.237C243.927 103.669 247.694 105.495 251.127 104.281Z" fill="url(#paint5_radial_97_395)"/>
<path d="M225.901 102.216L232.805 102.179C234.483 102.17 236.149 101.898 237.744 101.375L239.8 100.7C243.019 99.6434 246.494 99.6497 249.709 100.718V100.718C252.345 101.594 255.189 101.618 257.839 100.787L258.621 100.542C261.879 99.5201 265.375 99.5418 268.62 100.604V100.604C271.32 101.488 274.228 101.511 276.942 100.672L277.389 100.533C280.895 99.4482 284.647 99.4522 288.151 100.545L289.822 101.066C291.503 101.59 293.255 101.852 295.016 101.842L301.93 101.805L302.152 142.86L226.123 143.271L225.901 102.216Z" fill="url(#paint6_linear_97_395)"/>
<path d="M226.025 125.024V125.024C250.915 119.87 276.579 119.697 301.536 124.513L302.053 124.613L302.152 142.86L226.124 143.271L226.025 125.024Z" fill="#FDE68A"/>
<path d="M226.074 134.148V134.148C249.231 119.983 278.31 119.735 301.705 133.503L302.102 133.737L302.152 142.86L226.123 143.271L226.074 134.148Z" fill="#FEF3C7"/>
<path fill-rule="evenodd" clip-rule="evenodd" d="M288.774 161.179L220.096 161.551C216.736 161.569 213.999 158.86 213.98 155.501L213.782 118.711L239.269 103.867C245.92 99.9939 254.451 102.245 258.325 108.896L288.774 161.179Z" fill="url(#paint7_linear_97_395)"/>
<rect x="161.508" y="159.034" width="100.359" height="100.359" rx="6.08236" transform="rotate(-30.2161 161.508 159.034)" fill="white"/>
<rect x="178.142" y="163.424" width="76.0294" height="69.9471" transform="rotate(-30.2161 178.142 163.424)" fill="#E8EEFF"/>
<path d="M236.617 161.831C239.006 159.072 238.691 154.891 235.928 152.521C233.164 150.15 228.988 150.446 226.618 153.21C224.247 155.973 224.544 160.149 227.307 162.52C230.071 164.89 234.247 164.594 236.617 161.831Z" fill="url(#paint8_radial_97_395)"/>
<path d="M271.888 173.338L277.512 182.977L279.043 185.605L275.68 187.564L247.596 203.911L237.543 186.639L239.426 179.139C239.903 177.207 240.773 175.395 241.989 173.815C243.198 172.245 244.724 170.93 246.464 169.959C248.197 168.998 250.122 168.395 252.101 168.201C254.091 168.013 256.082 168.229 257.981 168.841L271.888 173.338Z" fill="url(#paint9_linear_97_395)"/>
<path d="M199.382 189.14L197.505 196.629L197.492 196.649L212.229 221.934L213.348 223.855L215.28 222.73L264.708 193.953L217.926 178.835C216.028 178.223 214.026 178.001 212.047 178.195C210.067 178.389 208.149 178.982 206.409 179.953C204.676 180.914 203.16 182.236 201.944 183.816C200.728 185.396 199.858 187.208 199.382 189.14Z" fill="#2DD4BF"/>
<path d="M394.534 80.5483L386 95L377.452 80.5483L363 72L377.452 63.4663L386 49L394.534 63.4663L409 72L394.534 80.5483Z" fill="white"/>
<path d="M121.803 127.401L110.401 116L99 127.401L110.401 138.803L121.803 127.401Z" fill="white"/>
<path d="M431.803 217.401L420.401 206L409 217.401L420.401 228.803L431.803 217.401Z" fill="white"/>
<defs>
<radialGradient id="paint0_radial_97_395" cx="0" cy="0" r="1" gradientUnits="userSpaceOnUse" gradientTransform="translate(280.5 116.5) rotate(115.876) scale(167.27 135.329)">
<stop stop-color="#006F92"/>
<stop offset="1" stop-color="#00B5CE" stop-opacity="0"/>
</radialGradient>
<linearGradient id="paint1_linear_97_395" x1="306.297" y1="128.504" x2="306.297" y2="198.451" gradientUnits="userSpaceOnUse">
<stop stop-color="#E8EEFF"/>
<stop offset="1" stop-color="#A9BEFD"/>
</linearGradient>
<radialGradient id="paint2_radial_97_395" cx="0" cy="0" r="1" gradientUnits="userSpaceOnUse" gradientTransform="translate(307.854 154.035) rotate(36.6289) scale(15.018 15.018)">
<stop stop-color="#FBBF24"/>
<stop offset="1" stop-color="#F59E0B"/>
</radialGradient>
<linearGradient id="paint3_linear_97_395" x1="300.61" y1="193.856" x2="332.401" y2="225.951" gradientUnits="userSpaceOnUse">
<stop stop-color="#1854FF"/>
<stop offset="1" stop-color="#7E9FFE"/>
</linearGradient>
<linearGradient id="paint4_linear_97_395" x1="264.172" y1="159.903" x2="307.186" y2="182.094" gradientUnits="userSpaceOnUse">
<stop stop-color="#4B79FE"/>
<stop offset="1" stop-color="#4B79FE" stop-opacity="0"/>
</linearGradient>
<radialGradient id="paint5_radial_97_395" cx="0" cy="0" r="1" gradientUnits="userSpaceOnUse" gradientTransform="translate(243.776 96.0262) rotate(24.2803) scale(15.018 15.018)">
<stop stop-color="#FBBF24"/>
<stop offset="1" stop-color="#F59E0B"/>
</radialGradient>
<linearGradient id="paint6_linear_97_395" x1="263.874" y1="94.4076" x2="264.137" y2="143.066" gradientUnits="userSpaceOnUse">
<stop stop-color="#416FEF"/>
<stop offset="1" stop-color="#4C7AFF"/>
</linearGradient>
<linearGradient id="paint7_linear_97_395" x1="228.271" y1="173.974" x2="255.32" y2="123.731" gradientUnits="userSpaceOnUse">
<stop stop-color="#1854FF"/>
<stop offset="1" stop-color="#1854FF" stop-opacity="0"/>
</linearGradient>
<radialGradient id="paint8_radial_97_395" cx="0" cy="0" r="1" gradientUnits="userSpaceOnUse" gradientTransform="translate(226.129 158.34) rotate(-5.62609) scale(15.018 15.018)">
<stop stop-color="#FBBF24"/>
<stop offset="1" stop-color="#F59E0B"/>
</radialGradient>
<linearGradient id="paint9_linear_97_395" x1="256.72" y1="177.49" x2="252.763" y2="200.91" gradientUnits="userSpaceOnUse">
<stop stop-color="#0D9488"/>
<stop offset="1" stop-color="#0F766E"/>
</linearGradient>
</defs>
</svg>
