<svg width="529" height="296" viewBox="0 0 529 296" fill="none" xmlns="http://www.w3.org/2000/svg">
<rect width="529" height="296" fill="#0066FF"/>
<path d="M187.5 129.5C187.5 144.136 176.5 151.4 160.5 161C143 171.5 119 155 130.5 131.5C137 116 144.364 102.5 159 102.5C173.635 102.5 187.5 114.864 187.5 129.5Z" fill="url(#paint0_linear_97_397)"/>
<path d="M291.004 129.5C291.004 144.136 280.004 151.4 264.004 161C246.504 171.5 222.505 155 234.005 131.5C240.505 116 247.869 102.5 262.504 102.5C277.14 102.5 291.004 114.864 291.004 129.5Z" fill="url(#paint1_linear_97_397)"/>
<path d="M394.004 129.5C394.004 144.136 383.004 151.4 367.004 161C349.504 171.5 325.505 155 337.005 131.5C343.505 116 350.869 102.5 365.504 102.5C380.14 102.5 394.004 114.864 394.004 129.5Z" fill="url(#paint2_linear_97_397)"/>
<circle cx="161.333" cy="128.5" r="26.5" fill="white"/>
<circle cx="264.5" cy="128.5" r="26.5" fill="white"/>
<circle cx="367.667" cy="128.5" r="26.5" fill="white"/>
<path d="M215.833 195L215.833 196.333C215.833 222.107 236.727 243 262.5 243L266.5 243C292.273 243 313.167 222.107 313.167 196.333L313.167 195" stroke="#00FFF0" stroke-width="18.6667" stroke-linecap="round"/>
<path d="M120.534 228.548L112 243L103.452 228.548L89 220L103.452 211.466L112 197L120.534 211.466L135 220L120.534 228.548Z" fill="white"/>
<path d="M428.803 195.401L417.401 184L406 195.401L417.401 206.803L428.803 195.401Z" fill="white"/>
<path d="M227.803 53.4014L216.401 42L205 53.4014L216.401 64.8028L227.803 53.4014Z" fill="white"/>
<defs>
<linearGradient id="paint0_linear_97_397" x1="178.5" y1="116" x2="127.5" y2="165" gradientUnits="userSpaceOnUse">
<stop offset="0.326787" stop-color="#1C398B"/>
<stop offset="0.846931" stop-color="#0066FF" stop-opacity="0"/>
</linearGradient>
<linearGradient id="paint1_linear_97_397" x1="282.005" y1="116" x2="231.005" y2="165" gradientUnits="userSpaceOnUse">
<stop offset="0.326787" stop-color="#1C398B"/>
<stop offset="0.846931" stop-color="#0066FF" stop-opacity="0"/>
</linearGradient>
<linearGradient id="paint2_linear_97_397" x1="385.005" y1="116" x2="334.005" y2="165" gradientUnits="userSpaceOnUse">
<stop offset="0.326787" stop-color="#1C398B"/>
<stop offset="0.846931" stop-color="#0066FF" stop-opacity="0"/>
</linearGradient>
</defs>
</svg>
