<svg width="529" height="296" viewBox="0 0 529 296" fill="none" xmlns="http://www.w3.org/2000/svg">
<rect width="529" height="296" fill="#002694"/>
<path d="M314.29 84.8561C314.29 81.2803 311.348 78.4044 307.773 78.4853L201.688 80.8845C198.372 80.9595 195.668 83.5648 195.471 86.8751L187.266 224.176C187.039 227.965 190.154 231.11 193.945 230.921L308.236 225.206C311.627 225.037 314.29 222.237 314.29 218.842V84.8561Z" fill="url(#paint0_linear_96_344)"/>
<rect x="195.586" y="71.9656" width="127.448" height="152.938" rx="6.37241" fill="url(#paint1_linear_96_344)"/>
<rect x="228.172" y="97.3103" width="65.1724" height="7.24138" rx="3.62069" fill="#80A1FF"/>
<rect x="220.931" y="111.793" width="79.6552" height="7.24138" rx="3.62069" fill="#80A1FF"/>
<rect x="210.069" y="126.276" width="101.379" height="7.24138" rx="3.62069" fill="#80A1FF"/>
<rect x="235.414" y="140.759" width="50.6897" height="7.24138" rx="3.62069" fill="#80A1FF"/>
<rect x="224.552" y="169.724" width="72.4138" height="7.24138" rx="3.62069" fill="#80A1FF"/>
<rect x="213.69" y="184.207" width="94.1379" height="7.24138" rx="3.62069" fill="#80A1FF"/>
<rect x="231.793" y="198.69" width="57.931" height="7.24138" rx="3.62069" fill="#80A1FF"/>
<path fill-rule="evenodd" clip-rule="evenodd" d="M242.655 71.9656C242.655 95.9614 223.203 115.414 199.207 115.414C197.988 115.414 196.78 115.364 195.586 115.265V78.338C195.586 74.8186 198.439 71.9656 201.959 71.9656H242.655Z" fill="url(#paint2_radial_96_344)"/>
<path fill-rule="evenodd" clip-rule="evenodd" d="M323.034 94.8787V179.397C303.929 174.83 289.724 157.643 289.724 137.138C289.724 116.633 303.929 99.4454 323.034 94.8787Z" fill="url(#paint3_radial_96_344)"/>
<path fill-rule="evenodd" clip-rule="evenodd" d="M286.095 224.903H201.959C200.973 224.903 200.04 224.68 199.208 224.281C199.207 224.199 199.207 224.117 199.207 224.034C199.207 200.039 218.659 180.586 242.655 180.586C266.651 180.586 286.103 200.039 286.103 224.034C286.103 224.325 286.101 224.614 286.095 224.903Z" fill="url(#paint4_radial_96_344)"/>
<circle cx="199.207" cy="71.9655" r="25.3448" fill="#4F46E5" stroke="white" stroke-width="7.24138"/>
<path d="M188.345 66.5345C188.345 64.5349 189.966 62.9138 191.965 62.9138H206.448C208.448 62.9138 210.069 64.5349 210.069 66.5345V66.5345C210.069 68.5342 208.448 70.1552 206.448 70.1552H191.965C189.966 70.1552 188.345 68.5342 188.345 66.5345V66.5345Z" fill="white"/>
<path d="M188.345 77.3966C188.345 75.3969 189.966 73.7759 191.965 73.7759H199.207C201.206 73.7759 202.828 75.3969 202.828 77.3966V77.3966C202.828 79.3962 201.206 81.0173 199.207 81.0173H191.965C189.966 81.0173 188.345 79.3962 188.345 77.3966V77.3966Z" fill="white"/>
<path d="M222.972 108.445L207.565 98.9399L219.529 90.5801L222.972 108.445Z" fill="white"/>
<circle cx="242.655" cy="224.034" r="25.3448" fill="#4F46E5" stroke="white" stroke-width="7.24138"/>
<path d="M231.793 218.603C231.793 216.604 233.414 214.983 235.414 214.983H249.897C251.896 214.983 253.517 216.604 253.517 218.603V218.603C253.517 220.603 251.896 222.224 249.897 222.224H235.414C233.414 222.224 231.793 220.603 231.793 218.603V218.603Z" fill="white"/>
<path d="M231.793 229.465C231.793 227.466 233.414 225.845 235.414 225.845H242.655C244.655 225.845 246.276 227.466 246.276 229.465V229.465C246.276 231.465 244.655 233.086 242.655 233.086H235.414C233.414 233.086 231.793 231.465 231.793 229.465V229.465Z" fill="white"/>
<path d="M270.133 190.936L265.073 208.318L253.829 199.012L270.133 190.936Z" fill="white"/>
<circle cx="333.172" cy="137.138" r="25.3448" fill="#4F46E5" stroke="white" stroke-width="7.24138"/>
<path d="M322.31 131.707C322.31 129.707 323.931 128.086 325.931 128.086H340.414C342.413 128.086 344.034 129.707 344.034 131.707V131.707C344.034 133.707 342.413 135.328 340.414 135.328H325.931C323.931 135.328 322.31 133.707 322.31 131.707V131.707Z" fill="white"/>
<path d="M322.31 142.569C322.31 140.569 323.931 138.948 325.931 138.948H333.172C335.172 138.948 336.793 140.569 336.793 142.569V142.569C336.793 144.569 335.172 146.19 333.172 146.19H325.931C323.931 146.19 322.31 144.569 322.31 142.569V142.569Z" fill="white"/>
<path d="M297.223 159.182L307.826 144.508L315.292 157.05L297.223 159.182Z" fill="white"/>
<path d="M426.534 62.5483L418 77L409.452 62.5483L395 54L409.452 45.4663L418 31L426.534 45.4663L441 54L426.534 62.5483Z" fill="white"/>
<path d="M366.803 241.401L355.401 230L344 241.401L355.401 252.803L366.803 241.401Z" fill="white"/>
<path d="M117.803 150.401L106.401 139L95 150.401L106.401 161.803L117.803 150.401Z" fill="white"/>
<defs>
<linearGradient id="paint0_linear_96_344" x1="174.097" y1="245.614" x2="263" y2="120" gradientUnits="userSpaceOnUse">
<stop offset="0.0456969" stop-color="#002694" stop-opacity="0"/>
<stop offset="1"/>
</linearGradient>
<linearGradient id="paint1_linear_96_344" x1="259.31" y1="71.9656" x2="259.31" y2="224.904" gradientUnits="userSpaceOnUse">
<stop stop-color="#EFF6FF"/>
<stop offset="0.583609" stop-color="white"/>
</linearGradient>
<radialGradient id="paint2_radial_96_344" cx="0" cy="0" r="1" gradientUnits="userSpaceOnUse" gradientTransform="translate(190.155 62.9138) rotate(51.5463) scale(78.599 73.5577)">
<stop stop-color="#1854FF"/>
<stop offset="0.645676" stop-color="#1854FF" stop-opacity="0"/>
</radialGradient>
<radialGradient id="paint3_radial_96_344" cx="0" cy="0" r="1" gradientUnits="userSpaceOnUse" gradientTransform="translate(340.414 137.138) rotate(149.036) scale(52.7802 51.3903)">
<stop stop-color="#1854FF" stop-opacity="0.68"/>
<stop offset="0.869786" stop-color="#1854FF" stop-opacity="0"/>
</radialGradient>
<radialGradient id="paint4_radial_96_344" cx="0" cy="0" r="1" gradientUnits="userSpaceOnUse" gradientTransform="translate(242.655 224.034) rotate(-49.8991) scale(44.968 42.0165)">
<stop stop-color="#1854FF" stop-opacity="0.64"/>
<stop offset="0.904372" stop-color="#1854FF" stop-opacity="0"/>
</radialGradient>
</defs>
</svg>
