<svg width="529" height="296" viewBox="0 0 529 296" fill="none" xmlns="http://www.w3.org/2000/svg">
<rect width="529" height="296" fill="#8000FF"/>
<path d="M189.51 242.306L212 83L313 217L198.378 250.011C193.503 251.415 188.801 247.329 189.51 242.306Z" fill="url(#paint0_linear_97_396)"/>
<path d="M201 156.906L227.247 138.291V156.906H201Z" fill="#DC2626"/>
<path d="M312.635 217H215.922C213.717 217 211.918 215.212 211.918 212.997V83.0034C211.918 80.7983 213.706 79 215.922 79H294.695L316.628 102.678V212.997C316.628 215.202 314.84 217 312.625 217H312.635Z" fill="white"/>
<path d="M316.628 102.678H298.559C296.429 102.678 294.695 100.944 294.695 98.8137V79L316.628 102.678Z" fill="url(#paint1_linear_97_396)"/>
<path d="M238.776 204.08L211.918 209.56V204.08H238.776Z" fill="url(#paint2_linear_97_396)"/>
<path d="M304.008 102.678L316.629 105.097V102.678H304.008Z" fill="url(#paint3_linear_97_396)"/>
<path fill-rule="evenodd" clip-rule="evenodd" d="M224.937 123.815C224.937 122.666 225.868 121.735 227.017 121.735H301.565C302.714 121.735 303.645 122.666 303.645 123.815C303.645 124.963 302.714 125.894 301.565 125.894H299.006V170.048H301.566C302.714 170.048 303.645 170.979 303.645 172.128C303.645 173.276 302.714 174.207 301.565 174.207H227.017C225.868 174.207 224.937 173.276 224.937 172.128C224.937 170.979 225.868 170.048 227.017 170.048H229.416V125.894H227.017C225.868 125.894 224.937 124.963 224.937 123.815Z" fill="#E8EEFF"/>
<rect x="240.135" y="125.895" width="48.3127" height="41.1138" rx="6.71899" fill="#4338CA"/>
<path d="M292.287 132.614C292.287 128.903 295.295 125.895 299.006 125.895H299.806V163.249C299.806 165.325 298.123 167.008 296.046 167.008V167.008C293.97 167.008 292.287 165.325 292.287 163.249V132.614Z" fill="#4338CA"/>
<path d="M236.295 132.614C236.295 128.903 233.287 125.895 229.576 125.895H228.777V163.249C228.777 165.325 230.46 167.008 232.536 167.008V167.008C234.612 167.008 236.295 165.325 236.295 163.249V132.614Z" fill="#4338CA"/>
<rect x="240.135" y="128.934" width="48.3127" height="41.1138" rx="6.71899" fill="url(#paint4_linear_97_396)"/>
<path d="M292.287 135.653C292.287 131.942 295.295 128.934 299.006 128.934H299.806V170.048H299.006C295.295 170.048 292.287 167.04 292.287 163.329V135.653Z" fill="url(#paint5_linear_97_396)"/>
<path d="M236.295 135.653C236.295 131.942 233.287 128.934 229.576 128.934H228.777V170.048H229.576C233.287 170.048 236.295 167.04 236.295 163.329V135.653Z" fill="url(#paint6_linear_97_396)"/>
<path d="M272.93 148.051L260.092 155.463L260.092 140.639L272.93 148.051Z" fill="white"/>
<path d="M201 156.906H252.081C254.468 156.906 256.406 158.843 256.406 161.231V199.766C256.406 202.153 254.468 204.091 252.081 204.091H205.325C202.937 204.091 201 202.153 201 199.766V156.906Z" fill="#F87171"/>
<path d="M219.601 190.516C220.013 190.317 220.466 190.213 220.924 190.213H236.456C236.914 190.213 237.366 190.317 237.779 190.516L240.177 191.673C240.565 191.861 240.432 192.445 240 192.445H217.379C216.948 192.445 216.814 191.861 217.203 191.673L219.601 190.516Z" fill="white"/>
<path fill-rule="evenodd" clip-rule="evenodd" d="M227.731 168.941C228.045 168.029 229.335 168.029 229.649 168.941L231.503 174.326H225.876L227.731 168.941ZM224.584 178.08L223.215 182.055H234.165L232.796 178.08H224.584ZM221.922 185.809H235.457L236.75 189.563H220.63L221.922 185.809Z" fill="white"/>
<path d="M131.534 112.548L123 127L114.452 112.548L100 104L114.452 95.4663L123 81L131.534 95.4663L146 104L131.534 112.548Z" fill="white"/>
<path d="M178.803 230.401L167.401 219L156 230.401L167.401 241.803L178.803 230.401Z" fill="white"/>
<path d="M397.803 140.401L386.401 129L375 140.401L386.401 151.803L397.803 140.401Z" fill="white"/>
<defs>
<linearGradient id="paint0_linear_97_396" x1="268" y1="138" x2="158.5" y2="242.5" gradientUnits="userSpaceOnUse">
<stop stop-color="#3F00C5"/>
<stop offset="0.851975" stop-color="#8000FF" stop-opacity="0"/>
</linearGradient>
<linearGradient id="paint1_linear_97_396" x1="305.674" y1="90.7657" x2="294.719" y2="102.734" gradientUnits="userSpaceOnUse">
<stop stop-color="#DC2626"/>
<stop offset="1" stop-color="#F87171"/>
</linearGradient>
<linearGradient id="paint2_linear_97_396" x1="225.347" y1="204.08" x2="225.347" y2="209.56" gradientUnits="userSpaceOnUse">
<stop stop-color="#C7D2FE"/>
<stop offset="1" stop-color="#E8EEFF" stop-opacity="0"/>
</linearGradient>
<linearGradient id="paint3_linear_97_396" x1="310.318" y1="102.678" x2="310.318" y2="105.097" gradientUnits="userSpaceOnUse">
<stop stop-color="#C7D2FE"/>
<stop offset="1" stop-color="#E8EEFF" stop-opacity="0"/>
</linearGradient>
<linearGradient id="paint4_linear_97_396" x1="264.291" y1="128.934" x2="264.291" y2="170.048" gradientUnits="userSpaceOnUse">
<stop stop-color="#4F46E5"/>
<stop offset="1" stop-color="#818CF8"/>
</linearGradient>
<linearGradient id="paint5_linear_97_396" x1="296.046" y1="128.934" x2="296.046" y2="170.048" gradientUnits="userSpaceOnUse">
<stop stop-color="#4F46E5"/>
<stop offset="1" stop-color="#818CF8"/>
</linearGradient>
<linearGradient id="paint6_linear_97_396" x1="232.536" y1="128.934" x2="232.536" y2="170.048" gradientUnits="userSpaceOnUse">
<stop stop-color="#4F46E5"/>
<stop offset="1" stop-color="#818CF8"/>
</linearGradient>
</defs>
</svg>
