<svg width="529" height="296" viewBox="0 0 529 296" fill="none" xmlns="http://www.w3.org/2000/svg">
<rect width="529" height="296" fill="#001AFF"/>
<path d="M132.09 170.831L132.747 169.073L131.454 167.713C119.229 154.852 112 138.631 112 121.05C112 80.0682 151.634 46 201.65 46C251.665 46 291.3 80.0778 291.3 121.06C291.3 162.042 251.666 196.11 201.65 196.11C185.766 196.11 170.871 192.645 157.963 186.594L156.693 185.998L155.422 186.591L122.272 202.051C121.448 202.435 120.57 201.628 120.89 200.771L132.09 170.831Z" fill="url(#paint0_radial_79_93)" stroke="white" stroke-width="6"/>
<path d="M415.167 230.362L414.508 228.603L415.803 227.242C423.487 219.169 428 209.024 428 198.057C428 172.537 403.211 151 371.5 151C339.789 151 315 172.543 315 198.064C315 223.584 339.789 245.121 371.5 245.121C381.546 245.121 390.956 242.932 399.101 239.118L400.37 238.524L401.64 239.116L421.997 248.597L415.167 230.362Z" fill="url(#paint1_radial_79_93)" stroke="white" stroke-width="6"/>
<circle cx="166" cy="121" r="9" fill="#4B79FE"/>
<circle cx="202" cy="121" r="9" fill="#4B79FE"/>
<circle cx="238" cy="121" r="9" fill="#4B79FE"/>
<path d="M351 196V196C351 207.213 360.199 216.303 371.413 216.303V216.303C382.506 216.303 391.606 207.311 391.606 196.218L391.606 196" stroke="#2DD4BF" stroke-width="10.1516" stroke-linecap="round"/>
<path d="M416.534 89.5483L408 104L399.452 89.5483L385 81L399.452 72.4663L408 58L416.534 72.4663L431 81L416.534 89.5483Z" fill="white"/>
<path d="M65.8027 141.401L54.4014 130L43 141.401L54.4014 152.803L65.8027 141.401Z" fill="white"/>
<path d="M276.803 240.401L265.401 229L254 240.401L265.401 251.803L276.803 240.401Z" fill="white"/>
<defs>
<radialGradient id="paint0_radial_79_93" cx="0" cy="0" r="1" gradientUnits="userSpaceOnUse" gradientTransform="translate(147.5 57.5) rotate(69.8608) scale(157.275 179.719)">
<stop stop-color="white"/>
<stop offset="1" stop-color="#E8EEFF"/>
</radialGradient>
<radialGradient id="paint1_radial_79_93" cx="0" cy="0" r="1" gradientUnits="userSpaceOnUse" gradientTransform="translate(406.275 157.3) rotate(110.164) scale(100.884 115.398)">
<stop stop-color="white"/>
<stop offset="1" stop-color="#E8EEFF"/>
</radialGradient>
</defs>
</svg>
