<svg width="529" height="296" viewBox="0 0 529 296" fill="none" xmlns="http://www.w3.org/2000/svg">
<g clip-path="url(#clip0_83_221)">
<rect width="529" height="296" fill="#FFA800"/>
<path fill-rule="evenodd" clip-rule="evenodd" d="M284.99 161.195C301.953 194.44 297.956 230.446 276.065 241.615C255.721 251.995 227.082 237.275 209.521 208.461C204.673 210.338 199.602 212.753 195.002 215.713C185.637 221.741 179.163 229.384 178.999 238.571C178.835 247.787 184.803 255.375 193.544 261.347C202.218 267.274 212.814 271.01 219.877 272.597L218.123 280.403C210.352 278.656 198.748 274.592 189.031 267.953C179.38 261.358 170.765 251.612 171.001 238.428C171.237 225.216 180.513 215.525 190.673 208.986C195.442 205.917 200.612 203.4 205.594 201.409C188.77 168.23 192.798 132.368 214.639 121.224C236.53 110.055 268.028 127.95 284.99 161.195Z" fill="url(#paint0_linear_83_221)"/>
<path d="M263.223 80.251L-111.992 151.917C-114.46 152.388 -116.853 150.811 -117.399 148.36L-146.887 15.882C-147.459 13.3178 -145.801 10.7975 -143.219 10.301L240.135 -62.9171C242.71 -63.4073 245.185 -61.6727 245.593 -59.0833L266.941 74.9529C267.337 77.4354 265.691 79.7797 263.223 80.251Z" fill="#7000FF"/>
<path d="M117.394 84.8039L-18.6883 110.788C-20.3535 111.106 -21.4456 112.713 -21.1277 114.378L-18.5944 127.646C-18.2764 129.311 -16.6688 130.403 -15.0036 130.085L121.079 104.101C122.744 103.784 123.836 102.176 123.518 100.511L120.985 87.2433C120.667 85.5781 119.059 84.486 117.394 84.8039Z" fill="url(#paint1_linear_83_221)"/>
<path d="M116.831 85.6211L-17.6392 111.297C-19.3044 111.615 -20.3966 113.223 -20.0786 114.888L-17.8076 126.782C-17.4896 128.447 -15.882 129.539 -14.2168 129.221L120.254 103.545C121.919 103.227 123.011 101.619 122.693 99.9542L120.422 88.0605C120.104 86.3953 118.497 85.3032 116.831 85.6211Z" fill="#A55EFF"/>
<path d="M2.49028 83.0902L-11.3243 85.728C-12.9895 86.046 -14.0816 87.6536 -13.7637 89.3188L-11.2304 102.586C-10.9124 104.251 -9.30476 105.344 -7.63959 105.026L6.17499 102.388C7.84016 102.07 8.9323 100.462 8.61435 98.7971L6.08105 85.5296C5.7631 83.8644 4.15546 82.7723 2.49028 83.0902Z" fill="url(#paint2_linear_83_221)"/>
<path d="M1.55768 83.9809L-10.8475 86.3496C-12.5127 86.6675 -13.6048 88.2752 -13.2868 89.9404L-11.0158 101.834C-10.6979 103.499 -9.09026 104.591 -7.42509 104.273L4.98008 101.905C6.64525 101.587 7.73739 99.9792 7.41944 98.314L5.14844 86.4203C4.83049 84.7551 3.22285 83.663 1.55768 83.9809Z" fill="#A55EFF"/>
<path d="M25.8736 78.6256L12.059 81.2634C10.3938 81.5814 9.3017 83.189 9.61965 84.8542L12.1529 98.1216C12.4709 99.7868 14.0785 100.879 15.7437 100.561L29.5583 97.9232C31.2235 97.6053 32.3156 95.9976 31.9976 94.3325L29.4643 81.065C29.1464 79.3998 27.5387 78.3077 25.8736 78.6256Z" fill="url(#paint3_linear_83_221)"/>
<path d="M24.941 79.5163L12.5358 81.885C10.8706 82.2029 9.7785 83.8106 10.0965 85.4758L12.3675 97.3695C12.6854 99.0347 14.293 100.127 15.9582 99.8089L28.3634 97.4402C30.0286 97.1222 31.1207 95.5146 30.8027 93.8494L28.5317 81.9557C28.2138 80.2905 26.6061 79.1984 24.941 79.5163Z" fill="#A55EFF"/>
<path d="M49.458 74.1252L35.6435 76.7629C33.9783 77.0809 32.8862 78.6885 33.2041 80.3537L35.7374 93.6211C36.0554 95.2863 37.663 96.3785 39.3282 96.0605L53.1427 93.4227C54.8079 93.1048 55.9001 91.4971 55.5821 89.832L53.0488 76.5645C52.7309 74.8993 51.1232 73.8072 49.458 74.1252Z" fill="url(#paint4_linear_83_221)"/>
<path d="M48.887 74.9432L36.4818 77.3119C34.8167 77.6298 33.7245 79.2375 34.0425 80.9026L36.3135 92.7964C36.6315 94.4615 38.2391 95.5537 39.9042 95.2357L52.3094 92.8671C53.9746 92.5491 55.0667 90.9415 54.7488 89.2763L52.4778 77.3826C52.1598 75.7174 50.5522 74.6253 48.887 74.9432Z" fill="#A55EFF"/>
<path d="M72.6458 69.6974L58.8312 72.3352C57.1661 72.6531 56.0739 74.2608 56.3919 75.926L58.9252 89.1934C59.2431 90.8586 60.8508 91.9507 62.5159 91.6328L76.3305 88.995C77.9957 88.6771 79.0878 87.0694 78.7699 85.4042L76.2366 72.1368C75.9186 70.4716 74.311 69.3795 72.6458 69.6974Z" fill="url(#paint5_linear_83_221)"/>
<path d="M72.0745 70.5152L59.6694 72.8839C58.0042 73.2018 56.912 74.8095 57.23 76.4747L59.501 88.3684C59.8189 90.0336 61.4266 91.1257 63.0918 90.8078L75.4969 88.4391C77.1621 88.1212 78.2542 86.5135 77.9363 84.8483L75.6653 72.9546C75.3473 71.2894 73.7397 70.1973 72.0745 70.5152Z" fill="#A55EFF"/>
<path d="M95.752 65.2841L81.9374 67.9219C80.2722 68.2398 79.1801 69.8475 79.4981 71.5126L82.0314 84.7801C82.3493 86.4453 83.9569 87.5374 85.6221 87.2194L99.4367 84.5817C101.102 84.2637 102.194 82.6561 101.876 80.9909L99.3428 67.7235C99.0248 66.0583 97.4172 64.9661 95.752 65.2841Z" fill="url(#paint6_linear_83_221)"/>
<path d="M95.1812 66.102L82.776 68.4707C81.1109 68.7886 80.0187 70.3963 80.3367 72.0615L82.6077 83.9552C82.9256 85.6204 84.5333 86.7125 86.1984 86.3946L98.6036 84.0259C100.269 83.7079 101.361 82.1003 101.043 80.4351L98.772 68.5414C98.454 66.8762 96.8464 65.7841 95.1812 66.102Z" fill="#A55EFF"/>
<path d="M119.441 60.7648L105.626 63.4026C103.961 63.7205 102.869 65.3282 103.187 66.9933L105.72 80.2608C106.038 81.926 107.646 83.0181 109.311 82.7002L123.125 80.0624C124.791 79.7444 125.883 78.1368 125.565 76.4716L123.031 63.2042C122.714 61.539 121.106 60.4469 119.441 60.7648Z" fill="url(#paint7_linear_83_221)"/>
<path d="M118.864 61.5837L106.458 63.9524C104.793 64.2703 103.701 65.878 104.019 67.5431L106.29 79.4369C106.608 81.102 108.216 82.1942 109.881 81.8762L122.286 79.5076C123.951 79.1896 125.043 77.582 124.725 75.9168L122.454 64.0231C122.136 62.3579 120.529 61.2658 118.864 61.5837Z" fill="#A55EFF"/>
<path d="M142.749 56.3146L128.934 58.9524C127.269 59.2703 126.177 60.878 126.495 62.5431L129.028 75.8106C129.346 77.4758 130.954 78.5679 132.619 78.25L146.433 75.6122C148.098 75.2942 149.191 73.6866 148.873 72.0214L146.339 58.754C146.021 57.0888 144.414 55.9967 142.749 56.3146Z" fill="url(#paint8_linear_83_221)"/>
<path d="M142.172 57.1338L129.767 59.5024C128.101 59.8204 127.009 61.428 127.327 63.0932L129.598 74.9869C129.916 76.6521 131.524 77.7442 133.189 77.4263L145.594 75.0576C147.259 74.7397 148.351 73.132 148.033 71.4669L145.762 59.5731C145.445 57.908 143.837 56.8158 142.172 57.1338Z" fill="#A55EFF"/>
<path d="M165.821 51.902L152.006 54.5398C150.341 54.8577 149.249 56.4654 149.567 58.1305L152.1 71.398C152.418 73.0632 154.026 74.1553 155.691 73.8374L169.505 71.1996C171.17 70.8816 172.263 69.274 171.945 67.6088L169.411 54.3414C169.093 52.6762 167.486 51.5841 165.821 51.902Z" fill="url(#paint9_linear_83_221)"/>
<path d="M165.657 52.644L153.252 55.0127C151.587 55.3306 150.495 56.9383 150.813 58.6034L153.084 70.4972C153.402 72.1624 155.009 73.2545 156.675 72.9365L169.08 70.5679C170.745 70.2499 171.837 68.6423 171.519 66.9771L169.248 55.0834C168.93 53.4182 167.322 52.3261 165.657 52.644Z" fill="#A55EFF"/>
<path d="M230.315 39.5941L216.501 42.2319C214.835 42.5499 213.743 44.1575 214.061 45.8227L216.595 59.0901C216.913 60.7553 218.52 61.8475 220.185 61.5295L234 58.8917C235.665 58.5738 236.757 56.9662 236.439 55.301L233.906 42.0335C233.588 40.3683 231.98 39.2762 230.315 39.5941Z" fill="url(#paint10_linear_83_221)"/>
<path d="M230.445 40.2766L218.04 42.6453C216.375 42.9632 215.283 44.5708 215.601 46.236L217.872 58.1297C218.19 59.7949 219.797 60.8871 221.463 60.5691L233.868 58.2005C235.533 57.8825 236.625 56.2749 236.307 54.6097L234.036 42.716C233.718 41.0508 232.111 39.9586 230.445 40.2766Z" fill="#A55EFF"/>
<path d="M234.669 62.4082L220.854 65.046C219.189 65.364 218.097 66.9716 218.415 68.6368L220.948 81.9042C221.266 83.5694 222.874 84.6615 224.539 84.3436L238.354 81.7058C240.019 81.3879 241.111 79.7802 240.793 78.1151L238.26 64.8476C237.942 63.1824 236.334 62.0903 234.669 62.4082Z" fill="url(#paint11_linear_83_221)"/>
<path d="M234.799 63.0969L222.394 65.4656C220.729 65.7835 219.636 67.3912 219.954 69.0563L222.225 80.9501C222.543 82.6152 224.151 83.7074 225.816 83.3894L238.221 81.0208C239.886 80.7028 240.979 79.0952 240.661 77.43L238.39 65.5363C238.072 63.8711 236.464 62.779 234.799 63.0969Z" fill="#A55EFF"/>
<path d="M258.3 57.9049L244.486 60.5427C242.82 60.8607 241.728 62.4683 242.046 64.1335L244.579 77.4009C244.897 79.0661 246.505 80.1582 248.17 79.8403L261.985 77.2025C263.65 76.8846 264.742 75.2769 264.424 73.6118L261.891 60.3443C261.573 58.6791 259.965 57.587 258.3 57.9049Z" fill="url(#paint12_linear_83_221)"/>
<path d="M258.43 58.5874L246.025 60.956C244.36 61.274 243.268 62.8816 243.586 64.5468L245.857 76.4405C246.175 78.1057 247.782 79.1978 249.447 78.8799L261.853 76.5112C263.518 76.1933 264.61 74.5857 264.292 72.9205L262.021 61.0268C261.703 59.3616 260.095 58.2694 258.43 58.5874Z" fill="#A55EFF"/>
<path d="M210.637 67.0031L196.822 69.6409C195.157 69.9588 194.065 71.5664 194.383 73.2316L196.916 86.4991C197.234 88.1642 198.842 89.2564 200.507 88.9384L214.322 86.3007C215.987 85.9827 217.079 84.3751 216.761 82.7099L214.228 69.4424C213.91 67.7773 212.302 66.6851 210.637 67.0031Z" fill="url(#paint13_linear_83_221)"/>
<path d="M210.353 67.7627L197.948 70.1313C196.283 70.4493 195.191 72.0569 195.509 73.7221L197.78 85.6158C198.098 87.281 199.705 88.3731 201.371 88.0552L213.776 85.6865C215.441 85.3686 216.533 83.7609 216.215 82.0958L213.944 70.202C213.626 68.5369 212.019 67.4447 210.353 67.7627Z" fill="#A55EFF"/>
<path d="M9.42559 57.3861L-4.38899 60.0239C-6.05416 60.3419 -7.1463 61.9495 -6.82835 63.6147L-4.29505 76.8821C-3.9771 78.5473 -2.36946 79.6394 -0.704284 79.3215L13.1103 76.6837C14.7755 76.3658 15.8676 74.7581 15.5496 73.093L13.0163 59.8255C12.6984 58.1603 11.0908 57.0682 9.42559 57.3861Z" fill="url(#paint14_linear_83_221)"/>
<path d="M8.64191 58.249L-3.76325 60.6177C-5.42843 60.9356 -6.52057 62.5433 -6.20262 64.2084L-3.93162 76.1022C-3.61367 77.7673 -2.00602 78.8595 -0.340852 78.5415L12.0643 76.1729C13.7295 75.8549 14.8216 74.2473 14.5037 72.5821L12.2327 60.6884C11.9147 59.0232 10.3071 57.9311 8.64191 58.249Z" fill="#A55EFF"/>
<path d="M32.5047 52.9843L18.6901 55.6221C17.0249 55.94 15.9328 57.5476 16.2507 59.2128L18.7841 72.4803C19.102 74.1455 20.7096 75.2376 22.3748 74.9196L36.1894 72.2819C37.8546 71.9639 38.9467 70.3563 38.6288 68.6911L36.0955 55.4237C35.7775 53.7585 34.1699 52.6663 32.5047 52.9843Z" fill="url(#paint15_linear_83_221)"/>
<path d="M31.7259 53.8401L19.3207 56.2087C17.6555 56.5267 16.5634 58.1343 16.8814 59.7995L19.1524 71.6932C19.4703 73.3584 21.078 74.4505 22.7431 74.1326L35.1483 71.7639C36.8135 71.446 37.9056 69.8383 37.5877 68.1732L35.3166 56.2794C34.9987 54.6143 33.3911 53.5221 31.7259 53.8401Z" fill="#A55EFF"/>
<path d="M56.3636 48.4267L42.549 51.0644C40.8838 51.3824 39.7917 52.99 40.1096 54.6552L42.6429 67.9227C42.9609 69.5878 44.5685 70.68 46.2337 70.362L60.0483 67.7243C61.7134 67.4063 62.8056 65.7987 62.4876 64.1335L59.9543 50.866C59.6364 49.2009 58.0287 48.1087 56.3636 48.4267Z" fill="url(#paint16_linear_83_221)"/>
<path d="M55.7874 49.2517L43.3823 51.6203C41.7171 51.9383 40.6249 53.5459 40.9429 55.2111L43.2139 67.1048C43.5318 68.77 45.1395 69.8622 46.8047 69.5442L59.2098 67.1756C60.875 66.8576 61.9671 65.25 61.6492 63.5848L59.3782 51.6911C59.0602 50.0259 57.4526 48.9337 55.7874 49.2517Z" fill="#A55EFF"/>
<path d="M79.5855 43.9923L65.7709 46.6301C64.1058 46.9481 63.0136 48.5557 63.3316 50.2209L65.8649 63.4883C66.1828 65.1535 67.7905 66.2456 69.4556 65.9277L83.2702 63.2899C84.9354 62.972 86.0275 61.3643 85.7096 59.6992L83.1763 46.4317C82.8583 44.7665 81.2507 43.6744 79.5855 43.9923Z" fill="url(#paint17_linear_83_221)"/>
<path d="M79.0145 44.81L66.6093 47.1787C64.9441 47.4966 63.852 49.1043 64.1699 50.7695L66.4409 62.6632C66.7589 64.3284 68.3665 65.4205 70.0317 65.1026L82.4369 62.7339C84.102 62.416 85.1942 60.8083 84.8762 59.1431L82.6052 47.2494C82.2873 45.5842 80.6796 44.4921 79.0145 44.81Z" fill="#A55EFF"/>
<path d="M102.688 39.5799L88.873 42.2176C87.2078 42.5356 86.1157 44.1432 86.4336 45.8084L88.9669 59.0759C89.2849 60.741 90.8925 61.8332 92.5577 61.5152L106.372 58.8775C108.037 58.5595 109.13 56.9519 108.812 55.2867L106.278 42.0192C105.96 40.3541 104.353 39.2619 102.688 39.5799Z" fill="url(#paint18_linear_83_221)"/>
<path d="M102.116 40.3979L89.7111 42.7666C88.0459 43.0845 86.9538 44.6922 87.2717 46.3574L89.5427 58.2511C89.8607 59.9163 91.4683 61.0084 93.1335 60.6904L105.539 58.3218C107.204 58.0038 108.296 56.3962 107.978 54.731L105.707 42.8373C105.389 41.1721 103.781 40.08 102.116 40.3979Z" fill="#A55EFF"/>
<path d="M125.984 35.132L112.169 37.7698C110.504 38.0877 109.412 39.6954 109.73 41.3605L112.263 54.628C112.581 56.2932 114.189 57.3853 115.854 57.0673L129.668 54.4296C131.334 54.1116 132.426 52.504 132.108 50.8388L129.574 37.5714C129.256 35.9062 127.649 34.814 125.984 35.132Z" fill="url(#paint19_linear_83_221)"/>
<path d="M125.413 35.9558L113.008 38.3244C111.343 38.6424 110.251 40.25 110.569 41.9152L112.84 53.8089C113.158 55.4741 114.765 56.5663 116.431 56.2483L128.836 53.8796C130.501 53.5617 131.593 51.9541 131.275 50.2889L129.004 38.3951C128.686 36.73 127.079 35.6378 125.413 35.9558Z" fill="#A55EFF"/>
<path d="M149.379 30.6662L135.564 33.3039C133.899 33.6219 132.807 35.2295 133.125 36.8947L135.658 50.1622C135.976 51.8273 137.584 52.9195 139.249 52.6015L153.063 49.9638C154.729 49.6458 155.821 48.0382 155.503 46.373L152.969 33.1055C152.652 31.4404 151.044 30.3482 149.379 30.6662Z" fill="url(#paint20_linear_83_221)"/>
<path d="M148.801 31.4853L136.396 33.854C134.731 34.1719 133.639 35.7796 133.957 37.4448L136.228 49.3385C136.546 51.0037 138.153 52.0958 139.819 51.7778L152.224 49.4092C153.889 49.0912 154.981 47.4836 154.663 45.8184L152.392 33.9247C152.074 32.2595 150.467 31.1674 148.801 31.4853Z" fill="#A55EFF"/>
<path d="M172.968 26.1587L159.154 28.7965C157.489 29.1144 156.396 30.7221 156.714 32.3873L159.248 45.6547C159.566 47.3199 161.173 48.412 162.838 48.0941L176.653 45.4563C178.318 45.1384 179.41 43.5307 179.092 41.8655L176.559 28.5981C176.241 26.9329 174.633 25.8408 172.968 26.1587Z" fill="url(#paint21_linear_83_221)"/>
<path d="M172.811 26.8998L160.405 29.2684C158.74 29.5864 157.648 31.194 157.966 32.8592L160.237 44.7529C160.555 46.4181 162.163 47.5102 163.828 47.1923L176.233 44.8236C177.898 44.5057 178.99 42.898 178.672 41.2329L176.401 29.3391C176.083 27.6739 174.476 26.5818 172.811 26.8998Z" fill="#A55EFF"/>
<path d="M-1.43696 35.7951L-15.2515 38.4328C-16.9167 38.7508 -18.0089 40.3584 -17.6909 42.0236L-15.1576 55.2911C-14.8396 56.9562 -13.232 58.0484 -11.5668 57.7304L2.24774 55.0927C3.91291 54.7747 5.00506 53.1671 4.68711 51.5019L2.1538 38.2344C1.83585 36.5693 0.228211 35.4771 -1.43696 35.7951Z" fill="url(#paint22_linear_83_221)"/>
<path d="M-2.25359 36.6645L-14.6588 39.0332C-16.3239 39.3511 -17.4161 40.9588 -17.0981 42.6239L-14.8271 54.5177C-14.5092 56.1829 -12.9015 57.275 -11.2364 56.957L1.16881 54.5884C2.83398 54.2704 3.92611 52.6628 3.60816 50.9976L1.33716 39.1039C1.01921 37.4387 -0.588421 36.3466 -2.25359 36.6645Z" fill="#A55EFF"/>
<path d="M22.4578 31.2306L8.64324 33.8684C6.97807 34.1863 5.88592 35.794 6.20387 37.4592L8.73718 50.7266C9.05513 52.3918 10.6628 53.4839 12.3279 53.166L26.1425 50.5282C27.8077 50.2103 28.8998 48.6026 28.5819 46.9374L26.0486 33.67C25.7306 32.0048 24.123 30.9127 22.4578 31.2306Z" fill="url(#paint23_linear_83_221)"/>
<path d="M21.6338 32.1013L9.22868 34.47C7.56351 34.7879 6.47137 36.3955 6.78932 38.0607L9.06033 49.9545C9.37828 51.6196 10.9859 52.7118 12.6511 52.3938L25.0562 50.0252C26.7214 49.7072 27.8136 48.0996 27.4956 46.4344L25.2246 34.5407C24.9067 32.8755 23.299 31.7833 21.6338 32.1013Z" fill="#A55EFF"/>
<path d="M45.6861 26.8009L31.8715 29.4387C30.2063 29.7567 29.1142 31.3643 29.4321 33.0295L31.9654 46.2969C32.2834 47.9621 33.891 49.0543 35.5562 48.7363L49.3708 46.0985C51.036 45.7806 52.1281 44.1729 51.8101 42.5078L49.2768 29.2403C48.9589 27.5751 47.3512 26.483 45.6861 26.8009Z" fill="url(#paint24_linear_83_221)"/>
<path d="M45.1087 27.6201L32.7035 29.9888C31.0384 30.3067 29.9462 31.9143 30.2642 33.5795L32.5352 45.4732C32.8531 47.1384 34.4608 48.2306 36.1259 47.9126L48.5311 45.544C50.1963 45.226 51.2884 43.6184 50.9705 41.9532L48.6995 30.0595C48.3815 28.3943 46.7739 27.3021 45.1087 27.6201Z" fill="#A55EFF"/>
<path d="M69.2749 22.3234L55.4604 24.9612C53.7952 25.2791 52.7031 26.8868 53.021 28.5519L55.5543 41.8194C55.8723 43.4846 57.4799 44.5767 59.1451 44.2588L72.9596 41.621C74.6248 41.303 75.717 39.6954 75.399 38.0302L72.8657 24.7628C72.5478 23.0976 70.9401 22.0054 69.2749 22.3234Z" fill="url(#paint25_linear_83_221)"/>
<path d="M68.7039 23.1411L56.2988 25.5097C54.6336 25.8277 53.5414 27.4353 53.8594 29.1005L56.1304 40.9942C56.4483 42.6594 58.056 43.7516 59.7212 43.4336L72.1263 41.065C73.7915 40.747 74.8836 39.1394 74.5657 37.4742L72.2947 25.5805C71.9767 23.9153 70.3691 22.8231 68.7039 23.1411Z" fill="#A55EFF"/>
<path d="M92.6058 17.8687L78.7912 20.5065C77.126 20.8244 76.0339 22.432 76.3518 24.0972L78.8851 37.3647C79.2031 39.0299 80.8107 40.122 82.4759 39.804L96.2905 37.1663C97.9556 36.8483 99.0478 35.2407 98.7298 33.5755L96.1965 20.3081C95.8786 18.6429 94.2709 17.5507 92.6058 17.8687Z" fill="url(#paint26_linear_83_221)"/>
<path d="M92.0286 18.6877L79.6235 21.0564C77.9583 21.3743 76.8661 22.982 77.1841 24.6471L79.4551 36.5409C79.773 38.206 81.3807 39.2982 83.0459 38.9802L95.451 36.6116C97.1162 36.2936 98.2083 34.686 97.8904 33.0208L95.6194 21.1271C95.3014 19.4619 93.6938 18.3698 92.0286 18.6877Z" fill="#A55EFF"/>
<path d="M115.938 13.4152L102.123 16.053C100.458 16.3709 99.3659 17.9785 99.6839 19.6437L102.217 32.9112C102.535 34.5764 104.143 35.6685 105.808 35.3505L119.622 32.7128C121.288 32.3948 122.38 30.7872 122.062 29.122L119.529 15.8546C119.211 14.1894 117.603 13.0972 115.938 13.4152Z" fill="url(#paint27_linear_83_221)"/>
<path d="M115.367 14.2331L102.961 16.6018C101.296 16.9197 100.204 18.5274 100.522 20.1926L102.793 32.0863C103.111 33.7515 104.719 34.8436 106.384 34.5257L118.789 32.157C120.454 31.839 121.546 30.2314 121.228 28.5662L118.957 16.6725C118.639 15.0073 117.032 13.9152 115.367 14.2331Z" fill="#A55EFF"/>
<path d="M139.332 8.94229L125.517 11.5801C123.852 11.898 122.76 13.5057 123.078 15.1708L125.611 28.4383C125.929 30.1035 127.537 31.1956 129.202 30.8776L143.016 28.2399C144.681 27.9219 145.774 26.3143 145.456 24.6491L142.922 11.3817C142.604 9.71648 140.997 8.62434 139.332 8.94229Z" fill="url(#paint28_linear_83_221)"/>
<path d="M138.754 9.76133L126.349 12.13C124.684 12.4479 123.592 14.0556 123.91 15.7208L126.181 27.6145C126.499 29.2797 128.106 30.3718 129.771 30.0539L142.177 27.6852C143.842 27.3672 144.934 25.7596 144.616 24.0944L142.345 12.2007C142.027 10.5355 140.419 9.44338 138.754 9.76133Z" fill="#A55EFF"/>
<path d="M162.99 4.42862L149.176 7.06639C147.511 7.38434 146.418 8.99198 146.736 10.6572L149.27 23.9246C149.588 25.5898 151.195 26.6819 152.86 26.364L166.675 23.7262C168.34 23.4083 169.432 21.8006 169.114 20.1354L166.581 6.86798C166.263 5.20281 164.655 4.11067 162.99 4.42862Z" fill="url(#paint29_linear_83_221)"/>
<path d="M162.77 5.18187L150.365 7.55052C148.7 7.86847 147.607 9.47611 147.925 11.1413L150.196 23.035C150.514 24.7002 152.122 25.7923 153.787 25.4744L166.192 23.1057C167.857 22.7878 168.95 21.1801 168.632 19.515L166.361 7.62123C166.043 5.95606 164.435 4.86392 162.77 5.18187Z" fill="#A55EFF"/>
<path d="M186.039 0.0253017L172.225 2.66307C170.56 2.98102 169.467 4.58866 169.785 6.25383L172.319 19.5213C172.637 21.1865 174.244 22.2786 175.909 21.9607L189.724 19.3229C191.389 19.0049 192.481 17.3973 192.163 15.7321L189.63 2.46466C189.312 0.799491 187.705 -0.292648 186.039 0.0253017Z" fill="url(#paint30_linear_83_221)"/>
<path d="M185.819 0.778546L173.414 3.1472C171.749 3.46515 170.656 5.07279 170.974 6.73796L173.245 18.6317C173.563 20.2969 175.171 21.389 176.836 21.0711L189.241 18.7024C190.906 18.3845 191.999 16.7768 191.681 15.1116L189.41 3.21791C189.092 1.55273 187.484 0.460596 185.819 0.778546Z" fill="#A55EFF"/>
<path d="M5.16777 10.1701L-8.64681 12.8078C-10.312 13.1258 -11.4041 14.7334 -11.0862 16.3986L-8.55286 29.6661C-8.23491 31.3312 -6.62728 32.4234 -4.9621 32.1054L8.85248 29.4677C10.5177 29.1497 11.6098 27.5421 11.2918 25.8769L8.75853 12.6094C8.44058 10.9443 6.83295 9.85213 5.16777 10.1701Z" fill="url(#paint31_linear_83_221)"/>
<path d="M4.59796 10.9939L-7.80721 13.3625C-9.47238 13.6805 -10.5645 15.2881 -10.2466 16.9533L-7.97556 28.847C-7.65761 30.5122 -6.04998 31.6043 -4.38481 31.2864L8.02036 28.9177C9.68553 28.5998 10.7777 26.9922 10.4597 25.327L8.18872 13.4332C7.87078 11.7681 6.26313 10.6759 4.59796 10.9939Z" fill="#A55EFF"/>
<path d="M28.9766 5.62735L15.162 8.26512C13.4969 8.58307 12.4047 10.1907 12.7227 11.8559L15.256 25.1233C15.5739 26.7885 17.1816 27.8807 18.8467 27.5627L32.6613 24.9249C34.3265 24.607 35.4186 22.9993 35.1007 21.3342L32.5674 8.06671C32.2494 6.40154 30.6418 5.3094 28.9766 5.62735Z" fill="url(#paint32_linear_83_221)"/>
<path d="M28.4056 6.44517L16.0004 8.81383C14.3352 9.13178 13.2431 10.7394 13.5611 12.4046L15.8321 24.2983C16.15 25.9635 17.7576 27.0556 19.4228 26.7377L31.828 24.369C33.4932 24.0511 34.5853 22.4434 34.2673 20.7783L31.9963 8.88453C31.6784 7.21936 30.0707 6.12722 28.4056 6.44517Z" fill="#A55EFF"/>
<path d="M52.2845 1.17716L38.4699 3.81492C36.8047 4.13287 35.7126 5.74051 36.0305 7.40569L38.5638 20.6732C38.8818 22.3383 40.4894 23.4305 42.1546 23.1125L55.9692 20.4747C57.6343 20.1568 58.7265 18.5492 58.4085 16.884L55.8752 3.61652C55.5573 1.95135 53.9496 0.859207 52.2845 1.17716Z" fill="url(#paint33_linear_83_221)"/>
<path d="M51.7134 1.9951L39.3083 4.36375C37.6431 4.6817 36.551 6.28934 36.8689 7.95452L39.1399 19.8483C39.4579 21.5134 41.0655 22.6056 42.7307 22.2876L55.1358 19.919C56.801 19.601 57.8932 17.9934 57.5752 16.3282L55.3042 4.43446C54.9863 2.76929 53.3786 1.67715 51.7134 1.9951Z" fill="#A55EFF"/>
<path d="M75.7191 -3.29648L61.9045 -0.658708C60.2393 -0.340758 59.1472 1.26688 59.4651 2.93205L61.9984 16.1995C62.3164 17.8647 63.924 18.9568 65.5892 18.6389L79.4038 16.0011C81.0689 15.6832 82.1611 14.0755 81.8431 12.4103L79.3098 -0.857114C78.9919 -2.52229 77.3842 -3.61443 75.7191 -3.29648Z" fill="url(#paint34_linear_83_221)"/>
<path d="M75.148 -2.47841L62.7428 -0.109758C61.0777 0.208192 59.9855 1.81583 60.3035 3.481L62.5745 15.3747C62.8924 17.0399 64.5001 18.132 66.1653 17.8141L78.5704 15.4454C80.2356 15.1275 81.3277 13.5199 81.0098 11.8547L78.7388 -0.0390501C78.4208 -1.70422 76.8132 -2.79636 75.148 -2.47841Z" fill="#A55EFF"/>
<path d="M99.4124 -7.82284L85.5978 -5.18508C83.9327 -4.86713 82.8405 -3.25949 83.1585 -1.59431L85.6918 11.6731C86.0097 13.3383 87.6174 14.4305 89.2825 14.1125L103.097 11.4747C104.762 11.1568 105.854 9.54915 105.536 7.88398L103.003 -5.38348C102.685 -7.04865 101.078 -8.14079 99.4124 -7.82284Z" fill="url(#paint35_linear_83_221)"/>
<path d="M98.8353 -7.00381L86.4301 -4.63515C84.7649 -4.3172 83.6728 -2.70956 83.9907 -1.04439L86.2617 10.8493C86.5797 12.5145 88.1873 13.6067 89.8525 13.2887L102.258 10.9201C103.923 10.6021 105.015 8.99447 104.697 7.3293L102.426 -4.56444C102.108 -6.22961 100.5 -7.32176 98.8353 -7.00381Z" fill="#A55EFF"/>
<path d="M123.094 -12.348L109.279 -9.71022C107.614 -9.39227 106.522 -7.78463 106.84 -6.11946L109.373 7.14801C109.691 8.81318 111.299 9.90532 112.964 9.58737L126.778 6.9496C128.443 6.63165 129.536 5.02401 129.218 3.35884L126.684 -9.90863C126.366 -11.5738 124.759 -12.6659 123.094 -12.348Z" fill="url(#paint36_linear_83_221)"/>
<path d="M122.523 -11.5242L110.118 -9.15553C108.453 -8.83758 107.361 -7.22994 107.679 -5.56477L109.95 6.32896C110.268 7.99414 111.876 9.08628 113.541 8.76833L125.946 6.39967C127.611 6.08172 128.703 4.47408 128.385 2.80891L126.114 -9.08483C125.796 -10.75 124.189 -11.8421 122.523 -11.5242Z" fill="#A55EFF"/>
<path d="M146.656 -16.839L132.841 -14.2012C131.176 -13.8832 130.084 -12.2756 130.402 -10.6104L132.935 2.65704C133.253 4.32221 134.861 5.41435 136.526 5.0964L150.34 2.45863C152.005 2.14068 153.098 0.533039 152.78 -1.13213L150.246 -14.3996C149.928 -16.0648 148.321 -17.1569 146.656 -16.839Z" fill="url(#paint37_linear_83_221)"/>
<path d="M146.079 -16.02L133.674 -13.6514C132.008 -13.3334 130.916 -11.7258 131.234 -10.0606L133.505 1.83311C133.823 3.49829 135.431 4.59043 137.096 4.27248L149.501 1.90382C151.166 1.58587 152.258 -0.0217673 151.94 -1.68694L149.669 -13.5807C149.351 -15.2458 147.744 -16.338 146.079 -16.02Z" fill="#A55EFF"/>
<path d="M170.216 -21.3409L156.402 -18.7031C154.737 -18.3852 153.644 -16.7776 153.962 -15.1124L156.496 -1.84492C156.814 -0.179746 158.421 0.912397 160.086 0.594447L173.901 -2.04332C175.566 -2.36127 176.658 -3.96891 176.34 -5.63408L173.807 -18.9015C173.489 -20.5667 171.882 -21.6589 170.216 -21.3409Z" fill="url(#paint38_linear_83_221)"/>
<path d="M170.008 -20.59L157.603 -18.2213C155.938 -17.9034 154.845 -16.2957 155.163 -14.6306L157.434 -2.73683C157.752 -1.07166 159.36 0.0204808 161.025 -0.297469L173.43 -2.66613C175.095 -2.98408 176.188 -4.59172 175.87 -6.25689L173.599 -18.1506C173.281 -19.8158 171.673 -20.9079 170.008 -20.59Z" fill="#697087"/>
<path d="M0.67583 -13.3336L-13.1387 -10.6958C-14.8039 -10.3779 -15.8961 -8.77023 -15.5781 -7.10506L-13.0448 6.16241C-12.7269 7.82758 -11.1192 8.91972 -9.45404 8.60177L4.36053 5.964C6.02571 5.64605 7.11785 4.03841 6.7999 2.37324L4.2666 -10.8942C3.94865 -12.5594 2.341 -13.6515 0.67583 -13.3336Z" fill="url(#paint39_linear_83_221)"/>
<path d="M0.104804 -12.5156L-12.3004 -10.147C-13.9655 -9.82904 -15.0577 -8.2214 -14.7397 -6.55623L-12.4687 5.33751C-12.1508 7.00268 -10.5431 8.09482 -8.87796 7.77687L3.52721 5.40822C5.19238 5.09027 6.28451 3.48263 5.96656 1.81745L3.69556 -10.0763C3.37761 -11.7415 1.76998 -12.8336 0.104804 -12.5156Z" fill="#A55EFF"/>
<path d="M24.4895 -17.8824L10.675 -15.2446C9.00981 -14.9267 7.91766 -13.3191 8.23561 -11.6539L10.7689 1.61358C11.0869 3.27876 12.6945 4.37089 14.3597 4.05294L28.1742 1.41518C29.8394 1.09723 30.9316 -0.510412 30.6136 -2.17559L28.0803 -15.4431C27.7624 -17.1082 26.1547 -18.2004 24.4895 -17.8824Z" fill="url(#paint40_linear_83_221)"/>
<path d="M23.9185 -17.0645L11.5133 -14.6958C9.84818 -14.3779 8.75604 -12.7702 9.07399 -11.1051L11.345 0.788681C11.6629 2.45385 13.2706 3.546 14.9358 3.22805L27.3409 0.859389C29.0061 0.541439 30.0982 -1.0662 29.7803 -2.73137L27.5093 -14.6251C27.1913 -16.2903 25.5837 -17.3824 23.9185 -17.0645Z" fill="#A55EFF"/>
<path d="M47.7979 -22.3324L33.9833 -19.6946C32.3182 -19.3766 31.226 -17.769 31.544 -16.1038L34.0773 -2.83637C34.3952 -1.1712 36.0029 -0.0790574 37.668 -0.397007L51.4826 -3.03478C53.1478 -3.35273 54.2399 -4.96036 53.922 -6.62554L51.3887 -19.893C51.0707 -21.5582 49.4631 -22.6503 47.7979 -22.3324Z" fill="url(#paint41_linear_83_221)"/>
<path d="M245.092 -11.2501L231.278 -8.61232C229.613 -8.29437 228.52 -6.68673 228.838 -5.02156L231.372 8.2459C231.69 9.91107 233.297 11.0032 234.962 10.6853L248.777 8.04749C250.442 7.72954 251.534 6.1219 251.216 4.45673L248.683 -8.81073C248.365 -10.4759 246.758 -11.568 245.092 -11.2501Z" fill="url(#paint42_linear_83_221)"/>
<path d="M245.229 -10.5615L232.823 -8.19289C231.158 -7.87494 230.066 -6.2673 230.384 -4.60213L232.655 7.29161C232.973 8.95678 234.581 10.0489 236.246 9.73097L248.651 7.36232C250.316 7.04437 251.408 5.43673 251.09 3.77156L248.819 -8.12218C248.501 -9.78735 246.894 -10.8795 245.229 -10.5615Z" fill="#15DFBF"/>
<path d="M249.45 11.5584L235.635 14.1962C233.97 14.5141 232.878 16.1217 233.196 17.7869L235.729 31.0544C236.047 32.7196 237.655 33.8117 239.32 33.4937L253.134 30.856C254.8 30.538 255.892 28.9304 255.574 27.2652L253.041 13.9977C252.723 12.3326 251.115 11.2404 249.45 11.5584Z" fill="url(#paint43_linear_83_221)"/>
<path d="M249.58 12.2469L237.175 14.6156C235.51 14.9335 234.418 16.5412 234.736 18.2063L237.007 30.1001C237.325 31.7653 238.932 32.8574 240.597 32.5394L253.003 30.1708C254.668 29.8528 255.76 28.2452 255.442 26.58L253.171 14.6863C252.853 13.0211 251.245 11.929 249.58 12.2469Z" fill="#15DFBF"/>
<path d="M253.945 35.0788L240.131 37.7165C238.465 38.0345 237.373 39.6421 237.691 41.3073L240.224 54.5748C240.542 56.2399 242.15 57.3321 243.815 57.0141L257.63 54.3764C259.295 54.0584 260.387 52.4508 260.069 50.7856L257.536 37.5181C257.218 35.853 255.61 34.7608 253.945 35.0788Z" fill="url(#paint44_linear_83_221)"/>
<path d="M254.075 35.7612L241.67 38.1299C240.005 38.4478 238.913 40.0555 239.23 41.7206L241.501 53.6144C241.819 55.2795 243.427 56.3717 245.092 56.0537L257.497 53.6851C259.163 53.3671 260.255 51.7595 259.937 50.0943L257.666 38.2006C257.348 36.5354 255.74 35.4433 254.075 35.7612Z" fill="#15DFBF"/>
<path d="M140.948 80.3041L127.133 82.9419C125.468 83.2598 124.376 84.8675 124.694 86.5326L127.227 99.8001C127.545 101.465 129.153 102.557 130.818 102.239L144.632 99.6017C146.298 99.2837 147.39 97.6761 147.072 96.0109L144.539 82.7435C144.221 81.0783 142.613 79.9862 140.948 80.3041Z" fill="url(#paint45_linear_83_221)"/>
<path d="M140.371 81.123L127.966 83.4917C126.301 83.8096 125.208 85.4173 125.526 87.0824L127.797 98.9762C128.115 100.641 129.723 101.733 131.388 101.416L143.793 99.0469C145.458 98.7289 146.551 97.1213 146.233 95.4561L143.962 83.5624C143.644 81.8972 142.036 80.8051 140.371 81.123Z" fill="#15DFBF"/>
<path d="M164.055 75.8969L150.241 78.5347C148.576 78.8526 147.484 80.4602 147.802 82.1254L150.335 95.3929C150.653 97.0581 152.26 98.1502 153.926 97.8322L167.74 95.1945C169.405 94.8765 170.497 93.2689 170.18 91.6037L167.646 78.3362C167.328 76.6711 165.721 75.5789 164.055 75.8969Z" fill="url(#paint46_linear_83_221)"/>
<path d="M163.932 76.6321L151.527 79.0007C149.862 79.3187 148.77 80.9263 149.088 82.5915L151.359 94.4852C151.677 96.1504 153.284 97.2425 154.95 96.9246L167.355 94.5559C169.02 94.238 170.112 92.6303 169.794 90.9652L167.523 79.0714C167.205 77.4062 165.598 76.3141 163.932 76.6321Z" fill="#15DFBF"/>
<path d="M187.553 71.4059L173.738 74.0437C172.073 74.3616 170.981 75.9693 171.299 77.6344L173.832 90.9019C174.15 92.5671 175.758 93.6592 177.423 93.3413L191.238 90.7035C192.903 90.3856 193.995 88.7779 193.677 87.1127L191.144 73.8453C190.826 72.1801 189.218 71.088 187.553 71.4059Z" fill="url(#paint47_linear_83_221)"/>
<path d="M187.43 72.1413L175.025 74.51C173.36 74.8279 172.268 76.4356 172.586 78.1008L174.857 89.9945C175.175 91.6597 176.783 92.7518 178.448 92.4339L190.853 90.0652C192.518 89.7473 193.61 88.1396 193.292 86.4744L191.021 74.5807C190.703 72.9155 189.096 71.8234 187.43 72.1413Z" fill="#15DFBF"/>
<path d="M221.465 -6.73854L195.887 -1.85475C194.222 -1.5368 193.13 0.0708365 193.448 1.73601L195.981 15.0035C196.299 16.6686 197.907 17.7608 199.572 17.4428L225.149 12.559C226.814 12.2411 227.907 10.6335 227.589 8.96828L225.055 -4.29918C224.737 -5.96435 223.13 -7.05649 221.465 -6.73854Z" fill="url(#paint48_linear_83_221)"/>
<path d="M221.594 -6.04839L197.824 -1.50978C196.159 -1.19183 195.067 0.415807 195.385 2.08098L197.656 13.9747C197.974 15.6399 199.582 16.732 201.247 16.4141L225.016 11.8755C226.682 11.5575 227.774 9.94989 227.456 8.28471L225.185 -3.60902C224.867 -5.2742 223.259 -6.36634 221.594 -6.04839Z" fill="#15DFBF"/>
<path d="M225.823 16.0688L182.114 24.4148C180.449 24.7327 179.356 26.3404 179.674 28.0055L182.208 41.273C182.526 42.9382 184.133 44.0303 185.798 43.7124L229.508 35.3664C231.173 35.0485 232.265 33.4408 231.947 31.7757L229.414 18.5082C229.096 16.843 227.488 15.7509 225.823 16.0688Z" fill="url(#paint49_linear_83_221)"/>
<path d="M225.955 16.758L183.923 24.7837C182.257 25.1016 181.165 26.7093 181.483 28.3744L183.754 40.2682C184.072 41.9333 185.68 43.0255 187.345 42.7075L229.377 34.6818C231.043 34.3639 232.135 32.7562 231.817 31.091L229.546 19.1973C229.228 17.5321 227.62 16.44 225.955 16.758Z" fill="#15DFBF"/>
<path d="M206.274 44.1512L175.273 50.0705C173.607 50.3885 172.515 51.9961 172.833 53.6613L175.367 66.9288C175.685 68.5939 177.292 69.6861 178.957 69.3681L209.958 63.4488C211.624 63.1308 212.716 61.5232 212.398 59.858L209.864 46.5905C209.546 44.9254 207.939 43.8332 206.274 44.1512Z" fill="url(#paint50_linear_83_221)"/>
<path d="M205.569 44.9978L177.084 50.4369C175.418 50.7548 174.326 52.3625 174.644 54.0276L176.915 65.9214C177.233 67.5865 178.841 68.6787 180.506 68.3607L208.992 62.9217C210.657 62.6037 211.749 60.9961 211.431 59.3309L209.16 47.4372C208.842 45.772 207.234 44.6799 205.569 44.9978Z" fill="#15DFBF"/>
<path d="M426.811 -89.9147L437.972 -98.486L552.107 208.317L540.946 216.889L345.105 150.267L426.811 -89.9147Z" fill="#6366F1"/>
<rect x="437.972" y="-98.4856" width="206.862" height="253.699" transform="rotate(18.7874 437.972 -98.4856)" fill="#A5B4FC"/>
<path d="M355.085 133.049L371.426 85.0125L346.514 121.888L355.085 133.049Z" fill="#A5B4FC"/>
<path d="M421.631 -50.4492L617.472 16.1722L616.843 18.0198L421.002 -48.6017L421.631 -50.4492Z" fill="#FCD34D"/>
<path d="M381.406 67.7941L577.247 134.416L576.618 136.263L380.778 69.6416L381.406 67.7941Z" fill="#818CF8"/>
<path d="M401.519 8.67224L597.359 75.2937L596.731 77.1412L400.89 10.5198L401.519 8.67224Z" fill="#818CF8"/>
<path d="M361.295 126.916L557.136 193.537L556.507 195.385L360.666 128.763L361.295 126.916Z" fill="#818CF8"/>
<path d="M411.575 -20.8884L607.416 45.733L606.787 47.5806L410.946 -19.0409L411.575 -20.8884Z" fill="#818CF8"/>
<path d="M371.35 97.3547L567.191 163.976L566.563 165.824L370.722 99.2023L371.35 97.3547Z" fill="#818CF8"/>
<path d="M391.463 38.2329L587.303 104.854L586.675 106.702L390.834 40.0805L391.463 38.2329Z" fill="#818CF8"/>
<path d="M416.603 -35.6691L612.444 30.9524L611.815 32.7999L415.975 -33.8215L416.603 -35.6691Z" fill="#818CF8"/>
<path d="M376.378 82.5742L572.219 149.196L571.591 151.043L375.75 84.4218L376.378 82.5742Z" fill="#818CF8"/>
<path d="M396.491 23.4528L592.331 90.0742L591.703 91.9218L395.862 25.3003L396.491 23.4528Z" fill="#818CF8"/>
<path d="M406.547 -6.10791L602.387 60.5135L601.759 62.3611L405.918 -4.26036L406.547 -6.10791Z" fill="#818CF8"/>
<path d="M366.322 112.135L562.163 178.757L561.534 180.604L365.694 113.983L366.322 112.135Z" fill="#818CF8"/>
<path d="M386.435 53.0134L582.275 119.635L581.647 121.482L385.806 54.861L386.435 53.0134Z" fill="#818CF8"/>
<path fill-rule="evenodd" clip-rule="evenodd" d="M379.298 73.994L383.024 63.0403C401.961 63.5221 420.631 68.334 437.75 77.9331C477.76 100.364 499.886 143.656 500.549 190.778L488.08 186.537C486.348 145.573 465.902 107.731 432.5 89C415.067 79.2261 396.97 74.1636 379.298 73.994Z" fill="url(#paint51_linear_83_221)"/>
<path d="M492.816 248.983L473.626 238.223C508.366 176.253 493.656 101.743 440.836 72.1231C388.006 42.5031 316.766 68.8331 282.026 130.803L262.836 120.043C303.506 47.4931 388.186 17.3831 451.586 52.9331C514.996 88.4831 533.486 176.433 492.806 248.983H492.816Z" fill="#313A53"/>
<path d="M172.626 269.063C150.796 255.823 140.546 241.383 142.166 226.163C145.816 191.863 210.926 168.943 213.696 167.983L217.296 178.373C200.256 184.283 155.506 204.603 153.096 227.333C151.966 237.943 160.456 248.823 178.326 259.663L172.616 269.063H172.626Z" fill="#313A53"/>
<path d="M315.406 160.773C315.406 193.275 289.058 219.623 256.556 219.623C224.054 219.623 197.706 193.275 197.706 160.773C197.706 128.271 224.054 101.923 256.556 101.923C289.058 101.923 315.406 128.271 315.406 160.773Z" fill="#0D162F" stroke="url(#paint52_linear_83_221)" stroke-width="5"/>
<path d="M256.556 190.813C273.147 190.813 286.596 177.364 286.596 160.773C286.596 144.182 273.147 130.733 256.556 130.733C239.965 130.733 226.516 144.182 226.516 160.773C226.516 177.364 239.965 190.813 256.556 190.813Z" fill="#313A53"/>
<path d="M283 161C283 175.929 271.119 188 256.5 188C241.881 188 230 175.929 230 161C230 146.071 241.881 134 256.5 134C271.119 134 283 146.071 283 161Z" stroke="#1A2136" stroke-width="2"/>
<path d="M252.216 151.213C253.784 151.213 255.056 149.942 255.056 148.373C255.056 146.805 253.784 145.533 252.216 145.533C250.647 145.533 249.376 146.805 249.376 148.373C249.376 149.942 250.647 151.213 252.216 151.213Z" fill="#1A2136"/>
<path d="M260.896 151.213C262.464 151.213 263.736 149.942 263.736 148.373C263.736 146.805 262.464 145.533 260.896 145.533C259.327 145.533 258.056 146.805 258.056 148.373C258.056 149.942 259.327 151.213 260.896 151.213Z" fill="#1A2136"/>
<path d="M252.216 159.483C253.784 159.483 255.056 158.212 255.056 156.643C255.056 155.075 253.784 153.803 252.216 153.803C250.647 153.803 249.376 155.075 249.376 156.643C249.376 158.212 250.647 159.483 252.216 159.483Z" fill="#1A2136"/>
<path d="M260.896 159.483C262.464 159.483 263.736 158.212 263.736 156.643C263.736 155.075 262.464 153.803 260.896 153.803C259.327 153.803 258.056 155.075 258.056 156.643C258.056 158.212 259.327 159.483 260.896 159.483Z" fill="#1A2136"/>
<path d="M252.216 167.743C253.784 167.743 255.056 166.472 255.056 164.903C255.056 163.335 253.784 162.063 252.216 162.063C250.647 162.063 249.376 163.335 249.376 164.903C249.376 166.472 250.647 167.743 252.216 167.743Z" fill="#1A2136"/>
<path d="M243.536 159.483C245.104 159.483 246.376 158.212 246.376 156.643C246.376 155.075 245.104 153.803 243.536 153.803C241.967 153.803 240.696 155.075 240.696 156.643C240.696 158.212 241.967 159.483 243.536 159.483Z" fill="#1A2136"/>
<path d="M243.536 167.743C245.104 167.743 246.376 166.472 246.376 164.903C246.376 163.335 245.104 162.063 243.536 162.063C241.967 162.063 240.696 163.335 240.696 164.903C240.696 166.472 241.967 167.743 243.536 167.743Z" fill="#1A2136"/>
<path d="M260.896 167.743C262.464 167.743 263.736 166.472 263.736 164.903C263.736 163.335 262.464 162.063 260.896 162.063C259.327 162.063 258.056 163.335 258.056 164.903C258.056 166.472 259.327 167.743 260.896 167.743Z" fill="#1A2136"/>
<path d="M269.586 159.483C271.154 159.483 272.426 158.212 272.426 156.643C272.426 155.075 271.154 153.803 269.586 153.803C268.017 153.803 266.746 155.075 266.746 156.643C266.746 158.212 268.017 159.483 269.586 159.483Z" fill="#1A2136"/>
<path d="M269.586 167.743C271.154 167.743 272.426 166.472 272.426 164.903C272.426 163.335 271.154 162.063 269.586 162.063C268.017 162.063 266.746 163.335 266.746 164.903C266.746 166.472 268.017 167.743 269.586 167.743Z" fill="#1A2136"/>
<path d="M252.216 176.013C253.784 176.013 255.056 174.741 255.056 173.173C255.056 171.605 253.784 170.333 252.216 170.333C250.647 170.333 249.376 171.605 249.376 173.173C249.376 174.741 250.647 176.013 252.216 176.013Z" fill="#1A2136"/>
<path d="M260.896 176.013C262.464 176.013 263.736 174.741 263.736 173.173C263.736 171.605 262.464 170.333 260.896 170.333C259.327 170.333 258.056 171.605 258.056 173.173C258.056 174.741 259.327 176.013 260.896 176.013Z" fill="#1A2136"/>
<path d="M180.106 255.903L188.496 259.713C193.686 262.063 195.756 268.363 192.966 273.333C190.196 278.273 183.826 279.813 179.106 276.683L171.426 271.593C167.466 268.973 166.226 263.713 168.606 259.603C170.916 255.593 175.896 254.003 180.106 255.913V255.903Z" fill="#313A53"/>
<path d="M160.336 260.503C162.546 262.303 164.966 264.073 167.576 265.833C166.496 258.273 172.586 255.953 172.586 255.953L172.316 255.763C172.126 255.633 171.946 255.503 171.766 255.373L170.956 254.803C164.546 254.203 160.366 260.463 160.336 260.503Z" fill="#0D162F"/>
<path d="M499.276 282.633L498.896 282.513C477.986 275.663 458.396 265.283 440.966 251.843C435.456 247.583 433.796 239.983 437.056 233.823V233.803C440.756 226.813 449.416 224.143 456.406 227.833L510.416 256.373C517.406 260.063 520.076 268.723 516.386 275.713C513.126 281.883 505.896 284.803 499.276 282.623V282.633Z" fill="#313A53"/>
<path d="M497.862 275.772L497.863 275.769L497.543 275.649L497.543 275.648L497.531 275.644C479.759 269.141 462.83 260.185 447.461 249.145C442.95 245.904 441.546 240.979 443.341 237.596L443.343 237.592C445.376 233.732 451.32 232.269 456.964 235.259L456.965 235.259L503.974 260.099L497.862 275.772ZM497.862 275.772C503.073 277.665 507.936 276.051 509.73 272.661C511.761 268.821 509.622 263.091 503.975 260.099L497.862 275.772Z" fill="#0D162F" stroke="url(#paint53_linear_83_221)" stroke-width="3"/>
<path d="M474.176 237.223L485.636 243.283L476.726 232.403L474.176 237.223Z" fill="#0D162F"/>
<path d="M366.534 250.548L358 265L349.452 250.548L335 242L349.452 233.466L358 219L366.534 233.466L381 242L366.534 250.548Z" fill="white"/>
<path d="M315.599 30.7993L305.799 21L296 30.7993L305.799 40.5986L315.599 30.7993Z" fill="white"/>
<path d="M90.5986 190.799L80.7993 181L71 190.799L80.7993 200.599L90.5986 190.799Z" fill="white"/>
</g>
<defs>
<linearGradient id="paint0_linear_83_221" x1="233.247" y1="117.901" x2="233.247" y2="280.403" gradientUnits="userSpaceOnUse">
<stop stop-color="#D26500"/>
<stop offset="0.945761" stop-color="#D26500" stop-opacity="0"/>
</linearGradient>
<linearGradient id="paint1_linear_83_221" x1="49.3528" y1="97.7957" x2="53.0375" y2="117.093" gradientUnits="userSpaceOnUse">
<stop stop-color="#A55EFF"/>
<stop offset="1" stop-color="#5300BC"/>
</linearGradient>
<linearGradient id="paint2_linear_83_221" x1="-4.417" y1="84.4091" x2="-0.732299" y2="103.707" gradientUnits="userSpaceOnUse">
<stop stop-color="#A55EFF"/>
<stop offset="1" stop-color="#5300BC"/>
</linearGradient>
<linearGradient id="paint3_linear_83_221" x1="18.9663" y1="79.9445" x2="22.651" y2="99.2421" gradientUnits="userSpaceOnUse">
<stop stop-color="#A55EFF"/>
<stop offset="1" stop-color="#5300BC"/>
</linearGradient>
<linearGradient id="paint4_linear_83_221" x1="42.5508" y1="75.444" x2="46.2355" y2="94.7416" gradientUnits="userSpaceOnUse">
<stop stop-color="#A55EFF"/>
<stop offset="1" stop-color="#5300BC"/>
</linearGradient>
<linearGradient id="paint5_linear_83_221" x1="65.7385" y1="71.0163" x2="69.4232" y2="90.3139" gradientUnits="userSpaceOnUse">
<stop stop-color="#A55EFF"/>
<stop offset="1" stop-color="#5300BC"/>
</linearGradient>
<linearGradient id="paint6_linear_83_221" x1="88.8447" y1="66.603" x2="92.5294" y2="85.9006" gradientUnits="userSpaceOnUse">
<stop stop-color="#A55EFF"/>
<stop offset="1" stop-color="#5300BC"/>
</linearGradient>
<linearGradient id="paint7_linear_83_221" x1="112.533" y1="62.0837" x2="116.218" y2="81.3813" gradientUnits="userSpaceOnUse">
<stop stop-color="#A55EFF"/>
<stop offset="1" stop-color="#5300BC"/>
</linearGradient>
<linearGradient id="paint8_linear_83_221" x1="135.841" y1="57.6335" x2="139.526" y2="76.9311" gradientUnits="userSpaceOnUse">
<stop stop-color="#A55EFF"/>
<stop offset="1" stop-color="#5300BC"/>
</linearGradient>
<linearGradient id="paint9_linear_83_221" x1="158.913" y1="53.2209" x2="162.598" y2="72.5185" gradientUnits="userSpaceOnUse">
<stop stop-color="#A55EFF"/>
<stop offset="1" stop-color="#5300BC"/>
</linearGradient>
<linearGradient id="paint10_linear_83_221" x1="223.408" y1="40.913" x2="227.093" y2="60.2106" gradientUnits="userSpaceOnUse">
<stop stop-color="#A55EFF"/>
<stop offset="1" stop-color="#5300BC"/>
</linearGradient>
<linearGradient id="paint11_linear_83_221" x1="227.762" y1="63.7271" x2="231.446" y2="83.0247" gradientUnits="userSpaceOnUse">
<stop stop-color="#A55EFF"/>
<stop offset="1" stop-color="#5300BC"/>
</linearGradient>
<linearGradient id="paint12_linear_83_221" x1="251.393" y1="59.2238" x2="255.078" y2="78.5214" gradientUnits="userSpaceOnUse">
<stop stop-color="#A55EFF"/>
<stop offset="1" stop-color="#5300BC"/>
</linearGradient>
<linearGradient id="paint13_linear_83_221" x1="203.73" y1="68.322" x2="207.414" y2="87.6196" gradientUnits="userSpaceOnUse">
<stop stop-color="#A55EFF"/>
<stop offset="1" stop-color="#5300BC"/>
</linearGradient>
<linearGradient id="paint14_linear_83_221" x1="2.5183" y1="58.705" x2="6.203" y2="78.0026" gradientUnits="userSpaceOnUse">
<stop stop-color="#A55EFF"/>
<stop offset="1" stop-color="#5300BC"/>
</linearGradient>
<linearGradient id="paint15_linear_83_221" x1="25.5974" y1="54.3032" x2="29.2821" y2="73.6008" gradientUnits="userSpaceOnUse">
<stop stop-color="#A55EFF"/>
<stop offset="1" stop-color="#5300BC"/>
</linearGradient>
<linearGradient id="paint16_linear_83_221" x1="49.4563" y1="49.7456" x2="53.141" y2="69.0431" gradientUnits="userSpaceOnUse">
<stop stop-color="#A55EFF"/>
<stop offset="1" stop-color="#5300BC"/>
</linearGradient>
<linearGradient id="paint17_linear_83_221" x1="72.6782" y1="45.3112" x2="76.3629" y2="64.6088" gradientUnits="userSpaceOnUse">
<stop stop-color="#A55EFF"/>
<stop offset="1" stop-color="#5300BC"/>
</linearGradient>
<linearGradient id="paint18_linear_83_221" x1="95.7803" y1="40.8988" x2="99.465" y2="60.1963" gradientUnits="userSpaceOnUse">
<stop stop-color="#A55EFF"/>
<stop offset="1" stop-color="#5300BC"/>
</linearGradient>
<linearGradient id="paint19_linear_83_221" x1="119.076" y1="36.4509" x2="122.761" y2="55.7485" gradientUnits="userSpaceOnUse">
<stop stop-color="#A55EFF"/>
<stop offset="1" stop-color="#5300BC"/>
</linearGradient>
<linearGradient id="paint20_linear_83_221" x1="142.471" y1="31.9851" x2="146.156" y2="51.2826" gradientUnits="userSpaceOnUse">
<stop stop-color="#A55EFF"/>
<stop offset="1" stop-color="#5300BC"/>
</linearGradient>
<linearGradient id="paint21_linear_83_221" x1="166.061" y1="27.4776" x2="169.746" y2="46.7752" gradientUnits="userSpaceOnUse">
<stop stop-color="#A55EFF"/>
<stop offset="1" stop-color="#5300BC"/>
</linearGradient>
<linearGradient id="paint22_linear_83_221" x1="-8.34425" y1="37.114" x2="-4.65955" y2="56.4115" gradientUnits="userSpaceOnUse">
<stop stop-color="#A55EFF"/>
<stop offset="1" stop-color="#5300BC"/>
</linearGradient>
<linearGradient id="paint23_linear_83_221" x1="15.5505" y1="32.5495" x2="19.2352" y2="51.8471" gradientUnits="userSpaceOnUse">
<stop stop-color="#A55EFF"/>
<stop offset="1" stop-color="#5300BC"/>
</linearGradient>
<linearGradient id="paint24_linear_83_221" x1="38.7788" y1="28.1198" x2="42.4635" y2="47.4174" gradientUnits="userSpaceOnUse">
<stop stop-color="#A55EFF"/>
<stop offset="1" stop-color="#5300BC"/>
</linearGradient>
<linearGradient id="paint25_linear_83_221" x1="62.3677" y1="23.6423" x2="66.0524" y2="42.9399" gradientUnits="userSpaceOnUse">
<stop stop-color="#A55EFF"/>
<stop offset="1" stop-color="#5300BC"/>
</linearGradient>
<linearGradient id="paint26_linear_83_221" x1="85.6985" y1="19.1876" x2="89.3832" y2="38.4852" gradientUnits="userSpaceOnUse">
<stop stop-color="#A55EFF"/>
<stop offset="1" stop-color="#5300BC"/>
</linearGradient>
<linearGradient id="paint27_linear_83_221" x1="109.031" y1="14.7341" x2="112.715" y2="34.0317" gradientUnits="userSpaceOnUse">
<stop stop-color="#A55EFF"/>
<stop offset="1" stop-color="#5300BC"/>
</linearGradient>
<linearGradient id="paint28_linear_83_221" x1="132.424" y1="10.2612" x2="136.109" y2="29.5588" gradientUnits="userSpaceOnUse">
<stop stop-color="#A55EFF"/>
<stop offset="1" stop-color="#5300BC"/>
</linearGradient>
<linearGradient id="paint29_linear_83_221" x1="156.083" y1="5.74751" x2="159.768" y2="25.0451" gradientUnits="userSpaceOnUse">
<stop stop-color="#A55EFF"/>
<stop offset="1" stop-color="#5300BC"/>
</linearGradient>
<linearGradient id="paint30_linear_83_221" x1="179.132" y1="1.34419" x2="182.817" y2="20.6418" gradientUnits="userSpaceOnUse">
<stop stop-color="#A55EFF"/>
<stop offset="1" stop-color="#5300BC"/>
</linearGradient>
<linearGradient id="paint31_linear_83_221" x1="-1.73952" y1="11.489" x2="1.94519" y2="30.7866" gradientUnits="userSpaceOnUse">
<stop stop-color="#A55EFF"/>
<stop offset="1" stop-color="#5300BC"/>
</linearGradient>
<linearGradient id="paint32_linear_83_221" x1="22.0693" y1="6.94624" x2="25.754" y2="26.2438" gradientUnits="userSpaceOnUse">
<stop stop-color="#A55EFF"/>
<stop offset="1" stop-color="#5300BC"/>
</linearGradient>
<linearGradient id="paint33_linear_83_221" x1="45.3772" y1="2.49604" x2="49.0619" y2="21.7936" gradientUnits="userSpaceOnUse">
<stop stop-color="#A55EFF"/>
<stop offset="1" stop-color="#5300BC"/>
</linearGradient>
<linearGradient id="paint34_linear_83_221" x1="68.8118" y1="-1.97759" x2="72.4965" y2="17.32" gradientUnits="userSpaceOnUse">
<stop stop-color="#A55EFF"/>
<stop offset="1" stop-color="#5300BC"/>
</linearGradient>
<linearGradient id="paint35_linear_83_221" x1="92.5051" y1="-6.50396" x2="96.1898" y2="12.7936" gradientUnits="userSpaceOnUse">
<stop stop-color="#A55EFF"/>
<stop offset="1" stop-color="#5300BC"/>
</linearGradient>
<linearGradient id="paint36_linear_83_221" x1="116.186" y1="-11.0291" x2="119.871" y2="8.26848" gradientUnits="userSpaceOnUse">
<stop stop-color="#A55EFF"/>
<stop offset="1" stop-color="#5300BC"/>
</linearGradient>
<linearGradient id="paint37_linear_83_221" x1="139.748" y1="-15.5201" x2="143.433" y2="3.77751" gradientUnits="userSpaceOnUse">
<stop stop-color="#A55EFF"/>
<stop offset="1" stop-color="#5300BC"/>
</linearGradient>
<linearGradient id="paint38_linear_83_221" x1="163.309" y1="-20.022" x2="166.994" y2="-0.724438" gradientUnits="userSpaceOnUse">
<stop stop-color="#A55EFF"/>
<stop offset="1" stop-color="#5300BC"/>
</linearGradient>
<linearGradient id="paint39_linear_83_221" x1="-6.23146" y1="-12.0147" x2="-2.54675" y2="7.28288" gradientUnits="userSpaceOnUse">
<stop stop-color="#A55EFF"/>
<stop offset="1" stop-color="#5300BC"/>
</linearGradient>
<linearGradient id="paint40_linear_83_221" x1="17.5823" y1="-16.5635" x2="21.267" y2="2.73406" gradientUnits="userSpaceOnUse">
<stop stop-color="#A55EFF"/>
<stop offset="1" stop-color="#5300BC"/>
</linearGradient>
<linearGradient id="paint41_linear_83_221" x1="40.8906" y1="-21.0135" x2="44.5753" y2="-1.71589" gradientUnits="userSpaceOnUse">
<stop stop-color="#697087"/>
<stop offset="1"/>
</linearGradient>
<linearGradient id="paint42_linear_83_221" x1="238.185" y1="-9.93121" x2="241.87" y2="9.36638" gradientUnits="userSpaceOnUse">
<stop stop-color="#15DFBF"/>
<stop offset="1" stop-color="#009C83"/>
</linearGradient>
<linearGradient id="paint43_linear_83_221" x1="242.542" y1="12.8773" x2="246.227" y2="32.1749" gradientUnits="userSpaceOnUse">
<stop stop-color="#15DFBF"/>
<stop offset="1" stop-color="#009C83"/>
</linearGradient>
<linearGradient id="paint44_linear_83_221" x1="247.038" y1="36.3977" x2="250.723" y2="55.6952" gradientUnits="userSpaceOnUse">
<stop stop-color="#15DFBF"/>
<stop offset="1" stop-color="#009C83"/>
</linearGradient>
<linearGradient id="paint45_linear_83_221" x1="134.041" y1="81.623" x2="137.725" y2="100.921" gradientUnits="userSpaceOnUse">
<stop stop-color="#15DFBF"/>
<stop offset="1" stop-color="#009C83"/>
</linearGradient>
<linearGradient id="paint46_linear_83_221" x1="157.148" y1="77.2158" x2="160.833" y2="96.5134" gradientUnits="userSpaceOnUse">
<stop stop-color="#15DFBF"/>
<stop offset="1" stop-color="#009C83"/>
</linearGradient>
<linearGradient id="paint47_linear_83_221" x1="180.646" y1="72.7248" x2="184.33" y2="92.0224" gradientUnits="userSpaceOnUse">
<stop stop-color="#15DFBF"/>
<stop offset="1" stop-color="#009C83"/>
</linearGradient>
<linearGradient id="paint48_linear_83_221" x1="208.676" y1="-4.29665" x2="212.361" y2="15.0009" gradientUnits="userSpaceOnUse">
<stop stop-color="#15DFBF"/>
<stop offset="1" stop-color="#009C83"/>
</linearGradient>
<linearGradient id="paint49_linear_83_221" x1="203.968" y1="20.2418" x2="207.653" y2="39.5394" gradientUnits="userSpaceOnUse">
<stop stop-color="#15DFBF"/>
<stop offset="1" stop-color="#009C83"/>
</linearGradient>
<linearGradient id="paint50_linear_83_221" x1="190.773" y1="47.1109" x2="194.458" y2="66.4084" gradientUnits="userSpaceOnUse">
<stop stop-color="#15DFBF"/>
<stop offset="1" stop-color="#009C83"/>
</linearGradient>
<linearGradient id="paint51_linear_83_221" x1="475.5" y1="31.5" x2="388" y2="139.5" gradientUnits="userSpaceOnUse">
<stop offset="0.165727" stop-color="#6366F1"/>
<stop offset="1" stop-color="#A5B4FC" stop-opacity="0"/>
</linearGradient>
<linearGradient id="paint52_linear_83_221" x1="364" y1="280" x2="235.5" y2="138" gradientUnits="userSpaceOnUse">
<stop stop-color="#697087"/>
<stop offset="1" stop-color="#697087" stop-opacity="0"/>
</linearGradient>
<linearGradient id="paint53_linear_83_221" x1="497.5" y1="219.5" x2="462.5" y2="287.5" gradientUnits="userSpaceOnUse">
<stop/>
<stop offset="0.554905" stop-opacity="0"/>
</linearGradient>
<clipPath id="clip0_83_221">
<rect width="529" height="296" fill="white"/>
</clipPath>
</defs>
</svg>
