<svg width="529" height="296" viewBox="0 0 529 296" fill="none" xmlns="http://www.w3.org/2000/svg">
<rect width="529" height="296" fill="#8000FF"/>
<path d="M320.802 190.893L306.409 201.485L301.007 188.288L305.605 184.493L320.802 190.893Z" fill="#AD6143"/>
<path d="M0 55.7203C0 55.7203 36.3134 66.2816 83.2567 92.5011C107.551 106.066 133.808 115.836 161.105 121.238C180.184 125.014 201.836 127.899 221.426 127.17L253.104 107.63C258.063 104.57 264.35 104.682 269.198 107.916L289.155 121.225L271.522 135.918L331.388 176.898C336.099 180.126 337.395 186.512 334.31 191.316C331.451 195.771 325.737 197.423 320.945 195.179L306.297 188.325L316.104 201.56C319.294 205.865 318.708 211.884 314.746 215.492C310.889 219.006 305.025 219.131 301.019 215.779L296.009 211.585C297.742 215.05 296.925 219.249 294.022 221.81L291.691 223.866C288.645 226.552 284.133 226.726 280.893 224.278L274.463 219.424L276.276 222.776C278.096 226.141 277.429 230.315 274.644 232.938C272.164 235.281 268.513 235.904 265.397 234.515C256.799 230.683 248.86 225.524 241.863 219.224L215.687 195.665C215.687 195.665 206.136 180.481 186.546 181.216C166.956 181.951 36.4131 177.54 0 163.34V55.7203Z" fill="#443129"/>
<path d="M204.702 183.584C204.702 183.584 211.693 180.942 217.569 186.948C217.569 186.948 224.136 179.907 232.61 188.413L212.684 195.647L204.702 183.584Z" fill="#30221D"/>
<path d="M196.422 182.25C196.422 182.25 192.951 186.525 195.618 192.986C198.285 199.447 206.765 199.285 209.93 198.45C213.095 197.616 217.75 190.132 212.26 186.469C206.771 182.805 199.02 183.048 199.02 183.048L196.428 182.25H196.422Z" fill="#F9B398"/>
<path d="M199.014 183.048H195.904L196.422 182.25L199.014 183.048Z" fill="#AD6143"/>
<path d="M214.672 192.307L218.971 188.244C222.822 184.612 228.853 184.687 232.611 188.413C236.212 191.983 236.499 197.715 233.271 201.628L226.685 209.598C224.317 212.464 220.305 213.373 216.946 211.772C212.69 209.747 207.999 205.884 208.964 198.862L214.666 192.307H214.672Z" fill="#F9B398"/>
<path d="M228.018 205.666L242.306 194.924C246.624 191.678 252.811 192.556 255.939 196.961C255.989 197.03 256.039 197.099 256.082 197.167C258.861 201.205 258.007 206.719 254.269 209.884L242.169 220.128C236.567 224.869 227.838 223.387 224.492 216.85C223.788 215.473 223.32 213.884 223.233 212.04L228.018 205.666Z" fill="#F9B398"/>
<path d="M240.48 219.149L252.612 213.317C255.609 211.878 259.204 212.682 261.297 215.268C263.709 218.24 263.366 222.589 260.506 225.144L254.101 230.87C248.611 235.78 239.651 233.075 238.168 225.854C237.938 224.732 237.907 223.561 238.156 222.358L240.474 219.149H240.48Z" fill="#F9B398"/>
<path d="M244.218 151.595L246.125 137.127C246.873 131.463 250.337 126.522 255.403 123.892L263.26 119.811C271.503 115.53 281.429 116.072 289.155 121.225L244.212 151.601L244.218 151.595Z" fill="#30221D"/>
<path d="M529 44C529 44 494.251 56.8854 451.121 81.1484C426.353 95.0806 400.32 106.639 373.409 115.786C350.455 123.587 324.983 131.107 308.359 132.603L286.931 119.393C282.707 116.789 277.41 116.639 273.043 118.995L256.83 127.749C254.194 129.17 252.144 131.481 251.048 134.266L244.212 151.594C242.268 156.523 245.695 161.919 250.985 162.255C258.388 162.723 265.273 158.461 268.151 151.626L271.572 143.513L280.09 141.775L331.388 176.892C331.388 176.892 334.155 178.848 335.245 181.727C335.245 181.727 370.032 166.792 448.516 156.741C448.516 156.741 518.364 145.476 528.994 134.939V44H529Z" fill="#F9B398"/>
<path d="M280.096 141.775C285.691 140.958 291.28 143.251 294.695 147.756L301.013 156.093L280.096 141.775Z" fill="#AD6143"/>
<path d="M308.365 132.603C314.397 136.179 321.98 135.812 327.631 131.656L332.423 128.135C332.423 128.135 319.207 131.724 308.365 132.603Z" fill="#AD6143"/>
<path d="M208.846 198.675C208.846 198.675 214.366 197.765 214.672 192.307L216.298 190.768C216.298 190.768 218.591 198.488 208.846 200.519V198.669V198.675Z" fill="#AD6143"/>
<path d="M260.506 225.137L258.338 230.976L255.69 229.449L260.506 225.137Z" fill="#30221D"/>
<path d="M433.534 233.548L425 248L416.452 233.548L402 225L416.452 216.466L425 202L433.534 216.466L448 225L433.534 233.548Z" fill="white"/>
<path d="M212.803 67.4014L201.401 56L190 67.4014L201.401 78.8028L212.803 67.4014Z" fill="white"/>
<path d="M116.803 234.401L105.401 223L94 234.401L105.401 245.803L116.803 234.401Z" fill="white"/>
</svg>
