<svg width="529" height="296" viewBox="0 0 529 296" fill="none" xmlns="http://www.w3.org/2000/svg">
<rect width="529" height="296" fill="#6300FF"/>
<path d="M204.883 208.495H260.911C273.301 208.495 283.343 197.892 283.343 184.791V182.636H217.511C217.511 182.636 219.019 201.836 204.883 208.495Z" fill="#8797C7"/>
<path d="M307.629 87.0428H236.086C197.944 87.0428 167 119.711 167 159.986V168.498C167 190.607 183.959 208.493 204.883 208.493C209.088 208.375 213.074 206.593 215.967 203.539C218.86 200.484 220.422 196.407 220.312 192.202C220.254 190.005 221.07 187.875 222.581 186.279C224.092 184.683 226.175 183.752 228.372 183.69H245.913C246.623 183.71 247.322 183.869 247.971 184.159C248.62 184.449 249.205 184.864 249.694 185.38C250.182 185.897 250.564 186.504 250.817 187.168C251.07 187.832 251.191 188.539 251.17 189.25C251.15 189.96 251.27 190.668 251.524 191.331C251.777 191.995 252.159 192.603 252.647 193.119C253.136 193.636 253.721 194.051 254.37 194.341C255.018 194.631 255.718 194.79 256.428 194.809H285.283C286.955 194.793 288.591 194.319 290.012 193.437C291.433 192.556 292.585 191.301 293.342 189.81V189.81C294.103 188.317 295.258 187.062 296.683 186.18C298.108 185.299 299.747 184.825 301.423 184.811H313.253C314.96 184.789 316.639 185.235 318.11 186.101C319.58 186.968 320.785 188.221 321.593 189.724C322.345 191.234 323.5 192.508 324.929 193.405C326.358 194.303 328.008 194.788 329.695 194.809H335.901C351.309 194.809 363.807 181.6 363.807 165.33V146.367C363.807 113.591 338.659 87.0428 307.629 87.0428Z" fill="url(#paint0_radial_94_970)"/>
<path d="M275.866 194.336C280.736 194.336 285.262 190.716 287.632 184.854C290.024 178.993 294.528 175.351 299.419 175.351H316.658C321.615 175.351 326.442 178.734 328.834 184.725C331.226 190.716 335.729 194.336 340.664 194.336" stroke="#8797C7" stroke-width="5" stroke-miterlimit="10" stroke-linecap="round"/>
<path d="M177.86 120.724C177.86 120.724 184.023 105.36 209.731 105.36C228.199 105.36 241.43 125.853 244.468 140.204C245.18 143.991 247.172 147.418 250.111 149.909C253.05 152.401 256.756 153.806 260.609 153.888H278.796C280.061 153.849 281.259 153.309 282.127 152.388C282.996 151.468 283.464 150.24 283.429 148.975C283.412 148.347 283.519 147.721 283.743 147.134C283.968 146.547 284.306 146.01 284.738 145.554C285.17 145.097 285.688 144.731 286.262 144.475C286.836 144.219 287.455 144.078 288.084 144.062H326.764C327.392 144.078 328.011 144.219 328.585 144.475C329.159 144.731 329.677 145.097 330.109 145.554C330.542 146.01 330.88 146.547 331.104 147.134C331.329 147.721 331.436 148.347 331.419 148.975V148.975C331.384 150.24 331.852 151.468 332.72 152.388C333.589 153.309 334.787 153.849 336.052 153.888H363.914" stroke="#8797C7" stroke-width="5" stroke-miterlimit="10" stroke-linecap="round"/>
<path d="M308.513 144.062C308.513 144.062 311.034 94.4989 281.188 87.043" stroke="url(#paint1_linear_94_970)" stroke-width="5" stroke-miterlimit="10" stroke-linecap="round"/>
<path d="M264.941 119.023L268.625 125.962C269.096 126.984 269.948 127.782 270.999 128.185C272.05 128.587 273.217 128.563 274.25 128.117L290.218 121.242C291.203 120.808 292.012 120.05 292.509 119.094C293.006 118.138 293.163 117.041 292.954 115.985C292.686 114.354 292.2 112.767 291.511 111.265C291.112 110.361 290.423 109.615 289.552 109.147C288.682 108.678 287.68 108.514 286.705 108.679L268.108 112.063C267.386 112.227 266.712 112.555 266.138 113.023C265.565 113.49 265.106 114.084 264.8 114.758C264.493 115.432 264.346 116.167 264.371 116.907C264.395 117.647 264.59 118.371 264.941 119.023V119.023Z" fill="#8797C7"/>
<path d="M345.598 119.022L341.849 125.96C341.378 126.983 340.527 127.781 339.476 128.183C338.425 128.586 337.258 128.562 336.224 128.115L320.3 121.176C319.319 120.735 318.515 119.976 318.019 119.022C317.522 118.068 317.362 116.975 317.563 115.919C317.851 114.293 318.336 112.708 319.007 111.199C319.409 110.293 320.103 109.547 320.977 109.078C321.851 108.61 322.856 108.447 323.834 108.613L342.431 111.997C343.159 112.162 343.839 112.494 344.418 112.966C344.996 113.439 345.457 114.039 345.764 114.72C346.071 115.401 346.216 116.144 346.187 116.89C346.158 117.637 345.957 118.366 345.598 119.022V119.022Z" fill="#8797C7"/>
<path d="M251.171 87.043H237.53L242.573 91.3528C243.564 92.2147 244.426 93.206 245.374 94.1541C245.982 94.7849 246.767 95.2155 247.626 95.3888C248.484 95.562 249.375 95.4696 250.18 95.1238L266.147 88.2712C266.762 87.9914 267.312 87.588 267.764 87.0861L251.171 87.043Z" fill="#8797C7"/>
<path d="M307.629 87.0431H296.101C296.54 87.5494 297.084 87.9538 297.695 88.2283L313.663 95.0809C316.508 96.2661 319.223 92.926 317.973 90.0384L317.089 87.8835C313.927 87.2933 310.717 86.9975 307.5 87L307.629 87.0431Z" fill="#8797C7"/>
<path d="M254.273 152.531C254.273 152.531 241.883 160.548 238.715 183.691" stroke="#8797C7" stroke-width="5" stroke-miterlimit="10" stroke-linecap="round"/>
<path d="M193.463 182.593H201.781C202.546 182.603 203.289 182.851 203.907 183.303C204.525 183.755 204.987 184.388 205.228 185.114L208.31 193.863C208.649 194.782 208.633 195.794 208.267 196.702C207.9 197.61 207.209 198.349 206.327 198.776C203.806 199.918 199.302 200.306 191.825 196.621C191.177 196.291 190.632 195.789 190.252 195.169C189.872 194.549 189.67 193.836 189.67 193.109V186.515C189.65 186.005 189.733 185.497 189.914 185.02C190.096 184.544 190.373 184.109 190.727 183.742C191.082 183.376 191.507 183.085 191.977 182.887C192.447 182.69 192.953 182.589 193.463 182.593V182.593Z" fill="#8797C7"/>
<path d="M167.302 152.531C167.599 154.906 168.074 157.254 168.724 159.556C169.541 162.858 171.343 165.832 173.891 168.084C176.44 170.336 179.613 171.759 182.99 172.163L188.83 172.68C190.358 172.876 191.775 173.583 192.851 174.686C193.927 175.789 194.598 177.224 194.756 178.757L195.316 182.592" stroke="#8797C7" stroke-width="5" stroke-miterlimit="10" stroke-linecap="round"/>
<path d="M169.587 140.334C169.884 143.091 170.359 145.827 171.01 148.522C172.971 156.711 178.638 162.529 185.275 163.219L191.115 163.822C192.756 164.166 194.233 165.052 195.309 166.338C196.384 167.625 196.994 169.236 197.041 170.912L198.398 182.613" stroke="#8797C7" stroke-width="5" stroke-miterlimit="10" stroke-linecap="round"/>
<path d="M239.987 162.293L237.207 169.447C237.099 169.781 236.896 170.075 236.623 170.294C236.349 170.513 236.018 170.647 235.669 170.679C235.32 170.711 234.969 170.64 234.66 170.475C234.352 170.31 234.098 170.057 233.931 169.749L230.031 163.134C229.859 162.854 229.76 162.536 229.743 162.209C229.725 161.881 229.79 161.555 229.932 161.259C230.073 160.963 230.287 160.708 230.552 160.515C230.818 160.323 231.128 160.201 231.453 160.16L238.134 159.621C238.458 159.606 238.782 159.673 239.073 159.817C239.365 159.961 239.615 160.177 239.8 160.444C239.986 160.711 240.1 161.021 240.132 161.344C240.165 161.668 240.115 161.994 239.987 162.293V162.293Z" fill="#8797C7"/>
<path d="M249.339 166.258L246.473 173.39C246.33 173.713 246.28 174.07 246.327 174.42C246.374 174.77 246.516 175.101 246.739 175.375C246.962 175.649 247.257 175.857 247.59 175.974C247.923 176.091 248.282 176.115 248.628 176.041L255.825 174.317C256.141 174.225 256.429 174.057 256.664 173.828C256.9 173.599 257.075 173.316 257.175 173.003C257.275 172.69 257.297 172.357 257.238 172.034C257.179 171.711 257.042 171.407 256.838 171.149L252.528 165.762C252.333 165.491 252.067 165.279 251.758 165.15C251.45 165.021 251.112 164.98 250.782 165.031C250.452 165.083 250.142 165.224 249.887 165.441C249.633 165.657 249.443 165.94 249.339 166.258V166.258Z" fill="#8797C7"/>
<path d="M323.511 151.367H322.455V156.388H323.468C323.792 156.382 324.101 156.251 324.33 156.022C324.559 155.793 324.691 155.484 324.696 155.16V152.595C324.691 152.278 324.566 151.975 324.346 151.747C324.126 151.519 323.827 151.383 323.511 151.367Z" fill="#8797C7"/>
<path d="M321.443 151.367H319.589V156.366H321.443V151.367Z" fill="#8797C7"/>
<path d="M317.476 151.367H315.795V156.366H317.476V151.367Z" fill="#8797C7"/>
<path d="M311.594 151.367H310.366V156.366H311.594V151.367Z" fill="#8797C7"/>
<path d="M309.31 151.367H308.082V156.366H309.31V151.367Z" fill="#8797C7"/>
<path d="M298.794 151.367H297.565V156.366H298.794V151.367Z" fill="#8797C7"/>
<path d="M314.31 151.367H313.082V156.366H314.31V151.367Z" fill="#8797C7"/>
<path d="M307.048 151.367H304.721V156.366H307.048V151.367Z" fill="#8797C7"/>
<path d="M296.101 151.367H292.631C292.307 151.372 291.998 151.504 291.769 151.733C291.54 151.962 291.408 152.271 291.403 152.595V155.16C291.408 155.484 291.54 155.793 291.769 156.022C291.998 156.251 292.307 156.382 292.631 156.388H296.101V151.367Z" fill="#8797C7"/>
<path d="M302.63 151.367H300.302V156.366H302.63V151.367Z" fill="#8797C7"/>
<path d="M213.804 134.99H213.072V139.989H213.804C214.3 139.989 214.71 139.45 214.71 138.761V136.218C214.71 135.528 214.3 134.99 213.804 134.99Z" fill="#8797C7"/>
<path d="M212.297 134.969H210.939V139.968H212.297V134.969Z" fill="#8797C7"/>
<path d="M209.388 134.969H208.16V139.968H209.388V134.969Z" fill="#8797C7"/>
<path d="M205.099 134.969H204.194V139.968H205.099V134.969Z" fill="#8797C7"/>
<path d="M203.418 134.969H202.513V139.968H203.418V134.969Z" fill="#8797C7"/>
<path d="M195.726 134.969H194.821V139.968H195.726V134.969Z" fill="#8797C7"/>
<path d="M207.082 134.969H206.177V139.968H207.082V134.969Z" fill="#8797C7"/>
<path d="M201.759 134.969H200.056V139.968H201.759V134.969Z" fill="#8797C7"/>
<path d="M193.743 134.99H191.221C190.726 134.99 190.316 135.528 190.316 136.218V138.761C190.316 139.45 190.726 139.989 191.221 139.989H193.743V134.99Z" fill="#8797C7"/>
<path d="M198.527 134.969H196.824V139.968H198.527V134.969Z" fill="#8797C7"/>
<path d="M219.682 140.684C221.585 130.894 215.75 121.524 206.65 119.755C197.549 117.986 188.629 124.488 186.726 134.278C184.823 144.068 190.658 153.438 199.759 155.207C208.859 156.976 217.779 150.474 219.682 140.684Z" stroke="#8797C7" stroke-width="5" stroke-miterlimit="10" stroke-linecap="round"/>
<path d="M307.784 171.382C310.39 171.382 312.503 169.269 312.503 166.662C312.503 164.056 310.39 161.943 307.784 161.943C305.177 161.943 303.064 164.056 303.064 166.662C303.064 169.269 305.177 171.382 307.784 171.382Z" fill="#F87171"/>
<path d="M440.534 237.548L432 252L423.452 237.548L409 229L423.452 220.466L432 206L440.534 220.466L455 229L440.534 237.548Z" fill="white"/>
<path d="M390.599 54.7993L380.799 45L371 54.7993L380.799 64.5986L390.599 54.7993Z" fill="white"/>
<path d="M101.599 190.799L91.7993 181L82 190.799L91.7993 200.599L101.599 190.799Z" fill="white"/>
<defs>
<radialGradient id="paint0_radial_94_970" cx="0" cy="0" r="1" gradientUnits="userSpaceOnUse" gradientTransform="translate(328.5 118) rotate(89.1186) scale(97.5115 158.015)">
<stop stop-color="white"/>
<stop offset="1" stop-color="#AAD5FF"/>
</radialGradient>
<linearGradient id="paint1_linear_94_970" x1="294.877" y1="87.043" x2="294.877" y2="144.062" gradientUnits="userSpaceOnUse">
<stop stop-color="#F87171"/>
<stop offset="1" stop-color="#801DFF"/>
</linearGradient>
</defs>
</svg>
