<svg width="529" height="296" viewBox="0 0 529 296" fill="none" xmlns="http://www.w3.org/2000/svg">
<rect width="529" height="296" fill="#0F766E"/>
<path d="M129.5 250L259.5 237.5L69 69.5L57.5 187L135 173L129.5 250Z" fill="url(#paint0_linear_88_775)"/>
<path d="M239.5 125L252 68.5L259 115.5L239.5 125Z" fill="url(#paint1_linear_88_775)"/>
<path d="M331 222L458.5 214L361.5 172.5H261.5V200.5L333 186L331 222Z" fill="url(#paint2_linear_88_775)"/>
<rect x="69" y="58" width="156.657" height="108.73" rx="5.77765" fill="#0D162F"/>
<rect x="86.8833" y="75.8832" width="119.46" height="5.0073" rx="2.03869" fill="#5033FF"/>
<rect x="86.8833" y="119.518" width="119.46" height="5.0073" rx="2.03869" fill="#5033FF"/>
<rect x="86.8833" y="88.0437" width="110.161" height="5.0073" rx="2.03869" fill="#5033FF"/>
<rect x="86.8833" y="131.679" width="110.161" height="5.0073" rx="2.03869" fill="#5033FF"/>
<rect x="86.8833" y="100.204" width="60.8029" height="5.0073" rx="2.03869" fill="#5033FF"/>
<rect x="86.8833" y="143.839" width="60.8029" height="5.0073" rx="2.03869" fill="#5033FF"/>
<rect x="251.409" y="58" width="125.182" height="125.182" rx="5.77765" fill="#0D162F"/>
<circle cx="314" cy="120.591" r="43.3324" fill="#4A3FFF"/>
<path fill-rule="evenodd" clip-rule="evenodd" d="M314 77.2588V120.11L356.199 110.704C351.726 91.5363 334.53 77.2588 314 77.2588C314 77.2588 314 77.2588 314 77.2588Z" fill="#A7A2FF"/>
<path fill-rule="evenodd" clip-rule="evenodd" d="M352.957 139.588C355.76 133.852 357.332 127.405 357.332 120.591C357.332 117.199 356.943 113.898 356.206 110.731L314 120.11L352.957 139.588Z" fill="#837BFF"/>
<rect x="139.818" y="111.65" width="125.898" height="125.898" rx="4.29197" fill="#EEF2FF"/>
<rect x="335.102" y="143.124" width="125.898" height="71.5328" rx="4.29197" fill="#EEF2FF"/>
<rect x="154.124" y="125.956" width="40.7737" height="40.7737" rx="1.01934" fill="#BAAEFF"/>
<rect x="202.766" y="130.964" width="48.6423" height="5.0073" rx="2.03869" fill="#5033FF"/>
<rect x="202.766" y="143.124" width="45.0657" height="5.0073" rx="2.03869" fill="#5033FF"/>
<rect x="202.766" y="155.285" width="24.3212" height="5.0073" rx="2.03869" fill="#5033FF"/>
<path d="M194.898 143.285L162.788 166.73H193.878C194.441 166.73 194.898 166.273 194.898 165.71V143.285Z" fill="#5033FF"/>
<path d="M154.124 165.711V143.795L179.608 154.498L162.788 166.73H155.143C154.58 166.73 154.124 166.274 154.124 165.711Z" fill="url(#paint3_linear_88_775)"/>
<circle cx="178.588" cy="138.188" r="5.09672" fill="white"/>
<circle cx="159.221" cy="202.586" r="5.09672" fill="#5033FF"/>
<circle cx="188.549" cy="178.265" r="5.09672" fill="#5033FF"/>
<circle cx="217.878" cy="194.717" r="5.09672" fill="#5033FF"/>
<circle cx="247.206" cy="178.265" r="5.09672" fill="#5033FF"/>
<path d="M159.131 202.496L188.817 178.175L217.788 195.343L247.117 178.175" stroke="#5033FF" stroke-width="4.29197"/>
<rect x="183.453" y="192.482" width="10.0146" height="30.7591" fill="url(#paint4_linear_88_775)"/>
<rect x="154.124" y="213.942" width="10.0146" height="9.29927" fill="url(#paint5_linear_88_775)"/>
<rect x="242.109" y="192.482" width="10.0146" height="30.7591" fill="url(#paint6_linear_88_775)"/>
<rect x="212.781" y="206.073" width="10.0146" height="17.1679" fill="url(#paint7_linear_88_775)"/>
<path d="M349.409 163.469L355.686 171.147C361.197 177.888 371.652 177.397 376.507 170.169V170.169C380.641 164.014 389.082 162.568 395.029 166.995L403.465 173.275C412.352 179.889 424.691 179.229 432.82 171.704L446.693 158.861V200.35H349.409L349.409 163.469Z" fill="url(#paint8_linear_88_775)"/>
<path d="M412.923 115.226C422.207 115.226 429.733 107.7 429.733 98.4161C429.733 89.132 422.207 81.6058 412.923 81.6058C403.639 81.6058 396.113 89.132 396.113 98.4161C396.113 107.7 403.639 115.226 412.923 115.226Z" fill="white" stroke="#AB77FF" stroke-width="3.57664" stroke-miterlimit="10"/>
<path d="M395.19 92.7649L384.46 98.416L395.19 104.074V92.7649Z" fill="#AB77FF"/>
<path d="M413.023 109.403C414.576 109.403 415.834 108.145 415.834 106.592C415.834 105.04 414.576 103.781 413.023 103.781C411.47 103.781 410.212 105.04 410.212 106.592C410.212 108.145 411.47 109.403 413.023 109.403Z" fill="#AB77FF"/>
<path fill-rule="evenodd" clip-rule="evenodd" d="M415.818 89.1167H415.836V99.1313H415.805C415.607 100.491 414.437 101.535 413.023 101.535C411.609 101.535 410.439 100.491 410.241 99.1313H410.212V89.1167H410.229C410.382 87.7088 411.575 86.613 413.023 86.613C414.472 86.613 415.665 87.7088 415.818 89.1167Z" fill="#AB77FF"/>
<path d="M66.5337 227.548L58 242L49.4517 227.548L35 219L49.4517 210.466L58 196L66.5337 210.466L81 219L66.5337 227.548Z" fill="white"/>
<path d="M489.599 71.7993L479.799 62L470 71.7993L479.799 81.5986L489.599 71.7993Z" fill="white"/>
<path d="M323.599 247.799L313.799 238L304 247.799L313.799 257.599L323.599 247.799Z" fill="white"/>
<defs>
<linearGradient id="paint0_linear_88_775" x1="159" y1="149" x2="110.5" y2="216" gradientUnits="userSpaceOnUse">
<stop offset="0.310024" stop-color="#004F49"/>
<stop offset="1" stop-color="#004F49" stop-opacity="0"/>
</linearGradient>
<linearGradient id="paint1_linear_88_775" x1="249.25" y1="68.5" x2="249.25" y2="125" gradientUnits="userSpaceOnUse">
<stop stop-color="#004540"/>
<stop offset="1" stop-color="#004540" stop-opacity="0"/>
</linearGradient>
<linearGradient id="paint2_linear_88_775" x1="360" y1="162" x2="335.5" y2="242" gradientUnits="userSpaceOnUse">
<stop stop-color="#003C37"/>
<stop offset="0.805136" stop-color="#003C37" stop-opacity="0"/>
</linearGradient>
<linearGradient id="paint3_linear_88_775" x1="166.866" y1="143.795" x2="166.866" y2="166.73" gradientUnits="userSpaceOnUse">
<stop stop-color="#8E7BFF"/>
<stop offset="0.763355" stop-color="#5033FF"/>
</linearGradient>
<linearGradient id="paint4_linear_88_775" x1="188.46" y1="192.482" x2="188.46" y2="223.241" gradientUnits="userSpaceOnUse">
<stop stop-color="#5033FF"/>
<stop offset="1" stop-color="#2400FF"/>
</linearGradient>
<linearGradient id="paint5_linear_88_775" x1="159.131" y1="213.942" x2="159.131" y2="223.241" gradientUnits="userSpaceOnUse">
<stop stop-color="#5033FF"/>
<stop offset="1" stop-color="#2400FF"/>
</linearGradient>
<linearGradient id="paint6_linear_88_775" x1="247.117" y1="192.482" x2="247.117" y2="223.241" gradientUnits="userSpaceOnUse">
<stop stop-color="#5033FF"/>
<stop offset="1" stop-color="#2400FF"/>
</linearGradient>
<linearGradient id="paint7_linear_88_775" x1="217.788" y1="206.073" x2="217.788" y2="223.241" gradientUnits="userSpaceOnUse">
<stop stop-color="#5033FF"/>
<stop offset="1" stop-color="#2400FF"/>
</linearGradient>
<linearGradient id="paint8_linear_88_775" x1="398" y1="155" x2="398" y2="222.5" gradientUnits="userSpaceOnUse">
<stop offset="0.314516" stop-color="#4145FA"/>
<stop offset="0.788069" stop-color="#0006FF"/>
</linearGradient>
</defs>
</svg>
