<svg width="529" height="296" viewBox="0 0 529 296" fill="none" xmlns="http://www.w3.org/2000/svg">
<g clip-path="url(#clip0_83_457)">
<rect width="529" height="296" fill="#5061FF"/>
<path d="M354 200.5L405.295 198.423C410.908 198.196 415.507 202.832 415.235 208.443L412.742 259.742L359.46 264.68C353.502 265.232 348.506 260.239 349.054 254.281L354 200.5Z" fill="url(#paint0_radial_83_457)"/>
<rect x="354" y="192" width="67.7419" height="67.7419" rx="9.56357" fill="white"/>
<path d="M408.302 215.616C407.81 213.796 406.39 212.372 404.571 211.885C402.127 210.941 378.454 210.479 371.587 211.912C369.767 212.404 368.342 213.824 367.855 215.643C366.752 220.483 366.669 230.946 367.883 235.893C368.375 237.713 369.794 239.138 371.614 239.624C376.453 240.738 399.461 240.895 404.598 239.624C406.417 239.132 407.842 237.713 408.329 235.893C409.505 230.621 409.589 220.807 408.302 215.616Z" fill="#FF0000"/>
<path d="M395.054 225.755L384.023 219.428V232.081L395.054 225.755Z" fill="white"/>
<path d="M102 200.5L153.295 198.423C158.908 198.196 163.507 202.832 163.235 208.443L160.742 259.742L107.46 264.68C101.502 265.232 96.5061 260.239 97.054 254.281L102 200.5Z" fill="url(#paint1_radial_83_457)"/>
<rect x="102" y="192" width="67.7419" height="67.7419" rx="9.56357" fill="white"/>
<path fill-rule="evenodd" clip-rule="evenodd" d="M122.778 243H149.222C151.309 243 153 241.309 153 239.222V212.778C153 210.691 151.309 209 149.222 209H122.778C120.691 209 119 210.691 119 212.778V239.222C119 241.309 120.691 243 122.778 243Z" fill="#007EBB"/>
<path fill-rule="evenodd" clip-rule="evenodd" d="M148.278 238.278H143.232V229.684C143.232 227.328 142.337 226.012 140.472 226.012C138.444 226.012 137.384 227.382 137.384 229.684V238.278H132.521V221.907H137.384V224.112C137.384 224.112 138.846 221.407 142.319 221.407C145.792 221.407 148.278 223.528 148.278 227.913V238.278ZM126.72 219.764C125.064 219.764 123.722 218.411 123.722 216.743C123.722 215.075 125.064 213.722 126.72 213.722C128.377 213.722 129.718 215.075 129.718 216.743C129.718 218.411 128.377 219.764 126.72 219.764ZM124.21 238.278H129.28V221.907H124.21V238.278Z" fill="white"/>
<path d="M-11.9998 39.5L39.2953 37.423C44.9081 37.1957 49.5071 41.832 49.2345 47.4429L46.7421 98.742L-6.54009 103.68C-12.4979 104.232 -17.4939 99.2395 -16.946 93.2813L-11.9998 39.5Z" fill="url(#paint2_radial_83_457)"/>
<rect x="-12" y="31" width="67.7419" height="67.7419" rx="9.56357" fill="white"/>
<path d="M37.0683 82.0002C38.1349 82.0002 38.9999 81.1353 38.9999 80.0686V48.9318C38.9999 47.8648 38.1349 47 37.0683 47H5.93167C4.8646 47 4 47.8648 4 48.9318V80.0686C4 81.1353 4.8646 82.0002 5.93167 82.0002H37.0683Z" fill="#3B5998"/>
<path d="M28.1494 82.0002V68.4464H32.699L33.3801 63.1642H28.1494V59.7917C28.1494 58.2623 28.574 57.2202 30.7672 57.2202L33.5643 57.2189V52.4945C33.0804 52.4302 31.4201 52.2864 29.4884 52.2864C25.4555 52.2864 22.6947 54.748 22.6947 59.2687V63.1642H18.1335V68.4464H22.6947V82.0002H28.1494Z" fill="white"/>
<path d="M96.0002 39.5L147.295 37.423C152.908 37.1957 157.507 41.832 157.235 47.4429L154.742 98.742L101.46 103.68C95.5021 104.232 90.5061 99.2395 91.054 93.2813L96.0002 39.5Z" fill="url(#paint3_radial_83_457)"/>
<rect x="96" y="31" width="67.7419" height="67.7419" rx="9.56357" fill="white"/>
<path d="M129.51 47C122.202 47 120.065 47.0075 119.65 47.042C118.15 47.1667 117.217 47.4028 116.2 47.909C115.416 48.2981 114.798 48.7491 114.189 49.3813C113.078 50.5342 112.405 51.9526 112.161 53.6387C112.043 54.4572 112.008 54.6242 112.001 58.8052C111.999 60.1988 112.001 62.033 112.001 64.4931C112.001 71.7953 112.009 73.9305 112.044 74.3451C112.165 75.8045 112.394 76.7226 112.879 77.7269C113.805 79.6494 115.574 81.0926 117.658 81.6311C118.38 81.8169 119.177 81.9192 120.2 81.9677C120.633 81.9865 125.052 82 129.473 82C133.894 82 138.315 81.9946 138.738 81.9731C139.923 81.9173 140.611 81.825 141.371 81.6284C143.469 81.0872 145.206 79.6656 146.151 77.7162C146.626 76.7361 146.867 75.7829 146.976 74.3998C147 74.0982 147.01 69.2902 147.01 64.4886C147.01 59.6861 146.999 54.887 146.975 54.5854C146.865 53.1799 146.624 52.2348 146.133 51.2359C145.731 50.4182 145.284 49.8075 144.635 49.1831C143.477 48.077 142.06 47.4039 140.373 47.1605C139.555 47.0423 139.392 47.0073 135.208 47H129.51Z" fill="url(#paint4_radial_83_457)"/>
<path d="M129.51 47C122.202 47 120.065 47.0075 119.65 47.042C118.15 47.1667 117.217 47.4028 116.2 47.909C115.416 48.2981 114.798 48.7491 114.189 49.3813C113.078 50.5342 112.405 51.9526 112.161 53.6387C112.043 54.4572 112.008 54.6242 112.001 58.8052C111.999 60.1988 112.001 62.033 112.001 64.4931C112.001 71.7953 112.009 73.9305 112.044 74.3451C112.165 75.8045 112.394 76.7226 112.879 77.7269C113.805 79.6494 115.574 81.0926 117.658 81.6311C118.38 81.8169 119.177 81.9192 120.2 81.9677C120.633 81.9865 125.052 82 129.473 82C133.894 82 138.315 81.9946 138.738 81.9731C139.923 81.9173 140.611 81.825 141.371 81.6284C143.469 81.0872 145.206 79.6656 146.151 77.7162C146.626 76.7361 146.867 75.7829 146.976 74.3998C147 74.0982 147.01 69.2902 147.01 64.4886C147.01 59.6861 146.999 54.887 146.975 54.5854C146.865 53.1799 146.624 52.2348 146.133 51.2359C145.731 50.4182 145.284 49.8075 144.635 49.1831C143.477 48.077 142.06 47.4039 140.373 47.1605C139.555 47.0423 139.392 47.0073 135.208 47H129.51Z" fill="url(#paint5_radial_83_457)"/>
<path d="M129.502 51.5773C125.992 51.5773 125.552 51.5926 124.173 51.6554C122.797 51.7184 121.858 51.9362 121.037 52.2558C120.186 52.5859 119.465 53.0275 118.747 53.7461C118.028 54.4645 117.587 55.1855 117.255 56.0353C116.935 56.8573 116.717 57.7968 116.655 59.1721C116.593 60.5507 116.577 60.9915 116.577 64.5014C116.577 68.0114 116.593 68.4506 116.655 69.8292C116.719 71.205 116.936 72.1442 117.256 72.966C117.586 73.816 118.028 74.5371 118.746 75.2554C119.464 75.9743 120.185 76.417 121.035 76.7471C121.857 77.0667 122.797 77.2845 124.172 77.3475C125.551 77.4103 125.991 77.4256 129.501 77.4256C133.011 77.4256 133.45 77.4103 134.829 77.3475C136.205 77.2845 137.145 77.0667 137.967 76.7471C138.817 76.417 139.537 75.9743 140.255 75.2554C140.974 74.5371 141.416 73.816 141.747 72.9662C142.064 72.1442 142.283 71.2048 142.347 69.8294C142.409 68.4509 142.425 68.0114 142.425 64.5014C142.425 60.9915 142.409 60.551 142.347 59.1724C142.283 57.7965 142.064 56.8573 141.747 56.0356C141.416 55.1855 140.974 54.4645 140.255 53.7461C139.536 53.0272 138.817 52.5856 137.966 52.2558C137.142 51.9362 136.203 51.7184 134.827 51.6554C133.448 51.5926 133.009 51.5773 129.498 51.5773H129.502ZM128.343 53.9063C128.687 53.9058 129.071 53.9063 129.502 53.9063C132.953 53.9063 133.362 53.9187 134.725 53.9806C135.985 54.0382 136.669 54.2488 137.124 54.4257C137.728 54.66 138.158 54.94 138.61 55.3923C139.062 55.8447 139.342 56.2755 139.577 56.8786C139.754 57.3336 139.965 58.0175 140.022 59.2777C140.084 60.6401 140.097 61.0493 140.097 64.4985C140.097 67.9476 140.084 68.3569 140.022 69.7193C139.964 70.9794 139.754 71.6633 139.577 72.1184C139.343 72.7215 139.062 73.1509 138.61 73.603C138.157 74.0554 137.728 74.3354 137.124 74.5696C136.669 74.7473 135.985 74.9574 134.725 75.015C133.362 75.0769 132.953 75.0904 129.502 75.0904C126.051 75.0904 125.642 75.0769 124.28 75.015C123.02 74.9568 122.336 74.7463 121.88 74.5694C121.277 74.3351 120.846 74.0551 120.394 73.6027C119.941 73.1504 119.661 72.7207 119.427 72.1173C119.25 71.6622 119.039 70.9783 118.982 69.7182C118.92 68.3558 118.907 67.9465 118.907 64.4952C118.907 61.044 118.92 60.6368 118.982 59.2744C119.039 58.0143 119.25 57.3304 119.427 56.8748C119.661 56.2717 119.941 55.8409 120.394 55.3886C120.846 54.9362 121.277 54.6562 121.88 54.4214C122.336 54.2437 123.02 54.0337 124.28 53.9758C125.472 53.9219 125.934 53.9058 128.343 53.9031V53.9063ZM136.401 56.0523C135.545 56.0523 134.85 56.7461 134.85 57.6026C134.85 58.4589 135.545 59.1535 136.401 59.1535C137.257 59.1535 137.952 58.4589 137.952 57.6026C137.952 56.7464 137.257 56.0517 136.401 56.0517V56.0523ZM129.502 57.8643C125.837 57.8643 122.865 60.8361 122.865 64.5014C122.865 68.1668 125.837 71.1372 129.502 71.1372C133.168 71.1372 136.138 68.1668 136.138 64.5014C136.138 60.8361 133.168 57.8643 129.502 57.8643ZM129.502 60.1934C131.882 60.1934 133.81 62.122 133.81 64.5014C133.81 66.8806 131.882 68.8095 129.502 68.8095C127.123 68.8095 125.194 66.8806 125.194 64.5014C125.194 62.122 127.123 60.1934 129.502 60.1934Z" fill="white"/>
<path d="M221 39.5L272.295 37.423C277.908 37.1957 282.507 41.832 282.235 47.4429L279.742 98.742L226.46 103.68C220.502 104.232 215.506 99.2395 216.054 93.2813L221 39.5Z" fill="url(#paint6_radial_83_457)"/>
<rect x="221" y="31" width="67.7419" height="67.7419" rx="9.56357" fill="white"/>
<path d="M267.736 58.4758C267.755 58.758 267.755 59.0402 267.755 59.325C267.755 68.0036 261.148 78.0126 249.068 78.0126V78.0074C245.499 78.0126 242.004 76.9904 239 75.063C239.519 75.1254 240.04 75.1566 240.563 75.1579C243.521 75.1605 246.394 74.1682 248.72 72.3409C245.91 72.2876 243.445 70.4551 242.584 67.7799C243.569 67.9698 244.583 67.9308 245.55 67.6668C242.485 67.0477 240.281 64.3556 240.281 61.229V61.1458C241.194 61.6543 242.216 61.9365 243.262 61.9677C240.376 60.039 239.486 56.1998 241.229 53.1981C244.564 57.3014 249.484 59.7958 254.765 60.0598C254.236 57.7787 254.959 55.3883 256.665 53.7847C259.311 51.298 263.471 51.4255 265.958 54.0695C267.429 53.7795 268.838 53.2398 270.129 52.475C269.638 53.9954 268.612 55.2868 267.241 56.1075C268.543 55.954 269.815 55.6055 271.013 55.0735C270.131 56.3949 269.021 57.5459 267.736 58.4758Z" fill="#1D9BF0"/>
<path d="M353 39.5L404.295 37.423C409.908 37.1957 414.507 41.832 414.235 47.4429L411.742 98.742L358.46 103.68C352.502 104.232 347.506 99.2395 348.054 93.2813L353 39.5Z" fill="url(#paint7_radial_83_457)"/>
<rect x="353" y="31" width="67.7419" height="67.7419" rx="9.56357" fill="white"/>
<path d="M383.029 61.0299V59.4438C382.478 59.3566 381.922 59.3088 381.365 59.3008C375.968 59.2894 371.191 62.7863 369.57 67.9337C367.95 73.0809 369.863 78.684 374.292 81.766C370.974 78.2149 370.053 73.0452 371.94 68.5664C373.827 64.0877 378.17 61.1359 383.029 61.0299Z" fill="#25F4EE"/>
<path d="M383.328 78.9968C386.345 78.9928 388.825 76.6158 388.957 73.6016V46.7031H393.871C393.771 46.141 393.723 45.5709 393.728 45L387.007 45V71.8725C386.895 74.902 384.409 77.3018 381.378 77.3068C380.472 77.2991 379.581 77.0763 378.778 76.6567C379.298 77.3777 379.981 77.9656 380.772 78.3722C381.563 78.7789 382.439 78.9929 383.328 78.9968ZM403.05 55.8296V54.3345C401.241 54.3351 399.473 53.8014 397.967 52.8004C399.287 54.3354 401.071 55.3988 403.05 55.8296Z" fill="#25F4EE"/>
<path d="M397.967 52.8004C396.483 51.1107 395.665 48.9387 395.665 46.6901H393.871C394.103 47.9333 394.586 49.1163 395.29 50.1669C395.994 51.2175 396.905 52.1135 397.967 52.8004ZM381.365 66.0221C378.775 66.0354 376.528 67.8092 375.913 70.3243C375.298 72.8394 376.474 75.4502 378.765 76.6567C378.156 75.8162 377.791 74.8237 377.711 73.789C377.631 72.7543 377.838 71.7175 378.311 70.7933C378.783 69.8691 379.501 69.0935 380.387 68.552C381.272 68.0106 382.29 67.7244 383.328 67.7252C383.892 67.7322 384.452 67.8199 384.992 67.9852V61.1469C384.441 61.0643 383.885 61.0209 383.328 61.0168H383.029V66.2171C382.486 66.0717 381.926 66.006 381.365 66.0221Z" fill="#FE2C55"/>
<path d="M403.05 55.8296V61.0299C399.702 61.0234 396.441 59.9636 393.728 58.0007V71.6645C393.714 78.4825 388.183 84.0021 381.365 84.0021C378.833 84.0066 376.361 83.2253 374.292 81.766C377.745 85.48 383.12 86.7026 387.84 84.8479C392.56 82.9931 395.664 78.439 395.665 73.3675V59.7428C398.387 61.6929 401.652 62.7388 405 62.733V56.0376C404.344 56.0355 403.691 55.9658 403.05 55.8296Z" fill="#FE2C55"/>
<path d="M393.728 71.6644V58.0007C396.449 59.9523 399.715 60.9985 403.063 60.9908V55.7906C401.085 55.3729 399.296 54.3234 397.967 52.8004C396.905 52.1135 395.994 51.2175 395.29 50.1669C394.586 49.1163 394.103 47.9333 393.872 46.6901H388.957V73.6015C388.859 76.0025 387.251 78.0777 384.95 78.7722C382.65 79.4667 380.162 78.6281 378.752 76.6827C376.461 75.4762 375.285 72.8654 375.9 70.3503C376.515 67.8352 378.763 66.0614 381.352 66.0481C381.916 66.0532 382.477 66.1408 383.016 66.3081V61.1078C378.13 61.1907 373.754 64.1526 371.861 68.6583C369.969 73.1639 370.918 78.362 374.279 81.909C376.369 83.3202 378.844 84.0513 381.365 84.0021C388.183 84.0021 393.714 78.4825 393.728 71.6644Z" fill="black"/>
<path d="M228 200.5L279.295 198.423C284.908 198.196 289.507 202.832 289.235 208.443L286.742 259.742L233.46 264.68C227.502 265.232 222.506 260.239 223.054 254.281L228 200.5Z" fill="url(#paint8_radial_83_457)"/>
<rect x="228" y="192" width="67.7419" height="67.7419" rx="9.56357" fill="white"/>
<path d="M276.579 234.171C271.234 231.583 270.382 227.588 270.344 227.292C270.298 226.933 270.246 226.65 270.642 226.285C271.024 225.933 272.718 224.884 273.188 224.556C273.965 224.012 274.307 223.47 274.055 222.803C273.879 222.342 273.449 222.168 272.997 222.168C272.854 222.169 272.712 222.185 272.572 222.216C271.719 222.401 270.89 222.829 270.41 222.944C270.352 222.959 270.293 222.967 270.233 222.968C269.978 222.968 269.881 222.854 269.905 222.547C269.965 221.613 270.092 219.792 269.945 218.091C269.743 215.75 268.988 214.59 268.093 213.564C267.66 213.067 265.649 210.93 261.768 210.93C257.887 210.93 255.879 213.067 255.449 213.558C254.551 214.584 253.797 215.744 253.596 218.085C253.449 219.786 253.581 221.606 253.636 222.54C253.654 222.833 253.564 222.962 253.308 222.962C253.248 222.961 253.189 222.953 253.132 222.938C252.653 222.823 251.824 222.395 250.97 222.21C250.83 222.178 250.688 222.162 250.546 222.162C250.091 222.162 249.664 222.338 249.487 222.797C249.235 223.464 249.575 224.006 250.355 224.55C250.825 224.878 252.519 225.925 252.901 226.279C253.296 226.644 253.245 226.927 253.199 227.286C253.162 227.586 252.309 231.582 246.964 234.165C246.651 234.317 246.118 234.638 247.057 235.156C248.532 235.971 249.514 235.884 250.276 236.375C250.924 236.793 250.541 237.692 251.012 238.017C251.591 238.416 253.301 237.989 255.51 238.718C257.362 239.328 258.488 241.053 261.772 241.053C265.057 241.053 266.215 239.32 268.035 238.718C270.24 237.989 271.953 238.416 272.533 238.017C273.003 237.692 272.621 236.793 273.268 236.375C274.031 235.884 275.012 235.971 276.488 235.156C277.425 234.644 276.892 234.323 276.579 234.171Z" fill="white"/>
<path d="M278.905 233.867C278.665 233.214 278.208 232.865 277.688 232.576C277.59 232.518 277.5 232.473 277.423 232.437C277.268 232.357 277.109 232.279 276.951 232.197C275.329 231.337 274.063 230.253 273.184 228.967C272.935 228.605 272.718 228.221 272.538 227.82C272.463 227.606 272.466 227.484 272.52 227.373C272.574 227.287 272.644 227.214 272.727 227.157C273.006 226.972 273.294 226.785 273.489 226.659C273.836 226.434 274.111 226.256 274.289 226.13C274.954 225.664 275.42 225.17 275.711 224.617C275.914 224.235 276.033 223.813 276.058 223.381C276.084 222.949 276.017 222.517 275.86 222.113C275.419 220.953 274.323 220.232 272.995 220.232C272.715 220.232 272.435 220.261 272.161 220.32C272.088 220.336 272.015 220.353 271.943 220.372C271.956 219.578 271.938 218.74 271.868 217.915C271.617 215.016 270.602 213.496 269.543 212.285C268.866 211.525 268.067 210.883 267.181 210.383C265.574 209.466 263.753 209 261.768 209C259.782 209 257.97 209.466 256.362 210.383C255.473 210.883 254.673 211.527 253.995 212.288C252.936 213.5 251.921 215.022 251.671 217.919C251.6 218.743 251.583 219.586 251.594 220.375C251.523 220.357 251.45 220.34 251.377 220.324C251.103 220.265 250.824 220.235 250.544 220.236C249.214 220.236 248.116 220.956 247.677 222.117C247.52 222.521 247.452 222.953 247.477 223.386C247.502 223.818 247.62 224.24 247.823 224.623C248.115 225.176 248.58 225.671 249.246 226.136C249.423 226.26 249.699 226.438 250.046 226.665C250.234 226.787 250.508 226.965 250.777 227.144C250.871 227.204 250.951 227.285 251.012 227.379C251.068 227.495 251.07 227.619 250.986 227.848C250.808 228.241 250.595 228.616 250.35 228.971C249.491 230.228 248.262 231.293 246.692 232.146C245.86 232.587 244.996 232.882 244.631 233.874C244.355 234.623 244.535 235.475 245.235 236.193C245.491 236.461 245.789 236.686 246.117 236.86C246.798 237.235 247.523 237.525 248.275 237.724C248.43 237.764 248.577 237.83 248.711 237.919C248.966 238.142 248.929 238.478 249.269 238.97C249.44 239.225 249.656 239.445 249.908 239.619C250.62 240.111 251.421 240.142 252.27 240.175C253.036 240.204 253.905 240.238 254.897 240.565C255.308 240.701 255.735 240.963 256.23 241.27C257.418 242.001 259.044 243 261.766 243C264.488 243 266.126 241.995 267.323 241.262C267.814 240.961 268.238 240.701 268.638 240.568C269.63 240.24 270.499 240.208 271.265 240.179C272.114 240.146 272.914 240.115 273.627 239.623C273.925 239.415 274.173 239.144 274.354 238.829C274.598 238.414 274.592 238.123 274.821 237.921C274.946 237.836 275.085 237.773 275.231 237.734C275.993 237.534 276.727 237.241 277.418 236.862C277.766 236.675 278.079 236.43 278.344 236.137L278.353 236.127C279.009 235.425 279.174 234.597 278.905 233.867ZM276.486 235.167C275.01 235.982 274.029 235.895 273.266 236.386C272.618 236.803 273.002 237.703 272.531 238.027C271.952 238.427 270.242 237.999 268.033 238.729C266.21 239.331 265.048 241.063 261.77 241.063C258.493 241.063 257.358 239.334 255.506 238.724C253.301 237.995 251.587 238.422 251.007 238.023C250.537 237.698 250.919 236.799 250.272 236.382C249.508 235.89 248.527 235.978 247.053 235.167C246.113 234.648 246.646 234.327 246.959 234.176C252.304 231.588 253.157 227.592 253.195 227.296C253.241 226.937 253.292 226.655 252.897 226.29C252.515 225.937 250.82 224.888 250.35 224.56C249.572 224.017 249.23 223.474 249.482 222.808C249.659 222.346 250.089 222.173 250.541 222.173C250.684 222.173 250.826 222.189 250.965 222.22C251.819 222.405 252.648 222.833 253.127 222.949C253.185 222.964 253.244 222.972 253.303 222.973C253.559 222.973 253.649 222.844 253.631 222.551C253.577 221.617 253.444 219.796 253.592 218.095C253.794 215.754 254.548 214.594 255.444 213.569C255.874 213.076 257.897 210.939 261.764 210.939C265.632 210.939 267.66 213.067 268.09 213.558C268.987 214.584 269.742 215.744 269.942 218.085C270.089 219.786 269.962 221.607 269.902 222.54C269.882 222.848 269.975 222.962 270.231 222.962C270.29 222.961 270.349 222.953 270.407 222.938C270.887 222.823 271.716 222.395 272.57 222.21C272.709 222.178 272.851 222.162 272.994 222.162C273.448 222.162 273.876 222.338 274.052 222.797C274.304 223.464 273.964 224.006 273.185 224.55C272.715 224.878 271.021 225.925 270.639 226.279C270.243 226.644 270.295 226.927 270.341 227.286C270.379 227.586 271.231 231.582 276.576 234.165C276.892 234.323 277.425 234.644 276.486 235.167Z" fill="black"/>
<path d="M480 200.5L531.295 198.423C536.908 198.196 541.507 202.832 541.235 208.443L538.742 259.742L485.46 264.68C479.502 265.232 474.506 260.239 475.054 254.281L480 200.5Z" fill="url(#paint9_radial_83_457)"/>
<rect x="480" y="192" width="67.7419" height="67.7419" rx="9.56357" fill="white"/>
<path d="M527.643 224.107L522.071 229.679H516.5L511.625 234.554V229.679H505.357V208.786H527.643V224.107Z" fill="white"/>
<path d="M503.964 206L497 212.964V238.036H505.357V245L512.321 238.036H517.893L530.429 225.5V206H503.964ZM527.643 224.107L522.071 229.679H516.5L511.625 234.554V229.679H505.357V208.786H527.643V224.107Z" fill="#9146FF"/>
<path d="M523.464 213.661H520.678V222.018H523.464V213.661Z" fill="#9146FF"/>
<path d="M515.804 213.661H513.018V222.018H515.804V213.661Z" fill="#9146FF"/>
<path d="M206.534 156.548L198 171L189.452 156.548L175 148L189.452 139.466L198 125L206.534 139.466L221 148L206.534 156.548Z" fill="white"/>
<path d="M485.599 64.7993L475.799 55L466 64.7993L475.799 74.5986L485.599 64.7993Z" fill="white"/>
<path d="M53.5986 223.799L43.7993 214L34 223.799L43.7993 233.599L53.5986 223.799Z" fill="white"/>
</g>
<defs>
<radialGradient id="paint0_radial_83_457" cx="0" cy="0" r="1" gradientUnits="userSpaceOnUse" gradientTransform="translate(397 215.5) rotate(134.136) scale(70.3651)">
<stop offset="0.109375"/>
<stop offset="1" stop-color="#001AFF" stop-opacity="0"/>
</radialGradient>
<radialGradient id="paint1_radial_83_457" cx="0" cy="0" r="1" gradientUnits="userSpaceOnUse" gradientTransform="translate(145 215.5) rotate(134.136) scale(70.3651)">
<stop offset="0.109375"/>
<stop offset="1" stop-color="#001AFF" stop-opacity="0"/>
</radialGradient>
<radialGradient id="paint2_radial_83_457" cx="0" cy="0" r="1" gradientUnits="userSpaceOnUse" gradientTransform="translate(31.0002 54.5) rotate(134.136) scale(70.3651)">
<stop offset="0.109375"/>
<stop offset="1" stop-color="#001AFF" stop-opacity="0"/>
</radialGradient>
<radialGradient id="paint3_radial_83_457" cx="0" cy="0" r="1" gradientUnits="userSpaceOnUse" gradientTransform="translate(139 54.5) rotate(134.136) scale(70.3651)">
<stop offset="0.109375"/>
<stop offset="1" stop-color="#001AFF" stop-opacity="0"/>
</radialGradient>
<radialGradient id="paint4_radial_83_457" cx="0" cy="0" r="1" gradientUnits="userSpaceOnUse" gradientTransform="translate(121.299 84.6957) rotate(-90) scale(34.6876 32.271)">
<stop stop-color="#FFDD55"/>
<stop offset="0.1" stop-color="#FFDD55"/>
<stop offset="0.5" stop-color="#FF543E"/>
<stop offset="1" stop-color="#C837AB"/>
</radialGradient>
<radialGradient id="paint5_radial_83_457" cx="0" cy="0" r="1" gradientUnits="userSpaceOnUse" gradientTransform="translate(106.136 49.5213) rotate(78.6776) scale(15.5057 63.9311)">
<stop stop-color="#3771C8"/>
<stop offset="0.128" stop-color="#3771C8"/>
<stop offset="1" stop-color="#6600FF" stop-opacity="0"/>
</radialGradient>
<radialGradient id="paint6_radial_83_457" cx="0" cy="0" r="1" gradientUnits="userSpaceOnUse" gradientTransform="translate(264 54.5) rotate(134.136) scale(70.3651)">
<stop offset="0.109375"/>
<stop offset="1" stop-color="#001AFF" stop-opacity="0"/>
</radialGradient>
<radialGradient id="paint7_radial_83_457" cx="0" cy="0" r="1" gradientUnits="userSpaceOnUse" gradientTransform="translate(396 54.5) rotate(134.136) scale(70.3651)">
<stop offset="0.109375"/>
<stop offset="1" stop-color="#001AFF" stop-opacity="0"/>
</radialGradient>
<radialGradient id="paint8_radial_83_457" cx="0" cy="0" r="1" gradientUnits="userSpaceOnUse" gradientTransform="translate(271 215.5) rotate(134.136) scale(70.3651)">
<stop offset="0.109375"/>
<stop offset="1" stop-color="#001AFF" stop-opacity="0"/>
</radialGradient>
<radialGradient id="paint9_radial_83_457" cx="0" cy="0" r="1" gradientUnits="userSpaceOnUse" gradientTransform="translate(523 215.5) rotate(134.136) scale(70.3651)">
<stop offset="0.109375"/>
<stop offset="1" stop-color="#001AFF" stop-opacity="0"/>
</radialGradient>
<clipPath id="clip0_83_457">
<rect width="529" height="296" fill="white"/>
</clipPath>
</defs>
</svg>
