<svg width="529" height="296" viewBox="0 0 529 296" fill="none" xmlns="http://www.w3.org/2000/svg">
<g clip-path="url(#clip0_76_2)">
<rect width="529" height="296" fill="#2CFBE1"/>
<path d="M286 50.5001L445.805 97.9683C448.556 98.7855 450.057 101.746 449.089 104.448L380.089 297.065C379.196 299.556 376.518 300.92 373.978 300.178L212.74 253.032C209.924 252.209 208.419 249.148 209.486 246.414L286 50.5001Z" fill="url(#paint0_radial_76_2)"/>
<path d="M222.5 301L259.5 265.5L254 297L274.5 270L277.5 294.5L292.5 275L300 296.5L310 281L321 286.5V301H222.5Z" fill="url(#paint1_linear_76_2)"/>
<rect x="287.724" y="45" width="172" height="217" rx="5" transform="rotate(18.4636 287.724 45)" fill="url(#paint2_radial_76_2)"/>
<rect x="299.414" y="66.8256" width="137" height="10" rx="2" transform="rotate(18.4636 299.414 66.8256)" fill="#4B79FE"/>
<rect x="268.694" y="158.833" width="137" height="10" rx="2" transform="rotate(18.4636 268.694 158.833)" fill="#4B79FE"/>
<rect x="310.469" y="93.7104" width="38" height="4" rx="1" transform="rotate(18.4636 310.469 93.7104)" fill="#4B79FE"/>
<rect x="351.255" y="107.329" width="19" height="4" rx="1" transform="rotate(18.4636 351.255 107.329)" fill="#4B79FE"/>
<rect x="279.748" y="185.717" width="20" height="4" rx="1" transform="rotate(18.4636 279.748 185.717)" fill="#4B79FE"/>
<rect x="303.461" y="193.635" width="20" height="4" rx="1" transform="rotate(18.4636 303.461 193.635)" fill="#4B79FE"/>
<rect x="303.818" y="113.63" width="32" height="4" rx="1" transform="rotate(18.4636 303.818 113.63)" fill="#4B79FE"/>
<rect x="273.098" y="205.636" width="32" height="4" rx="1" transform="rotate(18.4636 273.098 205.636)" fill="#4B79FE"/>
<rect x="308.193" y="217.354" width="16" height="4" rx="1" transform="rotate(18.4636 308.193 217.354)" fill="#4B79FE"/>
<rect x="297.167" y="133.548" width="51" height="4" rx="1" transform="rotate(18.4636 297.167 133.548)" fill="#4B79FE"/>
<rect x="307.935" y="101.299" width="85" height="4" rx="1" transform="rotate(18.4636 307.935 101.299)" fill="#4B79FE"/>
<rect x="277.215" y="193.306" width="69" height="4" rx="1" transform="rotate(18.4636 277.215 193.306)" fill="#4B79FE"/>
<rect x="301.284" y="121.218" width="85" height="4" rx="1" transform="rotate(18.4636 301.284 121.218)" fill="#4B79FE"/>
<rect x="270.564" y="213.225" width="85" height="4" rx="1" transform="rotate(18.4636 270.564 213.225)" fill="#4B79FE"/>
<rect x="294.633" y="141.137" width="85" height="4" rx="1" transform="rotate(18.4636 294.633 141.137)" fill="#4B79FE"/>
<rect x="293.711" y="88.6425" width="11" height="11" rx="3.5" transform="rotate(18.4636 293.711 88.6425)" stroke="#4B79FE" stroke-width="3"/>
<rect x="262.991" y="180.649" width="11" height="11" rx="3.5" transform="rotate(18.4636 262.991 180.649)" stroke="#4B79FE" stroke-width="3"/>
<rect x="287.06" y="108.561" width="11" height="11" rx="3.5" transform="rotate(18.4636 287.06 108.561)" stroke="#4B79FE" stroke-width="3"/>
<rect x="256.34" y="200.568" width="11" height="11" rx="3.5" transform="rotate(18.4636 256.34 200.568)" stroke="#4B79FE" stroke-width="3"/>
<rect x="280.409" y="128.48" width="11" height="11" rx="3.5" transform="rotate(18.4636 280.409 128.48)" stroke="#4B79FE" stroke-width="3"/>
<path d="M294.659 90.5403L299.713 100.662" stroke="#183FB0" stroke-width="2" stroke-linecap="round"/>
<path d="M285.474 118.047L295.596 112.993" stroke="#183FB0" stroke-width="2" stroke-linecap="round"/>
<path d="M302.247 93.0739L294.656 96.8648" stroke="#183FB0" stroke-width="2" stroke-linecap="round"/>
<path d="M293.063 120.581L289.272 112.99" stroke="#183FB0" stroke-width="2" stroke-linecap="round"/>
<g clip-path="url(#clip1_76_2)">
<path d="M305.5 208.5L326 171.5L377 301.5H332L333.5 275.5L322.056 256.426C316.715 247.525 312.737 237.876 310.254 227.798L305.5 208.5Z" fill="url(#paint3_linear_76_2)"/>
<path d="M318.43 192.49L325.024 183.07L329.548 198.205L338.782 198.96L356.118 183.07L351.973 156.687L342.949 142.222L312.399 152.163L301.281 164.789L305.049 184.764L318.43 192.49Z" fill="#C9704C"/>
<path d="M339.597 125.873L347.059 121.287C351.492 118.563 357.312 120.323 359.493 125.047L371.505 151.077L395.752 170.299C399.042 172.908 400.957 176.874 400.957 181.072V257.028L430.512 318.066L377.061 335L345.105 268.109L340.839 263.843C327.938 250.942 318.119 235.298 312.116 218.073L291.541 191.095C288.627 187.273 288.29 182.077 290.689 177.912L302.531 173.08L314.373 179.239L326.657 194.909L329.455 195.551C332.569 196.267 335.84 195.418 338.213 193.276L350.27 182.405L348.086 162.163L340.988 148.661L334.425 139.939L339.591 125.873H339.597Z" fill="#EA9A7A"/>
<path d="M382.541 213.671L300.503 143.413C300.169 143.127 299.798 142.915 299.411 142.762H299.414L285 135.936L292.853 150.372H292.856C293.065 150.74 293.34 151.082 293.682 151.376L375.723 221.634C377.301 222.986 379.678 222.802 381.033 221.224L382.956 218.981C384.309 217.402 384.125 215.026 382.546 213.671H382.541Z" fill="url(#paint4_linear_76_2)"/>
<path d="M293.79 145.509C293.951 144.541 294.539 143.305 296.46 142.971C297.083 142.864 297.657 142.578 298.095 142.137L285 135.936L291.838 148.505C292.05 148.106 292.35 147.696 292.785 147.339C293.343 146.884 293.674 146.216 293.79 145.506V145.509Z" fill="#FEF3C7"/>
<path d="M358.076 203.415L361.807 199.039C362.656 198.043 364.152 197.924 365.148 198.776L378.693 210.375L372.02 218.463L358.339 206.748C357.348 205.899 357.23 204.408 358.076 203.415Z" fill="#80A1FF"/>
<path d="M285 135.936L286.825 139.288L288.457 137.574L285 135.936Z" fill="black"/>
<path d="M382.541 213.671L377.672 209.501C375.867 208.805 373.745 209.243 372.379 210.771L371.485 211.77C369.974 213.458 369.884 215.92 371.126 217.702L375.72 221.637C377.298 222.989 379.675 222.805 381.03 221.227L382.954 218.983C384.306 217.405 384.122 215.029 382.543 213.673L382.541 213.671Z" fill="#F87171"/>
<path d="M376.198 221.976C377.748 222.935 379.808 222.652 381.03 221.224L382.954 218.98C384.119 217.62 384.142 215.668 383.115 214.29C381.171 213.122 378.617 213.464 377.066 215.218L376.438 215.928C374.902 217.665 374.857 220.2 376.198 221.979V221.976Z" fill="#EF4444"/>
<path d="M361.606 206.833L365.748 201.973C366.13 201.523 366.664 201.251 367.253 201.206C367.312 201.2 367.372 201.2 367.428 201.2C367.657 201.2 367.881 201.237 368.096 201.308L367.018 200.383C366.271 200.482 365.595 200.847 365.103 201.424L360.961 206.284C360.443 206.889 360.211 207.642 360.24 208.38L361.38 209.356C360.93 208.573 360.987 207.56 361.606 206.833Z" fill="#4B79FE"/>
<path d="M363.428 208.417L367.57 203.557C367.952 203.107 368.486 202.836 369.075 202.79C369.383 202.765 369.686 202.807 369.969 202.906L368.865 201.961C368.107 202.055 367.42 202.423 366.922 203.005L362.78 207.866C362.271 208.465 362.036 209.204 362.059 209.936L363.168 210.887C362.752 210.109 362.82 209.124 363.425 208.417H363.428Z" fill="#4B79FE"/>
<path d="M360.067 205.396L364.209 200.535C364.591 200.086 365.125 199.814 365.714 199.769C365.773 199.763 365.833 199.763 365.889 199.763C366.05 199.763 366.206 199.783 366.359 199.817L365.36 198.963C364.659 199.084 364.028 199.441 363.561 199.989L359.419 204.85C358.876 205.489 358.641 206.287 358.701 207.065L360.016 208.191C359.38 207.384 359.374 206.21 360.064 205.398L360.067 205.396Z" fill="#4B79FE"/>
<path d="M365.284 210.052L369.425 205.192C369.807 204.742 370.342 204.471 370.93 204.425C371.273 204.397 371.612 204.454 371.923 204.578L370.772 203.591C369.994 203.676 369.29 204.043 368.78 204.643L364.639 209.503C364.138 210.089 363.906 210.81 363.917 211.526L364.987 212.443C364.616 211.679 364.701 210.737 365.284 210.052Z" fill="#4B79FE"/>
<path d="M368.645 213.074L372.786 208.213C373.168 207.764 373.703 207.492 374.291 207.447C374.351 207.441 374.41 207.441 374.467 207.441C374.925 207.441 375.363 207.582 375.734 207.846L374.28 206.601C374.26 206.601 374.243 206.601 374.223 206.601C373.409 206.666 372.67 207.042 372.138 207.665L367.997 212.525C367.53 213.071 367.295 213.736 367.273 214.403L368.249 215.238C367.997 214.519 368.116 213.693 368.642 213.074H368.645Z" fill="#4B79FE"/>
<path d="M366.823 211.487L370.964 206.626C371.346 206.177 371.881 205.905 372.469 205.86C372.939 205.823 373.397 205.936 373.793 206.179L372.433 205.014C372.433 205.014 372.416 205.014 372.404 205.014C371.59 205.079 370.848 205.455 370.319 206.077L366.178 210.938C365.705 211.492 365.47 212.168 365.454 212.844L366.444 213.693C366.172 212.966 366.285 212.12 366.823 211.489V211.487Z" fill="#4B79FE"/>
<path d="M339.597 125.873L307.397 148.032C305.007 149.676 304.336 152.912 305.872 155.374C306.82 156.887 308.449 157.841 310.235 157.917C317.531 158.234 324.79 156.698 331.333 153.453L340.991 148.661L339.597 125.873Z" fill="#EA9A7A"/>
<path d="M295.937 160.372L290.689 177.912L314.373 179.239L310.911 162.395C310.15 158.7 307.103 155.911 303.354 155.481C300.025 155.099 296.899 157.159 295.937 160.372Z" fill="#EA9A7A"/>
<path d="M371.505 151.079L374.597 157.368C375.528 159.261 378.334 158.853 378.69 156.777L371.502 151.079H371.505Z" fill="#C9704C"/>
</g>
<path d="M-4.7413 299.345L-4.7413 167L170.999 299.345L83.5 299.345L-4.7413 299.345Z" fill="url(#paint5_linear_76_2)"/>
<path d="M233.5 305L258.405 265.998C259.42 264.408 261.062 263.323 262.923 263.013C268.129 262.145 272.228 267.39 270.127 272.232L255.912 305H256.929L277.591 261.609C279.197 258.237 283.235 256.808 286.604 258.419C289.684 259.893 291.181 263.433 290.092 266.669L277.188 305H277.96L295.039 267.501C296.673 263.913 300.91 262.334 304.494 263.977C307.669 265.432 309.322 268.973 308.398 272.341L299.438 305H300.916L310.282 278.722C311.49 275.333 315.284 273.639 318.614 275.001C321.441 276.158 323.034 279.175 322.394 282.162L317.5 305H300.916L294.5 323L299.438 305H277.96L275 311.5L277.188 305H256.929L245.5 329L255.912 305H233.5Z" fill="#EA9A7A"/>
<path d="M193.38 24.7828L238.634 -11.4297L213.628 -63.5136L210.835 -132.079L162.032 -165.086L4.66577 -31.5039L6.49999 94L105 61.5L166 86L193.38 24.7828Z" fill="url(#paint6_radial_76_2)"/>
<path d="M174.783 -149.587L139.05 -150.651L184.021 14.7975L228.491 -6.37521L238.283 -15.6015L174.783 -149.587Z" fill="url(#paint7_linear_76_2)"/>
<path d="M69.3134 -165.942L24.4321 40.9603L171.596 73.0244L216.477 -133.878L69.3134 -165.942Z" fill="url(#paint8_linear_76_2)"/>
<path d="M-15.1668 -133.093L24.4844 74.9576L172.406 46.9027L132.755 -161.148L-15.1668 -133.093Z" fill="url(#paint9_linear_76_2)"/>
<path d="M161 -9.5L169 29.5V-8L161 -9.5Z" fill="#C8DFFF"/>
<path d="M132.534 157.548L124 172L115.452 157.548L101 149L115.452 140.466L124 126L132.534 140.466L147 149L132.534 157.548Z" fill="white"/>
<path d="M483.803 244.401L472.401 233L461 244.401L472.401 255.803L483.803 244.401Z" fill="white"/>
<path d="M411.803 37.4014L400.401 26L389 37.4014L400.401 48.8028L411.803 37.4014Z" fill="white"/>
</g>
<defs>
<radialGradient id="paint0_radial_76_2" cx="0" cy="0" r="1" gradientUnits="userSpaceOnUse" gradientTransform="translate(310 108.5) rotate(114.028) scale(176.823 140.154)">
<stop stop-color="#00CDB3"/>
<stop offset="1" stop-color="#2CFBE1" stop-opacity="0"/>
</radialGradient>
<linearGradient id="paint1_linear_76_2" x1="268.75" y1="265.5" x2="268.75" y2="301" gradientUnits="userSpaceOnUse">
<stop stop-color="#00BBA3"/>
<stop offset="1" stop-color="#00BBA3" stop-opacity="0"/>
</linearGradient>
<radialGradient id="paint2_radial_76_2" cx="0" cy="0" r="1" gradientUnits="userSpaceOnUse" gradientTransform="translate(275.121 -70.9783) rotate(67.0158) scale(342.566 271.527)">
<stop stop-color="white"/>
<stop offset="1" stop-color="#EFF6FF"/>
</radialGradient>
<linearGradient id="paint3_linear_76_2" x1="339.5" y1="133.5" x2="341.25" y2="301.5" gradientUnits="userSpaceOnUse">
<stop stop-color="#4B79FE"/>
<stop offset="1" stop-color="#4B79FE" stop-opacity="0"/>
</linearGradient>
<linearGradient id="paint4_linear_76_2" x1="347" y1="180" x2="337.5" y2="192" gradientUnits="userSpaceOnUse">
<stop stop-color="#183FB0"/>
<stop offset="1" stop-color="#0D162F"/>
</linearGradient>
<linearGradient id="paint5_linear_76_2" x1="102" y1="210.5" x2="29.5" y2="319" gradientUnits="userSpaceOnUse">
<stop stop-color="#D2007E"/>
<stop offset="1" stop-color="#FF43B4"/>
</linearGradient>
<radialGradient id="paint6_radial_76_2" cx="0" cy="0" r="1" gradientUnits="userSpaceOnUse" gradientTransform="translate(54.5 -19.5) rotate(100.88) scale(182.785 499.939)">
<stop stop-color="#00C4AB"/>
<stop offset="0.785557" stop-color="#2CFBE1" stop-opacity="0"/>
</radialGradient>
<linearGradient id="paint7_linear_76_2" x1="75.3248" y1="-83.328" x2="224.602" y2="-127.626" gradientUnits="userSpaceOnUse">
<stop stop-color="#84A8FF"/>
<stop offset="0.758449" stop-color="#E7F4FF"/>
</linearGradient>
<linearGradient id="paint8_linear_76_2" x1="11.3507" y1="-56.1026" x2="208.47" y2="-30.8031" gradientUnits="userSpaceOnUse">
<stop stop-color="#8ABFFF"/>
<stop offset="1" stop-color="#EAF3FF"/>
</linearGradient>
<linearGradient id="paint9_linear_76_2" x1="10.6228" y1="-109.193" x2="138.069" y2="-28.2181" gradientUnits="userSpaceOnUse">
<stop stop-color="white"/>
<stop offset="1" stop-color="#E6F0FF"/>
</linearGradient>
<clipPath id="clip0_76_2">
<rect width="529" height="296" fill="white"/>
</clipPath>
<clipPath id="clip1_76_2">
<rect width="145.512" height="215" fill="white" transform="translate(285 120)"/>
</clipPath>
</defs>
</svg>
