<svg width="529" height="296" viewBox="0 0 529 296" fill="none" xmlns="http://www.w3.org/2000/svg">
<g clip-path="url(#clip0_94_1059)">
<rect width="529" height="296" fill="#FF6FDF"/>
<path d="M192.5 109L249.52 101.176C252.377 100.784 255.108 102.479 256.025 105.212L292 212.5L223.269 244.143C219.685 245.793 215.511 243.593 214.846 239.703L192.5 109Z" fill="url(#paint0_linear_94_1059)"/>
<path d="M109 245H182L163.5 315H109V245Z" fill="url(#paint1_linear_94_1059)"/>
<path d="M544.5 133L440.383 185.059C429.239 190.631 415.941 183.469 414.46 171.098L410.5 138L325.807 122.986C313.506 120.806 307.113 107.065 313.367 96.2513L372.5 -6L544.5 133Z" fill="url(#paint2_linear_94_1059)"/>
<path d="M496.201 9.62481L376.71 -23.4217C371.915 -24.7496 366.953 -21.9296 365.625 -17.1339L332.578 102.356C331.251 107.152 334.071 112.114 338.866 113.442L458.357 146.488C463.152 147.816 468.114 144.996 469.442 140.201L502.488 20.7103C503.816 15.9146 501.008 10.9522 496.201 9.62481Z" fill="white"/>
<path d="M485.747 20.1849L380.001 -9.05553C378.326 -9.51504 376.601 -8.53214 376.141 -6.86884L353.256 75.8712C352.797 77.5464 353.78 79.2706 355.443 79.7306L458.81 108.324C460.486 108.784 465.165 106.383 465.625 104.72L487.935 24.0563C488.394 22.381 487.411 20.6568 485.748 20.1968L485.747 20.1849Z" fill="url(#paint3_linear_94_1059)"/>
<path d="M421.899 53.4132L422.634 54.7173C423.321 55.9368 422.889 57.4848 421.669 58.1719C420.45 58.859 418.902 58.4267 418.215 57.2071C417.528 55.9876 417.96 54.4396 419.179 53.7525L420.484 53.0178C420.985 52.7355 421.617 52.9121 421.899 53.4132Z" fill="#0D162F"/>
<path d="M438.642 47.731L440.099 48.1378C441.461 48.5182 442.259 49.9331 441.878 51.2953C441.498 52.6576 440.083 53.4547 438.721 53.0743C437.358 52.6939 436.561 51.279 436.942 49.9167L437.348 48.4601C437.505 47.9003 438.083 47.5747 438.642 47.731Z" fill="#0D162F"/>
<path d="M356.789 87.0401L452.171 113.35L454.125 115.289L451.454 115.952L452.251 117.571L450.736 118.553L452.69 120.491L450.019 121.154L450.816 122.774L449.301 123.756L448.942 125.056L449.74 126.676L448.225 127.657L449.022 129.277L447.507 130.259L449.461 132.197L446.79 132.86L448.743 134.799L349.315 107.372L354.737 105.758L353.899 104.283L355.374 103.445L353.959 101.811L356.012 101.133L356.69 98.6763L357.029 97.4479L356.212 95.9005L357.706 94.991L356.889 93.4437L358.384 92.5342L358.723 91.3058L356.989 90.8275L358.882 90.7278L359.201 89.5716L356.789 87.0401Z" fill="#FDE68A"/>
<path d="M429.278 118.061L419.396 115.413L414.703 116.284L413.554 112.251L409.768 113.897L407.433 112.207L400.926 111.528L398.591 109.838L392.083 109.159L386.108 106.493L378.306 104.403" stroke="black" stroke-width="5.99661" stroke-linecap="round" stroke-linejoin="round"/>
<path d="M526.858 -72.6687L415.467 -18.2444C410.995 -16.0614 409.148 -10.6615 411.331 -6.18978L465.755 105.201C467.938 109.673 473.338 111.521 477.81 109.338L589.201 54.9134C593.673 52.7304 595.52 47.3305 593.337 42.8588L538.913 -68.5324C536.73 -73.0041 531.339 -74.8601 526.858 -72.6687Z" fill="white"/>
<path d="M526.026 -57.8332L427.451 -9.6649C425.891 -8.899 425.251 -7.02037 426.009 -5.46982L463.693 71.6636C464.459 73.2228 466.337 73.8629 467.888 73.1053L564.253 26.0291C565.812 25.2632 567.726 20.3651 566.969 18.8146L530.23 -56.3828C529.464 -57.942 527.585 -58.5821 526.035 -57.8245L526.026 -57.8332Z" fill="url(#paint4_linear_94_1059)"/>
<path d="M500.224 9.35973L501.638 9.84961C502.961 10.3077 503.663 11.7536 503.205 13.0763C502.747 14.399 501.301 15.1009 499.978 14.6427C498.655 14.1846 497.953 12.7388 498.412 11.4161L498.902 10.0017C499.09 9.45825 499.68 9.17149 500.224 9.35973Z" fill="#0D162F"/>
<path d="M473.74 77.6877L562.611 34.1925L565.359 34.3499L563.797 36.6162L565.468 37.3009L564.984 39.04L567.731 39.1974L566.17 41.4638L567.84 42.1484L567.356 43.8875L567.949 45.0994L569.619 45.7841L569.135 47.5232L570.806 48.2078L570.322 49.9469L573.069 50.1044L571.508 52.3707L574.255 52.5281L481.614 97.8686L484.605 93.0667L483 92.5167L483.55 90.9122L481.407 90.6258L482.496 88.7578L481.376 86.4687L480.815 85.3241L479.178 84.7068L479.695 83.035L478.058 82.4177L478.575 80.7459L478.015 79.6013L476.399 80.3922L477.751 79.0627L477.224 77.9855L473.74 77.6877Z" fill="#FDE68A"/>
<path d="M548.586 52.8896L539.43 57.4545L536.492 61.2165L532.959 58.9576L531.214 62.6991L528.346 62.9804L523.022 66.7834L520.154 67.0647L514.83 70.8678L508.588 72.8308L501.36 76.4347" stroke="black" stroke-width="5.99661" stroke-linecap="round" stroke-linejoin="round"/>
<path d="M508.712 -5.55223L390.801 32.7509C386.068 34.2868 383.483 39.375 385.019 44.1082L423.322 162.019C424.858 166.752 429.946 169.337 434.679 167.801L552.59 129.498C557.323 127.962 559.908 122.874 558.372 118.14L520.069 0.230077C518.533 -4.50311 513.455 -7.09519 508.712 -5.55223Z" fill="white"/>
<path d="M505.812 9.02091L401.466 42.9227C399.815 43.4629 398.919 45.2335 399.452 46.8748L425.973 128.522C426.513 130.173 428.283 131.07 429.925 130.537L531.929 97.4068C533.58 96.8666 536.16 92.2846 535.627 90.6433L509.771 11.0451C509.231 9.39411 507.46 8.49745 505.819 9.03063L505.812 9.02091Z" fill="url(#paint5_linear_94_1059)"/>
<path d="M502.773 41.8742C509.849 63.8507 497.773 87.4018 475.797 94.4776C453.826 101.561 430.268 89.4841 423.192 67.5076L502.773 41.8742Z" fill="url(#paint6_radial_94_1059)"/>
<path d="M497.798 43.4748C503.993 62.7006 493.422 83.3062 474.196 89.5015C454.971 95.6968 434.365 85.1257 428.17 65.8998L497.798 43.4748Z" fill="#F0FDFA"/>
<path d="M496.461 43.9081C502.418 62.397 492.257 82.216 473.769 88.1726C455.28 94.1291 435.461 83.9685 429.504 65.4796L496.461 43.9081Z" fill="url(#paint7_linear_94_1059)"/>
<path d="M470.862 71.9423L472.194 72.6253C473.439 73.264 473.932 74.7938 473.293 76.0394C472.655 77.2849 471.125 77.7777 469.879 77.139C468.634 76.5003 468.141 74.9704 468.78 73.7249L469.463 72.393C469.725 71.8812 470.35 71.6799 470.862 71.9423Z" fill="#0D162F"/>
<path d="M481.698 57.9716L483.138 57.5079C484.484 57.0743 485.929 57.8153 486.363 59.1616C486.797 60.5079 486.056 61.9529 484.709 62.3865C483.363 62.8201 481.918 62.0792 481.484 60.7329L481.021 59.2933C480.843 58.7401 481.145 58.1498 481.698 57.9716Z" fill="#0D162F"/>
<path d="M450.803 69.4389L451.262 70.8643C451.692 72.1973 450.958 73.628 449.625 74.0574C448.292 74.4867 446.861 73.753 446.432 72.4201C446.003 71.0871 446.736 69.6563 448.069 69.227L449.495 68.7679C450.042 68.5915 450.627 68.8912 450.803 69.4389V69.4389Z" fill="#0D162F"/>
<path d="M435.078 135.893L529.161 105.26L531.859 105.801L529.996 107.826L531.554 108.738L530.831 110.392L533.53 110.932L531.667 112.958L533.225 113.87L532.502 115.524L532.92 116.807L534.478 117.718L533.755 119.373L535.314 120.284L534.591 121.938L537.289 122.479L535.426 124.504L538.125 125.045L440.051 156.977L443.684 152.641L442.172 151.872L442.941 150.36L440.859 149.776L442.199 148.079L441.41 145.656L441.015 144.444L439.48 143.604L440.226 142.021L438.691 141.18L439.437 139.597L439.043 138.386L437.332 138.943L438.857 137.815L438.486 136.675L435.078 135.893Z" fill="#FDE68A"/>
<path d="M462.702 138.82L472.43 135.653L475.89 132.364L479.052 135.119L481.328 131.675L484.207 131.819L490.032 128.841L492.911 128.985L498.737 126.007L505.199 124.984L512.879 122.483" stroke="black" stroke-width="5.99661" stroke-linecap="round" stroke-linejoin="round"/>
<path d="M254.659 322.324L548.5 153L554 301.5L481 322.324L254.659 322.324Z" fill="url(#paint8_linear_94_1059)"/>
<path d="M300.599 36.7993L290.799 27L281 36.7993L290.799 46.5986L300.599 36.7993Z" fill="white"/>
<path d="M378.599 170.799L368.799 161L359 170.799L368.799 180.599L378.599 170.799Z" fill="white"/>
<rect x="-12.439" y="148" width="218" height="139" transform="rotate(26.2882 -12.439 148)" fill="url(#paint9_radial_94_1059)"/>
<path fill-rule="evenodd" clip-rule="evenodd" d="M79.5328 274.968L175.5 260L182.677 245.167L182.715 245.156L183.015 244.549L182.984 244.534L183 244.5L182.946 244.516L182.35 244.221L71.2608 276.318C54.06 281.287 35.9159 272.273 29.486 255.563L-11.7775 148.327L-12.4391 148L-12.7402 148.61L28.5527 255.922C35.169 273.116 53.839 282.392 71.5384 277.278L79.5328 274.968Z" fill="#D97706"/>
<path d="M133.534 161.548L125 176L116.452 161.548L102 153L116.452 144.466L125 130L133.534 144.466L148 153L133.534 161.548Z" fill="white"/>
<path d="M55.3708 258.892C53.0023 257.649 51.0517 256.215 49.5188 254.591C47.9894 252.977 46.897 251.216 46.2416 249.306C45.5862 247.396 45.376 245.384 45.6111 243.269C45.8462 241.154 46.5458 238.979 47.7098 236.744C48.8845 234.524 50.2981 232.673 51.9506 231.192C53.607 229.703 55.4484 228.634 57.4748 227.985C59.5123 227.332 61.6883 227.143 64.0029 227.419C66.3175 227.695 68.7168 228.484 71.2008 229.788C73.4393 230.963 75.2964 232.329 76.7723 233.887C78.2591 235.441 79.3307 237.146 79.9872 239.001C80.6547 240.853 80.8767 242.816 80.6534 244.891C80.4372 246.97 79.7418 249.119 78.5672 251.339C77.7784 252.859 76.9221 254.105 75.9983 255.075C75.0782 256.038 74.0958 256.743 73.051 257.189C72.0062 257.635 70.9079 257.833 69.7562 257.781C68.6117 257.733 67.419 257.452 66.1779 256.939C65.0633 256.482 64.3281 256.032 63.9721 255.587C63.6161 255.142 63.468 254.696 63.5279 254.249C63.5878 253.801 63.688 253.347 63.8284 252.887L63.6984 252.819C63.2973 253.179 62.7063 253.366 61.9254 253.38C61.1445 253.394 60.2989 253.268 59.3885 253.002C58.4781 252.736 57.6301 252.36 56.8445 251.873C56.0805 251.399 55.3867 250.79 54.7629 250.049C54.1392 249.307 53.6657 248.436 53.3426 247.438C53.0266 246.443 52.9373 245.332 53.0746 244.106C53.2157 242.872 53.6597 241.535 54.4068 240.094C55.1721 238.653 56.0151 237.53 56.9357 236.724C57.8635 235.921 58.8103 235.355 59.7763 235.023C60.7494 234.696 61.6899 234.545 62.5977 234.57C63.5128 234.599 64.3328 234.73 65.0578 234.964C66.0149 235.263 66.8728 235.691 67.6316 236.246C68.3941 236.793 68.9903 237.359 69.4201 237.944C69.8538 238.522 70.0558 239.006 70.0262 239.395L70.1995 239.486L70.8363 238.273L74.9522 240.434L69.1301 251.525C68.9171 251.966 68.8377 252.293 68.8919 252.505C68.9533 252.722 69.0742 252.877 69.2547 252.972C69.5941 253.15 70.0142 253.122 70.5149 252.888C71.0267 252.65 71.5851 252.174 72.1901 251.46C72.8062 250.742 73.4404 249.753 74.0927 248.493C74.949 246.879 75.4484 245.419 75.5909 244.112C75.7445 242.802 75.6399 241.633 75.2772 240.604C74.9182 239.569 74.3891 238.655 73.6897 237.864C73.0014 237.07 72.2271 236.378 71.3669 235.789C70.5105 235.192 69.6743 234.679 68.8583 234.251C66.9881 233.269 65.23 232.705 63.584 232.56C61.9491 232.411 60.4425 232.596 59.0643 233.116C57.6899 233.629 56.4654 234.4 55.3908 235.429C54.3273 236.455 53.4299 237.656 52.6987 239.031C51.8531 240.66 51.3353 242.216 51.1455 243.701C50.9629 245.189 51.0995 246.587 51.5552 247.895C52.0181 249.206 52.7949 250.42 53.8854 251.536C54.9794 252.663 56.3785 253.674 58.0826 254.568C58.9419 255.019 59.8025 255.406 60.6643 255.73C61.5223 256.061 62.3343 256.321 63.1002 256.511C63.8624 256.709 64.5312 256.829 65.1067 256.874L64.4463 261.501C63.8321 261.565 63.0472 261.508 62.0913 261.328C61.1389 261.16 60.0849 260.869 58.9294 260.456C57.7773 260.054 56.5911 259.533 55.3708 258.892ZM60.92 248.321C61.7504 248.757 62.4799 248.946 63.1084 248.889C63.748 248.829 64.3152 248.555 64.8099 248.069C65.3157 247.579 65.7776 246.91 66.1957 246.061C66.522 245.422 66.7498 244.786 66.879 244.154C67.0192 243.518 66.9437 242.908 66.6525 242.322C66.3723 241.733 65.7592 241.19 64.8133 240.693C64.0262 240.28 63.2844 240.07 62.5878 240.064C61.9022 240.054 61.2709 240.248 60.694 240.645C60.1281 241.038 59.6293 241.638 59.1975 242.443C58.856 243.111 58.6435 243.805 58.56 244.526C58.4874 245.243 58.6234 245.932 58.9679 246.591C59.3233 247.248 59.9741 247.824 60.92 248.321Z" fill="#7C4300"/>
<path d="M141.037 25.7829L186.291 -10.4296L161.285 -62.5135L158.492 -131.079L109.689 -164.086L-47.6772 -30.5038L-45.843 95.0001L52.657 62.5001L113.657 87.0001L141.037 25.7829Z" fill="url(#paint10_radial_94_1059)"/>
<path d="M122.44 -148.587L86.7074 -149.651L131.678 15.7977L176.148 -5.37496L185.94 -14.6012L122.44 -148.587Z" fill="url(#paint11_linear_94_1059)"/>
<path d="M16.9706 -164.942L-27.9106 41.9606L119.253 74.0247L164.135 -132.878L16.9706 -164.942Z" fill="url(#paint12_linear_94_1059)"/>
<path d="M-67.5096 -132.093L-27.8584 75.9579L120.063 47.9029L80.4122 -160.148L-67.5096 -132.093Z" fill="url(#paint13_linear_94_1059)"/>
<path d="M108.657 -8.49988L116.657 30.5001V-6.99988L108.657 -8.49988Z" fill="#C8DFFF"/>
<rect x="191" y="103.411" width="75" height="132" rx="6" transform="rotate(-15 191 103.411)" fill="#0D162F"/>
<path fill-rule="evenodd" clip-rule="evenodd" d="M203.825 151.274C230.664 139.703 252.331 120.163 266.734 96.2788L286.159 168.773C267.475 186.639 245.073 201.041 219.729 210.631L203.825 151.274Z" fill="url(#paint14_radial_94_1059)"/>
<rect x="192.225" y="104.118" width="73" height="130" rx="5" transform="rotate(-15 192.225 104.118)" stroke="#313A53" stroke-width="2"/>
<path d="M246.803 169.288C253.204 167.573 257.003 160.993 255.288 154.591C253.573 148.19 246.993 144.391 240.591 146.106C234.19 147.821 230.391 154.401 232.106 160.803C233.821 167.204 240.401 171.003 246.803 169.288Z" stroke="white" stroke-width="2.55319" stroke-miterlimit="10"/>
<path d="M249.862 156.045L241.419 164.488L238.329 152.955L249.862 156.045Z" fill="white"/>
</g>
<defs>
<linearGradient id="paint0_linear_94_1059" x1="259.5" y1="124.5" x2="216.5" y2="235.5" gradientUnits="userSpaceOnUse">
<stop stop-color="#FF00B2"/>
<stop offset="1" stop-color="#FF00B2" stop-opacity="0"/>
</linearGradient>
<linearGradient id="paint1_linear_94_1059" x1="145.5" y1="245" x2="145.5" y2="315" gradientUnits="userSpaceOnUse">
<stop stop-color="#FF0099"/>
<stop offset="1" stop-color="#FF0099" stop-opacity="0"/>
</linearGradient>
<linearGradient id="paint2_linear_94_1059" x1="465.5" y1="34" x2="383" y2="176" gradientUnits="userSpaceOnUse">
<stop stop-color="#FF00C6"/>
<stop offset="0.850517" stop-color="#FF00C6" stop-opacity="0"/>
</linearGradient>
<linearGradient id="paint3_linear_94_1059" x1="380" y1="0.0189904" x2="469.578" y2="135.587" gradientUnits="userSpaceOnUse">
<stop stop-color="#312E81"/>
<stop offset="1" stop-color="#0D162F"/>
</linearGradient>
<linearGradient id="paint4_linear_94_1059" x1="433.463" y1="-2.86818" x2="590.382" y2="39.313" gradientUnits="userSpaceOnUse">
<stop stop-color="#312E81"/>
<stop offset="1" stop-color="#0D162F"/>
</linearGradient>
<linearGradient id="paint5_linear_94_1059" x1="406.469" y1="50.4939" x2="555.942" y2="114.216" gradientUnits="userSpaceOnUse">
<stop stop-color="#312E81"/>
<stop offset="1" stop-color="#0D162F"/>
</linearGradient>
<radialGradient id="paint6_radial_94_1059" cx="0" cy="0" r="1" gradientUnits="userSpaceOnUse" gradientTransform="translate(464.306 54.5482) rotate(70.8067) scale(43.4167 41.1986)">
<stop offset="0.514258" stop-color="#5EEAD4"/>
<stop offset="1" stop-color="#14B8A6"/>
</radialGradient>
<linearGradient id="paint7_linear_94_1059" x1="455.462" y1="36.9834" x2="470.531" y2="94.821" gradientUnits="userSpaceOnUse">
<stop offset="0.352399" stop-color="#FCA5A5"/>
<stop offset="1" stop-color="#F87171"/>
</linearGradient>
<linearGradient id="paint8_linear_94_1059" x1="398.26" y1="231.292" x2="460.293" y2="350.332" gradientUnits="userSpaceOnUse">
<stop stop-color="#1100D1"/>
<stop offset="1" stop-color="#0066FF"/>
</linearGradient>
<radialGradient id="paint9_radial_94_1059" cx="0" cy="0" r="1" gradientUnits="userSpaceOnUse" gradientTransform="translate(145.561 130) rotate(107.333) scale(164.469 257.944)">
<stop stop-color="#FFE285"/>
<stop offset="1" stop-color="#FFBE51"/>
</radialGradient>
<radialGradient id="paint10_radial_94_1059" cx="0" cy="0" r="1" gradientUnits="userSpaceOnUse" gradientTransform="translate(2.15703 -18.4999) rotate(100.88) scale(182.785 499.939)">
<stop stop-color="#FF0A9F"/>
<stop offset="0.785557" stop-color="#FF6FDF" stop-opacity="0"/>
</radialGradient>
<linearGradient id="paint11_linear_94_1059" x1="22.9817" y1="-82.3278" x2="172.259" y2="-126.626" gradientUnits="userSpaceOnUse">
<stop stop-color="#84A8FF"/>
<stop offset="0.758449" stop-color="#E7F4FF"/>
</linearGradient>
<linearGradient id="paint12_linear_94_1059" x1="-40.992" y1="-55.1023" x2="156.127" y2="-29.8028" gradientUnits="userSpaceOnUse">
<stop stop-color="#8ABFFF"/>
<stop offset="1" stop-color="#EAF3FF"/>
</linearGradient>
<linearGradient id="paint13_linear_94_1059" x1="-41.72" y1="-108.192" x2="85.7261" y2="-27.2179" gradientUnits="userSpaceOnUse">
<stop stop-color="white"/>
<stop offset="1" stop-color="#E6F0FF"/>
</linearGradient>
<radialGradient id="paint14_radial_94_1059" cx="0" cy="0" r="1" gradientUnits="userSpaceOnUse" gradientTransform="translate(250.871 100.827) rotate(76.3502) scale(148.541 113.344)">
<stop stop-color="#3F4861"/>
<stop offset="0.803861" stop-color="#0D162F" stop-opacity="0"/>
</radialGradient>
<clipPath id="clip0_94_1059">
<rect width="529" height="296" fill="white"/>
</clipPath>
</defs>
</svg>
