<svg width="265" height="265" viewBox="0 0 265 265" fill="none" xmlns="http://www.w3.org/2000/svg">
<path d="M172.89 0H91.52C67.2474 0 43.9689 9.64226 26.8056 26.8056C9.64225 43.9689 5.46499e-07 67.2474 5.46499e-07 91.52V172.88C-0.00131293 184.899 2.36502 196.8 6.96387 207.905C11.5627 219.009 18.304 229.099 26.8027 237.597C35.3013 246.096 45.391 252.837 56.4953 257.436C67.5996 262.035 79.5011 264.401 91.52 264.4H172.88C184.899 264.4 196.799 262.033 207.903 257.433C219.007 252.834 229.096 246.093 237.594 237.594C246.093 229.096 252.834 219.007 257.433 207.903C262.033 196.799 264.4 184.899 264.4 172.88V91.52C264.397 67.2499 254.756 43.9745 237.595 26.8121C220.434 9.64959 197.16 0.00530305 172.89 0Z" fill="url(#paint0_radial_257_154)"/>
<path d="M137.356 47L177.926 67.91L151.376 86.67L135.836 80.41L137.356 47Z" fill="url(#paint1_radial_257_154)"/>
<path d="M142.356 62.61L137.356 47L68.9655 68.9C66.9763 69.5371 65.1322 70.5599 63.5384 71.9099C61.9446 73.2599 60.6324 74.9108 59.6768 76.7681C58.7213 78.6254 58.141 80.6528 57.9692 82.7344C57.7974 84.8161 58.0374 86.9112 58.6755 88.9L95.9255 205.2C96.5615 207.19 97.5836 209.035 98.9333 210.629C100.283 212.224 101.934 213.537 103.792 214.492C105.649 215.448 107.677 216.028 109.759 216.199C111.841 216.371 113.937 216.13 115.926 215.49L199.926 188.59C201.915 187.953 203.759 186.93 205.353 185.58C206.946 184.23 208.259 182.579 209.214 180.722C210.17 178.865 210.75 176.837 210.922 174.756C211.094 172.674 210.854 170.579 210.215 168.59L177.936 67.91L162.336 72.91C160.347 73.5463 158.253 73.7845 156.173 73.6112C154.093 73.4378 152.067 72.8563 150.211 71.8998C148.356 70.9432 146.707 69.6305 145.359 68.0365C144.011 66.4425 142.991 64.5986 142.356 62.61Z" fill="white"/>
<path d="M108.556 85.22L57.7356 101.53C57.0651 101.745 56.4435 102.089 55.9063 102.544C55.3691 102.999 54.9267 103.555 54.6045 104.181C54.2823 104.807 54.0865 105.49 54.0283 106.192C53.9702 106.893 54.0508 107.6 54.2656 108.27L57.2656 117.48L58.8556 122.48C59.3405 123.966 60.2473 125.28 61.4656 126.26L116.116 108.76C116.786 108.546 117.407 108.203 117.944 107.749C118.481 107.295 118.924 106.74 119.246 106.114C119.568 105.489 119.764 104.807 119.822 104.106C119.881 103.405 119.8 102.7 119.586 102.03L115.336 88.76C115.13 88.078 114.79 87.4439 114.335 86.8951C113.881 86.3463 113.322 85.8937 112.69 85.564C112.059 85.2343 111.368 85.034 110.658 84.9749C109.948 84.9158 109.233 84.9992 108.556 85.22Z" fill="#EF4444"/>
<path d="M61.4155 126.19C62.2956 126.907 63.3183 127.429 64.4155 127.72L71.7555 129.66L69.7955 123.53L61.4155 126.19Z" fill="url(#paint2_linear_257_154)"/>
<path d="M179.036 71.36L162.336 72.9L177.926 67.91L179.036 71.36Z" fill="url(#paint3_radial_257_154)"/>
<path fill-rule="evenodd" clip-rule="evenodd" d="M126.607 162.933C130.965 164.182 135.596 164.11 139.913 162.727C142.932 161.753 145.685 160.176 148.022 158.121L168.636 170.846C169.293 171.252 170.031 171.51 170.797 171.603C171.563 171.696 172.341 171.622 173.076 171.386H173.096C174.071 171.078 174.937 170.495 175.59 169.708C176.243 168.921 176.655 167.963 176.779 166.948C176.902 165.933 176.731 164.903 176.285 163.983C175.84 163.062 175.139 162.29 174.266 161.756L154.194 149.368C156.142 144.473 156.354 139.033 154.753 133.967C153.379 129.647 150.754 125.831 147.211 123.003C143.667 120.176 139.365 118.463 134.847 118.081C130.33 117.7 125.801 118.667 121.834 120.861C117.867 123.055 114.639 126.376 112.561 130.405C110.482 134.433 109.645 138.988 110.156 143.493C110.667 147.997 112.503 152.249 115.431 155.709C118.36 159.17 122.249 161.684 126.607 162.933ZM123.357 133.289C124.864 131.396 126.898 129.993 129.203 129.257C132.291 128.278 135.641 128.562 138.521 130.046C141.401 131.53 143.577 134.094 144.573 137.177C145.31 139.481 145.348 141.952 144.681 144.277C144.015 146.603 142.673 148.678 140.827 150.241C138.98 151.804 136.712 152.784 134.308 153.058C131.904 153.332 129.474 152.886 127.323 151.778C125.173 150.67 123.399 148.949 122.227 146.833C121.055 144.717 120.536 142.3 120.738 139.889C120.939 137.479 121.85 135.182 123.357 133.289Z" fill="url(#paint4_radial_257_154)"/>
<path d="M69.4955 116.26L66.4955 106.76C66.3731 106.501 66.3103 106.218 66.3115 105.931C66.3128 105.645 66.3782 105.362 66.5028 105.104C66.6275 104.846 66.8083 104.62 67.0319 104.441C67.2556 104.262 67.5165 104.135 67.7955 104.07L71.9455 102.74C72.5871 102.478 73.2772 102.357 73.9696 102.384C74.6619 102.411 75.3405 102.585 75.9599 102.896C76.5793 103.206 77.125 103.646 77.5606 104.185C77.9962 104.724 78.3116 105.349 78.4855 106.02C79.4355 109.02 77.9155 111.56 74.7955 112.56L72.8755 113.17L73.4655 115C73.5739 115.264 73.6265 115.548 73.6199 115.834C73.6133 116.119 73.5477 116.4 73.4272 116.659C73.3067 116.918 73.1339 117.149 72.9197 117.338C72.7054 117.527 72.4544 117.67 72.1824 117.757C71.9105 117.844 71.6234 117.874 71.3392 117.845C71.0551 117.816 70.7801 117.728 70.5315 117.588C70.2828 117.447 70.066 117.256 69.8946 117.028C69.7232 116.8 69.6009 116.538 69.5355 116.26H69.4955ZM73.0155 109.91C73.2993 109.864 73.5689 109.754 73.8043 109.589C74.0398 109.424 74.235 109.208 74.3753 108.957C74.5157 108.706 74.5976 108.427 74.6149 108.14C74.6323 107.853 74.5846 107.566 74.4755 107.3C74.4115 107.022 74.2854 106.762 74.1065 106.54C73.9277 106.317 73.7009 106.138 73.443 106.016C73.1852 105.894 72.903 105.832 72.6177 105.834C72.3323 105.836 72.0513 105.903 71.7955 106.03L70.6655 106.4L71.8955 110.26L73.0155 109.91Z" fill="white"/>
<path d="M85.3456 110.92L82.3456 101.66C82.2233 101.4 82.1608 101.116 82.1626 100.829C82.1645 100.542 82.2307 100.259 82.3564 100.001C82.4821 99.7432 82.664 99.5166 82.8889 99.3381C83.1137 99.1596 83.3757 99.0339 83.6556 98.97L87.4056 97.76C91.4756 96.46 94.5956 98.01 95.9656 102.29C97.3356 106.57 95.7456 109.85 91.6956 111.15L87.9356 112.35C87.6728 112.455 87.3898 112.501 87.1072 112.484C86.8245 112.466 86.5493 112.386 86.3014 112.249C86.0535 112.112 85.8392 111.922 85.6738 111.692C85.5085 111.462 85.3964 111.199 85.3456 110.92ZM90.1656 108.2C92.1656 107.57 92.7856 106.05 91.9956 103.58C91.2656 101.32 89.7656 100.46 87.8856 101.07L86.6456 101.46L88.9356 108.6L90.1656 108.2Z" fill="white"/>
<path d="M102.556 105.67L99.5556 96.17C99.4417 95.9174 99.3839 95.6431 99.386 95.3659C99.3882 95.0888 99.4503 94.8155 99.5681 94.5647C99.686 94.3138 99.8567 94.0915 100.069 93.9129C100.28 93.7343 100.528 93.6036 100.796 93.53L106.686 91.64C106.899 91.542 107.131 91.4905 107.366 91.4888C107.601 91.4872 107.834 91.5354 108.049 91.6305C108.264 91.7255 108.456 91.865 108.613 92.0399C108.77 92.2148 108.888 92.4211 108.96 92.645C109.031 92.869 109.054 93.1055 109.027 93.339C109 93.5725 108.924 93.7976 108.803 93.9994C108.683 94.2012 108.521 94.3752 108.328 94.5097C108.136 94.6443 107.917 94.7364 107.686 94.78L103.796 95.98L104.616 98.54L108.136 97.41C108.337 97.3182 108.555 97.2717 108.776 97.2737C108.997 97.2757 109.215 97.3262 109.414 97.4216C109.614 97.5169 109.79 97.6549 109.93 97.8256C110.07 97.9964 110.171 98.1959 110.226 98.41C110.304 98.6156 110.336 98.8361 110.319 99.0556C110.302 99.2751 110.237 99.4881 110.128 99.6793C110.019 99.8705 109.869 100.035 109.689 100.162C109.509 100.288 109.303 100.373 109.086 100.41L105.556 101.53L106.496 104.45C106.591 104.712 106.633 104.991 106.618 105.269C106.604 105.548 106.533 105.82 106.41 106.071C106.288 106.321 106.115 106.544 105.904 106.727C105.693 106.909 105.447 107.047 105.182 107.132C104.916 107.217 104.636 107.247 104.358 107.221C104.081 107.195 103.811 107.113 103.566 106.981C103.32 106.848 103.105 106.667 102.931 106.448C102.757 106.23 102.63 105.979 102.556 105.71V105.67Z" fill="white"/>
<path d="M66.01 179.265H65.5303C52.5066 179.265 45.9132 169.395 45.3212 156.862L45.2701 155C45.2701 168.404 38.6767 179.265 25.01 179.265H25.4795C38.9625 179.265 45.4845 189.856 45.7397 203.069V202.148V204C45.4947 190.426 52.1596 179.265 66.01 179.265Z" fill="#FFFBEB"/>
<path d="M211.01 41.38H210.764C204.094 41.38 200.717 36.3442 200.413 29.9499L200.387 29C200.387 35.8386 197.01 41.38 190.01 41.38H190.25C197.156 41.38 200.497 46.7834 200.628 53.525V53.0552V54C200.502 47.0746 203.916 41.38 211.01 41.38Z" fill="#FFFBEB"/>
<path d="M232.01 66.38H231.764C225.094 66.38 221.717 61.3442 221.413 54.9499L221.387 54C221.387 60.8386 218.01 66.38 211.01 66.38H211.25C218.156 66.38 221.497 71.7834 221.628 78.525V78.0552V79C221.502 72.0746 224.916 66.38 232.01 66.38Z" fill="#FFFBEB"/>
<path d="M199.01 227.428H198.881C195.387 227.428 193.618 224.407 193.459 220.57L193.446 220C193.446 224.103 191.677 227.428 188.01 227.428H188.136C191.753 227.428 193.503 230.67 193.572 234.715V234.433V235C193.506 230.845 195.294 227.428 199.01 227.428Z" fill="#FFFBEB"/>
<defs>
<radialGradient id="paint0_radial_257_154" cx="0" cy="0" r="1" gradientUnits="userSpaceOnUse" gradientTransform="translate(-0.340015 -0.810007) rotate(45) scale(373.352)">
<stop stop-color="#1C398B"/>
<stop offset="1" stop-color="#0D162F"/>
</radialGradient>
<radialGradient id="paint1_radial_257_154" cx="0" cy="0" r="1" gradientUnits="userSpaceOnUse" gradientTransform="translate(150.01 77) rotate(-66.0375) scale(24.6221 26.1242)">
<stop offset="0.270028" stop-color="#E0E3ED"/>
<stop offset="1" stop-color="#F1F5F9"/>
</radialGradient>
<linearGradient id="paint2_linear_257_154" x1="65.01" y1="124.5" x2="68.01" y2="134" gradientUnits="userSpaceOnUse">
<stop stop-color="#991B1B"/>
<stop offset="0.301832" stop-color="#DC2626"/>
</linearGradient>
<radialGradient id="paint3_radial_257_154" cx="0" cy="0" r="1" gradientUnits="userSpaceOnUse" gradientTransform="translate(170.51 66) rotate(72.8973) scale(13.6015 45.5199)">
<stop stop-color="#697087"/>
<stop offset="0.540492" stop-color="#697087" stop-opacity="0"/>
</radialGradient>
<radialGradient id="paint4_radial_257_154" cx="0" cy="0" r="1" gradientUnits="userSpaceOnUse" gradientTransform="translate(136.51 183.5) rotate(-71.7187) scale(58.9767 73.4518)">
<stop stop-color="#183FB0"/>
<stop offset="0.697917" stop-color="#1854FF"/>
</radialGradient>
</defs>
</svg>
