<svg width="72" height="72" viewBox="0 0 72 72" fill="none" xmlns="http://www.w3.org/2000/svg">
<rect width="72" height="72" rx="12" fill="url(#paint0_linear_2_7743)"/>
<path d="M16.1501 12.0917L40.3874 12.0852L40.3924 30.5799L12.3963 30.5874C11.2842 30.5877 10.3778 29.6852 10.3775 28.5696L10.3746 17.8703C10.3737 14.6814 12.9612 12.0926 16.1501 12.0917Z" fill="url(#paint1_radial_2_7743)"/>
<path d="M51.8984 17.8385C51.8975 14.66 49.319 12.0828 46.1404 12.0836L16.1295 12.0917C19.3081 12.0908 21.8866 14.668 21.8875 17.8465L21.8972 54.242C21.8981 57.4206 24.4766 59.9978 27.6552 59.9969L51.9097 59.9904L51.8984 17.8385Z" fill="url(#paint2_radial_2_7743)"/>
<path d="M33.5027 15.5642L25.8892 15.5663C25.6087 15.5663 25.3813 15.7939 25.3814 16.0744C25.3814 16.355 25.6089 16.5824 25.8895 16.5823L33.5029 16.5803C33.7835 16.5802 34.0109 16.3527 34.0108 16.0721C34.0108 15.7915 33.7832 15.5642 33.5027 15.5642Z" fill="#5EEAD4"/>
<path d="M30.1462 17.9233L25.8899 17.9245C25.6093 17.9246 25.3819 18.1521 25.382 18.4326C25.382 18.7132 25.6096 18.9406 25.8901 18.9405L30.1465 18.9394C30.4271 18.9393 30.6545 18.7118 30.6544 18.4312C30.6543 18.1507 30.4268 17.9233 30.1462 17.9233Z" fill="#EFF6FF"/>
<path d="M40.3478 17.9206L31.8831 17.9229C31.6026 17.923 31.3752 18.1505 31.3753 18.4311C31.3753 18.7116 31.6028 18.939 31.8834 18.9389L40.3481 18.9367C40.6287 18.9366 40.8561 18.7091 40.856 18.4285C40.8559 18.1479 40.6284 17.9206 40.3478 17.9206Z" fill="#FCD34D"/>
<path d="M33.511 46.859L25.8975 46.861C25.617 46.8611 25.3896 47.0886 25.3897 47.3692C25.3897 47.6498 25.6172 47.8772 25.8978 47.8771L33.5112 47.875C33.7918 47.875 34.0192 47.6475 34.0191 47.3669C34.0191 47.0863 33.7915 46.8589 33.511 46.859Z" fill="#EFF6FF"/>
<path d="M30.1547 49.218L25.8983 49.2192C25.6177 49.2192 25.3903 49.4467 25.3904 49.7273C25.3905 50.0079 25.618 50.2353 25.8986 50.2352L30.1549 50.2341C30.4355 50.234 30.6629 50.0065 30.6628 49.7259C30.6627 49.4453 30.4352 49.2179 30.1547 49.218Z" fill="#FCD34D"/>
<path d="M40.3562 49.2153L31.8914 49.2175C31.6109 49.2176 31.3835 49.4451 31.3836 49.7257C31.3836 50.0062 31.6111 50.2336 31.8917 50.2336L40.3564 50.2313C40.637 50.2312 40.8644 50.0037 40.8643 49.7231C40.8642 49.4426 40.6367 49.2152 40.3562 49.2153Z" fill="#5EEAD4"/>
<path d="M48.8675 17.9183L42.2769 17.9201C41.9964 17.9202 41.769 18.1477 41.7691 18.4282C41.7691 18.7088 41.9966 18.9362 42.2772 18.9361L48.8677 18.9344C49.1483 18.9343 49.3757 18.7068 49.3756 18.4262C49.3755 18.1456 49.148 17.9183 48.8675 17.9183Z" fill="#EFF6FF"/>
<path d="M27.5108 20.4299L25.8906 20.4303C25.61 20.4304 25.3826 20.6579 25.3827 20.9384C25.3828 21.219 25.6103 21.4464 25.8909 21.4463L27.511 21.4459C27.7916 21.4458 28.019 21.2183 28.0189 20.9377C28.0188 20.6572 27.7913 20.4298 27.5108 20.4299Z" fill="#FCA5A5"/>
<path d="M33.5039 20.4282L29.3608 20.4293C29.0802 20.4294 28.8528 20.6569 28.8529 20.9375C28.853 21.218 29.0805 21.4454 29.3611 21.4453L33.5042 21.4442C33.7848 21.4442 34.0121 21.2167 34.0121 20.9361C34.012 20.6555 33.7845 20.4281 33.5039 20.4282Z" fill="#EFF6FF"/>
<path d="M30.1522 40.1733L25.8958 40.1744C25.6153 40.1745 25.3879 40.402 25.388 40.6826C25.388 40.9631 25.6155 41.1905 25.8961 41.1904L30.1525 41.1893C30.4331 41.1892 30.6604 40.9617 30.6604 40.6811C30.6603 40.4006 30.4328 40.1732 30.1522 40.1733Z" fill="#FCA5A5"/>
<path d="M27.5166 42.6798L25.8964 42.6802C25.6159 42.6803 25.3885 42.9078 25.3886 43.1883C25.3886 43.4689 25.6161 43.6963 25.8967 43.6962L27.5169 43.6958C27.7975 43.6957 28.0248 43.4682 28.0248 43.1876C28.0247 42.9071 27.7972 42.6797 27.5166 42.6798Z" fill="#EFF6FF"/>
<path d="M33.5099 42.6781L29.3668 42.6792C29.0862 42.6793 28.8588 42.9068 28.8589 43.1874C28.859 43.468 29.0865 43.6954 29.3671 43.6953L33.5102 43.6942C33.7907 43.6941 34.0181 43.4666 34.018 43.186C34.018 42.9054 33.7905 42.6781 33.5099 42.6781Z" fill="#5EEAD4"/>
<path d="M46.5752 20.4247L44.0385 20.4254C43.758 20.4255 43.5306 20.653 43.5307 20.9336C43.5307 21.2141 43.7582 21.4415 44.0388 21.4414L46.5755 21.4408C46.856 21.4407 47.0834 21.2132 47.0834 20.9326C47.0833 20.652 46.8558 20.4246 46.5752 20.4247Z" fill="#FCD34D"/>
<path d="M42.003 20.426L35.4124 20.4278C35.1319 20.4278 34.9045 20.6553 34.9046 20.9359C34.9046 21.2165 35.1321 21.4439 35.4127 21.4438L42.0032 21.442C42.2838 21.442 42.5112 21.2144 42.5111 20.9339C42.511 20.6533 42.2835 20.4259 42.003 20.426Z" fill="#5EEAD4"/>
<path d="M27.5133 30.3568L25.8932 30.3572C25.6126 30.3573 25.3852 30.5848 25.3853 30.8654C25.3853 31.146 25.6129 31.3733 25.8934 31.3733L27.5136 31.3728C27.7942 31.3728 28.0216 31.1452 28.0215 30.8647C28.0214 30.5841 27.7939 30.3567 27.5133 30.3568Z" fill="#EFF6FF"/>
<path d="M33.5066 30.3552L29.3635 30.3563C29.0829 30.3564 28.8555 30.5839 28.8556 30.8645C28.8557 31.145 29.0832 31.3724 29.3638 31.3723L33.5069 31.3712C33.7874 31.3712 34.0148 31.1437 34.0148 30.8631C34.0147 30.5825 33.7872 30.3551 33.5066 30.3552Z" fill="#5EEAD4"/>
<path d="M38.5228 34.8643L25.8944 34.8677C25.6138 34.8677 25.3864 35.0952 25.3865 35.3758C25.3866 35.6564 25.6141 35.8838 25.8946 35.8837L38.5231 35.8803C38.8036 35.8802 39.031 35.6527 39.0309 35.3722C39.0309 35.0916 38.8034 34.8642 38.5228 34.8643Z" fill="#EFF6FF"/>
<path d="M28.3494 37.5204L25.8951 37.521C25.6145 37.5211 25.3871 37.7486 25.3872 38.0292C25.3873 38.3097 25.6148 38.5371 25.8954 38.5371L28.3497 38.5364C28.6302 38.5363 28.8576 38.3088 28.8575 38.0282C28.8575 37.7477 28.63 37.5203 28.3494 37.5204Z" fill="#FCD34D"/>
<path d="M61.7012 54.2314C61.7021 57.41 59.1249 59.9885 55.9463 59.9894L27.6517 59.997C30.8302 59.9961 33.4074 57.4176 33.4066 54.239L33.4012 34.1001C33.401 33.3621 33.9981 32.7647 34.7361 32.7645L60.3636 32.7577C61.1016 32.7575 61.699 33.3546 61.6992 34.0926L61.7046 54.2314L61.7012 54.2314Z" fill="url(#paint3_linear_2_7743)"/>
<path d="M45.9717 35.4973L36.9131 35.4997C36.4979 35.4998 36.1615 35.8357 36.1616 36.2499C36.1617 36.6641 36.4983 36.9998 36.9135 36.9997L45.9721 36.9973C46.3872 36.9972 46.7237 36.6613 46.7236 36.2471C46.7235 35.8328 46.3868 35.4971 45.9717 35.4973Z" fill="#80A1FF"/>
<path d="M44.8327 50.9029L37.051 50.905C36.6359 50.9051 36.2994 51.241 36.2995 51.6552C36.2996 52.0695 36.6363 52.4052 37.0515 52.405L44.8331 52.403C45.2482 52.4029 45.5847 52.067 45.5846 51.6527C45.5845 51.2385 45.2478 50.9028 44.8327 50.9029Z" fill="#80A1FF"/>
<path d="M54.0357 39.2847L36.9141 39.2893C36.4989 39.2894 36.1624 39.6253 36.1626 40.0395C36.1627 40.4537 36.4993 40.7894 36.9145 40.7893L54.0361 40.7847C54.4513 40.7846 54.7878 40.4487 54.7877 40.0345C54.7875 39.6203 54.4509 39.2846 54.0357 39.2847Z" fill="#80A1FF"/>
<path d="M57.1841 42.1191L36.9148 42.1245C36.4996 42.1246 36.1632 42.4605 36.1633 42.8747C36.1634 43.289 36.5 43.6247 36.9152 43.6246L57.1845 43.6191C57.5997 43.619 57.9362 43.2831 57.936 42.8689C57.9359 42.4547 57.5993 42.119 57.1841 42.1191Z" fill="#80A1FF"/>
<path d="M50.0658 44.9563L36.9157 44.9599C36.5005 44.96 36.164 45.2958 36.1641 45.7101C36.1643 46.1243 36.5009 46.46 36.9161 46.4599L50.0662 46.4564C50.4814 46.4563 50.8179 46.1204 50.8178 45.7062C50.8177 45.2919 50.481 44.9562 50.0658 44.9563Z" fill="#80A1FF"/>
<path d="M55.5243 47.7902L36.9164 47.7951C36.5012 47.7953 36.1648 48.1311 36.1649 48.5454C36.165 48.9596 36.5016 49.2953 36.9168 49.2952L55.5247 49.2902C55.9399 49.2901 56.2764 48.9542 56.2763 48.54C56.2762 48.1258 55.9395 47.7901 55.5243 47.7902Z" fill="#80A1FF"/>
<path d="M16.5 42.31C16.7386 42.1722 16.7386 41.8278 16.5 41.6907L14.3577 40.4542C13.8877 40.1827 13.4969 39.792 13.2255 39.322L11.989 37.1789C11.8511 36.9404 11.5068 36.9404 11.3696 37.1789L10.1331 39.3212C9.86168 39.7913 9.47094 40.182 9.00091 40.4535L6.8579 41.6907C6.61931 41.8286 6.61931 42.1729 6.8579 42.31L9.00019 43.5465C9.47023 43.818 9.86097 44.2087 10.1324 44.6788L11.3689 46.8211C11.5068 47.0596 11.8511 47.0596 11.9883 46.8211L13.2248 44.6788C13.4962 44.2087 13.887 43.818 14.357 43.5465L16.5 42.31Z" fill="white"/>
<rect x="59.1213" y="16" width="3" height="3" transform="rotate(45 59.1213 16)" fill="white"/>
<rect x="15.1213" y="54" width="3" height="3" transform="rotate(45 15.1213 54)" fill="white"/>
<defs>
<linearGradient id="paint0_linear_2_7743" x1="36" y1="0" x2="36" y2="72" gradientUnits="userSpaceOnUse">
<stop stop-color="#4B7AFF"/>
<stop offset="1" stop-color="#1955FF"/>
</linearGradient>
<radialGradient id="paint1_radial_2_7743" cx="0" cy="0" r="1" gradientUnits="userSpaceOnUse" gradientTransform="translate(27.2397 6.82373) rotate(127.893) scale(32.8612 53.3293)">
<stop stop-color="#80A1FF"/>
<stop offset="1" stop-color="white"/>
</radialGradient>
<radialGradient id="paint2_radial_2_7743" cx="0" cy="0" r="1" gradientUnits="userSpaceOnUse" gradientTransform="translate(43.3161 57.3564) rotate(-116.949) scale(54.6259 74.0179)">
<stop/>
<stop offset="1" stop-color="#1C398B"/>
</radialGradient>
<linearGradient id="paint3_linear_2_7743" x1="51.6192" y1="30.9334" x2="44.379" y2="66.2061" gradientUnits="userSpaceOnUse">
<stop stop-color="white"/>
<stop offset="1" stop-color="#CBD8FF"/>
</linearGradient>
</defs>
</svg>
