<svg width="72" height="72" viewBox="0 0 72 72" fill="none" xmlns="http://www.w3.org/2000/svg">
<g clip-path="url(#clip0_77_98)">
<rect width="72" height="72" rx="12" fill="url(#paint0_linear_77_98)"/>
<path d="M23 23.2571L69.6234 21.2489L77.7432 75.3343L25.3667 78.2061L23 23.2571Z" fill="url(#paint1_linear_77_98)"/>
<path d="M30.8175 21L77.2224 25.936L77.2224 80.6275L25 75.6915L30.8175 21Z" fill="url(#paint2_linear_77_98)"/>
<rect x="15" y="21.6951" width="46.6667" height="55" transform="rotate(-9.49111 15 21.6951)" fill="url(#paint3_linear_77_98)"/>
<rect x="21.7429" y="26.6511" width="1" height="1" transform="rotate(-9.49111 21.7429 26.6511)" fill="#6366F1"/>
<rect x="25.0408" y="46.3773" width="1" height="1" transform="rotate(-9.49111 25.0408 46.3773)" fill="#6366F1"/>
<rect x="23.3918" y="36.5142" width="1" height="1" transform="rotate(-9.49111 23.3918 36.5142)" fill="#6366F1"/>
<rect x="26.6897" y="56.2404" width="1" height="1" transform="rotate(-9.49111 26.6897 56.2404)" fill="#6366F1"/>
<rect x="57.583" y="28.7702" width="1" height="1" transform="rotate(170.509 57.583 28.7702)" fill="#6366F1"/>
<rect x="60.8809" y="48.4964" width="1" height="1" transform="rotate(170.509 60.8809 48.4964)" fill="#6366F1"/>
<rect x="59.2319" y="38.6333" width="1" height="1" transform="rotate(170.509 59.2319 38.6333)" fill="#6366F1"/>
<rect x="24.8667" y="27.1427" width="1" height="1" transform="rotate(-9.49111 24.8667 27.1427)" fill="#6366F1"/>
<rect x="28.1647" y="46.8689" width="1" height="1" transform="rotate(-9.49111 28.1647 46.8689)" fill="#6366F1"/>
<rect x="26.5156" y="37.0058" width="1" height="1" transform="rotate(-9.49111 26.5156 37.0058)" fill="#6366F1"/>
<rect x="29.8136" y="56.732" width="1" height="1" transform="rotate(-9.49111 29.8136 56.732)" fill="#6366F1"/>
<rect x="54.4591" y="28.2786" width="1" height="1" transform="rotate(170.509 54.4591 28.2786)" fill="#6366F1"/>
<rect x="57.757" y="48.0048" width="1" height="1" transform="rotate(170.509 57.757 48.0048)" fill="#6366F1"/>
<rect x="56.108" y="38.1417" width="1" height="1" transform="rotate(170.509 56.108 38.1417)" fill="#6366F1"/>
<rect x="26.8394" y="26.8129" width="1" height="1" transform="rotate(-9.49111 26.8394 26.8129)" fill="#6366F1"/>
<rect x="30.1372" y="46.5391" width="1" height="1" transform="rotate(-9.49111 30.1372 46.5391)" fill="#6366F1"/>
<rect x="28.4883" y="36.676" width="1" height="1" transform="rotate(-9.49111 28.4883 36.676)" fill="#6366F1"/>
<rect x="31.7861" y="56.4022" width="1" height="1" transform="rotate(-9.49111 31.7861 56.4022)" fill="#6366F1"/>
<rect x="52.4865" y="28.6084" width="1" height="1" transform="rotate(170.509 52.4865 28.6084)" fill="#6366F1"/>
<rect x="55.7844" y="48.3346" width="1" height="1" transform="rotate(170.509 55.7844 48.3346)" fill="#6366F1"/>
<rect x="54.1355" y="38.4715" width="1" height="1" transform="rotate(170.509 54.1355 38.4715)" fill="#6366F1"/>
<rect x="33.7435" y="25.6586" width="1" height="1" transform="rotate(-9.49111 33.7435 25.6586)" fill="#6366F1"/>
<rect x="37.0414" y="45.3849" width="1" height="1" transform="rotate(-9.49111 37.0414 45.3849)" fill="#6366F1"/>
<rect x="35.3925" y="35.5217" width="1" height="1" transform="rotate(-9.49111 35.3925 35.5217)" fill="#6366F1"/>
<rect x="38.6903" y="55.248" width="1" height="1" transform="rotate(-9.49111 38.6903 55.248)" fill="#6366F1"/>
<rect x="45.5823" y="29.7626" width="1" height="1" transform="rotate(170.509 45.5823 29.7626)" fill="#6366F1"/>
<rect x="48.8802" y="49.4889" width="1" height="1" transform="rotate(170.509 48.8802 49.4889)" fill="#6366F1"/>
<rect x="47.2313" y="39.6258" width="1" height="1" transform="rotate(170.509 47.2313 39.6258)" fill="#6366F1"/>
<rect x="45.5792" y="23.6799" width="1" height="1" transform="rotate(-9.49111 45.5792 23.6799)" fill="#6366F1"/>
<rect x="48.8772" y="43.4061" width="1" height="1" transform="rotate(-9.49111 48.8772 43.4061)" fill="#6366F1"/>
<rect x="47.2283" y="33.543" width="1" height="1" transform="rotate(-9.49111 47.2283 33.543)" fill="#6366F1"/>
<rect x="33.7466" y="31.7414" width="1" height="1" transform="rotate(170.509 33.7466 31.7414)" fill="#6366F1"/>
<rect x="37.0444" y="51.4676" width="1" height="1" transform="rotate(170.509 37.0444 51.4676)" fill="#6366F1"/>
<rect x="35.3955" y="41.6045" width="1" height="1" transform="rotate(170.509 35.3955 41.6045)" fill="#6366F1"/>
<rect x="47.5519" y="23.3501" width="1" height="1" transform="rotate(-9.49111 47.5519 23.3501)" fill="#6366F1"/>
<rect x="50.8497" y="43.0763" width="1" height="1" transform="rotate(-9.49111 50.8497 43.0763)" fill="#6366F1"/>
<rect x="49.2008" y="33.2132" width="1" height="1" transform="rotate(-9.49111 49.2008 33.2132)" fill="#6366F1"/>
<rect x="31.7739" y="32.0712" width="1" height="1" transform="rotate(170.509 31.7739 32.0712)" fill="#6366F1"/>
<rect x="35.0719" y="51.7974" width="1" height="1" transform="rotate(170.509 35.0719 51.7974)" fill="#6366F1"/>
<rect x="33.4229" y="41.9343" width="1" height="1" transform="rotate(170.509 33.4229 41.9343)" fill="#6366F1"/>
<rect x="28.812" y="26.4831" width="1" height="1" transform="rotate(-9.49111 28.812 26.4831)" fill="#6366F1"/>
<rect x="32.1099" y="46.2093" width="1" height="1" transform="rotate(-9.49111 32.1099 46.2093)" fill="#6366F1"/>
<rect x="30.4609" y="36.3462" width="1" height="1" transform="rotate(-9.49111 30.4609 36.3462)" fill="#6366F1"/>
<rect x="33.7588" y="56.0724" width="1" height="1" transform="rotate(-9.49111 33.7588 56.0724)" fill="#6366F1"/>
<rect x="50.5139" y="28.9382" width="1" height="1" transform="rotate(170.509 50.5139 28.9382)" fill="#6366F1"/>
<rect x="53.8118" y="48.6644" width="1" height="1" transform="rotate(170.509 53.8118 48.6644)" fill="#6366F1"/>
<rect x="52.1628" y="38.8013" width="1" height="1" transform="rotate(170.509 52.1628 38.8013)" fill="#6366F1"/>
<rect x="30.6198" y="25.167" width="1" height="1" transform="rotate(-9.49111 30.6198 25.167)" fill="#6366F1"/>
<rect x="33.9176" y="44.8932" width="1" height="1" transform="rotate(-9.49111 33.9176 44.8932)" fill="#6366F1"/>
<rect x="32.2687" y="35.0301" width="1" height="1" transform="rotate(-9.49111 32.2687 35.0301)" fill="#6366F1"/>
<rect x="35.5665" y="54.7563" width="1" height="1" transform="rotate(-9.49111 35.5665 54.7563)" fill="#6366F1"/>
<rect x="48.7062" y="30.2543" width="1" height="1" transform="rotate(170.509 48.7062 30.2543)" fill="#6366F1"/>
<rect x="52.004" y="49.9805" width="1" height="1" transform="rotate(170.509 52.004 49.9805)" fill="#6366F1"/>
<rect x="50.3551" y="40.1174" width="1" height="1" transform="rotate(170.509 50.3551 40.1174)" fill="#6366F1"/>
<rect x="30.9495" y="27.1396" width="1" height="1" transform="rotate(-9.49111 30.9495 27.1396)" fill="#6366F1"/>
<rect x="34.2474" y="46.8658" width="1" height="1" transform="rotate(-9.49111 34.2474 46.8658)" fill="#6366F1"/>
<rect x="32.5984" y="37.0027" width="1" height="1" transform="rotate(-9.49111 32.5984 37.0027)" fill="#6366F1"/>
<rect x="35.8964" y="56.729" width="1" height="1" transform="rotate(-9.49111 35.8964 56.729)" fill="#6366F1"/>
<rect x="48.3763" y="28.2817" width="1" height="1" transform="rotate(170.509 48.3763 28.2817)" fill="#6366F1"/>
<rect x="51.6742" y="48.0079" width="1" height="1" transform="rotate(170.509 51.6742 48.0079)" fill="#6366F1"/>
<rect x="50.0253" y="38.1448" width="1" height="1" transform="rotate(170.509 50.0253 38.1448)" fill="#6366F1"/>
<rect x="30.7845" y="26.1533" width="1" height="1" transform="rotate(-9.49111 30.7845 26.1533)" fill="#4F46E5"/>
<rect x="34.0825" y="45.8795" width="1" height="1" transform="rotate(-9.49111 34.0825 45.8795)" fill="#4F46E5"/>
<rect x="32.4336" y="36.0164" width="1" height="1" transform="rotate(-9.49111 32.4336 36.0164)" fill="#4F46E5"/>
<rect x="35.7314" y="55.7426" width="1" height="1" transform="rotate(-9.49111 35.7314 55.7426)" fill="#4F46E5"/>
<rect x="48.5413" y="29.268" width="1" height="1" transform="rotate(170.509 48.5413 29.268)" fill="#4F46E5"/>
<rect x="51.8391" y="48.9942" width="1" height="1" transform="rotate(170.509 51.8391 48.9942)" fill="#4F46E5"/>
<rect x="50.1902" y="39.1311" width="1" height="1" transform="rotate(170.509 50.1902 39.1311)" fill="#4F46E5"/>
<rect x="34.7299" y="25.4937" width="1" height="1" transform="rotate(-9.49111 34.7299 25.4937)" fill="#4F46E5"/>
<rect x="38.0277" y="45.22" width="1" height="1" transform="rotate(-9.49111 38.0277 45.22)" fill="#4F46E5"/>
<rect x="36.3788" y="35.3568" width="1" height="1" transform="rotate(-9.49111 36.3788 35.3568)" fill="#4F46E5"/>
<rect x="39.6766" y="55.0831" width="1" height="1" transform="rotate(-9.49111 39.6766 55.0831)" fill="#4F46E5"/>
<rect x="44.5961" y="29.9275" width="1" height="1" transform="rotate(170.509 44.5961 29.9275)" fill="#4F46E5"/>
<rect x="47.8939" y="49.6538" width="1" height="1" transform="rotate(170.509 47.8939 49.6538)" fill="#4F46E5"/>
<rect x="46.245" y="39.7907" width="1" height="1" transform="rotate(170.509 46.245 39.7907)" fill="#4F46E5"/>
<rect x="36.7025" y="25.1639" width="1" height="1" transform="rotate(-9.49111 36.7025 25.1639)" fill="#4F46E5"/>
<rect x="40.0004" y="44.8902" width="1" height="1" transform="rotate(-9.49111 40.0004 44.8902)" fill="#4F46E5"/>
<rect x="38.3514" y="35.0271" width="1" height="1" transform="rotate(-9.49111 38.3514 35.0271)" fill="#4F46E5"/>
<rect x="41.6493" y="54.7533" width="1" height="1" transform="rotate(-9.49111 41.6493 54.7533)" fill="#4F46E5"/>
<rect x="42.6234" y="30.2573" width="1" height="1" transform="rotate(170.509 42.6234 30.2573)" fill="#4F46E5"/>
<rect x="45.9213" y="49.9836" width="1" height="1" transform="rotate(170.509 45.9213 49.9836)" fill="#4F46E5"/>
<rect x="44.2723" y="40.1204" width="1" height="1" transform="rotate(170.509 44.2723 40.1204)" fill="#4F46E5"/>
<rect x="37.8536" y="25.9854" width="1" height="1" transform="rotate(-9.49111 37.8536 25.9854)" fill="#4F46E5"/>
<rect x="41.1516" y="45.7116" width="1" height="1" transform="rotate(-9.49111 41.1516 45.7116)" fill="#4F46E5"/>
<rect x="39.5026" y="35.8485" width="1" height="1" transform="rotate(-9.49111 39.5026 35.8485)" fill="#4F46E5"/>
<rect x="42.8005" y="55.5747" width="1" height="1" transform="rotate(-9.49111 42.8005 55.5747)" fill="#4F46E5"/>
<rect x="41.4722" y="29.4359" width="1" height="1" transform="rotate(170.509 41.4722 29.4359)" fill="#4F46E5"/>
<rect x="44.77" y="49.1621" width="1" height="1" transform="rotate(170.509 44.77 49.1621)" fill="#4F46E5"/>
<rect x="43.1211" y="39.299" width="1" height="1" transform="rotate(170.509 43.1211 39.299)" fill="#4F46E5"/>
<rect x="39.6614" y="24.6693" width="1" height="1" transform="rotate(-9.49111 39.6614 24.6693)" fill="#4F46E5"/>
<rect x="42.9594" y="44.3955" width="1" height="1" transform="rotate(-9.49111 42.9594 44.3955)" fill="#4F46E5"/>
<rect x="41.3103" y="34.5324" width="1" height="1" transform="rotate(-9.49111 41.3103 34.5324)" fill="#4F46E5"/>
<rect x="44.6083" y="54.2586" width="1" height="1" transform="rotate(-9.49111 44.6083 54.2586)" fill="#4F46E5"/>
<rect x="39.6644" y="30.752" width="1" height="1" transform="rotate(170.509 39.6644 30.752)" fill="#4F46E5"/>
<rect x="42.9624" y="50.4782" width="1" height="1" transform="rotate(170.509 42.9624 50.4782)" fill="#4F46E5"/>
<rect x="41.3134" y="40.6151" width="1" height="1" transform="rotate(170.509 41.3134 40.6151)" fill="#4F46E5"/>
<rect x="22.7292" y="26.4862" width="1" height="1" transform="rotate(-9.49111 22.7292 26.4862)" fill="#818CF8"/>
<rect x="26.0271" y="46.2124" width="1" height="1" transform="rotate(-9.49111 26.0271 46.2124)" fill="#818CF8"/>
<rect x="24.3782" y="36.3493" width="1" height="1" transform="rotate(-9.49111 24.3782 36.3493)" fill="#818CF8"/>
<rect x="27.676" y="56.0755" width="1" height="1" transform="rotate(-9.49111 27.676 56.0755)" fill="#818CF8"/>
<rect x="56.5967" y="28.9351" width="1" height="1" transform="rotate(170.509 56.5967 28.9351)" fill="#818CF8"/>
<rect x="59.8945" y="48.6613" width="1" height="1" transform="rotate(170.509 59.8945 48.6613)" fill="#818CF8"/>
<rect x="58.2456" y="38.7982" width="1" height="1" transform="rotate(170.509 58.2456 38.7982)" fill="#818CF8"/>
<rect x="25.0316" y="28.129" width="1" height="1" transform="rotate(-9.49111 25.0316 28.129)" fill="#818CF8"/>
<rect x="28.3295" y="47.8552" width="1" height="1" transform="rotate(-9.49111 28.3295 47.8552)" fill="#818CF8"/>
<rect x="26.6805" y="37.9921" width="1" height="1" transform="rotate(-9.49111 26.6805 37.9921)" fill="#818CF8"/>
<rect x="29.9785" y="57.7183" width="1" height="1" transform="rotate(-9.49111 29.9785 57.7183)" fill="#818CF8"/>
<rect x="54.2942" y="27.2923" width="1" height="1" transform="rotate(170.509 54.2942 27.2923)" fill="#818CF8"/>
<rect x="57.5922" y="47.0185" width="1" height="1" transform="rotate(170.509 57.5922 47.0185)" fill="#818CF8"/>
<rect x="55.9432" y="37.1554" width="1" height="1" transform="rotate(170.509 55.9432 37.1554)" fill="#818CF8"/>
<rect x="27.0043" y="27.7992" width="1" height="1" transform="rotate(-9.49111 27.0043 27.7992)" fill="#818CF8"/>
<rect x="30.3021" y="47.5254" width="1" height="1" transform="rotate(-9.49111 30.3021 47.5254)" fill="#818CF8"/>
<rect x="28.6532" y="37.6623" width="1" height="1" transform="rotate(-9.49111 28.6532 37.6623)" fill="#818CF8"/>
<rect x="31.951" y="57.3885" width="1" height="1" transform="rotate(-9.49111 31.951 57.3885)" fill="#818CF8"/>
<rect x="52.3217" y="27.6221" width="1" height="1" transform="rotate(170.509 52.3217 27.6221)" fill="#818CF8"/>
<rect x="55.6195" y="47.3483" width="1" height="1" transform="rotate(170.509 55.6195 47.3483)" fill="#818CF8"/>
<rect x="53.9706" y="37.4852" width="1" height="1" transform="rotate(170.509 53.9706 37.4852)" fill="#818CF8"/>
<rect x="33.9084" y="26.6449" width="1" height="1" transform="rotate(-9.49111 33.9084 26.6449)" fill="#818CF8"/>
<rect x="37.2063" y="46.3712" width="1" height="1" transform="rotate(-9.49111 37.2063 46.3712)" fill="#818CF8"/>
<rect x="35.5574" y="36.5081" width="1" height="1" transform="rotate(-9.49111 35.5574 36.5081)" fill="#818CF8"/>
<rect x="38.8552" y="56.2343" width="1" height="1" transform="rotate(-9.49111 38.8552 56.2343)" fill="#818CF8"/>
<rect x="45.4175" y="28.7763" width="1" height="1" transform="rotate(170.509 45.4175 28.7763)" fill="#818CF8"/>
<rect x="48.7153" y="48.5026" width="1" height="1" transform="rotate(170.509 48.7153 48.5026)" fill="#818CF8"/>
<rect x="47.0664" y="38.6395" width="1" height="1" transform="rotate(170.509 47.0664 38.6395)" fill="#818CF8"/>
<rect x="45.7441" y="24.6662" width="1" height="1" transform="rotate(-9.49111 45.7441 24.6662)" fill="#818CF8"/>
<rect x="49.0421" y="44.3924" width="1" height="1" transform="rotate(-9.49111 49.0421 44.3924)" fill="#818CF8"/>
<rect x="47.3931" y="34.5293" width="1" height="1" transform="rotate(-9.49111 47.3931 34.5293)" fill="#818CF8"/>
<rect x="33.5817" y="30.7551" width="1" height="1" transform="rotate(170.509 33.5817 30.7551)" fill="#818CF8"/>
<rect x="36.8796" y="50.4813" width="1" height="1" transform="rotate(170.509 36.8796 50.4813)" fill="#818CF8"/>
<rect x="35.2306" y="40.6182" width="1" height="1" transform="rotate(170.509 35.2306 40.6182)" fill="#818CF8"/>
<rect x="47.7168" y="24.3364" width="1" height="1" transform="rotate(-9.49111 47.7168 24.3364)" fill="#818CF8"/>
<rect x="51.0146" y="44.0626" width="1" height="1" transform="rotate(-9.49111 51.0146 44.0626)" fill="#818CF8"/>
<rect x="49.3657" y="34.1995" width="1" height="1" transform="rotate(-9.49111 49.3657 34.1995)" fill="#818CF8"/>
<rect x="31.6091" y="31.0849" width="1" height="1" transform="rotate(170.509 31.6091 31.0849)" fill="#818CF8"/>
<rect x="34.907" y="50.8111" width="1" height="1" transform="rotate(170.509 34.907 50.8111)" fill="#818CF8"/>
<rect x="33.2581" y="40.948" width="1" height="1" transform="rotate(170.509 33.2581 40.948)" fill="#818CF8"/>
<rect x="26.6744" y="25.8266" width="1" height="1" transform="rotate(-9.49111 26.6744 25.8266)" fill="#818CF8"/>
<rect x="29.9723" y="45.5528" width="1" height="1" transform="rotate(-9.49111 29.9723 45.5528)" fill="#818CF8"/>
<rect x="28.3234" y="35.6897" width="1" height="1" transform="rotate(-9.49111 28.3234 35.6897)" fill="#818CF8"/>
<rect x="31.6213" y="55.4159" width="1" height="1" transform="rotate(-9.49111 31.6213 55.4159)" fill="#818CF8"/>
<rect x="52.6514" y="29.5947" width="1" height="1" transform="rotate(170.509 52.6514 29.5947)" fill="#818CF8"/>
<rect x="55.9493" y="49.3209" width="1" height="1" transform="rotate(170.509 55.9493 49.3209)" fill="#818CF8"/>
<rect x="54.3003" y="39.4578" width="1" height="1" transform="rotate(170.509 54.3003 39.4578)" fill="#818CF8"/>
<rect x="33.5786" y="24.6723" width="1" height="1" transform="rotate(-9.49111 33.5786 24.6723)" fill="#818CF8"/>
<rect x="36.8766" y="44.3985" width="1" height="1" transform="rotate(-9.49111 36.8766 44.3985)" fill="#818CF8"/>
<rect x="35.2275" y="34.5354" width="1" height="1" transform="rotate(-9.49111 35.2275 34.5354)" fill="#818CF8"/>
<rect x="38.5255" y="54.2617" width="1" height="1" transform="rotate(-9.49111 38.5255 54.2617)" fill="#818CF8"/>
<rect x="45.7472" y="30.749" width="1" height="1" transform="rotate(170.509 45.7472 30.749)" fill="#818CF8"/>
<rect x="49.0452" y="50.4752" width="1" height="1" transform="rotate(170.509 49.0452 50.4752)" fill="#818CF8"/>
<rect x="47.3961" y="40.6121" width="1" height="1" transform="rotate(170.509 47.3961 40.6121)" fill="#818CF8"/>
<rect x="45.4144" y="22.6936" width="1" height="1" transform="rotate(-9.49111 45.4144 22.6936)" fill="#818CF8"/>
<rect x="48.7123" y="42.4198" width="1" height="1" transform="rotate(-9.49111 48.7123 42.4198)" fill="#818CF8"/>
<rect x="47.0634" y="32.5567" width="1" height="1" transform="rotate(-9.49111 47.0634 32.5567)" fill="#818CF8"/>
<rect x="33.9115" y="32.7277" width="1" height="1" transform="rotate(170.509 33.9115 32.7277)" fill="#818CF8"/>
<rect x="37.2094" y="52.4539" width="1" height="1" transform="rotate(170.509 37.2094 52.4539)" fill="#818CF8"/>
<rect x="35.5604" y="42.5908" width="1" height="1" transform="rotate(170.509 35.5604 42.5908)" fill="#818CF8"/>
<rect x="47.387" y="22.3638" width="1" height="1" transform="rotate(-9.49111 47.387 22.3638)" fill="#818CF8"/>
<rect x="50.6849" y="42.09" width="1" height="1" transform="rotate(-9.49111 50.6849 42.09)" fill="#818CF8"/>
<rect x="49.0359" y="32.2269" width="1" height="1" transform="rotate(-9.49111 49.0359 32.2269)" fill="#818CF8"/>
<rect x="31.9388" y="33.0575" width="1" height="1" transform="rotate(170.509 31.9388 33.0575)" fill="#818CF8"/>
<rect x="35.2367" y="52.7837" width="1" height="1" transform="rotate(170.509 35.2367 52.7837)" fill="#818CF8"/>
<rect x="33.5878" y="42.9206" width="1" height="1" transform="rotate(170.509 33.5878 42.9206)" fill="#818CF8"/>
<rect x="35.8811" y="26.3152" width="1" height="1" transform="rotate(-9.49111 35.8811 26.3152)" fill="#818CF8"/>
<rect x="39.179" y="46.0414" width="1" height="1" transform="rotate(-9.49111 39.179 46.0414)" fill="#818CF8"/>
<rect x="37.53" y="36.1783" width="1" height="1" transform="rotate(-9.49111 37.53 36.1783)" fill="#818CF8"/>
<rect x="40.8279" y="55.9045" width="1" height="1" transform="rotate(-9.49111 40.8279 55.9045)" fill="#818CF8"/>
<rect x="43.4448" y="29.1061" width="1" height="1" transform="rotate(170.509 43.4448 29.1061)" fill="#818CF8"/>
<rect x="46.7427" y="48.8324" width="1" height="1" transform="rotate(170.509 46.7427 48.8324)" fill="#818CF8"/>
<rect x="45.0938" y="38.9692" width="1" height="1" transform="rotate(170.509 45.0938 38.9692)" fill="#818CF8"/>
<rect x="37.5239" y="24.0127" width="1" height="1" transform="rotate(-9.49111 37.5239 24.0127)" fill="#818CF8"/>
<rect x="40.8218" y="43.739" width="1" height="1" transform="rotate(-9.49111 40.8218 43.739)" fill="#818CF8"/>
<rect x="39.1729" y="33.8759" width="1" height="1" transform="rotate(-9.49111 39.1729 33.8759)" fill="#818CF8"/>
<rect x="42.4707" y="53.6021" width="1" height="1" transform="rotate(-9.49111 42.4707 53.6021)" fill="#818CF8"/>
<rect x="41.802" y="31.4085" width="1" height="1" transform="rotate(170.509 41.802 31.4085)" fill="#818CF8"/>
<rect x="45.0999" y="51.1348" width="1" height="1" transform="rotate(170.509 45.0999 51.1348)" fill="#818CF8"/>
<rect x="43.4509" y="41.2717" width="1" height="1" transform="rotate(170.509 43.4509 41.2717)" fill="#818CF8"/>
<rect x="38.675" y="24.8342" width="1" height="1" transform="rotate(-9.49111 38.675 24.8342)" fill="#818CF8"/>
<rect x="41.973" y="44.5604" width="1" height="1" transform="rotate(-9.49111 41.973 44.5604)" fill="#818CF8"/>
<rect x="40.3241" y="34.6973" width="1" height="1" transform="rotate(-9.49111 40.3241 34.6973)" fill="#818CF8"/>
<rect x="43.6219" y="54.4235" width="1" height="1" transform="rotate(-9.49111 43.6219 54.4235)" fill="#818CF8"/>
<rect x="40.6508" y="30.5871" width="1" height="1" transform="rotate(170.509 40.6508 30.5871)" fill="#818CF8"/>
<rect x="43.9486" y="50.3133" width="1" height="1" transform="rotate(170.509 43.9486 50.3133)" fill="#818CF8"/>
<rect x="42.2997" y="40.4502" width="1" height="1" transform="rotate(170.509 42.2997 40.4502)" fill="#818CF8"/>
<rect x="46.5656" y="23.515" width="1" height="1" transform="rotate(-9.49111 46.5656 23.515)" fill="#818CF8"/>
<rect x="49.8635" y="43.2412" width="1" height="1" transform="rotate(-9.49111 49.8635 43.2412)" fill="#818CF8"/>
<rect x="48.2145" y="33.3781" width="1" height="1" transform="rotate(-9.49111 48.2145 33.3781)" fill="#818CF8"/>
<rect x="32.7603" y="31.9063" width="1" height="1" transform="rotate(170.509 32.7603 31.9063)" fill="#818CF8"/>
<rect x="36.0582" y="51.6325" width="1" height="1" transform="rotate(170.509 36.0582 51.6325)" fill="#818CF8"/>
<rect x="34.4092" y="41.7694" width="1" height="1" transform="rotate(170.509 34.4092 41.7694)" fill="#818CF8"/>
<rect x="49.5245" y="23.0203" width="1" height="1" transform="rotate(-9.49111 49.5245 23.0203)" fill="#818CF8"/>
<rect x="52.8224" y="42.7465" width="1" height="1" transform="rotate(-9.49111 52.8224 42.7465)" fill="#818CF8"/>
<rect x="51.1735" y="32.8834" width="1" height="1" transform="rotate(-9.49111 51.1735 32.8834)" fill="#818CF8"/>
<rect x="29.8014" y="32.401" width="1" height="1" transform="rotate(170.509 29.8014 32.401)" fill="#818CF8"/>
<rect x="33.0992" y="52.1272" width="1" height="1" transform="rotate(170.509 33.0992 52.1272)" fill="#818CF8"/>
<rect x="31.4503" y="42.2641" width="1" height="1" transform="rotate(170.509 31.4503 42.2641)" fill="#818CF8"/>
<rect x="50.3459" y="21.8691" width="1" height="1" transform="rotate(-9.49111 50.3459 21.8691)" fill="#818CF8"/>
<rect x="53.6438" y="41.5953" width="1" height="1" transform="rotate(-9.49111 53.6438 41.5953)" fill="#818CF8"/>
<rect x="51.9949" y="31.7322" width="1" height="1" transform="rotate(-9.49111 51.9949 31.7322)" fill="#818CF8"/>
<rect x="28.98" y="33.5522" width="1" height="1" transform="rotate(170.509 28.98 33.5522)" fill="#818CF8"/>
<rect x="32.2778" y="53.2784" width="1" height="1" transform="rotate(170.509 32.2778 53.2784)" fill="#818CF8"/>
<rect x="30.6289" y="43.4153" width="1" height="1" transform="rotate(170.509 30.6289 43.4153)" fill="#818CF8"/>
<rect x="51.662" y="23.6768" width="1" height="1" transform="rotate(-9.49111 51.662 23.6768)" fill="#A5B4FC"/>
<rect x="54.96" y="43.4031" width="1" height="1" transform="rotate(-9.49111 54.96 43.4031)" fill="#A5B4FC"/>
<rect x="53.3109" y="33.5399" width="1" height="1" transform="rotate(-9.49111 53.3109 33.5399)" fill="#A5B4FC"/>
<rect x="27.6638" y="31.7444" width="1" height="1" transform="rotate(170.509 27.6638 31.7444)" fill="#A5B4FC"/>
<rect x="30.9617" y="51.4707" width="1" height="1" transform="rotate(170.509 30.9617 51.4707)" fill="#A5B4FC"/>
<rect x="29.3127" y="41.6076" width="1" height="1" transform="rotate(170.509 29.3127 41.6076)" fill="#A5B4FC"/>
<rect x="50.6757" y="23.8417" width="1" height="1" transform="rotate(-9.49111 50.6757 23.8417)" fill="#818CF8"/>
<rect x="53.9736" y="43.568" width="1" height="1" transform="rotate(-9.49111 53.9736 43.568)" fill="#818CF8"/>
<rect x="52.3247" y="33.7048" width="1" height="1" transform="rotate(-9.49111 52.3247 33.7048)" fill="#818CF8"/>
<rect x="28.6501" y="31.5795" width="1" height="1" transform="rotate(170.509 28.6501 31.5795)" fill="#818CF8"/>
<rect x="31.948" y="51.3058" width="1" height="1" transform="rotate(170.509 31.948 51.3058)" fill="#818CF8"/>
<rect x="30.2991" y="41.4427" width="1" height="1" transform="rotate(170.509 30.2991 41.4427)" fill="#818CF8"/>
<rect x="51.4972" y="22.6905" width="1" height="1" transform="rotate(-9.49111 51.4972 22.6905)" fill="#818CF8"/>
<rect x="54.795" y="42.4168" width="1" height="1" transform="rotate(-9.49111 54.795 42.4168)" fill="#818CF8"/>
<rect x="53.1461" y="32.5536" width="1" height="1" transform="rotate(-9.49111 53.1461 32.5536)" fill="#818CF8"/>
<rect x="27.8287" y="32.7308" width="1" height="1" transform="rotate(170.509 27.8287 32.7308)" fill="#818CF8"/>
<rect x="31.1266" y="52.457" width="1" height="1" transform="rotate(170.509 31.1266 52.457)" fill="#818CF8"/>
<rect x="29.4777" y="42.5939" width="1" height="1" transform="rotate(170.509 29.4777 42.5939)" fill="#818CF8"/>
<rect x="55.6073" y="23.0173" width="1" height="1" transform="rotate(-9.49111 55.6073 23.0173)" fill="#818CF8"/>
<rect x="58.9052" y="42.7435" width="1" height="1" transform="rotate(-9.49111 58.9052 42.7435)" fill="#818CF8"/>
<rect x="57.2562" y="32.8804" width="1" height="1" transform="rotate(-9.49111 57.2562 32.8804)" fill="#818CF8"/>
<rect x="23.7186" y="32.404" width="1" height="1" transform="rotate(170.509 23.7186 32.404)" fill="#818CF8"/>
<rect x="27.0165" y="52.1302" width="1" height="1" transform="rotate(170.509 27.0165 52.1302)" fill="#818CF8"/>
<rect x="25.3676" y="42.2671" width="1" height="1" transform="rotate(170.509 25.3676 42.2671)" fill="#818CF8"/>
<rect x="55.4424" y="22.031" width="1" height="1" transform="rotate(-9.49111 55.4424 22.031)" fill="#A5B4FC"/>
<rect x="58.7402" y="41.7572" width="1" height="1" transform="rotate(-9.49111 58.7402 41.7572)" fill="#A5B4FC"/>
<rect x="57.0913" y="31.8941" width="1" height="1" transform="rotate(-9.49111 57.0913 31.8941)" fill="#A5B4FC"/>
<rect x="23.8834" y="33.3903" width="1" height="1" transform="rotate(170.509 23.8834 33.3903)" fill="#A5B4FC"/>
<rect x="27.1814" y="53.1166" width="1" height="1" transform="rotate(170.509 27.1814 53.1166)" fill="#A5B4FC"/>
<rect x="25.5325" y="43.2534" width="1" height="1" transform="rotate(170.509 25.5325 43.2534)" fill="#A5B4FC"/>
<rect x="54.621" y="23.1822" width="1" height="1" transform="rotate(-9.49111 54.621 23.1822)" fill="#A5B4FC"/>
<rect x="57.9188" y="42.9084" width="1" height="1" transform="rotate(-9.49111 57.9188 42.9084)" fill="#A5B4FC"/>
<rect x="56.2699" y="33.0453" width="1" height="1" transform="rotate(-9.49111 56.2699 33.0453)" fill="#A5B4FC"/>
<rect x="24.7048" y="32.2391" width="1" height="1" transform="rotate(170.509 24.7048 32.2391)" fill="#A5B4FC"/>
<rect x="28.0028" y="51.9654" width="1" height="1" transform="rotate(170.509 28.0028 51.9654)" fill="#A5B4FC"/>
<rect x="26.3539" y="42.1022" width="1" height="1" transform="rotate(170.509 26.3539 42.1022)" fill="#A5B4FC"/>
<path fill-rule="evenodd" clip-rule="evenodd" d="M56.4286 21.8661L56.2637 20.8797L53.3048 21.3744L53.3048 21.3744L53.4697 22.3607L53.7995 24.3334L54.7858 24.1685L54.456 22.1958L56.4286 21.8661Z" fill="#818CF8"/>
<path fill-rule="evenodd" clip-rule="evenodd" d="M59.7266 41.5923L59.5617 40.606L56.6028 41.1007L56.6028 41.1007L56.7677 42.087L57.0975 44.0596L58.0838 43.8947L57.754 41.9221L59.7266 41.5923Z" fill="#818CF8"/>
<path fill-rule="evenodd" clip-rule="evenodd" d="M58.0777 31.7292L57.9128 30.7429L54.9539 31.2375L54.9539 31.2375L55.1188 32.2239L55.4485 34.1965L56.4349 34.0316L56.1051 32.059L58.0777 31.7292Z" fill="#818CF8"/>
<path fill-rule="evenodd" clip-rule="evenodd" d="M25.0347 34.2117L26.021 34.0469L26.021 34.0468L25.8561 33.0605L25.5263 31.0879L24.54 31.2528L24.8698 33.2254L22.8972 33.5552L23.0621 34.5415L25.0347 34.2117L25.0347 34.2117Z" fill="#818CF8"/>
<path fill-rule="evenodd" clip-rule="evenodd" d="M26.195 53.2814L26.3599 54.2678L29.3188 53.7731L29.3188 53.7731L29.154 52.7868L28.8242 50.8141L27.8379 50.979L28.1676 52.9517L26.195 53.2814Z" fill="#818CF8"/>
<path fill-rule="evenodd" clip-rule="evenodd" d="M26.6836 44.0749L27.6699 43.91L27.505 42.9237L27.1752 40.951L26.1889 41.1159L26.5187 43.0885L24.5461 43.4183L24.711 44.4046L26.6836 44.0749Z" fill="#818CF8"/>
<rect x="51.3323" y="21.7042" width="1" height="1" transform="rotate(-9.49111 51.3323 21.7042)" fill="#6366F1"/>
<rect x="54.6301" y="41.4304" width="1" height="1" transform="rotate(-9.49111 54.6301 41.4304)" fill="#6366F1"/>
<rect x="52.9812" y="31.5673" width="1" height="1" transform="rotate(-9.49111 52.9812 31.5673)" fill="#6366F1"/>
<rect x="27.9937" y="33.7171" width="1" height="1" transform="rotate(170.509 27.9937 33.7171)" fill="#6366F1"/>
<rect x="31.2915" y="53.4433" width="1" height="1" transform="rotate(170.509 31.2915 53.4433)" fill="#6366F1"/>
<rect x="29.6426" y="43.5802" width="1" height="1" transform="rotate(170.509 29.6426 43.5802)" fill="#6366F1"/>
<rect x="52.4834" y="22.5256" width="1" height="1" transform="rotate(-9.49111 52.4834 22.5256)" fill="#6366F1"/>
<rect x="55.7814" y="42.2519" width="1" height="1" transform="rotate(-9.49111 55.7814 42.2519)" fill="#6366F1"/>
<rect x="54.1324" y="32.3887" width="1" height="1" transform="rotate(-9.49111 54.1324 32.3887)" fill="#6366F1"/>
<rect x="26.8424" y="32.8956" width="1" height="1" transform="rotate(170.509 26.8424 32.8956)" fill="#6366F1"/>
<rect x="30.1403" y="52.6219" width="1" height="1" transform="rotate(170.509 30.1403 52.6219)" fill="#6366F1"/>
<rect x="28.4913" y="42.7588" width="1" height="1" transform="rotate(170.509 28.4913 42.7588)" fill="#6366F1"/>
<rect x="54.4561" y="22.1958" width="1" height="1" transform="rotate(-9.49111 54.4561 22.1958)" fill="#6366F1"/>
<rect x="57.7539" y="41.9221" width="1" height="1" transform="rotate(-9.49111 57.7539 41.9221)" fill="#6366F1"/>
<rect x="56.105" y="32.059" width="1" height="1" transform="rotate(-9.49111 56.105 32.059)" fill="#6366F1"/>
<rect x="24.8698" y="33.2254" width="1" height="1" transform="rotate(170.509 24.8698 33.2254)" fill="#6366F1"/>
<rect x="28.1677" y="52.9517" width="1" height="1" transform="rotate(170.509 28.1677 52.9517)" fill="#6366F1"/>
<rect x="26.5187" y="43.0885" width="1" height="1" transform="rotate(170.509 26.5187 43.0885)" fill="#6366F1"/>
<rect x="48.5382" y="23.1852" width="1" height="1" transform="rotate(-9.49111 48.5382 23.1852)" fill="#A5B4FC"/>
<rect x="51.8361" y="42.9114" width="1" height="1" transform="rotate(-9.49111 51.8361 42.9114)" fill="#A5B4FC"/>
<rect x="50.1871" y="33.0483" width="1" height="1" transform="rotate(-9.49111 50.1871 33.0483)" fill="#A5B4FC"/>
<rect x="30.7876" y="32.2361" width="1" height="1" transform="rotate(170.509 30.7876 32.2361)" fill="#A5B4FC"/>
<rect x="34.0856" y="51.9623" width="1" height="1" transform="rotate(170.509 34.0856 51.9623)" fill="#A5B4FC"/>
<rect x="32.4366" y="42.0992" width="1" height="1" transform="rotate(170.509 32.4366 42.0992)" fill="#A5B4FC"/>
<rect x="49.3596" y="22.034" width="1" height="1" transform="rotate(-9.49111 49.3596 22.034)" fill="#A5B4FC"/>
<rect x="52.6575" y="41.7602" width="1" height="1" transform="rotate(-9.49111 52.6575 41.7602)" fill="#A5B4FC"/>
<rect x="51.0085" y="31.8971" width="1" height="1" transform="rotate(-9.49111 51.0085 31.8971)" fill="#A5B4FC"/>
<rect x="29.9662" y="33.3873" width="1" height="1" transform="rotate(170.509 29.9662 33.3873)" fill="#A5B4FC"/>
<rect x="33.2642" y="53.1135" width="1" height="1" transform="rotate(170.509 33.2642 53.1135)" fill="#A5B4FC"/>
<rect x="31.6152" y="43.2504" width="1" height="1" transform="rotate(170.509 31.6152 43.2504)" fill="#A5B4FC"/>
<rect x="49.6895" y="24.0066" width="1" height="1" transform="rotate(-9.49111 49.6895 24.0066)" fill="#A5B4FC"/>
<rect x="52.9873" y="43.7329" width="1" height="1" transform="rotate(-9.49111 52.9873 43.7329)" fill="#A5B4FC"/>
<rect x="51.3384" y="33.8697" width="1" height="1" transform="rotate(-9.49111 51.3384 33.8697)" fill="#A5B4FC"/>
<rect x="29.6365" y="31.4146" width="1" height="1" transform="rotate(170.509 29.6365 31.4146)" fill="#A5B4FC"/>
<rect x="32.9343" y="51.1409" width="1" height="1" transform="rotate(170.509 32.9343 51.1409)" fill="#A5B4FC"/>
<rect x="31.2854" y="41.2778" width="1" height="1" transform="rotate(170.509 31.2854 41.2778)" fill="#A5B4FC"/>
<rect x="21.9078" y="27.6374" width="1" height="1" transform="rotate(-9.49111 21.9078 27.6374)" fill="#818CF8"/>
<rect x="25.2057" y="47.3636" width="1" height="1" transform="rotate(-9.49111 25.2057 47.3636)" fill="#818CF8"/>
<rect x="23.5568" y="37.5005" width="1" height="1" transform="rotate(-9.49111 23.5568 37.5005)" fill="#818CF8"/>
<rect x="26.8546" y="57.2267" width="1" height="1" transform="rotate(-9.49111 26.8546 57.2267)" fill="#818CF8"/>
<rect x="57.4181" y="27.7839" width="1" height="1" transform="rotate(170.509 57.4181 27.7839)" fill="#818CF8"/>
<rect x="60.7159" y="47.5101" width="1" height="1" transform="rotate(170.509 60.7159 47.5101)" fill="#818CF8"/>
<rect x="59.067" y="37.647" width="1" height="1" transform="rotate(170.509 59.067 37.647)" fill="#818CF8"/>
<rect x="22.8942" y="27.4725" width="1" height="1" transform="rotate(-9.49111 22.8942 27.4725)" fill="#A5B4FC"/>
<rect x="26.192" y="47.1987" width="1" height="1" transform="rotate(-9.49111 26.192 47.1987)" fill="#A5B4FC"/>
<rect x="24.5431" y="37.3356" width="1" height="1" transform="rotate(-9.49111 24.5431 37.3356)" fill="#A5B4FC"/>
<rect x="27.8409" y="57.0618" width="1" height="1" transform="rotate(-9.49111 27.8409 57.0618)" fill="#A5B4FC"/>
<rect x="56.4318" y="27.9488" width="1" height="1" transform="rotate(170.509 56.4318 27.9488)" fill="#A5B4FC"/>
<rect x="59.7296" y="47.675" width="1" height="1" transform="rotate(170.509 59.7296 47.675)" fill="#A5B4FC"/>
<rect x="58.0807" y="37.8119" width="1" height="1" transform="rotate(170.509 58.0807 37.8119)" fill="#A5B4FC"/>
<rect x="23.7156" y="26.3213" width="1" height="1" transform="rotate(-9.49111 23.7156 26.3213)" fill="#A5B4FC"/>
<rect x="27.0134" y="46.0475" width="1" height="1" transform="rotate(-9.49111 27.0134 46.0475)" fill="#A5B4FC"/>
<rect x="25.3645" y="36.1844" width="1" height="1" transform="rotate(-9.49111 25.3645 36.1844)" fill="#A5B4FC"/>
<rect x="28.6624" y="55.9106" width="1" height="1" transform="rotate(-9.49111 28.6624 55.9106)" fill="#A5B4FC"/>
<rect x="55.6104" y="29.1" width="1" height="1" transform="rotate(170.509 55.6104 29.1)" fill="#A5B4FC"/>
<rect x="58.9082" y="48.8262" width="1" height="1" transform="rotate(170.509 58.9082 48.8262)" fill="#A5B4FC"/>
<rect x="57.2593" y="38.9631" width="1" height="1" transform="rotate(170.509 57.2593 38.9631)" fill="#A5B4FC"/>
<rect x="28.6471" y="25.4968" width="1" height="1" transform="rotate(-9.49111 28.6471 25.4968)" fill="#A5B4FC"/>
<rect x="31.9449" y="45.223" width="1" height="1" transform="rotate(-9.49111 31.9449 45.223)" fill="#A5B4FC"/>
<rect x="30.296" y="35.3599" width="1" height="1" transform="rotate(-9.49111 30.296 35.3599)" fill="#A5B4FC"/>
<rect x="33.5939" y="55.0861" width="1" height="1" transform="rotate(-9.49111 33.5939 55.0861)" fill="#A5B4FC"/>
<rect x="50.6788" y="29.9245" width="1" height="1" transform="rotate(170.509 50.6788 29.9245)" fill="#A5B4FC"/>
<rect x="53.9767" y="49.6507" width="1" height="1" transform="rotate(170.509 53.9767 49.6507)" fill="#A5B4FC"/>
<rect x="52.3278" y="39.7876" width="1" height="1" transform="rotate(170.509 52.3278 39.7876)" fill="#A5B4FC"/>
<rect x="28.9769" y="27.4694" width="1" height="1" transform="rotate(-9.49111 28.9769 27.4694)" fill="#A5B4FC"/>
<rect x="32.2748" y="47.1956" width="1" height="1" transform="rotate(-9.49111 32.2748 47.1956)" fill="#A5B4FC"/>
<rect x="30.6259" y="37.3325" width="1" height="1" transform="rotate(-9.49111 30.6259 37.3325)" fill="#A5B4FC"/>
<rect x="33.9237" y="57.0588" width="1" height="1" transform="rotate(-9.49111 33.9237 57.0588)" fill="#A5B4FC"/>
<rect x="50.349" y="27.9519" width="1" height="1" transform="rotate(170.509 50.349 27.9519)" fill="#A5B4FC"/>
<rect x="53.6469" y="47.6781" width="1" height="1" transform="rotate(170.509 53.6469 47.6781)" fill="#A5B4FC"/>
<rect x="51.9979" y="37.815" width="1" height="1" transform="rotate(170.509 51.9979 37.815)" fill="#A5B4FC"/>
<rect x="29.7983" y="26.3182" width="1" height="1" transform="rotate(-9.49111 29.7983 26.3182)" fill="#A5B4FC"/>
<rect x="33.0962" y="46.0444" width="1" height="1" transform="rotate(-9.49111 33.0962 46.0444)" fill="#A5B4FC"/>
<rect x="31.4473" y="36.1813" width="1" height="1" transform="rotate(-9.49111 31.4473 36.1813)" fill="#A5B4FC"/>
<rect x="34.7451" y="55.9075" width="1" height="1" transform="rotate(-9.49111 34.7451 55.9075)" fill="#A5B4FC"/>
<rect x="49.5276" y="29.1031" width="1" height="1" transform="rotate(170.509 49.5276 29.1031)" fill="#A5B4FC"/>
<rect x="52.8254" y="48.8293" width="1" height="1" transform="rotate(170.509 52.8254 48.8293)" fill="#A5B4FC"/>
<rect x="51.1765" y="38.9662" width="1" height="1" transform="rotate(170.509 51.1765 38.9662)" fill="#A5B4FC"/>
<rect x="32.7572" y="25.8235" width="1" height="1" transform="rotate(-9.49111 32.7572 25.8235)" fill="#A5B4FC"/>
<rect x="36.0551" y="45.5497" width="1" height="1" transform="rotate(-9.49111 36.0551 45.5497)" fill="#A5B4FC"/>
<rect x="34.4061" y="35.6866" width="1" height="1" transform="rotate(-9.49111 34.4061 35.6866)" fill="#A5B4FC"/>
<rect x="37.7041" y="55.4129" width="1" height="1" transform="rotate(-9.49111 37.7041 55.4129)" fill="#A5B4FC"/>
<rect x="46.5686" y="29.5978" width="1" height="1" transform="rotate(170.509 46.5686 29.5978)" fill="#A5B4FC"/>
<rect x="49.8666" y="49.324" width="1" height="1" transform="rotate(170.509 49.8666 49.324)" fill="#A5B4FC"/>
<rect x="48.2175" y="39.4609" width="1" height="1" transform="rotate(170.509 48.2175 39.4609)" fill="#A5B4FC"/>
<rect x="40.4828" y="23.5181" width="1" height="1" transform="rotate(-9.49111 40.4828 23.5181)" fill="#C7D2FE"/>
<rect x="43.7808" y="43.2443" width="1" height="1" transform="rotate(-9.49111 43.7808 43.2443)" fill="#C7D2FE"/>
<rect x="42.1317" y="33.3812" width="1" height="1" transform="rotate(-9.49111 42.1317 33.3812)" fill="#C7D2FE"/>
<rect x="45.4297" y="53.1074" width="1" height="1" transform="rotate(-9.49111 45.4297 53.1074)" fill="#C7D2FE"/>
<rect x="38.843" y="31.9032" width="1" height="1" transform="rotate(170.509 38.843 31.9032)" fill="#C7D2FE"/>
<rect x="42.141" y="51.6294" width="1" height="1" transform="rotate(170.509 42.141 51.6294)" fill="#C7D2FE"/>
<rect x="40.4919" y="41.7663" width="1" height="1" transform="rotate(170.509 40.4919 41.7663)" fill="#C7D2FE"/>
<rect x="40.8126" y="25.4907" width="1" height="1" transform="rotate(-9.49111 40.8126 25.4907)" fill="#C7D2FE"/>
<rect x="44.1105" y="45.2169" width="1" height="1" transform="rotate(-9.49111 44.1105 45.2169)" fill="#C7D2FE"/>
<rect x="42.4615" y="35.3538" width="1" height="1" transform="rotate(-9.49111 42.4615 35.3538)" fill="#C7D2FE"/>
<rect x="45.7594" y="55.08" width="1" height="1" transform="rotate(-9.49111 45.7594 55.08)" fill="#C7D2FE"/>
<rect x="38.5133" y="29.9306" width="1" height="1" transform="rotate(170.509 38.5133 29.9306)" fill="#C7D2FE"/>
<rect x="41.8112" y="49.6568" width="1" height="1" transform="rotate(170.509 41.8112 49.6568)" fill="#C7D2FE"/>
<rect x="40.1622" y="39.7937" width="1" height="1" transform="rotate(170.509 40.1622 39.7937)" fill="#C7D2FE"/>
<rect x="41.634" y="24.3395" width="1" height="1" transform="rotate(-9.49111 41.634 24.3395)" fill="#C7D2FE"/>
<rect x="44.9319" y="44.0657" width="1" height="1" transform="rotate(-9.49111 44.9319 44.0657)" fill="#C7D2FE"/>
<rect x="43.283" y="34.2026" width="1" height="1" transform="rotate(-9.49111 43.283 34.2026)" fill="#C7D2FE"/>
<rect x="46.5808" y="53.9288" width="1" height="1" transform="rotate(-9.49111 46.5808 53.9288)" fill="#C7D2FE"/>
<rect x="37.6918" y="31.0818" width="1" height="1" transform="rotate(170.509 37.6918 31.0818)" fill="#C7D2FE"/>
<rect x="40.9897" y="50.808" width="1" height="1" transform="rotate(170.509 40.9897 50.808)" fill="#C7D2FE"/>
<rect x="39.3408" y="40.9449" width="1" height="1" transform="rotate(170.509 39.3408 40.9449)" fill="#C7D2FE"/>
<rect x="42.4554" y="23.1883" width="1" height="1" transform="rotate(-9.49111 42.4554 23.1883)" fill="#C7D2FE"/>
<rect x="45.7533" y="42.9145" width="1" height="1" transform="rotate(-9.49111 45.7533 42.9145)" fill="#C7D2FE"/>
<rect x="44.1044" y="33.0514" width="1" height="1" transform="rotate(-9.49111 44.1044 33.0514)" fill="#C7D2FE"/>
<rect x="47.4022" y="52.7776" width="1" height="1" transform="rotate(-9.49111 47.4022 52.7776)" fill="#C7D2FE"/>
<rect x="36.8704" y="32.233" width="1" height="1" transform="rotate(170.509 36.8704 32.233)" fill="#C7D2FE"/>
<rect x="40.1683" y="51.9592" width="1" height="1" transform="rotate(170.509 40.1683 51.9592)" fill="#C7D2FE"/>
<rect x="38.5194" y="42.0961" width="1" height="1" transform="rotate(170.509 38.5194 42.0961)" fill="#C7D2FE"/>
<rect x="42.7853" y="25.1609" width="1" height="1" transform="rotate(-9.49111 42.7853 25.1609)" fill="#C7D2FE"/>
<rect x="46.0831" y="44.8871" width="1" height="1" transform="rotate(-9.49111 46.0831 44.8871)" fill="#C7D2FE"/>
<rect x="44.4342" y="35.024" width="1" height="1" transform="rotate(-9.49111 44.4342 35.024)" fill="#C7D2FE"/>
<rect x="47.7321" y="54.7502" width="1" height="1" transform="rotate(-9.49111 47.7321 54.7502)" fill="#C7D2FE"/>
<rect x="36.5406" y="30.2604" width="1" height="1" transform="rotate(170.509 36.5406 30.2604)" fill="#C7D2FE"/>
<rect x="39.8385" y="49.9866" width="1" height="1" transform="rotate(170.509 39.8385 49.9866)" fill="#C7D2FE"/>
<rect x="38.1896" y="40.1235" width="1" height="1" transform="rotate(170.509 38.1896 40.1235)" fill="#C7D2FE"/>
<rect x="43.4418" y="23.0234" width="1" height="1" transform="rotate(-9.49111 43.4418 23.0234)" fill="#C7D2FE"/>
<rect x="46.7396" y="42.7496" width="1" height="1" transform="rotate(-9.49111 46.7396 42.7496)" fill="#C7D2FE"/>
<rect x="45.0907" y="32.8865" width="1" height="1" transform="rotate(-9.49111 45.0907 32.8865)" fill="#C7D2FE"/>
<rect x="35.8842" y="32.3979" width="1" height="1" transform="rotate(170.509 35.8842 32.3979)" fill="#C7D2FE"/>
<rect x="39.182" y="52.1241" width="1" height="1" transform="rotate(170.509 39.182 52.1241)" fill="#C7D2FE"/>
<rect x="37.5331" y="42.261" width="1" height="1" transform="rotate(170.509 37.5331 42.261)" fill="#C7D2FE"/>
<rect x="38.0186" y="26.9717" width="1" height="1" transform="rotate(-9.49111 38.0186 26.9717)" fill="#A5B4FC"/>
<rect x="41.3164" y="46.6979" width="1" height="1" transform="rotate(-9.49111 41.3164 46.6979)" fill="#A5B4FC"/>
<rect x="39.6675" y="36.8348" width="1" height="1" transform="rotate(-9.49111 39.6675 36.8348)" fill="#A5B4FC"/>
<rect x="42.9655" y="56.561" width="1" height="1" transform="rotate(-9.49111 42.9655 56.561)" fill="#A5B4FC"/>
<rect x="41.3073" y="28.4496" width="1" height="1" transform="rotate(170.509 41.3073 28.4496)" fill="#A5B4FC"/>
<rect x="44.6052" y="48.1758" width="1" height="1" transform="rotate(170.509 44.6052 48.1758)" fill="#A5B4FC"/>
<rect x="42.9562" y="38.3127" width="1" height="1" transform="rotate(170.509 42.9562 38.3127)" fill="#A5B4FC"/>
<rect x="34.5649" y="24.5074" width="1" height="1" transform="rotate(-9.49111 34.5649 24.5074)" fill="#A5B4FC"/>
<rect x="37.8628" y="44.2337" width="1" height="1" transform="rotate(-9.49111 37.8628 44.2337)" fill="#A5B4FC"/>
<rect x="36.2139" y="34.3705" width="1" height="1" transform="rotate(-9.49111 36.2139 34.3705)" fill="#A5B4FC"/>
<rect x="39.5118" y="54.0968" width="1" height="1" transform="rotate(-9.49111 39.5118 54.0968)" fill="#A5B4FC"/>
<rect x="44.7609" y="30.9139" width="1" height="1" transform="rotate(170.509 44.7609 30.9139)" fill="#A5B4FC"/>
<rect x="48.0588" y="50.6401" width="1" height="1" transform="rotate(170.509 48.0588 50.6401)" fill="#A5B4FC"/>
<rect x="46.4098" y="40.777" width="1" height="1" transform="rotate(170.509 46.4098 40.777)" fill="#A5B4FC"/>
<rect x="36.5376" y="24.1776" width="1" height="1" transform="rotate(-9.49111 36.5376 24.1776)" fill="#A5B4FC"/>
<rect x="39.8354" y="43.9039" width="1" height="1" transform="rotate(-9.49111 39.8354 43.9039)" fill="#A5B4FC"/>
<rect x="38.1865" y="34.0407" width="1" height="1" transform="rotate(-9.49111 38.1865 34.0407)" fill="#A5B4FC"/>
<rect x="41.4844" y="53.767" width="1" height="1" transform="rotate(-9.49111 41.4844 53.767)" fill="#A5B4FC"/>
<rect x="42.7883" y="31.2436" width="1" height="1" transform="rotate(170.509 42.7883 31.2436)" fill="#A5B4FC"/>
<rect x="46.0862" y="50.9699" width="1" height="1" transform="rotate(170.509 46.0862 50.9699)" fill="#A5B4FC"/>
<rect x="44.4373" y="41.1068" width="1" height="1" transform="rotate(170.509 44.4373 41.1068)" fill="#A5B4FC"/>
<rect x="37.6887" y="24.9991" width="1" height="1" transform="rotate(-9.49111 37.6887 24.9991)" fill="#A5B4FC"/>
<rect x="40.9867" y="44.7253" width="1" height="1" transform="rotate(-9.49111 40.9867 44.7253)" fill="#A5B4FC"/>
<rect x="39.3378" y="34.8622" width="1" height="1" transform="rotate(-9.49111 39.3378 34.8622)" fill="#A5B4FC"/>
<rect x="42.6356" y="54.5884" width="1" height="1" transform="rotate(-9.49111 42.6356 54.5884)" fill="#A5B4FC"/>
<rect x="41.6371" y="30.4222" width="1" height="1" transform="rotate(170.509 41.6371 30.4222)" fill="#A5B4FC"/>
<rect x="44.9349" y="50.1485" width="1" height="1" transform="rotate(170.509 44.9349 50.1485)" fill="#A5B4FC"/>
<rect x="43.286" y="40.2853" width="1" height="1" transform="rotate(170.509 43.286 40.2853)" fill="#A5B4FC"/>
<rect x="39.4965" y="23.683" width="1" height="1" transform="rotate(-9.49111 39.4965 23.683)" fill="#A5B4FC"/>
<rect x="42.7944" y="43.4092" width="1" height="1" transform="rotate(-9.49111 42.7944 43.4092)" fill="#A5B4FC"/>
<rect x="41.1455" y="33.5461" width="1" height="1" transform="rotate(-9.49111 41.1455 33.5461)" fill="#A5B4FC"/>
<rect x="44.4434" y="53.2723" width="1" height="1" transform="rotate(-9.49111 44.4434 53.2723)" fill="#A5B4FC"/>
<rect x="39.8293" y="31.7383" width="1" height="1" transform="rotate(170.509 39.8293 31.7383)" fill="#A5B4FC"/>
<rect x="43.1272" y="51.4646" width="1" height="1" transform="rotate(170.509 43.1272 51.4646)" fill="#A5B4FC"/>
<rect x="41.4783" y="41.6014" width="1" height="1" transform="rotate(170.509 41.4783 41.6014)" fill="#A5B4FC"/>
<rect x="39.8263" y="25.6556" width="1" height="1" transform="rotate(-9.49111 39.8263 25.6556)" fill="#A5B4FC"/>
<rect x="43.1241" y="45.3818" width="1" height="1" transform="rotate(-9.49111 43.1241 45.3818)" fill="#A5B4FC"/>
<rect x="41.4752" y="35.5187" width="1" height="1" transform="rotate(-9.49111 41.4752 35.5187)" fill="#A5B4FC"/>
<rect x="44.7731" y="55.2449" width="1" height="1" transform="rotate(-9.49111 44.7731 55.2449)" fill="#A5B4FC"/>
<rect x="39.4995" y="29.7657" width="1" height="1" transform="rotate(170.509 39.4995 29.7657)" fill="#A5B4FC"/>
<rect x="42.7975" y="49.4919" width="1" height="1" transform="rotate(170.509 42.7975 49.4919)" fill="#A5B4FC"/>
<rect x="41.1486" y="39.6288" width="1" height="1" transform="rotate(170.509 41.1486 39.6288)" fill="#A5B4FC"/>
<rect x="40.6477" y="24.5044" width="1" height="1" transform="rotate(-9.49111 40.6477 24.5044)" fill="#A5B4FC"/>
<rect x="43.9456" y="44.2306" width="1" height="1" transform="rotate(-9.49111 43.9456 44.2306)" fill="#A5B4FC"/>
<rect x="42.2966" y="34.3675" width="1" height="1" transform="rotate(-9.49111 42.2966 34.3675)" fill="#A5B4FC"/>
<rect x="45.5946" y="54.0937" width="1" height="1" transform="rotate(-9.49111 45.5946 54.0937)" fill="#A5B4FC"/>
<rect x="38.6781" y="30.9169" width="1" height="1" transform="rotate(170.509 38.6781 30.9169)" fill="#A5B4FC"/>
<rect x="41.9761" y="50.6431" width="1" height="1" transform="rotate(170.509 41.9761 50.6431)" fill="#A5B4FC"/>
<rect x="40.3271" y="40.78" width="1" height="1" transform="rotate(170.509 40.3271 40.78)" fill="#A5B4FC"/>
<rect x="41.799" y="25.3258" width="1" height="1" transform="rotate(-9.49111 41.799 25.3258)" fill="#A5B4FC"/>
<rect x="45.0968" y="45.052" width="1" height="1" transform="rotate(-9.49111 45.0968 45.052)" fill="#A5B4FC"/>
<rect x="43.4479" y="35.1889" width="1" height="1" transform="rotate(-9.49111 43.4479 35.1889)" fill="#A5B4FC"/>
<rect x="46.7457" y="54.9151" width="1" height="1" transform="rotate(-9.49111 46.7457 54.9151)" fill="#A5B4FC"/>
<rect x="37.527" y="30.0955" width="1" height="1" transform="rotate(170.509 37.527 30.0955)" fill="#A5B4FC"/>
<rect x="40.8248" y="49.8217" width="1" height="1" transform="rotate(170.509 40.8248 49.8217)" fill="#A5B4FC"/>
<rect x="39.1759" y="39.9586" width="1" height="1" transform="rotate(170.509 39.1759 39.9586)" fill="#A5B4FC"/>
<rect x="41.4691" y="23.3532" width="1" height="1" transform="rotate(-9.49111 41.4691 23.3532)" fill="#A5B4FC"/>
<rect x="44.767" y="43.0794" width="1" height="1" transform="rotate(-9.49111 44.767 43.0794)" fill="#A5B4FC"/>
<rect x="43.118" y="33.2163" width="1" height="1" transform="rotate(-9.49111 43.118 33.2163)" fill="#A5B4FC"/>
<rect x="46.416" y="52.9425" width="1" height="1" transform="rotate(-9.49111 46.416 52.9425)" fill="#A5B4FC"/>
<rect x="37.8567" y="32.0681" width="1" height="1" transform="rotate(170.509 37.8567 32.0681)" fill="#A5B4FC"/>
<rect x="41.1547" y="51.7943" width="1" height="1" transform="rotate(170.509 41.1547 51.7943)" fill="#A5B4FC"/>
<rect x="39.5056" y="41.9312" width="1" height="1" transform="rotate(170.509 39.5056 41.9312)" fill="#A5B4FC"/>
<rect x="42.6204" y="24.1746" width="1" height="1" transform="rotate(-9.49111 42.6204 24.1746)" fill="#A5B4FC"/>
<rect x="45.9182" y="43.9008" width="1" height="1" transform="rotate(-9.49111 45.9182 43.9008)" fill="#A5B4FC"/>
<rect x="44.2693" y="34.0377" width="1" height="1" transform="rotate(-9.49111 44.2693 34.0377)" fill="#A5B4FC"/>
<rect x="47.5671" y="53.7639" width="1" height="1" transform="rotate(-9.49111 47.5671 53.7639)" fill="#A5B4FC"/>
<rect x="36.7056" y="31.2467" width="1" height="1" transform="rotate(170.509 36.7056 31.2467)" fill="#A5B4FC"/>
<rect x="40.0034" y="50.9729" width="1" height="1" transform="rotate(170.509 40.0034 50.9729)" fill="#A5B4FC"/>
<rect x="38.3545" y="41.1098" width="1" height="1" transform="rotate(170.509 38.3545 41.1098)" fill="#A5B4FC"/>
<rect x="34.8948" y="26.48" width="1" height="1" transform="rotate(-9.49111 34.8948 26.48)" fill="#A5B4FC"/>
<rect x="38.1926" y="46.2063" width="1" height="1" transform="rotate(-9.49111 38.1926 46.2063)" fill="#A5B4FC"/>
<rect x="36.5437" y="36.3432" width="1" height="1" transform="rotate(-9.49111 36.5437 36.3432)" fill="#A5B4FC"/>
<rect x="39.8416" y="56.0694" width="1" height="1" transform="rotate(-9.49111 39.8416 56.0694)" fill="#A5B4FC"/>
<rect x="44.4312" y="28.9412" width="1" height="1" transform="rotate(170.509 44.4312 28.9412)" fill="#A5B4FC"/>
<rect x="47.729" y="48.6675" width="1" height="1" transform="rotate(170.509 47.729 48.6675)" fill="#A5B4FC"/>
<rect x="46.0801" y="38.8043" width="1" height="1" transform="rotate(170.509 46.0801 38.8043)" fill="#A5B4FC"/>
<rect x="36.8673" y="26.1503" width="1" height="1" transform="rotate(-9.49111 36.8673 26.1503)" fill="#A5B4FC"/>
<rect x="40.1653" y="45.8765" width="1" height="1" transform="rotate(-9.49111 40.1653 45.8765)" fill="#A5B4FC"/>
<rect x="38.5164" y="36.0134" width="1" height="1" transform="rotate(-9.49111 38.5164 36.0134)" fill="#A5B4FC"/>
<rect x="41.8142" y="55.7396" width="1" height="1" transform="rotate(-9.49111 41.8142 55.7396)" fill="#A5B4FC"/>
<rect x="42.4585" y="29.271" width="1" height="1" transform="rotate(170.509 42.4585 29.271)" fill="#A5B4FC"/>
<rect x="45.7563" y="48.9972" width="1" height="1" transform="rotate(170.509 45.7563 48.9972)" fill="#A5B4FC"/>
<rect x="44.1074" y="39.1341" width="1" height="1" transform="rotate(170.509 44.1074 39.1341)" fill="#A5B4FC"/>
<rect x="22.0728" y="28.6237" width="1" height="1" transform="rotate(-9.49111 22.0728 28.6237)" fill="#A5B4FC"/>
<rect x="25.3706" y="48.3499" width="1" height="1" transform="rotate(-9.49111 25.3706 48.3499)" fill="#A5B4FC"/>
<rect x="23.7217" y="38.4868" width="1" height="1" transform="rotate(-9.49111 23.7217 38.4868)" fill="#A5B4FC"/>
<rect x="27.0195" y="58.213" width="1" height="1" transform="rotate(-9.49111 27.0195 58.213)" fill="#A5B4FC"/>
<rect x="57.2532" y="26.7976" width="1" height="1" transform="rotate(170.509 57.2532 26.7976)" fill="#A5B4FC"/>
<rect x="60.551" y="46.5238" width="1" height="1" transform="rotate(170.509 60.551 46.5238)" fill="#A5B4FC"/>
<rect x="58.9021" y="36.6607" width="1" height="1" transform="rotate(170.509 58.9021 36.6607)" fill="#A5B4FC"/>
<rect x="23.059" y="28.4588" width="1" height="1" transform="rotate(-9.49111 23.059 28.4588)" fill="#C7D2FE"/>
<rect x="26.3569" y="48.185" width="1" height="1" transform="rotate(-9.49111 26.3569 48.185)" fill="#C7D2FE"/>
<rect x="24.708" y="38.3219" width="1" height="1" transform="rotate(-9.49111 24.708 38.3219)" fill="#C7D2FE"/>
<rect x="28.0059" y="58.0481" width="1" height="1" transform="rotate(-9.49111 28.0059 58.0481)" fill="#C7D2FE"/>
<rect x="56.2668" y="26.9625" width="1" height="1" transform="rotate(170.509 56.2668 26.9625)" fill="#C7D2FE"/>
<rect x="59.5647" y="46.6887" width="1" height="1" transform="rotate(170.509 59.5647 46.6887)" fill="#C7D2FE"/>
<rect x="57.9158" y="36.8256" width="1" height="1" transform="rotate(170.509 57.9158 36.8256)" fill="#C7D2FE"/>
<rect x="23.8804" y="27.3076" width="1" height="1" transform="rotate(-9.49111 23.8804 27.3076)" fill="#C7D2FE"/>
<rect x="27.1783" y="47.0338" width="1" height="1" transform="rotate(-9.49111 27.1783 47.0338)" fill="#C7D2FE"/>
<rect x="25.5294" y="37.1707" width="1" height="1" transform="rotate(-9.49111 25.5294 37.1707)" fill="#C7D2FE"/>
<rect x="28.8273" y="56.8969" width="1" height="1" transform="rotate(-9.49111 28.8273 56.8969)" fill="#C7D2FE"/>
<rect x="55.4454" y="28.1137" width="1" height="1" transform="rotate(170.509 55.4454 28.1137)" fill="#C7D2FE"/>
<rect x="58.7433" y="47.8399" width="1" height="1" transform="rotate(170.509 58.7433 47.8399)" fill="#C7D2FE"/>
<rect x="57.0944" y="37.9768" width="1" height="1" transform="rotate(170.509 57.0944 37.9768)" fill="#C7D2FE"/>
<rect x="24.7018" y="26.1564" width="1" height="1" transform="rotate(-9.49111 24.7018 26.1564)" fill="#C7D2FE"/>
<rect x="27.9998" y="45.8826" width="1" height="1" transform="rotate(-9.49111 27.9998 45.8826)" fill="#C7D2FE"/>
<rect x="26.3508" y="36.0195" width="1" height="1" transform="rotate(-9.49111 26.3508 36.0195)" fill="#C7D2FE"/>
<rect x="29.6487" y="55.7457" width="1" height="1" transform="rotate(-9.49111 29.6487 55.7457)" fill="#C7D2FE"/>
<rect x="54.624" y="29.2649" width="1" height="1" transform="rotate(170.509 54.624 29.2649)" fill="#C7D2FE"/>
<rect x="57.9219" y="48.9911" width="1" height="1" transform="rotate(170.509 57.9219 48.9911)" fill="#C7D2FE"/>
<rect x="56.2729" y="39.128" width="1" height="1" transform="rotate(170.509 56.2729 39.128)" fill="#C7D2FE"/>
<rect x="25.853" y="26.9778" width="1" height="1" transform="rotate(-9.49111 25.853 26.9778)" fill="#C7D2FE"/>
<rect x="29.1509" y="46.704" width="1" height="1" transform="rotate(-9.49111 29.1509 46.704)" fill="#C7D2FE"/>
<rect x="27.502" y="36.8409" width="1" height="1" transform="rotate(-9.49111 27.502 36.8409)" fill="#C7D2FE"/>
<rect x="30.7999" y="56.5671" width="1" height="1" transform="rotate(-9.49111 30.7999 56.5671)" fill="#C7D2FE"/>
<rect x="53.4728" y="28.4435" width="1" height="1" transform="rotate(170.509 53.4728 28.4435)" fill="#C7D2FE"/>
<rect x="56.7708" y="48.1697" width="1" height="1" transform="rotate(170.509 56.7708 48.1697)" fill="#C7D2FE"/>
<rect x="55.1217" y="38.3066" width="1" height="1" transform="rotate(170.509 55.1217 38.3066)" fill="#C7D2FE"/>
<rect x="22.5643" y="25.4998" width="1" height="1" transform="rotate(-9.49111 22.5643 25.4998)" fill="#E0E7FF"/>
<rect x="25.8622" y="45.2261" width="1" height="1" transform="rotate(-9.49111 25.8622 45.2261)" fill="#E0E7FF"/>
<rect x="24.2133" y="35.363" width="1" height="1" transform="rotate(-9.49111 24.2133 35.363)" fill="#E0E7FF"/>
<rect x="27.5111" y="55.0892" width="1" height="1" transform="rotate(-9.49111 27.5111 55.0892)" fill="#E0E7FF"/>
<rect x="56.7616" y="29.9214" width="1" height="1" transform="rotate(170.509 56.7616 29.9214)" fill="#E0E7FF"/>
<rect x="60.0594" y="49.6477" width="1" height="1" transform="rotate(170.509 60.0594 49.6477)" fill="#E0E7FF"/>
<rect x="58.4105" y="39.7845" width="1" height="1" transform="rotate(170.509 58.4105 39.7845)" fill="#E0E7FF"/>
<rect x="24.537" y="25.1701" width="1" height="1" transform="rotate(-9.49111 24.537 25.1701)" fill="#E0E7FF"/>
<rect x="27.8348" y="44.8963" width="1" height="1" transform="rotate(-9.49111 27.8348 44.8963)" fill="#E0E7FF"/>
<rect x="26.1859" y="35.0332" width="1" height="1" transform="rotate(-9.49111 26.1859 35.0332)" fill="#E0E7FF"/>
<rect x="29.4838" y="54.7594" width="1" height="1" transform="rotate(-9.49111 29.4838 54.7594)" fill="#E0E7FF"/>
<rect x="54.7889" y="30.2512" width="1" height="1" transform="rotate(170.509 54.7889 30.2512)" fill="#E0E7FF"/>
<rect x="58.0868" y="49.9774" width="1" height="1" transform="rotate(170.509 58.0868 49.9774)" fill="#E0E7FF"/>
<rect x="56.4379" y="40.1143" width="1" height="1" transform="rotate(170.509 56.4379 40.1143)" fill="#E0E7FF"/>
<rect x="28.4822" y="24.5105" width="1" height="1" transform="rotate(-9.49111 28.4822 24.5105)" fill="#E0E7FF"/>
<rect x="31.78" y="44.2367" width="1" height="1" transform="rotate(-9.49111 31.78 44.2367)" fill="#E0E7FF"/>
<rect x="30.1311" y="34.3736" width="1" height="1" transform="rotate(-9.49111 30.1311 34.3736)" fill="#E0E7FF"/>
<rect x="33.4291" y="54.0998" width="1" height="1" transform="rotate(-9.49111 33.4291 54.0998)" fill="#E0E7FF"/>
<rect x="50.8436" y="30.9108" width="1" height="1" transform="rotate(170.509 50.8436 30.9108)" fill="#E0E7FF"/>
<rect x="54.1416" y="50.637" width="1" height="1" transform="rotate(170.509 54.1416 50.637)" fill="#E0E7FF"/>
<rect x="52.4926" y="40.7739" width="1" height="1" transform="rotate(170.509 52.4926 40.7739)" fill="#E0E7FF"/>
<rect x="29.6334" y="25.3319" width="1" height="1" transform="rotate(-9.49111 29.6334 25.3319)" fill="#E0E7FF"/>
<rect x="32.9313" y="45.0581" width="1" height="1" transform="rotate(-9.49111 32.9313 45.0581)" fill="#E0E7FF"/>
<rect x="31.2823" y="35.195" width="1" height="1" transform="rotate(-9.49111 31.2823 35.195)" fill="#E0E7FF"/>
<rect x="34.5802" y="54.9212" width="1" height="1" transform="rotate(-9.49111 34.5802 54.9212)" fill="#E0E7FF"/>
<rect x="49.6925" y="30.0894" width="1" height="1" transform="rotate(170.509 49.6925 30.0894)" fill="#E0E7FF"/>
<rect x="52.9904" y="49.8156" width="1" height="1" transform="rotate(170.509 52.9904 49.8156)" fill="#E0E7FF"/>
<rect x="51.3414" y="39.9525" width="1" height="1" transform="rotate(170.509 51.3414 39.9525)" fill="#E0E7FF"/>
<rect x="32.5923" y="24.8372" width="1" height="1" transform="rotate(-9.49111 32.5923 24.8372)" fill="#E0E7FF"/>
<rect x="35.8903" y="44.5634" width="1" height="1" transform="rotate(-9.49111 35.8903 44.5634)" fill="#E0E7FF"/>
<rect x="34.2413" y="34.7003" width="1" height="1" transform="rotate(-9.49111 34.2413 34.7003)" fill="#E0E7FF"/>
<rect x="37.5392" y="54.4266" width="1" height="1" transform="rotate(-9.49111 37.5392 54.4266)" fill="#E0E7FF"/>
<rect x="46.7335" y="30.5841" width="1" height="1" transform="rotate(170.509 46.7335 30.5841)" fill="#E0E7FF"/>
<rect x="50.0314" y="50.3103" width="1" height="1" transform="rotate(170.509 50.0314 50.3103)" fill="#E0E7FF"/>
<rect x="48.3824" y="40.4472" width="1" height="1" transform="rotate(170.509 48.3824 40.4472)" fill="#E0E7FF"/>
<rect x="38.5103" y="23.8478" width="1" height="1" transform="rotate(-9.49111 38.5103 23.8478)" fill="#E0E7FF"/>
<rect x="41.8081" y="43.5741" width="1" height="1" transform="rotate(-9.49111 41.8081 43.5741)" fill="#E0E7FF"/>
<rect x="40.1592" y="33.711" width="1" height="1" transform="rotate(-9.49111 40.1592 33.711)" fill="#E0E7FF"/>
<rect x="43.457" y="53.4372" width="1" height="1" transform="rotate(-9.49111 43.457 53.4372)" fill="#E0E7FF"/>
<rect x="40.8157" y="31.5734" width="1" height="1" transform="rotate(170.509 40.8157 31.5734)" fill="#E0E7FF"/>
<rect x="44.1135" y="51.2997" width="1" height="1" transform="rotate(170.509 44.1135 51.2997)" fill="#E0E7FF"/>
<rect x="42.4646" y="41.4365" width="1" height="1" transform="rotate(170.509 42.4646 41.4365)" fill="#E0E7FF"/>
<rect x="46.4006" y="22.5287" width="1" height="1" transform="rotate(-9.49111 46.4006 22.5287)" fill="#E0E7FF"/>
<rect x="49.6986" y="42.2549" width="1" height="1" transform="rotate(-9.49111 49.6986 42.2549)" fill="#E0E7FF"/>
<rect x="48.0497" y="32.3918" width="1" height="1" transform="rotate(-9.49111 48.0497 32.3918)" fill="#E0E7FF"/>
<rect x="32.9252" y="32.8926" width="1" height="1" transform="rotate(170.509 32.9252 32.8926)" fill="#E0E7FF"/>
<rect x="36.223" y="52.6188" width="1" height="1" transform="rotate(170.509 36.223 52.6188)" fill="#E0E7FF"/>
<rect x="34.5741" y="42.7557" width="1" height="1" transform="rotate(170.509 34.5741 42.7557)" fill="#E0E7FF"/>
<rect x="48.3733" y="22.1989" width="1" height="1" transform="rotate(-9.49111 48.3733 22.1989)" fill="#E0E7FF"/>
<rect x="51.6711" y="41.9251" width="1" height="1" transform="rotate(-9.49111 51.6711 41.9251)" fill="#E0E7FF"/>
<rect x="50.0222" y="32.062" width="1" height="1" transform="rotate(-9.49111 50.0222 32.062)" fill="#E0E7FF"/>
<rect x="30.9525" y="33.2224" width="1" height="1" transform="rotate(170.509 30.9525 33.2224)" fill="#E0E7FF"/>
<rect x="34.2505" y="52.9486" width="1" height="1" transform="rotate(170.509 34.2505 52.9486)" fill="#E0E7FF"/>
<rect x="32.6014" y="43.0855" width="1" height="1" transform="rotate(170.509 32.6014 43.0855)" fill="#E0E7FF"/>
<rect x="29.9631" y="27.3045" width="1" height="1" transform="rotate(-9.49111 29.9631 27.3045)" fill="#E0E7FF"/>
<rect x="33.2611" y="47.0307" width="1" height="1" transform="rotate(-9.49111 33.2611 47.0307)" fill="#E0E7FF"/>
<rect x="31.6122" y="37.1676" width="1" height="1" transform="rotate(-9.49111 31.6122 37.1676)" fill="#E0E7FF"/>
<rect x="34.91" y="56.8939" width="1" height="1" transform="rotate(-9.49111 34.91 56.8939)" fill="#E0E7FF"/>
<rect x="49.3627" y="28.1168" width="1" height="1" transform="rotate(170.509 49.3627 28.1168)" fill="#E0E7FF"/>
<rect x="52.6605" y="47.843" width="1" height="1" transform="rotate(170.509 52.6605 47.843)" fill="#E0E7FF"/>
<rect x="51.0116" y="37.9799" width="1" height="1" transform="rotate(170.509 51.0116 37.9799)" fill="#E0E7FF"/>
<rect x="32.9221" y="26.8098" width="1" height="1" transform="rotate(-9.49111 32.9221 26.8098)" fill="#E0E7FF"/>
<rect x="36.22" y="46.5361" width="1" height="1" transform="rotate(-9.49111 36.22 46.5361)" fill="#E0E7FF"/>
<rect x="34.571" y="36.6729" width="1" height="1" transform="rotate(-9.49111 34.571 36.6729)" fill="#E0E7FF"/>
<rect x="37.8689" y="56.3992" width="1" height="1" transform="rotate(-9.49111 37.8689 56.3992)" fill="#E0E7FF"/>
<rect x="46.4037" y="28.6114" width="1" height="1" transform="rotate(170.509 46.4037 28.6114)" fill="#E0E7FF"/>
<rect x="49.7017" y="48.3377" width="1" height="1" transform="rotate(170.509 49.7017 48.3377)" fill="#E0E7FF"/>
<rect x="48.0527" y="38.4746" width="1" height="1" transform="rotate(170.509 48.0527 38.4746)" fill="#E0E7FF"/>
<rect x="38.84" y="25.8205" width="1" height="1" transform="rotate(-9.49111 38.84 25.8205)" fill="#E0E7FF"/>
<rect x="42.1378" y="45.5467" width="1" height="1" transform="rotate(-9.49111 42.1378 45.5467)" fill="#E0E7FF"/>
<rect x="40.4889" y="35.6836" width="1" height="1" transform="rotate(-9.49111 40.4889 35.6836)" fill="#E0E7FF"/>
<rect x="43.7869" y="55.4098" width="1" height="1" transform="rotate(-9.49111 43.7869 55.4098)" fill="#E0E7FF"/>
<rect x="40.4858" y="29.6008" width="1" height="1" transform="rotate(170.509 40.4858 29.6008)" fill="#E0E7FF"/>
<rect x="43.7838" y="49.327" width="1" height="1" transform="rotate(170.509 43.7838 49.327)" fill="#E0E7FF"/>
<rect x="42.1348" y="39.4639" width="1" height="1" transform="rotate(170.509 42.1348 39.4639)" fill="#E0E7FF"/>
<rect x="46.7305" y="24.5013" width="1" height="1" transform="rotate(-9.49111 46.7305 24.5013)" fill="#E0E7FF"/>
<rect x="50.0283" y="44.2275" width="1" height="1" transform="rotate(-9.49111 50.0283 44.2275)" fill="#E0E7FF"/>
<rect x="48.3794" y="34.3644" width="1" height="1" transform="rotate(-9.49111 48.3794 34.3644)" fill="#E0E7FF"/>
<rect x="32.5953" y="30.92" width="1" height="1" transform="rotate(170.509 32.5953 30.92)" fill="#E0E7FF"/>
<rect x="35.8933" y="50.6462" width="1" height="1" transform="rotate(170.509 35.8933 50.6462)" fill="#E0E7FF"/>
<rect x="34.2444" y="40.7831" width="1" height="1" transform="rotate(170.509 34.2444 40.7831)" fill="#E0E7FF"/>
<rect x="48.7031" y="24.1715" width="1" height="1" transform="rotate(-9.49111 48.7031 24.1715)" fill="#E0E7FF"/>
<rect x="52.001" y="43.8977" width="1" height="1" transform="rotate(-9.49111 52.001 43.8977)" fill="#E0E7FF"/>
<rect x="50.3521" y="34.0346" width="1" height="1" transform="rotate(-9.49111 50.3521 34.0346)" fill="#E0E7FF"/>
<rect x="30.6228" y="31.2498" width="1" height="1" transform="rotate(170.509 30.6228 31.2498)" fill="#E0E7FF"/>
<rect x="33.9207" y="50.976" width="1" height="1" transform="rotate(170.509 33.9207 50.976)" fill="#E0E7FF"/>
<rect x="32.2717" y="41.1129" width="1" height="1" transform="rotate(170.509 32.2717 41.1129)" fill="#E0E7FF"/>
<rect x="52.6483" y="23.5119" width="1" height="1" transform="rotate(-9.49111 52.6483 23.5119)" fill="#E0E7FF"/>
<rect x="55.9463" y="43.2382" width="1" height="1" transform="rotate(-9.49111 55.9463 43.2382)" fill="#E0E7FF"/>
<rect x="54.2972" y="33.3751" width="1" height="1" transform="rotate(-9.49111 54.2972 33.3751)" fill="#E0E7FF"/>
<rect x="26.6775" y="31.9093" width="1" height="1" transform="rotate(170.509 26.6775 31.9093)" fill="#E0E7FF"/>
<rect x="29.9755" y="51.6356" width="1" height="1" transform="rotate(170.509 29.9755 51.6356)" fill="#E0E7FF"/>
<rect x="28.3264" y="41.7724" width="1" height="1" transform="rotate(170.509 28.3264 41.7724)" fill="#E0E7FF"/>
<rect x="52.3186" y="21.5393" width="1" height="1" transform="rotate(-9.49111 52.3186 21.5393)" fill="#E0E7FF"/>
<rect x="55.6165" y="41.2655" width="1" height="1" transform="rotate(-9.49111 55.6165 41.2655)" fill="#E0E7FF"/>
<rect x="53.9675" y="31.4024" width="1" height="1" transform="rotate(-9.49111 53.9675 31.4024)" fill="#E0E7FF"/>
<rect x="27.0073" y="33.882" width="1" height="1" transform="rotate(170.509 27.0073 33.882)" fill="#E0E7FF"/>
<rect x="30.3052" y="53.6082" width="1" height="1" transform="rotate(170.509 30.3052 53.6082)" fill="#E0E7FF"/>
<rect x="28.6562" y="43.7451" width="1" height="1" transform="rotate(170.509 28.6562 43.7451)" fill="#E0E7FF"/>
<rect x="50.5109" y="22.8554" width="1" height="1" transform="rotate(-9.49111 50.5109 22.8554)" fill="#E0E7FF"/>
<rect x="53.8087" y="42.5816" width="1" height="1" transform="rotate(-9.49111 53.8087 42.5816)" fill="#E0E7FF"/>
<rect x="52.1598" y="32.7185" width="1" height="1" transform="rotate(-9.49111 52.1598 32.7185)" fill="#E0E7FF"/>
<rect x="28.8151" y="32.5659" width="1" height="1" transform="rotate(170.509 28.8151 32.5659)" fill="#E0E7FF"/>
<rect x="32.1129" y="52.2921" width="1" height="1" transform="rotate(170.509 32.1129 52.2921)" fill="#E0E7FF"/>
<rect x="30.464" y="42.429" width="1" height="1" transform="rotate(170.509 30.464 42.429)" fill="#E0E7FF"/>
<rect x="25.6881" y="25.9915" width="1" height="1" transform="rotate(-9.49111 25.6881 25.9915)" fill="#E0E7FF"/>
<rect x="28.9861" y="45.7177" width="1" height="1" transform="rotate(-9.49111 28.9861 45.7177)" fill="#E0E7FF"/>
<rect x="27.337" y="35.8546" width="1" height="1" transform="rotate(-9.49111 27.337 35.8546)" fill="#E0E7FF"/>
<rect x="30.635" y="55.5808" width="1" height="1" transform="rotate(-9.49111 30.635 55.5808)" fill="#E0E7FF"/>
<rect x="53.6377" y="29.4298" width="1" height="1" transform="rotate(170.509 53.6377 29.4298)" fill="#E0E7FF"/>
<rect x="56.9355" y="49.156" width="1" height="1" transform="rotate(170.509 56.9355 49.156)" fill="#E0E7FF"/>
<rect x="55.2866" y="39.2929" width="1" height="1" transform="rotate(170.509 55.2866 39.2929)" fill="#E0E7FF"/>
<rect x="26.0179" y="27.9641" width="1" height="1" transform="rotate(-9.49111 26.0179 27.9641)" fill="#E0E7FF"/>
<rect x="29.3158" y="47.6903" width="1" height="1" transform="rotate(-9.49111 29.3158 47.6903)" fill="#E0E7FF"/>
<rect x="27.6669" y="37.8272" width="1" height="1" transform="rotate(-9.49111 27.6669 37.8272)" fill="#E0E7FF"/>
<rect x="30.9647" y="57.5534" width="1" height="1" transform="rotate(-9.49111 30.9647 57.5534)" fill="#E0E7FF"/>
<rect x="53.3079" y="27.4572" width="1" height="1" transform="rotate(170.509 53.3079 27.4572)" fill="#E0E7FF"/>
<rect x="56.6058" y="47.1834" width="1" height="1" transform="rotate(170.509 56.6058 47.1834)" fill="#E0E7FF"/>
<rect x="54.9569" y="37.3203" width="1" height="1" transform="rotate(170.509 54.9569 37.3203)" fill="#E0E7FF"/>
<rect x="24.0453" y="28.2939" width="1" height="1" transform="rotate(-9.49111 24.0453 28.2939)" fill="#E0E7FF"/>
<rect x="27.3433" y="48.0201" width="1" height="1" transform="rotate(-9.49111 27.3433 48.0201)" fill="#E0E7FF"/>
<rect x="25.6942" y="38.157" width="1" height="1" transform="rotate(-9.49111 25.6942 38.157)" fill="#E0E7FF"/>
<rect x="28.9922" y="57.8832" width="1" height="1" transform="rotate(-9.49111 28.9922 57.8832)" fill="#E0E7FF"/>
<rect x="55.2805" y="27.1274" width="1" height="1" transform="rotate(170.509 55.2805 27.1274)" fill="#E0E7FF"/>
<rect x="58.5785" y="46.8536" width="1" height="1" transform="rotate(170.509 58.5785 46.8536)" fill="#E0E7FF"/>
<rect x="56.9294" y="36.9905" width="1" height="1" transform="rotate(170.509 56.9294 36.9905)" fill="#E0E7FF"/>
<path d="M15.8211 59.31C16.0597 59.1722 16.0597 58.8278 15.8211 58.6907L13.6788 57.4542C13.2087 57.1827 12.818 56.792 12.5466 56.322L11.31 54.1789C11.1722 53.9404 10.8279 53.9404 10.6907 54.1789L9.45419 56.3212C9.18274 56.7913 8.792 57.182 8.32197 57.4535L6.17896 58.6907C5.94037 58.8286 5.94037 59.1729 6.17896 59.31L8.32125 60.5465C8.79128 60.818 9.18203 61.2087 9.45347 61.6788L10.69 63.8211C10.8279 64.0596 11.1722 64.0596 11.3093 63.8211L12.5458 61.6788C12.8173 61.2087 13.208 60.818 13.6781 60.5465L15.8211 59.31Z" fill="white"/>
<rect x="20.1213" y="8" width="3" height="3" transform="rotate(45 20.1213 8)" fill="white"/>
<path d="M48.4782 52.5037L59.6835 50.5958C60.5092 50.4552 61.2931 51.0088 61.4368 51.834C61.5813 52.6636 61.0241 53.4526 60.194 53.594L49 55.5L48.4782 52.5037Z" fill="url(#paint4_linear_77_98)"/>
<path d="M27.7416 62.6822C27.5965 61.8492 28.1589 61.0579 28.9933 60.9208L60.5139 55.7441C61.337 55.6089 62.1153 56.162 62.2584 56.9837C62.4035 57.8167 61.8411 58.6081 61.0068 58.7451L29.4861 63.9219C28.6631 64.057 27.8847 63.504 27.7416 62.6822Z" fill="#6366F1"/>
<path d="M28.6841 67.686C28.539 66.853 29.1013 66.0616 29.9357 65.9245L61.4564 60.7478C62.2794 60.6126 63.0578 61.1657 63.2009 61.9874C63.346 62.8204 62.7836 63.6118 61.9493 63.7488L30.4286 68.9256C29.6055 69.0608 28.8272 68.5077 28.6841 67.686Z" fill="#6366F1"/>
</g>
<defs>
<linearGradient id="paint0_linear_77_98" x1="36" y1="0" x2="36" y2="72" gradientUnits="userSpaceOnUse">
<stop stop-color="#FF7373"/>
<stop offset="1" stop-color="#FF2F2F"/>
</linearGradient>
<linearGradient id="paint1_linear_77_98" x1="53.2133" y1="33.3036" x2="48.6785" y2="77.2021" gradientUnits="userSpaceOnUse">
<stop stop-color="#DEE7FF"/>
<stop offset="1" stop-color="#CBD8FF"/>
</linearGradient>
<linearGradient id="paint2_linear_77_98" x1="59.2045" y1="35.4208" x2="48.2025" y2="78.1595" gradientUnits="userSpaceOnUse">
<stop stop-color="#EFF6FF"/>
<stop offset="1" stop-color="#CBD8FF"/>
</linearGradient>
<linearGradient id="paint3_linear_77_98" x1="44.753" y1="33.0324" x2="38.3333" y2="76.6951" gradientUnits="userSpaceOnUse">
<stop stop-color="white"/>
<stop offset="1" stop-color="#EFF6FF"/>
</linearGradient>
<linearGradient id="paint4_linear_77_98" x1="57" y1="53" x2="46" y2="55" gradientUnits="userSpaceOnUse">
<stop stop-color="#6366F1"/>
<stop offset="1" stop-color="#6366F1" stop-opacity="0"/>
</linearGradient>
<clipPath id="clip0_77_98">
<rect width="72" height="72" rx="12" fill="white"/>
</clipPath>
</defs>
</svg>
