<svg width="72" height="72" viewBox="0 0 72 72" fill="none" xmlns="http://www.w3.org/2000/svg">
<g clip-path="url(#clip0_534_3694)">
<rect width="72" height="72" rx="12" fill="url(#paint0_linear_534_3694)"/>
<circle cx="35.5057" cy="36.4546" r="16.5" transform="rotate(14.2846 35.5057 36.4546)" fill="url(#paint1_radial_534_3694)" stroke="white" stroke-width="2"/>
<path d="M24.4103 36.2511C24.8373 36.6014 25.4674 36.5393 25.8177 36.1123C26.1681 35.6854 26.106 35.0553 25.679 34.7049L24.4103 36.2511ZM25.679 34.7049C22.2914 31.9253 19.6429 29.3006 18.0128 27.1632C17.1939 26.0894 16.6694 25.1867 16.4193 24.4846C16.1596 23.7559 16.2652 23.4583 16.3288 23.3633L14.667 22.2504C14.0778 23.1301 14.1956 24.2025 14.5353 25.1558C14.8844 26.1356 15.5462 27.227 16.4225 28.376C18.1829 30.6843 20.9605 33.4203 24.4103 36.2511L25.679 34.7049ZM55.335 49.4868C55.2736 49.5785 55.0525 49.7802 54.3283 49.8264C53.627 49.8711 52.6498 49.7518 51.411 49.4364C48.9451 48.8088 45.6763 47.4665 41.9799 45.5262L41.0503 47.297C44.8169 49.2742 48.2404 50.6932 50.9176 51.3746C52.2503 51.7138 53.4573 51.886 54.4557 51.8223C55.4311 51.7601 56.425 51.4534 56.9968 50.5997L55.335 49.4868ZM16.3288 23.3633C16.3759 23.2929 16.5089 23.1603 16.9083 23.0782C17.3123 22.9951 17.8926 22.9869 18.6639 23.0932C20.2021 23.3052 22.2762 23.9397 24.7375 24.9726L25.5114 23.1284C22.9792 22.0658 20.7224 21.358 18.937 21.1119C18.0465 20.9892 17.2167 20.9729 16.5055 21.1191C15.7897 21.2663 15.1024 21.6003 14.667 22.2504L16.3288 23.3633ZM50.0965 41.7857C52.1728 43.7909 53.7011 45.5899 54.5817 47.0335C55.0235 47.7578 55.2715 48.3432 55.3665 48.7854C55.4611 49.2256 55.3841 49.4135 55.335 49.4868L56.9968 50.5997C57.4531 49.9183 57.4829 49.1148 57.3219 48.3653C57.1613 47.6178 56.7913 46.8152 56.2891 45.9919C55.2815 44.3402 53.6171 42.4054 51.4859 40.3471L50.0965 41.7857Z" fill="white"/>
<circle cx="38.016" cy="44.8331" r="4" transform="rotate(14.2846 38.016 44.8331)" fill="#6366F1" stroke="white" stroke-width="2"/>
<path d="M19.8212 57.31C20.0597 57.1722 20.0597 56.8278 19.8212 56.6907L17.6789 55.4542C17.2088 55.1827 16.8181 54.792 16.5466 54.322L15.3101 52.1789C15.1722 51.9404 14.8279 51.9404 14.6908 52.1789L13.4543 54.3212C13.1828 54.7913 12.7921 55.182 12.322 55.4535L10.179 56.6907C9.94045 56.8286 9.94045 57.1729 10.179 57.31L12.3213 58.5465C12.7914 58.818 13.1821 59.2087 13.4536 59.6788L14.6901 61.8211C14.8279 62.0596 15.1722 62.0596 15.3094 61.8211L16.5459 59.6788C16.8174 59.2087 17.2081 58.818 17.6781 58.5465L19.8212 57.31Z" fill="white"/>
<rect x="57.1213" y="13" width="3" height="3" transform="rotate(45 57.1213 13)" fill="white"/>
<circle cx="-14.5" cy="-6.5" r="34.5" fill="#3730A3"/>
<circle cx="50.5" cy="82.5" r="18.5" fill="#3730A3"/>
</g>
<defs>
<linearGradient id="paint0_linear_534_3694" x1="36" y1="0" x2="36" y2="72" gradientUnits="userSpaceOnUse">
<stop stop-color="#6366F2"/>
<stop offset="1" stop-color="#3F34FF"/>
</linearGradient>
<radialGradient id="paint1_radial_534_3694" cx="0" cy="0" r="1" gradientUnits="userSpaceOnUse" gradientTransform="translate(33.0057 30.9546) rotate(66.6444) scale(23.9635)">
<stop stop-color="#E8EEFF"/>
<stop offset="1" stop-color="#80A1FF"/>
</radialGradient>
<clipPath id="clip0_534_3694">
<rect width="72" height="72" rx="12" fill="white"/>
</clipPath>
</defs>
</svg>
