<svg width="72" height="72" viewBox="0 0 72 72" fill="none" xmlns="http://www.w3.org/2000/svg">
<rect width="72" height="72" rx="12" fill="url(#paint0_linear_535_11)"/>
<circle cx="23" cy="23" r="12" fill="url(#paint1_radial_535_11)" stroke="white" stroke-width="2"/>
<circle cx="53.5" cy="38.5" r="7.5" fill="url(#paint2_radial_535_11)" stroke="white" stroke-width="2"/>
<circle cx="19" cy="53" r="5" fill="url(#paint3_radial_535_11)" stroke="white" stroke-width="2"/>
<path d="M33.5 28.5L46.5 36" stroke="white" stroke-width="2"/>
<path d="M23.5 52L47 42.5" stroke="white" stroke-width="2"/>
<path d="M19.5 48L21.5 35" stroke="white" stroke-width="2"/>
<path d="M56.8212 18.31C57.0597 18.1722 57.0597 17.8278 56.8212 17.6907L54.6789 16.4542C54.2088 16.1827 53.8181 15.792 53.5466 15.322L52.3101 13.1789C52.1722 12.9404 51.8279 12.9404 51.6908 13.1789L50.4543 15.3212C50.1828 15.7913 49.7921 16.182 49.322 16.4535L47.179 17.6907C46.9404 17.8286 46.9404 18.1729 47.179 18.31L49.3213 19.5465C49.7914 19.818 50.1821 20.2087 50.4536 20.6788L51.6901 22.8211C51.8279 23.0596 52.1722 23.0596 52.3094 22.8211L53.5459 20.6788C53.8174 20.2087 54.2081 19.818 54.6781 19.5465L56.8212 18.31Z" fill="white"/>
<rect x="44.1213" y="55" width="3" height="3" transform="rotate(45 44.1213 55)" fill="white"/>
<defs>
<linearGradient id="paint0_linear_535_11" x1="36" y1="0" x2="36" y2="72" gradientUnits="userSpaceOnUse">
<stop stop-color="#4B7AFF"/>
<stop offset="1" stop-color="#1955FF"/>
</linearGradient>
<radialGradient id="paint1_radial_535_11" cx="0" cy="0" r="1" gradientUnits="userSpaceOnUse" gradientTransform="translate(19 19.5) rotate(47.0454) scale(19.8116)">
<stop stop-color="#CBD8FF"/>
<stop offset="1" stop-color="#4B79FE"/>
</radialGradient>
<radialGradient id="paint2_radial_535_11" cx="0" cy="0" r="1" gradientUnits="userSpaceOnUse" gradientTransform="translate(52 37) rotate(45) scale(9.19239)">
<stop stop-color="#CCFBF1"/>
<stop offset="1" stop-color="#2DD4BF"/>
</radialGradient>
<radialGradient id="paint3_radial_535_11" cx="0" cy="0" r="1" gradientUnits="userSpaceOnUse" gradientTransform="translate(18 51.5) rotate(59.0362) scale(5.83095)">
<stop stop-color="#FEF3C7"/>
<stop offset="1" stop-color="#FBBF24"/>
</radialGradient>
</defs>
</svg>
