<svg width="72" height="72" viewBox="0 0 72 72" fill="none" xmlns="http://www.w3.org/2000/svg">
<g clip-path="url(#clip0_2_5565)">
<rect width="72" height="72" rx="12" fill="url(#paint0_linear_2_5565)"/>
<circle cx="-0.5" cy="64.5" r="15.5" fill="url(#paint1_radial_2_5565)" stroke="white" stroke-width="2"/>
<circle cx="17" cy="15" r="9" fill="url(#paint2_radial_2_5565)" stroke="white" stroke-width="2"/>
<circle cx="68" cy="52" r="9" fill="url(#paint3_radial_2_5565)" stroke="white" stroke-width="2"/>
<circle cx="54" cy="9" r="13" fill="url(#paint4_radial_2_5565)" stroke="white" stroke-width="2"/>
<circle cx="35.5" cy="41.5" r="6.5" fill="url(#paint5_radial_2_5565)" stroke="white" stroke-width="2"/>
<path d="M6 50.5L14.5 23.5" stroke="white" stroke-width="2"/>
<path d="M39 36.5L48.5 20.5" stroke="white" stroke-width="2"/>
<path d="M55 76L64.5 60" stroke="white" stroke-width="2"/>
<path d="M31.5 36L22 22" stroke="white" stroke-width="2"/>
<path d="M45 82L36 48" stroke="white" stroke-width="2"/>
<path d="M66.5 42.5L61 20" stroke="white" stroke-width="2"/>
<path d="M11.5 8L-3 -10" stroke="white" stroke-width="2"/>
<path d="M59 50L41 44" stroke="white" stroke-width="2"/>
<path d="M41.5 11.5L26 14" stroke="white" stroke-width="2"/>
<path d="M85 20L66 11.5" stroke="white" stroke-width="2"/>
<path d="M30.5 46L14 59" stroke="white" stroke-width="2"/>
<path d="M57.8211 35.31C58.0597 35.1722 58.0597 34.8278 57.8211 34.6907L55.6788 33.4542C55.2087 33.1827 54.818 32.792 54.5466 32.322L53.31 30.1789C53.1722 29.9404 52.8279 29.9404 52.6907 30.1789L51.4542 32.3212C51.1827 32.7913 50.792 33.182 50.322 33.4535L48.179 34.6907C47.9404 34.8286 47.9404 35.1729 48.179 35.31L50.3213 36.5465C50.7913 36.818 51.182 37.2087 51.4535 37.6788L52.69 39.8211C52.8279 40.0596 53.1722 40.0596 53.3093 39.8211L54.5458 37.6788C54.8173 37.2087 55.208 36.818 55.6781 36.5465L57.8211 35.31Z" fill="white"/>
<rect x="27.1213" y="60" width="3" height="3" transform="rotate(45 27.1213 60)" fill="white"/>
<rect x="6.12134" y="25" width="3" height="3" transform="rotate(45 6.12134 25)" fill="white"/>
</g>
<defs>
<linearGradient id="paint0_linear_2_5565" x1="36" y1="0" x2="36" y2="72" gradientUnits="userSpaceOnUse">
<stop stop-color="#01ECEC"/>
<stop offset="1" stop-color="#01B6EC"/>
</linearGradient>
<radialGradient id="paint1_radial_2_5565" cx="0" cy="0" r="1" gradientUnits="userSpaceOnUse" gradientTransform="translate(-5.77273 59.8864) rotate(47.0454) scale(26.1153)">
<stop stop-color="#CBD8FF"/>
<stop offset="1" stop-color="#4B79FE"/>
</radialGradient>
<radialGradient id="paint2_radial_2_5565" cx="0" cy="0" r="1" gradientUnits="userSpaceOnUse" gradientTransform="translate(14.0909 12.4545) rotate(47.0454) scale(14.4084)">
<stop stop-color="#CBD8FF"/>
<stop offset="1" stop-color="#4B79FE"/>
</radialGradient>
<radialGradient id="paint3_radial_2_5565" cx="0" cy="0" r="1" gradientUnits="userSpaceOnUse" gradientTransform="translate(65.0909 49.4545) rotate(47.0454) scale(14.4084)">
<stop stop-color="#CBD8FF"/>
<stop offset="1" stop-color="#4B79FE"/>
</radialGradient>
<radialGradient id="paint4_radial_2_5565" cx="0" cy="0" r="1" gradientUnits="userSpaceOnUse" gradientTransform="translate(49.6364 5.18182) rotate(47.0454) scale(21.6127)">
<stop stop-color="#CBD8FF"/>
<stop offset="1" stop-color="#4B79FE"/>
</radialGradient>
<radialGradient id="paint5_radial_2_5565" cx="0" cy="0" r="1" gradientUnits="userSpaceOnUse" gradientTransform="translate(33.5 39.75) rotate(47.0454) scale(9.90581)">
<stop stop-color="#CBD8FF"/>
<stop offset="1" stop-color="#4B79FE"/>
</radialGradient>
<clipPath id="clip0_2_5565">
<rect width="72" height="72" rx="12" fill="white"/>
</clipPath>
</defs>
</svg>
