<svg width="72" height="72" viewBox="0 0 72 72" fill="none" xmlns="http://www.w3.org/2000/svg">
<rect width="72" height="72" rx="12" fill="url(#paint0_linear_2_5766)"/>
<rect y="16" width="41" height="56" fill="url(#paint1_radial_2_5766)"/>
<path d="M0 60H24C24.5523 60 25 60.4477 25 61C25 61.5523 24.5523 62 24 62H0V60Z" fill="#F87171"/>
<path d="M0 34L22 34C22.5523 34 23 34.4477 23 35C23 35.5523 22.5523 36 22 36H0V34Z" fill="#80A1FF"/>
<path d="M0 52L22 52C22.5523 52 23 52.4477 23 53C23 53.5523 22.5523 54 22 54H0V52Z" fill="#80A1FF"/>
<path d="M0 46L22 46C22.5523 46 23 46.4477 23 47C23 47.5523 22.5523 48 22 48H0V46Z" fill="#F87171"/>
<path d="M0 24H23C23.5523 24 24 24.4477 24 25C24 25.5523 23.5523 26 23 26H0V24Z" fill="#F87171"/>
<path d="M0 64H23C23.5523 64 24 64.4477 24 65C24 65.5523 23.5523 66 23 66H0V64Z" fill="#80A1FF"/>
<path d="M0 38H15.5C16.0523 38 16.5 38.4477 16.5 39C16.5 39.5523 16.0523 40 15.5 40H0V38Z" fill="#F87171"/>
<path d="M0 56H15.5C16.0523 56 16.5 56.4477 16.5 57C16.5 57.5523 16.0523 58 15.5 58H0V56Z" fill="#F87171"/>
<path d="M0 28H29C29.5523 28 30 28.4477 30 29C30 29.5523 29.5523 30 29 30H0V28Z" fill="#80A1FF"/>
<path d="M0 42H19C19.5523 42 20 42.4477 20 43C20 43.5523 19.5523 44 19 44H0V42Z" fill="#80A1FF"/>
<rect x="30" y="30" width="11" height="37" fill="url(#paint2_linear_2_5766)"/>
<path d="M33 36C33 34.3431 34.3431 33 36 33H47.5335L60 33C61.6569 33 63 34.3431 63 36V61C63 62.6569 61.6569 64 60 64H47.5335H36C34.3431 64 33 62.6569 33 61V36Z" fill="white" stroke="#A5B4FC" stroke-width="2"/>
<path d="M37 38C37 37.4477 37.4477 37 38 37L58 37C58.5523 37 59 37.4477 59 38C59 38.5523 58.5523 39 58 39H38C37.4477 39 37 38.5523 37 38Z" fill="#F87171"/>
<path d="M37 53C37 52.4477 37.4477 52 38 52L58 52C58.5523 52 59 52.4477 59 53C59 53.5523 58.5523 54 58 54H38C37.4477 54 37 53.5523 37 53Z" fill="#F87171"/>
<path d="M37 58C37 57.4477 37.4477 57 38 57L58 57C58.5523 57 59 57.4477 59 58C59 58.5523 58.5523 59 58 59H38C37.4477 59 37 58.5523 37 58Z" fill="#F87171"/>
<path d="M37 43C37 42.4477 37.4477 42 38 42H52C52.5523 42 53 42.4477 53 43C53 43.5523 52.5523 44 52 44H38C37.4477 44 37 43.5523 37 43Z" fill="#F87171"/>
<path d="M37 48C37 47.4477 37.4477 47 38 47H55C55.5523 47 56 47.4477 56 48C56 48.5523 55.5523 49 55 49H38C37.4477 49 37 48.5523 37 48Z" fill="#F87171"/>
<path d="M62.8211 19.31C63.0597 19.1722 63.0597 18.8278 62.8211 18.6907L60.6788 17.4542C60.2087 17.1827 59.818 16.792 59.5466 16.322L58.31 14.1789C58.1722 13.9404 57.8279 13.9404 57.6907 14.1789L56.4542 16.3212C56.1827 16.7913 55.792 17.182 55.322 17.4535L53.179 18.6907C52.9404 18.8286 52.9404 19.1729 53.179 19.31L55.3213 20.5465C55.7913 20.818 56.182 21.2087 56.4535 21.6788L57.69 23.8211C57.8279 24.0596 58.1722 24.0596 58.3093 23.8211L59.5458 21.6788C59.8173 21.2087 60.208 20.818 60.6781 20.5465L62.8211 19.31Z" fill="white"/>
<rect x="19.1213" y="6" width="3" height="3" transform="rotate(45 19.1213 6)" fill="white"/>
<defs>
<linearGradient id="paint0_linear_2_5766" x1="36" y1="0" x2="36" y2="72" gradientUnits="userSpaceOnUse">
<stop stop-color="#01B3FF"/>
<stop offset="1" stop-color="#0186FF"/>
</linearGradient>
<radialGradient id="paint1_radial_2_5766" cx="0" cy="0" r="1" gradientUnits="userSpaceOnUse" gradientTransform="translate(-11 76) rotate(-49.0856) scale(79.3977 135.914)">
<stop stop-color="#C7D2FE"/>
<stop offset="1" stop-color="#EEF2FF"/>
</radialGradient>
<linearGradient id="paint2_linear_2_5766" x1="41" y1="49.5" x2="30" y2="49.5" gradientUnits="userSpaceOnUse">
<stop stop-color="#A9BEFD"/>
<stop offset="0.847992" stop-color="#D6DEFF" stop-opacity="0"/>
</linearGradient>
</defs>
</svg>
