<svg width="72" height="72" viewBox="0 0 72 72" fill="none" xmlns="http://www.w3.org/2000/svg">
<rect width="72" height="72" rx="12" fill="#09382F"/>
<path fill-rule="evenodd" clip-rule="evenodd" d="M20.5349 21.5349H35.5C42.5139 21.5349 48.4008 26.36 50.0223 32.872H46.5258C45.0343 28.1402 40.6112 24.7092 35.3867 24.7092H20.5349V21.5349ZM35.7268 48.0639C41.7598 48.0639 46.6922 43.3516 47.0439 37.4069H50.4381C49.9693 45.2496 43.4605 51.4651 35.5 51.4651C27.235 51.4651 20.5349 44.765 20.5349 36.5V29.2441H35.3867C39.3313 29.2441 42.5291 32.4419 42.5291 36.3866V36.7267C42.5291 40.4835 39.4836 43.529 35.7268 43.529C32.2775 43.529 29.4278 40.9617 28.9844 37.6336H32.5265C32.9933 38.9547 34.2532 39.9013 35.7342 39.9013C37.6126 39.9013 39.1353 38.3785 39.1353 36.5001C39.1353 34.6217 37.6126 33.0989 35.7342 33.0989C35.6555 33.0989 35.5774 33.1016 35.5 33.1069V33.0988H24.3896V36.7267C24.3896 42.988 29.4654 48.0639 35.7268 48.0639ZM16 36.5V17H35.5C46.2696 17 55 25.7304 55 36.5C55 47.2696 46.2696 56 35.5 56C24.7304 56 16 47.2696 16 36.5Z" fill="white"/>
</svg>
