<svg width="72" height="72" viewBox="0 0 72 72" fill="none" xmlns="http://www.w3.org/2000/svg">
<path d="M63.7882 21.4691C63.1211 18.9228 61.1559 16.9174 58.6601 16.2368C54.1373 15 36 15 36 15C36 15 17.8629 15 13.3399 16.2368C10.8441 16.9174 8.87841 18.9228 8.21182 21.4691C7 26.0844 7 35.7143 7 35.7143C7 35.7143 7 45.3436 8.21182 49.9595C8.87841 52.5061 10.8441 54.5109 13.3396 55.1922C17.8627 56.4286 35.9998 56.4286 35.9998 56.4286C35.9998 56.4286 54.1371 56.4286 58.6599 55.1922C61.1557 54.5112 63.1208 52.5061 63.7879 49.9597C65 45.3439 65 35.7145 65 35.7145C65 35.7145 65 26.0847 63.7879 21.4693" fill="#FF0000"/>
<path d="M30.0817 44.592L45.4694 35.715L30.0817 26.8369V44.592Z" fill="white"/>
</svg>
