<svg width="72" height="72" viewBox="0 0 72 72" fill="none" xmlns="http://www.w3.org/2000/svg">
<g clip-path="url(#clip0_41_176)">
<rect width="72" height="72" rx="12" fill="url(#paint0_linear_41_176)"/>
<path d="M64.148 14.33L47.9493 6.51005C45.4256 5.29187 42.4871 5.25694 39.9329 6.41836C37.3787 7.57978 34.4445 7.54921 31.9165 6.32667L11.5 -3.5C7.029 -1.52646 0.519182 -6.02355 -3 -2.5C-10.4968 4.99682 -4.99998 25.9441 -4.99998 36.541V46.627L38.0816 67.4233C41.6619 69.1524 45.967 67.6504 47.6961 64.0701L62.6067 33.1877L67.3223 23.4205C68.9552 20.0366 67.5362 15.9673 64.1524 14.3343L64.148 14.33Z" fill="url(#paint1_radial_41_176)"/>
<path d="M48.6435 29.7908L21.8785 16.7445C20.8044 16.2206 19.5076 16.6659 18.9837 17.74L5.93738 44.505C5.41343 45.5791 5.85879 46.8759 6.93288 47.3998L33.6979 60.4461C34.772 60.9701 36.0687 60.5247 36.5927 59.4506L49.639 32.6856C50.1629 31.6115 49.7176 30.3148 48.6435 29.7908Z" fill="white"/>
<path d="M45.7138 31.8255L22.027 20.2811C21.6515 20.0978 21.2018 20.255 21.0184 20.6304L11.9847 39.1607C11.8013 39.5362 11.9585 39.986 12.334 40.1693L36.0208 51.7136C36.3962 51.897 36.846 51.7398 37.0294 51.3643L46.0631 32.8341C46.2465 32.4586 46.0893 32.0088 45.7138 31.8255Z" fill="#CBD8FF"/>
<path d="M37.3175 50.7662L38.981 47.3518L37.514 42.1996C37.3131 41.4967 36.9726 40.8461 36.5097 40.2785C36.0469 39.7152 35.4706 39.2524 34.8244 38.9206C34.1738 38.5888 33.4621 38.3923 32.7373 38.3442C32.0082 38.2962 31.279 38.401 30.5935 38.6499L27.9257 39.6061L24.7166 46.1904L35.4226 51.408C35.5885 51.491 35.7718 51.539 35.9596 51.5521C36.1473 51.5652 36.3351 51.539 36.5097 51.4779C36.6844 51.4167 36.8503 51.3251 36.99 51.1984C37.1297 51.0718 37.2433 50.9234 37.3262 50.7574L37.3175 50.7662Z" fill="#0D9488"/>
<path d="M37.3175 50.7662L38.981 47.3518L37.514 42.1996C37.3131 41.4967 36.9726 40.8461 36.5097 40.2785C36.0469 39.7152 35.4706 39.2524 34.8244 38.9206C34.1738 38.5888 33.4621 38.3923 32.7373 38.3442C32.0082 38.2962 31.279 38.401 30.5935 38.6499L27.9257 39.6061L24.7166 46.1904L35.4226 51.408C35.5885 51.491 35.7718 51.539 35.9596 51.5521C36.1473 51.5652 36.3351 51.539 36.5097 51.4779C36.6844 51.4167 36.8503 51.3251 36.99 51.1984C37.1297 51.0718 37.2433 50.9234 37.3262 50.7574L37.3175 50.7662Z" fill="url(#paint2_linear_41_176)" fill-opacity="0.5"/>
<path d="M16.7089 29.4633L19.3723 28.5071C20.0578 28.2583 20.7869 28.1535 21.5161 28.2015C22.2453 28.2495 22.957 28.4416 23.6032 28.7735C24.2537 29.1053 24.8257 29.5681 25.2885 30.1314C25.7513 30.6946 26.0919 31.3495 26.2928 32.0525L31.231 49.3821L12.3863 40.1999C12.1898 40.1038 12.0414 39.9379 11.9715 39.7327C11.9017 39.5275 11.9148 39.3048 12.0064 39.1083L16.7001 29.4633H16.7089Z" fill="#2DD4BF"/>
<path d="M33.6761 34.4146C34.7589 34.943 36.0644 34.4932 36.5927 33.4104C37.1211 32.3276 36.6713 31.0221 35.5885 30.4938C34.5057 29.9654 33.2002 30.4152 32.6719 31.498C32.1436 32.5808 32.5933 33.8863 33.6761 34.4146Z" fill="#FBBF24"/>
<path d="M33.6761 34.4146C34.7589 34.943 36.0644 34.4932 36.5927 33.4104C37.1211 32.3276 36.6713 31.0221 35.5885 30.4938C34.5057 29.9654 33.2002 30.4152 32.6719 31.498C32.1436 32.5808 32.5933 33.8863 33.6761 34.4146Z" fill="url(#paint3_radial_41_176)" fill-opacity="0.5"/>
<path d="M11.4083 49.5917L35.868 41.3045C37.7367 40.6714 39.7626 41.6626 40.4088 43.527L42.0505 48.2556L37.6756 57.3068L26.3976 56.9269L11.4083 49.5917Z" fill="url(#paint4_radial_41_176)"/>
<path d="M36.2042 42.9812L8.18605 52.6349C7.05956 53.0235 6.46139 54.2504 6.84998 55.3725L16.5037 83.3906C16.8923 84.5171 18.1192 85.1153 19.2413 84.7267L47.2594 75.073C48.3859 74.6844 48.9841 73.4575 48.5955 72.3353L38.9418 44.3172C38.5532 43.1908 37.3263 42.5926 36.2042 42.9812Z" fill="white"/>
<path d="M35.5754 46.4785L10.7796 55.0232C10.3866 55.1586 10.1814 55.5865 10.3168 55.9751L17.0015 75.3742C17.1368 75.7672 17.5647 75.9724 17.9533 75.8371L42.1903 67.4845C42.5832 67.3491 43.1814 66.2445 43.046 65.8515L36.5273 46.9413C36.3919 46.5484 35.964 46.3432 35.5754 46.4785Z" fill="#CBD8FF"/>
<path d="M28.8776 56.63C30.0128 56.2414 30.6154 55.0014 30.2224 53.8706C29.8294 52.7397 28.5938 52.1328 27.4629 52.5258C26.3321 52.9187 25.7252 54.1544 26.1181 55.2852C26.5111 56.4161 27.7467 57.023 28.8776 56.63Z" fill="#FBBF24"/>
<path d="M28.8776 56.63C30.0128 56.2414 30.6154 55.0014 30.2224 53.8706C29.8294 52.7397 28.5938 52.1328 27.4629 52.5258C26.3321 52.9187 25.7252 54.1544 26.1181 55.2852C26.5111 56.4161 27.7467 57.023 28.8776 56.63Z" fill="url(#paint5_radial_41_176)" fill-opacity="0.5"/>
<path d="M14.3162 67.5936L16.4469 64.3539C16.7875 63.9042 17.2634 63.5723 17.8048 63.402C18.3463 63.2318 18.9226 63.2361 19.4596 63.4108L22.5728 64.4281L24.6991 62.5157C25.4545 61.8389 26.4369 61.4765 27.4455 61.494L31.7462 61.5682C32.4972 61.5813 33.2438 61.4634 33.9555 61.2189L40.6533 58.9092L43.0198 65.7729C43.1377 66.1135 43.1159 66.489 42.9543 66.8164C42.7971 67.1439 42.5133 67.3884 42.1728 67.5063L18.0013 75.8371C17.8005 75.9069 17.5822 75.8938 17.39 75.7978C17.1979 75.7061 17.0538 75.5402 16.984 75.3393L14.3162 67.5893V67.5936Z" fill="#ECEFF7"/>
<path d="M25.5898 64.105L33.9686 61.2189C33.2569 61.4634 32.5103 61.5813 31.7593 61.5682L27.476 61.4896C26.4631 61.4722 25.4807 61.8389 24.7297 62.5113L22.6033 64.4237C23.3587 64.6289 24.1577 64.6028 24.9 64.3539L25.5942 64.105H25.5898Z" fill="#E0E3ED"/>
<path fill-rule="evenodd" clip-rule="evenodd" d="M41.0463 60.0531L43.0198 65.7816C43.1377 66.1222 43.1159 66.4977 42.9544 66.8252C42.7972 67.1526 42.5134 67.3971 42.1728 67.515L23.2277 74.0425C23.7953 73.1824 24.232 72.0646 24.197 70.7286C24.149 68.9559 26.6465 68.1176 29.1876 67.2661C31.5148 66.4846 33.877 65.6943 34.3703 64.1574C35.0471 62.0572 36.1823 61.6774 39.4876 60.5771C39.9591 60.4199 40.4787 60.2452 41.0463 60.0531Z" fill="#E0E3ED"/>
<path d="M37.1385 62.2406L41.3301 60.7954L43.0373 65.7467C43.2818 66.4584 42.9063 67.2356 42.1902 67.4801L26.1793 72.999C26.3015 71.759 26.7774 70.5845 27.5503 69.6108C28.3231 68.6371 29.3579 67.8992 30.5324 67.4976L31.9339 67.0129C32.5234 66.7728 33.0997 66.5021 33.6586 66.2008C34.1433 65.9563 34.5668 65.607 34.903 65.1791C35.2392 64.7512 35.4793 64.2578 35.606 63.7295C35.7107 63.2361 36.0819 62.6161 37.1429 62.2493L37.1385 62.2406Z" fill="#80A1FF"/>
<path d="M37.1385 62.2406L41.3301 60.7954L43.0373 65.7467C43.2818 66.4584 42.9063 67.2356 42.1902 67.4801L26.1793 72.999C26.3015 71.759 26.7774 70.5845 27.5503 69.6108C28.3231 68.6371 29.3579 67.8992 30.5324 67.4976L31.9339 67.0129C32.5234 66.7728 33.0997 66.5021 33.6586 66.2008C34.1433 65.9563 34.5668 65.607 34.903 65.1791C35.2392 64.7512 35.4793 64.2578 35.606 63.7295C35.7107 63.2361 36.0819 62.6161 37.1429 62.2493L37.1385 62.2406Z" fill="url(#paint6_linear_41_176)" fill-opacity="0.5"/>
<path d="M41.0288 50.3688L42.2252 53.8356L43.9062 44.457L41.0288 50.3688Z" fill="#FCA5A5"/>
<path d="M8.62262 48.2206L11.3035 51.5608L13.7267 50.7269L8.62262 48.2206Z" fill="#F87171"/>
<path d="M64.8211 60.31C65.0597 60.1722 65.0597 59.8278 64.8211 59.6907L62.6788 58.4542C62.2087 58.1827 61.818 57.792 61.5466 57.322L60.31 55.1789C60.1722 54.9404 59.8279 54.9404 59.6907 55.1789L58.4542 57.3212C58.1827 57.7913 57.792 58.182 57.322 58.4535L55.179 59.6907C54.9404 59.8286 54.9404 60.1729 55.179 60.31L57.3213 61.5465C57.7913 61.818 58.182 62.2087 58.4535 62.6788L59.69 64.8211C59.8279 65.0596 60.1722 65.0596 60.3093 64.8211L61.5458 62.6788C61.8173 62.2087 62.208 61.818 62.6781 61.5465L64.8211 60.31Z" fill="white"/>
</g>
<defs>
<linearGradient id="paint0_linear_41_176" x1="36" y1="0" x2="36" y2="72" gradientUnits="userSpaceOnUse">
<stop stop-color="#FFB800"/>
<stop offset="1" stop-color="#FF7A00"/>
</linearGradient>
<radialGradient id="paint1_radial_41_176" cx="0" cy="0" r="1" gradientUnits="userSpaceOnUse" gradientTransform="translate(-10.8944 51.5958) rotate(-24.2213) scale(88.3331 94.6318)">
<stop stop-color="#FCA5A5"/>
<stop offset="1" stop-color="#FEE2E2"/>
</radialGradient>
<linearGradient id="paint2_linear_41_176" x1="29.6563" y1="46.7361" x2="33.8506" y2="44.7784" gradientUnits="userSpaceOnUse">
<stop stop-color="#075C56"/>
<stop offset="1" stop-color="#0D9488" stop-opacity="0"/>
</linearGradient>
<radialGradient id="paint3_radial_41_176" cx="0" cy="0" r="1" gradientUnits="userSpaceOnUse" gradientTransform="translate(33.9122 30.7431) rotate(69.59) scale(4.93821)">
<stop stop-color="#F59E0B"/>
<stop offset="1" stop-color="#EA682F"/>
</radialGradient>
<radialGradient id="paint4_radial_41_176" cx="0" cy="0" r="1" gradientUnits="userSpaceOnUse" gradientTransform="translate(31.0215 61.6381) rotate(-76.6755) scale(25.576 43.6495)">
<stop stop-color="#80A1FF"/>
<stop offset="0.834549" stop-color="#80A1FF" stop-opacity="0"/>
</radialGradient>
<radialGradient id="paint5_radial_41_176" cx="0" cy="0" r="1" gradientUnits="userSpaceOnUse" gradientTransform="translate(26.475 53.9026) rotate(24.59) scale(4.93821 4.9382)">
<stop stop-color="#F59E0B"/>
<stop offset="1" stop-color="#EA682F"/>
</radialGradient>
<linearGradient id="paint6_linear_41_176" x1="31.3113" y1="66.2746" x2="47.3055" y2="70.3144" gradientUnits="userSpaceOnUse">
<stop stop-color="#1854FF"/>
<stop offset="1" stop-color="#7E9FFE"/>
</linearGradient>
<clipPath id="clip0_41_176">
<rect width="72" height="72" rx="12" fill="white"/>
</clipPath>
</defs>
</svg>
