<svg width="72" height="72" viewBox="0 0 72 72" fill="none" xmlns="http://www.w3.org/2000/svg">
<g clip-path="url(#clip0_41_410)">
<rect width="72" height="72" rx="12" fill="url(#paint0_linear_41_410)"/>
<path d="M26.2 19H57.2H50.378C42.7864 19 36.3075 24.4884 35.0594 31.9767L33.5845 40.8265C32.7022 46.1201 28.1222 50 22.7556 50H-8.24445C-2.87783 50 1.7022 46.1201 2.58446 40.8265L4.05943 31.9767C5.30748 24.4884 11.7864 19 19.378 19H26.2Z" fill="url(#paint1_linear_41_410)"/>
<path d="M44.8 19H13.8H20.622C28.2136 19 34.6925 24.4884 35.9406 31.9767L37.4155 40.8265C38.2978 46.1201 42.8778 50 48.2444 50H79.2444C73.8778 50 69.2978 46.1201 68.4155 40.8265L66.9406 31.9767C65.6925 24.4884 59.2136 19 51.622 19H44.8Z" fill="url(#paint2_linear_41_410)"/>
<g clip-path="url(#clip1_41_410)">
<path d="M23.97 41.98C23.66 41.98 23.46 41.82 23.46 41.59L23.34 38.02H16.47L13.74 41.57C13.57 41.81 13.25 41.96 12.94 41.96H11.44C11.14 41.96 10.99 41.71 11.14 41.48L22 27.4C22.2 27.16 22.6 27 22.99 27H24.95C25.34 27 25.62 27.17 25.65 27.41L26.13 41.5C26.12 41.73 25.79 41.98 25.48 41.98H23.96H23.97ZM22.95 32.35C22.95 32.21 22.93 32 22.89 31.72C22.87 31.43 22.86 31.13 22.84 30.84C22.82 30.53 22.82 30.28 22.81 30.09C22.62 30.35 22.41 30.63 22.17 30.93C21.95 31.22 21.75 31.5 21.54 31.76C21.34 32 21.18 32.2 21.06 32.35L17.85 36.21H23.32L22.95 32.36V32.35Z" fill="#1854FF"/>
</g>
<g clip-path="url(#clip2_41_410)">
<path fill-rule="evenodd" clip-rule="evenodd" d="M52 27.19C51.72 26.53 50.72 26 49.78 26C48.83 26 48.3 26.55 48.58 27.21L49.09 28.41L42.26 28.45C41.32 28.45 40.79 29 41.08 29.66C41.37 30.32 42.37 30.86 43.31 30.85L51.83 30.8L54.99 30.78C55.2 32.38 54.97 34.49 53.6 36.4C51.81 35.24 50.33 33.98 49.15 32.78C48.55 32.16 47.43 31.86 46.65 32.1C45.88 32.34 45.74 33.04 46.35 33.66C47.79 35.12 49.65 36.69 51.94 38.13C50.74 39.09 49.13 39.92 46.98 40.5C46.19 40.71 46 41.39 46.57 42.02C47.14 42.65 48.24 42.98 49.03 42.77C51.66 42.06 53.61 41.04 55.04 39.86C57.38 41.01 60.05 42 63.09 42.68C64.06 42.9 64.89 42.57 64.94 41.94C64.99 41.31 64.25 40.63 63.28 40.41C60.82 39.86 58.63 39.06 56.71 38.13C58.62 35.63 58.84 32.79 58.47 30.74H60.36C61.3 30.72 61.84 30.18 61.56 29.52C61.28 28.86 60.3 28.32 59.35 28.33L55.95 28.35H55.92L52.52 28.37L52.01 27.17L52 27.19Z" fill="#1854FF"/>
</g>
<path d="M40.8211 57.31C41.0597 57.1722 41.0597 56.8278 40.8211 56.6907L38.6788 55.4542C38.2087 55.1827 37.818 54.792 37.5466 54.322L36.31 52.1789C36.1722 51.9404 35.8279 51.9404 35.6907 52.1789L34.4542 54.3212C34.1827 54.7913 33.792 55.182 33.322 55.4535L31.179 56.6907C30.9404 56.8286 30.9404 57.1729 31.179 57.31L33.3213 58.5465C33.7913 58.818 34.182 59.2087 34.4535 59.6788L35.69 61.8211C35.8279 62.0596 36.1722 62.0596 36.3093 61.8211L37.5458 59.6788C37.8173 59.2087 38.208 58.818 38.6781 58.5465L40.8211 57.31Z" fill="white"/>
<rect x="36.1213" y="9" width="3" height="3" transform="rotate(45 36.1213 9)" fill="white"/>
</g>
<defs>
<linearGradient id="paint0_linear_41_410" x1="36" y1="0" x2="36" y2="72" gradientUnits="userSpaceOnUse">
<stop stop-color="#4B79FE"/>
<stop offset="1" stop-color="#1854FF"/>
</linearGradient>
<linearGradient id="paint1_linear_41_410" x1="40.5" y1="19" x2="24.4778" y2="50" gradientUnits="userSpaceOnUse">
<stop stop-color="#A9BEFD"/>
<stop offset="1" stop-color="#E0E3ED"/>
</linearGradient>
<linearGradient id="paint2_linear_41_410" x1="46.5222" y1="19" x2="46.5222" y2="50" gradientUnits="userSpaceOnUse">
<stop stop-color="white"/>
<stop offset="1" stop-color="#CBD8FF"/>
</linearGradient>
<clipPath id="clip0_41_410">
<rect width="72" height="72" rx="12" fill="white"/>
</clipPath>
<clipPath id="clip1_41_410">
<rect width="15.13" height="14.98" fill="white" transform="translate(11 27)"/>
</clipPath>
<clipPath id="clip2_41_410">
<rect width="23.93" height="16.85" fill="white" transform="translate(41 26)"/>
</clipPath>
</defs>
</svg>
