<svg width="72" height="72" viewBox="0 0 72 72" fill="none" xmlns="http://www.w3.org/2000/svg">
<g clip-path="url(#clip0_170_163)">
<rect width="72" height="72" rx="12" fill="url(#paint0_linear_170_163)"/>
<path fill-rule="evenodd" clip-rule="evenodd" d="M82.0001 20.1252H38.3349C33.0572 20.1252 28.7756 24.3468 28.7756 29.5351V78H50.488C54.6267 78 58.7241 77.1967 62.5461 75.6376C66.368 74.0785 69.8422 71.794 72.7689 68.9131C75.6956 66.0321 78.0163 62.6122 79.6002 58.85C81.1841 55.0878 82.0001 51.0545 82.0001 46.9804V20.1252Z" fill="url(#paint1_linear_170_163)"/>
<path d="M34.8274 9H22.7297C21.6627 9 20.7976 9.86505 20.7976 10.9321V10.9384C20.7976 12.0055 21.6627 12.8705 22.7297 12.8705H34.8274C35.8945 12.8705 36.7595 12.0055 36.7595 10.9384V10.9321C36.7595 9.86505 35.8945 9 34.8274 9Z" fill="white"/>
<path d="M12.9384 9H12.9321C11.865 9 11 9.86505 11 10.9321V10.9384C11 12.0055 11.865 12.8705 12.9321 12.8705H12.9384C14.0055 12.8705 14.8705 12.0055 14.8705 10.9384V10.9321C14.8705 9.86505 14.0055 9 12.9384 9Z" fill="#4BFFFF"/>
<path d="M12.9384 18.1932H12.9321C11.865 18.1932 11 19.0583 11 20.1254V20.1316C11 21.1987 11.865 22.0637 12.9321 22.0637H12.9384C14.0055 22.0637 14.8705 21.1987 14.8705 20.1316V20.1254C14.8705 19.0583 14.0055 18.1932 12.9384 18.1932Z" fill="#A4FF79"/>
<path d="M12.9384 27.3865H12.9321C11.865 27.3865 11 28.2515 11 29.3186V29.3248C11 30.3919 11.865 31.257 12.9321 31.257H12.9384C14.0055 31.257 14.8705 30.3919 14.8705 29.3248V29.3186C14.8705 28.2515 14.0055 27.3865 12.9384 27.3865Z" fill="#FDE68A"/>
<path d="M55.2583 9H43.1606C42.0936 9 41.2285 9.86505 41.2285 10.9321V10.9384C41.2285 12.0055 42.0936 12.8705 43.1606 12.8705H55.2583C56.3254 12.8705 57.1904 12.0055 57.1904 10.9384V10.9321C57.1904 9.86505 56.3254 9 55.2583 9Z" fill="white"/>
<path d="M44.1579 71.9938V37.2309C44.1579 37.0881 44.0421 36.9723 43.8993 36.9723C43.7564 36.9723 43.6406 37.0881 43.6406 37.2309V71.9938H44.1579Z" fill="#4B79FE"/>
<path d="M35.0642 70.1302H39.5206C40.4617 70.1302 41.2283 70.8968 41.2283 71.8379V72H33.3564V71.8379C33.3564 70.8968 34.1231 70.1302 35.0642 70.1302Z" fill="#4B79FE"/>
<path d="M39.8947 63.7853H34.7028C33.9627 63.7853 33.3628 64.3853 33.3628 65.1254C33.3628 65.8654 33.9627 66.4654 34.7028 66.4654H39.8947C40.6347 66.4654 41.2347 65.8654 41.2347 65.1254C41.2347 64.3853 40.6347 63.7853 39.8947 63.7853Z" fill="#4B79FE"/>
<path d="M39.8947 57.4405H34.7028C33.9627 57.4405 33.3628 58.0404 33.3628 58.7805C33.3628 59.5206 33.9627 60.1206 34.7028 60.1206H39.8947C40.6347 60.1206 41.2347 59.5206 41.2347 58.7805C41.2347 58.0404 40.6347 57.4405 39.8947 57.4405Z" fill="#4B79FE"/>
<path d="M39.8947 51.0955H34.7028C33.9627 51.0955 33.3628 51.6954 33.3628 52.4355C33.3628 53.1756 33.9627 53.7755 34.7028 53.7755H39.8947C40.6347 53.7755 41.2347 53.1756 41.2347 52.4355C41.2347 51.6954 40.6347 51.0955 39.8947 51.0955Z" fill="#4B79FE"/>
<path d="M39.8947 44.7506H34.7028C33.9627 44.7506 33.3628 45.3506 33.3628 46.0906C33.3628 46.8307 33.9627 47.4307 34.7028 47.4307H39.8947C40.6347 47.4307 41.2347 46.8307 41.2347 46.0906C41.2347 45.3506 40.6347 44.7506 39.8947 44.7506Z" fill="#4B79FE"/>
<path d="M39.8947 38.412H34.7028C33.9627 38.412 33.3628 39.012 33.3628 39.7521C33.3628 40.4922 33.9627 41.0921 34.7028 41.0921H39.8947C40.6347 41.0921 41.2347 40.4922 41.2347 39.7521C41.2347 39.012 40.6347 38.412 39.8947 38.412Z" fill="#4B79FE"/>
<path fill-rule="evenodd" clip-rule="evenodd" d="M56.6045 73.4862V39.8722C56.6045 39.064 56.0061 38.412 55.2645 38.412H48.851C48.1093 38.412 47.511 39.064 47.511 39.8722V75H47.9294C50.8813 75 53.8094 74.4872 56.6045 73.4862Z" fill="url(#paint2_linear_170_163)"/>
<path fill-rule="evenodd" clip-rule="evenodd" d="M70.7715 65.8979V51.941C70.7715 50.7728 70.1731 49.8304 69.4315 49.8304H63.018C62.2763 49.8304 61.678 50.7728 61.678 51.941V79C63.8346 77.0666 65.8222 74.683 67.5847 71.9071C68.7617 70.0533 69.8276 68.0415 70.7715 65.8979Z" fill="url(#paint3_linear_170_163)"/>
<path d="M30.4198 24.3643H41.7508C42.8166 24.3643 43.683 23.4979 43.683 22.4321C43.683 21.3663 42.8166 20.5 41.7508 20.5H37.5001C34.5271 20.5 31.9156 22.0457 30.4198 24.3705V24.3643Z" fill="url(#paint4_linear_170_163)"/>
<path d="M48.9384 29.6295H28.7756V33.5H48.9384C50.0042 33.5 50.8705 32.6337 50.8705 31.5679C50.8705 30.5021 50.0042 29.6358 48.9384 29.6358V29.6295Z" fill="url(#paint5_linear_170_163)"/>
<path d="M43.9957 18.1932H22.7297C21.6627 18.1932 20.7976 19.0583 20.7976 20.1254V20.1316C20.7976 21.1987 21.6627 22.0637 22.7297 22.0637H43.9957C45.0628 22.0637 45.9278 21.1987 45.9278 20.1316V20.1254C45.9278 19.0583 45.0628 18.1932 43.9957 18.1932Z" fill="white"/>
<path d="M51.4812 27.3865H22.7297C21.6627 27.3865 20.7976 28.2515 20.7976 29.3186V29.3248C20.7976 30.3919 21.6627 31.257 22.7297 31.257H51.4812C52.5482 31.257 53.4133 30.3919 53.4133 29.3248V29.3186C53.4133 28.2515 52.5482 27.3865 51.4812 27.3865Z" fill="white"/>
<path d="M20.8211 50.31C21.0596 50.1722 21.0596 49.8278 20.8211 49.6907L18.6788 48.4542C18.2087 48.1827 17.818 47.792 17.5465 47.322L16.31 45.1789C16.1722 44.9404 15.8278 44.9404 15.6907 45.1789L14.4542 47.3212C14.1827 47.7913 13.792 48.182 13.322 48.4535L11.1789 49.6907C10.9404 49.8286 10.9404 50.1729 11.1789 50.31L13.3212 51.5465C13.7913 51.818 14.182 52.2087 14.4535 52.6788L15.69 54.8211C15.8278 55.0596 16.1722 55.0596 16.3093 54.8211L17.5458 52.6788C17.8173 52.2087 18.208 51.818 18.6781 51.5465L20.8211 50.31Z" fill="white"/>
</g>
<defs>
<linearGradient id="paint0_linear_170_163" x1="36" y1="0" x2="36" y2="72" gradientUnits="userSpaceOnUse">
<stop stop-color="#6366F1"/>
<stop offset="1" stop-color="#3F33FF"/>
</linearGradient>
<linearGradient id="paint1_linear_170_163" x1="81.8658" y1="77.8678" x2="29.7569" y2="19.4314" gradientUnits="userSpaceOnUse">
<stop stop-color="#BCBFFF"/>
<stop offset="1" stop-color="#E8EEFF"/>
</linearGradient>
<linearGradient id="paint2_linear_170_163" x1="52.0577" y1="38.412" x2="52.0577" y2="75" gradientUnits="userSpaceOnUse">
<stop stop-color="#80A1FF"/>
<stop offset="1" stop-color="#1854FF"/>
</linearGradient>
<linearGradient id="paint3_linear_170_163" x1="66.1936" y1="41.73" x2="66.2708" y2="78.9999" gradientUnits="userSpaceOnUse">
<stop stop-color="#80A1FF"/>
<stop offset="1" stop-color="#1854FF"/>
</linearGradient>
<linearGradient id="paint4_linear_170_163" x1="30.9592" y1="20.2357" x2="45.2353" y2="26.1587" gradientUnits="userSpaceOnUse">
<stop stop-color="#A9BEFD"/>
<stop offset="1" stop-color="#A9BEFD" stop-opacity="0"/>
</linearGradient>
<linearGradient id="paint5_linear_170_163" x1="32.326" y1="29.3481" x2="53.5882" y2="35.8786" gradientUnits="userSpaceOnUse">
<stop stop-color="#A9BEFD"/>
<stop offset="1" stop-color="#A9BEFD" stop-opacity="0"/>
</linearGradient>
<clipPath id="clip0_170_163">
<rect width="72" height="72" rx="12" fill="white"/>
</clipPath>
</defs>
</svg>
