<svg width="72" height="72" viewBox="0 0 72 72" fill="none" xmlns="http://www.w3.org/2000/svg">
<rect width="72" height="72" rx="12" fill="url(#paint0_linear_507_379)"/>
<path d="M14.6898 39.021L23.4564 32.8036V39.021H14.6898Z" fill="#0D9488"/>
<path d="M51.9765 59.0926H19.6738C18.9373 59.0926 18.3367 58.4955 18.3367 57.7554V14.3372C18.3367 13.6006 18.9337 13 19.6738 13H45.9844L53.3101 20.9085V57.7554C53.3101 58.492 52.713 59.0926 51.973 59.0926H51.9765Z" fill="white"/>
<path d="M53.3103 20.9121H47.2752C46.5637 20.9121 45.9845 20.3329 45.9845 19.6214V13.0036L53.3103 20.9121Z" fill="url(#paint1_linear_507_379)"/>
<path d="M27.3071 54.7772L18.3367 56.6077V54.7772H27.3071Z" fill="url(#paint2_linear_507_379)"/>
<path d="M49.095 20.9121L53.3102 21.7165V20.9121H49.095Z" fill="url(#paint3_linear_507_379)"/>
<path d="M29 23C29 22.4477 29.4477 22 30 22H42C42.5523 22 43 22.4477 43 23V25C43 25.5523 42.5523 26 42 26H29V23Z" fill="#CBD8FF"/>
<path d="M29 35C29 34.4477 29.4477 34 30 34H42C42.5523 34 43 34.4477 43 35V37C43 37.5523 42.5523 38 42 38H29V35Z" fill="#CBD8FF"/>
<path d="M29 47C29 46.4477 29.4477 46 30 46H42C42.5523 46 43 46.4477 43 47V49C43 49.5523 42.5523 50 42 50H29V47Z" fill="#CBD8FF"/>
<path d="M43 29C43 28.4477 42.5523 28 42 28H30C29.4477 28 29 28.4477 29 29V31C29 31.5523 29.4477 32 30 32H43V29Z" fill="#99F6E4"/>
<path d="M43 41C43 40.4477 42.5523 40 42 40H30C29.4477 40 29 40.4477 29 41V43C29 43.5523 29.4477 44 30 44H43V41Z" fill="#99F6E4"/>
<rect x="26" y="24" width="2" height="2" rx="1" fill="#CBD8FF"/>
<rect x="26" y="36" width="2" height="2" rx="1" fill="#CBD8FF"/>
<rect x="44" y="30" width="2" height="2" rx="1" fill="#99F6E4"/>
<rect x="44" y="42" width="2" height="2" rx="1" fill="#99F6E4"/>
<path d="M14.6898 39.0209H31.7511C32.5484 39.0209 33.1955 39.668 33.1955 40.4653V53.3363C33.1955 54.1336 32.5484 54.7807 31.7511 54.7807H16.1342C15.3369 54.7807 14.6898 54.1336 14.6898 53.3363V39.0209Z" fill="#2DD4BF"/>
<path d="M19.0261 46.882C19.0261 47.8353 19.7527 48.5804 20.7477 48.5804C21.4927 48.5804 22.1591 48.1037 22.3396 47.4049H21.6131C21.4742 47.7335 21.1179 47.9325 20.7477 47.9325C20.1183 47.9325 19.7018 47.4697 19.7018 46.882C19.7018 46.2942 20.1183 45.8315 20.7477 45.8315C21.1179 45.8315 21.4742 46.0304 21.6131 46.359H22.3396C22.1591 45.6602 21.4927 45.1836 20.7477 45.1836C19.7527 45.1836 19.0261 45.9286 19.0261 46.882Z" fill="white"/>
<path d="M22.8962 47.5067C22.924 48.0482 23.3729 48.5804 24.1596 48.5804C24.8491 48.5804 25.3027 48.1639 25.3027 47.6039C25.3027 47.0948 24.9833 46.757 24.4511 46.6089L24.067 46.5025C23.7986 46.4238 23.6505 46.3127 23.6552 46.1091C23.6598 45.9148 23.8449 45.8037 24.0809 45.8037C24.2753 45.8037 24.4928 45.9055 24.5668 46.1832H25.2332C25.2101 45.6926 24.789 45.1836 24.0809 45.1836C23.4238 45.1836 22.9749 45.5492 22.9795 46.1554C22.9841 46.6552 23.322 46.9791 23.8403 47.1272L24.1874 47.229C24.5021 47.317 24.627 47.4512 24.627 47.627C24.627 47.8353 24.428 47.9602 24.1596 47.9602C23.868 47.9602 23.6135 47.8029 23.5672 47.5067H22.8962Z" fill="white"/>
<path d="M27.0166 48.5248H27.6136L28.9742 45.2391H28.2337L27.3174 47.5206L26.3872 45.2391H25.6607L27.0166 48.5248Z" fill="white"/>
<path d="M63.8212 13.31C64.0598 13.1722 64.0598 12.8278 63.8212 12.6907L61.6789 11.4542C61.2088 11.1827 60.8181 10.792 60.5466 10.322L59.3101 8.17894C59.1723 7.94035 58.828 7.94035 58.6908 8.17894L57.4543 10.3212C57.1828 10.7913 56.7921 11.182 56.3221 11.4535L54.179 12.6907C53.9405 12.8286 53.9405 13.1729 54.179 13.31L56.3213 14.5465C56.7914 14.818 57.1821 15.2087 57.4536 15.6788L58.6901 17.8211C58.828 18.0596 59.1723 18.0596 59.3094 17.8211L60.5459 15.6788C60.8174 15.2087 61.2081 14.818 61.6782 14.5465L63.8212 13.31Z" fill="white"/>
<path d="M10.1213 28L12.2427 30.1213L10.1213 32.2426L8.00002 30.1213L10.1213 28Z" fill="white"/>
<path d="M61.1213 52L63.2427 54.1213L61.1213 56.2426L59 54.1213L61.1213 52Z" fill="white"/>
<defs>
<linearGradient id="paint0_linear_507_379" x1="36" y1="0" x2="36" y2="72" gradientUnits="userSpaceOnUse">
<stop stop-color="#FFC223"/>
<stop offset="1" stop-color="#FFA101"/>
</linearGradient>
<linearGradient id="paint1_linear_507_379" x1="49.6514" y1="16.9298" x2="45.9926" y2="20.9273" gradientUnits="userSpaceOnUse">
<stop stop-color="#5EEAD4"/>
<stop offset="1" stop-color="#2DD4BF"/>
</linearGradient>
<linearGradient id="paint2_linear_507_379" x1="22.8219" y1="54.7772" x2="22.8219" y2="56.6077" gradientUnits="userSpaceOnUse">
<stop stop-color="#C7D2FE"/>
<stop offset="1" stop-color="#E8EEFF" stop-opacity="0"/>
</linearGradient>
<linearGradient id="paint3_linear_507_379" x1="51.2026" y1="20.9121" x2="51.2026" y2="21.7165" gradientUnits="userSpaceOnUse">
<stop stop-color="#C7D2FE"/>
<stop offset="1" stop-color="#E8EEFF" stop-opacity="0"/>
</linearGradient>
</defs>
</svg>
