<svg width="72" height="72" viewBox="0 0 72 72" fill="none" xmlns="http://www.w3.org/2000/svg">
<g clip-path="url(#clip0_2_7736)">
<rect width="72" height="72" rx="12" fill="url(#paint0_linear_2_7736)"/>
<path d="M53.8734 49.0281L64.0822 59.2798L54.2484 62.3599L50.168 58.9609L53.8734 49.0281Z" fill="url(#paint1_radial_2_7736)"/>
<path d="M53.8659 54.2343L53.8743 49.0385L31.1113 49C30.4492 48.9989 29.7934 49.1283 29.1813 49.3807C28.5692 49.6332 28.0129 50.0038 27.5441 50.4713C27.0753 50.9388 26.7032 51.4941 26.449 52.1055C26.1949 52.7169 26.0637 53.3724 26.063 54.0345L25.9999 92.7447C25.9984 93.4069 26.1275 94.0629 26.3798 94.6752C26.6321 95.2875 27.0027 95.844 27.4703 96.3129C27.9379 96.7818 28.4934 97.1539 29.105 97.4078C29.7165 97.6618 30.3722 97.7927 31.0344 97.7931L58.9932 97.8399C59.6553 97.841 60.3111 97.7117 60.9232 97.4592C61.5353 97.2068 62.0916 96.8362 62.5604 96.3687C63.0292 95.9011 63.4014 95.3458 63.6555 94.7344C63.9096 94.1231 64.0408 93.4676 64.0415 92.8055L64.0862 59.2911L58.8934 59.2837C58.2317 59.2825 57.5767 59.1509 56.9659 58.8964C56.355 58.6419 55.8003 58.2696 55.3335 57.8007C54.8666 57.3317 54.4967 56.7754 54.2449 56.1635C53.9931 55.5516 53.8643 54.896 53.8659 54.2343Z" fill="url(#paint2_linear_2_7736)"/>
<path d="M64.086 60.4377L58.8976 59.2794L64.0864 59.2889L64.086 60.4377Z" fill="url(#paint3_radial_2_7736)"/>
<path d="M43 49V53.4245C43 56.8218 39.0325 58.6724 36.4296 56.4893L28.4206 49.7721C29.1226 49.27 29.9641 49 30.8272 49H43Z" fill="url(#paint4_linear_2_7736)"/>
<path d="M41.4614 57.4531L24.5429 57.4354C24.3197 57.435 24.0987 57.4786 23.8924 57.5637C23.6861 57.6487 23.4986 57.7736 23.3405 57.9311C23.1825 58.0886 23.057 58.2757 22.9713 58.4818C22.8856 58.6878 22.8413 58.9087 22.8409 59.1318L22.851 62.2022L22.8449 63.8654C22.8467 64.361 22.9927 64.8454 23.265 65.2595L41.4548 65.2903C41.6777 65.291 41.8986 65.2477 42.1048 65.1629C42.311 65.0782 42.4984 64.9536 42.6564 64.7963C42.8144 64.639 42.9398 64.4521 43.0255 64.2463C43.1112 64.0405 43.1555 63.8199 43.1558 63.5969L43.1631 59.1801C43.1672 58.9543 43.1262 58.7299 43.0425 58.5202C42.9588 58.3104 42.834 58.1195 42.6755 57.9587C42.517 57.7978 42.3279 57.6702 42.1195 57.5834C41.911 57.4966 41.6873 57.4523 41.4614 57.4531Z" fill="#EF4444"/>
<path d="M23.2512 65.2453C23.447 65.5472 23.7049 65.804 24.0076 65.9985L26.0337 67.2972L26.0381 65.2571L23.2512 65.2453Z" fill="url(#paint5_linear_2_7736)"/>
<path d="M26.1157 63.0227L26.1338 59.8648C26.122 59.7747 26.1306 59.6832 26.1588 59.5969C26.187 59.5105 26.2342 59.4316 26.2969 59.3659C26.3595 59.3002 26.4361 59.2494 26.521 59.2171C26.6059 59.1848 26.6969 59.172 26.7874 59.1795L28.1688 59.1815C28.3878 59.1649 28.6079 59.1953 28.8141 59.2706C29.0204 59.346 29.2082 59.4647 29.3649 59.6186C29.5216 59.7725 29.6436 59.9581 29.7226 60.163C29.8017 60.368 29.836 60.5874 29.8233 60.8067C29.8184 61.8042 29.113 62.4228 28.0744 62.4213L27.4358 62.4188L27.436 63.0283C27.443 63.1186 27.4313 63.2093 27.4016 63.2948C27.3718 63.3803 27.3247 63.4588 27.2632 63.5252C27.2017 63.5916 27.1271 63.6446 27.0441 63.6808C26.9611 63.7169 26.8715 63.7356 26.7809 63.7354C26.6904 63.7353 26.6009 63.7165 26.518 63.6801C26.4351 63.6437 26.3606 63.5905 26.2993 63.5239C26.2379 63.4573 26.191 63.3788 26.1615 63.2932C26.132 63.2076 26.1205 63.1168 26.1278 63.0265L26.1157 63.0227ZM27.7949 61.4488C27.885 61.4624 27.977 61.4555 28.0641 61.4286C28.1511 61.4018 28.231 61.3556 28.2977 61.2935C28.3645 61.2314 28.4163 61.1551 28.4495 61.0702C28.4826 60.9853 28.4961 60.894 28.489 60.8032C28.4967 60.7131 28.4839 60.6224 28.4516 60.5379C28.4193 60.4534 28.3682 60.3774 28.3023 60.3155C28.2364 60.2535 28.1573 60.2073 28.0709 60.1803C27.9846 60.1533 27.8933 60.1462 27.8038 60.1596L27.4269 60.1614L27.4229 61.4456L27.7949 61.4488Z" fill="white"/>
<path d="M31.4169 62.9518L31.4117 59.8663C31.4 59.776 31.4087 59.6843 31.4372 59.5979C31.4656 59.5115 31.5131 59.4325 31.5761 59.3669C31.6391 59.3012 31.716 59.2505 31.8012 59.2185C31.8864 59.1865 31.9777 59.174 32.0683 59.182L33.3174 59.1813C34.6717 59.1846 35.4625 59.9555 35.4599 61.38C35.4573 62.8045 34.6588 63.6396 33.3105 63.6383L32.0594 63.6349C31.9699 63.6412 31.8801 63.6275 31.7965 63.5948C31.7129 63.562 31.6376 63.5111 31.5761 63.4458C31.5146 63.3804 31.4685 63.3021 31.4409 63.2167C31.4134 63.1313 31.4052 63.0408 31.4169 62.9518ZM33.1356 62.5995C33.8002 62.6038 34.135 62.2054 34.1367 61.3834C34.1361 60.6306 33.7671 60.2253 33.1405 60.2267L32.7285 60.2238L32.7256 62.6007L33.1356 62.5995Z" fill="white"/>
<path d="M37.12 63.0402L37.138 59.8823C37.1282 59.795 37.1374 59.7066 37.165 59.6232C37.1926 59.5398 37.2379 59.4634 37.2978 59.3992C37.3577 59.3349 37.4308 59.2844 37.5121 59.2511C37.5934 59.2178 37.6809 59.2025 37.7687 59.2063L39.7295 59.2084C39.8035 59.1996 39.8785 59.2066 39.9496 59.2289C40.0206 59.2513 40.0862 59.2885 40.1418 59.338C40.1974 59.3876 40.2419 59.4484 40.2722 59.5164C40.3026 59.5844 40.3182 59.6581 40.3179 59.7326C40.3177 59.8071 40.3016 59.8807 40.2708 59.9486C40.24 60.0164 40.1951 60.0769 40.1392 60.1261C40.0832 60.1753 40.0175 60.212 39.9463 60.2339C39.8751 60.2558 39.8 60.2623 39.7261 60.253L38.4358 60.237L38.4344 61.0891L39.6063 61.0903C39.6758 61.0821 39.7463 61.0893 39.8128 61.1114C39.8793 61.1335 39.9401 61.1699 39.991 61.218C40.0418 61.2662 40.0815 61.3249 40.1072 61.39C40.1329 61.4552 40.144 61.5252 40.1397 61.5951C40.1434 61.6648 40.1316 61.7344 40.1052 61.799C40.0788 61.8636 40.0384 61.9215 39.9869 61.9686C39.9354 62.0157 39.8742 62.0508 39.8075 62.0714C39.7408 62.092 39.6704 62.0976 39.6014 62.0877L38.4274 62.0826L38.4273 63.055C38.4307 63.1434 38.4162 63.2315 38.3847 63.3141C38.3532 63.3967 38.3054 63.4721 38.244 63.5358C38.1826 63.5994 38.109 63.65 38.0276 63.6845C37.9462 63.719 37.8587 63.7367 37.7703 63.7365C37.6818 63.7363 37.5944 63.7183 37.5131 63.6834C37.4318 63.6486 37.3585 63.5977 37.2974 63.5338C37.2363 63.4699 37.1887 63.3943 37.1575 63.3116C37.1264 63.2288 37.1123 63.1406 37.1161 63.0523L37.12 63.0402Z" fill="white"/>
<path d="M9 19C9 17.3431 10.3431 16 12 16H29.3469L48 16C49.6569 16 51 17.3431 51 19V44C51 45.6569 49.6569 47 48 47H40.1734V53.8683C40.1734 54.7156 39.1857 55.1789 38.5342 54.6373L29.3469 47H12C10.3431 47 9 45.6569 9 44V19Z" fill="url(#paint6_radial_2_7736)" stroke="url(#paint7_radial_2_7736)" stroke-width="2"/>
<circle cx="51" cy="16" r="7" fill="#4F46E5" stroke="white" stroke-width="2"/>
<path d="M50.4111 16.6716C50.4111 16.4925 50.4355 16.3324 50.4844 16.1913C50.5332 16.0502 50.6119 15.9172 50.7205 15.7924C50.8345 15.6676 50.9837 15.54 51.1682 15.4098C51.3311 15.2904 51.4613 15.1845 51.559 15.0923C51.6621 15 51.7354 14.9077 51.7788 14.8155C51.8277 14.7232 51.8521 14.6201 51.8521 14.5061C51.8521 14.3324 51.787 14.2022 51.6567 14.1153C51.5319 14.0231 51.3555 13.9769 51.1275 13.9769C50.8996 13.9769 50.6744 14.0122 50.4518 14.0828C50.2293 14.1533 50.0014 14.2483 49.768 14.3677L49.3365 13.4966C49.6024 13.3501 49.8901 13.2307 50.1995 13.1384C50.5088 13.0461 50.848 13 51.2171 13C51.7815 13 52.2185 13.1357 52.5278 13.4071C52.8426 13.6784 53 14.0231 53 14.441C53 14.6635 52.9647 14.8562 52.8942 15.019C52.8236 15.1818 52.7178 15.3338 52.5767 15.4749C52.4355 15.6106 52.2592 15.7571 52.0475 15.9145C51.8901 16.0285 51.768 16.1262 51.6811 16.2076C51.5943 16.289 51.5346 16.3677 51.502 16.4437C51.4749 16.5197 51.4613 16.6147 51.4613 16.7286V16.9647H50.4111V16.6716ZM50.2809 18.3243C50.2809 18.0746 50.3487 17.9009 50.4844 17.8033C50.6201 17.7001 50.7856 17.6486 50.981 17.6486C51.171 17.6486 51.3338 17.7001 51.4695 17.8033C51.6052 17.9009 51.673 18.0746 51.673 18.3243C51.673 18.5631 51.6052 18.7368 51.4695 18.8453C51.3338 18.9484 51.171 19 50.981 19C50.7856 19 50.6201 18.9484 50.4844 18.8453C50.3487 18.7368 50.2809 18.5631 50.2809 18.3243Z" fill="white"/>
<path d="M17.141 23.3077C17.141 24.0299 16.5556 24.6154 15.8333 24.6154C15.1111 24.6154 14.5256 24.0299 14.5256 23.3077C14.5256 22.5855 15.1111 22 15.8333 22C16.5556 22 17.141 22.5855 17.141 23.3077Z" fill="#80A1FF"/>
<path d="M17.141 39.6923C17.141 40.4145 16.5556 41 15.8333 41C15.1111 41 14.5256 40.4145 14.5256 39.6923C14.5256 38.9701 15.1111 38.3846 15.8333 38.3846C16.5556 38.3846 17.141 38.9701 17.141 39.6923Z" fill="#80A1FF"/>
<path d="M34.1411 23.3077C34.1411 24.0299 33.5557 24.6154 32.8335 24.6154C32.1112 24.6154 31.5258 24.0299 31.5258 23.3077C31.5258 22.5855 32.1112 22 32.8335 22C33.5557 22 34.1411 22.5855 34.1411 23.3077Z" fill="#80A1FF"/>
<path d="M34.1411 39.6923C34.1411 40.4145 33.5557 41 32.8335 41C32.1112 41 31.5258 40.4145 31.5258 39.6923C31.5258 38.9701 32.1112 38.3846 32.8335 38.3846C33.5557 38.3846 34.1411 38.9701 34.1411 39.6923Z" fill="#80A1FF"/>
<path d="M28.4743 28.9744C28.4743 29.6966 27.8888 30.2821 27.1666 30.2821C26.4444 30.2821 25.8589 29.6966 25.8589 28.9744C25.8589 28.2522 26.4444 27.6667 27.1666 27.6667C27.8888 27.6667 28.4743 28.2522 28.4743 28.9744Z" fill="#80A1FF"/>
<path d="M45.4744 28.9744C45.4744 29.6966 44.8889 30.2821 44.1667 30.2821C43.4445 30.2821 42.859 29.6966 42.859 28.9744C42.859 28.2522 43.4445 27.6667 44.1667 27.6667C44.8889 27.6667 45.4744 28.2522 45.4744 28.9744Z" fill="#80A1FF"/>
<path d="M22.8078 34.2052C22.8078 34.9274 22.2223 35.5129 21.5001 35.5129C20.7779 35.5129 20.1924 34.9274 20.1924 34.2052C20.1924 33.4829 20.7779 32.8975 21.5001 32.8975C22.2223 32.8975 22.8078 33.4829 22.8078 34.2052Z" fill="#80A1FF"/>
<path d="M39.8078 34.2052C39.8078 34.9274 39.2223 35.5129 38.5001 35.5129C37.7779 35.5129 37.1924 34.9274 37.1924 34.2052C37.1924 33.4829 37.7779 32.8975 38.5001 32.8975C39.2223 32.8975 39.8078 33.4829 39.8078 34.2052Z" fill="#80A1FF"/>
<circle cx="21.5001" cy="23.3077" r="1.3077" fill="#A9BEFD"/>
<circle cx="21.5001" cy="39.6923" r="1.3077" fill="#A9BEFD"/>
<circle cx="38.5001" cy="23.3077" r="1.3077" fill="#A9BEFD"/>
<circle cx="38.5001" cy="39.6923" r="1.3077" fill="#A9BEFD"/>
<circle cx="15.8333" cy="28.9744" r="1.3077" fill="#A9BEFD"/>
<circle cx="32.8335" cy="28.9744" r="1.3077" fill="#A9BEFD"/>
<circle cx="15.8333" cy="34.2052" r="1.3077" fill="#A9BEFD"/>
<circle cx="32.8335" cy="34.2052" r="1.3077" fill="#A9BEFD"/>
<path d="M28.4743 23.3077C28.4743 24.0299 27.8888 24.6154 27.1666 24.6154C26.4444 24.6154 25.8589 24.0299 25.8589 23.3077C25.8589 22.5855 26.4444 22 27.1666 22C27.8888 22 28.4743 22.5855 28.4743 23.3077Z" fill="#4B79FE"/>
<path d="M28.4743 39.6923C28.4743 40.4145 27.8888 41 27.1666 41C26.4444 41 25.8589 40.4145 25.8589 39.6923C25.8589 38.9701 26.4444 38.3846 27.1666 38.3846C27.8888 38.3846 28.4743 38.9701 28.4743 39.6923Z" fill="#4B79FE"/>
<path d="M45.4744 39.6923C45.4744 40.4145 44.8889 41 44.1667 41C43.4445 41 42.859 40.4145 42.859 39.6923C42.859 38.9701 43.4445 38.3846 44.1667 38.3846C44.8889 38.3846 45.4744 38.9701 45.4744 39.6923Z" fill="#4B79FE"/>
<path d="M22.8078 28.9744C22.8078 29.6966 22.2223 30.2821 21.5001 30.2821C20.7779 30.2821 20.1924 29.6966 20.1924 28.9744C20.1924 28.2522 20.7779 27.6667 21.5001 27.6667C22.2223 27.6667 22.8078 28.2522 22.8078 28.9744Z" fill="#4B79FE"/>
<path d="M39.8078 28.9744C39.8078 29.6966 39.2223 30.2821 38.5001 30.2821C37.7779 30.2821 37.1924 29.6966 37.1924 28.9744C37.1924 28.2522 37.7779 27.6667 38.5001 27.6667C39.2223 27.6667 39.8078 28.2522 39.8078 28.9744Z" fill="#4B79FE"/>
<path d="M28.4743 34.2052C28.4743 34.9274 27.8888 35.5129 27.1666 35.5129C26.4444 35.5129 25.8589 34.9274 25.8589 34.2052C25.8589 33.4829 26.4444 32.8975 27.1666 32.8975C27.8888 32.8975 28.4743 33.4829 28.4743 34.2052Z" fill="#4B79FE"/>
<path d="M45.4744 34.2052C45.4744 34.9274 44.8889 35.5129 44.1667 35.5129C43.4445 35.5129 42.859 34.9274 42.859 34.2052C42.859 33.4829 43.4445 32.8975 44.1667 32.8975C44.8889 32.8975 45.4744 33.4829 45.4744 34.2052Z" fill="#4B79FE"/>
<path d="M66.8212 41.31C67.0598 41.1722 67.0598 40.8278 66.8212 40.6907L64.6789 39.4542C64.2088 39.1827 63.8181 38.792 63.5466 38.322L62.3101 36.1789C62.1723 35.9404 61.828 35.9404 61.6908 36.1789L60.4543 38.3212C60.1828 38.7913 59.7921 39.182 59.3221 39.4535L57.179 40.6907C56.9405 40.8286 56.9405 41.1729 57.179 41.31L59.3213 42.5465C59.7914 42.818 60.1821 43.2087 60.4536 43.6788L61.6901 45.8211C61.828 46.0596 62.1723 46.0596 62.3094 45.8211L63.5459 43.6788C63.8174 43.2087 64.2081 42.818 64.6782 42.5465L66.8212 41.31Z" fill="white"/>
<rect x="13.1213" y="57" width="3" height="3" transform="rotate(45 13.1213 57)" fill="white"/>
<rect x="36.1213" y="6" width="3" height="3" transform="rotate(45 36.1213 6)" fill="white"/>
</g>
<defs>
<linearGradient id="paint0_linear_2_7736" x1="36" y1="0" x2="36" y2="72" gradientUnits="userSpaceOnUse">
<stop stop-color="#4B7AFF"/>
<stop offset="1" stop-color="#1955FF"/>
</linearGradient>
<radialGradient id="paint1_radial_2_7736" cx="0" cy="0" r="1" gradientUnits="userSpaceOnUse" gradientTransform="translate(55.2165 58.4291) rotate(-48.1844) scale(7.80488 8.28101)">
<stop offset="0.270028" stop-color="white"/>
<stop offset="1" stop-color="#F1F5F9"/>
</radialGradient>
<linearGradient id="paint2_linear_2_7736" x1="53.5389" y1="48.4373" x2="37.0907" y2="99.5046" gradientUnits="userSpaceOnUse">
<stop stop-color="#E8EEFF"/>
<stop offset="1" stop-color="white"/>
</linearGradient>
<radialGradient id="paint3_radial_2_7736" cx="0" cy="0" r="1" gradientUnits="userSpaceOnUse" gradientTransform="translate(62.5741 57.6748) rotate(90.7504) scale(4.31148 14.4292)">
<stop stop-color="#697087"/>
<stop offset="0.540492" stop-color="#697087" stop-opacity="0"/>
</radialGradient>
<linearGradient id="paint4_linear_2_7736" x1="35.5001" y1="40" x2="35.5001" y2="54.5" gradientUnits="userSpaceOnUse">
<stop stop-color="#1854FF"/>
<stop offset="1" stop-color="#1854FF" stop-opacity="0"/>
</linearGradient>
<linearGradient id="paint5_linear_2_7736" x1="25.0572" y1="65.0729" x2="25.0392" y2="68.2308" gradientUnits="userSpaceOnUse">
<stop stop-color="#991B1B"/>
<stop offset="0.301832" stop-color="#DC2626"/>
</linearGradient>
<radialGradient id="paint6_radial_2_7736" cx="0" cy="0" r="1" gradientUnits="userSpaceOnUse" gradientTransform="translate(37 16) rotate(99.9262) scale(40.6079 42.6383)">
<stop stop-color="#CBD8FF"/>
<stop offset="1" stop-color="#EFF6FF"/>
</radialGradient>
<radialGradient id="paint7_radial_2_7736" cx="0" cy="0" r="1" gradientUnits="userSpaceOnUse" gradientTransform="translate(51 16) rotate(133.152) scale(21.9317 23.0283)">
<stop stop-color="#CBD8FF"/>
<stop offset="0.705948" stop-color="white"/>
</radialGradient>
<clipPath id="clip0_2_7736">
<rect width="72" height="72" rx="12" fill="white"/>
</clipPath>
</defs>
</svg>
