<svg width="72" height="72" viewBox="0 0 72 72" fill="none" xmlns="http://www.w3.org/2000/svg">
<g clip-path="url(#clip0_590_42)">
<rect width="72" height="72" rx="12" fill="url(#paint0_linear_590_42)"/>
<path d="M-0.999936 36.4999L42.7033 22.9999L56.7033 73.4999L-1.00006 73.4999L-0.999936 36.4999Z" fill="url(#paint1_linear_590_42)"/>
<rect width="41.0441" height="3.01922" rx="1.50961" transform="matrix(0.950053 -0.312088 0.347395 0.937719 -5.05017 46.1248)" fill="#80A1FF"/>
<rect width="41.0441" height="3.01922" rx="1.50961" transform="matrix(0.950053 -0.312088 0.347395 0.937719 2 73.8093)" fill="#80A1FF"/>
<rect width="44.7782" height="3.01922" rx="1.50961" transform="matrix(0.950053 -0.312088 0.347395 0.937719 -6 55.9746)" fill="#80A1FF"/>
<rect width="44.7782" height="3.01922" rx="1.50961" transform="matrix(0.950053 -0.312088 0.347395 0.937719 2 83.9746)" fill="#80A1FF"/>
<rect width="44.7782" height="3.01922" rx="1.50961" transform="matrix(0.950053 -0.312088 0.347395 0.937719 -4 64.9746)" fill="#80A1FF"/>
<path d="M61.3867 19.074L66.213 19.612C66.5096 19.6451 66.7457 19.8758 66.7856 20.1716L67.3449 24.3222C67.3848 24.618 67.2182 24.903 66.9409 25.0134L62.4293 26.8098L61.3867 19.074Z" fill="url(#paint2_linear_590_42)"/>
<rect x="36.5283" y="9.95288" width="23.4174" height="32.5242" rx="5.20387" transform="rotate(-7.67528 36.5283 9.95288)" fill="url(#paint3_linear_590_42)"/>
<path d="M36.0192 16.9756C36.0207 15.9997 36.7429 15.175 37.71 15.0447L59.9442 12.0483C60.9113 11.918 61.826 12.5221 62.0858 13.4627L65.0572 24.2205C65.372 25.3603 64.6087 26.516 63.4368 26.674L38.2138 30.0732C37.0418 30.2311 35.9998 29.3187 36.0017 28.1362L36.0192 16.9756Z" fill="#040064"/>
<path d="M36.5652 16.8896C36.5729 15.9185 37.2935 15.1008 38.2559 14.9711L59.3982 12.1218C60.3607 11.9921 61.272 12.5898 61.5365 13.5243L64.2211 23.0079C64.5446 24.1506 63.781 25.3148 62.6041 25.4734L38.699 28.695C37.5221 28.8536 36.4775 27.9331 36.4869 26.7456L36.5652 16.8896Z" fill="url(#paint4_linear_590_42)"/>
<path fill-rule="evenodd" clip-rule="evenodd" d="M53.6873 15.5169L49.1746 16.1251L50.1303 23.2163L54.6429 22.6082L53.6873 15.5169ZM55.2876 22.5213L60.4448 21.8263L59.4891 14.735L54.3319 15.4301L55.2876 22.5213ZM44.0175 16.8201L48.53 16.212L49.4856 23.3032L44.9731 23.9113L44.0175 16.8201ZM43.3728 16.907L38.8601 17.5151L39.8158 24.6064L44.3285 23.9982L43.3728 16.907Z" fill="url(#paint5_linear_590_42)"/>
<path d="M42.032 21.9165L41.6804 19.3072L41.1585 19.3775L41.5101 21.9869L42.032 21.9165ZM41.0586 22.5791L40.9883 22.0572L40.4664 22.1275L40.1148 19.5182L40.6366 19.4479L40.5663 18.926L42.1319 18.715L42.2022 19.2369L42.7241 19.1666L43.0757 21.7759L42.5539 21.8462L42.6242 22.3681L41.0586 22.5791Z" fill="white"/>
<path d="M45.7171 18.7632L46.239 18.6929L46.1686 18.171L47.2124 18.0303L47.7047 21.6834L46.661 21.8241L46.3093 19.2147L45.7874 19.2851L45.7171 18.7632Z" fill="white"/>
<path d="M50.6402 19.6938L51.1621 19.6234L51.0918 19.1016L52.1355 18.9609L51.9948 17.9172L50.4292 18.1282L50.3589 17.6063L52.4464 17.325L52.5167 17.8468L53.0386 17.7765L53.1792 18.8202L52.6574 18.8906L52.7277 19.4124L51.684 19.5531L51.8246 20.5968L53.3902 20.3858L53.4605 20.9077L50.8512 21.2593L50.6402 19.6938Z" fill="white"/>
<path d="M55.8385 16.8678L57.9259 16.5865L57.9963 17.1084L58.5181 17.0381L58.6588 18.0818L58.1369 18.1521L58.2073 18.674L58.7291 18.6036L58.8698 19.6474L58.3479 19.7177L58.4182 20.2396L56.3308 20.5209L56.2605 19.999L57.8261 19.788L57.6854 18.7443L56.6417 18.885L56.5713 18.3631L57.6151 18.2224L57.4744 17.1787L55.9088 17.3897L55.8385 16.8678Z" fill="white"/>
<ellipse cx="48.0886" cy="8.06694" rx="3.9029" ry="2.92718" transform="rotate(-7.67528 48.0886 8.06694)" fill="#9CA4BA"/>
<ellipse cx="48.0018" cy="7.42217" rx="3.9029" ry="2.92718" transform="rotate(-7.67528 48.0018 7.42217)" fill="white"/>
<path d="M21.8211 15.31C22.0597 15.1722 22.0597 14.8278 21.8211 14.6907L19.6788 13.4542C19.2087 13.1827 18.818 12.792 18.5466 12.322L17.31 10.1789C17.1722 9.94035 16.8279 9.94035 16.6907 10.1789L15.4542 12.3212C15.1827 12.7913 14.792 13.182 14.322 13.4535L12.179 14.6907C11.9404 14.8286 11.9404 15.1729 12.179 15.31L14.3213 16.5465C14.7913 16.818 15.182 17.2087 15.4535 17.6788L16.69 19.8211C16.8279 20.0596 17.1722 20.0596 17.3093 19.8211L18.5458 17.6788C18.8173 17.2087 19.208 16.818 19.6781 16.5465L21.8211 15.31Z" fill="white"/>
<rect x="62.1213" y="48" width="3" height="3" transform="rotate(45 62.1213 48)" fill="white"/>
</g>
<defs>
<linearGradient id="paint0_linear_590_42" x1="36" y1="0" x2="36" y2="72" gradientUnits="userSpaceOnUse">
<stop stop-color="#09CBB9"/>
<stop offset="1" stop-color="#02A6BE"/>
</linearGradient>
<linearGradient id="paint1_linear_590_42" x1="35" y1="51.9999" x2="70.5" y2="6.99988" gradientUnits="userSpaceOnUse">
<stop stop-color="#E8EEFF"/>
<stop offset="0.639678" stop-color="#A9BEFD"/>
</linearGradient>
<linearGradient id="paint2_linear_590_42" x1="71.9002" y1="21.5953" x2="61.908" y2="22.9419" gradientUnits="userSpaceOnUse">
<stop offset="0.34485" stop-color="#020040"/>
<stop offset="0.855901" stop-color="#4338CA"/>
</linearGradient>
<linearGradient id="paint3_linear_590_42" x1="48.237" y1="9.95288" x2="48.237" y2="42.4771" gradientUnits="userSpaceOnUse">
<stop stop-color="#F1F5F9"/>
<stop offset="1" stop-color="white"/>
</linearGradient>
<linearGradient id="paint4_linear_590_42" x1="48.8271" y1="13.5465" x2="50.6515" y2="27.0842" gradientUnits="userSpaceOnUse">
<stop stop-color="#4338CA"/>
<stop offset="1" stop-color="#312E81"/>
</linearGradient>
<linearGradient id="paint5_linear_590_42" x1="49.1746" y1="16.1251" x2="50.1303" y2="23.2163" gradientUnits="userSpaceOnUse">
<stop stop-color="#0D162F"/>
<stop offset="1"/>
</linearGradient>
<clipPath id="clip0_590_42">
<rect width="72" height="72" rx="12" fill="white"/>
</clipPath>
</defs>
</svg>
