<svg width="72" height="72" viewBox="0 0 72 72" fill="none" xmlns="http://www.w3.org/2000/svg">
<g clip-path="url(#clip0_42_139)">
<rect width="72" height="72" rx="12" fill="url(#paint0_linear_42_139)"/>
<path d="M37.3669 9.57393L6.10675 19.7288C4.8519 20.136 4.16655 21.485 4.57375 22.7398L14.7286 54C15.1358 55.2548 16.4848 55.9402 17.7396 55.533L48.9998 45.3781C50.2546 44.9709 50.94 43.6219 50.5328 42.3671L40.3779 11.1069C39.9707 9.85207 38.6243 9.16486 37.3669 9.57393Z" fill="white"/>
<path d="M36.5978 13.4375L8.93395 22.4254C8.49623 22.5687 8.25851 23.0381 8.39986 23.4732L15.431 45.1194C15.5742 45.5571 16.0436 45.7948 16.4788 45.6535L43.5219 36.8702C43.9596 36.7269 44.6437 35.5122 44.5024 35.077L37.6475 13.9741C37.5043 13.5364 37.0348 13.2987 36.5997 13.44L36.5978 13.4375Z" fill="url(#paint1_linear_42_139)"/>
<path d="M35.7925 22.1475C37.6684 27.9738 34.4669 34.2177 28.6406 36.0935C22.8156 37.9715 16.5701 34.7697 14.6942 28.9433L35.7925 22.1475Z" fill="url(#paint2_radial_42_139)"/>
<path d="M34.4734 22.5719C36.1159 27.669 33.3133 33.1319 28.2162 34.7744C23.1191 36.4169 17.6562 33.6143 16.0137 28.5171L34.4734 22.5719Z" fill="#F0FDFA"/>
<path d="M34.1191 22.6868C35.6983 27.5885 33.0045 32.8429 28.1028 34.4221C23.201 36.0013 17.9466 33.3075 16.3675 28.4058L34.1191 22.6868Z" fill="url(#paint3_linear_42_139)"/>
<path d="M27.3321 30.1191L27.6852 30.3001C28.0154 30.4695 28.146 30.8751 27.9767 31.2053C27.8074 31.5355 27.4018 31.6661 27.0716 31.4968C26.7413 31.3275 26.6107 30.9219 26.78 30.5917L26.9611 30.2386C27.0307 30.1029 27.1964 30.0495 27.3321 30.1191Z" fill="#0D162F"/>
<path d="M30.2049 26.4152L30.5866 26.2922C30.9435 26.1773 31.3266 26.3737 31.4416 26.7306C31.5565 27.0876 31.3601 27.4707 31.0032 27.5856C30.6462 27.7006 30.2631 27.5041 30.1482 27.1472L30.0252 26.7656C29.978 26.6189 30.0583 26.4624 30.2049 26.4152Z" fill="#0D162F"/>
<path d="M22.0141 29.4554L22.1358 29.8333C22.2496 30.1867 22.0551 30.566 21.7017 30.6799C21.3483 30.7937 20.969 30.5992 20.8552 30.2458C20.7414 29.8924 20.9359 29.5131 21.2893 29.3992L21.6671 29.2775C21.8123 29.2308 21.9673 29.3102 22.0141 29.4554Z" fill="#0D162F"/>
<path d="M17.8452 47.0735L42.7883 38.9523L43.5037 39.0955L43.0097 39.6325L43.4228 39.8742L43.2312 40.3128L43.9467 40.456L43.4527 40.993L43.8658 41.2347L43.6742 41.6733L43.785 42.0134L44.198 42.2551L44.0064 42.6937L44.4195 42.9354L44.2279 43.374L44.9434 43.5172L44.4494 44.0542L45.1648 44.1975L19.1636 52.6633L20.1269 51.5137L19.7261 51.3098L19.93 50.909L19.3781 50.7543L19.7331 50.3043L19.524 49.6618L19.4194 49.3406L19.0124 49.1178L19.2102 48.6981L18.8032 48.4753L19.001 48.0557L18.8964 47.7344L18.4429 47.8821L18.8472 47.5832L18.7487 47.2809L17.8452 47.0735Z" fill="#FDE68A"/>
<path d="M25.1688 47.8496L27.7479 47.0099L28.6651 46.138L29.5034 46.8682L30.1069 45.9552L30.87 45.9933L32.4146 45.2038L33.1777 45.242L34.7222 44.4525L36.4355 44.1813L38.4717 43.5183" stroke="black" stroke-width="1.58981" stroke-linecap="round" stroke-linejoin="round"/>
<path fill-rule="evenodd" clip-rule="evenodd" d="M47.5288 33.1196L42.3831 47.5276L48.9998 45.3781C50.2547 44.9709 50.94 43.6219 50.5328 42.3671L47.5288 33.1196Z" fill="url(#paint4_linear_42_139)"/>
<path d="M59.8211 15.31C60.0597 15.1722 60.0597 14.8278 59.8211 14.6907L57.6788 13.4542C57.2087 13.1827 56.818 12.792 56.5466 12.322L55.31 10.1789C55.1722 9.94035 54.8279 9.94035 54.6907 10.1789L53.4542 12.3212C53.1827 12.7913 52.792 13.182 52.322 13.4535L50.179 14.6907C49.9404 14.8286 49.9404 15.1729 50.179 15.31L52.3213 16.5465C52.7913 16.818 53.182 17.2087 53.4535 17.6788L54.69 19.8211C54.8279 20.0596 55.1722 20.0596 55.3093 19.8211L56.5458 17.6788C56.8173 17.2087 57.208 16.818 57.6781 16.5465L59.8211 15.31Z" fill="white"/>
<rect x="15.1213" y="6" width="3" height="3" transform="rotate(45 15.1213 6)" fill="white"/>
<rect x="34.1213" y="56" width="3" height="3" transform="rotate(45 34.1213 56)" fill="white"/>
<path d="M51.238 35.5832L55.3926 37.0178C55.7974 37.1576 56.0137 37.6019 55.8739 38.0067L54.3526 42.4126L48.7278 40.4703L50.2491 36.0645C50.3889 35.6597 50.8333 35.4434 51.238 35.5832Z" fill="#3F4861"/>
<path d="M56.8335 29.8139L57.0954 29.0556C57.1757 28.8229 57.0508 28.5663 56.8182 28.486L55.3806 27.9896C55.148 27.9093 54.8913 28.0341 54.811 28.2668L54.5492 29.0251C54.4399 29.3415 54.2439 29.6227 53.9863 29.8409L53.6203 30.1468C53.3361 30.3819 53.1195 30.6924 52.9974 31.046L51.4086 35.6473L55.2143 36.9614L56.8047 32.3555C56.9252 32.0065 56.9463 31.6285 56.8693 31.2635L56.77 30.797C56.7004 30.4709 56.7196 30.1287 56.8305 29.8076L56.8335 29.8139Z" fill="#3F4861"/>
<path d="M55.4226 28.0041L56.7765 28.4716L57.1077 25.3106L55.4226 28.0041Z" fill="#0D162F"/>
<path d="M42.6445 76.3196C40.568 76.6179 38.4744 75.895 37.0197 74.3773L48.9367 39.8655C51.0077 39.6433 53.0688 40.355 54.5615 41.8077L42.6445 76.3196Z" fill="#FCD34D"/>
<path d="M46.3603 65.5585L40.7355 63.6162L40.117 65.4074L45.7418 67.3497L46.3603 65.5585Z" fill="#14B8A6"/>
<path d="M45.4784 68.1127L39.8536 66.1704L39.2351 67.9616L44.8599 69.9039L45.4784 68.1127Z" fill="#EF4444"/>
<path d="M44.5981 70.6622L38.9733 68.72L38.3548 70.5111L43.9796 72.4534L44.5981 70.6622Z" fill="#1A4CDC"/>
</g>
<defs>
<linearGradient id="paint0_linear_42_139" x1="36" y1="0" x2="36" y2="72" gradientUnits="userSpaceOnUse">
<stop stop-color="#06CBB5"/>
<stop offset="1" stop-color="#00A4BA"/>
</linearGradient>
<linearGradient id="paint1_linear_42_139" x1="10.2602" y1="24.4327" x2="49.8882" y2="41.3266" gradientUnits="userSpaceOnUse">
<stop stop-color="#312E81"/>
<stop offset="1" stop-color="#0D162F"/>
</linearGradient>
<radialGradient id="paint2_radial_42_139" cx="0" cy="0" r="1" gradientUnits="userSpaceOnUse" gradientTransform="translate(25.5941 25.5076) rotate(70.8068) scale(11.5106 10.9225)">
<stop offset="0.514258" stop-color="#5EEAD4"/>
<stop offset="1" stop-color="#14B8A6"/>
</radialGradient>
<linearGradient id="paint3_linear_42_139" x1="23.2494" y1="20.8509" x2="27.2444" y2="36.1847" gradientUnits="userSpaceOnUse">
<stop offset="0.352399" stop-color="#FCA5A5"/>
<stop offset="1" stop-color="#F87171"/>
</linearGradient>
<linearGradient id="paint4_linear_42_139" x1="62" y1="49.5" x2="40.5" y2="42" gradientUnits="userSpaceOnUse">
<stop offset="0.328887" stop-color="#4B79FE"/>
<stop offset="0.829584" stop-color="#4B79FE" stop-opacity="0"/>
</linearGradient>
<clipPath id="clip0_42_139">
<rect width="72" height="72" rx="12" fill="white"/>
</clipPath>
</defs>
</svg>
