<svg width="72" height="72" viewBox="0 0 72 72" fill="none" xmlns="http://www.w3.org/2000/svg">
<rect width="72" height="72" rx="12" fill="url(#paint0_linear_78_321)"/>
<g clip-path="url(#clip0_78_321)">
<path d="M59.8982 35.7991L57.4247 34.1546C56.6702 33.6524 56.1494 32.8673 55.982 31.9773L53.2243 17.3888C52.8523 15.4227 51.1347 14 49.1341 14H21.9045C19.9039 14 18.1862 15.4227 17.8143 17.3888L15.0565 31.9773C14.8878 32.8673 14.3684 33.6524 13.6139 34.1546L11.1404 35.7991H28.1785V35.8018H28.1812H41.3988L59.9008 35.7991H59.8982Z" fill="url(#paint1_linear_78_321)"/>
<path d="M26.0889 16.4947H22.271C21.1133 16.4947 20.1748 17.4333 20.1748 18.591V22.4088C20.1748 23.5665 21.1133 24.505 22.271 24.505H26.0889C27.2466 24.505 28.1851 23.5665 28.1851 22.4088V18.591C28.1851 17.4333 27.2466 16.4947 26.0889 16.4947Z" fill="#0D162F"/>
<path d="M26.0053 17.2811H22.3522C21.5672 17.2811 20.9308 17.9175 20.9308 18.7025V22.3557C20.9308 23.1407 21.5672 23.7771 22.3522 23.7771H26.0053C26.7903 23.7771 27.4267 23.1407 27.4267 22.3557V18.7025C27.4267 17.9175 26.7903 17.2811 26.0053 17.2811Z" fill="#EFF6FF"/>
<path d="M24.1799 23.3041C25.7126 23.3041 26.955 22.0617 26.955 20.5291C26.955 18.9965 25.7126 17.7541 24.1799 17.7541C22.6473 17.7541 21.4049 18.9965 21.4049 20.5291C21.4049 22.0617 22.6473 23.3041 24.1799 23.3041Z" fill="white"/>
<path d="M24.1799 22.7396C25.4008 22.7396 26.3904 21.7499 26.3904 20.5291C26.3904 19.3083 25.4008 18.3186 24.1799 18.3186C22.9591 18.3186 21.9695 19.3083 21.9695 20.5291C21.9695 21.7499 22.9591 22.7396 24.1799 22.7396Z" fill="#EFF6FF"/>
<path d="M12.2216 35.4378H58.7783C59.7958 35.4378 60.6221 36.2641 60.6221 37.2816V46.5738C60.6221 49.2891 58.4183 51.4929 55.703 51.4929H15.2969C12.5816 51.4929 10.3778 49.2891 10.3778 46.5738V37.2816C10.3778 36.2641 11.2041 35.4378 12.2216 35.4378Z" fill="white"/>
<path d="M48.7993 16.4947H44.9815C43.8238 16.4947 42.8853 17.4333 42.8853 18.591V22.4088C42.8853 23.5665 43.8238 24.505 44.9815 24.505H48.7993C49.957 24.505 50.8955 23.5665 50.8955 22.4088V18.591C50.8955 17.4333 49.957 16.4947 48.7993 16.4947Z" fill="#0D162F"/>
<path d="M48.4645 25.1865H45.0558C44.5591 25.1865 44.1565 25.5891 44.1565 26.0858C44.1565 26.5825 44.5591 26.9852 45.0558 26.9852H48.4645C48.9612 26.9852 49.3638 26.5825 49.3638 26.0858C49.3638 25.5891 48.9612 25.1865 48.4645 25.1865Z" fill="#0D162F"/>
<path d="M47.965 18.0344H45.8157C45.0307 18.0344 44.3943 18.6707 44.3943 19.4558V21.6051C44.3943 22.3901 45.0307 23.0265 45.8157 23.0265H47.965C48.7501 23.0265 49.3864 22.3901 49.3864 21.6051V19.4558C49.3864 18.6707 48.7501 18.0344 47.965 18.0344Z" fill="#3F4861"/>
<path d="M46.8891 22.9667C48.2515 22.9667 49.3559 21.8623 49.3559 20.4999C49.3559 19.1375 48.2515 18.033 46.8891 18.033C45.5267 18.033 44.4222 19.1375 44.4222 20.4999C44.4222 21.8623 45.5267 22.9667 46.8891 22.9667Z" fill="#EFF6FF"/>
<path d="M45.117 26.4299C45.307 26.4299 45.4611 26.2758 45.4611 26.0858C45.4611 25.8958 45.307 25.7418 45.117 25.7418C44.927 25.7418 44.7729 25.8958 44.7729 26.0858C44.7729 26.2758 44.927 26.4299 45.117 26.4299Z" fill="#3F4861"/>
<path d="M46.2541 26.4299C46.4441 26.4299 46.5981 26.2758 46.5981 26.0858C46.5981 25.8958 46.4441 25.7418 46.2541 25.7418C46.0641 25.7418 45.91 25.8958 45.91 26.0858C45.91 26.2758 46.0641 26.4299 46.2541 26.4299Z" fill="#3F4861"/>
<path d="M47.3939 26.4299C47.5839 26.4299 47.7379 26.2758 47.7379 26.0858C47.7379 25.8958 47.5839 25.7418 47.3939 25.7418C47.2038 25.7418 47.0498 25.8958 47.0498 26.0858C47.0498 26.2758 47.2038 26.4299 47.3939 26.4299Z" fill="#3F4861"/>
<path d="M48.4951 26.4299C48.6851 26.4299 48.8391 26.2758 48.8391 26.0858C48.8391 25.8958 48.6851 25.7418 48.4951 25.7418C48.305 25.7418 48.151 25.8958 48.151 26.0858C48.151 26.2758 48.305 26.4299 48.4951 26.4299Z" fill="#3F4861"/>
<path d="M47.6754 20.1522C48.0293 20.1522 48.3162 19.8653 48.3162 19.5113C48.3162 19.1574 48.0293 18.8705 47.6754 18.8705C47.3215 18.8705 47.0345 19.1574 47.0345 19.5113C47.0345 19.8653 47.3215 20.1522 47.6754 20.1522Z" fill="white"/>
<path d="M24.18 22.179C25.0912 22.179 25.8299 21.4403 25.8299 20.5291C25.8299 19.6179 25.0912 18.8792 24.18 18.8792C23.2688 18.8792 22.5302 19.6179 22.5302 20.5291C22.5302 21.4403 23.2688 22.179 24.18 22.179Z" fill="white"/>
<path d="M55.1265 42.1516H15.8892V44.7792H55.1265V42.1516Z" fill="#0D162F"/>
<path d="M34.0925 14H33.1414V21.5095H34.0925V14Z" fill="#F87171"/>
<path d="M35.0437 14H34.0925V21.5095H35.0437V14Z" fill="#FBBF24"/>
<path d="M35.9948 14H35.0437V21.5095H35.9948V14Z" fill="#FDE68A"/>
<path d="M36.946 14H35.9949V21.5095H36.946V14Z" fill="#5EEAD4"/>
<path d="M37.8971 14H36.9459V21.5095H37.8971V14Z" fill="#A9BEFD"/>
<path d="M35.4992 29.8931C39.3217 29.8931 42.4204 26.737 42.4204 22.8438C42.4204 18.9505 39.3217 15.7944 35.4992 15.7944C31.6767 15.7944 28.578 18.9505 28.578 22.8438C28.578 26.737 31.6767 29.8931 35.4992 29.8931Z" fill="url(#paint2_radial_78_321)"/>
<path d="M27.4267 19.5979H20.9308V21.4603H27.4267V19.5979Z" fill="#EFF6FF"/>
<path d="M22.0758 30.4735C22.9489 30.4735 23.6566 29.7658 23.6566 28.8927C23.6566 28.0197 22.9489 27.3119 22.0758 27.3119C21.2027 27.3119 20.495 28.0197 20.495 28.8927C20.495 29.7658 21.2027 30.4735 22.0758 30.4735Z" fill="url(#paint3_radial_78_321)"/>
<path d="M22.0758 30.1059C22.7319 30.1059 23.2637 29.5741 23.2637 28.918C23.2637 28.2619 22.7319 27.73 22.0758 27.73C21.4197 27.73 20.8878 28.2619 20.8878 28.918C20.8878 29.5741 21.4197 30.1059 22.0758 30.1059Z" fill="#F87171"/>
<path d="M15.912 42.1516H14.5012L15.912 42.9752V42.1516Z" fill="#0D162F"/>
<path d="M55.1266 42.1516H56.536L55.1266 42.9752V42.1516Z" fill="#0D162F"/>
<path d="M17.2231 43.4654H53.8141V54.442C53.8141 56.7507 51.9397 58.6251 49.6309 58.6251H21.4063C19.0975 58.6251 17.2231 56.7507 17.2231 54.442V43.4654Z" fill="white"/>
<path d="M55.1252 44.7791H53.8141V51.4929H55.1252V44.7791Z" fill="url(#paint4_radial_78_321)"/>
<path d="M15.8892 44.7791H17.2003V51.4929H15.8892V44.7791Z" fill="url(#paint5_radial_78_321)"/>
<path d="M50.3203 43.4654H20.6796V51.3773H50.3203V43.4654Z" fill="url(#paint6_linear_78_321)"/>
<path d="M35.5192 29.1917C39.0254 29.1917 41.8677 26.3494 41.8677 22.8432C41.8677 19.3371 39.0254 16.4948 35.5192 16.4948C32.0131 16.4948 29.1708 19.3371 29.1708 22.8432C29.1708 26.3494 32.0131 29.1917 35.5192 29.1917Z" fill="#EFF6FF"/>
<path d="M35.5192 28.5952C38.6959 28.5952 41.2712 26.0199 41.2712 22.8432C41.2712 19.6665 38.6959 17.0912 35.5192 17.0912C32.3425 17.0912 29.7672 19.6665 29.7672 22.8432C29.7672 26.0199 32.3425 28.5952 35.5192 28.5952Z" fill="#3F4861"/>
<path d="M35.5353 26.0048C37.2814 26.0048 38.6969 24.5893 38.6969 22.8432C38.6969 21.0971 37.2814 19.6816 35.5353 19.6816C33.7892 19.6816 32.3737 21.0971 32.3737 22.8432C32.3737 24.5893 33.7892 26.0048 35.5353 26.0048Z" fill="#0D162F"/>
<path d="M35.4992 26.9452C37.7643 26.9452 39.6006 25.1089 39.6006 22.8438C39.6006 20.5786 37.7643 18.7423 35.4992 18.7423C33.234 18.7423 31.3977 20.5786 31.3977 22.8438C31.3977 25.1089 33.234 26.9452 35.4992 26.9452Z" stroke="white" stroke-width="0.512682" stroke-miterlimit="10"/>
<path d="M36.1463 21.8402C36.4926 21.8402 36.7733 21.5595 36.7733 21.2132C36.7733 20.8669 36.4926 20.5862 36.1463 20.5862C35.8 20.5862 35.5193 20.8669 35.5193 21.2132C35.5193 21.5595 35.8 21.8402 36.1463 21.8402Z" fill="white"/>
<path d="M37.2992 22.0369C37.4724 22.0369 37.6127 21.8965 37.6127 21.7233C37.6127 21.5502 37.4724 21.4098 37.2992 21.4098C37.1261 21.4098 36.9857 21.5502 36.9857 21.7233C36.9857 21.8965 37.1261 22.0369 37.2992 22.0369Z" fill="white"/>
</g>
<rect x="9.12134" y="20" width="3" height="3" transform="rotate(45 9.12134 20)" fill="white"/>
<path d="M64.8211 12.31C65.0597 12.1722 65.0597 11.8278 64.8211 11.6907L62.6788 10.4542C62.2087 10.1827 61.818 9.79199 61.5466 9.32195L60.31 7.17894C60.1722 6.94035 59.8279 6.94035 59.6907 7.17894L58.4542 9.32124C58.1827 9.79127 57.792 10.182 57.322 10.4535L55.179 11.6907C54.9404 11.8286 54.9404 12.1729 55.179 12.31L57.3213 13.5465C57.7913 13.818 58.182 14.2087 58.4535 14.6788L59.69 16.8211C59.8279 17.0596 60.1722 17.0596 60.3093 16.8211L61.5458 14.6788C61.8173 14.2087 62.208 13.818 62.6781 13.5465L64.8211 12.31Z" fill="white"/>
<defs>
<linearGradient id="paint0_linear_78_321" x1="36" y1="0" x2="36" y2="72" gradientUnits="userSpaceOnUse">
<stop stop-color="#FFB800"/>
<stop offset="1" stop-color="#FF7A00"/>
</linearGradient>
<linearGradient id="paint1_linear_78_321" x1="35.5193" y1="14" x2="35.5193" y2="35.8018" gradientUnits="userSpaceOnUse">
<stop offset="0.847376" stop-color="white"/>
<stop offset="1" stop-color="#EFF6FF"/>
</linearGradient>
<radialGradient id="paint2_radial_78_321" cx="0" cy="0" r="1" gradientUnits="userSpaceOnUse" gradientTransform="translate(35.4992 17.0761) rotate(90) scale(17.6875 17.3659)">
<stop offset="0.555039" stop-color="#4B79FE" stop-opacity="0"/>
<stop offset="1" stop-color="#4B79FE"/>
</radialGradient>
<radialGradient id="paint3_radial_78_321" cx="0" cy="0" r="1" gradientUnits="userSpaceOnUse" gradientTransform="translate(24.0921 29.8931) rotate(-147.653) scale(4.5514 4.5514)">
<stop stop-color="#DC2626"/>
<stop offset="0.547443" stop-color="#F87171"/>
</radialGradient>
<radialGradient id="paint4_radial_78_321" cx="0" cy="0" r="1" gradientUnits="userSpaceOnUse" gradientTransform="translate(49.598 41.5566) rotate(63.8819) scale(11.0663 13.5376)">
<stop stop-color="#80A1FF"/>
<stop offset="1" stop-color="#C2C2FF" stop-opacity="0"/>
</radialGradient>
<radialGradient id="paint5_radial_78_321" cx="0" cy="0" r="1" gradientUnits="userSpaceOnUse" gradientTransform="translate(21.2882 41.5566) rotate(116.118) scale(11.0663 13.5376)">
<stop stop-color="#80A1FF"/>
<stop offset="1" stop-color="#C2C2FF" stop-opacity="0"/>
</radialGradient>
<linearGradient id="paint6_linear_78_321" x1="35.5006" y1="51.3773" x2="35.5006" y2="43.4654" gradientUnits="userSpaceOnUse">
<stop offset="0.38" stop-color="#4F46E5"/>
<stop offset="1" stop-color="#312E81"/>
</linearGradient>
<clipPath id="clip0_78_321">
<rect width="50.2443" height="44.6238" fill="white" transform="translate(10.3778 14)"/>
</clipPath>
</defs>
</svg>
