<svg width="72" height="72" viewBox="0 0 72 72" fill="none" xmlns="http://www.w3.org/2000/svg">
<rect width="72" height="72" rx="12" fill="url(#paint0_linear_78_552)"/>
<rect x="35.0371" y="25.8226" width="28.806" height="28.806" rx="1.74582" transform="rotate(15.0069 35.0371 25.8226)" fill="white"/>
<rect x="37.5056" y="30.0993" width="21.8227" height="20.0769" transform="rotate(15.0069 37.5056 30.0993)" fill="url(#paint1_linear_78_552)"/>
<path d="M49.8782 40.8484C50.9232 40.7773 51.7115 39.868 51.6358 38.8258C51.5601 37.7835 50.6554 36.9925 49.6131 37.0682C48.5708 37.1439 47.7798 38.0485 47.8556 39.0908C47.9313 40.1331 48.8359 40.9241 49.8782 40.8484Z" fill="url(#paint2_radial_78_552)"/>
<path d="M34.154 42.6891L36.9678 41.5177C37.3875 41.3748 37.8435 41.3683 38.271 41.4958C38.6985 41.6233 39.0719 41.8799 39.3447 42.23L40.9238 44.2631L43.1504 43.954C43.9402 43.8459 44.7394 44.0425 45.3885 44.4979L48.1562 46.4398C48.6394 46.7789 49.1775 47.0309 49.7485 47.185L55.1267 48.63L53.6456 54.1411C53.5725 54.4148 53.3929 54.6497 53.1435 54.7918C52.897 54.9358 52.6046 54.97 52.3309 54.8969L32.9241 49.6792C32.7626 49.6363 32.6262 49.5316 32.5434 49.3845C32.4586 49.2402 32.4379 49.0687 32.4808 48.9072L34.1559 42.6863L34.154 42.6891Z" fill="#ECEFF7"/>
<path d="M43.0306 45.3811L49.7571 47.1908C49.186 47.0367 48.648 46.7847 48.1647 46.4456L45.4103 44.5086C44.7584 44.0512 43.9573 43.8575 43.1722 43.9647L40.9457 44.2737C41.3472 44.7399 41.879 45.0746 42.4719 45.2394L43.0335 45.383L43.0306 45.3811Z" fill="#E0E3ED"/>
<path fill-rule="evenodd" clip-rule="evenodd" d="M54.8789 49.5479L53.6418 54.1468C53.5686 54.4205 53.3891 54.6554 53.1397 54.7975C52.8932 54.9415 52.6007 54.9757 52.3271 54.9026L37.1173 50.8118C37.8656 50.5016 38.642 49.966 39.2075 49.0807C39.9567 47.9053 41.952 48.459 43.9815 49.0234C45.8409 49.5391 47.7269 50.0645 48.7249 49.281C50.0902 48.2115 50.9966 48.464 53.6332 49.2027C54.0095 49.308 54.4247 49.423 54.8789 49.5479Z" fill="#E0E3ED"/>
<path d="M51.3713 49.2517L54.7369 50.1561L53.6685 54.1318C53.5144 54.7028 52.9277 55.0436 52.3538 54.8875L39.4986 51.4318C40.1242 50.6782 40.9512 50.123 41.8831 49.8292C42.815 49.5355 43.8136 49.5106 44.7553 49.7662L45.8813 50.0677C46.3708 50.1708 46.8653 50.2483 47.3618 50.2982C47.785 50.3524 48.2146 50.3114 48.6219 50.1808C49.0292 50.0502 49.4028 49.8347 49.7178 49.5464C50.0033 49.2713 50.5179 49.031 51.3703 49.2593L51.3713 49.2517Z" fill="#80A1FF"/>
<path d="M51.3713 49.2517L54.7369 50.1561L53.6685 54.1318C53.5144 54.7028 52.9277 55.0436 52.3538 54.8875L39.4986 51.4318C40.1242 50.6782 40.9512 50.123 41.8831 49.8292C42.815 49.5355 43.8136 49.5106 44.7553 49.7662L45.8813 50.0677C46.3708 50.1708 46.8653 50.2483 47.3618 50.2982C47.785 50.3524 48.2146 50.3114 48.6219 50.1808C49.0292 50.0502 49.4028 49.8347 49.7178 49.5464C50.0033 49.2713 50.5179 49.031 51.3703 49.2593L51.3713 49.2517Z" fill="url(#paint3_linear_78_552)" fill-opacity="0.5"/>
<rect x="32.533" y="48.6483" width="0.87291" height="0.87291" transform="rotate(15.0069 32.533 48.6483)" fill="#ECEFF7"/>
<rect x="52.7683" y="54.073" width="0.87291" height="0.87291" transform="rotate(15.0069 52.7683 54.073)" fill="#6F94FF"/>
<path fill-rule="evenodd" clip-rule="evenodd" d="M53.0132 30.6416L36.7234 26.2747C35.7921 26.025 34.8348 26.5776 34.5851 27.5089L28.0303 51.9599C27.7806 52.8912 28.3332 53.8486 29.2645 54.0983L37.6567 56.348L44.9876 52.5726C46.9516 51.5612 47.7238 49.1491 46.7124 47.1851L44.0066 41.9312L49.474 42.185C51.1291 42.2618 52.5331 40.9824 52.6099 39.3274L53.0132 30.6416Z" fill="url(#paint4_linear_78_552)"/>
<rect x="22.7939" y="10" width="28.806" height="28.806" rx="1.74582" transform="rotate(2.65827 22.7939 10)" fill="white"/>
<rect x="26.1199" y="13.6498" width="21.8227" height="20.0769" transform="rotate(2.65827 26.1199 13.6498)" fill="#E8EEFF"/>
<path d="M32.948 22.9011C33.9536 22.6082 34.5292 21.5513 34.2323 20.5493C33.9354 19.5474 32.8825 18.9681 31.8806 19.265C30.8786 19.5619 30.2994 20.6147 30.5962 21.6167C30.8931 22.6187 31.946 23.1979 32.948 22.9011Z" fill="url(#paint5_radial_78_552)"/>
<path d="M25.7478 21.9341L27.7274 22.026C28.2085 22.0484 28.6901 21.9954 29.1549 21.8691L29.7543 21.7062C30.6929 21.4511 31.6887 21.5046 32.5946 21.8587C33.337 22.1489 34.1519 22.198 34.9238 21.9992L35.1516 21.9405C36.1007 21.6961 37.1025 21.7542 38.0169 22.107C38.7777 22.4004 39.6109 22.4504 40.4013 22.25L40.5315 22.217C41.5526 21.9581 42.6282 22.015 43.6163 22.3802L44.0875 22.5544C44.5616 22.7296 45.0599 22.8308 45.5649 22.8542L47.5471 22.9462L47.0006 34.7178L25.2013 33.7057L25.7478 21.9341Z" fill="url(#paint6_linear_78_552)"/>
<path d="M25.4443 28.4739C32.6554 27.3666 40.0144 27.6982 47.0967 29.4497L47.2436 29.486L47.0007 34.7178L25.2014 33.7057L25.4443 28.4739Z" fill="#FDE68A"/>
<path d="M25.3228 31.0898C32.1712 27.3738 40.5102 27.7349 47.0117 32.029L47.1221 32.1019L47.0006 34.7178L25.2014 33.7057L25.3228 31.0898Z" fill="#FEF3C7"/>
<path fill-rule="evenodd" clip-rule="evenodd" d="M42.8937 39.7703L23.2019 38.856C22.2387 38.8113 21.4942 37.9942 21.5389 37.0311L22.0287 26.4825L29.5551 22.6064C31.5191 21.5949 33.9312 22.3671 34.9426 24.3311L42.8937 39.7703Z" fill="url(#paint7_linear_78_552)"/>
<rect x="6.44531" y="37.2639" width="28.806" height="28.806" rx="1.74582" transform="rotate(-27.2481 6.44531 37.2639)" fill="white"/>
<rect x="11.1482" y="38.7695" width="21.8227" height="20.0769" transform="rotate(-27.2481 11.1482 38.7695)" fill="#E8EEFF"/>
<path d="M27.9335 39.1818C28.6592 38.4266 28.6312 37.2234 27.8743 36.5029C27.1174 35.7824 25.9159 35.8052 25.1954 36.5621C24.4748 37.319 24.4977 38.5205 25.2546 39.241C26.0115 39.9616 27.213 39.9387 27.9335 39.1818Z" fill="url(#paint8_radial_78_552)"/>
<path d="M37.8726 43.0046L39.3417 45.851L39.7413 46.6271L38.7481 47.1386L30.4552 51.407L27.8303 46.3066L28.4815 44.1849C28.6468 43.6383 28.923 43.1318 29.2951 42.697C29.6651 42.2649 30.122 41.9106 30.6352 41.6582C31.1464 41.4084 31.7069 41.264 32.2772 41.2378C32.8503 41.2137 33.418 41.3051 33.9531 41.5088L37.8726 43.0046Z" fill="url(#paint9_linear_78_552)"/>
<path d="M16.8543 46.4565L16.2051 48.5754L16.201 48.5809L20.0496 56.0476L20.3418 56.6151L20.9124 56.3212L35.5083 48.8071L22.3232 43.7783C21.7881 43.5747 21.2176 43.4812 20.6473 43.5073C20.077 43.5335 19.5185 43.6752 19.0053 43.9277C18.4941 44.1774 18.0399 44.5337 17.6678 44.9685C17.2958 45.4034 17.0196 45.9098 16.8543 46.4565Z" fill="#2DD4BF"/>
<path d="M6 57.2693L19.9668 49.4636L23.8052 50.1823L22.4061 53.8282L8.43928 61.6339L6 57.2693Z" fill="#F87171"/>
<path d="M9.85096 58.0104L11.5434 57.0645L12.0659 56.3262L12.7548 56.7222L13.0517 55.9984L13.5921 55.9196L14.5659 55.1522L15.1063 55.0733L16.0802 54.3059L17.2441 53.8785L18.5802 53.1318" stroke="#7F1D1D" stroke-width="1.13636" stroke-linecap="round" stroke-linejoin="round"/>
<path d="M58.9104 21.3186L42.9195 20.7796L40.0054 18.18L43.0879 15.7825L59.0788 16.3214L58.9104 21.3186Z" fill="#FBBF24"/>
<path d="M55.9971 18.6933L54.0595 18.628L53.2305 18.9899L52.8455 18.2947L52.2172 18.7608L51.7138 18.549L50.4835 18.7024L49.9801 18.4905L48.7498 18.644L47.5325 18.408L46.0028 18.3565" stroke="#92400E" stroke-width="1.13636" stroke-linecap="round" stroke-linejoin="round"/>
<path d="M64.131 60.4518L48.8628 55.6682L46.7475 52.3856L50.3577 50.8969L65.6259 55.6805L64.131 60.4518Z" fill="#FBBF24"/>
<path d="M62.0232 57.1448L60.1731 56.5651L59.2777 56.6929L59.092 55.9202L58.3622 56.2019L57.9335 55.8635L56.7068 55.6833L56.2782 55.3448L55.0515 55.1646L53.9412 54.6126L52.4806 54.155" stroke="#92400E" stroke-width="1.13636" stroke-linecap="round" stroke-linejoin="round"/>
<path d="M15.8211 21.31C16.0597 21.1722 16.0597 20.8278 15.8211 20.6907L13.6788 19.4542C13.2087 19.1827 12.818 18.792 12.5466 18.322L11.31 16.1789C11.1722 15.9404 10.8279 15.9404 10.6907 16.1789L9.45419 18.3212C9.18274 18.7913 8.792 19.182 8.32197 19.4535L6.17896 20.6907C5.94037 20.8286 5.94037 21.1729 6.17896 21.31L8.32125 22.5465C8.79128 22.818 9.18203 23.2087 9.45347 23.6788L10.69 25.8211C10.8279 26.0596 11.1722 26.0596 11.3093 25.8211L12.5458 23.6788C12.8173 23.2087 13.208 22.818 13.6781 22.5465L15.8211 21.31Z" fill="white"/>
<rect x="35.1213" y="62" width="3" height="3" transform="rotate(45 35.1213 62)" fill="white"/>
<rect x="64.1213" y="24" width="3" height="3" transform="rotate(45 64.1213 24)" fill="white"/>
<defs>
<linearGradient id="paint0_linear_78_552" x1="36" y1="0" x2="36" y2="72" gradientUnits="userSpaceOnUse">
<stop stop-color="#4F46E5"/>
<stop offset="1" stop-color="#0E00FF"/>
</linearGradient>
<linearGradient id="paint1_linear_78_552" x1="48.417" y1="30.0993" x2="48.417" y2="50.1762" gradientUnits="userSpaceOnUse">
<stop stop-color="#E8EEFF"/>
<stop offset="1" stop-color="#A9BEFD"/>
</linearGradient>
<radialGradient id="paint2_radial_78_552" cx="0" cy="0" r="1" gradientUnits="userSpaceOnUse" gradientTransform="translate(48.469 38.0058) rotate(39.5969) scale(4.31061 4.31061)">
<stop stop-color="#FBBF24"/>
<stop offset="1" stop-color="#F59E0B"/>
</radialGradient>
<linearGradient id="paint3_linear_78_552" x1="45.8009" y1="49.3128" x2="54.4367" y2="58.9852" gradientUnits="userSpaceOnUse">
<stop stop-color="#1854FF"/>
<stop offset="1" stop-color="#7E9FFE"/>
</linearGradient>
<linearGradient id="paint4_linear_78_552" x1="35.8607" y1="39.0387" x2="47.8607" y2="46.0387" gradientUnits="userSpaceOnUse">
<stop stop-color="#4B79FE"/>
<stop offset="1" stop-color="#4B79FE" stop-opacity="0"/>
</linearGradient>
<radialGradient id="paint5_radial_78_552" cx="0" cy="0" r="1" gradientUnits="userSpaceOnUse" gradientTransform="translate(30.9634 20.4256) rotate(27.2483) scale(4.31061 4.31061)">
<stop stop-color="#FBBF24"/>
<stop offset="1" stop-color="#F59E0B"/>
</radialGradient>
<linearGradient id="paint6_linear_78_552" x1="36.7487" y1="20.2603" x2="36.1009" y2="34.2118" gradientUnits="userSpaceOnUse">
<stop stop-color="#416FEF"/>
<stop offset="1" stop-color="#4C7AFF"/>
</linearGradient>
<linearGradient id="paint7_linear_78_552" x1="25.3607" y1="42.5387" x2="33.8607" y2="28.5387" gradientUnits="userSpaceOnUse">
<stop stop-color="#1854FF"/>
<stop offset="1" stop-color="#1854FF" stop-opacity="0"/>
</linearGradient>
<radialGradient id="paint8_radial_78_552" cx="0" cy="0" r="1" gradientUnits="userSpaceOnUse" gradientTransform="translate(24.979 38.0255) rotate(-2.65815) scale(4.31061 4.31061)">
<stop stop-color="#FBBF24"/>
<stop offset="1" stop-color="#F59E0B"/>
</radialGradient>
<linearGradient id="paint9_linear_78_552" x1="33.4631" y1="43.9691" x2="31.9809" y2="50.6237" gradientUnits="userSpaceOnUse">
<stop stop-color="#0D9488"/>
<stop offset="1" stop-color="#0F766E"/>
</linearGradient>
</defs>
</svg>
