<svg width="72" height="72" viewBox="0 0 72 72" fill="none" xmlns="http://www.w3.org/2000/svg">
<g clip-path="url(#clip0_2_5765)">
<rect width="72" height="72" rx="12" fill="url(#paint0_linear_2_5765)"/>
<path d="M33.6 31L4 43.8408L37 76.5L68 56.6815L33.6 31Z" fill="#3AC4FF"/>
<path d="M11.2386 46.8908C10.6407 46.4126 10.7597 45.4715 11.4577 45.157L33.3542 35.291C33.7144 35.1287 34.1383 35.2811 34.3127 35.6356C34.4927 36.0012 34.3397 36.4434 33.9724 36.6197L12.3219 47.0144C11.967 47.1848 11.5459 47.1367 11.2386 46.8908Z" fill="#F9FAFB"/>
<path d="M15.4934 50.4934C15.0085 50.0085 15.1487 49.1897 15.7674 48.8939L37.0965 38.693C37.3467 38.5733 37.6414 38.5943 37.8722 38.7481C38.3747 39.0831 38.3279 39.8361 37.7876 40.1062L16.6408 50.6796C16.2581 50.8709 15.7959 50.7959 15.4934 50.4934Z" fill="#F9FAFB"/>
<path d="M29.9 64.012C29.4314 63.4851 29.5546 62.6624 30.1569 62.2958L51.5469 49.2758C51.8233 49.1076 52.1721 49.1147 52.4413 49.2942C52.9407 49.6271 52.9343 50.3631 52.4292 50.6872L31.3548 64.2121C30.8867 64.5125 30.2696 64.4277 29.9 64.012Z" fill="#F9FAFB"/>
<path d="M35.4162 68.9324C34.7764 68.4917 34.7972 67.54 35.4557 67.1277L49.0324 58.6273C49.3263 58.4433 49.6903 58.4107 50.0122 58.5394C50.8379 58.8697 50.9386 59.9979 50.1845 60.4692L36.6011 68.9588C36.2361 69.1869 35.7706 69.1765 35.4162 68.9324Z" fill="#F9FAFB"/>
<path d="M19.4633 54.9632C18.9842 54.4842 19.1046 53.6784 19.7027 53.3602L41.5757 41.7257C41.837 41.5867 42.1536 41.6024 42.3999 41.7666C42.9016 42.101 42.8707 42.8482 42.343 43.14L20.6642 55.1325C20.2709 55.3501 19.7811 55.2811 19.4633 54.9632Z" fill="#F9FAFB"/>
<path d="M24.4399 59.4399C23.9661 58.9661 24.0716 58.1716 24.6526 57.8378L46.5608 45.2523C46.8299 45.0977 47.1633 45.1088 47.4215 45.281C47.9217 45.6145 47.9029 46.3557 47.3864 46.6634L25.6804 59.5946C25.2802 59.833 24.7693 59.7693 24.4399 59.4399Z" fill="#F9FAFB"/>
<circle cx="43.5" cy="18.5" r="9.5" fill="white" stroke="#4F46E5" stroke-width="2"/>
<circle cx="19.5" cy="34.5" r="3.5" fill="white" stroke="#4F46E5" stroke-width="2"/>
<circle cx="36.5" cy="53.5" r="3.5" fill="white" stroke="#4F46E5" stroke-width="2"/>
<path d="M42.5 48C42.5 48.5523 42.9477 49 43.5 49C44.0523 49 44.5 48.5523 44.5 48H42.5ZM42.5 28V48H44.5V28H42.5Z" fill="#4F46E5"/>
<path d="M18.5 48.2018C18.5 48.7541 18.9477 49.2018 19.5 49.2018C20.0523 49.2018 20.5 48.7541 20.5 48.2018H18.5ZM18.5 38V48.2018H20.5V38H18.5Z" fill="#4F46E5"/>
<path d="M35.5 67.2018C35.5 67.7541 35.9477 68.2018 36.5 68.2018C37.0523 68.2018 37.5 67.7541 37.5 67.2018H35.5ZM35.5 57V67.2018H37.5V57H35.5Z" fill="#4F46E5"/>
<path fill-rule="evenodd" clip-rule="evenodd" d="M39.6108 18.5C40.5169 19.4061 41.898 19.5477 42.9525 18.9249L43.4582 19.4306L43.4582 20.1181L44.1457 20.118L44.1529 20.1252L44.1529 20.8127L44.8404 20.8127L44.8404 21.5002L45.5279 21.5002L45.5279 21.5002L45.5279 22.1877L46.2154 22.1877L46.2154 22.1877V22.8752H46.9029L46.9029 22.8752L46.9029 22.8752L47.1203 22.223C47.285 21.7289 47.1564 21.1842 46.7881 20.8159L43.9248 17.9526C44.5476 16.898 44.406 15.517 43.4999 14.6109C42.426 13.537 40.6848 13.537 39.6108 14.6109C38.5369 15.6849 38.5369 17.4261 39.6108 18.5ZM41.3123 16.3124C41.0438 16.5809 40.6085 16.5809 40.34 16.3124C40.0716 16.0439 40.0716 15.6086 40.34 15.3401C40.6085 15.0716 41.0438 15.0716 41.3123 15.3401C41.5808 15.6086 41.5808 16.0439 41.3123 16.3124Z" fill="#4F46E5"/>
<path d="M19.8211 18.31C20.0597 18.1722 20.0597 17.8278 19.8211 17.6907L17.6788 16.4542C17.2087 16.1827 16.818 15.792 16.5466 15.322L15.31 13.1789C15.1722 12.9404 14.8279 12.9404 14.6907 13.1789L13.4542 15.3212C13.1827 15.7913 12.792 16.182 12.322 16.4535L10.179 17.6907C9.94037 17.8286 9.94037 18.1729 10.179 18.31L12.3213 19.5465C12.7913 19.818 13.182 20.2087 13.4535 20.6788L14.69 22.8211C14.8279 23.0596 15.1722 23.0596 15.3093 22.8211L16.5458 20.6788C16.8173 20.2087 17.208 19.818 17.6781 19.5465L19.8211 18.31Z" fill="white"/>
<rect x="60.1213" y="35" width="3" height="3" transform="rotate(45 60.1213 35)" fill="white"/>
<rect x="10.1213" y="61" width="3" height="3" transform="rotate(45 10.1213 61)" fill="white"/>
</g>
<defs>
<linearGradient id="paint0_linear_2_5765" x1="36" y1="0" x2="36" y2="72" gradientUnits="userSpaceOnUse">
<stop stop-color="#01B3FF"/>
<stop offset="1" stop-color="#0186FF"/>
</linearGradient>
<clipPath id="clip0_2_5765">
<rect width="72" height="72" rx="12" fill="white"/>
</clipPath>
</defs>
</svg>
