<svg width="72" height="72" viewBox="0 0 72 72" fill="none" xmlns="http://www.w3.org/2000/svg">
<rect width="72" height="72" rx="12" fill="url(#paint0_linear_563_199)"/>
<path d="M45.5 23.5C45.5 29.299 40.799 34 35 34C29.201 34 24.5 29.299 24.5 23.5C24.5 17.701 29.201 13 35 13C40.799 13 45.5 17.701 45.5 23.5Z" fill="url(#paint1_radial_563_199)" stroke="white" stroke-width="2"/>
<path d="M32.5 48.5C32.5 54.299 27.799 59 22 59C16.201 59 11.5 54.299 11.5 48.5C11.5 42.701 16.201 38 22 38C27.799 38 32.5 42.701 32.5 48.5Z" fill="url(#paint2_radial_563_199)" stroke="white" stroke-width="2"/>
<path d="M60.5 48.5C60.5 54.299 55.799 59 50 59C44.201 59 39.5 54.299 39.5 48.5C39.5 42.701 44.201 38 50 38C55.799 38 60.5 42.701 60.5 48.5Z" fill="url(#paint3_radial_563_199)" stroke="white" stroke-width="2"/>
<path d="M18 49H26" stroke="white" stroke-width="2" stroke-linecap="round"/>
<path d="M31 23V23C31 25.2091 32.7909 27 35 27V27C37.2091 27 39 25.2091 39 23V23" stroke="white" stroke-width="2" stroke-linecap="round"/>
<path d="M54 49V49C54 46.7909 52.2091 45 50 45V45C47.7909 45 46 46.7909 46 49V49" stroke="white" stroke-width="2" stroke-linecap="round"/>
<defs>
<linearGradient id="paint0_linear_563_199" x1="36" y1="0" x2="36" y2="72" gradientUnits="userSpaceOnUse">
<stop stop-color="#01ECEC"/>
<stop offset="1" stop-color="#01B8EC"/>
</linearGradient>
<radialGradient id="paint1_radial_563_199" cx="0" cy="0" r="1" gradientUnits="userSpaceOnUse" gradientTransform="translate(35 17.5) rotate(90) scale(17.5)">
<stop stop-color="#2DD4BF"/>
<stop offset="1" stop-color="#0D9488"/>
</radialGradient>
<radialGradient id="paint2_radial_563_199" cx="0" cy="0" r="1" gradientUnits="userSpaceOnUse" gradientTransform="translate(22 43) rotate(90) scale(17)">
<stop stop-color="#FDE68A"/>
<stop offset="1" stop-color="#F59E0B"/>
</radialGradient>
<radialGradient id="paint3_radial_563_199" cx="0" cy="0" r="1" gradientUnits="userSpaceOnUse" gradientTransform="translate(50 43.5) rotate(90) scale(16.5)">
<stop stop-color="#FCA5A5"/>
<stop offset="1" stop-color="#EF4444"/>
</radialGradient>
</defs>
</svg>
