<?xml version="1.0" encoding="utf-8"?>
<!-- Generator: Adobe Illustrator 27.0.0, SVG Export Plug-In . SVG Version: 6.00 Build 0)  -->
<svg version="1.1" id="Layer_1" xmlns="http://www.w3.org/2000/svg" xmlns:xlink="http://www.w3.org/1999/xlink" x="0px" y="0px"
	 viewBox="0 0 72 72" style="enable-background:new 0 0 72 72;" xml:space="preserve">
<style type="text/css">
	.st0{fill:url(#SVGID_1_);}
	.st1{fill:url(#SVGID_00000039841319190789750470000015896083536075661213_);}
	.st2{fill:#80A1FF;}
	.st3{fill:#F87171;}
	.st4{fill:url(#SVGID_00000046317992748740996160000016685345376763075507_);}
	.st5{fill:#FFFFFF;stroke:#A5B4FC;stroke-width:2;}
	.st6{fill:#FFFFFF;}
</style>
<linearGradient id="SVGID_1_" gradientUnits="userSpaceOnUse" x1="36" y1="74" x2="36" y2="2" gradientTransform="matrix(1 0 0 -1 0 74)">
	<stop  offset="0" style="stop-color:#08CBB9"/>
	<stop  offset="1" style="stop-color:#01A5BE"/>
</linearGradient>
<path class="st0" d="M12,0h48c6.6,0,12,5.4,12,12v48c0,6.6-5.4,12-12,12H12C5.4,72,0,66.6,0,60V12C0,5.4,5.4,0,12,0z"/>
<radialGradient id="SVGID_00000150818660904613504340000005794197905511003286_" cx="-154.564" cy="168.6756" r="0.9325" gradientTransform="matrix(52 -60 -102.7087 -89.0143 25354.4785 5812.4292)" gradientUnits="userSpaceOnUse">
	<stop  offset="0" style="stop-color:#C7D2FE"/>
	<stop  offset="1" style="stop-color:#EEF2FF"/>
</radialGradient>
<path style="fill:url(#SVGID_00000150818660904613504340000005794197905511003286_);" d="M0,16h41v56H12C5.4,72,0,66.6,0,60V16z"/>
<path class="st2" d="M0,34h22c0.6,0,1,0.4,1,1l0,0c0,0.6-0.4,1-1,1H0V34z"/>
<path class="st2" d="M0,52h22c0.6,0,1,0.4,1,1l0,0c0,0.6-0.4,1-1,1H0V52z"/>
<path class="st3" d="M0,46h22c0.6,0,1,0.4,1,1l0,0c0,0.6-0.4,1-1,1H0V46z"/>
<path class="st3" d="M0,24h23c0.6,0,1,0.4,1,1l0,0c0,0.6-0.4,1-1,1H0V24z"/>
<path class="st3" d="M0,38h15.5c0.6,0,1,0.4,1,1l0,0c0,0.6-0.4,1-1,1H0V38z"/>
<path class="st3" d="M0,56h15.5c0.6,0,1,0.4,1,1l0,0c0,0.6-0.4,1-1,1H0V56z"/>
<path class="st2" d="M0,28h29c0.6,0,1,0.4,1,1l0,0c0,0.6-0.4,1-1,1H0V28z"/>
<path class="st2" d="M0,42h19c0.6,0,1,0.4,1,1l0,0c0,0.6-0.4,1-1,1H0V42z"/>
<linearGradient id="SVGID_00000086694215909615242130000002244710642453363640_" gradientUnits="userSpaceOnUse" x1="41" y1="25.5" x2="30" y2="25.5" gradientTransform="matrix(1 0 0 -1 0 74)">
	<stop  offset="0" style="stop-color:#A9BEFD"/>
	<stop  offset="0.848" style="stop-color:#D6DEFF;stop-opacity:0"/>
</linearGradient>
<rect x="30" y="30" style="fill:url(#SVGID_00000086694215909615242130000002244710642453363640_);" width="11" height="37"/>
<path class="st5" d="M33,36c0-1.7,1.3-3,3-3h11.5H60c1.7,0,3,1.3,3,3v25c0,1.7-1.3,3-3,3H47.5H36c-1.7,0-3-1.3-3-3V36z"/>
<path class="st3" d="M37,38c0-0.6,0.4-1,1-1h20c0.6,0,1,0.4,1,1l0,0c0,0.6-0.4,1-1,1H38C37.4,39,37,38.6,37,38L37,38z"/>
<path class="st3" d="M37,53c0-0.6,0.4-1,1-1h20c0.6,0,1,0.4,1,1l0,0c0,0.6-0.4,1-1,1H38C37.4,54,37,53.6,37,53L37,53z"/>
<path class="st3" d="M37,58c0-0.6,0.4-1,1-1h20c0.6,0,1,0.4,1,1l0,0c0,0.6-0.4,1-1,1H38C37.4,59,37,58.6,37,58L37,58z"/>
<path class="st3" d="M37,43c0-0.6,0.4-1,1-1h14c0.6,0,1,0.4,1,1l0,0c0,0.6-0.4,1-1,1H38C37.4,44,37,43.6,37,43L37,43z"/>
<path class="st3" d="M37,48c0-0.6,0.4-1,1-1h17c0.6,0,1,0.4,1,1l0,0c0,0.6-0.4,1-1,1H38C37.4,49,37,48.6,37,48L37,48z"/>
<path class="st6" d="M62.8,19.3c0.2-0.1,0.2-0.5,0-0.6l-2.1-1.2c-0.5-0.3-0.9-0.7-1.1-1.1l-1.2-2.1c-0.1-0.2-0.5-0.2-0.6,0l-1.2,2.1
	c-0.3,0.5-0.7,0.9-1.1,1.1l-2.1,1.2c-0.2,0.1-0.2,0.5,0,0.6l2.1,1.2c0.5,0.3,0.9,0.7,1.1,1.1l1.2,2.1c0.1,0.2,0.5,0.2,0.6,0l1.2-2.1
	c0.3-0.5,0.7-0.9,1.1-1.1L62.8,19.3z"/>
<rect x="17.6" y="6.6" transform="matrix(0.7071 -0.7071 0.7071 0.7071 -0.1421 15.8995)" class="st6" width="3" height="3"/>
<path class="st2" d="M23,64H0.7c0.2,0.7,0.6,1.4,0.9,2H23c0.6,0,1-0.4,1-1S23.6,64,23,64z"/>
<path class="st3" d="M24,62c0.6,0,1-0.4,1-1s-0.4-1-1-1H0v0c0,0.7,0.1,1.3,0.2,2H24z"/>
</svg>
