<svg width="72" height="72" viewBox="0 0 72 72" fill="none" xmlns="http://www.w3.org/2000/svg">
<rect width="72" height="72" rx="12" fill="url(#paint0_linear_2_5566)"/>
<path d="M34.523 34.4509C35.8894 31.4321 39.4444 30.0925 42.4632 31.4589L56.6752 37.8916C59.6941 39.258 61.0337 42.813 59.6673 45.8318L53.2346 60.0438C51.8682 63.0627 48.3132 64.4023 45.2943 63.0359L31.0823 56.6032C28.0635 55.2368 26.7239 51.6818 28.0903 48.6629L34.523 34.4509Z" fill="url(#paint1_radial_2_5566)" stroke="white" stroke-width="2.4"/>
<path fill-rule="evenodd" clip-rule="evenodd" d="M48.4876 41.4302C48.7609 40.8265 48.493 40.1155 47.8892 39.8422C47.2855 39.5689 46.5745 39.8368 46.3012 40.4406L45.8064 41.5338L41.4334 39.5545C40.8297 39.2813 40.1187 39.5492 39.8454 40.1529C39.5721 40.7567 39.84 41.4677 40.4438 41.741L45.9099 44.2151L47.9395 45.1337C46.9812 46.4571 45.3884 48.0439 43.2002 49.1402C42.8499 47.6957 42.7656 46.2743 42.8387 44.9849C42.8761 44.3233 42.3701 43.7565 41.7084 43.719C41.0467 43.6815 40.48 44.1876 40.4425 44.8492C40.3535 46.4206 40.4672 48.196 40.9453 50.0098C39.5153 50.4065 37.9035 50.5759 36.1168 50.3868C35.4577 50.317 34.8669 50.7947 34.7971 51.4537C34.7273 52.1128 35.205 52.7036 35.8641 52.7734C38.0477 53.0046 40.0101 52.7855 41.7441 52.284C42.4569 53.8833 43.5043 55.4588 44.9966 56.8974C45.4738 57.3574 46.2334 57.3434 46.6934 56.8663C47.1533 56.3891 47.1394 55.6294 46.6623 55.1695C45.4536 54.0044 44.5904 52.7305 43.9922 51.4285C46.9299 50.0274 49.0037 47.8619 50.1609 46.1392L51.3761 46.6892C51.9799 46.9625 52.6909 46.6946 52.9641 46.0908C53.2374 45.487 52.9695 44.776 52.3657 44.5028L50.1869 43.5166L50.1697 43.5088L47.9928 42.5235L48.4876 41.4302Z" fill="#1854FF"/>
<path d="M41 23.5L43.869 22.1611C48.5641 19.9701 53.6421 24.3596 52.1533 29.3223L51.5 31.5" stroke="white" stroke-width="2" stroke-linecap="round"/>
<path fill-rule="evenodd" clip-rule="evenodd" d="M42.2845 30.1001L42.6736 32.0889C43.628 36.9669 40.4472 41.6951 35.5692 42.6495L28.9047 43.9535L33.4298 33.9561C34.9688 30.5558 38.8216 28.9309 42.2845 30.1001Z" fill="url(#paint2_radial_2_5566)"/>
<path d="M9.56018 22.5961C8.9239 19.344 11.0444 16.1919 14.2964 15.5556L29.6062 12.5602C32.8582 11.9239 36.0103 14.0444 36.6466 17.2964L39.642 32.6062C40.2783 35.8582 38.1578 39.0103 34.9058 39.6466L19.596 42.642C16.344 43.2783 13.1919 41.1578 12.5556 37.9058L9.56018 22.5961Z" fill="url(#paint3_radial_2_5566)" stroke="white" stroke-width="2.4"/>
<path d="M30.6807 33.7481C30.4341 33.7964 30.1835 33.6858 30.0529 33.4712L28.0788 30.227L22.8782 31.2445L22.2723 34.9935C22.2322 35.2415 22.0418 35.4383 21.7952 35.4866L20.5921 35.722C20.349 35.7695 20.1316 35.5632 20.1665 35.318L22.2677 20.5546C22.3037 20.3017 22.4958 20.0993 22.7465 20.0503L24.019 19.8013C24.2699 19.7522 24.5244 19.8675 24.6529 20.0886L32.1453 32.9746C32.2697 33.1886 32.1461 33.4614 31.9032 33.5089L30.6807 33.7481ZM25.0692 25.0444C25.0045 24.9136 24.8949 24.7199 24.7403 24.4632C24.5959 24.1914 24.4514 23.9197 24.3069 23.648C24.16 23.3637 24.043 23.1323 23.9559 22.9537C23.9422 23.2172 23.9209 23.5083 23.892 23.827C23.8731 24.1307 23.8506 24.4155 23.8244 24.6815C23.7957 24.9349 23.771 25.1419 23.7503 25.3025L23.1346 29.3553L27.1669 28.5664L25.0692 25.0444Z" fill="#1854FF"/>
<path d="M40.9691 24.5C40.9691 26.1569 39.6259 27.5 37.9691 27.5C36.3122 27.5 34.9691 26.1569 34.9691 24.5C34.9691 22.8431 36.3122 21.5 37.9691 21.5C39.6259 21.5 40.9691 22.8431 40.9691 24.5ZM53 34C53 35.6569 51.6569 37 50 37C48.3431 37 47 35.6569 47 34C47 32.3431 48.3431 31 50 31C51.6569 31 53 32.3431 53 34Z" fill="#1854FF" stroke="white" stroke-width="2"/>
<path d="M21.8211 55.31C22.0597 55.1722 22.0597 54.8278 21.8211 54.6907L19.6788 53.4542C19.2087 53.1827 18.818 52.792 18.5466 52.322L17.31 50.1789C17.1722 49.9404 16.8279 49.9404 16.6907 50.1789L15.4542 52.3212C15.1827 52.7913 14.792 53.182 14.322 53.4535L12.179 54.6907C11.9404 54.8286 11.9404 55.1729 12.179 55.31L14.3213 56.5465C14.7913 56.818 15.182 57.2087 15.4535 57.6788L16.69 59.8211C16.8279 60.0596 17.1722 60.0596 17.3093 59.8211L18.5458 57.6788C18.8173 57.2087 19.208 56.818 19.6781 56.5465L21.8211 55.31Z" fill="white"/>
<rect x="54.1213" y="14" width="3" height="3" transform="rotate(45 54.1213 14)" fill="white"/>
<defs>
<linearGradient id="paint0_linear_2_5566" x1="36" y1="0" x2="36" y2="72" gradientUnits="userSpaceOnUse">
<stop stop-color="#01ECEC"/>
<stop offset="1" stop-color="#01B6EC"/>
</linearGradient>
<radialGradient id="paint1_radial_2_5566" cx="0" cy="0" r="1" gradientUnits="userSpaceOnUse" gradientTransform="translate(36.6461 26.8501) rotate(69.3526) scale(42.4264)">
<stop stop-color="#EFF6FF"/>
<stop offset="0.0001" stop-color="#CBD8FF"/>
<stop offset="1" stop-color="#EFF6FF"/>
</radialGradient>
<radialGradient id="paint2_radial_2_5566" cx="0" cy="0" r="1" gradientUnits="userSpaceOnUse" gradientTransform="translate(7.9715 15.0124) rotate(34.5191) scale(44.4006 44.7629)">
<stop offset="0.601749" stop-color="#4B79FE"/>
<stop offset="1" stop-color="#EFF6FF" stop-opacity="0"/>
</radialGradient>
<radialGradient id="paint3_radial_2_5566" cx="0" cy="0" r="1" gradientUnits="userSpaceOnUse" gradientTransform="translate(7.47363 15.0564) rotate(33.9296) scale(42.4264)">
<stop stop-color="#CBD8FF"/>
<stop offset="1" stop-color="#EFF6FF"/>
</radialGradient>
</defs>
</svg>
