<svg width="72" height="72" viewBox="0 0 72 72" fill="none" xmlns="http://www.w3.org/2000/svg">
<g clip-path="url(#clip0_2_5527)">
<rect width="72" height="72" rx="12" fill="url(#paint0_linear_2_5527)"/>
<rect y="16" width="41" height="56" fill="url(#paint1_radial_2_5527)"/>
<path d="M0 60H34C34.5523 60 35 60.4477 35 61C35 61.5523 34.5523 62 34 62H0V60Z" fill="#80A1FF"/>
<path d="M0 34L22 34C22.5523 34 23 34.4477 23 35C23 35.5523 22.5523 36 22 36H0V34Z" fill="#80A1FF"/>
<path d="M0 52L22 52C22.5523 52 23 52.4477 23 53C23 53.5523 22.5523 54 22 54H0V52Z" fill="#80A1FF"/>
<path d="M0 46L22 46C22.5523 46 23 46.4477 23 47C23 47.5523 22.5523 48 22 48H0V46Z" fill="#80A1FF"/>
<path d="M0 24H23C23.5523 24 24 24.4477 24 25C24 25.5523 23.5523 26 23 26H0V24Z" fill="#80A1FF"/>
<path d="M0 64H23C23.5523 64 24 64.4477 24 65C24 65.5523 23.5523 66 23 66H0V64Z" fill="#80A1FF"/>
<path d="M0 38H15.5C16.0523 38 16.5 38.4477 16.5 39C16.5 39.5523 16.0523 40 15.5 40H0V38Z" fill="#80A1FF"/>
<path d="M0 56H15.5C16.0523 56 16.5 56.4477 16.5 57C16.5 57.5523 16.0523 58 15.5 58H0V56Z" fill="#80A1FF"/>
<path d="M0 28H29C29.5523 28 30 28.4477 30 29C30 29.5523 29.5523 30 29 30H0V28Z" fill="#80A1FF"/>
<path d="M0 42H19C19.5523 42 20 42.4477 20 43C20 43.5523 19.5523 44 19 44H0V42Z" fill="#80A1FF"/>
<path d="M59.8211 21.31C60.0597 21.1722 60.0597 20.8278 59.8211 20.6907L57.6788 19.4542C57.2087 19.1827 56.818 18.792 56.5466 18.322L55.31 16.1789C55.1722 15.9404 54.8279 15.9404 54.6907 16.1789L53.4542 18.3212C53.1827 18.7913 52.792 19.182 52.322 19.4535L50.179 20.6907C49.9404 20.8286 49.9404 21.1729 50.179 21.31L52.3213 22.5465C52.7913 22.818 53.182 23.2087 53.4535 23.6788L54.69 25.8211C54.8279 26.0596 55.1722 26.0596 55.3093 25.8211L56.5458 23.6788C56.8173 23.2087 57.208 22.818 57.6781 22.5465L59.8211 21.31Z" fill="white"/>
<rect x="50.1213" y="62" width="3" height="3" transform="rotate(45 50.1213 62)" fill="white"/>
<rect x="29" y="30" width="12" height="29" fill="url(#paint2_linear_2_5527)"/>
<path d="M28 38C28 35.2386 30.2386 33 33 33H52.7069L74 33C76.7614 33 79 35.2386 79 38V51C79 53.7614 76.7614 56 74 56H52.7069H33C30.2386 56 28 53.7614 28 51V38Z" fill="white" stroke="#818CF8" stroke-width="2"/>
<path d="M34.5 38C34.5 38.8284 33.8284 39.5 33 39.5C32.1716 39.5 31.5 38.8284 31.5 38C31.5 37.1716 32.1716 36.5 33 36.5C33.8284 36.5 34.5 37.1716 34.5 38Z" fill="#80A1FF"/>
<path d="M54 38C54 38.8284 53.3284 39.5 52.5 39.5C51.6716 39.5 51 38.8284 51 38C51 37.1716 51.6716 36.5 52.5 36.5C53.3284 36.5 54 37.1716 54 38Z" fill="#80A1FF"/>
<path d="M47.5 44.5C47.5 45.3284 46.8284 46 46 46C45.1716 46 44.5 45.3284 44.5 44.5C44.5 43.6716 45.1716 43 46 43C46.8284 43 47.5 43.6716 47.5 44.5Z" fill="#80A1FF"/>
<path d="M67 44.5C67 45.3284 66.3284 46 65.5 46C64.6716 46 64 45.3284 64 44.5C64 43.6716 64.6716 43 65.5 43C66.3284 43 67 43.6716 67 44.5Z" fill="#80A1FF"/>
<path d="M41 50.5C41 51.3284 40.3284 52 39.5 52C38.6716 52 38 51.3284 38 50.5C38 49.6716 38.6716 49 39.5 49C40.3284 49 41 49.6716 41 50.5Z" fill="#80A1FF"/>
<path d="M60.5 50.5C60.5 51.3284 59.8284 52 59 52C58.1716 52 57.5 51.3284 57.5 50.5C57.5 49.6716 58.1716 49 59 49C59.8284 49 60.5 49.6716 60.5 50.5Z" fill="#80A1FF"/>
<circle cx="39.5" cy="38" r="1.5" fill="#A9BEFD"/>
<circle cx="59" cy="38" r="1.5" fill="#A9BEFD"/>
<circle cx="33" cy="44.5" r="1.5" fill="#A9BEFD"/>
<circle cx="52.5" cy="44.5" r="1.5" fill="#A9BEFD"/>
<circle cx="33" cy="50.5" r="1.5" fill="#A9BEFD"/>
<circle cx="52.5" cy="50.5" r="1.5" fill="#A9BEFD"/>
<path d="M47.5 38C47.5 38.8284 46.8284 39.5 46 39.5C45.1716 39.5 44.5 38.8284 44.5 38C44.5 37.1716 45.1716 36.5 46 36.5C46.8284 36.5 47.5 37.1716 47.5 38Z" fill="#4B79FE"/>
<path d="M67 38C67 38.8284 66.3284 39.5 65.5 39.5C64.6716 39.5 64 38.8284 64 38C64 37.1716 64.6716 36.5 65.5 36.5C66.3284 36.5 67 37.1716 67 38Z" fill="#4B79FE"/>
<path d="M41 44.5C41 45.3284 40.3284 46 39.5 46C38.6716 46 38 45.3284 38 44.5C38 43.6716 38.6716 43 39.5 43C40.3284 43 41 43.6716 41 44.5Z" fill="#4B79FE"/>
<path d="M60.5 44.5C60.5 45.3284 59.8284 46 59 46C58.1716 46 57.5 45.3284 57.5 44.5C57.5 43.6716 58.1716 43 59 43C59.8284 43 60.5 43.6716 60.5 44.5Z" fill="#4B79FE"/>
<path d="M47.5 50.5C47.5 51.3284 46.8284 52 46 52C45.1716 52 44.5 51.3284 44.5 50.5C44.5 49.6716 45.1716 49 46 49C46.8284 49 47.5 49.6716 47.5 50.5Z" fill="#4B79FE"/>
<path d="M67 50.5C67 51.3284 66.3284 52 65.5 52C64.6716 52 64 51.3284 64 50.5C64 49.6716 64.6716 49 65.5 49C66.3284 49 67 49.6716 67 50.5Z" fill="#4B79FE"/>
</g>
<defs>
<linearGradient id="paint0_linear_2_5527" x1="36" y1="0" x2="36" y2="72" gradientUnits="userSpaceOnUse">
<stop stop-color="#FFC223"/>
<stop offset="1" stop-color="#FFA101"/>
</linearGradient>
<radialGradient id="paint1_radial_2_5527" cx="0" cy="0" r="1" gradientUnits="userSpaceOnUse" gradientTransform="translate(-11 76) rotate(-49.0856) scale(79.3977 135.914)">
<stop stop-color="#C7D2FE"/>
<stop offset="1" stop-color="#EEF2FF"/>
</radialGradient>
<linearGradient id="paint2_linear_2_5527" x1="62.5" y1="45" x2="30" y2="45" gradientUnits="userSpaceOnUse">
<stop stop-color="#4B79FE"/>
<stop offset="0.896378" stop-color="#E1E8FF"/>
</linearGradient>
<clipPath id="clip0_2_5527">
<rect width="72" height="72" rx="12" fill="white"/>
</clipPath>
</defs>
</svg>
