<svg width="72" height="72" viewBox="0 0 72 72" fill="none" xmlns="http://www.w3.org/2000/svg">
<g clip-path="url(#clip0_78_188)">
<rect width="72" height="72" rx="12" fill="url(#paint0_linear_78_188)"/>
<path d="M37.3103 10.1033L-8.17812 10.314C-10.0039 10.3219 -11.4797 11.8084 -11.4718 13.6342L-11.2611 59.1226C-11.2532 60.9483 -9.76669 62.4242 -7.94096 62.4162L37.5474 62.2056C39.3732 62.1976 40.849 60.7112 40.8411 58.8854L40.6304 13.397C40.6225 11.5713 39.136 10.0954 37.3103 10.1033Z" fill="white"/>
<path d="M34.6712 14.8709L-5.58466 15.0595C-6.22307 15.062 -6.73305 15.5812 -6.73057 16.2196L-6.58656 47.7137C-6.58409 48.3521 -6.06482 48.862 -5.42641 48.8596L34.8294 48.671C35.4678 48.6685 35.9778 48.1492 35.9753 47.5108L35.8313 16.0168C35.8288 15.3784 35.3096 14.8684 34.6712 14.8709Z" fill="#CBD8FF"/>
<path d="M35.9658 46.4965L35.9378 40.6941L30.4462 34.6262C29.696 33.7987 28.7897 33.1375 27.772 32.6725C26.7573 32.2135 25.6549 31.9688 24.5452 31.9508C23.4296 31.9358 22.3217 32.1475 21.2962 32.5714C20.2646 32.9984 19.3364 33.6347 18.5653 34.4389L15.5562 37.5518L15.6083 48.7419L33.8031 48.6564C34.0865 48.658 34.3702 48.5999 34.6363 48.4909C34.9024 48.382 35.142 48.2193 35.3399 48.0175C35.5379 47.8157 35.7033 47.578 35.8092 47.31C35.9151 47.0421 35.9703 46.762 35.9718 46.4786L35.9658 46.4965Z" fill="#0D9488"/>
<path d="M35.9658 46.4965L35.9378 40.6941L30.4462 34.6262C29.696 33.7987 28.7897 33.1375 27.772 32.6725C26.7573 32.2135 25.6549 31.9688 24.5452 31.9508C23.4296 31.9358 22.3217 32.1475 21.2962 32.5714C20.2646 32.9984 19.3364 33.6347 18.5653 34.4389L15.5562 37.5518L15.6083 48.7419L33.8031 48.6564C34.0865 48.658 34.3702 48.5999 34.6363 48.4909C34.9024 48.382 35.142 48.2193 35.3399 48.0175C35.5379 47.8157 35.7033 47.578 35.8092 47.31C35.9151 47.0421 35.9703 46.762 35.9718 46.4786L35.9658 46.4965Z" fill="url(#paint1_linear_78_188)" fill-opacity="0.5"/>
<path d="M-6.66663 31.2342L-3.66348 28.1243C-2.89241 27.3201 -1.96415 26.6838 -0.932627 26.2568C0.0988981 25.8299 1.20386 25.6122 2.3135 25.6302C3.42912 25.6453 4.52557 25.8929 5.54031 26.3519C6.55506 26.8109 7.46426 27.4781 8.21448 28.3056L26.691 48.713L-5.3341 48.866C-5.66823 48.8672 -5.98375 48.7402 -6.21814 48.5062C-6.45253 48.2722 -6.58505 47.9583 -6.59219 47.6271L-6.6786 31.2401L-6.66663 31.2342Z" fill="#2DD4BF"/>
<path d="M19.927 26.553C21.7676 26.5451 23.2525 25.0468 23.2447 23.2061C23.2368 21.3654 21.7384 19.8806 19.8978 19.8884C18.0571 19.8963 16.5723 21.3946 16.5801 23.2353C16.588 25.0759 18.0863 26.5608 19.927 26.553Z" fill="url(#paint2_radial_78_188)" fill-opacity="0.5"/>
<path d="M59.8211 21.31C60.0597 21.1722 60.0597 20.8278 59.8211 20.6907L57.6788 19.4542C57.2087 19.1827 56.818 18.792 56.5466 18.322L55.31 16.1789C55.1722 15.9404 54.8279 15.9404 54.6907 16.1789L53.4542 18.3212C53.1827 18.7913 52.792 19.182 52.322 19.4535L50.179 20.6907C49.9404 20.8286 49.9404 21.1729 50.179 21.31L52.3213 22.5465C52.7913 22.818 53.182 23.2087 53.4535 23.6788L54.69 25.8211C54.8279 26.0596 55.1722 26.0596 55.3093 25.8211L56.5458 23.6788C56.8173 23.2087 57.208 22.818 57.6781 22.5465L59.8211 21.31Z" fill="white"/>
<rect x="50.1213" y="62" width="3" height="3" transform="rotate(45 50.1213 62)" fill="white"/>
<path d="M27.7156 30H40.7156L40.8398 59H27.7156V30Z" fill="url(#paint3_linear_78_188)"/>
<path d="M28 38C28 35.2386 30.2386 33 33 33H52.7069L74 33C76.7614 33 79 35.2386 79 38V51C79 53.7614 76.7614 56 74 56H52.7069H33C30.2386 56 28 53.7614 28 51V38Z" fill="white" stroke="#4F46E5" stroke-width="2"/>
<path d="M34.5 38C34.5 38.8284 33.8284 39.5 33 39.5C32.1716 39.5 31.5 38.8284 31.5 38C31.5 37.1716 32.1716 36.5 33 36.5C33.8284 36.5 34.5 37.1716 34.5 38Z" fill="#80A1FF"/>
<path d="M54 38C54 38.8284 53.3284 39.5 52.5 39.5C51.6716 39.5 51 38.8284 51 38C51 37.1716 51.6716 36.5 52.5 36.5C53.3284 36.5 54 37.1716 54 38Z" fill="#80A1FF"/>
<path d="M47.5 44.5C47.5 45.3284 46.8284 46 46 46C45.1716 46 44.5 45.3284 44.5 44.5C44.5 43.6716 45.1716 43 46 43C46.8284 43 47.5 43.6716 47.5 44.5Z" fill="#80A1FF"/>
<path d="M67 44.5C67 45.3284 66.3284 46 65.5 46C64.6716 46 64 45.3284 64 44.5C64 43.6716 64.6716 43 65.5 43C66.3284 43 67 43.6716 67 44.5Z" fill="#80A1FF"/>
<path d="M41 50.5C41 51.3284 40.3284 52 39.5 52C38.6716 52 38 51.3284 38 50.5C38 49.6716 38.6716 49 39.5 49C40.3284 49 41 49.6716 41 50.5Z" fill="#80A1FF"/>
<path d="M60.5 50.5C60.5 51.3284 59.8284 52 59 52C58.1716 52 57.5 51.3284 57.5 50.5C57.5 49.6716 58.1716 49 59 49C59.8284 49 60.5 49.6716 60.5 50.5Z" fill="#80A1FF"/>
<circle cx="39.5" cy="38" r="1.5" fill="#A9BEFD"/>
<circle cx="59" cy="38" r="1.5" fill="#A9BEFD"/>
<circle cx="33" cy="44.5" r="1.5" fill="#A9BEFD"/>
<circle cx="52.5" cy="44.5" r="1.5" fill="#A9BEFD"/>
<circle cx="33" cy="50.5" r="1.5" fill="#A9BEFD"/>
<circle cx="52.5" cy="50.5" r="1.5" fill="#A9BEFD"/>
<path d="M47.5 38C47.5 38.8284 46.8284 39.5 46 39.5C45.1716 39.5 44.5 38.8284 44.5 38C44.5 37.1716 45.1716 36.5 46 36.5C46.8284 36.5 47.5 37.1716 47.5 38Z" fill="#4B79FE"/>
<path d="M67 38C67 38.8284 66.3284 39.5 65.5 39.5C64.6716 39.5 64 38.8284 64 38C64 37.1716 64.6716 36.5 65.5 36.5C66.3284 36.5 67 37.1716 67 38Z" fill="#4B79FE"/>
<path d="M41 44.5C41 45.3284 40.3284 46 39.5 46C38.6716 46 38 45.3284 38 44.5C38 43.6716 38.6716 43 39.5 43C40.3284 43 41 43.6716 41 44.5Z" fill="#4B79FE"/>
<path d="M60.5 44.5C60.5 45.3284 59.8284 46 59 46C58.1716 46 57.5 45.3284 57.5 44.5C57.5 43.6716 58.1716 43 59 43C59.8284 43 60.5 43.6716 60.5 44.5Z" fill="#4B79FE"/>
<path d="M47.5 50.5C47.5 51.3284 46.8284 52 46 52C45.1716 52 44.5 51.3284 44.5 50.5C44.5 49.6716 45.1716 49 46 49C46.8284 49 47.5 49.6716 47.5 50.5Z" fill="#4B79FE"/>
<path d="M67 50.5C67 51.3284 66.3284 52 65.5 52C64.6716 52 64 51.3284 64 50.5C64 49.6716 64.6716 49 65.5 49C66.3284 49 67 49.6716 67 50.5Z" fill="#4B79FE"/>
</g>
<defs>
<linearGradient id="paint0_linear_78_188" x1="36" y1="0" x2="36" y2="72" gradientUnits="userSpaceOnUse">
<stop stop-color="#00ECEC"/>
<stop offset="1" stop-color="#00B3EC"/>
</linearGradient>
<linearGradient id="paint1_linear_78_188" x1="22.7453" y1="46.1516" x2="27.1694" y2="40.6349" gradientUnits="userSpaceOnUse">
<stop stop-color="#075C56"/>
<stop offset="1" stop-color="#0D9488" stop-opacity="0"/>
</linearGradient>
<radialGradient id="paint2_radial_78_188" cx="0" cy="0" r="1" gradientUnits="userSpaceOnUse" gradientTransform="translate(17.7694 21.3628) rotate(43.3382) scale(7.54428)">
<stop stop-color="#F59E0B"/>
<stop offset="1" stop-color="#EA682F"/>
</radialGradient>
<linearGradient id="paint3_linear_78_188" x1="46.5" y1="44.5" x2="27.5" y2="45" gradientUnits="userSpaceOnUse">
<stop stop-color="#1854FF" stop-opacity="0.35"/>
<stop offset="0.75828" stop-color="#1854FF" stop-opacity="0"/>
</linearGradient>
<clipPath id="clip0_78_188">
<rect width="72" height="72" rx="12" fill="white"/>
</clipPath>
</defs>
</svg>
