<svg width="180" height="180" viewBox="0 0 180 180" fill="none" xmlns="http://www.w3.org/2000/svg">
<path fill-rule="evenodd" clip-rule="evenodd" d="M180 90C180 139.706 139.706 180 90 180C40.2944 180 0 139.706 0 90C0 40.2944 40.2944 0 90 0C139.706 0 180 40.2944 180 90ZM90 178C138.601 178 178 138.601 178 90C178 41.3989 138.601 2 90 2C41.3989 2 2 41.3989 2 90C2 138.601 41.3989 178 90 178Z" fill="#685FFF"/>
<path d="M155 90C155 125.899 125.899 155 90 155C54.1015 155 25 125.899 25 90C25 54.1015 54.1015 25 90 25C125.899 25 155 54.1015 155 90Z" fill="#685FFF"/>
<path fill-rule="evenodd" clip-rule="evenodd" d="M157 90C157 127.003 127.003 157 90 157C52.9969 157 23 127.003 23 90C23 52.9969 52.9969 23 90 23C127.003 23 157 52.9969 157 90ZM90 155C125.899 155 155 125.899 155 90C155 54.1015 125.899 25 90 25C54.1015 25 25 54.1015 25 90C25 125.899 54.1015 155 90 155Z" fill="#685FFF"/>
<path d="M86.355 15.542C86.0118 15.5611 85.6937 15.4949 85.4007 15.3433C85.1076 15.1889 84.868 14.9746 84.682 14.7005C84.4989 14.4261 84.3978 14.1174 84.3787 13.7741C84.3594 13.4281 84.4256 13.11 84.5773 12.8199C84.7317 12.5267 84.9461 12.2886 85.2204 12.1054C85.4946 11.9195 85.8033 11.8169 86.1465 11.7978C86.4926 11.7785 86.8107 11.8462 87.101 12.0007C87.394 12.1523 87.6321 12.3652 87.8152 12.6396C88.001 12.9109 88.1036 13.2196 88.1229 13.5657C88.142 13.9089 88.0743 14.227 87.9199 14.5202C87.7684 14.8131 87.5555 15.0526 87.2813 15.2386C87.0098 15.4216 86.7011 15.5227 86.355 15.542Z" fill="#685FFF"/>
<path d="M79.4905 11.1126L79.6139 11.9559L76.2576 12.4469L76.1342 11.6036L79.4905 11.1126ZM76.8855 9.90884L77.8805 9.76328L78.7835 15.9362C78.8247 16.2173 78.8963 16.4222 78.9983 16.5508C79.1028 16.6762 79.2232 16.7533 79.3595 16.7822C79.4982 16.8079 79.6406 16.81 79.7868 16.7886C79.8964 16.7726 79.9856 16.7538 80.0542 16.7323C80.1224 16.7079 80.177 16.6885 80.2179 16.6739L80.5511 17.5382C80.4873 17.5733 80.3968 17.6124 80.2797 17.6554C80.1629 17.7012 80.0118 17.7376 79.8262 17.7648C79.5451 17.8059 79.2608 17.7858 78.9733 17.7044C78.6885 17.6226 78.4395 17.4709 78.2263 17.2495C78.0158 17.0276 77.883 16.7283 77.8279 16.3516L76.8855 9.90884Z" fill="#685FFF"/>
<path d="M71.6398 15.1512L72.4668 19.0009L71.4836 19.2121L70.1087 12.8127L71.0586 12.6086L71.2735 13.6085L71.3568 13.5906C71.437 13.2334 71.6086 12.9234 71.8718 12.6606C72.1343 12.3949 72.5073 12.2102 72.9906 12.1064C73.4239 12.0133 73.8221 12.0207 74.1852 12.1287C74.5478 12.2338 74.8579 12.4462 75.1154 12.7657C75.3723 13.0824 75.5592 13.513 75.6762 14.0574L76.5498 18.1237L75.5666 18.3349L74.7073 14.3353C74.5993 13.8326 74.3846 13.469 74.0632 13.2445C73.7413 13.0173 73.3525 12.9526 72.897 13.0505C72.5832 13.1179 72.3172 13.2463 72.0993 13.4355C71.8841 13.6241 71.7337 13.8641 71.6482 14.1557C71.5626 14.4472 71.5598 14.779 71.6398 15.1512Z" fill="#685FFF"/>
<path d="M68.2448 20.269C67.6416 20.4533 67.0807 20.4791 66.5619 20.3465C66.045 20.2103 65.5949 19.9379 65.2116 19.5292C64.8302 19.117 64.5416 18.5902 64.3457 17.949C64.1498 17.3079 64.094 16.707 64.1782 16.1466C64.2643 15.5826 64.4761 15.0991 64.8133 14.696C65.1525 14.2894 65.6047 13.9998 66.1698 13.8271C66.4958 13.7275 66.8344 13.6835 67.1855 13.695C67.5366 13.7066 67.8799 13.7948 68.2154 13.9596C68.5501 14.1218 68.8559 14.3789 69.1328 14.7309C69.4097 15.083 69.6373 15.5511 69.8158 16.1353L69.9403 16.5428L65.115 18.017L64.861 17.1856L68.7082 16.0103C68.6003 15.6571 68.4334 15.3635 68.2074 15.1295C67.9842 14.8947 67.719 14.7366 67.412 14.6551C67.1076 14.5729 66.7815 14.5849 66.4338 14.6911C66.0507 14.8081 65.7482 15.0045 65.5265 15.2802C65.3067 15.5523 65.1681 15.862 65.1108 16.2092C65.0535 16.5565 65.0776 16.9026 65.183 17.2477L65.3523 17.8019C65.4967 18.2747 65.7007 18.6505 65.9641 18.9295C66.2295 19.2049 66.535 19.3833 66.8807 19.4648C67.2256 19.5436 67.5923 19.5237 67.9808 19.405C68.2335 19.3278 68.451 19.2228 68.6331 19.0899C68.8172 18.9534 68.962 18.7904 69.0674 18.6007C69.172 18.4084 69.2319 18.191 69.247 17.9488L70.2559 17.9257C70.2543 18.2708 70.1746 18.5981 70.0167 18.9078C69.858 19.2147 69.6292 19.4866 69.3302 19.7235C69.0305 19.9577 68.6686 20.1395 68.2448 20.269Z" fill="#685FFF"/>
<path d="M62.9647 24.6992C62.5141 24.8808 62.1034 24.9789 61.7325 24.9935C61.3628 25.0108 61.0321 24.9694 60.7407 24.8694C60.4529 24.771 60.2033 24.6418 59.9919 24.482L60.5248 23.6608C60.6537 23.7375 60.8114 23.821 60.9978 23.9113C61.1854 24.0042 61.4123 24.0582 61.6788 24.0734C61.9489 24.0901 62.2671 24.0247 62.6334 23.8771C63.1235 23.6796 63.4802 23.3981 63.7035 23.0325C63.9268 22.6668 63.9365 22.2311 63.7327 21.7251L63.2358 20.4919L63.1568 20.5238C63.1329 20.6621 63.0906 20.8384 63.0299 21.0527C62.9708 21.2633 62.8495 21.4791 62.6659 21.7001C62.484 21.9174 62.1953 22.1057 61.8001 22.2649C61.3099 22.4624 60.8232 22.5237 60.3398 22.449C59.859 22.3732 59.4161 22.1596 59.0111 21.8082C58.6088 21.4557 58.2802 20.9633 58.0254 20.3309C57.7748 19.709 57.666 19.1234 57.6989 18.5742C57.7308 18.0223 57.8907 17.5413 58.1788 17.1312C58.4658 16.7185 58.8649 16.4091 59.3761 16.2032C59.7714 16.0439 60.1115 15.9834 60.3965 16.0218C60.683 16.0564 60.9216 16.1318 61.1124 16.2479C61.3047 16.3603 61.4563 16.4554 61.5673 16.5332L61.6622 16.495L61.2736 15.5305L62.1748 15.1674L64.691 21.4125C64.9012 21.9343 64.9536 22.4063 64.8481 22.8286C64.7462 23.2525 64.5272 23.621 64.1909 23.9341C63.8582 24.2489 63.4495 24.5039 62.9647 24.6992ZM61.5889 21.376C61.9631 21.2252 62.2448 21.0122 62.434 20.7369C62.6233 20.4615 62.7203 20.1361 62.7252 19.7604C62.73 19.3848 62.6422 18.973 62.4617 18.5251C62.2855 18.0876 62.0641 17.7281 61.7975 17.4466C61.5309 17.165 61.2303 16.9814 60.8956 16.8957C60.5609 16.81 60.2038 16.8436 59.8244 16.9965C59.4291 17.1558 59.1401 17.3886 58.9573 17.695C58.7771 18.0004 58.6891 18.3483 58.6932 18.7387C58.7 19.128 58.7862 19.5282 58.9518 19.9392C59.1217 20.3609 59.3378 20.7072 59.6001 20.9782C59.8641 21.2455 60.1636 21.4189 60.4988 21.4982C60.8356 21.5739 61.1989 21.5331 61.5889 21.376Z" fill="#685FFF"/>
<path d="M53.4666 26.3139L52.4825 26.8229L51.3201 17.5988L52.2891 17.0977L59.1444 23.3778L58.1602 23.8867L52.4691 18.559L52.4085 18.5903L53.4666 26.3139ZM52.264 23.0979L56.2309 21.0465L56.6616 21.8792L52.6947 23.9306L52.264 23.0979Z" fill="#685FFF"/>
<path d="M44.3124 21.6946L49.1478 28.9599L48.268 29.5454L43.4326 22.2802L44.3124 21.6946Z" fill="#685FFF"/>
<path d="M42.6694 33.6734L41.7918 34.3497L39.0032 25.4808L39.8673 24.8149L47.7326 29.7718L46.855 30.4481L40.305 26.2207L40.251 26.2623L42.6694 33.6734ZM40.9126 30.7234L44.4501 27.9974L45.0223 28.74L41.4849 31.466L40.9126 30.7234Z" fill="#685FFF"/>
<path d="M37.7007 38.3928C37.2564 38.8405 36.7744 39.1286 36.2546 39.2572C35.7348 39.3817 35.2094 39.3546 34.6784 39.1759C34.1473 38.9931 33.6438 38.6656 33.1679 38.1934C32.692 37.7211 32.3586 37.2182 32.1677 36.6846C31.9768 36.1469 31.9346 35.6208 32.0411 35.1061C32.1476 34.5874 32.4089 34.1184 32.8251 33.6989C33.0653 33.4569 33.3427 33.258 33.6575 33.1021C33.9723 32.9462 34.3165 32.8615 34.6901 32.848C35.0616 32.8325 35.4527 32.9143 35.8632 33.0936C36.2737 33.2728 36.6957 33.5775 37.1293 34.0077L37.4318 34.3079L33.8779 37.8893L33.2608 37.277L36.0943 34.4215C35.8321 34.1614 35.5462 33.9817 35.2365 33.8824C34.9287 33.7812 34.6203 33.7673 34.3112 33.8408C34.0041 33.9123 33.7225 34.0771 33.4664 34.3352C33.1843 34.6196 33.0107 34.9356 32.9458 35.2834C32.8808 35.6272 32.9052 35.9656 33.019 36.2986C33.1328 36.6316 33.3177 36.9252 33.5738 37.1793L33.9852 37.5876C34.3361 37.9357 34.6936 38.1704 35.0576 38.2915C35.4217 38.4086 35.7753 38.4213 36.1184 38.3296C36.4596 38.2359 36.7732 38.0448 37.0594 37.7565C37.2455 37.5689 37.3874 37.3735 37.485 37.1703C37.5826 36.963 37.633 36.7508 37.6362 36.5339C37.6374 36.3149 37.5873 36.0951 37.486 35.8746L38.364 35.377C38.5259 35.6817 38.6105 36.0078 38.6179 36.3553C38.6232 36.7008 38.5502 37.0486 38.3989 37.3987C38.2456 37.7469 38.0128 38.0782 37.7007 38.3928Z" fill="#685FFF"/>
<path d="M33.5563 42.8672C33.1619 43.3373 32.7112 43.649 32.2044 43.8023C31.6976 43.9555 31.1727 43.9601 30.6297 43.8161C30.0867 43.6721 29.565 43.3901 29.0644 42.9701C28.5551 42.5428 28.1842 42.0722 27.9517 41.5582C27.7188 41.0402 27.634 40.5203 27.6972 39.9985C27.76 39.4727 27.9814 38.9835 28.3612 38.5308C28.657 38.1783 28.9889 37.9153 29.3568 37.7419C29.7248 37.5685 30.102 37.4901 30.4887 37.5067C30.8753 37.5233 31.2435 37.6413 31.5934 37.8607L30.947 38.6311C30.6692 38.4981 30.3573 38.4589 30.0112 38.5134C29.6647 38.5639 29.3491 38.7589 29.0642 39.0984C28.8122 39.3988 28.6696 39.7278 28.6364 40.0857C28.6029 40.4395 28.6746 40.7982 28.8516 41.1618C29.0283 41.5214 29.306 41.86 29.6847 42.1778C30.0721 42.5028 30.4606 42.7249 30.8501 42.844C31.2415 42.961 31.6106 42.974 31.9576 42.8832C32.3063 42.7901 32.6085 42.5912 32.8642 42.2866C33.0322 42.0863 33.1498 41.8754 33.2171 41.6537C33.2844 41.4321 33.3002 41.2099 33.2646 40.9871C33.229 40.7644 33.1398 40.5524 32.9972 40.3512L33.6436 39.5807C33.9031 39.8726 34.0793 40.204 34.1723 40.5749C34.2649 40.9419 34.2631 41.3242 34.1668 41.7218C34.0702 42.1154 33.8667 42.4972 33.5563 42.8672Z" fill="#685FFF"/>
<path d="M25.4477 46.7775L28.6659 49.0462L28.0865 49.8682L22.7367 46.0969L23.2965 45.3028L24.1324 45.892L24.1815 45.8224C23.9982 45.5055 23.9141 45.1612 23.9293 44.7896C23.9422 44.4163 24.091 44.0277 24.3759 43.6237C24.6312 43.2614 24.9289 42.9969 25.2691 42.83C25.6068 42.6614 25.9787 42.6072 26.3846 42.6675C26.7882 42.7261 27.2176 42.9158 27.6727 43.2366L31.0721 45.6329L30.4926 46.4549L27.149 44.0978C26.7287 43.8016 26.3244 43.6799 25.936 43.7329C25.5453 43.7842 25.2157 44.0002 24.9473 44.381C24.7623 44.6434 24.6539 44.918 24.622 45.2049C24.5917 45.4894 24.644 45.7678 24.7788 46.0401C24.9135 46.3124 25.1365 46.5582 25.4477 46.7775Z" fill="#685FFF"/>
<path d="M26.1403 53.3587C25.9304 53.7165 25.6725 54.0016 25.3666 54.214C25.0583 54.4251 24.7252 54.5409 24.3672 54.5614C24.0069 54.5805 23.6429 54.4822 23.2754 54.2665C22.952 54.0767 22.7272 53.8592 22.6011 53.6138C22.4725 53.3671 22.4132 53.1033 22.4231 52.8226C22.433 52.5418 22.4853 52.2563 22.58 51.966C22.6736 51.6717 22.7802 51.3835 22.8997 51.1012C23.0569 50.7323 23.187 50.4348 23.2901 50.2087C23.3921 49.9787 23.4437 49.7982 23.4449 49.6671C23.4475 49.5336 23.379 49.4258 23.2393 49.3438L23.2099 49.3266C22.8473 49.1138 22.5073 49.0477 22.1899 49.1282C21.8739 49.2063 21.5988 49.445 21.3644 49.8444C21.1214 50.2585 21.0215 50.6363 21.0648 50.978C21.1081 51.3196 21.2046 51.5986 21.3543 51.8149L20.5772 52.4656C20.3204 52.1173 20.1684 51.7645 20.1211 51.4074C20.0727 51.0463 20.0961 50.6977 20.1913 50.3616C20.2854 50.0215 20.4159 49.7094 20.5827 49.4252C20.6891 49.2439 20.8334 49.0486 21.0155 48.8392C21.1967 48.626 21.4181 48.448 21.6798 48.3051C21.943 48.1598 22.2512 48.092 22.6045 48.1017C22.9579 48.1114 23.3587 48.2479 23.8071 48.511L27.5264 50.6938L27.0174 51.5611L26.253 51.1125L26.2271 51.1566C26.3151 51.2873 26.3887 51.4622 26.4478 51.6814C26.5069 51.9005 26.5186 52.1528 26.4829 52.4382C26.4472 52.7236 26.333 53.0304 26.1403 53.3587ZM25.4388 52.7692C25.6401 52.4262 25.7424 52.0975 25.7457 51.7832C25.7504 51.4665 25.6814 51.1855 25.5387 50.9404C25.3974 50.6927 25.2092 50.4999 24.974 50.3619L24.1802 49.896C24.2027 49.9586 24.1957 50.0632 24.1591 50.2097C24.1215 50.3524 24.0687 50.5125 24.0008 50.69C23.9318 50.8636 23.8625 51.0322 23.793 51.1956C23.7224 51.3551 23.666 51.485 23.6236 51.5853C23.5207 51.828 23.4448 52.0667 23.3959 52.3015C23.346 52.5325 23.3508 52.7461 23.4102 52.9424C23.4686 53.1347 23.608 53.2956 23.8285 53.425C24.1299 53.6019 24.4232 53.6242 24.7084 53.4918C24.9926 53.3555 25.2361 53.1147 25.4388 52.7692Z" fill="#685FFF"/>
<path d="M18.823 52.5875L23.6668 57.6114L23.2224 58.5326L16.2754 57.8687L16.7494 56.8862L22.2323 57.525L22.2619 57.4636L18.3491 53.57L18.823 52.5875Z" fill="#685FFF"/>
<path d="M21.2275 63.4553C21.0014 64.044 20.6764 64.502 20.2525 64.8292C19.827 65.1527 19.3352 65.3397 18.7772 65.3901C18.2175 65.4369 17.6248 65.3401 16.9989 65.0998C16.373 64.8594 15.8652 64.5335 15.4754 64.1221C15.084 63.707 14.8333 63.2425 14.7233 62.7286C14.6116 62.211 14.6618 61.6764 14.8736 61.1247C14.9958 60.8065 15.1695 60.5126 15.3948 60.243C15.62 59.9735 15.9009 59.7572 16.2374 59.5943C16.5712 59.4303 16.962 59.3476 17.4099 59.3462C17.8578 59.3447 18.3669 59.4535 18.9371 59.6725L19.3349 59.8253L17.5261 64.5353L16.7145 64.2237L18.1567 60.4683C17.8119 60.3359 17.4778 60.2867 17.1543 60.3208C16.8319 60.3521 16.544 60.4637 16.2908 60.6556C16.0386 60.8448 15.8473 61.1091 15.717 61.4486C15.5733 61.8225 15.5419 62.1817 15.6227 62.5262C15.7018 62.867 15.8605 63.1668 16.0989 63.4258C16.3372 63.6847 16.6248 63.8788 16.9616 64.0081L17.5026 64.2159C17.9641 64.3931 18.3858 64.4638 18.7678 64.4279C19.1482 64.3884 19.4769 64.2575 19.754 64.0352C20.0284 63.8119 20.2385 63.5107 20.3841 63.1314C20.4788 62.8848 20.5299 62.6488 20.5374 62.4234C20.5432 62.1943 20.5038 61.9799 20.4192 61.78C20.332 61.5792 20.1976 61.3982 20.016 61.2372L20.619 60.4279C20.8899 60.6416 21.0988 60.9059 21.2456 61.2209C21.3898 61.535 21.4632 61.8827 21.4658 62.2641C21.4658 62.6445 21.3864 63.0416 21.2275 63.4553Z" fill="#685FFF"/>
<path d="M11.3381 64.78L19.6573 67.4174L19.3534 68.3761L11.0342 65.7386L11.3381 64.78Z" fill="#685FFF"/>
<path d="M18.5425 71.7135C18.3881 72.325 18.1199 72.8183 17.738 73.1937C17.354 73.5655 16.888 73.8097 16.34 73.9262C15.7899 74.0393 15.1898 74.0138 14.5397 73.8496C13.8897 73.6855 13.3466 73.4224 12.9107 73.0603C12.4726 72.6948 12.1684 72.2634 11.998 71.7662C11.8255 71.2656 11.8117 70.7288 11.9563 70.1559C12.0398 69.8254 12.1773 69.5129 12.3689 69.2184C12.5604 68.924 12.8135 68.6758 13.1282 68.474C13.4401 68.2715 13.8183 68.1428 14.2629 68.0881C14.7074 68.0333 15.2258 68.0807 15.818 68.2302L16.2312 68.3346L14.9959 73.2265L14.1531 73.0136L15.1379 69.1133C14.7799 69.0229 14.4423 69.0138 14.1251 69.0861C13.8087 69.1557 13.5362 69.3008 13.3076 69.5214C13.0797 69.7393 12.9213 70.0245 12.8322 70.3771C12.7342 70.7654 12.7457 71.1258 12.8669 71.4582C12.986 71.7872 13.1793 72.066 13.4468 72.2947C13.7143 72.5234 14.023 72.6819 14.3728 72.7702L14.9347 72.9121C15.4139 73.0331 15.8411 73.0531 16.2161 72.972C16.5891 72.8874 16.8999 72.7183 17.1485 72.4647C17.3944 72.2103 17.5671 71.8862 17.6666 71.4923C17.7312 71.2361 17.7539 70.9957 17.7344 70.771C17.7129 70.5429 17.6483 70.3347 17.5405 70.1463C17.4301 69.9573 17.2751 69.7936 17.0756 69.6553L17.5779 68.7801C17.8723 68.9599 18.1112 69.1975 18.2945 69.4928C18.475 69.7875 18.5893 70.124 18.6373 70.5024C18.6826 70.8801 18.651 71.2838 18.5425 71.7135Z" fill="#685FFF"/>
<path d="M16.5952 80.9018L7.97754 79.5231L8.44339 76.6112C8.5511 75.938 8.75453 75.4037 9.05367 75.0085C9.35001 74.6129 9.71396 74.3431 10.1455 74.1993C10.5771 74.0554 11.0467 74.0241 11.5545 74.1053C12.0622 74.1866 12.4958 74.3624 12.8554 74.6328C13.2149 74.9032 13.4725 75.271 13.6283 75.7361C13.7812 76.2008 13.8043 76.7669 13.6975 77.4346L13.3205 79.791L12.3779 79.6402L12.7495 77.3174C12.8231 76.8574 12.8151 76.4763 12.7253 76.1742C12.636 75.8694 12.478 75.6341 12.2513 75.4683C12.0223 75.2993 11.7353 75.1873 11.3902 75.1321C11.0452 75.0769 10.7333 75.0931 10.4546 75.1809C10.1758 75.2686 9.94367 75.4429 9.75808 75.7038C9.56968 75.9643 9.43823 76.3273 9.36373 76.793L9.07022 78.6276L16.7622 79.8582L16.5952 80.9018ZM13.373 76.2261L17.5835 74.7246L17.3896 75.9365L13.1845 77.4043L13.373 76.2261Z" fill="#685FFF"/>
<path d="M16.2239 87.9758C16.2091 88.521 16.0583 88.9986 15.7715 89.4086C15.4818 89.8185 15.0811 90.1344 14.5692 90.3564C14.0544 90.5783 13.4506 90.6799 12.7577 90.661C12.0704 90.6424 11.4772 90.5083 10.9782 90.2589C10.4791 90.0094 10.0975 89.6708 9.83344 89.243C9.56939 88.8153 9.44485 88.3259 9.45982 87.775C9.47139 87.349 9.55153 87.0144 9.70023 86.7712C9.84618 86.5251 10.0104 86.3391 10.1928 86.2133C10.3725 86.0846 10.5202 85.9849 10.6358 85.9142L10.6381 85.829L7.41769 85.7415L7.445 84.7362L16.1691 84.9732L16.1427 85.9444L15.1374 85.9171L15.1341 86.0364C15.2514 86.1134 15.3991 86.2226 15.5771 86.3639C15.7523 86.505 15.9075 86.7039 16.0426 86.9605C16.1749 87.2171 16.2353 87.5555 16.2239 87.9758ZM15.3245 87.8149C15.3355 87.4117 15.2397 87.068 15.0371 86.784C14.8317 86.4999 14.5435 86.2804 14.1725 86.1253C13.7988 85.9703 13.3648 85.886 12.8707 85.8726C12.3822 85.8593 11.9529 85.9187 11.5827 86.0507C11.2097 86.1827 10.9171 86.385 10.7051 86.6578C10.4902 86.9305 10.3772 87.2713 10.3661 87.6802C10.3546 88.1062 10.4543 88.4642 10.6652 88.7541C10.8734 89.0411 11.1616 89.2606 11.5297 89.4127C11.8951 89.5619 12.3079 89.6428 12.7679 89.6553C13.2337 89.6679 13.6587 89.6084 14.0431 89.4768C14.4248 89.3422 14.7316 89.1374 14.9636 88.8623C15.1928 88.5844 15.3131 88.2352 15.3245 87.8149Z" fill="#685FFF"/>
<path d="M16.2902 93.8374C16.3276 94.467 16.2209 95.0183 15.97 95.4914C15.7162 95.9618 15.3456 96.3352 14.8583 96.6118C14.368 96.8856 13.7882 97.0424 13.1189 97.0821C12.4496 97.1218 11.8525 97.0349 11.3276 96.8213C10.7997 96.605 10.3794 96.2856 10.0669 95.863C9.7514 95.4378 9.57613 94.9302 9.54113 94.3404C9.52093 94.0001 9.55771 93.6606 9.65145 93.3221C9.7452 92.9836 9.91161 92.6706 10.1507 92.3832C10.3869 92.096 10.7087 91.8592 11.116 91.6728C11.5233 91.4864 12.0318 91.3751 12.6415 91.3389L13.0669 91.3137L13.3658 96.3503L12.498 96.4018L12.2597 92.3861C11.891 92.408 11.5664 92.5013 11.2859 92.6659C11.0052 92.8277 10.7892 93.0483 10.6379 93.3276C10.4864 93.6041 10.4214 93.9239 10.4429 94.2869C10.4667 94.6867 10.5865 95.0268 10.8023 95.3071C11.0152 95.5848 11.2836 95.7923 11.6077 95.9295C11.9317 96.0668 12.2738 96.1248 12.634 96.1034L13.2125 96.0691C13.7059 96.0398 14.1192 95.9299 14.4522 95.7394C14.7823 95.5462 15.0275 95.2912 15.188 94.9743C15.3457 94.6576 15.4125 94.2964 15.3884 93.8909C15.3728 93.6272 15.3218 93.3911 15.2354 93.1828C15.146 92.9718 15.0216 92.7928 14.862 92.6458C14.6996 92.4989 14.5025 92.3896 14.2705 92.318L14.4852 91.332C14.8203 91.4145 15.1197 91.5689 15.3836 91.7952C15.6446 92.0216 15.8551 92.3079 16.0151 92.6542C16.1723 93.0006 16.264 93.395 16.2902 93.8374Z" fill="#685FFF"/>
<path d="M16.6182 99.0922L10.119 99.8689L9.99965 98.8703L16.4989 98.0937L16.6182 99.0922ZM8.97511 99.4906C8.99837 99.6853 8.95213 99.861 8.83641 100.018C8.72035 100.172 8.56923 100.26 8.38306 100.282C8.19688 100.305 8.02924 100.255 7.88015 100.132C7.73071 100.007 7.64436 99.8471 7.6211 99.6524C7.59784 99.4578 7.64424 99.2834 7.7603 99.1294C7.87603 98.9725 8.02698 98.8829 8.21315 98.8607C8.39933 98.8384 8.56713 98.8899 8.71657 99.0151C8.86567 99.1375 8.95185 99.296 8.97511 99.4906Z" fill="#685FFF"/>
<path d="M10.2683 101.151L11.1093 101.013L11.6826 104.494L10.8416 104.633L10.2683 101.151ZM17.1284 102.527L9.77851 103.737C9.4085 103.798 9.08584 103.762 8.81054 103.629C8.53525 103.495 8.31308 103.3 8.14404 103.043C7.975 102.786 7.86509 102.503 7.81432 102.195C7.77416 101.951 7.76101 101.749 7.77486 101.588C7.78872 101.427 7.80623 101.306 7.82741 101.225L8.73226 101.37C8.72375 101.423 8.71426 101.497 8.70381 101.59C8.69289 101.682 8.6992 101.799 8.72274 101.941C8.77675 102.269 8.89845 102.493 9.08784 102.611C9.27677 102.727 9.53101 102.759 9.85057 102.706L16.965 101.534L17.1284 102.527Z" fill="#685FFF"/>
<path d="M17.6994 105.457L11.2943 106.806L11.0872 105.821L17.4923 104.473L17.6994 105.457ZM10.1215 106.53C10.1619 106.722 10.1314 106.901 10.03 107.067C9.92798 107.231 9.78525 107.332 9.60177 107.371C9.41829 107.41 9.24688 107.374 9.08755 107.266C8.92763 107.154 8.82748 107.003 8.7871 106.811C8.74672 106.619 8.77752 106.441 8.87951 106.277C8.98091 106.111 9.12335 106.008 9.30683 105.97C9.4903 105.931 9.662 105.968 9.82192 106.079C9.98126 106.188 10.0811 106.338 10.1215 106.53Z" fill="#685FFF"/>
<path d="M11.4616 107.672L12.2877 107.462L13.1224 110.75L12.2963 110.96L11.4616 107.672ZM10.5331 110.387L10.2856 109.412L16.3324 107.877C16.6077 107.807 16.8041 107.715 16.9215 107.6C17.0355 107.483 17.0998 107.356 17.1144 107.217C17.1256 107.076 17.1131 106.935 17.0767 106.791C17.0494 106.684 17.0216 106.597 16.9931 106.531C16.9618 106.466 16.9368 106.414 16.9181 106.374L17.7434 105.954C17.7849 106.014 17.8331 106.1 17.888 106.212C17.9456 106.323 17.9974 106.47 18.0436 106.651C18.1135 106.927 18.1228 107.212 18.0715 107.506C18.0195 107.798 17.8944 108.061 17.6961 108.296C17.4972 108.528 17.2132 108.691 16.8442 108.785L10.5331 110.387Z" fill="#685FFF"/>
<path d="M19.6301 112.633L13.376 114.565L13.0894 113.636L14.034 113.345L14.0139 113.279C13.6692 113.261 13.3544 113.132 13.0695 112.893C12.7846 112.654 12.5843 112.347 12.4686 111.973C12.4468 111.902 12.4209 111.813 12.391 111.707C12.361 111.6 12.3403 111.519 12.329 111.463L13.3062 111.161C13.3081 111.196 13.3189 111.274 13.3387 111.396C13.3549 111.516 13.3827 111.64 13.4221 111.767C13.516 112.071 13.6636 112.323 13.8649 112.523C14.0627 112.72 14.2943 112.854 14.5596 112.924C14.8214 112.991 15.0934 112.982 15.3757 112.895L19.3334 111.672L19.6301 112.633Z" fill="#685FFF"/>
<path d="M20.8992 115.813C21.1266 116.401 21.1929 116.959 21.0982 117.486C20.9997 118.011 20.7606 118.48 20.3807 118.892C19.9971 119.302 19.4926 119.628 18.8673 119.87C18.2419 120.111 17.6467 120.21 17.0816 120.167C16.5129 120.122 16.0153 119.946 15.5889 119.638C15.1589 119.329 14.8373 118.899 14.6242 118.348C14.5013 118.03 14.4329 117.696 14.4191 117.345C14.4052 116.994 14.4683 116.645 14.6085 116.298C14.746 115.953 14.9803 115.629 15.3114 115.328C15.6426 115.026 16.093 114.765 16.6627 114.545L17.0602 114.391L18.8794 119.097L18.0686 119.411L16.6181 115.659C16.2736 115.792 15.9929 115.98 15.7759 116.222C15.5578 116.461 15.4193 116.737 15.3603 117.049C15.3002 117.359 15.3357 117.683 15.4669 118.023C15.6113 118.396 15.829 118.684 16.12 118.885C16.4073 119.084 16.7262 119.2 17.0767 119.232C17.4272 119.264 17.7707 119.215 18.1072 119.085L18.6477 118.876C19.1088 118.698 19.4689 118.467 19.7281 118.184C19.9836 117.9 20.1395 117.582 20.1958 117.232C20.2494 116.882 20.203 116.518 20.0565 116.139C19.9613 115.892 19.8408 115.683 19.6951 115.511C19.5457 115.337 19.3726 115.204 19.1758 115.113C18.9764 115.023 18.7553 114.979 18.5126 114.981L18.4166 113.977C18.7609 113.953 19.0932 114.009 19.4134 114.144C19.731 114.28 20.0188 114.489 20.2766 114.77C20.5319 115.052 20.7394 115.399 20.8992 115.813Z" fill="#685FFF"/>
<path d="M16.5383 121.661L17.0112 122.606C16.7673 122.798 16.5774 123.015 16.4415 123.258C16.3043 123.498 16.2155 123.752 16.1749 124.02C16.1304 124.287 16.1324 124.558 16.1807 124.832C16.2291 125.107 16.3181 125.373 16.4477 125.633C16.6841 126.105 17.0177 126.474 17.4485 126.738C17.878 126.999 18.3817 127.127 18.9598 127.12C19.5366 127.111 20.1629 126.938 20.8388 126.6C21.5146 126.262 22.0291 125.865 22.3822 125.408C22.734 124.95 22.934 124.47 22.9821 123.969C23.029 123.466 22.9343 122.978 22.6979 122.506C22.5682 122.247 22.4081 122.015 22.2175 121.812C22.0269 121.609 21.8127 121.445 21.5751 121.319C21.3337 121.192 21.0758 121.111 20.8013 121.077C20.5231 121.041 20.2353 121.063 19.9381 121.142L19.4652 120.197C19.8997 120.068 20.3215 120.019 20.7306 120.05C21.1397 120.08 21.5247 120.18 21.8855 120.349C22.2439 120.519 22.5673 120.749 22.8557 121.04C23.1429 121.329 23.385 121.67 23.582 122.064C23.915 122.729 24.0486 123.403 23.9827 124.083C23.9168 124.764 23.6584 125.404 23.2075 126.001C22.7566 126.598 22.1195 127.103 21.2963 127.514C20.4732 127.926 19.6874 128.134 18.9391 128.136C18.1908 128.139 17.5243 127.962 16.9398 127.607C16.3553 127.251 15.8966 126.741 15.5636 126.075C15.3665 125.681 15.2388 125.283 15.1802 124.88C15.1204 124.475 15.1312 124.077 15.2124 123.687C15.2911 123.298 15.4409 122.931 15.6619 122.586C15.8803 122.241 16.1725 121.933 16.5383 121.661Z" fill="#685FFF"/>
<path d="M25.9335 129.832C26.1226 130.119 26.2254 130.427 26.2418 130.757C26.2558 131.088 26.191 131.403 26.0476 131.701C25.9026 131.997 25.6866 132.24 25.3996 132.429C25.1102 132.62 24.802 132.723 24.4749 132.738C24.1439 132.752 23.8302 132.686 23.534 132.541C23.2353 132.398 22.9914 132.182 22.8023 131.895C22.6115 131.606 22.51 131.297 22.4975 130.968C22.4812 130.639 22.5455 130.326 22.6905 130.03C22.8315 129.733 23.0467 129.489 23.3361 129.298C23.6232 129.109 23.9322 129.007 24.2632 128.993C24.5926 128.977 24.9067 129.041 25.2053 129.184C25.5001 129.327 25.7428 129.543 25.9335 129.832Z" fill="#685FFF"/>
<path d="M25.5578 137.993L26.2246 137.462L28.3371 140.116L27.6703 140.647L25.5578 137.993ZM25.8276 140.85L25.2013 140.063L30.0824 136.178C30.3046 136.001 30.4457 135.836 30.5055 135.683C30.5613 135.53 30.5675 135.387 30.5239 135.255C30.4763 135.122 30.4065 134.998 30.3145 134.882C30.2455 134.796 30.1844 134.728 30.1313 134.679C30.0759 134.633 30.0317 134.595 29.9985 134.567L30.5779 133.845C30.6404 133.882 30.7196 133.941 30.8157 134.02C30.914 134.098 31.0216 134.21 31.1383 134.357C31.3153 134.579 31.4409 134.835 31.5151 135.125C31.5876 135.412 31.5818 135.703 31.4977 135.999C31.4118 136.293 31.2199 136.558 30.9221 136.795L25.8276 140.85Z" fill="#685FFF"/>
<path d="M32.9977 142.747L35.9089 140.096L36.5861 140.839L31.7466 145.247L31.0924 144.528L31.8486 143.84L31.7912 143.777C31.4422 143.887 31.0879 143.895 30.7283 143.799C30.3667 143.706 30.0194 143.477 29.6866 143.111C29.3882 142.783 29.1943 142.435 29.105 142.067C29.0135 141.701 29.0411 141.326 29.1877 140.943C29.3322 140.562 29.6103 140.183 30.022 139.809L33.0971 137.008L33.7742 137.752L30.7496 140.506C30.3694 140.852 30.1631 141.221 30.1308 141.612C30.0963 142.004 30.236 142.373 30.5497 142.717C30.7658 142.954 31.0105 143.12 31.2836 143.213C31.5549 143.304 31.838 143.313 32.133 143.241C32.428 143.168 32.7162 143.003 32.9977 142.747Z" fill="#685FFF"/>
<path d="M39.1284 143.107C39.591 143.536 39.8955 144.008 40.0418 144.523C40.1841 145.038 40.175 145.564 40.0146 146.101C39.8502 146.638 39.5401 147.152 39.0845 147.644C38.6288 148.136 38.1376 148.486 37.6108 148.695C37.0801 148.905 36.5557 148.965 36.0377 148.876C35.5156 148.787 35.0379 148.542 34.6044 148.141C34.3543 147.909 34.146 147.639 33.9794 147.329C33.8128 147.02 33.7163 146.679 33.69 146.306C33.6618 145.935 33.7302 145.542 33.8952 145.125C34.0603 144.709 34.3503 144.277 34.7654 143.828L35.055 143.516L38.7562 146.945L38.1654 147.583L35.2145 144.849C34.9635 145.12 34.7937 145.412 34.7051 145.724C34.6145 146.036 34.6112 146.344 34.6953 146.651C34.7772 146.955 34.9516 147.231 35.2184 147.478C35.5122 147.75 35.834 147.913 36.1838 147.966C36.5296 148.019 36.867 147.983 37.1959 147.858C37.5248 147.733 37.8119 147.538 38.0571 147.273L38.451 146.848C38.7869 146.485 39.0092 146.12 39.1178 145.752C39.2223 145.384 39.2229 145.03 39.1195 144.691C39.0141 144.353 38.8124 144.046 38.5144 143.77C38.3206 143.59 38.1204 143.455 37.9139 143.365C37.7034 143.274 37.4897 143.231 37.2727 143.235C37.0539 143.242 36.8359 143.299 36.6189 143.408L36.0916 142.548C36.3906 142.375 36.7136 142.28 37.0606 142.26C37.4057 142.243 37.7558 142.304 38.1109 142.443C38.4641 142.585 38.8033 142.806 39.1284 143.107Z" fill="#685FFF"/>
<path d="M45.6132 145.443C45.9968 145.741 46.2882 146.046 46.4873 146.359C46.6883 146.67 46.8188 146.977 46.8789 147.279C46.9386 147.577 46.9525 147.858 46.9207 148.121L45.9429 148.074C45.9444 147.924 45.9372 147.745 45.9215 147.539C45.9075 147.33 45.84 147.107 45.7191 146.869C45.5977 146.627 45.3811 146.385 45.0693 146.142C44.6521 145.818 44.2293 145.651 43.801 145.642C43.3727 145.633 42.9912 145.844 42.6564 146.275L41.8405 147.324L41.9078 147.377C42.0393 147.328 42.213 147.276 42.4287 147.22C42.6405 147.165 42.888 147.162 43.1713 147.209C43.4507 147.257 43.7586 147.412 44.095 147.674C44.5122 147.998 44.8101 148.388 44.9886 148.843C45.1649 149.297 45.2031 149.787 45.1031 150.314C45.0008 150.839 44.7405 151.37 44.3221 151.909C43.9106 152.438 43.4592 152.827 42.968 153.075C42.475 153.325 41.9788 153.428 41.4794 153.386C40.9784 153.345 40.5102 153.156 40.0751 152.818C39.7386 152.556 39.5153 152.292 39.4051 152.027C39.2909 151.762 39.236 151.518 39.2404 151.294C39.2409 151.072 39.2468 150.893 39.2582 150.758L39.1775 150.695L38.5393 151.516L37.7722 150.92L41.9042 145.604C42.2494 145.16 42.6311 144.877 43.0491 144.756C43.4667 144.63 43.8954 144.634 44.3352 144.768C44.7745 144.897 45.2005 145.122 45.6132 145.443ZM43.4329 148.303C43.1144 148.056 42.7886 147.919 42.4555 147.894C42.1223 147.869 41.7922 147.949 41.4651 148.134C41.138 148.318 40.8263 148.601 40.5299 148.983C40.2405 149.355 40.0411 149.727 39.9319 150.099C39.8226 150.471 39.8151 150.824 39.9094 151.156C40.0037 151.488 40.2123 151.78 40.5353 152.031C40.8718 152.293 41.2184 152.425 41.5752 152.429C41.9298 152.431 42.2747 152.332 42.61 152.132C42.9431 151.931 43.2456 151.655 43.5176 151.305C43.7965 150.946 43.9872 150.585 44.0895 150.222C44.1878 149.86 44.1869 149.513 44.0869 149.184C43.9829 148.855 43.7649 148.561 43.4329 148.303Z" fill="#685FFF"/>
<path d="M51.7859 152.84L52.7208 153.434L45.3331 159.079L44.4126 158.493L46.3924 149.409L47.3273 150.004L45.5851 157.603L45.6426 157.639L51.7859 152.84ZM49.6112 155.497L45.8429 153.1L46.346 152.309L50.1143 154.706L49.6112 155.497Z" fill="#685FFF"/>
<path d="M52.3981 163.074L56.2453 155.241L57.1939 155.707L53.3467 163.54L52.3981 163.074Z" fill="#685FFF"/>
<path d="M63.5781 158.471L64.604 158.889L58.3413 165.76L57.3311 165.348L57.6592 156.057L58.6852 156.476L58.326 164.263L58.3891 164.289L63.5781 158.471ZM61.912 161.473L57.7767 159.787L58.1307 158.919L62.266 160.605L61.912 161.473Z" fill="#685FFF"/>
<path d="M70.156 160.391C70.7664 160.55 71.2578 160.821 71.6304 161.206C71.9995 161.593 72.2403 162.06 72.353 162.609C72.4621 163.16 72.4323 163.76 72.2635 164.409C72.0947 165.058 71.8277 165.599 71.4625 166.032C71.0939 166.468 70.6604 166.769 70.162 166.936C69.6601 167.105 69.1233 167.115 68.5514 166.966C68.2215 166.88 67.91 166.74 67.6169 166.547C67.3238 166.353 67.0775 166.098 66.8779 165.782C66.6776 165.469 66.5517 165.09 66.5001 164.645C66.4485 164.2 66.4996 163.682 66.6534 163.091L66.7606 162.678L71.6436 163.948L71.4247 164.79L67.5316 163.777C67.4386 164.134 67.4271 164.472 67.4971 164.789C67.5644 165.106 67.7076 165.38 67.9266 165.61C68.1428 165.84 68.4269 166 68.7788 166.092C69.1665 166.192 69.5269 166.183 69.8602 166.065C70.19 165.948 70.4702 165.757 70.7008 165.491C70.9314 165.225 71.0921 164.917 71.1829 164.568L71.3288 164.007C71.4533 163.529 71.4763 163.102 71.3979 162.726C71.316 162.353 71.1491 162.041 70.8972 161.79C70.6446 161.543 70.3217 161.368 69.9286 161.265C69.6729 161.199 69.4326 161.175 69.2078 161.192C68.9795 161.212 68.7708 161.275 68.5817 161.382C68.3919 161.491 68.2271 161.645 68.0874 161.843L67.2158 161.335C67.3977 161.041 67.637 160.804 67.9336 160.623C68.2296 160.445 68.5669 160.333 68.9456 160.288C69.3236 160.245 69.7271 160.279 70.156 160.391Z" fill="#685FFF"/>
<path d="M76.1079 161.722C76.7126 161.826 77.2086 162.059 77.596 162.42C77.9834 162.781 78.2514 163.232 78.4001 163.774C78.5487 164.316 78.5674 164.908 78.4562 165.552C78.343 166.207 78.1228 166.765 77.7955 167.224C77.465 167.686 77.0583 168.021 76.5755 168.229C76.0895 168.439 75.5553 168.493 74.9731 168.393C74.5195 168.315 74.1253 168.16 73.7904 167.929C73.4555 167.698 73.198 167.412 73.0178 167.069C72.8377 166.727 72.7544 166.349 72.7681 165.936L73.7591 166.108C73.7839 166.415 73.9069 166.704 74.1281 166.976C74.346 167.25 74.6733 167.424 75.11 167.5C75.4963 167.567 75.8525 167.524 76.1784 167.373C76.5011 167.224 76.775 166.982 77.0003 166.646C77.2222 166.312 77.3752 165.902 77.4594 165.415C77.5454 164.916 77.542 164.469 77.449 164.072C77.3533 163.675 77.1789 163.35 76.9258 163.095C76.67 162.841 76.3461 162.68 75.9542 162.612C75.6966 162.567 75.4551 162.572 75.2297 162.625C75.0043 162.679 74.8043 162.777 74.6297 162.919C74.4551 163.062 74.3167 163.246 74.2145 163.47L73.2235 163.299C73.3452 162.928 73.543 162.609 73.8169 162.342C74.0875 162.078 74.4188 161.887 74.8109 161.77C75.1996 161.656 75.632 161.64 76.1079 161.722Z" fill="#685FFF"/>
<path d="M83.5641 166.762L83.9062 162.84L84.9081 162.927L84.3394 169.448L83.3715 169.364L83.4604 168.345L83.3755 168.337C83.1938 168.655 82.9385 168.901 82.6096 169.075C82.2806 169.251 81.8698 169.318 81.3773 169.275C80.9358 169.237 80.5574 169.112 80.2421 168.902C79.9265 168.695 79.6926 168.401 79.5405 168.02C79.3881 167.642 79.3361 167.175 79.3845 166.62L79.7458 162.477L80.7477 162.564L80.3923 166.64C80.3477 167.152 80.4459 167.563 80.687 167.872C80.9278 168.184 81.2803 168.36 81.7445 168.4C82.0643 168.428 82.3562 168.384 82.6202 168.267C82.8813 168.15 83.0957 167.965 83.2632 167.712C83.4307 167.458 83.531 167.142 83.5641 166.762Z" fill="#685FFF"/>
<path d="M88.9052 162.854C89.3199 162.856 89.6961 162.935 90.0336 163.093C90.371 163.253 90.6387 163.483 90.8364 163.782C91.0342 164.084 91.1323 164.448 91.1307 164.874C91.1294 165.249 91.0544 165.553 90.9058 165.785C90.7572 166.02 90.5591 166.204 90.3115 166.337C90.0638 166.469 89.7907 166.568 89.4922 166.632C89.1908 166.699 88.8881 166.752 88.5839 166.791C88.186 166.84 87.8634 166.878 87.6162 166.902C87.3661 166.93 87.1841 166.976 87.0702 167.041C86.9535 167.106 86.8949 167.219 86.8943 167.381L86.8941 167.415C86.8926 167.836 87.0065 168.163 87.2357 168.397C87.4621 168.63 87.8069 168.748 88.27 168.75C88.7501 168.752 89.1269 168.648 89.4004 168.439C89.6739 168.229 89.8664 168.006 89.9781 167.767L90.9314 168.112C90.7595 168.509 90.5311 168.818 90.2462 169.038C89.9584 169.262 89.6454 169.417 89.307 169.504C88.9657 169.593 88.6303 169.638 88.3008 169.636C88.0906 169.636 87.8492 169.609 87.5767 169.557C87.3013 169.508 87.036 169.406 86.7809 169.251C86.5229 169.097 86.3093 168.865 86.14 168.555C85.9706 168.244 85.8869 167.829 85.8888 167.309L85.9046 162.997L86.9103 163.001L86.907 163.887L86.9582 163.887C87.0269 163.745 87.1411 163.594 87.3008 163.432C87.4604 163.271 87.6726 163.134 87.9372 163.021C88.2018 162.909 88.5245 162.853 88.9052 162.854ZM88.7484 163.757C88.3507 163.756 88.0152 163.833 87.7419 163.988C87.4658 164.143 87.2577 164.344 87.1175 164.591C86.9746 164.837 86.9026 165.097 86.9016 165.37L86.8983 166.29C86.9411 166.239 87.035 166.193 87.18 166.151C87.3222 166.111 87.4871 166.077 87.6747 166.046C87.8595 166.018 88.04 165.993 88.2162 165.971C88.3896 165.952 88.5302 165.935 88.6383 165.922C88.8997 165.888 89.1443 165.834 89.3718 165.758C89.5965 165.685 89.7787 165.574 89.9185 165.423C90.0554 165.276 90.1243 165.075 90.1253 164.819C90.1265 164.47 89.9982 164.205 89.7404 164.025C89.4797 163.848 89.149 163.759 88.7484 163.757Z" fill="#685FFF"/>
<path d="M91.9187 169.567L93.8245 162.853L94.8442 162.774L97.7646 169.112L96.677 169.197L94.4714 164.136L94.4034 164.142L93.0063 169.482L91.9187 169.567Z" fill="#685FFF"/>
<path d="M100.103 162.022C100.725 161.922 101.285 161.972 101.781 162.174C102.274 162.379 102.683 162.71 103.007 163.167C103.329 163.627 103.544 164.188 103.651 164.85C103.758 165.512 103.732 166.115 103.572 166.659C103.41 167.206 103.135 167.656 102.746 168.01C102.355 168.366 101.868 168.592 101.284 168.686C100.948 168.741 100.606 168.738 100.26 168.679C99.9138 168.62 99.5857 168.486 99.2756 168.277C98.966 168.071 98.6979 167.775 98.4714 167.389C98.2448 167.002 98.0828 166.508 97.9853 165.905L97.9172 165.484L102.898 164.678L103.037 165.537L99.0656 166.179C99.1246 166.544 99.2501 166.857 99.4423 167.12C99.6316 167.382 99.8728 167.575 100.166 167.697C100.456 167.82 100.781 167.853 101.14 167.795C101.535 167.731 101.862 167.577 102.119 167.334C102.374 167.094 102.553 166.806 102.657 166.47C102.761 166.134 102.784 165.788 102.726 165.431L102.634 164.859C102.555 164.371 102.404 163.971 102.18 163.659C101.955 163.35 101.676 163.132 101.345 163.004C101.014 162.879 100.648 162.849 100.247 162.914C99.9861 162.957 99.7565 163.031 99.5579 163.138C99.357 163.248 99.1915 163.39 99.0613 163.564C98.9315 163.74 98.8427 163.947 98.7949 164.185L97.7922 164.071C97.8406 163.73 97.964 163.416 98.1624 163.131C98.3613 162.848 98.6249 162.61 98.9533 162.416C99.282 162.224 99.6652 162.093 100.103 162.022Z" fill="#685FFF"/>
<path d="M106.221 169.902L104.316 161.386L105.297 161.166L107.202 169.683L106.221 169.902Z" fill="#685FFF"/>
<path d="M108.592 160.19C109.198 160.016 109.759 159.999 110.276 160.141C110.79 160.285 111.236 160.565 111.612 160.98C111.987 161.399 112.266 161.93 112.451 162.575C112.636 163.219 112.682 163.821 112.589 164.38C112.493 164.942 112.273 165.422 111.929 165.82C111.583 166.22 111.126 166.502 110.558 166.666C110.231 166.76 109.891 166.798 109.541 166.781C109.19 166.763 108.848 166.669 108.515 166.499C108.183 166.331 107.882 166.069 107.611 165.712C107.34 165.355 107.12 164.884 106.952 164.296L106.834 163.887L111.683 162.494L111.923 163.33L108.057 164.44C108.159 164.795 108.321 165.091 108.543 165.329C108.762 165.568 109.025 165.73 109.33 165.817C109.633 165.904 109.959 165.898 110.309 165.797C110.694 165.687 111 165.495 111.226 165.224C111.45 164.955 111.594 164.648 111.657 164.302C111.72 163.955 111.702 163.609 111.602 163.262L111.442 162.705C111.306 162.23 111.108 161.851 110.85 161.567C110.589 161.288 110.286 161.104 109.942 161.017C109.599 160.932 109.232 160.946 108.841 161.058C108.587 161.131 108.368 161.232 108.184 161.362C107.997 161.496 107.85 161.656 107.741 161.844C107.633 162.035 107.57 162.251 107.551 162.493L106.542 162.499C106.549 162.154 106.634 161.828 106.797 161.521C106.961 161.217 107.194 160.949 107.497 160.717C107.801 160.488 108.166 160.312 108.592 160.19Z" fill="#685FFF"/>
<path d="M117.512 157.25L120.655 165.392L117.904 166.454C117.268 166.699 116.704 166.792 116.212 166.732C115.721 166.675 115.305 166.497 114.963 166.196C114.622 165.895 114.359 165.505 114.174 165.025C113.988 164.546 113.922 164.082 113.975 163.636C114.028 163.189 114.216 162.781 114.54 162.413C114.865 162.047 115.342 161.742 115.973 161.499L118.199 160.639L118.543 161.53L116.349 162.377C115.914 162.545 115.589 162.743 115.373 162.973C115.154 163.203 115.03 163.458 115.001 163.738C114.97 164.02 115.018 164.325 115.144 164.651C115.269 164.977 115.44 165.238 115.656 165.435C115.872 165.632 116.14 165.745 116.459 165.774C116.779 165.806 117.159 165.737 117.598 165.567L119.332 164.898L116.526 157.631L117.512 157.25ZM115.092 162.387L111.676 159.503L112.821 159.061L116.205 161.957L115.092 162.387Z" fill="#685FFF"/>
<path d="M123.812 154.013C124.291 153.752 124.779 153.642 125.278 153.683C125.778 153.728 126.253 153.915 126.702 154.246C127.153 154.579 127.544 155.05 127.876 155.658C128.206 156.262 128.388 156.842 128.424 157.399C128.459 157.955 128.359 158.456 128.122 158.899C127.885 159.342 127.524 159.696 127.041 159.96C126.667 160.164 126.337 160.264 126.052 160.257C125.766 160.255 125.523 160.207 125.322 160.112C125.121 160.022 124.96 159.944 124.841 159.88L124.766 159.921L126.31 162.748L125.428 163.23L121.244 155.571L122.097 155.105L122.579 155.988L122.684 155.93C122.692 155.79 122.712 155.608 122.744 155.383C122.778 155.16 122.872 154.926 123.026 154.68C123.181 154.437 123.443 154.215 123.812 154.013ZM124.125 154.871C123.771 155.065 123.522 155.32 123.379 155.638C123.237 155.959 123.192 156.318 123.244 156.717C123.298 157.118 123.444 157.535 123.681 157.969C123.915 158.398 124.182 158.739 124.483 158.993C124.784 159.249 125.106 159.4 125.449 159.446C125.793 159.494 126.144 159.421 126.503 159.225C126.877 159.02 127.136 158.754 127.281 158.426C127.424 158.102 127.469 157.742 127.415 157.347C127.36 156.957 127.222 156.559 127.002 156.155C126.779 155.746 126.513 155.409 126.206 155.143C125.898 154.881 125.567 154.719 125.212 154.656C124.857 154.598 124.494 154.67 124.125 154.871Z" fill="#685FFF"/>
<path d="M128.844 151.007C129.369 150.658 129.9 150.473 130.435 150.452C130.969 150.435 131.478 150.567 131.962 150.849C132.446 151.135 132.873 151.558 133.244 152.116C133.615 152.675 133.84 153.235 133.919 153.796C133.998 154.361 133.933 154.885 133.725 155.367C133.516 155.854 133.166 156.261 132.674 156.588C132.39 156.776 132.078 156.915 131.738 157.004C131.398 157.094 131.044 157.107 130.675 157.045C130.308 156.985 129.942 156.826 129.576 156.568C129.21 156.31 128.858 155.926 128.52 155.418L128.284 155.063L132.487 152.271L132.968 152.995L129.617 155.221C129.821 155.529 130.065 155.762 130.349 155.922C130.63 156.083 130.929 156.159 131.247 156.149C131.562 156.141 131.871 156.036 132.174 155.835C132.507 155.613 132.741 155.339 132.875 155.011C133.008 154.688 133.052 154.351 133.008 154.002C132.963 153.653 132.841 153.328 132.642 153.028L132.321 152.545C132.048 152.133 131.745 151.831 131.412 151.639C131.08 151.451 130.736 151.367 130.381 151.388C130.028 151.411 129.682 151.535 129.344 151.76C129.124 151.906 128.946 152.069 128.809 152.248C128.672 152.432 128.579 152.629 128.533 152.841C128.487 153.055 128.492 153.281 128.547 153.517L127.587 153.828C127.489 153.496 127.472 153.16 127.535 152.818C127.599 152.479 127.741 152.153 127.96 151.84C128.18 151.53 128.475 151.253 128.844 151.007Z" fill="#685FFF"/>
<path d="M133.221 148.081L137.162 153.307L136.359 153.913L132.418 148.686L133.221 148.081ZM137.41 154.486C137.567 154.368 137.742 154.32 137.936 154.341C138.127 154.364 138.279 154.45 138.392 154.6C138.505 154.75 138.546 154.92 138.515 155.11C138.482 155.302 138.388 155.457 138.231 155.575C138.075 155.693 137.901 155.741 137.709 155.718C137.515 155.697 137.362 155.612 137.249 155.462C137.136 155.312 137.096 155.141 137.129 154.949C137.16 154.759 137.254 154.604 137.41 154.486Z" fill="#685FFF"/>
<path d="M138.195 152.533L137.652 151.876L140.373 149.629L140.916 150.287L138.195 152.533ZM135.933 145.912L140.676 151.656C140.915 151.945 141.046 152.242 141.069 152.547C141.093 152.852 141.036 153.142 140.898 153.418C140.761 153.693 140.572 153.931 140.331 154.13C140.14 154.287 139.972 154.4 139.826 154.469C139.681 154.538 139.567 154.583 139.486 154.606L139.156 153.751C139.207 153.732 139.275 153.703 139.361 153.665C139.446 153.628 139.544 153.564 139.655 153.472C139.912 153.26 140.043 153.043 140.05 152.819C140.055 152.598 139.955 152.362 139.749 152.112L135.158 146.553L135.933 145.912Z" fill="#685FFF"/>
<path d="M138.178 143.944L142.565 148.802L141.819 149.476L137.432 144.618L138.178 143.944ZM142.917 149.954C143.063 149.823 143.233 149.759 143.428 149.763C143.62 149.769 143.78 149.841 143.905 149.98C144.031 150.119 144.087 150.285 144.073 150.478C144.057 150.672 143.976 150.835 143.831 150.966C143.686 151.098 143.516 151.16 143.324 151.155C143.129 151.151 142.968 151.079 142.843 150.94C142.717 150.801 142.662 150.634 142.678 150.44C142.692 150.247 142.772 150.086 142.917 149.954Z" fill="#685FFF"/>
<path d="M143.231 148.222L142.634 147.614L145.056 145.238L145.653 145.847L143.231 148.222ZM146.045 147.659L145.327 148.363L140.959 143.909C140.76 143.706 140.581 143.583 140.423 143.539C140.265 143.499 140.122 143.508 139.995 143.565C139.868 143.626 139.751 143.708 139.646 143.812C139.567 143.889 139.506 143.957 139.463 144.015C139.422 144.075 139.39 144.123 139.365 144.159L138.587 143.657C138.618 143.591 138.668 143.506 138.737 143.402C138.804 143.296 138.905 143.178 139.039 143.047C139.241 142.848 139.483 142.696 139.763 142.593C140.041 142.491 140.332 142.466 140.635 142.52C140.936 142.575 141.219 142.738 141.486 143.01L146.045 147.659Z" fill="#685FFF"/>
<path d="M143.411 138.667L148.226 143.101L147.567 143.816L146.84 143.146L146.794 143.196C146.951 143.503 146.998 143.84 146.935 144.207C146.872 144.573 146.707 144.901 146.442 145.189C146.392 145.243 146.328 145.31 146.251 145.39C146.174 145.47 146.114 145.528 146.071 145.566L145.319 144.873C145.348 144.854 145.411 144.805 145.506 144.727C145.601 144.653 145.694 144.566 145.785 144.468C146 144.234 146.144 143.98 146.215 143.706C146.286 143.435 146.285 143.168 146.212 142.904C146.139 142.643 145.994 142.413 145.776 142.213L142.729 139.407L143.411 138.667Z" fill="#685FFF"/>
<path d="M145.521 135.971C145.915 135.479 146.364 135.141 146.867 134.958C147.37 134.779 147.896 134.75 148.443 134.871C148.99 134.996 149.526 135.268 150.049 135.687C150.573 136.106 150.958 136.57 151.204 137.081C151.451 137.595 151.549 138.114 151.498 138.637C151.448 139.164 151.238 139.658 150.869 140.119C150.656 140.386 150.401 140.613 150.104 140.801C149.808 140.99 149.475 141.111 149.105 141.164C148.737 141.219 148.339 141.179 147.912 141.045C147.485 140.91 147.033 140.652 146.556 140.271L146.223 140.004L149.376 136.065L150.054 136.608L147.541 139.749C147.829 139.98 148.133 140.128 148.451 140.194C148.768 140.261 149.076 140.242 149.376 140.136C149.673 140.033 149.936 139.839 150.163 139.555C150.413 139.242 150.552 138.909 150.58 138.557C150.608 138.208 150.548 137.874 150.399 137.555C150.25 137.236 150.035 136.964 149.754 136.738L149.301 136.376C148.915 136.067 148.535 135.872 148.16 135.791C147.785 135.713 147.432 135.738 147.101 135.866C146.772 135.995 146.48 136.218 146.226 136.536C146.061 136.742 145.941 136.951 145.866 137.164C145.791 137.38 145.763 137.597 145.783 137.813C145.805 138.031 145.878 138.244 146.002 138.452L145.182 139.04C144.989 138.755 144.87 138.439 144.826 138.095C144.784 137.752 144.819 137.398 144.933 137.034C145.048 136.671 145.244 136.317 145.521 135.971Z" fill="#685FFF"/>
<path d="M152.768 136.798L153.347 135.914C153.635 136.028 153.919 136.083 154.197 136.078C154.473 136.076 154.738 136.025 154.99 135.925C155.243 135.829 155.476 135.691 155.688 135.512C155.901 135.332 156.087 135.121 156.246 134.878C156.535 134.436 156.686 133.963 156.698 133.457C156.708 132.955 156.565 132.455 156.268 131.959C155.97 131.465 155.505 131.011 154.873 130.597C154.241 130.183 153.639 129.938 153.067 129.862C152.494 129.789 151.978 129.857 151.522 130.067C151.063 130.28 150.689 130.607 150.4 131.049C150.241 131.291 150.122 131.546 150.042 131.813C149.962 132.08 149.928 132.348 149.938 132.616C149.95 132.889 150.01 133.152 150.119 133.407C150.228 133.665 150.391 133.903 150.609 134.12L150.03 135.004C149.7 134.693 149.446 134.354 149.266 133.985C149.087 133.616 148.979 133.233 148.944 132.836C148.911 132.441 148.947 132.045 149.054 131.65C149.158 131.256 149.331 130.876 149.573 130.507C149.98 129.885 150.495 129.431 151.117 129.145C151.739 128.859 152.421 128.761 153.164 128.851C153.907 128.94 154.663 129.237 155.433 129.741C156.203 130.245 156.778 130.82 157.157 131.466C157.535 132.111 157.718 132.776 157.705 133.46C157.691 134.144 157.481 134.797 157.073 135.42C156.832 135.788 156.552 136.099 156.233 136.352C155.913 136.608 155.564 136.798 155.186 136.924C154.81 137.052 154.417 137.107 154.007 137.09C153.6 137.074 153.187 136.977 152.768 136.798Z" fill="#685FFF"/>
<path d="M155.104 124.568C155.257 124.26 155.472 124.017 155.748 123.837C156.027 123.658 156.332 123.556 156.662 123.529C156.991 123.506 157.31 123.57 157.618 123.723C157.928 123.877 158.172 124.092 158.349 124.367C158.528 124.647 158.629 124.951 158.653 125.28C158.679 125.61 158.616 125.929 158.463 126.237C158.308 126.547 158.092 126.79 157.815 126.966C157.538 127.146 157.235 127.248 156.906 127.272C156.579 127.299 156.26 127.236 155.949 127.082C155.641 126.929 155.398 126.713 155.22 126.434C155.04 126.157 154.937 125.854 154.91 125.524C154.885 125.197 154.95 124.879 155.104 124.568Z" fill="#685FFF"/>
<path d="M162.348 120.788L161.553 120.478L162.785 117.318L163.579 117.627L162.348 120.788ZM164.681 119.117L164.316 120.054L158.503 117.79C158.238 117.687 158.025 117.648 157.863 117.673C157.702 117.702 157.575 117.769 157.483 117.873C157.392 117.981 157.32 118.104 157.266 118.241C157.226 118.345 157.198 118.431 157.183 118.502C157.171 118.573 157.161 118.63 157.153 118.673L156.237 118.535C156.238 118.463 156.249 118.365 156.269 118.242C156.287 118.117 156.33 117.968 156.398 117.793C156.501 117.529 156.659 117.291 156.872 117.082C157.084 116.874 157.339 116.733 157.636 116.657C157.933 116.583 158.259 116.616 158.614 116.754L164.681 119.117Z" fill="#685FFF"/>
<path d="M162.715 111.967L158.959 110.784L159.261 109.825L165.505 111.791L165.213 112.718L164.237 112.411L164.212 112.492C164.483 112.738 164.667 113.04 164.766 113.399C164.867 113.759 164.844 114.174 164.695 114.646C164.562 115.068 164.359 115.411 164.086 115.673C163.815 115.937 163.477 116.101 163.072 116.167C162.67 116.234 162.203 116.184 161.672 116.017L157.705 114.768L158.007 113.808L161.909 115.037C162.4 115.192 162.822 115.185 163.176 115.016C163.532 114.848 163.78 114.542 163.92 114.098C164.017 113.792 164.037 113.497 163.98 113.214C163.922 112.934 163.788 112.684 163.576 112.466C163.365 112.248 163.078 112.081 162.715 111.967Z" fill="#685FFF"/>
<path d="M159.942 106.487C160.08 105.872 160.334 105.371 160.706 104.986C161.08 104.603 161.539 104.347 162.083 104.215C162.63 104.087 163.231 104.097 163.885 104.243C164.539 104.389 165.089 104.638 165.535 104.988C165.983 105.341 166.299 105.764 166.482 106.257C166.668 106.752 166.697 107.289 166.568 107.865C166.493 108.198 166.364 108.514 166.181 108.814C165.997 109.113 165.751 109.368 165.442 109.578C165.136 109.789 164.761 109.928 164.318 109.995C163.875 110.062 163.356 110.028 162.76 109.895L162.344 109.802L163.446 104.878L164.294 105.068L163.416 108.994C163.776 109.074 164.114 109.074 164.429 108.993C164.743 108.915 165.012 108.763 165.234 108.536C165.456 108.312 165.607 108.023 165.686 107.668C165.774 107.277 165.752 106.917 165.622 106.588C165.494 106.262 165.293 105.989 165.02 105.768C164.746 105.546 164.433 105.396 164.081 105.317L163.516 105.191C163.033 105.083 162.606 105.075 162.233 105.166C161.863 105.26 161.557 105.438 161.315 105.698C161.076 105.959 160.912 106.288 160.823 106.684C160.766 106.942 160.75 107.183 160.775 107.407C160.803 107.635 160.873 107.841 160.986 108.026C161.102 108.212 161.261 108.372 161.464 108.505L160.986 109.393C160.686 109.221 160.441 108.99 160.25 108.7C160.062 108.41 159.938 108.077 159.88 107.7C159.824 107.324 159.845 106.919 159.942 106.487Z" fill="#685FFF"/>
<path d="M158.699 99.7074C158.764 99.2259 158.881 98.8203 159.052 98.4907C159.22 98.1606 159.419 97.8936 159.65 97.6896C159.878 97.4881 160.113 97.3349 160.357 97.23L160.807 98.099C160.677 98.1732 160.526 98.269 160.356 98.3866C160.182 98.5037 160.023 98.6744 159.878 98.8985C159.73 99.1251 159.63 99.4341 159.578 99.8255C159.507 100.349 159.576 100.798 159.783 101.173C159.991 101.548 160.365 101.772 160.906 101.844L162.223 102.022L162.235 101.937C162.126 101.848 161.994 101.724 161.837 101.566C161.683 101.41 161.556 101.198 161.454 100.929C161.355 100.664 161.334 100.32 161.391 99.8974C161.461 99.3737 161.649 98.9202 161.952 98.5368C162.256 98.1562 162.66 97.8767 163.166 97.6981C163.671 97.5224 164.262 97.48 164.937 97.5709C165.602 97.6603 166.165 97.8549 166.626 98.1549C167.09 98.4552 167.429 98.8319 167.643 99.285C167.861 99.7384 167.932 100.238 167.859 100.784C167.802 101.207 167.687 101.532 167.513 101.761C167.341 101.993 167.157 102.163 166.962 102.272C166.77 102.384 166.612 102.468 166.489 102.527L166.476 102.628L167.506 102.766L167.377 103.729L160.704 102.832C160.146 102.757 159.71 102.569 159.395 102.269C159.077 101.971 158.865 101.599 158.759 101.151C158.649 100.707 158.629 100.225 158.699 99.7074ZM162.268 100.153C162.214 100.553 162.26 100.903 162.406 101.203C162.552 101.504 162.787 101.749 163.111 101.939C163.436 102.129 163.837 102.256 164.316 102.32C164.783 102.383 165.205 102.368 165.582 102.275C165.958 102.183 166.266 102.012 166.506 101.763C166.746 101.515 166.893 101.188 166.948 100.782C167.004 100.36 166.945 99.9936 166.769 99.6833C166.592 99.3757 166.333 99.1274 165.992 98.9381C165.65 98.7517 165.259 98.6289 164.82 98.5699C164.37 98.5093 163.962 98.5261 163.596 98.6203C163.234 98.7177 162.935 98.8925 162.7 99.1447C162.468 99.4002 162.324 99.7362 162.268 100.153Z" fill="#685FFF"/>
<path d="M161.987 90.6513L162.03 89.5442L170.625 93.0904L170.582 94.1804L161.735 97.0384L161.778 95.9313L169.222 93.615L169.225 93.5469L161.987 90.6513ZM165.377 91.1945L165.201 95.6569L164.264 95.6199L164.44 91.1575L165.377 91.1945Z" fill="#685FFF"/>
<path d="M170.525 84.9748L161.819 85.5899L161.745 84.5357L170.45 83.9207L170.525 84.9748Z" fill="#685FFF"/>
<path d="M160.923 77.6271L160.768 76.53L169.857 78.4867L170.009 79.567L161.814 83.9568L161.659 82.8596L168.57 79.2531L168.561 79.1856L160.923 77.6271ZM164.355 77.557L164.978 81.9793L164.05 82.11L163.427 77.6877L164.355 77.557Z" fill="#685FFF"/>
<path d="M159.274 70.9759C159.104 70.3685 159.092 69.8071 159.237 69.2916C159.385 68.7782 159.668 68.3347 160.086 67.9613C160.507 67.5899 161.041 67.3139 161.686 67.1334C162.332 66.9529 162.934 66.9115 163.492 67.0092C164.054 67.1088 164.533 67.332 164.927 67.6788C165.326 68.0277 165.604 68.4866 165.764 69.0557C165.855 69.384 165.891 69.7235 165.871 70.0742C165.851 70.425 165.755 70.7661 165.582 71.0975C165.412 71.4283 165.148 71.7278 164.789 71.9962C164.43 72.2646 163.957 72.481 163.369 72.6454L162.958 72.7601L161.6 67.9009L162.437 67.6669L163.52 71.5411C163.876 71.4417 164.173 71.2818 164.413 71.0616C164.653 70.844 164.817 70.5827 164.906 70.2777C164.996 69.9754 164.991 69.6491 164.894 69.2989C164.786 68.9131 164.597 68.6061 164.326 68.3778C164.06 68.1515 163.753 68.0056 163.407 67.94C163.062 67.8744 162.715 67.8901 162.368 67.9873L161.809 68.1433C161.333 68.2764 160.953 68.4712 160.668 68.7279C160.386 68.9866 160.2 69.2878 160.11 69.6315C160.023 69.9744 160.035 70.3415 160.144 70.7327C160.215 70.9872 160.315 71.207 160.443 71.3924C160.575 71.5796 160.735 71.7283 160.922 71.8382C161.112 71.9474 161.328 72.0124 161.569 72.0333L161.568 73.0425C161.223 73.0327 160.898 72.9452 160.592 72.7799C160.289 72.6139 160.023 72.3786 159.793 72.0741C159.566 71.7688 159.393 71.4027 159.274 70.9759Z" fill="#685FFF"/>
<path d="M157.43 65.1632C157.216 64.588 157.168 64.0422 157.285 63.5258C157.402 63.0094 157.658 62.5508 158.051 62.1499C158.445 61.749 158.948 61.4346 159.56 61.2069C160.183 60.9752 160.775 60.8852 161.337 60.9369C161.903 60.9903 162.397 61.1734 162.819 61.4861C163.245 61.8005 163.561 62.2346 163.767 62.7885C163.928 63.2198 163.992 63.6383 163.961 64.0439C163.93 64.4494 163.812 64.8162 163.607 65.1442C163.401 65.4721 163.117 65.734 162.753 65.9299L162.402 64.9872C162.655 64.8114 162.844 64.5595 162.967 64.2317C163.094 63.9055 163.081 63.5347 162.926 63.1193C162.79 62.7519 162.574 62.4653 162.279 62.2597C161.988 62.0557 161.641 61.9409 161.237 61.9152C160.837 61.8912 160.406 61.9653 159.942 62.1376C159.468 62.3139 159.083 62.5419 158.787 62.8217C158.492 63.1042 158.299 63.4187 158.206 63.7653C158.115 64.1145 158.139 64.4755 158.277 64.8483C158.368 65.0932 158.494 65.2997 158.653 65.4678C158.812 65.6358 158.998 65.7593 159.209 65.8384C159.42 65.9174 159.649 65.9446 159.894 65.92L160.245 66.8626C159.863 66.9441 159.488 66.9336 159.119 66.8311C158.754 66.7304 158.423 66.5399 158.125 66.2598C157.83 65.9814 157.599 65.6158 157.43 65.1632Z" fill="#685FFF"/>
<path d="M158.035 56.1817L154.472 57.8591L154.044 56.9492L159.966 54.1609L160.38 55.0399L159.454 55.4756L159.491 55.5527C159.857 55.5499 160.198 55.6469 160.513 55.8437C160.831 56.0393 161.096 56.3607 161.306 56.8079C161.495 57.2089 161.578 57.5984 161.555 57.9766C161.535 58.3536 161.398 58.7036 161.145 59.0268C160.895 59.3488 160.518 59.6284 160.014 59.8656L156.251 61.6373L155.823 60.7275L159.524 58.9848C159.989 58.7657 160.295 58.4743 160.441 58.1104C160.589 57.7454 160.564 57.3521 160.366 56.9306C160.229 56.6402 160.044 56.4102 159.81 56.2408C159.578 56.0739 159.31 55.9818 159.006 55.9645C158.703 55.9471 158.379 56.0196 158.035 56.1817Z" fill="#685FFF"/>
<path d="M151.972 53.532C151.764 53.1728 151.644 52.8077 151.61 52.4368C151.579 52.0644 151.643 51.7176 151.802 51.3963C151.963 51.0735 152.229 50.8057 152.598 50.5927C152.922 50.4052 153.223 50.3173 153.498 50.3288C153.776 50.3389 154.035 50.4176 154.274 50.5649C154.513 50.7123 154.736 50.8988 154.941 51.1245C155.151 51.3512 155.349 51.5863 155.535 51.8297C155.778 52.1486 155.973 52.4087 156.119 52.61C156.268 52.8124 156.4 52.9464 156.513 53.0122C156.628 53.0804 156.755 53.074 156.896 52.9931L156.925 52.9761C157.289 52.7659 157.515 52.503 157.601 52.1872C157.69 51.8739 157.618 51.5168 157.387 51.1157C157.147 50.6999 156.867 50.4264 156.549 50.2952C156.231 50.1641 155.94 50.1102 155.678 50.1335L155.496 49.1363C155.926 49.0852 156.308 49.1272 156.642 49.2625C156.98 49.3989 157.271 49.5915 157.516 49.8402C157.766 50.0901 157.972 50.3577 158.137 50.6431C158.242 50.8252 158.341 51.0472 158.433 51.3089C158.529 51.5717 158.574 51.8522 158.569 52.1504C158.565 52.4509 158.472 52.7524 158.289 53.0549C158.106 53.3573 157.789 53.6384 157.339 53.8982L153.604 56.0537L153.101 55.1827L153.869 54.7396L153.843 54.6954C153.686 54.7073 153.498 54.6848 153.278 54.628C153.058 54.5711 152.833 54.4567 152.603 54.2846C152.372 54.1126 152.162 53.8617 151.972 53.532ZM152.831 53.2133C153.03 53.5578 153.265 53.8091 153.536 53.9672C153.809 54.1278 154.088 54.2066 154.372 54.2037C154.657 54.2032 154.917 54.1347 155.153 53.9984L155.951 53.5384C155.885 53.527 155.798 53.4693 155.688 53.3651C155.583 53.2619 155.47 53.1369 155.349 52.9902C155.232 52.8444 155.12 52.701 155.012 52.5598C154.908 52.4196 154.823 52.3063 154.757 52.2199C154.597 52.0106 154.427 51.8267 154.247 51.6682C154.07 51.5107 153.882 51.4093 153.682 51.364C153.486 51.3197 153.277 51.3615 153.056 51.4893C152.753 51.6639 152.589 51.9079 152.563 52.2213C152.541 52.5357 152.631 52.8664 152.831 53.2133Z" fill="#685FFF"/>
<path d="M156.256 47.5511L149.495 49.2806L148.914 48.4392L152.923 42.7271L153.543 43.6246L150.279 48.0761L150.318 48.1322L155.636 46.6536L156.256 47.5511Z" fill="#685FFF"/>
<path d="M145.621 44.2722C145.221 43.7848 144.983 43.276 144.908 42.7458C144.837 42.216 144.917 41.6961 145.149 41.186C145.385 40.6763 145.762 40.2087 146.28 39.7832C146.798 39.3578 147.333 39.0773 147.883 38.9416C148.437 38.8063 148.965 38.8178 149.466 38.9761C149.971 39.1347 150.411 39.4424 150.786 39.8991C151.003 40.1626 151.172 40.4588 151.295 40.7878C151.418 41.1168 151.468 41.4679 151.443 41.8409C151.421 42.2121 151.3 42.5928 151.08 42.983C150.86 43.3731 150.514 43.762 150.042 44.1496L149.712 44.42L146.511 40.5204L147.182 39.9688L149.735 43.0779C150.02 42.8435 150.228 42.5773 150.359 42.2793C150.491 41.9834 150.536 41.678 150.494 41.3631C150.454 41.0503 150.319 40.7534 150.088 40.4724C149.834 40.1628 149.537 39.958 149.198 39.858C148.862 39.7585 148.523 39.7483 148.18 39.8277C147.837 39.907 147.527 40.0612 147.248 40.2901L146.8 40.6579C146.418 40.9715 146.148 41.3033 145.99 41.6532C145.837 42.0034 145.788 42.3539 145.845 42.7046C145.903 43.0535 146.061 43.385 146.319 43.6989C146.487 43.9031 146.667 44.0641 146.859 44.1819C147.055 44.3001 147.261 44.3719 147.477 44.3971C147.695 44.4205 147.918 44.393 148.148 44.3147L148.554 45.2387C148.234 45.3687 147.901 45.4198 147.555 45.3918C147.21 45.362 146.872 45.254 146.539 45.0679C146.208 44.88 145.902 44.6147 145.621 44.2722Z" fill="#685FFF"/>
<path d="M149.354 35.0207L142.951 40.951L142.268 40.2132L148.671 34.2829L149.354 35.0207Z" fill="#685FFF"/>
<path d="M139.767 37.8579C139.312 37.4216 139.016 36.9447 138.878 36.4272C138.744 35.9096 138.762 35.3838 138.932 34.8498C139.105 34.3156 139.424 33.8065 139.888 33.3224C140.351 32.8383 140.848 32.4961 141.379 32.2959C141.913 32.0956 142.438 32.0442 142.955 32.1417C143.475 32.2391 143.949 32.4922 144.375 32.901C144.621 33.1368 144.825 33.4108 144.987 33.7228C145.148 34.0348 145.239 34.3774 145.259 34.7507C145.281 35.122 145.206 35.5144 145.034 35.928C144.862 36.3415 144.564 36.7688 144.142 37.2099L143.847 37.5175L140.204 34.0269L140.805 33.3992L143.71 36.1823C143.966 35.9156 144.14 35.6266 144.234 35.3151C144.33 35.0057 144.338 34.6971 144.259 34.3893C144.183 34.0835 144.013 33.8049 143.75 33.5533C143.461 33.2762 143.142 33.1082 142.793 33.0493C142.448 32.9904 142.11 33.0207 141.779 33.1403C141.448 33.2599 141.158 33.4499 140.909 33.7105L140.508 34.1289C140.166 34.4858 139.937 34.8474 139.822 35.2135C139.712 35.5795 139.705 35.9333 139.803 36.2748C139.903 36.6143 140.099 36.9245 140.392 37.2056C140.583 37.3884 140.781 37.5268 140.986 37.6209C141.195 37.7149 141.408 37.7616 141.625 37.7609C141.844 37.7583 142.063 37.7044 142.282 37.5992L142.794 38.4683C142.493 38.6355 142.168 38.7258 141.821 38.7393C141.475 38.7507 141.126 38.6838 140.774 38.5386C140.423 38.3914 140.087 38.1645 139.767 37.8579Z" fill="#685FFF"/>
<path d="M132.739 31.6267L138.195 24.8151L140.497 26.6586C141.029 27.0849 141.393 27.5257 141.589 27.981C141.786 28.4341 141.841 28.8838 141.753 29.3301C141.665 29.7764 141.46 30.2002 141.139 30.6015C140.817 31.0029 140.45 31.293 140.037 31.472C139.625 31.651 139.178 31.6933 138.696 31.599C138.217 31.5024 137.713 31.2428 137.185 30.8201L135.323 29.3283L135.92 28.5832L137.756 30.0538C138.119 30.3451 138.455 30.5263 138.762 30.5974C139.071 30.6704 139.353 30.6493 139.609 30.5341C139.87 30.4184 140.109 30.2242 140.327 29.9515C140.546 29.6788 140.686 29.3996 140.747 29.1139C140.808 28.8282 140.772 28.5402 140.636 28.25C140.503 27.9575 140.252 27.6639 139.884 27.369L138.434 26.2075L133.564 32.2874L132.739 31.6267ZM138.397 31.135L137.622 35.5375L136.664 34.7703L137.465 30.389L138.397 31.135Z" fill="#685FFF"/>
<path d="M126.773 27.8092C126.306 27.527 125.965 27.1599 125.75 26.708C125.537 26.2537 125.46 25.7491 125.52 25.1944C125.582 24.6372 125.792 24.0621 126.15 23.4689C126.506 22.8806 126.916 22.4311 127.379 22.1204C127.842 21.8097 128.325 21.6452 128.828 21.6269C129.33 21.6087 129.817 21.7421 130.289 22.0273C130.653 22.2478 130.905 22.4828 131.043 22.7322C131.185 22.9807 131.265 23.2153 131.284 23.4361C131.307 23.6559 131.321 23.8336 131.326 23.969L131.399 24.0131L133.066 21.2563L133.926 21.7767L129.41 29.2448L128.579 28.7421L129.099 27.8815L128.997 27.8198C128.872 27.8836 128.704 27.9581 128.494 28.0431C128.284 28.1257 128.035 28.1624 127.745 28.1531C127.456 28.1414 127.132 28.0268 126.773 27.8092ZM127.357 27.1067C127.702 27.3154 128.048 27.4019 128.395 27.366C128.744 27.3278 129.077 27.1857 129.395 26.9398C129.714 26.6914 130.002 26.3557 130.258 25.9327C130.511 25.5146 130.671 25.112 130.739 24.7249C130.809 24.3353 130.777 23.981 130.645 23.6619C130.514 23.3404 130.273 23.0738 129.923 22.8621C129.559 22.6416 129.198 22.5515 128.842 22.5917C128.49 22.6309 128.156 22.773 127.842 23.0179C127.532 23.2619 127.258 23.5809 127.02 23.9747C126.779 24.3734 126.62 24.7723 126.545 25.1716C126.473 25.5699 126.5 25.9378 126.624 26.2754C126.753 26.612 126.997 26.8891 127.357 27.1067Z" fill="#685FFF"/>
<path d="M121.643 24.9711C121.078 24.6926 120.651 24.3274 120.364 23.8756C120.08 23.4225 119.938 22.9158 119.939 22.3555C119.943 21.794 120.093 21.2124 120.389 20.6109C120.685 20.0093 121.056 19.5331 121.501 19.1822C121.949 18.83 122.435 18.6225 122.957 18.5595C123.482 18.4952 124.01 18.5936 124.54 18.8546C124.846 19.0051 125.123 19.2048 125.371 19.4535C125.619 19.7023 125.809 20.0016 125.941 20.3514C126.074 20.6987 126.121 21.0955 126.082 21.5416C126.042 21.9878 125.888 22.4849 125.618 23.0329L125.43 23.4153L120.903 21.187L121.287 20.4071L124.896 22.1837C125.059 21.8523 125.139 21.524 125.134 21.1988C125.132 20.8748 125.047 20.578 124.879 20.3085C124.713 20.0402 124.468 19.8257 124.141 19.6651C123.782 19.4882 123.427 19.4243 123.077 19.4735C122.73 19.5214 122.417 19.6523 122.138 19.8663C121.858 20.0802 121.639 20.349 121.479 20.6727L121.223 21.1926C121.005 21.6361 120.897 22.0497 120.898 22.4334C120.903 22.8158 121.003 23.1551 121.199 23.4511C121.397 23.7447 121.678 23.9811 122.042 24.1606C122.279 24.2772 122.51 24.3495 122.734 24.3773C122.961 24.4039 123.178 24.3841 123.385 24.318C123.593 24.2494 123.785 24.1319 123.962 23.9657L124.713 24.6394C124.476 24.8899 124.194 25.074 123.867 25.1917C123.541 25.3068 123.188 25.3483 122.808 25.3164C122.429 25.2819 122.041 25.1668 121.643 24.9711Z" fill="#685FFF"/>
<path d="M116.913 22.6603L119.449 16.6258L120.376 17.0153L117.841 23.0498L116.913 22.6603ZM120.343 15.8181C120.162 15.7422 120.032 15.6152 119.953 15.437C119.876 15.26 119.874 15.0851 119.947 14.9122C120.019 14.7394 120.146 14.6183 120.326 14.5492C120.509 14.4811 120.69 14.485 120.871 14.5609C121.052 14.6369 121.18 14.7633 121.257 14.9404C121.336 15.1185 121.34 15.294 121.267 15.4668C121.194 15.6397 121.067 15.7602 120.884 15.8282C120.704 15.8974 120.523 15.894 120.343 15.8181Z" fill="#685FFF"/>
<path d="M118.26 16.122L117.965 16.9216L114.655 15.7001L114.95 14.9006L118.26 16.122ZM113.675 21.4072L116.254 14.4189C116.384 14.067 116.575 13.8043 116.826 13.6308C117.078 13.4572 117.358 13.3605 117.665 13.3406C117.972 13.3206 118.272 13.3648 118.565 13.473C118.797 13.5585 118.979 13.647 119.112 13.7384C119.245 13.8298 119.342 13.9048 119.402 13.9633L118.829 14.6786C118.787 14.6449 118.728 14.6003 118.651 14.5448C118.577 14.4904 118.473 14.4381 118.337 14.3879C118.025 14.2728 117.771 14.2684 117.574 14.3745C117.38 14.4816 117.227 14.687 117.115 14.9909L114.619 21.7553L113.675 21.4072Z" fill="#685FFF"/>
<path d="M110.844 20.4567L112.836 14.2217L113.794 14.5278L111.802 20.7628L110.844 20.4567ZM113.655 13.3382C113.468 13.2785 113.327 13.1635 113.233 12.9931C113.141 12.8235 113.123 12.6494 113.18 12.4708C113.237 12.2922 113.352 12.1605 113.526 12.0757C113.702 11.9917 113.883 11.9796 114.07 12.0392C114.256 12.0989 114.396 12.2135 114.488 12.383C114.582 12.5534 114.601 12.7279 114.544 12.9066C114.487 13.0852 114.371 13.2164 114.195 13.3004C114.021 13.3852 113.841 13.3978 113.655 13.3382Z" fill="#685FFF"/>
<path d="M112 13.9386L111.774 14.7605L108.503 13.862L108.729 13.0402L112 13.9386ZM110.098 11.7899L111.068 12.0562L109.415 18.0721C109.34 18.346 109.323 18.5624 109.365 18.7212C109.41 18.878 109.49 18.997 109.603 19.0782C109.72 19.1574 109.849 19.2165 109.992 19.2556C110.099 19.285 110.188 19.3036 110.259 19.3114C110.331 19.3166 110.389 19.3206 110.433 19.3237L110.391 20.249C110.318 20.2556 110.219 20.2551 110.095 20.2474C109.97 20.2424 109.817 20.2151 109.636 20.1654C109.362 20.0902 109.109 19.9576 108.879 19.7675C108.651 19.5783 108.484 19.3394 108.377 19.0509C108.274 18.7632 108.272 18.4358 108.373 18.0687L110.098 11.7899Z" fill="#685FFF"/>
<path d="M103.651 18.5891L105.062 12.1975L106.011 12.4068L105.798 13.3722L105.864 13.3869C106.051 13.0964 106.318 12.8863 106.667 12.7567C107.015 12.6271 107.381 12.6045 107.764 12.689C107.836 12.7049 107.926 12.7262 108.033 12.7528C108.141 12.7795 108.222 12.8017 108.276 12.8195L108.056 13.8182C108.024 13.8025 107.951 13.7732 107.835 13.7302C107.723 13.6851 107.602 13.6481 107.471 13.6194C107.161 13.5508 106.869 13.5548 106.596 13.6313C106.326 13.7056 106.096 13.8409 105.904 14.0372C105.716 14.2313 105.59 14.4726 105.526 14.7611L104.634 18.8059L103.651 18.5891Z" fill="#685FFF"/>
<path d="M100.26 18.1216C99.6367 18.0287 99.1191 17.8109 98.7077 17.4682C98.2995 17.1231 98.0102 16.6836 97.8398 16.1499C97.6726 15.6137 97.6384 15.0141 97.7372 14.3509C97.8359 13.6878 98.0438 13.1213 98.3607 12.6515C98.6809 12.1793 99.0799 11.8337 99.5577 11.6148C100.039 11.3934 100.571 11.3263 101.156 11.4133C101.493 11.4635 101.818 11.5693 102.13 11.7306C102.442 11.892 102.714 12.1192 102.946 12.4123C103.178 12.7025 103.344 13.0661 103.443 13.503C103.541 13.9399 103.546 14.4604 103.456 15.0646L103.393 15.4861L98.4026 14.743L98.5306 13.8831L102.509 14.4756C102.564 14.1103 102.539 13.7735 102.436 13.4651C102.335 13.1572 102.164 12.9004 101.922 12.6949C101.682 12.4898 101.383 12.3604 101.023 12.3069C100.627 12.2479 100.269 12.2952 99.9505 12.4488C99.6351 12.6 99.3768 12.82 99.1758 13.1089C98.9748 13.3978 98.8478 13.7207 98.7946 14.0775L98.7093 14.6508C98.6365 15.1397 98.6591 15.5667 98.777 15.9318C98.8982 16.2945 99.0974 16.587 99.3745 16.8092C99.652 17.0286 99.9917 17.1682 100.394 17.2281C100.655 17.267 100.896 17.2656 101.118 17.2239C101.343 17.1798 101.544 17.0949 101.72 16.9689C101.897 16.8402 102.045 16.6697 102.163 16.4575L103.084 16.8703C102.934 17.1812 102.721 17.4425 102.445 17.6542C102.17 17.8631 101.847 18.0103 101.475 18.0957C101.104 18.1782 100.699 18.1869 100.26 18.1216Z" fill="#685FFF"/>
<path d="M97.329 11.442L96.2737 11.3862C96.2273 11.0794 96.1322 10.8069 95.9883 10.5689C95.8473 10.331 95.6702 10.1282 95.4572 9.96044C95.2472 9.79002 95.0109 9.65804 94.7484 9.5645C94.486 9.47097 94.21 9.41655 93.9207 9.40125C93.393 9.37334 92.9079 9.4814 92.4654 9.72542C92.0258 9.9696 91.666 10.3446 91.3861 10.8504C91.109 11.3564 90.9505 11.9866 90.9106 12.7413C90.8707 13.4959 90.9618 14.1394 91.184 14.6718C91.409 15.2043 91.7273 15.6151 92.1387 15.9043C92.553 16.1936 93.024 16.3522 93.5516 16.3801C93.841 16.3954 94.1211 16.3704 94.392 16.3051C94.6629 16.2398 94.9117 16.1348 95.1384 15.9904C95.368 15.8432 95.5655 15.6588 95.7309 15.4371C95.8992 15.2127 96.0226 14.9518 96.1009 14.6544L97.1562 14.7102C97.0532 15.1514 96.8875 15.5423 96.6589 15.883C96.4304 16.2237 96.1536 16.5092 95.8284 16.7395C95.5035 16.967 95.1433 17.1343 94.7479 17.2414C94.3553 17.3486 93.9392 17.3906 93.4994 17.3674C92.7562 17.3281 92.1047 17.1116 91.5452 16.7178C90.9857 16.3241 90.5576 15.7837 90.2611 15.0966C89.9646 14.4096 89.8406 13.6064 89.8893 12.6873C89.9379 11.7681 90.1458 10.9825 90.5132 10.3306C90.8805 9.6786 91.3631 9.18635 91.961 8.85382C92.559 8.5213 93.2296 8.37469 93.9729 8.41399C94.4126 8.43724 94.822 8.5229 95.2011 8.67097C95.583 8.81918 95.9234 9.02495 96.2225 9.28826C96.5216 9.54874 96.7669 9.86042 96.9582 10.2233C97.1497 10.5833 97.2733 10.9896 97.329 11.442Z" fill="#685FFF"/>
<path d="M107.179 101.199C114.767 101.199 122.044 98.1844 127.41 92.819C132.775 87.4535 135.789 80.1765 135.789 72.5886C135.789 65.0008 132.775 57.7237 127.41 52.3583C122.044 46.9929 114.767 43.9786 107.179 43.9786C99.5915 43.9786 92.3144 46.9929 86.949 52.3583C81.5836 57.7237 78.5693 65.0008 78.5693 72.5886C78.5693 80.1765 81.5836 87.4535 86.949 92.819C92.3144 98.1844 99.5915 101.199 107.179 101.199Z" fill="#C7D2FE"/>
<path d="M70.8185 72.5886H68.1985C63.3556 72.5886 58.7111 74.5124 55.2867 77.9369C51.8623 81.3613 49.9385 86.0058 49.9385 90.8486V111.559C49.9372 113.957 50.4085 116.333 51.3256 118.549C52.2426 120.766 53.5874 122.78 55.2832 124.477C56.9789 126.174 58.9923 127.519 61.2084 128.438C63.4244 129.356 65.7997 129.829 68.1985 129.829H88.9085C91.3073 129.829 93.6825 129.356 95.8986 128.438C98.1146 127.519 100.128 126.174 101.824 124.477C103.52 122.78 104.864 120.766 105.781 118.549C106.698 116.333 107.17 113.957 107.168 111.559V108.939C97.5338 108.928 88.2967 105.096 81.4839 98.2832C74.6711 91.4704 70.8391 82.2333 70.8285 72.5986L70.8185 72.5886Z" fill="white"/>
<path d="M107.179 101.219V90.8486C107.179 88.4498 106.706 86.0746 105.788 83.8585C104.869 81.6425 103.523 79.6291 101.827 77.9333C100.13 76.2376 98.116 74.8928 95.8995 73.9757C93.6829 73.0587 91.3074 72.5873 88.9086 72.5886H78.5586C78.5586 88.3886 91.3586 101.199 107.169 101.199L107.179 101.219Z" fill="#818CF8"/>
</svg>
