<svg width="529" height="296" viewBox="0 0 529 296" fill="none" xmlns="http://www.w3.org/2000/svg">
<rect width="529" height="296" fill="#2C57AA"/>
<path d="M77 46.5L152.5 49L156 122.5L66.6104 131.896L77 46.5Z" fill="url(#paint0_linear_75_169)"/>
<path d="M378.5 171.5L454 179.5L457.5 254L365 255.852L378.5 171.5Z" fill="url(#paint1_linear_75_169)"/>
<path d="M224 51.5L289.267 52L301 129.5L249.5 136L221.5 114L224 51.5Z" fill="url(#paint2_linear_75_169)"/>
<path d="M79.9999 172.5L155.5 184.5L155.5 259L88.4999 253.5L67.9996 234L79.9999 172.5Z" fill="url(#paint3_linear_75_169)"/>
<path d="M378.5 46L454 48.5L460.5 130.633L365.717 130.633L378.5 46Z" fill="url(#paint4_linear_75_169)"/>
<path d="M226 175L301.5 174L311 254.5L219.276 259.491L226 175Z" fill="url(#paint5_linear_75_169)"/>
<path d="M76.6104 46.8956H152.61V118.07L76.6104 122.896V46.8956Z" fill="#44D2FF"/>
<path d="M378.982 170.957L454.878 174.939L451.148 246.016L375 246.852L378.982 170.957Z" fill="#FCFF76"/>
<path d="M223.715 51.2391L299.267 43L307.506 118.552L269.73 122.672L250.842 124.731L229.894 107.903L227.834 89.0152L223.715 51.2391Z" fill="#FCFF76"/>
<path d="M80.6025 169.285L156.221 176.888L148.618 252.506L110.809 248.705L91.9043 246.804L74.9003 225.999L76.8011 207.094L80.6025 169.285Z" fill="#FF59A9"/>
<path d="M250.842 124.731L229.895 107.903L248.783 105.843L250.842 124.731Z" fill="#D5DA00"/>
<rect x="378.201" y="45.6738" width="76" height="76" transform="rotate(1.87316 378.201 45.6738)" fill="#FF59A9"/>
<rect x="226.015" y="174.561" width="76" height="76" transform="rotate(-2.4596 226.015 174.561)" fill="#44D2FF"/>
<path d="M91.9043 246.804L74.9004 225.999L93.8051 227.9L91.9043 246.804Z" fill="#FF007B"/>
<rect x="88.6104" y="61.8956" width="8" height="8" rx="3" fill="#007398"/>
<rect x="238.604" y="188.034" width="8" height="8" rx="3" transform="rotate(-2.4596 238.604 188.034)" fill="#007398"/>
<rect x="239.978" y="220.004" width="8" height="8" rx="3" transform="rotate(-2.4596 239.978 220.004)" fill="#007398"/>
<rect x="238.265" y="64.7414" width="8" height="8" rx="3" transform="rotate(-6.22362 238.265 64.7414)" fill="#8C8E00"/>
<rect x="391.638" y="63.1224" width="6" height="6" rx="3" transform="rotate(1.87316 391.638 63.1224)" stroke="#B9035B" stroke-width="2"/>
<rect x="414.625" y="63.8741" width="6" height="6" rx="3" transform="rotate(1.87316 414.625 63.8741)" stroke="#B9035B" stroke-width="2"/>
<rect x="414.005" y="82.8639" width="6" height="6" rx="3" transform="rotate(1.87316 414.005 82.8639)" stroke="#B9035B" stroke-width="2"/>
<rect x="413.384" y="101.854" width="6" height="6" rx="3" transform="rotate(1.87316 413.384 101.854)" stroke="#B9035B" stroke-width="2"/>
<rect x="102.61" y="61.8956" width="38" height="8" rx="3" fill="#007398"/>
<rect x="253.278" y="203.418" width="38" height="8" rx="3" transform="rotate(-2.4596 253.278 203.418)" fill="#007398"/>
<rect x="93.1318" y="184.615" width="48" height="8" rx="3" transform="rotate(5.74141 93.1318 184.615)" fill="#B9035B"/>
<rect x="392.229" y="185.671" width="48" height="8" rx="3" transform="rotate(3.0038 392.229 185.671)" fill="#8C8E00"/>
<rect x="261.129" y="62.248" width="25" height="8" rx="3" transform="rotate(-6.22362 261.129 62.248)" fill="#8C8E00"/>
<rect x="424.652" y="63.2015" width="15" height="8" rx="3" transform="rotate(1.87316 424.652 63.2015)" fill="#B9035B"/>
<rect x="424.031" y="82.1914" width="15" height="8" rx="3" transform="rotate(1.87316 424.031 82.1914)" fill="#B9035B"/>
<rect x="423.411" y="101.181" width="15" height="8" rx="3" transform="rotate(1.87316 423.411 101.181)" fill="#B9035B"/>
<rect x="255.164" y="62.8984" width="38" height="2" rx="0.999999" transform="rotate(83.7764 255.164 62.8984)" fill="#8C8E00"/>
<rect x="438.749" y="215.149" width="48" height="2" rx="0.999998" transform="rotate(-176.996 438.749 215.149)" fill="#8C8E00"/>
<rect x="102.61" y="77.8956" width="29" height="8" rx="3" fill="#007398"/>
<rect x="252.592" y="187.433" width="29" height="8" rx="3" transform="rotate(-2.4596 252.592 187.433)" fill="#007398"/>
<rect x="253.965" y="219.403" width="12" height="8" rx="3" transform="rotate(-2.4596 253.965 219.403)" fill="#007398"/>
<rect x="390.553" y="217.627" width="19" height="8" rx="3" transform="rotate(3.0038 390.553 217.627)" fill="#8C8E00"/>
<rect x="267.952" y="218.802" width="17" height="8" rx="3" transform="rotate(-2.4596 267.952 218.802)" fill="#007398"/>
<rect x="412.521" y="218.78" width="26" height="8" rx="3" transform="rotate(3.0038 412.521 218.78)" fill="#8C8E00"/>
<rect x="91.6309" y="199.54" width="37" height="8" rx="3" transform="rotate(5.74141 91.6309 199.54)" fill="#B9035B"/>
<rect x="391.652" y="196.656" width="37" height="8" rx="3" transform="rotate(3.0038 391.652 196.656)" fill="#8C8E00"/>
<rect x="262.213" y="72.189" width="19" height="8" rx="3" transform="rotate(-6.22362 262.213 72.189)" fill="#8C8E00"/>
<rect x="102.61" y="88.8956" width="36" height="8" rx="3" fill="#007398"/>
<rect x="88.6104" y="77.8956" width="8" height="8" rx="3" fill="#007398"/>
<rect x="239.291" y="204.019" width="8" height="8" rx="3" transform="rotate(-2.4596 239.291 204.019)" fill="#007398"/>
<rect x="239.565" y="76.6707" width="8" height="8" rx="3" transform="rotate(-6.22362 239.565 76.6707)" fill="#8C8E00"/>
<rect x="240.866" y="88.6" width="8" height="8" rx="3" transform="rotate(-6.22362 240.866 88.6)" fill="#8C8E00"/>
<path d="M397.536 66.3168L414.527 66.8725" stroke="#B9035B" stroke-width="2"/>
<path d="M406.032 66.5947L405.068 96.079C404.915 100.771 408.594 104.699 413.286 104.852V104.852" stroke="#B9035B" stroke-width="2"/>
<path d="M405.91 85.6009L413.906 85.8624" stroke="#B9035B" stroke-width="2"/>
<path d="M198.534 154.548L190 169L181.452 154.548L167 146L181.452 137.466L190 123L198.534 137.466L213 146L198.534 154.548Z" fill="white"/>
<path d="M50.5981 80.7993L40.7988 71L30.9995 80.7993L40.7988 90.5986L50.5981 80.7993Z" fill="white"/>
<path d="M500.598 219.799L490.799 210L481 219.799L490.799 229.599L500.598 219.799Z" fill="white"/>
<defs>
<linearGradient id="paint0_linear_75_169" x1="104.61" y1="55.8956" x2="103" y2="126.5" gradientUnits="userSpaceOnUse">
<stop offset="0.351727" stop-color="#001D55"/>
<stop offset="1" stop-color="#2C57AA" stop-opacity="0"/>
</linearGradient>
<linearGradient id="paint1_linear_75_169" x1="411" y1="178" x2="402.948" y2="257.843" gradientUnits="userSpaceOnUse">
<stop offset="0.36084" stop-color="#001D55"/>
<stop offset="0.887856" stop-color="#2C57AA" stop-opacity="0"/>
</linearGradient>
<linearGradient id="paint2_linear_75_169" x1="257.5" y1="86.5" x2="238.5" y2="133" gradientUnits="userSpaceOnUse">
<stop stop-color="#001D55"/>
<stop offset="1" stop-color="#2C57AA" stop-opacity="0"/>
</linearGradient>
<linearGradient id="paint3_linear_75_169" x1="108.412" y1="182.086" x2="99.5" y2="275.5" gradientUnits="userSpaceOnUse">
<stop offset="0.168417" stop-color="#001D55"/>
<stop offset="0.833468" stop-color="#2C57AA" stop-opacity="0"/>
</linearGradient>
<linearGradient id="paint4_linear_75_169" x1="412.5" y1="55.5" x2="419" y2="128" gradientUnits="userSpaceOnUse">
<stop offset="0.196719" stop-color="#001D55"/>
<stop offset="1" stop-color="#2C57AA" stop-opacity="0"/>
</linearGradient>
<linearGradient id="paint5_linear_75_169" x1="261.5" y1="167.5" x2="257.241" y2="257.861" gradientUnits="userSpaceOnUse">
<stop offset="0.381931" stop-color="#001D55"/>
<stop offset="0.924694" stop-color="#2C57AA" stop-opacity="0"/>
</linearGradient>
</defs>
</svg>
