<svg width="529" height="296" viewBox="0 0 529 296" fill="none" xmlns="http://www.w3.org/2000/svg">
<g clip-path="url(#clip0_59_743)">
<rect width="529" height="296" fill="white"/>
<path d="M529 0H0V296H529V0Z" fill="#ADE862"/>
<path d="M320.357 90L43.5 35.5C39.8312 35.5 36.8571 38.4724 36.8571 42.139L13 273.361C13 277.028 15.9741 280 19.6429 280L320.357 265.139C324.026 265.139 327 262.167 327 258.5V96.639C327 92.9724 324.026 90 320.357 90Z" fill="url(#paint0_radial_59_743)"/>
<path d="M300.5 184.96C300.5 184.96 330.68 141.81 389.11 162.11C470.45 190.37 459.6 76.94 565.16 91.8V314.66H300.5V184.96Z" fill="url(#paint1_linear_59_743)"/>
<path d="M300.5 184.96C300.5 184.96 330.68 141.81 389.11 162.11C470.45 190.37 459.6 76.94 565.16 91.8" stroke="white" stroke-width="7" stroke-miterlimit="10"/>
<path d="M321.06 34H43.11C39.7189 34 36.97 36.749 36.97 40.14V258.79C36.97 262.181 39.7189 264.93 43.11 264.93H321.06C324.451 264.93 327.2 262.181 327.2 258.79V40.14C327.2 36.749 324.451 34 321.06 34Z" fill="black"/>
<path d="M225.68 87.97H154.9C153.663 87.97 152.66 88.9729 152.66 90.21V93.39C152.66 94.6271 153.663 95.63 154.9 95.63H225.68C226.917 95.63 227.92 94.6271 227.92 93.39V90.21C227.92 88.9729 226.917 87.97 225.68 87.97Z" fill="#E8EEFF"/>
<path d="M198.94 73.1201H154.9C153.663 73.1201 152.66 74.1229 152.66 75.3601V78.5401C152.66 79.7772 153.663 80.7801 154.9 80.7801H198.94C200.177 80.7801 201.18 79.7772 201.18 78.5401V75.3601C201.18 74.1229 200.177 73.1201 198.94 73.1201Z" fill="#99F6E4"/>
<path d="M257.93 73.1201H213.89C212.653 73.1201 211.65 74.1229 211.65 75.3601V78.5401C211.65 79.7772 212.653 80.7801 213.89 80.7801H257.93C259.167 80.7801 260.17 79.7772 260.17 78.5401V75.3601C260.17 74.1229 259.167 73.1201 257.93 73.1201Z" fill="#E8EEFF"/>
<path d="M292.26 154.46H154.9C153.663 154.46 152.66 155.463 152.66 156.7V159.88C152.66 161.117 153.663 162.12 154.9 162.12H292.26C293.497 162.12 294.5 161.117 294.5 159.88V156.7C294.5 155.463 293.497 154.46 292.26 154.46Z" fill="#E8EEFF"/>
<path d="M180.74 139.6H154.9C153.663 139.6 152.66 140.603 152.66 141.84V145.02C152.66 146.257 153.663 147.26 154.9 147.26H180.74C181.977 147.26 182.98 146.257 182.98 145.02V141.84C182.98 140.603 181.977 139.6 180.74 139.6Z" fill="#99F6E4"/>
<path d="M257.93 139.6H195.37C194.133 139.6 193.13 140.603 193.13 141.84V145.02C193.13 146.257 194.133 147.26 195.37 147.26H257.93C259.167 147.26 260.17 146.257 260.17 145.02V141.84C260.17 140.603 259.167 139.6 257.93 139.6Z" fill="#E8EEFF"/>
<path d="M240.99 220.43H154.9C153.663 220.43 152.66 221.433 152.66 222.67V225.85C152.66 227.087 153.663 228.09 154.9 228.09H240.99C242.227 228.09 243.23 227.087 243.23 225.85V222.67C243.23 221.433 242.227 220.43 240.99 220.43Z" fill="#E8EEFF"/>
<path d="M224.41 205.58H154.9C153.663 205.58 152.66 206.583 152.66 207.82V211C152.66 212.237 153.663 213.24 154.9 213.24H224.41C225.647 213.24 226.65 212.237 226.65 211V207.82C226.65 206.583 225.647 205.58 224.41 205.58Z" fill="#FECACA"/>
<path d="M85.27 104.47C96.371 104.47 105.37 95.4709 105.37 84.37C105.37 73.2691 96.371 64.27 85.27 64.27C74.1691 64.27 65.17 73.2691 65.17 84.37C65.17 95.4709 74.1691 104.47 85.27 104.47Z" fill="white" stroke="#6100FF" stroke-width="5" stroke-miterlimit="10"/>
<path d="M76.56 79.2H93.99L86.89 74.39C85.91 73.73 84.63 73.73 83.65 74.39L76.55 79.2H76.56Z" fill="#6100FF"/>
<path d="M92.5501 76.06L89.7001 74.21V73.3H92.5501V76.06Z" fill="#6100FF"/>
<path d="M76.5601 81.3V91.7C76.5601 92.61 77.3001 93.35 78.2101 93.35H83.8401V88.22H86.7001V93.35H92.3501C93.2601 93.35 94.0001 92.61 94.0001 91.7V81.3H76.5701H76.5601Z" fill="#6100FF"/>
<path d="M84.01 236.93C95.111 236.93 104.11 227.931 104.11 216.83C104.11 205.729 95.111 196.73 84.01 196.73C72.9091 196.73 63.91 205.729 63.91 216.83C63.91 227.931 72.9091 236.93 84.01 236.93Z" fill="white" stroke="#6100FF" stroke-width="5" stroke-miterlimit="10"/>
<path d="M90.86 214.56H87.87L89.5 209.31C89.84 208.24 89.04 207.14 87.91 207.14H83.15C82.42 207.14 81.78 207.61 81.56 208.3L78.63 216.6C78.28 217.7 79.11 218.83 80.26 218.83H83.61L79.3 229.28L91.68 216.5C92.38 215.78 91.87 214.56 90.86 214.56Z" fill="#6100FF"/>
<path d="M84.01 170.7C95.111 170.7 104.11 161.701 104.11 150.6C104.11 139.499 95.111 130.5 84.01 130.5C72.9091 130.5 63.91 139.499 63.91 150.6C63.91 161.701 72.9091 170.7 84.01 170.7Z" fill="white" stroke="#6100FF" stroke-width="5" stroke-miterlimit="10"/>
<path d="M89.0801 155.76H78.3201C76.9801 155.76 75.8501 154.74 75.7101 153.4L74.9501 145.95H93.0701L89.0701 155.75L89.0801 155.76Z" fill="#6100FF"/>
<path d="M87.34 160.22C88.058 160.22 88.64 159.638 88.64 158.92C88.64 158.202 88.058 157.62 87.34 157.62C86.6221 157.62 86.04 158.202 86.04 158.92C86.04 159.638 86.6221 160.22 87.34 160.22Z" fill="#6100FF"/>
<path d="M79.1501 160.22C79.8681 160.22 80.4501 159.638 80.4501 158.92C80.4501 158.202 79.8681 157.62 79.1501 157.62C78.4321 157.62 77.8501 158.202 77.8501 158.92C77.8501 159.638 78.4321 160.22 79.1501 160.22Z" fill="#6100FF"/>
<path d="M90.3201 144.22H93.8101L93.9301 143.97C94.4901 142.81 93.0301 141.73 92.0801 142.6L90.3201 144.21V144.22Z" fill="#6100FF"/>
<path d="M129.02 91.8H120.44L124.73 84.37L129.02 76.95L133.3 84.37L137.59 91.8H129.02Z" fill="#99F6E4"/>
<path d="M129.02 158.29H120.44L124.73 150.86L129.02 143.43L133.3 150.86L137.59 158.29H129.02Z" fill="#99F6E4"/>
<path d="M129.02 209.41H137.59L133.3 216.83L129.02 224.26L124.73 216.83L120.44 209.41H129.02Z" fill="#FECACA"/>
<path d="M418.534 77.5483L410 92L401.452 77.5483L387 69L401.452 60.4663L410 46L418.534 60.4663L433 69L418.534 77.5483Z" fill="white"/>
<path d="M510.599 167.799L500.799 158L491 167.799L500.799 177.599L510.599 167.799Z" fill="white"/>
<path d="M366.599 120.799L356.799 111L347 120.799L356.799 130.599L366.599 120.799Z" fill="white"/>
</g>
<defs>
<radialGradient id="paint0_radial_59_743" cx="0" cy="0" r="1" gradientUnits="userSpaceOnUse" gradientTransform="translate(152 126) rotate(136.306) scale(248.259 883.01)">
<stop stop-color="#3D6C00"/>
<stop offset="0.871469" stop-color="#ADE862" stop-opacity="0"/>
</radialGradient>
<linearGradient id="paint1_linear_59_743" x1="433" y1="267" x2="433" y2="32" gradientUnits="userSpaceOnUse">
<stop stop-color="#ADE862"/>
<stop offset="0.875177" stop-color="#00FFF0"/>
</linearGradient>
<clipPath id="clip0_59_743">
<rect width="529" height="296" fill="white"/>
</clipPath>
</defs>
</svg>
