<svg width="529" height="296" viewBox="0 0 529 296" fill="none" xmlns="http://www.w3.org/2000/svg">
<g clip-path="url(#clip0_69_395)">
<rect width="529" height="296" fill="#9A76FF"/>
<path d="M442.516 -149.487L453.983 -158.472L575.22 157.968L563.753 166.953L407.6 127.012C374.174 118.462 355.557 82.7986 367.654 50.4864L442.516 -149.487Z" fill="url(#paint0_linear_69_395)"/>
<path d="M172 312L250 114.5L234 308L172 312Z" fill="url(#paint1_radial_69_395)"/>
<path d="M341.198 358.755C297.802 352.605 255.406 340.758 215.104 323.524L212.623 322.464C203.932 318.749 199.264 309.237 201.633 300.086L249.351 115.909C250.768 110.439 256.406 107.202 261.847 108.735L410.735 150.688C416.176 152.221 419.295 157.926 417.648 163.331L362.173 345.394C359.429 354.406 350.526 360.074 341.199 358.75L341.198 358.755Z" fill="url(#paint2_linear_69_395)"/>
<path d="M259.523 211.642C259.124 213.057 258.824 209.712 257.409 209.314L258.259 213.865C251.74 213.604 239.868 213.309 233.582 210.905C232.166 210.506 231.34 209.031 231.739 207.616C232.538 204.509 237.121 198.885 238.827 196.363L239.648 198.583C240.047 197.168 241.522 196.341 242.937 196.74L241.281 195.812C247.901 197.044 250.577 200.183 256.866 202.593C258.281 202.991 259.108 204.467 258.709 205.882C258.487 208.899 262.087 204.787 260.701 207.476L259.526 211.647L259.523 211.642Z" fill="url(#paint3_linear_69_395)"/>
<path d="M289.75 220.159C289.351 221.574 289.051 218.23 287.636 217.831L288.486 222.382C281.967 222.121 270.095 221.826 263.809 219.422C262.394 219.023 261.567 217.548 261.966 216.133C262.765 213.026 267.348 207.402 269.054 204.88L269.875 207.101C270.274 205.685 271.749 204.859 273.164 205.257L271.508 204.329C278.128 205.562 280.804 208.7 287.093 211.11C288.508 211.509 289.335 212.984 288.936 214.399C288.714 217.416 292.314 213.305 290.928 215.993L289.753 220.165L289.75 220.159Z" fill="url(#paint4_linear_69_395)"/>
<path d="M319.918 228.66C319.519 230.075 319.219 226.73 317.804 226.331L318.654 230.883C312.135 230.622 300.263 230.327 293.977 227.923C292.561 227.524 291.735 226.049 292.134 224.634C292.933 221.527 297.516 215.903 299.222 213.38L300.043 215.601C300.442 214.186 301.917 213.359 303.332 213.758L301.676 212.83C308.296 214.062 310.972 217.201 317.261 219.61C318.676 220.009 319.503 221.484 319.104 222.9C318.882 225.917 322.482 221.805 321.096 224.494L319.921 228.665L319.918 228.66Z" fill="url(#paint5_linear_69_395)"/>
<path d="M350.07 237.156C349.671 238.571 349.372 235.227 347.956 234.828L348.806 239.379C342.288 239.118 330.415 238.823 324.129 236.419C322.714 236.02 321.887 234.545 322.286 233.13C323.085 230.023 327.668 224.399 329.374 221.877L330.195 224.098C330.594 222.682 332.069 221.856 333.485 222.254L331.828 221.326C338.449 222.558 341.124 225.697 347.413 228.107C348.829 228.506 349.655 229.981 349.256 231.396C349.035 234.413 352.635 230.301 351.249 232.99L350.073 237.162L350.07 237.156Z" fill="url(#paint6_linear_69_395)"/>
<path d="M380.274 245.666C379.876 247.082 379.576 243.737 378.16 243.338L379.01 247.89C372.492 247.628 360.619 247.334 354.333 244.93C352.918 244.531 352.091 243.056 352.49 241.64C353.289 238.534 357.873 232.91 359.578 230.387L360.399 232.608C360.798 231.193 362.273 230.366 363.689 230.765L362.032 229.836C368.653 231.069 371.328 234.207 377.617 236.617C379.033 237.016 379.859 238.491 379.46 239.907C379.239 242.923 382.839 238.812 381.453 241.501L380.278 245.672L380.274 245.666Z" fill="url(#paint7_linear_69_395)"/>
<path d="M251.099 238.482L226.248 235.397C225.441 235.169 224.822 234.595 224.505 233.882C224.187 233.169 224.265 232.268 224.648 231.548L232.657 216.57C233.062 215.133 234.554 214.297 235.992 214.702L251.54 223C252.977 223.405 253.813 224.897 253.408 226.334L254.429 236.612C254.024 238.05 252.532 238.886 251.095 238.481L251.099 238.482Z" fill="url(#paint8_linear_69_395)"/>
<path d="M281.285 246.988L256.434 243.902C255.716 243.7 255.145 243.225 254.811 242.621C254.364 241.824 254.417 240.844 254.847 240.042L262.848 225.077C263.253 223.64 264.745 222.804 266.183 223.209L281.73 231.507C283.168 231.912 284.004 233.404 283.599 234.841L284.62 245.119C284.215 246.557 282.723 247.393 281.285 246.988Z" fill="url(#paint9_linear_69_395)"/>
<path d="M311.468 255.492L286.617 252.407C285.898 252.204 285.328 251.729 284.993 251.126C284.547 250.329 284.599 249.349 285.03 248.547L293.031 233.582C293.436 232.144 294.928 231.308 296.365 231.713L311.913 240.011C313.351 240.416 314.187 241.908 313.782 243.346L314.803 253.624C314.398 255.061 312.905 255.897 311.468 255.492Z" fill="url(#paint10_linear_69_395)"/>
<path d="M341.658 263.999L316.808 260.914C316.089 260.711 315.518 260.237 315.184 259.633C314.737 258.836 314.79 257.856 315.22 257.054L323.221 242.089C323.626 240.651 325.118 239.815 326.556 240.22L342.104 248.518C343.541 248.923 344.377 250.415 343.972 251.853L344.993 262.131C344.588 263.568 343.096 264.404 341.658 263.999Z" fill="url(#paint11_linear_69_395)"/>
<path d="M371.842 272.504L346.991 269.419C346.272 269.216 345.702 268.742 345.367 268.138C344.921 267.341 344.973 266.361 345.404 265.559L353.405 250.594C353.81 249.156 355.302 248.32 356.739 248.725L372.287 257.023C373.725 257.428 374.561 258.921 374.156 260.358L375.177 270.636C374.772 272.073 373.279 272.909 371.842 272.504Z" fill="url(#paint12_linear_69_395)"/>
<path d="M244.29 262.645L219.439 259.56C218.633 259.333 218.014 258.759 217.696 258.045C217.378 257.332 217.456 256.431 217.84 255.711L225.849 240.734C226.254 239.296 227.746 238.46 229.183 238.865L244.731 247.163C246.169 247.568 247.005 249.06 246.6 250.498L247.621 260.776C247.216 262.213 245.723 263.049 244.286 262.644L244.29 262.645Z" fill="url(#paint13_linear_69_395)"/>
<path d="M274.477 271.151L249.626 268.066C248.908 267.864 248.337 267.389 248.003 266.785C247.556 265.988 247.609 265.008 248.039 264.206L256.04 249.241C256.445 247.803 257.937 246.967 259.374 247.372L274.922 255.67C276.36 256.075 277.196 257.568 276.791 259.005L277.812 269.283C277.407 270.72 275.915 271.556 274.477 271.151Z" fill="url(#paint14_linear_69_395)"/>
<path d="M304.659 279.656L279.809 276.571C279.09 276.368 278.519 275.893 278.185 275.29C277.738 274.493 277.791 273.513 278.221 272.711L286.222 257.745C286.627 256.308 288.119 255.472 289.557 255.877L305.104 264.175C306.542 264.58 307.378 266.072 306.973 267.51L307.994 277.787C307.589 279.225 306.097 280.061 304.659 279.656Z" fill="url(#paint15_linear_69_395)"/>
<path d="M334.851 288.163L310 285.078C309.281 284.875 308.711 284.4 308.376 283.797C307.93 283 307.982 282.02 308.413 281.218L316.413 266.252C316.818 264.815 318.31 263.979 319.748 264.384L335.296 272.682C336.733 273.087 337.569 274.579 337.164 276.017L338.185 286.295C337.78 287.732 336.288 288.568 334.851 288.163Z" fill="url(#paint16_linear_69_395)"/>
<path d="M365.031 296.667L340.181 293.582C339.462 293.379 338.891 292.904 338.557 292.301C338.11 291.504 338.163 290.524 338.593 289.722L346.594 274.757C346.999 273.319 348.491 272.483 349.929 272.888L365.477 281.186C366.914 281.591 367.75 283.083 367.345 284.521L368.366 294.799C367.961 296.236 366.469 297.072 365.031 296.667Z" fill="url(#paint17_linear_69_395)"/>
<path d="M237.481 286.809L212.63 283.723C211.823 283.496 211.205 282.922 210.887 282.209C210.569 281.496 210.647 280.594 211.031 279.874L219.039 264.897C219.444 263.459 220.937 262.623 222.374 263.028L237.922 271.326C239.359 271.731 240.196 273.224 239.79 274.661L240.811 284.939C240.406 286.376 238.914 287.212 237.477 286.807L237.481 286.809Z" fill="url(#paint18_linear_69_395)"/>
<path d="M267.668 295.315L242.817 292.229C242.099 292.027 241.528 291.552 241.194 290.948C240.747 290.151 240.799 289.172 241.23 288.37L249.231 273.404C249.636 271.967 251.128 271.131 252.565 271.536L268.113 279.834C269.551 280.239 270.387 281.731 269.982 283.168L271.003 293.446C270.598 294.884 269.106 295.72 267.668 295.315Z" fill="url(#paint19_linear_69_395)"/>
<path d="M297.851 303.819L273 300.734C272.281 300.531 271.711 300.056 271.376 299.453C270.93 298.656 270.982 297.676 271.413 296.874L279.413 281.909C279.818 280.471 281.31 279.635 282.748 280.04L298.296 288.338C299.733 288.743 300.569 290.235 300.164 291.673L301.185 301.951C300.78 303.388 299.288 304.224 297.851 303.819Z" fill="url(#paint20_linear_69_395)"/>
<path d="M358.224 320.831L333.373 317.746C332.654 317.543 332.084 317.068 331.749 316.465C331.303 315.668 331.355 314.688 331.786 313.886L339.786 298.92C340.191 297.483 341.684 296.647 343.121 297.052L358.669 305.35C360.106 305.755 360.942 307.247 360.537 308.685L361.558 318.962C361.153 320.4 359.661 321.236 358.224 320.831Z" fill="black"/>
<path d="M230.673 310.972L205.822 307.887C205.015 307.659 204.396 307.085 204.078 306.372C203.76 305.659 203.838 304.758 204.222 304.038L212.231 289.06C212.636 287.623 214.128 286.787 215.565 287.192L231.113 295.49C232.551 295.895 233.387 297.387 232.982 298.825L234.003 309.102C233.598 310.54 232.106 311.376 230.668 310.971L230.673 310.972Z" fill="url(#paint21_linear_69_395)"/>
<path d="M260.859 319.478L236.008 316.393C235.289 316.19 234.719 315.715 234.384 315.112C233.938 314.315 233.99 313.335 234.421 312.533L242.422 297.567C242.827 296.13 244.319 295.294 245.756 295.699L261.304 303.997C262.742 304.402 263.578 305.894 263.173 307.331L264.194 317.609C263.789 319.047 262.297 319.883 260.859 319.478Z" fill="black"/>
<path d="M321.237 336.491L296.386 333.405C294.948 333 294.112 331.508 294.517 330.071L309.607 290.421C310.012 288.984 311.504 288.148 312.941 288.553L328.489 296.851C329.927 297.256 330.763 298.748 330.358 300.185L324.57 334.627C324.165 336.064 322.673 336.9 321.236 336.495L321.237 336.491Z" fill="url(#paint22_linear_69_395)"/>
<path d="M389.445 217.343C341.477 206.996 294.18 193.726 247.828 177.61L245.205 176.699C243.781 176.298 242.951 174.817 243.352 173.393L254.144 135.093C254.546 133.669 256.026 132.839 257.451 133.24L401.691 173.884C403.115 174.285 403.945 175.766 403.543 177.19L392.751 215.49C392.35 216.914 390.869 217.744 389.445 217.343Z" fill="black"/>
<path d="M353.865 141.798L359.721 143.448L356.366 155.353L350.511 153.703C349.695 153.473 349.217 152.62 349.447 151.804L351.966 142.862C352.196 142.046 353.05 141.568 353.865 141.798Z" fill="url(#paint23_linear_69_395)"/>
<path d="M367.578 145.662L360.241 143.595L356.887 155.5L364.224 157.567L367.578 145.662Z" fill="url(#paint24_linear_69_395)"/>
<path d="M375.433 147.875L368.096 145.808L364.741 157.713L372.078 159.781L375.433 147.875Z" fill="url(#paint25_linear_69_395)"/>
<path d="M383.284 150.088L375.947 148.02L372.593 159.925L379.93 161.993L383.284 150.088Z" fill="url(#paint26_linear_69_395)"/>
<path d="M383.801 150.233L389.656 151.883C390.472 152.113 390.95 152.966 390.721 153.782L388.201 162.724C387.971 163.54 387.118 164.018 386.302 163.788L380.446 162.138L383.801 150.233Z" fill="url(#paint27_linear_69_395)"/>
<path d="M388.115 173.79L269.079 140.248C268.107 139.974 267.097 140.54 266.824 141.512L259.118 168.859C258.844 169.831 259.41 170.84 260.381 171.114L379.417 204.655C380.389 204.929 381.399 204.363 381.672 203.392L389.378 176.045C389.652 175.073 389.086 174.063 388.115 173.79Z" fill="url(#paint28_linear_69_395)"/>
<path d="M282.619 159.575L281.451 160.426L280.895 159.089L283.314 150.504L284.486 149.654L285.038 150.99L282.619 159.575Z" fill="black"/>
<path d="M279.509 170.611L278.341 171.463L277.785 170.126L280.204 161.54L281.376 160.69L281.928 162.026L279.509 170.611Z" fill="black"/>
<path d="M292.434 162.34L291.262 163.19L290.71 161.855L293.129 153.269L294.297 152.418L294.853 153.755L292.434 162.34Z" fill="black"/>
<path d="M289.324 173.377L288.152 174.227L287.6 172.891L290.019 164.306L291.187 163.455L291.743 164.792L289.324 173.377Z" fill="black"/>
<path d="M279.282 172.699L278.881 171.658L279.768 170.975L287.026 173.02L287.532 174.095L286.54 174.744L279.282 172.699Z" fill="black"/>
<path d="M282.367 161.75L281.967 160.705L282.853 160.026L290.111 162.071L290.618 163.142L289.625 163.795L282.367 161.75Z" fill="black"/>
<path d="M285.541 150.489L285.141 149.443L286.027 148.765L293.284 150.81L293.792 151.881L292.799 152.534L285.541 150.489Z" fill="black"/>
<path d="M324.292 171.317L323.119 172.167L322.568 170.831L324.987 162.246L326.155 161.395L326.711 162.732L324.292 171.317Z" fill="black"/>
<path d="M321.182 182.354L320.01 183.204L319.458 181.868L321.877 173.283L323.045 172.432L323.601 173.769L321.182 182.354Z" fill="black"/>
<path d="M334.103 174.082L332.935 174.933L332.379 173.596L334.798 165.011L335.97 164.161L336.522 165.496L334.103 174.082Z" fill="black"/>
<path d="M330.993 185.118L329.825 185.97L329.269 184.633L331.688 176.047L332.86 175.197L333.412 176.533L330.993 185.118Z" fill="black"/>
<path d="M320.956 184.441L320.554 183.4L321.442 182.717L328.699 184.762L329.206 185.838L328.214 186.486L320.956 184.441Z" fill="black"/>
<path d="M324.041 173.493L323.641 172.447L324.527 171.769L331.784 173.814L332.292 174.885L331.299 175.538L324.041 173.493Z" fill="black"/>
<path d="M327.214 162.231L326.814 161.186L327.7 160.507L334.958 162.552L335.465 163.623L334.472 164.276L327.214 162.231Z" fill="black"/>
<path d="M269.245 155.806L268.077 156.658L267.521 155.321L269.94 146.735L271.113 145.885L271.664 147.221L269.245 155.806Z" fill="black"/>
<path d="M275.951 169.609L274.778 170.459L274.222 169.122L276.641 160.537L277.813 159.687L278.37 161.024L275.951 169.609Z" fill="black"/>
<path d="M265.909 168.93L265.507 167.889L266.395 167.206L273.653 169.251L274.159 170.327L273.167 170.976L265.909 168.93Z" fill="black"/>
<path d="M268.994 157.982L268.594 156.936L269.48 156.258L276.738 158.303L277.245 159.374L276.252 160.027L268.994 157.982Z" fill="black"/>
<path d="M272.167 146.72L271.767 145.675L272.653 144.996L279.911 147.041L280.418 148.112L279.425 148.765L272.167 146.72Z" fill="black"/>
<path d="M296.407 163.46L295.235 164.31L294.683 162.974L297.102 154.389L298.27 153.538L298.826 154.875L296.407 163.46Z" fill="black"/>
<path d="M293.297 174.497L292.125 175.347L291.573 174.011L293.992 165.426L295.16 164.574L295.716 165.911L293.297 174.497Z" fill="black"/>
<path d="M306.218 166.224L305.05 167.076L304.494 165.738L306.913 157.153L308.085 156.303L308.637 157.639L306.218 166.224Z" fill="black"/>
<path d="M303.108 177.261L301.94 178.112L301.384 176.775L303.803 168.19L304.975 167.34L305.527 168.676L303.108 177.261Z" fill="black"/>
<path d="M293.071 176.584L292.669 175.543L293.556 174.86L300.814 176.905L301.32 177.98L300.328 178.629L293.071 176.584Z" fill="black"/>
<path d="M299.329 154.374L298.929 153.328L299.815 152.65L307.073 154.695L307.58 155.766L306.587 156.419L299.329 154.374Z" fill="black"/>
<path d="M310.257 167.362L309.089 168.214L308.533 166.877L310.952 158.291L312.124 157.441L312.676 158.777L310.257 167.362Z" fill="black"/>
<path d="M307.147 178.399L305.979 179.25L305.423 177.913L307.842 169.328L309.015 168.478L309.566 169.814L307.147 178.399Z" fill="black"/>
<path d="M320.072 170.128L318.9 170.978L318.348 169.642L320.767 161.057L321.935 160.206L322.491 161.543L320.072 170.128Z" fill="black"/>
<path d="M316.962 181.165L315.79 182.015L315.238 180.679L317.657 172.094L318.825 171.243L319.381 172.58L316.962 181.165Z" fill="black"/>
<path d="M306.921 180.487L306.519 179.445L307.406 178.762L314.664 180.808L315.17 181.883L314.179 182.532L306.921 180.487Z" fill="black"/>
<path d="M313.179 158.276L312.779 157.231L313.665 156.552L320.923 158.597L321.43 159.669L320.437 160.322L313.179 158.276Z" fill="black"/>
<path d="M260.475 211.692L260.452 211.737L260.438 211.785C260.114 212.935 258.915 213.607 257.766 213.283L257.744 213.277L257.722 213.273C251.131 212.046 244.669 210.225 238.407 207.83L238.386 207.822L238.364 207.816C237.215 207.492 236.543 206.293 236.867 205.144L236.881 205.095L236.884 205.045C237.101 202.095 237.911 199.219 239.268 196.586L239.291 196.541L239.305 196.492C239.629 195.343 240.828 194.671 241.977 194.995L241.999 195.001L242.021 195.005C248.612 196.232 255.074 198.053 261.335 200.447L261.357 200.456L261.378 200.462C262.528 200.786 263.2 201.985 262.876 203.134L262.862 203.183L262.859 203.233C262.642 206.183 261.831 209.059 260.475 211.692Z" fill="url(#paint29_linear_69_395)" stroke="url(#paint30_linear_69_395)"/>
<path d="M290.662 220.198L290.639 220.243L290.625 220.291C290.301 221.441 289.102 222.113 287.953 221.789L287.931 221.783L287.909 221.778C281.318 220.551 274.856 218.731 268.594 216.336L268.573 216.328L268.551 216.322C267.402 215.998 266.73 214.799 267.054 213.649L267.068 213.601L267.071 213.55C267.288 210.601 268.098 207.725 269.455 205.091L269.478 205.047L269.492 204.998C269.816 203.848 271.015 203.177 272.164 203.501L272.186 203.507L272.208 203.511C278.799 204.738 285.261 206.559 291.522 208.953L291.544 208.961L291.565 208.967C292.715 209.291 293.387 210.49 293.063 211.64L293.049 211.689L293.046 211.739C292.829 214.689 292.018 217.564 290.662 220.198Z" fill="url(#paint31_linear_69_395)" stroke="url(#paint32_linear_69_395)"/>
<path d="M320.853 228.705L320.83 228.75L320.817 228.799C320.493 229.948 319.294 230.62 318.144 230.296L318.122 230.29L318.1 230.286C311.509 229.059 305.048 227.238 298.786 224.844L298.765 224.836L298.743 224.829C297.593 224.505 296.921 223.307 297.245 222.157L297.259 222.108L297.263 222.058C297.48 219.108 298.29 216.233 299.646 213.599L299.669 213.554L299.683 213.506C300.007 212.356 301.206 211.684 302.356 212.008L302.377 212.014L302.4 212.018C308.991 213.245 315.452 215.066 321.714 217.461L321.735 217.469L321.757 217.475C322.906 217.799 323.578 218.998 323.254 220.147L323.241 220.196L323.237 220.246C323.02 223.196 322.21 226.072 320.853 228.705Z" fill="url(#paint33_linear_69_395)" stroke="url(#paint34_linear_69_395)"/>
<path d="M351.04 237.211L351.017 237.256L351.003 237.304C350.679 238.454 349.48 239.126 348.331 238.802L348.309 238.796L348.287 238.791C341.696 237.565 335.234 235.744 328.972 233.349L328.951 233.341L328.929 233.335C327.78 233.011 327.108 231.812 327.432 230.662L327.446 230.614L327.449 230.564C327.666 227.614 328.476 224.738 329.833 222.105L329.856 222.06L329.87 222.011C330.194 220.862 331.392 220.19 332.542 220.514L332.564 220.52L332.586 220.524C339.177 221.751 345.639 223.572 351.9 225.966L351.922 225.974L351.943 225.981C353.093 226.304 353.765 227.503 353.441 228.653L353.427 228.702L353.424 228.752C353.207 231.702 352.396 234.577 351.04 237.211Z" fill="url(#paint35_linear_69_395)" stroke="url(#paint36_linear_69_395)"/>
<path d="M381.229 245.718L381.206 245.762L381.193 245.811C380.869 246.96 379.67 247.632 378.52 247.308L378.498 247.302L378.476 247.298C371.885 246.071 365.424 244.25 359.162 241.856L359.141 241.848L359.119 241.842C357.969 241.518 357.297 240.319 357.621 239.169L357.635 239.12L357.639 239.07C357.856 236.12 358.666 233.245 360.022 230.611L360.045 230.566L360.059 230.518C360.383 229.368 361.582 228.696 362.732 229.02L362.753 229.026L362.776 229.031C369.367 230.258 375.828 232.078 382.09 234.473L382.111 234.481L382.133 234.487C383.282 234.811 383.954 236.01 383.63 237.16L383.617 237.208L383.613 237.259C383.396 240.208 382.586 243.084 381.229 245.718Z" fill="url(#paint37_radial_69_395)" stroke="url(#paint38_linear_69_395)"/>
<path d="M235.856 215.183L256.059 220.876C257.23 221.206 257.912 222.422 257.582 223.593L253.952 236.478C253.622 237.649 252.405 238.33 251.234 238L231.03 232.307C229.859 231.978 229.177 230.761 229.507 229.59L233.138 216.706C233.468 215.535 234.685 214.853 235.856 215.183Z" fill="url(#paint39_linear_69_395)" stroke="url(#paint40_linear_69_395)"/>
<path d="M266.047 223.69L286.251 229.383C287.422 229.713 288.104 230.93 287.774 232.101L284.143 244.985C283.813 246.156 282.596 246.838 281.425 246.508L261.222 240.815C260.051 240.485 259.369 239.268 259.699 238.097L263.329 225.213C263.659 224.042 264.876 223.36 266.047 223.69Z" fill="url(#paint41_linear_69_395)" stroke="url(#paint42_linear_69_395)"/>
<path d="M296.234 232.196L316.437 237.888C317.608 238.218 318.29 239.435 317.96 240.606L314.33 253.49C314 254.661 312.783 255.343 311.612 255.013L291.408 249.32C290.237 248.99 289.555 247.774 289.885 246.603L293.516 233.718C293.846 232.547 295.063 231.866 296.234 232.196Z" fill="url(#paint43_linear_69_395)" stroke="url(#paint44_linear_69_395)"/>
<path d="M326.425 240.703L346.629 246.396C347.8 246.726 348.482 247.943 348.152 249.114L344.521 261.998C344.191 263.169 342.974 263.851 341.803 263.521L321.6 257.828C320.429 257.498 319.747 256.281 320.077 255.11L323.707 242.226C324.037 241.055 325.254 240.373 326.425 240.703Z" fill="url(#paint45_linear_69_395)" stroke="url(#paint46_linear_69_395)"/>
<path d="M356.611 249.209L376.815 254.902C377.986 255.232 378.668 256.448 378.338 257.619L374.708 270.504C374.378 271.675 373.161 272.356 371.99 272.026L351.786 266.333C350.615 266.003 349.933 264.787 350.263 263.616L353.894 250.731C354.224 249.56 355.44 248.879 356.611 249.209Z" fill="url(#paint47_linear_69_395)" stroke="url(#paint48_linear_69_395)"/>
<path d="M229.047 239.346L249.251 245.039C250.422 245.369 251.104 246.586 250.774 247.757L247.143 260.641C246.813 261.812 245.596 262.494 244.425 262.164L224.222 256.471C223.051 256.141 222.369 254.924 222.699 253.753L226.329 240.869C226.659 239.698 227.876 239.016 229.047 239.346Z" fill="url(#paint49_linear_69_395)" stroke="url(#paint50_linear_69_395)"/>
<path d="M259.239 247.854L279.443 253.547C280.614 253.877 281.296 255.093 280.966 256.264L277.336 269.149C277.006 270.32 275.789 271.001 274.618 270.671L254.414 264.978C253.243 264.648 252.561 263.432 252.891 262.261L256.522 249.376C256.852 248.205 258.068 247.524 259.239 247.854Z" fill="url(#paint51_linear_69_395)" stroke="url(#paint52_linear_69_395)"/>
<path d="M289.425 256.359L309.629 262.052C310.8 262.382 311.482 263.599 311.152 264.77L307.521 277.654C307.191 278.825 305.974 279.507 304.803 279.177L284.6 273.484C283.429 273.154 282.747 271.937 283.077 270.766L286.707 257.882C287.037 256.711 288.254 256.029 289.425 256.359Z" fill="url(#paint53_linear_69_395)" stroke="url(#paint54_linear_69_395)"/>
<path d="M319.616 264.866L339.82 270.559C340.991 270.889 341.673 272.106 341.343 273.277L337.713 286.161C337.383 287.332 336.166 288.014 334.995 287.684L314.791 281.991C313.62 281.661 312.938 280.444 313.268 279.273L316.899 266.389C317.229 265.218 318.445 264.536 319.616 264.866Z" fill="url(#paint55_linear_69_395)" stroke="url(#paint56_linear_69_395)"/>
<path d="M349.803 273.372L370.007 279.065C371.178 279.395 371.859 280.612 371.53 281.783L367.899 294.667C367.569 295.838 366.352 296.52 365.181 296.19L344.978 290.497C343.807 290.167 343.125 288.95 343.455 287.779L347.085 274.895C347.415 273.724 348.632 273.042 349.803 273.372Z" fill="url(#paint57_linear_69_395)" stroke="url(#paint58_linear_69_395)"/>
<path d="M222.238 263.51L242.442 269.203C243.613 269.533 244.295 270.749 243.965 271.92L240.335 284.805C240.005 285.976 238.788 286.657 237.617 286.327L217.413 280.634C216.242 280.305 215.56 279.088 215.89 277.917L219.521 265.033C219.851 263.862 221.067 263.18 222.238 263.51Z" fill="url(#paint59_linear_69_395)" stroke="url(#paint60_linear_69_395)"/>
<path d="M252.43 272.017L272.634 277.71C273.805 278.04 274.486 279.257 274.156 280.428L270.526 293.312C270.196 294.483 268.979 295.165 267.808 294.835L247.604 289.142C246.433 288.812 245.752 287.595 246.082 286.424L249.712 273.54C250.042 272.369 251.259 271.687 252.43 272.017Z" fill="url(#paint61_linear_69_395)" stroke="url(#paint62_linear_69_395)"/>
<path d="M282.617 280.523L302.821 286.216C303.992 286.546 304.674 287.763 304.344 288.934L300.714 301.818C300.384 302.989 299.167 303.671 297.996 303.341L277.792 297.648C276.621 297.318 275.939 296.101 276.269 294.93L279.9 282.046C280.23 280.875 281.446 280.193 282.617 280.523Z" fill="url(#paint63_linear_69_395)" stroke="url(#paint64_linear_69_395)"/>
<path d="M215.43 287.673L235.634 293.366C236.805 293.696 237.486 294.913 237.156 296.084L233.526 308.968C233.196 310.139 231.979 310.821 230.808 310.491L210.604 304.798C209.433 304.468 208.752 303.251 209.082 302.08L212.712 289.196C213.042 288.025 214.259 287.343 215.43 287.673Z" fill="url(#paint65_linear_69_395)" stroke="url(#paint66_linear_69_395)"/>
<path d="M245.621 296.18L265.825 301.873C266.996 302.203 267.677 303.42 267.347 304.591L263.717 317.475C263.387 318.646 262.17 319.328 260.999 318.998L240.795 313.305C239.624 312.975 238.943 311.758 239.273 310.587L242.903 297.703C243.233 296.532 244.45 295.85 245.621 296.18Z" fill="url(#paint67_linear_69_395)" stroke="url(#paint68_linear_69_395)"/>
<path d="M312.807 289.03L333.011 294.722C334.182 295.052 334.863 296.269 334.533 297.44L324.094 334.488C323.764 335.659 322.548 336.341 321.377 336.011L301.173 330.318C300.002 329.988 299.32 328.771 299.65 327.6L310.089 290.552C310.419 289.381 311.636 288.7 312.807 289.03Z" fill="url(#paint69_linear_69_395)" stroke="url(#paint70_linear_69_395)"/>
<path d="M390.745 219.284C339.376 208.203 294.777 195.698 245.143 178.443L243.216 177.714C241.69 177.284 240.803 175.702 241.233 174.176L252.501 134.187C253.09 132.097 255.262 130.877 257.356 131.467L402.623 172.4C404.828 173.021 406.114 175.316 405.493 177.52L394.334 217.121C393.905 218.642 392.289 219.615 390.746 219.28L390.745 219.284Z" stroke="black" stroke-width="2" stroke-miterlimit="10"/>
<path d="M300.173 130.567L261.891 119.78C260.888 119.497 259.845 120.081 259.562 121.085L258.844 123.633C258.561 124.636 259.146 125.679 260.149 125.962L298.431 136.749C299.435 137.031 300.477 136.447 300.76 135.444L301.478 132.895C301.761 131.892 301.177 130.849 300.173 130.567Z" fill="#9CA4BA"/>
<path d="M332.556 139.692L308.512 132.916C307.509 132.634 306.466 133.218 306.183 134.221L305.465 136.77C305.183 137.773 305.767 138.816 306.77 139.098L330.814 145.874C331.818 146.156 332.86 145.572 333.143 144.569L333.861 142.02C334.144 141.017 333.56 139.974 332.556 139.692Z" fill="#9CA4BA"/>
<path d="M442.517 -149.487L453.984 -158.472L575.221 157.968L563.754 166.953L360.357 99.9617L442.517 -149.487Z" fill="#80A1FF"/>
<rect x="453.984" y="-158.472" width="214.145" height="262.631" transform="rotate(18.2301 453.984 -158.472)" fill="#CBD8FF"/>
<path d="M370.513 82.037L386.945 32.1472L361.528 70.5696L370.513 82.037Z" fill="#CBD8FF"/>
<path d="M397.104 14.2235L600.5 81.2153L599.868 83.1341L396.472 16.1423L397.104 14.2235Z" fill="#A9BEFD"/>
<path d="M376.879 75.6257L580.276 142.617L579.644 144.536L376.247 77.5446L376.879 75.6257Z" fill="#A9BEFD"/>
<path d="M386.991 44.9246L590.388 111.916L589.756 113.835L386.359 46.8434L386.991 44.9246Z" fill="#A9BEFD"/>
<path d="M407.215 -16.4781L610.612 50.5137L609.98 52.4325L406.583 -14.5593L407.215 -16.4781Z" fill="#A9BEFD"/>
<path d="M392.048 29.5741L595.445 96.5658L594.813 98.4847L391.416 31.4929L392.048 29.5741Z" fill="#A9BEFD"/>
<path d="M412.271 -31.8287L615.668 35.163L615.036 37.0819L411.639 -29.9099L412.271 -31.8287Z" fill="#A9BEFD"/>
<path d="M381.935 60.2753L585.332 127.267L584.7 129.186L381.303 62.1941L381.935 60.2753Z" fill="#A9BEFD"/>
<path d="M402.16 -1.1272L605.557 65.8645L604.925 67.7834L401.528 0.791639L402.16 -1.1272Z" fill="#A9BEFD"/>
<path d="M480.365 0.47411L472.345 -2.2859L468.414 -1.82867L467.697 -5.22658L464.471 -4.08499L462.636 -5.62281L457.297 -6.55654L455.462 -8.09437L450.122 -9.02809L445.335 -11.5729L439 -13.7475" stroke="#1C398B" stroke-width="6" stroke-linecap="round" stroke-linejoin="round"/>
<path d="M523.839 49.2073L502.546 42.2179L493.047 40.8943L489.495 36.5854L482.101 36.4021L476.766 33.7533L463.05 30.1436L457.715 27.4948L443.998 23.885L430.816 18.6536L414 13.1343" stroke="#1C398B" stroke-width="6" stroke-linecap="round" stroke-linejoin="round"/>
<path d="M433 36.7689L454.263 43.8452L463.754 45.1996L467.288 49.5202L474.673 49.7343L479.998 52.4001L493.697 56.0576L499.021 58.7234L512.72 62.3809L525.884 67.6601L542.672 73.2441" stroke="#1C398B" stroke-width="6" stroke-linecap="round" stroke-linejoin="round"/>
<path d="M429 67.6438L442.675 72.1929L448.971 72.4956L450.905 76.2835L455.895 75.6942L459.227 77.7015L468.136 79.7661L471.469 81.7734L480.378 83.838L488.744 87.519L499.544 91.1085" stroke="#1C398B" stroke-width="6" stroke-linecap="round" stroke-linejoin="round"/>
<path d="M514.902 11.7274L511.433 10.5293L509.413 11.6422L509.65 8.56519L507.856 10.2062L507.222 9.0838L504.752 9.14039L504.118 8.018L501.647 8.07459L499.734 6.51163L497 5.56958" stroke="#1C398B" stroke-width="6" stroke-linecap="round" stroke-linejoin="round"/>
<path d="M499.598 246.799L489.799 237L480 246.799L489.799 256.599L499.598 246.799Z" fill="white"/>
<path d="M275.534 61.5483L267 76L258.452 61.5483L244 53L258.452 44.4663L267 30L275.534 44.4663L290 53L275.534 61.5483Z" fill="white"/>
<path d="M153.599 215.799L143.799 206L134 215.799L143.799 225.599L153.599 215.799Z" fill="white"/>
<path d="M119.1 102.264L41.5078 24.3267L-129.687 194.764L-52.0945 272.701L119.1 102.264Z" fill="#CCFBF1"/>
<path d="M40.2262 33.8311L-130.974 204.266L-117.069 218.235C-121.323 213.958 -121.309 207.034 -117.032 202.78L-61.4611 147.466C-63.9063 160.51 -59.3384 175.524 -48.1292 186.771C-35.282 199.675 -17.4427 203.904 -3.27192 198.764L-62.4194 257.643C-66.6964 261.897 -73.6203 261.882 -77.8748 257.605L-62.3846 273.163L108.816 102.729L40.2262 33.8311ZM16.2055 179.376C21.4006 165.218 17.2578 147.365 4.41053 134.461C-6.79095 123.203 -21.7859 118.555 -34.8373 120.96L37.6684 48.7606C41.9454 44.5061 48.8692 44.5209 53.1238 48.7979L92.3177 88.168C96.5723 92.445 96.5575 99.3689 92.2805 103.623L16.1941 179.368L16.2055 179.376Z" fill="#5EEAD4"/>
<path d="M126.932 119.283L58.541 33.1583L-130.638 183.384L-62.2465 269.509L126.932 119.283Z" fill="#CCFBF1"/>
<path d="M56.1979 42.4648L-132.976 192.683L-120.724 208.112C-124.479 203.391 -123.693 196.507 -118.961 192.76L-57.548 143.996C-61.4495 156.685 -58.5765 172.116 -48.6933 184.56C-37.3681 198.828 -20.1155 205.003 -5.45221 201.495L-70.802 253.397C-75.5222 257.152 -82.4062 256.366 -86.1535 251.635L-72.5003 268.826L116.651 118.592L56.1979 42.4648ZM16.0558 184.412C22.8082 170.926 20.6804 152.724 9.35522 138.456C-0.5165 126.02 -14.8963 119.727 -28.1358 120.641L51.9891 57.0084C56.7094 53.2534 63.5934 54.0394 67.3406 58.7711L101.888 102.279C105.643 106.999 104.857 113.883 100.125 117.63L16.0521 184.393L16.0558 184.412Z" fill="#5EEAD4"/>
<path d="M133.501 141.491L74.5522 48.6484L-129.383 178.134L-70.4342 270.977L133.501 141.491Z" fill="#CCFBF1"/>
<path d="M71.2389 57.6527L-132.709 187.128L-122.138 203.763C-125.371 198.664 -123.864 191.919 -118.777 188.679L-52.5766 146.647C-57.7809 158.854 -56.5515 174.501 -48.0387 187.913C-38.2757 203.285 -21.7691 211.251 -6.81511 209.302L-77.2735 254.038C-82.372 257.271 -89.1171 255.765 -92.3577 250.677L-80.5969 269.215L123.347 139.72L71.2389 57.6527ZM16.3756 194.573C24.5088 181.871 24.3105 163.546 14.5552 148.162C6.04238 134.751 -7.58991 126.985 -20.85 126.505L65.5214 71.6738C70.6199 68.4409 77.3651 69.9477 80.6057 75.0348L110.382 121.93C113.615 127.029 112.108 133.774 107.021 137.015L16.3834 194.561L16.3756 194.573Z" fill="#5EEAD4"/>
<path d="M75.1122 140.97L70.1417 147.698L72.8617 145.965L75.8611 151.138L73.1682 152.807L73.6675 153.494L82.2714 148.178L81.6856 147.299L79.5042 148.483L75.1122 140.97Z" fill="#9E9895"/>
<path d="M92.2697 136.772C90.6759 134.263 86.7218 133.914 83.4341 135.995C80.1464 138.076 78.7832 141.809 80.3771 144.318C81.9709 146.827 85.9249 147.176 89.2012 145.087C92.4889 143.006 93.8521 139.273 92.2583 136.764L92.2697 136.772ZM88.6688 144.228C88.0589 144.613 86.5217 143.273 85.2299 141.251C83.9459 139.218 83.3794 137.255 83.9893 136.87C84.5993 136.484 86.1365 137.824 87.4282 139.846C88.7123 141.879 89.2788 143.843 88.6688 144.228Z" fill="#9E9895"/>
<path d="M105.39 128.96C103.796 126.451 99.8424 126.102 96.5547 128.183C93.267 130.264 91.9039 133.997 93.4977 136.506C95.0915 139.015 99.0455 139.364 102.322 137.275C105.61 135.194 106.973 131.461 105.379 128.952L105.39 128.96ZM101.789 136.416C101.179 136.801 99.6423 135.461 98.3505 133.439C97.0665 131.406 96.5 129.443 97.1099 129.057C97.7199 128.672 99.2571 130.012 100.549 132.034C101.833 134.067 102.399 136.03 101.789 136.416Z" fill="#9E9895"/>
<path d="M137.494 193.518L102.556 89.2386L-126.5 165.982L-91.5626 270.261L137.494 193.518Z" fill="#CCFBF1"/>
<path d="M97.1762 97.1768L-131.87 173.928L-125.614 192.613C-127.528 186.894 -124.448 180.698 -118.721 178.772L-44.3746 153.862C-52.3668 164.464 -54.9171 179.947 -49.876 195C-44.0906 212.268 -29.9783 223.967 -14.9891 225.651L-94.121 252.177C-99.8403 254.092 -106.036 251.012 -107.962 245.285L-100.987 266.102L128.07 189.359L97.1762 97.1768ZM11.0652 216.934C22.0042 206.547 26.2249 188.719 20.4395 171.451C15.3983 156.398 4.02195 145.571 -8.73828 141.921L88.2787 109.411C93.998 107.496 100.193 110.576 102.12 116.303L119.771 168.975C121.686 174.694 118.606 180.89 112.879 182.816L11.0844 216.93L11.0652 216.934Z" fill="#5EEAD4"/>
<path d="M80.9482 178.991L74.5095 184.326L77.5721 183.29L79.2346 189.038L76.2183 190.006L76.5374 190.787L86.1757 187.701L85.8047 186.702L83.398 187.334L80.9482 178.991Z" fill="#5EEAD4"/>
<path d="M98.6151 179.029C97.6651 176.208 93.9086 174.928 90.2297 176.162C86.5509 177.397 84.3201 180.692 85.2587 183.505C86.2086 186.327 89.9651 187.606 93.644 186.372C97.3306 185.126 99.5537 181.843 98.6151 179.029ZM93.3186 185.404C92.6296 185.635 91.4651 183.966 90.6984 181.684C89.9318 179.403 89.8661 177.363 90.5551 177.131C91.2442 176.899 92.4086 178.569 93.1753 180.85C93.942 183.132 94.0077 185.172 93.3186 185.404Z" fill="#5EEAD4"/>
<path d="M113.22 174.6C112.27 171.778 108.514 170.499 104.835 171.733C101.156 172.967 98.925 176.263 99.8636 179.076C100.814 181.898 104.57 183.177 108.249 181.943C111.936 180.697 114.159 177.414 113.22 174.6ZM107.924 180.974C107.235 181.206 106.07 179.537 105.303 177.255C104.537 174.974 104.471 172.934 105.16 172.702C105.849 172.47 107.014 174.139 107.78 176.421C108.547 178.703 108.613 180.743 107.924 180.974Z" fill="#5EEAD4"/>
<path opacity="0.5" d="M71.8739 50.2739L70.4969 48.2085L-53.4278 113.613L-95.7425 155.685L82.2246 96.0507L-61.5875 135.076L71.8739 50.2739Z" fill="#0D9488"/>
<path opacity="0.5" d="M53.9497 36.8189L-69.7368 135.079L-14.8586 80.4439L51.2574 34.115L53.9497 36.8189Z" fill="#0D9488"/>
<path d="M13.4304 114.11L32.0055 119.176L32.5615 137.524L6.61362 142.628C3.24673 143.291 0.586981 139.797 2.12156 136.728L13.4304 114.11Z" fill="url(#paint71_linear_69_395)" stroke="url(#paint72_radial_69_395)" stroke-width="5.50776"/>
<path d="M123.586 24.609L142.161 29.6749L142.717 48.0226L116.769 53.1271C113.402 53.7895 110.742 50.2958 112.277 47.2266L123.586 24.609Z" fill="url(#paint73_linear_69_395)" stroke="url(#paint74_radial_69_395)" stroke-width="5.50776"/>
<path d="M184.171 79.6867L202.746 84.7526L203.302 103.1L177.354 108.205C173.987 108.867 171.328 105.373 172.862 102.304L184.171 79.6867Z" fill="url(#paint75_linear_69_395)" stroke="url(#paint76_radial_69_395)" stroke-width="5.50776"/>
<path d="M30.2651 58.3255L42.5261 61.5878L42.8862 73.1794L28.7626 75.89C25.3826 76.5387 22.7381 73.012 24.3078 69.9492L30.2651 58.3255Z" fill="url(#paint77_linear_69_395)" stroke="url(#paint78_radial_69_395)" stroke-width="5.50776"/>
<path d="M161.075 142.319L173.336 145.581L173.696 157.173L159.572 159.883C156.192 160.532 153.548 157.005 155.117 153.943L161.075 142.319Z" fill="url(#paint79_linear_69_395)" stroke="url(#paint80_radial_69_395)" stroke-width="5.50776"/>
<circle cx="30.5653" cy="119.809" r="17.9002" fill="#FCD34D" stroke="url(#paint81_radial_69_395)" stroke-width="5.50776"/>
<circle cx="140.721" cy="30.3082" r="17.9002" fill="#FCD34D" stroke="url(#paint82_radial_69_395)" stroke-width="5.50776"/>
<circle cx="201.306" cy="85.3859" r="17.9002" fill="#FCD34D" stroke="url(#paint83_radial_69_395)" stroke-width="5.50776"/>
<circle cx="42.2694" cy="61.2894" r="11.704" fill="#F59E0B" stroke="url(#paint84_radial_69_395)" stroke-width="5.50776"/>
<circle cx="173.079" cy="145.283" r="11.704" fill="#F59E0B" stroke="url(#paint85_radial_69_395)" stroke-width="5.50776"/>
</g>
<defs>
<linearGradient id="paint0_linear_69_395" x1="464" y1="35" x2="367.5" y2="124.5" gradientUnits="userSpaceOnUse">
<stop offset="0.221724" stop-color="#7442FF"/>
<stop offset="1" stop-color="#9A76FF" stop-opacity="0"/>
</linearGradient>
<radialGradient id="paint1_radial_69_395" cx="0" cy="0" r="1" gradientUnits="userSpaceOnUse" gradientTransform="translate(307.5 178) rotate(144.982) scale(179.494 210.386)">
<stop offset="0.291667" stop-color="#642DFF"/>
<stop offset="1" stop-color="#9A76FF" stop-opacity="0"/>
</radialGradient>
<linearGradient id="paint2_linear_69_395" x1="305.5" y1="156.5" x2="292.5" y2="325.5" gradientUnits="userSpaceOnUse">
<stop stop-color="#2B344E"/>
<stop offset="1" stop-color="#33467D"/>
</linearGradient>
<linearGradient id="paint3_linear_69_395" x1="248.994" y1="197.879" x2="244.438" y2="214.049" gradientUnits="userSpaceOnUse">
<stop offset="0.541667"/>
<stop offset="1" stop-opacity="0"/>
</linearGradient>
<linearGradient id="paint4_linear_69_395" x1="279.221" y1="206.397" x2="274.665" y2="222.567" gradientUnits="userSpaceOnUse">
<stop offset="0.541667"/>
<stop offset="1" stop-opacity="0"/>
</linearGradient>
<linearGradient id="paint5_linear_69_395" x1="309.389" y1="214.897" x2="304.833" y2="231.067" gradientUnits="userSpaceOnUse">
<stop offset="0.541667"/>
<stop offset="1" stop-opacity="0"/>
</linearGradient>
<linearGradient id="paint6_linear_69_395" x1="339.542" y1="223.394" x2="334.985" y2="239.563" gradientUnits="userSpaceOnUse">
<stop offset="0.541667"/>
<stop offset="1" stop-opacity="0"/>
</linearGradient>
<linearGradient id="paint7_linear_69_395" x1="369.746" y1="231.904" x2="365.19" y2="248.074" gradientUnits="userSpaceOnUse">
<stop offset="0.541667"/>
<stop offset="1" stop-opacity="0"/>
</linearGradient>
<linearGradient id="paint8_linear_69_395" x1="244.305" y1="217.044" x2="238.185" y2="238.76" gradientUnits="userSpaceOnUse">
<stop offset="0.708333"/>
<stop offset="1" stop-opacity="0"/>
</linearGradient>
<linearGradient id="paint9_linear_69_395" x1="274.496" y1="225.551" x2="268.377" y2="247.267" gradientUnits="userSpaceOnUse">
<stop offset="0.708333"/>
<stop offset="1" stop-opacity="0"/>
</linearGradient>
<linearGradient id="paint10_linear_69_395" x1="304.678" y1="234.056" x2="298.559" y2="255.772" gradientUnits="userSpaceOnUse">
<stop offset="0.708333"/>
<stop offset="1" stop-opacity="0"/>
</linearGradient>
<linearGradient id="paint11_linear_69_395" x1="334.869" y1="242.563" x2="328.75" y2="264.279" gradientUnits="userSpaceOnUse">
<stop offset="0.708333"/>
<stop offset="1" stop-opacity="0"/>
</linearGradient>
<linearGradient id="paint12_linear_69_395" x1="365.052" y1="251.068" x2="358.933" y2="272.784" gradientUnits="userSpaceOnUse">
<stop offset="0.708333"/>
<stop offset="1" stop-opacity="0"/>
</linearGradient>
<linearGradient id="paint13_linear_69_395" x1="237.496" y1="241.207" x2="231.377" y2="262.924" gradientUnits="userSpaceOnUse">
<stop offset="0.708333"/>
<stop offset="1" stop-opacity="0"/>
</linearGradient>
<linearGradient id="paint14_linear_69_395" x1="267.688" y1="249.715" x2="261.568" y2="271.431" gradientUnits="userSpaceOnUse">
<stop offset="0.708333"/>
<stop offset="1" stop-opacity="0"/>
</linearGradient>
<linearGradient id="paint15_linear_69_395" x1="297.87" y1="258.219" x2="291.751" y2="279.936" gradientUnits="userSpaceOnUse">
<stop offset="0.708333"/>
<stop offset="1" stop-opacity="0"/>
</linearGradient>
<linearGradient id="paint16_linear_69_395" x1="328.061" y1="266.726" x2="321.942" y2="288.443" gradientUnits="userSpaceOnUse">
<stop offset="0.708333"/>
<stop offset="1" stop-opacity="0"/>
</linearGradient>
<linearGradient id="paint17_linear_69_395" x1="358.242" y1="275.231" x2="352.123" y2="296.947" gradientUnits="userSpaceOnUse">
<stop offset="0.708333"/>
<stop offset="1" stop-opacity="0"/>
</linearGradient>
<linearGradient id="paint18_linear_69_395" x1="230.687" y1="265.371" x2="224.568" y2="287.087" gradientUnits="userSpaceOnUse">
<stop offset="0.708333"/>
<stop offset="1" stop-opacity="0"/>
</linearGradient>
<linearGradient id="paint19_linear_69_395" x1="260.878" y1="273.878" x2="254.759" y2="295.594" gradientUnits="userSpaceOnUse">
<stop offset="0.708333"/>
<stop offset="1" stop-opacity="0"/>
</linearGradient>
<linearGradient id="paint20_linear_69_395" x1="291.061" y1="282.383" x2="284.942" y2="304.099" gradientUnits="userSpaceOnUse">
<stop offset="0.708333"/>
<stop offset="1" stop-opacity="0"/>
</linearGradient>
<linearGradient id="paint21_linear_69_395" x1="223.878" y1="289.534" x2="217.759" y2="311.25" gradientUnits="userSpaceOnUse">
<stop offset="0.708333"/>
<stop offset="1" stop-opacity="0"/>
</linearGradient>
<linearGradient id="paint22_linear_69_395" x1="321.227" y1="290.887" x2="308.3" y2="336.763" gradientUnits="userSpaceOnUse">
<stop offset="0.708333"/>
<stop offset="1" stop-opacity="0"/>
</linearGradient>
<linearGradient id="paint23_linear_69_395" x1="356.052" y1="142.414" x2="352.698" y2="154.319" gradientUnits="userSpaceOnUse">
<stop stop-color="#360101"/>
<stop offset="0.510417" stop-color="#321A1A"/>
<stop offset="1" stop-color="#200000"/>
</linearGradient>
<linearGradient id="paint24_linear_69_395" x1="363.91" y1="144.628" x2="360.555" y2="156.534" gradientUnits="userSpaceOnUse">
<stop stop-color="#360101"/>
<stop offset="0.510417" stop-color="#321A1A"/>
<stop offset="1" stop-color="#200000"/>
</linearGradient>
<linearGradient id="paint25_linear_69_395" x1="371.764" y1="146.842" x2="368.41" y2="158.747" gradientUnits="userSpaceOnUse">
<stop stop-color="#360101"/>
<stop offset="0.510417" stop-color="#321A1A"/>
<stop offset="1" stop-color="#200000"/>
</linearGradient>
<linearGradient id="paint26_linear_69_395" x1="379.616" y1="149.054" x2="376.261" y2="160.959" gradientUnits="userSpaceOnUse">
<stop stop-color="#360101"/>
<stop offset="0.510417" stop-color="#321A1A"/>
<stop offset="1" stop-color="#200000"/>
</linearGradient>
<linearGradient id="paint27_linear_69_395" x1="387.469" y1="151.267" x2="384.115" y2="163.172" gradientUnits="userSpaceOnUse">
<stop stop-color="#360101"/>
<stop offset="0.510417" stop-color="#321A1A"/>
<stop offset="1" stop-color="#200000"/>
</linearGradient>
<linearGradient id="paint28_linear_69_395" x1="328.597" y1="157.019" x2="319.899" y2="187.885" gradientUnits="userSpaceOnUse">
<stop stop-color="#00938C"/>
<stop offset="1" stop-color="#00413E"/>
</linearGradient>
<linearGradient id="paint29_linear_69_395" x1="251.937" y1="196.807" x2="247.806" y2="211.471" gradientUnits="userSpaceOnUse">
<stop stop-color="#0D162F"/>
<stop offset="1" stop-color="#001656"/>
</linearGradient>
<linearGradient id="paint30_linear_69_395" x1="251.937" y1="196.807" x2="247.806" y2="211.471" gradientUnits="userSpaceOnUse">
<stop stop-color="white" stop-opacity="0.29"/>
<stop offset="1" stop-color="white" stop-opacity="0"/>
</linearGradient>
<linearGradient id="paint31_linear_69_395" x1="282.124" y1="205.313" x2="277.993" y2="219.976" gradientUnits="userSpaceOnUse">
<stop stop-color="#0D162F"/>
<stop offset="1" stop-color="#001656"/>
</linearGradient>
<linearGradient id="paint32_linear_69_395" x1="282.124" y1="205.313" x2="277.993" y2="219.976" gradientUnits="userSpaceOnUse">
<stop stop-color="white" stop-opacity="0.29"/>
<stop offset="1" stop-color="white" stop-opacity="0"/>
</linearGradient>
<linearGradient id="paint33_linear_69_395" x1="312.316" y1="213.82" x2="308.184" y2="228.484" gradientUnits="userSpaceOnUse">
<stop stop-color="#0D162F"/>
<stop offset="1" stop-color="#001656"/>
</linearGradient>
<linearGradient id="paint34_linear_69_395" x1="312.316" y1="213.82" x2="308.184" y2="228.484" gradientUnits="userSpaceOnUse">
<stop stop-color="white" stop-opacity="0.29"/>
<stop offset="1" stop-color="white" stop-opacity="0"/>
</linearGradient>
<linearGradient id="paint35_linear_69_395" x1="342.502" y1="222.326" x2="338.37" y2="236.989" gradientUnits="userSpaceOnUse">
<stop stop-color="#0D162F"/>
<stop offset="1" stop-color="#001656"/>
</linearGradient>
<linearGradient id="paint36_linear_69_395" x1="342.502" y1="222.326" x2="338.37" y2="236.989" gradientUnits="userSpaceOnUse">
<stop stop-color="white" stop-opacity="0.29"/>
<stop offset="1" stop-color="white" stop-opacity="0"/>
</linearGradient>
<radialGradient id="paint37_radial_69_395" cx="0" cy="0" r="1" gradientUnits="userSpaceOnUse" gradientTransform="translate(382.5 233) rotate(161.565) scale(28.4605 36.6225)">
<stop stop-color="#FF005C"/>
<stop offset="1" stop-color="#9C002A"/>
</radialGradient>
<linearGradient id="paint38_linear_69_395" x1="397" y1="218.5" x2="368.56" y2="245.496" gradientUnits="userSpaceOnUse">
<stop stop-color="white"/>
<stop offset="1" stop-color="white" stop-opacity="0"/>
</linearGradient>
<linearGradient id="paint39_linear_69_395" x1="246.093" y1="217.548" x2="240.997" y2="235.635" gradientUnits="userSpaceOnUse">
<stop stop-color="#9CA4BA"/>
<stop offset="1" stop-color="#384677"/>
</linearGradient>
<linearGradient id="paint40_linear_69_395" x1="246.093" y1="217.548" x2="240.997" y2="235.635" gradientUnits="userSpaceOnUse">
<stop stop-color="white" stop-opacity="0.34"/>
<stop offset="1" stop-color="white" stop-opacity="0"/>
</linearGradient>
<linearGradient id="paint41_linear_69_395" x1="276.285" y1="226.055" x2="271.188" y2="244.142" gradientUnits="userSpaceOnUse">
<stop stop-color="#9CA4BA"/>
<stop offset="1" stop-color="#384677"/>
</linearGradient>
<linearGradient id="paint42_linear_69_395" x1="276.285" y1="226.055" x2="271.188" y2="244.142" gradientUnits="userSpaceOnUse">
<stop stop-color="white" stop-opacity="0.34"/>
<stop offset="1" stop-color="white" stop-opacity="0"/>
</linearGradient>
<linearGradient id="paint43_linear_69_395" x1="306.471" y1="234.561" x2="301.374" y2="252.648" gradientUnits="userSpaceOnUse">
<stop stop-color="#9CA4BA"/>
<stop offset="1" stop-color="#384677"/>
</linearGradient>
<linearGradient id="paint44_linear_69_395" x1="306.471" y1="234.561" x2="301.374" y2="252.648" gradientUnits="userSpaceOnUse">
<stop stop-color="white" stop-opacity="0.34"/>
<stop offset="1" stop-color="white" stop-opacity="0"/>
</linearGradient>
<linearGradient id="paint45_linear_69_395" x1="336.662" y1="243.068" x2="331.566" y2="261.156" gradientUnits="userSpaceOnUse">
<stop stop-color="#0D1732"/>
<stop offset="1" stop-color="#021754"/>
</linearGradient>
<linearGradient id="paint46_linear_69_395" x1="336.662" y1="243.068" x2="331.566" y2="261.156" gradientUnits="userSpaceOnUse">
<stop stop-color="white" stop-opacity="0.19"/>
<stop offset="1" stop-color="white" stop-opacity="0"/>
</linearGradient>
<linearGradient id="paint47_linear_69_395" x1="366.849" y1="251.574" x2="361.752" y2="269.661" gradientUnits="userSpaceOnUse">
<stop stop-color="#0D1732"/>
<stop offset="1" stop-color="#021754"/>
</linearGradient>
<linearGradient id="paint48_linear_69_395" x1="366.849" y1="251.574" x2="361.752" y2="269.661" gradientUnits="userSpaceOnUse">
<stop stop-color="white" stop-opacity="0.19"/>
<stop offset="1" stop-color="white" stop-opacity="0"/>
</linearGradient>
<linearGradient id="paint49_linear_69_395" x1="239.285" y1="241.711" x2="234.188" y2="259.799" gradientUnits="userSpaceOnUse">
<stop stop-color="#9CA4BA"/>
<stop offset="1" stop-color="#384677"/>
</linearGradient>
<linearGradient id="paint50_linear_69_395" x1="239.285" y1="241.711" x2="234.188" y2="259.799" gradientUnits="userSpaceOnUse">
<stop stop-color="white" stop-opacity="0.34"/>
<stop offset="1" stop-color="white" stop-opacity="0"/>
</linearGradient>
<linearGradient id="paint51_linear_69_395" x1="269.477" y1="250.219" x2="264.38" y2="268.306" gradientUnits="userSpaceOnUse">
<stop stop-color="#9CA4BA"/>
<stop offset="1" stop-color="#384677"/>
</linearGradient>
<linearGradient id="paint52_linear_69_395" x1="269.477" y1="250.219" x2="264.38" y2="268.306" gradientUnits="userSpaceOnUse">
<stop stop-color="white" stop-opacity="0.34"/>
<stop offset="1" stop-color="white" stop-opacity="0"/>
</linearGradient>
<linearGradient id="paint53_linear_69_395" x1="299.662" y1="258.724" x2="294.566" y2="276.812" gradientUnits="userSpaceOnUse">
<stop stop-color="#9CA4BA"/>
<stop offset="1" stop-color="#384677"/>
</linearGradient>
<linearGradient id="paint54_linear_69_395" x1="299.662" y1="258.724" x2="294.566" y2="276.812" gradientUnits="userSpaceOnUse">
<stop stop-color="white" stop-opacity="0.34"/>
<stop offset="1" stop-color="white" stop-opacity="0"/>
</linearGradient>
<linearGradient id="paint55_linear_69_395" x1="329.854" y1="267.231" x2="324.757" y2="285.319" gradientUnits="userSpaceOnUse">
<stop stop-color="#0D1732"/>
<stop offset="1" stop-color="#021754"/>
</linearGradient>
<linearGradient id="paint56_linear_69_395" x1="329.854" y1="267.231" x2="324.757" y2="285.319" gradientUnits="userSpaceOnUse">
<stop stop-color="white" stop-opacity="0.19"/>
<stop offset="1" stop-color="white" stop-opacity="0"/>
</linearGradient>
<linearGradient id="paint57_linear_69_395" x1="360.04" y1="275.738" x2="354.944" y2="293.825" gradientUnits="userSpaceOnUse">
<stop stop-color="#0D1732"/>
<stop offset="1" stop-color="#021754"/>
</linearGradient>
<linearGradient id="paint58_linear_69_395" x1="360.04" y1="275.738" x2="354.944" y2="293.825" gradientUnits="userSpaceOnUse">
<stop stop-color="white" stop-opacity="0.19"/>
<stop offset="1" stop-color="white" stop-opacity="0"/>
</linearGradient>
<linearGradient id="paint59_linear_69_395" x1="232.476" y1="265.875" x2="227.379" y2="283.962" gradientUnits="userSpaceOnUse">
<stop stop-color="#9CA4BA"/>
<stop offset="1" stop-color="#384677"/>
</linearGradient>
<linearGradient id="paint60_linear_69_395" x1="232.476" y1="265.875" x2="227.379" y2="283.962" gradientUnits="userSpaceOnUse">
<stop stop-color="white" stop-opacity="0.34"/>
<stop offset="1" stop-color="white" stop-opacity="0"/>
</linearGradient>
<linearGradient id="paint61_linear_69_395" x1="262.667" y1="274.382" x2="257.571" y2="292.469" gradientUnits="userSpaceOnUse">
<stop stop-color="#9CA4BA"/>
<stop offset="1" stop-color="#384677"/>
</linearGradient>
<linearGradient id="paint62_linear_69_395" x1="262.667" y1="274.382" x2="257.571" y2="292.469" gradientUnits="userSpaceOnUse">
<stop stop-color="white" stop-opacity="0.34"/>
<stop offset="1" stop-color="white" stop-opacity="0"/>
</linearGradient>
<linearGradient id="paint63_linear_69_395" x1="292.855" y1="282.888" x2="287.758" y2="300.975" gradientUnits="userSpaceOnUse">
<stop stop-color="#9CA4BA"/>
<stop offset="1" stop-color="#384677"/>
</linearGradient>
<linearGradient id="paint64_linear_69_395" x1="292.855" y1="282.888" x2="287.758" y2="300.975" gradientUnits="userSpaceOnUse">
<stop stop-color="white" stop-opacity="0.34"/>
<stop offset="1" stop-color="white" stop-opacity="0"/>
</linearGradient>
<linearGradient id="paint65_linear_69_395" x1="225.667" y1="290.038" x2="220.571" y2="308.126" gradientUnits="userSpaceOnUse">
<stop stop-color="#9CA4BA"/>
<stop offset="1" stop-color="#384677"/>
</linearGradient>
<linearGradient id="paint66_linear_69_395" x1="225.667" y1="290.038" x2="220.571" y2="308.126" gradientUnits="userSpaceOnUse">
<stop stop-color="white" stop-opacity="0.34"/>
<stop offset="1" stop-color="white" stop-opacity="0"/>
</linearGradient>
<linearGradient id="paint67_linear_69_395" x1="255.858" y1="298.545" x2="250.762" y2="316.633" gradientUnits="userSpaceOnUse">
<stop stop-color="#9CA4BA"/>
<stop offset="1" stop-color="#384677"/>
</linearGradient>
<linearGradient id="paint68_linear_69_395" x1="255.858" y1="298.545" x2="250.762" y2="316.633" gradientUnits="userSpaceOnUse">
<stop stop-color="white" stop-opacity="0.34"/>
<stop offset="1" stop-color="white" stop-opacity="0"/>
</linearGradient>
<linearGradient id="paint69_linear_69_395" x1="323.044" y1="291.395" x2="311.139" y2="333.646" gradientUnits="userSpaceOnUse">
<stop stop-color="#0D1732"/>
<stop offset="1" stop-color="#021754"/>
</linearGradient>
<linearGradient id="paint70_linear_69_395" x1="323.044" y1="291.395" x2="311.139" y2="333.646" gradientUnits="userSpaceOnUse">
<stop stop-color="white" stop-opacity="0.19"/>
<stop offset="1" stop-color="white" stop-opacity="0"/>
</linearGradient>
<linearGradient id="paint71_linear_69_395" x1="18.1731" y1="121.875" x2="9.91148" y2="141.152" gradientUnits="userSpaceOnUse">
<stop stop-color="#0F766E"/>
<stop offset="1" stop-color="#0F766E" stop-opacity="0"/>
</linearGradient>
<radialGradient id="paint72_radial_69_395" cx="0" cy="0" r="1" gradientUnits="userSpaceOnUse" gradientTransform="translate(30.5656 119.809) rotate(90) scale(60.5854 60.5854)">
<stop offset="0.254722" stop-color="#FFC223"/>
<stop offset="0.306537" stop-color="#FFC223" stop-opacity="0"/>
</radialGradient>
<linearGradient id="paint73_linear_69_395" x1="128.328" y1="32.3736" x2="120.067" y2="51.6508" gradientUnits="userSpaceOnUse">
<stop offset="0.380208" stop-color="#7341FF"/>
<stop offset="1" stop-color="#7F52FF" stop-opacity="0"/>
</linearGradient>
<radialGradient id="paint74_radial_69_395" cx="0" cy="0" r="1" gradientUnits="userSpaceOnUse" gradientTransform="translate(140.721 30.3082) rotate(90) scale(60.5854 60.5854)">
<stop offset="0.254722" stop-color="#FFC223"/>
<stop offset="0.306537" stop-color="#FFC223" stop-opacity="0"/>
</radialGradient>
<linearGradient id="paint75_linear_69_395" x1="188.914" y1="87.4513" x2="180.652" y2="106.728" gradientUnits="userSpaceOnUse">
<stop offset="0.380208" stop-color="#7341FF"/>
<stop offset="1" stop-color="#7F52FF" stop-opacity="0"/>
</linearGradient>
<radialGradient id="paint76_radial_69_395" cx="0" cy="0" r="1" gradientUnits="userSpaceOnUse" gradientTransform="translate(201.306 85.3859) rotate(90) scale(60.5854 60.5854)">
<stop offset="0.254722" stop-color="#FFC223"/>
<stop offset="0.306537" stop-color="#FFC223" stop-opacity="0"/>
</radialGradient>
<linearGradient id="paint77_linear_69_395" x1="33.2966" y1="62.8449" x2="27.582" y2="76.5126" gradientUnits="userSpaceOnUse">
<stop stop-color="#0F766E"/>
<stop offset="1" stop-color="#0F766E" stop-opacity="0"/>
</linearGradient>
<radialGradient id="paint78_radial_69_395" cx="0" cy="0" r="1" gradientUnits="userSpaceOnUse" gradientTransform="translate(42.2354 61.3914) rotate(90) scale(42.6342 43.701)">
<stop offset="0.254722" stop-color="#FFC223"/>
<stop offset="0.306537" stop-color="#FFC223" stop-opacity="0"/>
</radialGradient>
<linearGradient id="paint79_linear_69_395" x1="164.106" y1="146.838" x2="158.392" y2="160.506" gradientUnits="userSpaceOnUse">
<stop offset="0.380208" stop-color="#7341FF"/>
<stop offset="1" stop-color="#7F52FF" stop-opacity="0"/>
</linearGradient>
<radialGradient id="paint80_radial_69_395" cx="0" cy="0" r="1" gradientUnits="userSpaceOnUse" gradientTransform="translate(173.045 145.385) rotate(90) scale(42.6342 43.701)">
<stop offset="0.254722" stop-color="#FFC223"/>
<stop offset="0.306537" stop-color="#FFC223" stop-opacity="0"/>
</radialGradient>
<radialGradient id="paint81_radial_69_395" cx="0" cy="0" r="1" gradientUnits="userSpaceOnUse" gradientTransform="translate(30.5653 119.809) rotate(90) scale(60.5854)">
<stop offset="0.254722" stop-color="#FFC223"/>
<stop offset="0.306537" stop-color="#FFC223" stop-opacity="0"/>
</radialGradient>
<radialGradient id="paint82_radial_69_395" cx="0" cy="0" r="1" gradientUnits="userSpaceOnUse" gradientTransform="translate(140.721 30.3082) rotate(90) scale(60.5854)">
<stop offset="0.254722" stop-color="#FFC223"/>
<stop offset="0.306537" stop-color="#FFC223" stop-opacity="0"/>
</radialGradient>
<radialGradient id="paint83_radial_69_395" cx="0" cy="0" r="1" gradientUnits="userSpaceOnUse" gradientTransform="translate(201.306 85.3859) rotate(90) scale(60.5854)">
<stop offset="0.254722" stop-color="#FFC223"/>
<stop offset="0.306537" stop-color="#FFC223" stop-opacity="0"/>
</radialGradient>
<radialGradient id="paint84_radial_69_395" cx="0" cy="0" r="1" gradientUnits="userSpaceOnUse" gradientTransform="translate(42.2694 61.2894) rotate(90) scale(42.4098)">
<stop offset="0.254722" stop-color="#92400E" stop-opacity="0.44"/>
<stop offset="0.306537" stop-color="#FFC223" stop-opacity="0"/>
</radialGradient>
<radialGradient id="paint85_radial_69_395" cx="0" cy="0" r="1" gradientUnits="userSpaceOnUse" gradientTransform="translate(173.079 145.283) rotate(90) scale(42.4098)">
<stop offset="0.254722" stop-color="#92400E" stop-opacity="0.44"/>
<stop offset="0.306537" stop-color="#FFC223" stop-opacity="0"/>
</radialGradient>
<clipPath id="clip0_69_395">
<rect width="529" height="296" fill="white"/>
</clipPath>
</defs>
</svg>
