<svg width="529" height="296" viewBox="0 0 529 296" fill="none" xmlns="http://www.w3.org/2000/svg">
<g clip-path="url(#clip0_59_99)">
<rect width="529" height="296" fill="white"/>
<path d="M529 0H0V296H529V0Z" fill="#FF6B00"/>
<path d="M395 305.5L361 186.5L416.5 301L395 305.5Z" fill="#BE5001"/>
<path d="M530.28 297.26L267 297.1L530.28 114V297.26Z" fill="url(#paint0_linear_59_99)"/>
<path fill-rule="evenodd" clip-rule="evenodd" d="M371.78 224.23L377.395 220.325L414.653 297.19L392.622 297.176L371.78 224.23Z" fill="url(#paint1_linear_59_99)"/>
<path d="M182.025 241.285L224 245L181 213L70.5 230L41.5 304.5L80 328.5L157.248 250.369C163.741 243.802 172.825 240.471 182.025 241.285Z" fill="url(#paint2_linear_59_99)"/>
<path d="M275.536 169H311.5L319 35L265.51 153.474C262.223 160.754 267.547 169 275.536 169Z" fill="url(#paint3_linear_59_99)"/>
<g clip-path="url(#clip1_59_99)">
<path d="M358.202 32.7191L332.451 23.5088C327.917 21.887 322.924 24.2442 321.301 28.7739L278.518 148.133C276.894 152.662 279.254 157.649 283.788 159.271L309.539 168.481C314.074 170.103 319.066 167.746 320.69 163.216L363.473 43.8574C365.097 39.3277 362.737 34.3409 358.202 32.7191Z" fill="#0D162F"/>
<path d="M315.717 82.0503L308.018 167.946L309.54 168.489C314.073 170.11 319.05 167.757 320.672 163.229L348.202 86.456L315.717 82.0503Z" fill="url(#paint4_linear_59_99)"/>
<path d="M320.312 126.609L320.323 126.613C324.413 128.076 328.915 125.95 330.38 121.864L336.461 104.897C337.926 100.811 335.797 96.3136 331.708 94.8508L331.697 94.8471C327.607 93.3843 323.105 95.5104 321.64 99.5957L315.558 116.563C314.094 120.649 316.222 125.146 320.312 126.609Z" fill="#0D162F"/>
<path d="M358.223 32.7326L332.449 23.5105C327.916 21.8902 322.939 24.2429 321.317 28.7707L303.286 79.0539L345.458 94.1356L363.478 43.8524C365.1 39.3245 362.745 34.3528 358.212 32.7326H358.223Z" fill="#313A53"/>
<path d="M345.434 31.645L343.007 30.7771C342.736 30.68 342.437 30.8211 342.339 31.0923L342.336 31.1028C342.239 31.374 342.38 31.6725 342.651 31.7696L345.078 32.6375C345.349 32.7347 345.648 32.5935 345.746 32.3223L345.749 32.3119C345.846 32.0407 345.705 31.7421 345.434 31.645Z" fill="black"/>
<path d="M344.275 79.3425C344.275 83.2116 341.135 86.3496 337.259 86.3496C333.384 86.3496 330.243 83.2116 330.243 79.3425C330.243 75.4735 333.384 72.3354 337.259 72.3354C341.135 72.3354 344.275 75.4735 344.275 79.3425Z" fill="#313A53" stroke="black" stroke-width="1.7"/>
<path d="M319.028 66.0698C319.806 66.0698 320.572 66.2029 321.306 66.4693C324.816 67.7233 326.649 71.5964 325.394 75.1032C324.438 77.7777 321.872 79.5867 319.028 79.5867C318.25 79.5867 317.484 79.4535 316.751 79.1871C315.051 78.5768 313.695 77.3449 312.918 75.7136C312.151 74.0822 312.051 72.2511 312.662 70.5532C313.618 67.8787 316.184 66.0698 319.028 66.0698ZM319.028 64.96C315.795 64.96 312.773 66.9576 311.618 70.1759C310.151 74.2598 312.284 78.7654 316.373 80.2303C317.251 80.541 318.15 80.6964 319.028 80.6964C322.261 80.6964 325.283 78.6988 326.438 75.4805C327.905 71.3966 325.772 66.891 321.683 65.4261C320.806 65.1154 319.906 64.96 319.028 64.96Z" fill="white"/>
<path d="M310.896 103.369C315.24 103.369 318.761 99.8511 318.761 95.5117C318.761 91.1723 315.24 87.6546 310.896 87.6546C306.552 87.6546 303.03 91.1723 303.03 95.5117C303.03 99.8511 306.552 103.369 310.896 103.369Z" fill="#0D162F"/>
<path d="M311.04 102.281C315.01 102.281 318.228 99.0666 318.228 95.1011C318.228 91.1356 315.01 87.921 311.04 87.921C307.07 87.921 303.852 91.1356 303.852 95.1011C303.852 99.0666 307.07 102.281 311.04 102.281Z" fill="#313A53"/>
<path d="M304.741 120.548C309.085 120.548 312.607 117.03 312.607 112.691C312.607 108.351 309.085 104.834 304.741 104.834C300.397 104.834 296.875 108.351 296.875 112.691C296.875 117.03 300.397 120.548 304.741 120.548Z" fill="#0D162F"/>
<path d="M304.885 119.46C308.855 119.46 312.073 116.246 312.073 112.28C312.073 108.315 308.855 105.1 304.885 105.1C300.916 105.1 297.697 108.315 297.697 112.28C297.697 116.246 300.916 119.46 304.885 119.46Z" fill="#313A53"/>
<path d="M320.669 125.556L320.679 125.56C324.416 126.897 328.531 124.954 329.869 121.22L336.03 104.033C337.368 100.3 335.423 96.1897 331.686 94.853L331.675 94.8492C327.938 93.5125 323.823 95.4554 322.485 99.1887L316.324 116.376C314.986 120.109 316.931 124.219 320.669 125.556Z" fill="#313A53"/>
<path d="M327.327 101.382L330.915 102.67" stroke="white" stroke-width="0.5" stroke-miterlimit="10" stroke-linecap="round"/>
<path d="M329.771 100.239L328.482 103.824" stroke="white" stroke-width="0.5" stroke-miterlimit="10" stroke-linecap="round"/>
<path d="M321.172 118.573L324.761 119.86" stroke="white" stroke-width="0.5" stroke-miterlimit="10" stroke-linecap="round"/>
<path d="M345.093 31.876L343.148 31.1802C343.003 31.1285 342.845 31.2013 342.794 31.3426C342.744 31.484 342.82 31.6405 342.964 31.6921L344.91 32.388C345.054 32.4396 345.212 32.3669 345.263 32.2255C345.314 32.0841 345.238 31.9277 345.093 31.876Z" fill="#313A53"/>
</g>
<path d="M-35.9469 208.337C-35.9469 208.337 -45.1169 185.907 -9.33694 161.347C-7.98694 160.417 -6.31694 160.047 -4.69694 160.297L10.1631 162.587L-35.9469 208.337Z" fill="#E8EEFF"/>
<path d="M139.483 96.8268C139.483 96.8268 123.063 78.9968 85.643 100.967C84.223 101.797 83.183 103.147 82.723 104.717L78.483 119.147L139.483 96.8268Z" fill="#E8EEFF"/>
<path d="M100.853 243.147L42.1631 298.277C36.6731 299.207 31.7631 304.057 28.3431 311.257L16.4331 322.447L23.8131 327.937C23.5931 329.877 23.4631 331.867 23.4231 333.897C23.0431 353.867 31.7631 370.237 42.9131 370.447C54.0631 370.657 63.4131 354.647 63.7931 334.667C63.8231 332.897 63.7931 331.167 63.6831 329.467L63.4231 304.857C63.3231 295.667 67.9431 287.077 75.6631 282.087L117.063 255.317L100.853 243.157V243.147Z" fill="#E8EEFF"/>
<path d="M112.933 235.467L187.763 205.727C190.933 201.147 197.403 198.767 205.383 198.727L220.573 192.697L222.413 201.707C224.263 202.337 226.113 203.057 227.973 203.877C246.223 212.007 257.333 226.857 252.793 237.037C248.253 247.217 229.783 248.887 211.533 240.757C209.923 240.037 208.363 239.267 206.863 238.447L184.693 227.767C176.413 223.777 166.673 224.317 158.873 229.177L117.053 255.297L112.923 235.457L112.933 235.467Z" fill="#E8EEFF"/>
<path d="M243.493 180.997L223.543 159.847C211.793 148.337 199.263 137.647 186.053 127.857L150.743 101.677C144.583 97.1068 136.983 94.9168 129.333 95.5068L125.163 95.8268C110.233 96.9768 95.813 101.777 83.173 109.807L41.443 136.327L-0.286987 162.847C-12.927 170.877 -23.397 181.897 -30.777 194.927L-32.837 198.567C-36.617 205.237 -37.857 213.057 -36.337 220.567L-27.627 263.657C-24.367 279.777 -20.007 295.657 -14.577 311.177L-3.89699 338.217C6.14301 361.647 23.113 375.487 46.243 369.987C46.583 369.907 46.903 369.777 47.203 369.597C48.073 369.087 48.673 368.227 48.853 367.237L61.533 298.057C62.433 292.727 65.563 288.017 70.123 285.117L117.053 255.287L163.983 225.457C168.553 222.557 174.133 221.727 179.343 223.167L247.363 241.057C248.333 241.317 249.373 241.137 250.203 240.557C250.483 240.357 250.743 240.127 250.963 239.857C265.763 221.247 260.443 200.007 243.483 180.977L243.493 180.997Z" fill="url(#paint5_linear_59_99)"/>
<path d="M63.9331 155.037C64.2831 152.407 63.7431 149.657 62.2131 147.247C60.3931 144.387 57.5331 142.597 54.4331 142.037C53.7331 143.167 52.8031 144.877 51.9231 147.097C57.8131 147.957 61.9531 152.417 63.9331 155.047V155.037Z" fill="black"/>
<path d="M50.6831 150.867C49.6531 154.687 49.0731 159.437 49.7731 164.897C52.7031 165.567 55.8931 165.107 58.6231 163.367C61.3531 161.627 63.1231 158.937 63.7631 155.997C59.1231 153.047 54.5731 151.557 50.6731 150.867H50.6831Z" fill="black"/>
<path d="M48.2531 147.047C49.3731 145.247 50.9931 143.497 53.2731 141.877C50.8331 141.687 48.3231 142.237 46.1031 143.647C43.8831 145.057 42.3131 147.097 41.4531 149.387C43.8831 148.007 46.1531 147.287 48.2631 147.037L48.2531 147.047Z" fill="black"/>
<path d="M46.7331 150.397C44.3431 150.247 42.4031 150.367 41.0831 150.517C40.2731 153.557 40.6831 156.907 42.5031 159.777C44.0331 162.187 46.3031 163.837 48.8331 164.637C47.2931 161.737 45.0131 156.097 46.7331 150.387V150.397Z" fill="black"/>
<path d="M52.3631 165.187C58.8138 165.187 64.0431 159.957 64.0431 153.507C64.0431 147.056 58.8138 141.827 52.3631 141.827C45.9124 141.827 40.6831 147.056 40.6831 153.507C40.6831 159.957 45.9124 165.187 52.3631 165.187Z" stroke="black" stroke-miterlimit="10"/>
<path d="M50.353 196.987C53.9539 196.987 56.873 194.068 56.873 190.467C56.873 186.866 53.9539 183.947 50.353 183.947C46.7521 183.947 43.833 186.866 43.833 190.467C43.833 194.068 46.7521 196.987 50.353 196.987Z" fill="#9CA4BA"/>
<path d="M86.6731 173.897C90.274 173.897 93.1931 170.978 93.1931 167.377C93.1931 163.776 90.274 160.857 86.6731 160.857C83.0722 160.857 80.1531 163.776 80.1531 167.377C80.1531 170.978 83.0722 173.897 86.6731 173.897Z" fill="#9CA4BA"/>
<path d="M49.753 196.047C53.3539 196.047 56.273 193.128 56.273 189.527C56.273 185.926 53.3539 183.007 49.753 183.007C46.1521 183.007 43.233 185.926 43.233 189.527C43.233 193.128 46.1521 196.047 49.753 196.047Z" fill="#E8EEFF"/>
<path d="M86.0831 172.967C89.684 172.967 92.6031 170.048 92.6031 166.447C92.6031 162.846 89.684 159.927 86.0831 159.927C82.4822 159.927 79.5631 162.846 79.5631 166.447C79.5631 170.048 82.4822 172.967 86.0831 172.967Z" fill="#E8EEFF"/>
<path d="M77.886 186.822L71.742 190.727C69.5653 192.111 68.9223 194.997 70.3058 197.174C71.6894 199.351 74.5755 199.994 76.7522 198.61L82.8961 194.705C85.0728 193.321 85.7159 190.435 84.3323 188.259C82.9488 186.082 80.0627 185.439 77.886 186.822Z" fill="#9CA4BA"/>
<path d="M77.2939 185.886L71.1499 189.791C68.9732 191.174 68.3302 194.06 69.7137 196.237C71.0972 198.414 73.9833 199.057 76.16 197.673L82.304 193.768C84.4807 192.385 85.1237 189.499 83.7402 187.322C82.3567 185.145 79.4706 184.502 77.2939 185.886Z" fill="#E8EEFF"/>
<path d="M120.403 133.207C126.07 133.207 130.663 128.613 130.663 122.947C130.663 117.28 126.07 112.687 120.403 112.687C114.737 112.687 110.143 117.28 110.143 122.947C110.143 128.613 114.737 133.207 120.403 133.207Z" fill="black"/>
<path d="M114.283 159.957C119.95 159.957 124.543 155.363 124.543 149.697C124.543 144.03 119.95 139.437 114.283 139.437C108.617 139.437 104.023 144.03 104.023 149.697C104.023 155.363 108.617 159.957 114.283 159.957Z" fill="black"/>
<path d="M148.163 139.867C153.83 139.867 158.423 135.273 158.423 129.607C158.423 123.94 153.83 119.347 148.163 119.347C142.497 119.347 137.903 123.94 137.903 129.607C137.903 135.273 142.497 139.867 148.163 139.867Z" fill="black"/>
<path d="M141.463 166.337C147.129 166.337 151.723 161.743 151.723 156.077C151.723 150.41 147.129 145.817 141.463 145.817C135.797 145.817 131.203 150.41 131.203 156.077C131.203 161.743 135.797 166.337 141.463 166.337Z" fill="black"/>
<path d="M120.163 124.607L113.833 121.647L115.863 120.357L119.933 122.337L119.883 117.797L121.923 116.497V123.497L124.203 127.097L122.453 128.207L120.153 124.587L120.163 124.607Z" fill="#EBE000"/>
<path d="M142.793 126.707L145.933 124.707C147.373 123.797 149.203 124.207 150.063 125.577C150.483 126.227 150.543 126.917 150.363 127.547C151.343 127.437 152.313 127.807 152.923 128.767C153.833 130.197 153.393 132.017 151.873 132.987L148.243 135.297L142.783 126.707H142.793ZM148.003 128.337C148.603 127.957 148.753 127.267 148.413 126.737C148.083 126.217 147.383 126.027 146.783 126.417L145.563 127.197L146.783 129.117L148.003 128.337ZM150.733 131.457C151.383 131.037 151.543 130.347 151.183 129.797C150.833 129.237 150.133 129.077 149.473 129.487L147.723 130.597L148.973 132.567L150.723 131.457H150.733Z" fill="#C50025"/>
<path d="M137.803 151.947L139.363 150.957L148.533 157.187L146.693 158.357L144.613 156.927L140.963 159.247L141.373 161.737L139.563 162.887L137.803 151.947ZM142.993 155.797L140.033 153.757L140.623 157.307L142.993 155.797Z" fill="#29B531"/>
<path d="M115.203 151.147L114.853 155.547L112.793 156.857L113.263 150.467L107.513 148.157L109.543 146.867L113.453 148.427L113.693 144.237L115.723 142.947L115.373 149.127L121.363 151.417L119.303 152.727L115.183 151.167L115.203 151.147Z" fill="#00AEFF"/>
<g filter="url(#filter0_d_59_99)">
<path d="M8.17307 240.377C20.2018 240.377 29.9531 230.626 29.9531 218.597C29.9531 206.568 20.2018 196.817 8.17307 196.817C-3.8557 196.817 -13.6069 206.568 -13.6069 218.597C-13.6069 230.626 -3.8557 240.377 8.17307 240.377Z" fill="white"/>
</g>
<path d="M8.17302 236.047C17.8104 236.047 25.623 228.234 25.623 218.597C25.623 208.959 17.8104 201.147 8.17302 201.147C-1.46435 201.147 -9.27698 208.959 -9.27698 218.597C-9.27698 228.234 -1.46435 236.047 8.17302 236.047Z" fill="black"/>
<g filter="url(#filter1_d_59_99)">
<path d="M126.113 222.767C138.142 222.767 147.893 213.016 147.893 200.987C147.893 188.958 138.142 179.207 126.113 179.207C114.084 179.207 104.333 188.958 104.333 200.987C104.333 213.016 114.084 222.767 126.113 222.767Z" fill="white"/>
</g>
<path d="M126.113 218.437C135.75 218.437 143.563 210.624 143.563 200.987C143.563 191.35 135.75 183.537 126.113 183.537C116.476 183.537 108.663 191.35 108.663 200.987C108.663 210.624 116.476 218.437 126.113 218.437Z" fill="black"/>
<path d="M126.113 217.117C135.021 217.117 142.243 209.895 142.243 200.987C142.243 192.078 135.021 184.857 126.113 184.857C117.205 184.857 109.983 192.078 109.983 200.987C109.983 209.895 117.205 217.117 126.113 217.117Z" fill="url(#paint6_radial_59_99)"/>
<path d="M126.113 211.807C132.089 211.807 136.933 206.963 136.933 200.987C136.933 195.011 132.089 190.167 126.113 190.167C120.137 190.167 115.293 195.011 115.293 200.987C115.293 206.963 120.137 211.807 126.113 211.807Z" fill="url(#paint7_linear_59_99)" stroke="black" stroke-miterlimit="10"/>
<path d="M67.182 227.351L54.1091 235.66L62.4182 248.733L75.4911 240.424L67.182 227.351Z" fill="#3F4861"/>
<path d="M79.143 219.757C78.673 219.387 78.193 219.037 77.703 218.717C77.463 218.557 77.223 218.407 76.973 218.247C76.963 218.247 76.953 218.237 76.943 218.227C76.703 218.087 76.463 217.947 76.223 217.807C76.203 217.797 76.183 217.787 76.163 217.777C75.933 217.647 75.693 217.527 75.463 217.397C75.433 217.377 75.403 217.367 75.373 217.347C75.143 217.237 74.923 217.117 74.693 217.017C74.653 216.997 74.603 216.977 74.563 216.957C74.343 216.857 74.133 216.757 73.913 216.667C73.853 216.647 73.803 216.617 73.743 216.597C73.533 216.507 73.333 216.427 73.123 216.347C73.053 216.317 72.973 216.287 72.903 216.267C72.713 216.197 72.513 216.127 72.323 216.057C72.233 216.027 72.143 215.997 72.053 215.967C71.873 215.907 71.693 215.857 71.513 215.797C71.403 215.767 71.293 215.737 71.193 215.697C71.033 215.647 70.863 215.607 70.703 215.567C70.573 215.537 70.453 215.497 70.323 215.467C70.173 215.427 70.023 215.397 69.883 215.367C69.733 215.337 69.593 215.307 69.443 215.277C69.313 215.247 69.183 215.227 69.043 215.197C68.883 215.167 68.713 215.137 68.553 215.107C68.443 215.087 68.323 215.067 68.213 215.057C68.033 215.027 67.843 215.007 67.663 214.977C67.563 214.967 67.463 214.957 67.373 214.947C67.173 214.927 66.973 214.907 66.773 214.887C66.693 214.887 66.613 214.877 66.533 214.867C66.313 214.847 66.093 214.837 65.873 214.827C65.803 214.827 65.743 214.827 65.673 214.827C65.443 214.827 65.203 214.817 64.973 214.807C64.923 214.807 64.873 214.807 64.823 214.807C64.573 214.807 64.323 214.807 64.073 214.817C64.033 214.817 63.993 214.817 63.963 214.817C63.703 214.817 63.443 214.837 63.173 214.857C63.143 214.857 63.123 214.857 63.093 214.857C62.823 214.877 62.543 214.897 62.273 214.927C62.263 214.927 62.243 214.927 62.233 214.927C61.953 214.957 61.663 214.997 61.383 215.037C61.383 215.037 61.373 215.037 61.363 215.037C61.073 215.077 60.783 215.127 60.493 215.187C60.203 215.247 59.913 215.307 59.613 215.367L67.213 227.317L79.163 219.717L79.143 219.757Z" fill="#3F4861"/>
<path d="M51.3231 219.127C51.1231 219.267 50.9231 219.417 50.7231 219.567C50.6531 219.617 50.5931 219.667 50.5331 219.717C50.3331 219.867 50.1431 220.027 49.9531 220.177C49.9031 220.217 49.8531 220.267 49.7931 220.307C49.5931 220.477 49.3931 220.647 49.2031 220.817C49.1631 220.847 49.1231 220.887 49.0831 220.927C48.8731 221.117 48.6731 221.307 48.4731 221.507C48.4531 221.527 48.4231 221.557 48.4031 221.577C48.1931 221.787 47.9831 221.997 47.7831 222.217C47.7731 222.227 47.7631 222.247 47.7431 222.257C47.5331 222.487 47.3231 222.717 47.1231 222.957C46.9131 223.197 46.7131 223.447 46.5131 223.707L54.1131 235.657L67.1931 227.347L59.5931 215.397C59.2831 215.467 58.9731 215.547 58.6631 215.627C58.3631 215.707 58.0631 215.797 57.7631 215.897C57.7431 215.897 57.7331 215.907 57.7131 215.917C57.4331 216.007 57.1531 216.107 56.8731 216.207C56.8431 216.217 56.8131 216.227 56.7731 216.237C56.5131 216.337 56.2531 216.437 55.9931 216.547C55.9431 216.567 55.8931 216.587 55.8531 216.607C55.6131 216.707 55.3731 216.817 55.1331 216.927C55.0731 216.957 55.0031 216.987 54.9431 217.017C54.7231 217.127 54.4931 217.237 54.2731 217.347C54.2031 217.387 54.1231 217.417 54.0531 217.457C53.8331 217.567 53.6231 217.687 53.4031 217.817C53.3331 217.857 53.2631 217.897 53.1831 217.937C52.9031 218.097 52.6231 218.267 52.3431 218.447C52.0631 218.627 51.7931 218.807 51.5231 218.997C51.4531 219.047 51.3931 219.097 51.3231 219.137V219.127Z" fill="#313A53"/>
<path d="M83.723 224.557C83.583 224.357 83.443 224.157 83.293 223.967C83.243 223.897 83.193 223.837 83.143 223.767C82.993 223.577 82.843 223.377 82.683 223.187C82.633 223.127 82.593 223.077 82.543 223.027C82.373 222.827 82.203 222.637 82.033 222.447C81.993 222.407 81.963 222.367 81.923 222.327C81.733 222.127 81.543 221.927 81.353 221.727C81.323 221.697 81.303 221.677 81.273 221.647C81.063 221.437 80.853 221.237 80.643 221.037C80.633 221.027 80.613 221.007 80.603 220.997C80.373 220.787 80.143 220.577 79.903 220.377C79.903 220.377 79.903 220.377 79.893 220.377C79.653 220.167 79.403 219.967 79.153 219.767L67.203 227.367L75.513 240.447L87.463 232.847C87.393 232.537 87.313 232.227 87.233 231.917C87.233 231.917 87.233 231.907 87.233 231.897C87.153 231.597 87.063 231.307 86.973 231.007C86.973 230.987 86.963 230.967 86.953 230.947C86.863 230.667 86.773 230.387 86.663 230.117C86.653 230.077 86.633 230.047 86.623 230.007C86.523 229.747 86.423 229.497 86.323 229.237C86.303 229.187 86.283 229.137 86.263 229.087C86.163 228.847 86.063 228.617 85.953 228.377C85.923 228.307 85.893 228.247 85.863 228.177C85.763 227.957 85.653 227.737 85.533 227.517C85.493 227.447 85.463 227.367 85.423 227.297C85.313 227.077 85.193 226.867 85.073 226.657C85.033 226.587 84.993 226.507 84.953 226.437C84.793 226.157 84.623 225.877 84.443 225.597C84.263 225.317 84.083 225.047 83.893 224.777C83.843 224.707 83.793 224.637 83.743 224.567L83.723 224.557Z" fill="#313A53"/>
<path d="M75.5031 240.427L83.1031 252.377C83.4731 251.907 83.8131 251.427 84.1431 250.937C84.1431 250.937 84.1431 250.937 84.1431 250.927C84.3031 250.687 84.4531 250.447 84.6031 250.197C84.6031 250.187 84.6131 250.177 84.6231 250.167C84.7631 249.927 84.9031 249.687 85.0431 249.447C85.0531 249.427 85.0631 249.407 85.0731 249.387C85.2031 249.157 85.323 248.917 85.453 248.687C85.473 248.657 85.4831 248.627 85.5031 248.597C85.6131 248.367 85.7231 248.147 85.8331 247.917C85.8531 247.877 85.8731 247.827 85.8931 247.787C85.9931 247.567 86.0931 247.357 86.1831 247.137C86.2031 247.077 86.2331 247.027 86.2531 246.967C86.3431 246.757 86.4231 246.557 86.5031 246.347C86.5331 246.277 86.5631 246.197 86.5831 246.127C86.6531 245.937 86.7231 245.737 86.7931 245.547C86.8231 245.457 86.853 245.367 86.883 245.277C86.943 245.097 86.9931 244.917 87.0531 244.737C87.0831 244.627 87.1131 244.527 87.1531 244.417C87.2031 244.257 87.2431 244.087 87.2831 243.927C87.3131 243.797 87.353 243.677 87.383 243.547C87.423 243.397 87.4531 243.247 87.4831 243.097C87.5131 242.947 87.5431 242.807 87.5731 242.667C87.6031 242.537 87.6231 242.397 87.6531 242.267C87.6831 242.107 87.713 241.937 87.743 241.777C87.7631 241.657 87.7831 241.547 87.7931 241.427C87.8231 241.247 87.8431 241.067 87.8631 240.877C87.8731 240.777 87.8831 240.677 87.8931 240.577C87.9131 240.377 87.933 240.177 87.953 239.977C87.953 239.897 87.9631 239.817 87.9731 239.727C87.9931 239.507 88.0031 239.297 88.0131 239.077C88.0131 239.007 88.0131 238.947 88.0131 238.877C88.0131 238.647 88.0231 238.407 88.0331 238.177C88.0331 238.127 88.0331 238.077 88.0331 238.017C88.0331 237.767 88.033 237.517 88.023 237.267C88.023 237.227 88.023 237.187 88.023 237.147C88.023 236.887 88.0031 236.627 87.9831 236.367C87.9831 236.337 87.9831 236.317 87.9831 236.287C87.9631 236.017 87.9431 235.737 87.9131 235.467C87.9131 235.447 87.9131 235.437 87.9131 235.417C87.8831 235.137 87.8431 234.857 87.8031 234.567C87.8031 234.567 87.8031 234.557 87.8031 234.547C87.7631 234.257 87.7131 233.967 87.6531 233.677C87.5931 233.387 87.5331 233.087 87.4731 232.797L75.523 240.397L75.5031 240.427Z" fill="#3F4861"/>
<path d="M78.2931 256.967C78.4931 256.827 78.6931 256.677 78.8831 256.537C78.9531 256.487 79.0131 256.437 79.0831 256.387C79.2731 256.237 79.4731 256.087 79.6631 255.927C79.7231 255.877 79.7731 255.837 79.8231 255.787C80.0231 255.617 80.2131 255.447 80.4031 255.277C80.4431 255.237 80.4831 255.207 80.5231 255.167C80.7231 254.977 80.9231 254.787 81.1231 254.597C81.1531 254.567 81.1731 254.547 81.2031 254.517C81.4131 254.307 81.6131 254.097 81.8131 253.887C81.8231 253.877 81.8431 253.857 81.8531 253.847C82.0631 253.617 82.2731 253.387 82.4731 253.157C82.4731 253.157 82.4731 253.157 82.4831 253.147C82.6931 252.907 82.8931 252.657 83.0931 252.407L75.4931 240.457L62.4131 248.767L70.0131 260.717C70.3231 260.647 70.6331 260.567 70.9431 260.487C70.9431 260.487 70.9431 260.487 70.9531 260.487C71.2531 260.407 71.5531 260.317 71.8431 260.217C71.8631 260.217 71.8831 260.207 71.9031 260.197C72.1831 260.107 72.4631 260.007 72.7331 259.907C72.7731 259.897 72.8031 259.877 72.8431 259.867C73.1031 259.767 73.3531 259.667 73.6131 259.567C73.6631 259.547 73.7131 259.527 73.7631 259.507C74.0031 259.407 74.2331 259.307 74.4731 259.197C74.5431 259.167 74.6031 259.137 74.6731 259.107C74.8931 259.007 75.1131 258.897 75.3331 258.777C75.4031 258.737 75.4831 258.707 75.5531 258.667C75.7731 258.557 75.9831 258.437 76.1931 258.317C76.2631 258.277 76.3431 258.237 76.4131 258.197C76.6931 258.037 76.9731 257.867 77.2531 257.687C77.5331 257.507 77.8031 257.327 78.0731 257.137C78.1431 257.087 78.2131 257.037 78.2831 256.987L78.2931 256.967Z" fill="#313A53"/>
<path d="M50.473 256.337C50.713 256.517 50.943 256.697 51.183 256.877C51.423 257.047 51.663 257.217 51.903 257.377C51.903 257.377 51.913 257.377 51.923 257.387C52.163 257.547 52.403 257.697 52.643 257.847C52.653 257.847 52.673 257.867 52.683 257.867C52.913 258.007 53.153 258.147 53.393 258.287C53.413 258.297 53.443 258.317 53.463 258.327C53.693 258.457 53.923 258.577 54.153 258.697C54.183 258.717 54.223 258.737 54.263 258.747C54.483 258.857 54.703 258.967 54.933 259.077C54.983 259.097 55.033 259.117 55.073 259.147C55.283 259.247 55.493 259.337 55.713 259.427C55.773 259.457 55.833 259.477 55.903 259.507C56.103 259.587 56.303 259.667 56.513 259.747C56.593 259.777 56.663 259.807 56.743 259.837C56.933 259.907 57.123 259.977 57.313 260.037C57.403 260.067 57.503 260.097 57.593 260.137C57.763 260.197 57.943 260.247 58.123 260.297C58.233 260.327 58.343 260.367 58.463 260.397C58.623 260.447 58.783 260.487 58.943 260.527C59.073 260.557 59.203 260.597 59.333 260.627C59.473 260.657 59.623 260.697 59.763 260.727C59.913 260.757 60.063 260.797 60.213 260.827C60.343 260.857 60.473 260.877 60.593 260.897C60.763 260.927 60.933 260.957 61.093 260.987C61.203 261.007 61.313 261.017 61.423 261.037C61.613 261.067 61.793 261.087 61.983 261.117C62.073 261.127 62.173 261.137 62.263 261.147C62.463 261.167 62.673 261.187 62.873 261.207C62.953 261.207 63.033 261.217 63.103 261.227C63.323 261.247 63.543 261.257 63.773 261.267C63.833 261.267 63.893 261.267 63.953 261.267C64.193 261.267 64.433 261.277 64.673 261.287C64.723 261.287 64.763 261.287 64.813 261.287C65.063 261.287 65.323 261.287 65.573 261.277C65.603 261.277 65.643 261.277 65.673 261.277C65.943 261.277 66.203 261.257 66.473 261.237C66.493 261.237 66.523 261.237 66.543 261.237C66.823 261.217 67.093 261.187 67.373 261.157C67.383 261.157 67.393 261.157 67.403 261.157C67.693 261.127 67.973 261.087 68.263 261.047C68.263 261.047 68.263 261.047 68.273 261.047C68.863 260.957 69.443 260.847 70.023 260.717L62.423 248.767L50.473 256.367V256.337Z" fill="#3F4861"/>
<path d="M45.8831 251.537C46.0231 251.737 46.1731 251.937 46.3231 252.137C46.3731 252.197 46.4231 252.267 46.4731 252.327C46.6231 252.527 46.7831 252.717 46.9331 252.907C46.9731 252.957 47.0231 253.007 47.0631 253.067C47.2331 253.267 47.4031 253.467 47.5831 253.657C47.6131 253.697 47.6531 253.737 47.6931 253.767C47.8831 253.977 48.0731 254.177 48.2731 254.377C48.2931 254.397 48.3231 254.427 48.3431 254.447C48.5531 254.657 48.7631 254.867 48.9831 255.067C48.9931 255.077 49.0131 255.087 49.0231 255.107C49.2531 255.317 49.4831 255.527 49.7231 255.727C49.9631 255.937 50.2131 256.137 50.4631 256.337L62.4131 248.737L54.1031 235.657L42.1531 243.257C42.2231 243.567 42.3031 243.877 42.3931 244.187C42.4731 244.487 42.5631 244.787 42.6631 245.087L42.6831 245.137C42.7731 245.417 42.8731 245.697 42.9731 245.977C42.9831 246.007 42.9931 246.037 43.0031 246.067C43.1031 246.327 43.2031 246.587 43.3131 246.847C43.3331 246.897 43.3531 246.947 43.3731 246.987C43.4731 247.227 43.5831 247.467 43.6931 247.707C43.7231 247.767 43.7531 247.837 43.7831 247.897C43.8931 248.117 44.0031 248.347 44.1131 248.567C44.1531 248.637 44.1831 248.717 44.2231 248.787C44.3331 249.007 44.4531 249.217 44.5831 249.437C44.6231 249.507 44.6631 249.577 44.7031 249.657C44.8631 249.937 45.0331 250.217 45.2131 250.497C45.3931 250.777 45.5731 251.047 45.7631 251.317C45.8131 251.387 45.8631 251.447 45.9031 251.517L45.8831 251.537Z" fill="#313A53"/>
<path d="M46.513 223.707C46.143 224.177 45.803 224.657 45.473 225.147C45.313 225.387 45.163 225.627 45.013 225.867C45.013 225.877 45.003 225.887 44.993 225.897C44.953 225.967 44.903 226.047 44.863 226.117C44.763 226.277 44.663 226.447 44.573 226.607C44.573 226.617 44.563 226.627 44.553 226.637C44.553 226.647 44.543 226.657 44.533 226.667C44.403 226.897 44.283 227.127 44.163 227.367C44.163 227.367 44.163 227.387 44.153 227.397C44.143 227.417 44.123 227.447 44.113 227.467C44.073 227.547 44.033 227.627 43.993 227.707C43.923 227.847 43.853 227.997 43.783 228.147C43.763 228.187 43.743 228.227 43.723 228.267C43.723 228.267 43.723 228.267 43.723 228.277C43.703 228.327 43.673 228.387 43.653 228.437C43.583 228.597 43.503 228.757 43.443 228.927C43.413 228.987 43.393 229.047 43.363 229.107C43.283 229.307 43.203 229.517 43.123 229.717C43.103 229.767 43.083 229.817 43.063 229.867C43.053 229.897 43.043 229.917 43.033 229.947C42.983 230.097 42.923 230.237 42.873 230.387C42.863 230.427 42.843 230.477 42.823 230.517C42.793 230.607 42.763 230.707 42.733 230.797C42.693 230.907 42.663 231.017 42.633 231.127C42.613 231.197 42.593 231.257 42.573 231.327C42.543 231.437 42.503 231.547 42.473 231.657C42.423 231.817 42.383 231.977 42.343 232.137C42.333 232.197 42.313 232.247 42.303 232.307C42.283 232.377 42.263 232.457 42.243 232.527C42.223 232.607 42.203 232.697 42.183 232.777C42.173 232.837 42.153 232.897 42.143 232.957C42.143 232.997 42.123 233.037 42.113 233.077C42.093 233.187 42.063 233.297 42.043 233.407C42.023 233.487 42.013 233.567 41.993 233.647C41.993 233.697 41.973 233.747 41.963 233.787C41.933 233.957 41.903 234.117 41.873 234.287C41.873 234.337 41.863 234.377 41.853 234.427C41.853 234.487 41.833 234.557 41.823 234.617C41.793 234.807 41.773 234.987 41.743 235.177C41.733 235.267 41.723 235.367 41.713 235.457C41.693 235.657 41.673 235.867 41.653 236.067C41.653 236.147 41.643 236.227 41.633 236.307C41.633 236.437 41.613 236.567 41.613 236.697C41.613 236.787 41.603 236.877 41.593 236.967C41.593 236.977 41.593 236.987 41.593 237.007C41.593 237.057 41.593 237.107 41.593 237.157C41.593 237.237 41.593 237.317 41.593 237.397C41.593 237.557 41.593 237.707 41.583 237.867C41.583 237.917 41.583 237.967 41.583 238.017C41.583 238.267 41.583 238.517 41.593 238.777C41.593 238.807 41.593 238.847 41.593 238.877C41.593 239.077 41.613 239.287 41.623 239.487C41.623 239.547 41.623 239.607 41.623 239.667C41.623 239.667 41.623 239.687 41.623 239.697C41.623 239.707 41.623 239.727 41.623 239.737C41.623 239.867 41.643 239.997 41.663 240.127C41.673 240.277 41.683 240.417 41.703 240.567C41.703 240.567 41.703 240.567 41.703 240.577V240.597C41.723 240.797 41.753 241.007 41.783 241.207C41.793 241.287 41.803 241.377 41.813 241.457C41.813 241.457 41.813 241.457 41.813 241.467C41.903 242.057 42.013 242.637 42.143 243.217L54.093 235.617L46.493 223.667L46.513 223.707Z" fill="#3F4861"/>
<path d="M87.9831 236.387C87.9831 236.387 87.9831 236.337 87.9831 236.307C87.9631 236.037 87.9431 235.757 87.9131 235.487C87.9131 235.467 87.9131 235.457 87.9131 235.437C87.8831 235.157 87.8431 234.877 87.8031 234.587C87.8031 234.587 87.8031 234.577 87.8031 234.567C87.7631 234.277 87.7131 233.987 87.6531 233.697C87.5931 233.407 87.5331 233.117 87.4731 232.817L75.5231 240.417L88.0131 236.417C88.0131 236.417 88.0131 236.387 88.0131 236.377L87.9831 236.387Z" fill="#05111C"/>
<path d="M51.183 256.877C51.423 257.047 51.663 257.217 51.903 257.377C51.903 257.377 51.913 257.377 51.923 257.387C52.163 257.547 52.403 257.697 52.643 257.847C52.653 257.847 52.673 257.867 52.683 257.877C52.913 258.017 53.153 258.157 53.393 258.297C53.413 258.307 53.443 258.327 53.463 258.337C53.473 258.337 53.483 258.347 53.493 258.357L62.423 248.747L50.473 256.347C50.713 256.527 50.943 256.707 51.183 256.887V256.877Z" fill="#05111C"/>
<path d="M63.143 214.867C63.143 214.867 63.093 214.867 63.063 214.867C62.793 214.887 62.513 214.907 62.243 214.937C62.233 214.937 62.213 214.937 62.203 214.937C61.923 214.967 61.633 215.007 61.353 215.047C61.353 215.047 61.343 215.047 61.333 215.047C61.043 215.087 60.753 215.137 60.463 215.197C60.173 215.257 59.883 215.317 59.583 215.377L67.183 227.327L63.173 214.837C63.173 214.837 63.143 214.837 63.133 214.837L63.143 214.867Z" fill="#05111C"/>
<path d="M45.4731 225.147C45.3131 225.387 45.1631 225.627 45.0131 225.867C45.0131 225.877 45.0031 225.887 44.9931 225.897C44.9531 225.967 44.9031 226.047 44.8631 226.117C44.7631 226.277 44.6631 226.447 44.5731 226.607C44.5731 226.617 44.5631 226.627 44.5531 226.637C44.5531 226.647 44.5431 226.657 44.5331 226.667C44.5331 226.677 44.5231 226.687 44.5131 226.697L54.1231 235.627L46.5231 223.677C46.1531 224.147 45.8131 224.627 45.4831 225.117L45.4731 225.147Z" fill="#05111C"/>
<path opacity="0.35" d="M120.403 133.207C126.07 133.207 130.663 128.613 130.663 122.947C130.663 117.28 126.07 112.687 120.403 112.687C114.737 112.687 110.143 117.28 110.143 122.947C110.143 128.613 114.737 133.207 120.403 133.207Z" fill="url(#paint8_radial_59_99)"/>
<path opacity="0.35" d="M114.283 159.957C119.95 159.957 124.543 155.363 124.543 149.697C124.543 144.03 119.95 139.437 114.283 139.437C108.617 139.437 104.023 144.03 104.023 149.697C104.023 155.363 108.617 159.957 114.283 159.957Z" fill="url(#paint9_radial_59_99)"/>
<path opacity="0.35" d="M148.163 139.867C153.83 139.867 158.423 135.273 158.423 129.607C158.423 123.94 153.83 119.347 148.163 119.347C142.497 119.347 137.903 123.94 137.903 129.607C137.903 135.273 142.497 139.867 148.163 139.867Z" fill="url(#paint10_radial_59_99)"/>
<path opacity="0.35" d="M141.463 166.337C147.129 166.337 151.723 161.743 151.723 156.077C151.723 150.41 147.129 145.817 141.463 145.817C135.797 145.817 131.203 150.41 131.203 156.077C131.203 161.743 135.797 166.337 141.463 166.337Z" fill="url(#paint11_radial_59_99)"/>
<path d="M487.923 121.309L456.306 143.365L467.211 158.997L498.828 136.941L487.923 121.309Z" fill="#FFD797"/>
<path d="M285.23 300.97L537.76 127.83" stroke="#297F6F" stroke-width="2" stroke-miterlimit="10" stroke-dasharray="2 4"/>
<path d="M485.4 134.83L482.36 136.89L482.04 139.17L479.72 137.14L479.96 139.55L478.68 139.39L477.24 141.4L475.96 141.24L474.52 143.25L472.12 143.85L469.72 145.48" stroke="#C48866" stroke-width="6" stroke-linecap="round" stroke-linejoin="round"/>
<path d="M421.373 149.698L360.421 175.834C358.558 176.633 357.695 178.791 358.494 180.654L446.667 386.277C447.465 388.139 449.623 389.002 451.486 388.203L512.438 362.066C514.301 361.268 515.164 359.11 514.365 357.247L426.193 151.624C425.394 149.761 423.236 148.899 421.373 149.698Z" fill="#0D162F"/>
<path d="M379.09 191.9C383.243 191.9 386.61 188.533 386.61 184.38C386.61 180.227 383.243 176.86 379.09 176.86C374.937 176.86 371.57 180.227 371.57 184.38C371.57 188.533 374.937 191.9 379.09 191.9Z" fill="#DC2626"/>
<path d="M376.262 189.27C378.896 190.782 382.257 189.873 383.77 187.238C385.282 184.604 384.373 181.243 381.739 179.73C379.104 178.218 375.743 179.127 374.23 181.762C372.718 184.396 373.627 187.757 376.262 189.27Z" fill="url(#paint12_linear_59_99)"/>
<path d="M414.86 174.8C418.036 174.8 420.61 172.226 420.61 169.05C420.61 165.874 418.036 163.3 414.86 163.3C411.684 163.3 409.11 165.874 409.11 169.05C409.11 172.226 411.684 174.8 414.86 174.8Z" fill="#3F4861"/>
<path d="M415 173C417.209 173 419 171.209 419 169C419 166.791 417.209 165 415 165C412.791 165 411 166.791 411 169C411 171.209 412.791 173 415 173Z" fill="url(#paint13_linear_59_99)"/>
<path d="M415.47 287.34C418.347 287.34 420.68 285.007 420.68 282.13C420.68 279.253 418.347 276.92 415.47 276.92C412.593 276.92 410.26 279.253 410.26 282.13C410.26 285.007 412.593 287.34 415.47 287.34Z" fill="url(#paint14_linear_59_99)"/>
<path d="M460.42 268.07C463.297 268.07 465.63 265.737 465.63 262.86C465.63 259.983 463.297 257.65 460.42 257.65C457.543 257.65 455.21 259.983 455.21 262.86C455.21 265.737 457.543 268.07 460.42 268.07Z" fill="url(#paint15_linear_59_99)"/>
<path d="M449.05 324.7C463.73 324.7 475.63 312.8 475.63 298.12C475.63 283.44 463.73 271.54 449.05 271.54C434.37 271.54 422.47 283.44 422.47 298.12C422.47 312.8 434.37 324.7 449.05 324.7Z" fill="#3F4861"/>
<path d="M449 322C462.255 322 473 311.255 473 298C473 284.745 462.255 274 449 274C435.745 274 425 284.745 425 298C425 311.255 435.745 322 449 322Z" fill="url(#paint16_linear_59_99)"/>
<path d="M387.925 196.279L380.517 199.455C378.436 200.348 377.473 202.758 378.365 204.839L381.541 212.247C382.434 214.328 384.844 215.292 386.925 214.399L394.333 211.223C396.414 210.33 397.378 207.92 396.485 205.839L393.309 198.431C392.417 196.35 390.006 195.386 387.925 196.279Z" fill="#3F4861"/>
<path d="M406.38 188.365L398.972 191.541C396.891 192.433 395.927 194.844 396.82 196.925L399.996 204.333C400.889 206.414 403.299 207.377 405.38 206.485L412.788 203.309C414.869 202.416 415.833 200.006 414.94 197.925L411.764 190.517C410.871 188.436 408.461 187.472 406.38 188.365Z" fill="#3F4861"/>
<path d="M424.854 180.436L417.446 183.613C415.365 184.505 414.401 186.916 415.294 188.997L418.47 196.405C419.362 198.486 421.773 199.449 423.854 198.557L431.262 195.38C433.343 194.488 434.306 192.078 433.414 189.997L430.238 182.589C429.345 180.508 426.935 179.544 424.854 180.436Z" fill="#3F4861"/>
<path d="M395.982 215.081L388.574 218.257C386.493 219.149 385.529 221.56 386.422 223.641L389.598 231.049C390.491 233.13 392.901 234.094 394.982 233.201L402.39 230.025C404.471 229.132 405.435 226.722 404.542 224.641L401.366 217.233C400.473 215.152 398.063 214.188 395.982 215.081Z" fill="#3F4861"/>
<path d="M414.456 207.163L407.048 210.339C404.967 211.231 404.003 213.642 404.896 215.723L408.072 223.131C408.965 225.212 411.375 226.175 413.456 225.283L420.864 222.107C422.945 221.214 423.909 218.804 423.016 216.723L419.84 209.315C418.947 207.234 416.537 206.27 414.456 207.163Z" fill="#3F4861"/>
<path d="M432.914 199.248L425.507 202.424C423.426 203.316 422.462 205.727 423.354 207.808L426.531 215.216C427.423 217.297 429.834 218.261 431.915 217.368L439.322 214.192C441.404 213.299 442.367 210.889 441.475 208.808L438.298 201.4C437.406 199.319 434.995 198.355 432.914 199.248Z" fill="#3F4861"/>
<path d="M404.048 233.879L396.64 237.055C394.559 237.948 393.595 240.358 394.488 242.439L397.664 249.847C398.557 251.928 400.967 252.892 403.048 251.999L410.456 248.823C412.537 247.93 413.501 245.52 412.608 243.439L409.432 236.031C408.539 233.95 406.129 232.986 404.048 233.879Z" fill="#3F4861"/>
<path d="M422.516 225.974L415.109 229.15C413.028 230.043 412.064 232.453 412.956 234.534L416.133 241.942C417.025 244.023 419.436 244.987 421.517 244.094L428.925 240.918C431.006 240.025 431.969 237.615 431.077 235.534L427.9 228.126C427.008 226.045 424.598 225.081 422.516 225.974Z" fill="#3F4861"/>
<path d="M440.971 218.05L433.563 221.226C431.482 222.118 430.519 224.529 431.411 226.61L434.588 234.018C435.48 236.099 437.89 237.063 439.972 236.17L447.379 232.994C449.46 232.101 450.424 229.691 449.532 227.61L446.355 220.202C445.463 218.121 443.052 217.157 440.971 218.05Z" fill="#3F4861"/>
<path d="M412.119 252.69L404.711 255.866C402.63 256.759 401.666 259.169 402.559 261.25L405.735 268.658C406.627 270.739 409.038 271.703 411.119 270.81L418.527 267.634C420.608 266.742 421.571 264.331 420.679 262.25L417.503 254.842C416.61 252.761 414.2 251.797 412.119 252.69Z" fill="#3F4861"/>
<path d="M430.573 244.766L423.166 247.942C421.085 248.835 420.121 251.245 421.013 253.326L424.19 260.734C425.082 262.815 427.493 263.779 429.574 262.886L436.981 259.71C439.063 258.817 440.026 256.407 439.134 254.326L435.957 246.918C435.065 244.837 432.654 243.873 430.573 244.766Z" fill="#3F4861"/>
<path d="M449.028 236.852L441.62 240.028C439.539 240.92 438.576 243.331 439.468 245.412L442.644 252.82C443.537 254.901 445.947 255.865 448.028 254.972L455.436 251.796C457.517 250.903 458.481 248.493 457.588 246.412L454.412 239.004C453.52 236.923 451.109 235.959 449.028 236.852Z" fill="#3F4861"/>
<path d="M427.534 80.5483L419 95L410.452 80.5483L396 72L410.452 63.4663L419 49L427.534 63.4663L442 72L427.534 80.5483Z" fill="white"/>
<path d="M68.5986 46.7993L58.7993 37L49 46.7993L58.7993 56.5986L68.5986 46.7993Z" fill="white"/>
<path d="M321.599 212.799L311.799 203L302 212.799L311.799 222.599L321.599 212.799Z" fill="white"/>
<path d="M8.13 234.63C17.0384 234.63 24.26 227.408 24.26 218.5C24.26 209.592 17.0384 202.37 8.13 202.37C-0.778348 202.37 -8 209.592 -8 218.5C-8 227.408 -0.778348 234.63 8.13 234.63Z" fill="url(#paint17_radial_59_99)"/>
<path d="M8 229C13.9757 229 18.82 224.156 18.82 218.18C18.82 212.204 13.9757 207.36 8 207.36C2.02428 207.36 -2.82001 212.204 -2.82001 218.18C-2.82001 224.156 2.02428 229 8 229Z" fill="url(#paint18_linear_59_99)" stroke="black" stroke-miterlimit="10"/>
<path d="M449.05 310.29C455.771 310.29 461.22 304.841 461.22 298.12C461.22 291.399 455.771 285.95 449.05 285.95C442.329 285.95 436.88 291.399 436.88 298.12C436.88 304.841 442.329 310.29 449.05 310.29Z" fill="url(#paint19_linear_59_99)"/>
<path d="M387.768 198.301L382.09 200.736C380.495 201.42 379.757 203.267 380.441 204.862L382.875 210.54C383.559 212.135 385.407 212.874 387.002 212.19L392.68 209.755C394.275 209.071 395.013 207.224 394.329 205.628L391.895 199.951C391.211 198.356 389.363 197.617 387.768 198.301Z" fill="url(#paint20_linear_59_99)"/>
<path d="M395.566 216.995L389.888 219.43C388.293 220.114 387.554 221.961 388.238 223.556L390.673 229.234C391.357 230.829 393.205 231.568 394.8 230.884L400.478 228.449C402.073 227.765 402.811 225.918 402.127 224.323L399.693 218.645C399.009 217.05 397.161 216.311 395.566 216.995Z" fill="url(#paint21_linear_59_99)"/>
<path d="M403.827 235.939L398.15 238.373C396.555 239.057 395.816 240.905 396.5 242.5L398.935 248.178C399.619 249.773 401.466 250.511 403.061 249.828L408.739 247.393C410.334 246.709 411.073 244.861 410.389 243.266L407.954 237.588C407.27 235.993 405.423 235.255 403.827 235.939Z" fill="url(#paint22_linear_59_99)"/>
<path d="M412.088 255.046L406.411 257.48C404.815 258.164 404.077 260.012 404.761 261.607L407.196 267.285C407.88 268.88 409.727 269.619 411.322 268.935L417 266.5C418.595 265.816 419.334 263.968 418.65 262.373L416.215 256.696C415.531 255.1 413.683 254.362 412.088 255.046Z" fill="url(#paint23_linear_59_99)"/>
<path d="M406.327 190.439L400.65 192.873C399.055 193.557 398.316 195.405 399 197L401.435 202.678C402.119 204.273 403.966 205.012 405.561 204.328L411.239 201.893C412.834 201.209 413.573 199.361 412.889 197.766L410.454 192.088C409.77 190.493 407.923 189.755 406.327 190.439Z" fill="url(#paint24_linear_59_99)"/>
<path d="M424.766 182.611L419.088 185.046C417.493 185.73 416.755 187.577 417.439 189.172L419.873 194.85C420.557 196.445 422.405 197.184 424 196.5L429.678 194.065C431.273 193.381 432.011 191.534 431.328 189.939L428.893 184.261C428.209 182.666 426.361 181.927 424.766 182.611Z" fill="url(#paint25_linear_59_99)"/>
<path d="M414.125 209.133L408.448 211.567C406.852 212.251 406.114 214.099 406.798 215.694L409.232 221.372C409.916 222.967 411.764 223.706 413.359 223.022L419.037 220.587C420.632 219.903 421.371 218.055 420.687 216.46L418.252 210.783C417.568 209.187 415.72 208.449 414.125 209.133Z" fill="url(#paint26_linear_59_99)"/>
<path d="M432.564 201.305L426.886 203.74C425.291 204.424 424.553 206.272 425.236 207.867L427.671 213.544C428.355 215.14 430.203 215.878 431.798 215.194L437.476 212.759C439.071 212.075 439.809 210.228 439.125 208.633L436.691 202.955C436.007 201.36 434.159 200.621 432.564 201.305Z" fill="url(#paint27_linear_59_99)"/>
<path d="M422.393 228.261L416.715 230.696C415.12 231.38 414.381 233.227 415.065 234.822L417.5 240.5C418.184 242.095 420.032 242.834 421.627 242.15L427.304 239.715C428.9 239.031 429.952 237.223 429.268 235.628L426.52 229.911C425.836 228.315 423.988 227.577 422.393 228.261Z" fill="url(#paint28_linear_59_99)"/>
<path d="M440.939 220L435.261 222.435C433.666 223.119 432.927 224.966 433.611 226.561L436.046 232.239C436.73 233.834 438.577 234.573 440.172 233.889L445.85 231.454C447.445 230.77 448.184 228.923 447.5 227.327L445.065 221.65C444.381 220.055 442.534 219.316 440.939 220Z" fill="url(#paint29_linear_59_99)"/>
<path d="M430.5 247L424.822 249.435C423.227 250.119 422.489 251.966 423.173 253.561L425.607 259.239C426.291 260.834 428.139 261.573 429.734 260.889L435.412 258.454C437.007 257.77 438.059 255.962 437.375 254.367L434.627 248.65C433.943 247.055 432.095 246.316 430.5 247Z" fill="url(#paint30_linear_59_99)"/>
<path d="M448.939 239.173L443.261 241.607C441.666 242.291 440.927 244.139 441.611 245.734L444.046 251.412C444.73 253.007 446.577 253.745 448.173 253.061L453.85 250.627C455.445 249.943 456.184 248.095 455.5 246.5L453.065 240.822C452.381 239.227 450.534 238.489 448.939 239.173Z" fill="url(#paint31_linear_59_99)"/>
<path d="M465.441 294.439L467.09 290.32L462.971 288.671" stroke="white" stroke-miterlimit="10"/>
<path d="M445.409 281.649L441.29 280L439.641 284.119" stroke="white" stroke-miterlimit="10"/>
<path d="M386.4 204.13L385.27 204.62L385.59 203.28L387 202.67L389.3 208.04L388.26 208.48L386.4 204.13Z" fill="white"/>
<path d="M409.1 199.54L405.44 201.11L405.29 200.75C404.77 199.55 405.5 198.63 406.04 197.73C406.37 197.2 406.6 196.7 406.41 196.26C406.24 195.87 405.86 195.67 405.4 195.87C404.92 196.07 404.72 196.55 404.92 196.97L403.88 197.42C403.43 196.37 403.93 195.3 404.99 194.84C405.9 194.45 406.95 194.66 407.42 195.76C407.82 196.68 407.56 197.35 407.1 198.14C406.87 198.53 406.43 199.07 406.44 199.48L408.66 198.53L409.1 199.55V199.54Z" fill="white"/>
<path d="M425.73 192.52C424.71 192.96 423.5 192.72 422.95 191.55L423.98 191.11C424.26 191.61 424.76 191.72 425.29 191.5C425.76 191.3 425.99 190.89 425.82 190.48C425.63 190.03 425.16 189.91 424.64 190.14L424.19 190.33L423.83 189.48L424.24 189.3C424.74 189.09 424.89 188.71 424.74 188.33C424.59 187.96 424.17 187.84 423.78 188.01C423.3 188.22 423.08 188.68 423.28 189.12L422.24 189.57C421.76 188.45 422.4 187.4 423.35 186.99C424.45 186.52 425.39 186.95 425.76 187.8C425.98 188.32 425.88 188.87 425.66 189.21C426.14 189.23 426.67 189.5 426.93 190.11C427.34 191.05 426.87 192.04 425.76 192.52H425.73Z" fill="white"/>
<path d="M396.06 225.87L393.39 227.01L393.03 226.17L394.4 221.67L395.32 221.27L396.69 224.46L397.39 224.16L397.8 225.11L397.1 225.41L397.63 226.63L396.59 227.07L396.06 225.85V225.87ZM394.94 223.26L394.26 225.51L395.65 224.91L394.94 223.25V223.26Z" fill="white"/>
<path d="M413.65 217.93C413.89 218.25 414.35 218.37 414.75 218.19C415.28 217.96 415.43 217.46 415.23 217C415.03 216.53 414.53 216.32 414.05 216.52C413.63 216.7 413.43 217.06 413.45 217.44L412.42 217.55L411.72 214.24L414.34 213.12L414.77 214.13L412.96 214.91L413.19 215.99C413.33 215.81 413.55 215.63 413.85 215.5C414.87 215.06 415.85 215.55 416.31 216.64C416.77 217.71 416.32 218.73 415.19 219.21C414.21 219.63 413.03 219.33 412.57 218.39L413.64 217.93H413.65Z" fill="white"/>
<path d="M433.63 211.31C432.49 211.8 431.42 211.31 430.97 210.26C430.74 209.72 430.82 209.3 430.97 208.57L431.64 205.71L432.92 205.16L432.34 207.64C433.14 207.32 434.25 207.6 434.7 208.66C435.15 209.7 434.77 210.82 433.62 211.32L433.63 211.31ZM433.2 210.31C433.68 210.1 433.87 209.58 433.67 209.11C433.47 208.65 432.96 208.41 432.48 208.62C432 208.83 431.82 209.36 432.02 209.82C432.22 210.29 432.72 210.51 433.2 210.31Z" fill="white"/>
<path d="M404.17 245.9C403.03 246.39 401.96 245.9 401.51 244.85C401.28 244.31 401.36 243.89 401.51 243.16L402.18 240.3L403.46 239.75L402.88 242.23C403.68 241.91 404.79 242.19 405.24 243.25C405.69 244.29 405.31 245.41 404.16 245.91L404.17 245.9ZM403.74 244.9C404.22 244.69 404.41 244.17 404.21 243.7C404.01 243.24 403.5 243 403.02 243.21C402.54 243.42 402.36 243.95 402.56 244.41C402.76 244.88 403.26 245.1 403.74 244.9Z" fill="white"/>
<path d="M421.53 238.27L422.09 232.87L419.58 233.95L419.15 232.94L422.89 231.34L423.27 232.23L422.7 237.77L421.53 238.27Z" fill="white"/>
<path d="M431.45 256.93C430.27 257.44 429.06 256.9 428.54 255.66L427.98 254.36C427.45 253.14 427.9 251.89 429.08 251.38C430.25 250.88 431.46 251.42 431.98 252.64L432.54 253.94C433.07 255.17 432.63 256.42 431.46 256.92L431.45 256.93ZM431.01 255.91C431.58 255.67 431.79 255.09 431.5 254.39L430.94 253.09C430.65 252.4 430.08 252.16 429.51 252.41C428.94 252.66 428.72 253.23 429.01 253.92L429.57 255.22C429.87 255.92 430.44 256.16 431.01 255.91Z" fill="white"/>
<path d="M441.64 229.74C440.56 230.2 439.43 229.84 438.99 228.83C438.73 228.23 438.81 227.69 439.12 227.24C438.71 227.11 438.39 226.81 438.2 226.37C437.84 225.54 438.25 224.63 439.26 224.2C440.27 223.77 441.2 224.1 441.56 224.93C441.74 225.36 441.74 225.8 441.56 226.19C442.11 226.26 442.55 226.59 442.8 227.19C443.23 228.2 442.72 229.27 441.64 229.74ZM440.19 226.36C440.58 226.19 440.75 225.8 440.6 225.45C440.45 225.09 440.05 224.95 439.66 225.12C439.27 225.29 439.1 225.67 439.25 226.03C439.4 226.38 439.8 226.53 440.19 226.36ZM441.23 228.78C441.76 228.55 441.91 228.04 441.73 227.63C441.55 227.22 441.08 226.97 440.55 227.2C440.02 227.43 439.87 227.94 440.05 228.35C440.23 228.77 440.7 229.01 441.23 228.78Z" fill="white"/>
<path d="M413.001 259.493L409.021 261.199C408.25 261.53 407.893 262.424 408.223 263.195C408.554 263.967 409.448 264.324 410.219 263.993L414.199 262.287C414.971 261.956 415.328 261.062 414.997 260.291C414.666 259.519 413.772 259.162 413.001 259.493Z" fill="white"/>
<path d="M449.914 243.664L445.935 245.37C445.163 245.701 444.806 246.595 445.137 247.366C445.468 248.138 446.361 248.495 447.133 248.164L451.112 246.458C451.884 246.127 452.241 245.233 451.91 244.462C451.579 243.69 450.686 243.333 449.914 243.664Z" fill="white"/>
<path d="M460.788 261.034L458.849 261.866C458.077 262.197 457.72 263.09 458.051 263.862C458.382 264.633 459.275 264.991 460.047 264.66L461.986 263.828C462.757 263.497 463.115 262.604 462.784 261.832C462.453 261.061 461.559 260.703 460.788 261.034Z" fill="white"/>
<path d="M415.849 280.306L413.91 281.137C413.139 281.468 412.781 282.362 413.112 283.133C413.443 283.905 414.337 284.262 415.108 283.931L417.047 283.1C417.819 282.769 418.176 281.875 417.845 281.103C417.515 280.332 416.621 279.975 415.849 280.306Z" fill="white"/>
</g>
<defs>
<filter id="filter0_d_59_99" x="-28.6069" y="181.817" width="73.56" height="73.56" filterUnits="userSpaceOnUse" color-interpolation-filters="sRGB">
<feFlood flood-opacity="0" result="BackgroundImageFix"/>
<feColorMatrix in="SourceAlpha" type="matrix" values="0 0 0 0 0 0 0 0 0 0 0 0 0 0 0 0 0 0 127 0" result="hardAlpha"/>
<feOffset/>
<feGaussianBlur stdDeviation="7.5"/>
<feComposite in2="hardAlpha" operator="out"/>
<feColorMatrix type="matrix" values="0 0 0 0 0.795833 0 0 0 0 0.848766 0 0 0 0 1 0 0 0 1 0"/>
<feBlend mode="normal" in2="BackgroundImageFix" result="effect1_dropShadow_59_99"/>
<feBlend mode="normal" in="SourceGraphic" in2="effect1_dropShadow_59_99" result="shape"/>
</filter>
<filter id="filter1_d_59_99" x="89.333" y="164.207" width="73.56" height="73.56" filterUnits="userSpaceOnUse" color-interpolation-filters="sRGB">
<feFlood flood-opacity="0" result="BackgroundImageFix"/>
<feColorMatrix in="SourceAlpha" type="matrix" values="0 0 0 0 0 0 0 0 0 0 0 0 0 0 0 0 0 0 127 0" result="hardAlpha"/>
<feOffset/>
<feGaussianBlur stdDeviation="7.5"/>
<feComposite in2="hardAlpha" operator="out"/>
<feColorMatrix type="matrix" values="0 0 0 0 0.795833 0 0 0 0 0.848766 0 0 0 0 1 0 0 0 1 0"/>
<feBlend mode="normal" in2="BackgroundImageFix" result="effect1_dropShadow_59_99"/>
<feBlend mode="normal" in="SourceGraphic" in2="effect1_dropShadow_59_99" result="shape"/>
</filter>
<linearGradient id="paint0_linear_59_99" x1="418" y1="190" x2="550" y2="413.5" gradientUnits="userSpaceOnUse">
<stop stop-color="#429B8C"/>
<stop offset="1" stop-color="#005281"/>
</linearGradient>
<linearGradient id="paint1_linear_59_99" x1="393.217" y1="220.325" x2="393.217" y2="297.19" gradientUnits="userSpaceOnUse">
<stop stop-color="#297F6F"/>
<stop offset="1" stop-color="#297F6F" stop-opacity="0"/>
</linearGradient>
<linearGradient id="paint2_linear_59_99" x1="132" y1="180" x2="142" y2="313.5" gradientUnits="userSpaceOnUse">
<stop stop-color="#BE5001"/>
<stop offset="0.834266" stop-color="#BE5001" stop-opacity="0"/>
</linearGradient>
<linearGradient id="paint3_linear_59_99" x1="294" y1="142.5" x2="273" y2="150.5" gradientUnits="userSpaceOnUse">
<stop stop-color="#BD4F00"/>
<stop offset="1" stop-color="#BD4F00" stop-opacity="0"/>
</linearGradient>
<linearGradient id="paint4_linear_59_99" x1="318.55" y1="100.683" x2="314.67" y2="197.787" gradientUnits="userSpaceOnUse">
<stop stop-color="#0D162F"/>
<stop offset="1" stop-color="#313A53"/>
</linearGradient>
<linearGradient id="paint5_linear_59_99" x1="-19.5" y1="135.5" x2="75" y2="164" gradientUnits="userSpaceOnUse">
<stop stop-color="#EFF6FF"/>
<stop offset="1" stop-color="white"/>
</linearGradient>
<radialGradient id="paint6_radial_59_99" cx="0" cy="0" r="1" gradientUnits="userSpaceOnUse" gradientTransform="translate(126.113 200.987) rotate(90) scale(16.13 16.13)">
<stop offset="0.539838" stop-color="#0D162F"/>
<stop offset="1" stop-color="#3F4861"/>
</radialGradient>
<linearGradient id="paint7_linear_59_99" x1="120.5" y1="192.5" x2="132.5" y2="208.5" gradientUnits="userSpaceOnUse">
<stop stop-color="#313A53"/>
<stop offset="1" stop-color="#0D162F"/>
</linearGradient>
<radialGradient id="paint8_radial_59_99" cx="0" cy="0" r="1" gradientUnits="userSpaceOnUse" gradientTransform="translate(121 120) rotate(92.5879) scale(13.2203 13.2203)">
<stop stop-color="white"/>
<stop offset="1" stop-color="white" stop-opacity="0"/>
</radialGradient>
<radialGradient id="paint9_radial_59_99" cx="0" cy="0" r="1" gradientUnits="userSpaceOnUse" gradientTransform="translate(116.5 146) rotate(99.0256) scale(14.1317 14.1317)">
<stop stop-color="white"/>
<stop offset="1" stop-color="white" stop-opacity="0"/>
</radialGradient>
<radialGradient id="paint10_radial_59_99" cx="0" cy="0" r="1" gradientUnits="userSpaceOnUse" gradientTransform="translate(151 125.5) rotate(101.17) scale(14.6442 14.6442)">
<stop stop-color="white"/>
<stop offset="1" stop-color="white" stop-opacity="0"/>
</radialGradient>
<radialGradient id="paint11_radial_59_99" cx="0" cy="0" r="1" gradientUnits="userSpaceOnUse" gradientTransform="translate(143.5 152) rotate(98.0866) scale(14.4808 14.4808)">
<stop stop-color="white"/>
<stop offset="1" stop-color="white" stop-opacity="0"/>
</radialGradient>
<linearGradient id="paint12_linear_59_99" x1="381.739" y1="179.73" x2="376.262" y2="189.27" gradientUnits="userSpaceOnUse">
<stop stop-color="#FF6C6C"/>
<stop offset="1" stop-color="#DC2626"/>
</linearGradient>
<linearGradient id="paint13_linear_59_99" x1="415" y1="165" x2="415" y2="173" gradientUnits="userSpaceOnUse">
<stop stop-color="#4C597C"/>
<stop offset="1" stop-color="#494949" stop-opacity="0"/>
</linearGradient>
<linearGradient id="paint14_linear_59_99" x1="415.47" y1="276.92" x2="415.47" y2="287.34" gradientUnits="userSpaceOnUse">
<stop stop-color="#4E5A7D"/>
<stop offset="1" stop-color="#3F4861"/>
</linearGradient>
<linearGradient id="paint15_linear_59_99" x1="460.42" y1="257.65" x2="460.42" y2="268.07" gradientUnits="userSpaceOnUse">
<stop stop-color="#4E5A7D"/>
<stop offset="1" stop-color="#3F4861"/>
</linearGradient>
<linearGradient id="paint16_linear_59_99" x1="449" y1="274" x2="449" y2="322" gradientUnits="userSpaceOnUse">
<stop stop-color="#4E5A7D"/>
<stop offset="0.305381" stop-color="#3F4861"/>
</linearGradient>
<radialGradient id="paint17_radial_59_99" cx="0" cy="0" r="1" gradientUnits="userSpaceOnUse" gradientTransform="translate(8.13 217.76) rotate(90) scale(16.13 16.13)">
<stop offset="0.539838" stop-color="#0D162F"/>
<stop offset="1" stop-color="#3F4861"/>
</radialGradient>
<linearGradient id="paint18_linear_59_99" x1="2.51697" y1="209.273" x2="14.517" y2="225.273" gradientUnits="userSpaceOnUse">
<stop stop-color="#313A53"/>
<stop offset="1" stop-color="#0D162F"/>
</linearGradient>
<linearGradient id="paint19_linear_59_99" x1="449.05" y1="285.95" x2="449.05" y2="310.29" gradientUnits="userSpaceOnUse">
<stop stop-color="#EAEAEA"/>
<stop offset="1" stop-color="#EAEAEA" stop-opacity="0"/>
</linearGradient>
<linearGradient id="paint20_linear_59_99" x1="389.5" y1="197.5" x2="387" y2="211.5" gradientUnits="userSpaceOnUse">
<stop stop-color="#4D597C"/>
<stop offset="1" stop-color="#3F4861"/>
</linearGradient>
<linearGradient id="paint21_linear_59_99" x1="397.298" y1="216.194" x2="394.798" y2="230.194" gradientUnits="userSpaceOnUse">
<stop stop-color="#4D597C"/>
<stop offset="1" stop-color="#3F4861"/>
</linearGradient>
<linearGradient id="paint22_linear_59_99" x1="405.298" y1="235.194" x2="402.798" y2="249.194" gradientUnits="userSpaceOnUse">
<stop stop-color="#4D597C"/>
<stop offset="1" stop-color="#3F4861"/>
</linearGradient>
<linearGradient id="paint23_linear_59_99" x1="413.036" y1="254.433" x2="410.536" y2="268.433" gradientUnits="userSpaceOnUse">
<stop stop-color="#4D597C"/>
<stop offset="1" stop-color="#3F4861"/>
</linearGradient>
<linearGradient id="paint24_linear_59_99" x1="408.298" y1="189.438" x2="405.798" y2="203.438" gradientUnits="userSpaceOnUse">
<stop stop-color="#4D597C"/>
<stop offset="1" stop-color="#3F4861"/>
</linearGradient>
<linearGradient id="paint25_linear_59_99" x1="408.298" y1="189.438" x2="405.798" y2="203.438" gradientUnits="userSpaceOnUse">
<stop stop-color="#4D597C"/>
<stop offset="1" stop-color="#3F4861"/>
</linearGradient>
<linearGradient id="paint26_linear_59_99" x1="416.096" y1="208.132" x2="413.596" y2="222.132" gradientUnits="userSpaceOnUse">
<stop stop-color="#4D597C"/>
<stop offset="1" stop-color="#3F4861"/>
</linearGradient>
<linearGradient id="paint27_linear_59_99" x1="416.096" y1="208.132" x2="413.596" y2="222.132" gradientUnits="userSpaceOnUse">
<stop stop-color="#4D597C"/>
<stop offset="1" stop-color="#3F4861"/>
</linearGradient>
<linearGradient id="paint28_linear_59_99" x1="424.096" y1="227.132" x2="421.596" y2="241.132" gradientUnits="userSpaceOnUse">
<stop stop-color="#4D597C"/>
<stop offset="1" stop-color="#3F4861"/>
</linearGradient>
<linearGradient id="paint29_linear_59_99" x1="424.096" y1="227.132" x2="421.596" y2="241.132" gradientUnits="userSpaceOnUse">
<stop stop-color="#4D597C"/>
<stop offset="1" stop-color="#3F4861"/>
</linearGradient>
<linearGradient id="paint30_linear_59_99" x1="431.834" y1="246.37" x2="429.334" y2="260.37" gradientUnits="userSpaceOnUse">
<stop stop-color="#4D597C"/>
<stop offset="1" stop-color="#3F4861"/>
</linearGradient>
<linearGradient id="paint31_linear_59_99" x1="431.834" y1="246.37" x2="429.334" y2="260.37" gradientUnits="userSpaceOnUse">
<stop stop-color="#4D597C"/>
<stop offset="1" stop-color="#3F4861"/>
</linearGradient>
<clipPath id="clip0_59_99">
<rect width="529" height="296" fill="white"/>
</clipPath>
<clipPath id="clip1_59_99">
<rect width="86" height="146" fill="white" transform="translate(278 23)"/>
</clipPath>
</defs>
</svg>
