<svg width="529" height="296" viewBox="0 0 529 296" fill="none" xmlns="http://www.w3.org/2000/svg">
<g clip-path="url(#clip0_56_2)">
<path d="M529 0H0V296H529V0Z" fill="#6300FF"/>
<path d="M529 264.69L273.8 69.8L268.34 84.6L318.85 296H529V264.69Z" fill="#FBBF24"/>
<path d="M529 140.08L499.33 15.91L273.8 69.8L327.85 296H529V140.08Z" fill="#FDE68A"/>
<path d="M194.16 177.83L193.43 177.5C193.4 175.24 192.1 173.09 189.92 172.08L116.64 138.24L117.92 135.47C118.93 133.29 117.98 130.7 115.79 129.69L102.02 123.33C99.84 122.32 97.25 123.27 96.24 125.46L94.96 128.23L73.28 118.22C70.25 116.82 66.65 118.14 65.25 121.18L64.71 122.35C62.8 121.65 60.63 122.52 59.76 124.4L0 253.83V296H144.53L171.76 237.03C172.64 237.03 173.48 236.52 173.87 235.67L189.05 202.8C189.44 201.95 189.28 200.98 188.72 200.31L196.36 183.77C197.4 181.53 196.42 178.87 194.17 177.83H194.16Z" fill="#FF0000"/>
<path d="M194.16 177.83L193.43 177.5C193.4 175.24 192.1 173.09 189.92 172.08L170.99 163.34L109.74 296H144.53L171.76 237.03C172.64 237.03 173.48 236.52 173.87 235.67L189.05 202.8C189.44 201.95 189.28 200.98 188.72 200.31L196.36 183.77C197.4 181.53 196.42 178.87 194.17 177.83H194.16Z" fill="#F87171"/>
<path d="M190.33 172.13L73.07 117.99C70.12 116.63 66.61 117.92 65.25 120.87L0 262.19V288.43L73.1 130.12L181.09 179.98L127.52 296H139.64L193.22 179.95C194.58 177 193.28 173.49 190.34 172.13H190.33Z" fill="white"/>
<path d="M101.09 206.43L67.52 190.93C65.54 190.01 63.18 190.88 62.27 192.87L19.91 284.62C18.99 286.6 19.86 288.96 21.84 289.87L35.13 296H64.1L103.03 211.68C103.95 209.7 103.08 207.34 101.09 206.43Z" fill="#0D162F"/>
<path d="M293.53 161.8L278.28 97.97L270.28 102.13L293.54 161.8H293.53Z" fill="#FDE68A"/>
<path d="M505.429 41.4378L279.899 95.333L280.918 99.5931L506.447 45.6979L505.429 41.4378Z" fill="#FCD34D"/>
<path d="M287.02 125.12L512.55 71.23L513.06 73.36L287.53 127.25L287.02 125.12Z" fill="#FCD34D"/>
<path d="M319.56 261.29L529 211.24V213.49L320.06 263.42L319.55 261.29H319.56Z" fill="#FCD34D"/>
<path d="M303.29 193.21L528.82 139.32L529 140.08V141.52L303.8 195.34L303.29 193.21Z" fill="#FCD34D"/>
<path d="M475.5 296L529 283.21V285.46L484.91 296H475.5Z" fill="#FCD34D"/>
<path d="M295.15 159.17L520.68 105.28L521.19 107.41L295.66 161.3L295.15 159.17Z" fill="#FCD34D"/>
<path d="M327.69 295.33L529 247.22V249.47L334.32 295.99H327.85L327.69 295.32V295.33Z" fill="#FCD34D"/>
<path d="M311.42 227.25L529 175.26V177.51L311.93 229.38L311.42 227.25Z" fill="#FCD34D"/>
<path d="M291.08 142.14L516.61 88.24L517.12 90.37L291.59 144.26L291.08 142.13V142.14Z" fill="#FCD34D"/>
<path d="M323.62 278.31L529 229.23V231.48L324.13 280.44L323.62 278.31Z" fill="#FCD34D"/>
<path d="M307.35 210.23L529 157.26V159.51L307.86 212.36L307.35 210.23Z" fill="#FCD34D"/>
<path d="M299.22 176.19L524.75 122.3L525.26 124.43L299.73 178.32L299.22 176.19Z" fill="#FCD34D"/>
<path d="M400.2 296L529 265.22V267.47L409.61 296H400.2Z" fill="#FCD34D"/>
<path d="M315.49 244.27L529 193.25V195.5L316 246.4L315.49 244.27Z" fill="#FCD34D"/>
<path d="M343.23 104.66L334.96 106.54L331.86 109L329.46 106.49L327.32 109.16L324.95 108.82L319.92 110.84L317.55 110.5L312.52 112.52L307.11 112.88L300.58 114.37" stroke="#92400E" stroke-width="6" stroke-linecap="round" stroke-linejoin="round"/>
<path d="M421.56 121.68L399.78 126.96L391.01 130.84L385.72 129.05L379.34 132.79L373.41 133.35L359.85 137.51L353.92 138.07L340.36 142.23L326.4 144.73L309.2 148.9" stroke="#92400E" stroke-width="6" stroke-linecap="round" stroke-linejoin="round"/>
<path d="M313.92 166.3L335.72 161.11L344.5 157.26L349.78 159.07L356.17 155.36L362.1 154.82L375.67 150.71L381.6 150.17L395.17 146.06L409.14 143.61L426.35 139.51" stroke="#92400E" stroke-width="6" stroke-linecap="round" stroke-linejoin="round"/>
<path d="M317.79 182.7L331.81 179.36L337.32 176.3L340.96 178.5L344.89 175.37L348.78 175.32L357.44 172.38L361.33 172.33L369.99 169.39L379.04 168.11L390.11 165.47" stroke="#92400E" stroke-width="6" stroke-linecap="round" stroke-linejoin="round"/>
<path d="M375.9 97.04L372.32 97.85L371.19 99.86L369.77 97.12L369.11 99.46L367.98 98.84L365.91 100.19L364.78 99.57L362.71 100.92L360.26 100.6L357.44 101.24" stroke="#92400E" stroke-width="6" stroke-linecap="round" stroke-linejoin="round"/>
<path d="M361.66 254.98L373.89 240.14C375.08 238.69 377.23 238.49 378.68 239.68L394.41 252.65L377.85 272.74L362.12 259.77C360.67 258.58 360.47 256.43 361.66 254.98Z" fill="#3F4861"/>
<path d="M346.56 223.22L343.85 220.99C343.02 220.3 341.78 220.42 341.09 221.26L336.86 226.39C336.17 227.22 336.29 228.46 337.13 229.15L339.84 231.38C340.97 232.31 341.82 233.54 342.32 234.93L343.01 236.9C343.54 238.42 344.48 239.79 345.74 240.83L362.17 254.38L373.38 240.79L356.93 227.23C355.68 226.2 354.17 225.54 352.55 225.29L350.49 224.98C349.05 224.77 347.67 224.16 346.53 223.22H346.56Z" fill="#3F4861"/>
<path d="M336.99 226.24L340.98 221.41L328.53 215.22L336.99 226.25V226.24Z" fill="#0D162F"/>
<path d="M94.96 128.23L110.91 135.59L96.24 125.46L94.96 128.23Z" fill="#B91C1C"/>
<path d="M156.35 194.24L54.55 147.24L53.27 150.02L155.07 197.02L156.35 194.24Z" fill="white"/>
<path d="M188.71 200.31L185.53 198.84L189.86 197.81L188.71 200.3V200.31Z" fill="#DC2626"/>
<path d="M171.75 237.03L168.57 235.56L170.6 239.52L171.75 237.03Z" fill="#DC2626"/>
<path d="M105.42 251.62L104.77 265.94L102 264.66L94.43 281.05L90.37 279.18L97.93 262.79L95.41 261.62L105.41 251.61M106.92 248.18L93.07 262.04L96.13 263.45L88.57 279.84L95.09 282.85L102.66 266.46L106.03 268.02L106.92 248.18Z" fill="#FECACA"/>
<path d="M78.66 212.64C81.38 213.9 82.58 217.14 81.32 219.86C80.06 222.58 76.82 223.78 74.1 222.52C71.38 221.26 70.18 218.02 71.44 215.3C72.7 212.58 75.94 211.38 78.66 212.64ZM79.32 211.2C75.8 209.57 71.63 211.11 70 214.63C68.37 218.15 69.91 222.32 73.43 223.95C76.95 225.58 81.12 224.04 82.75 220.52C84.38 217 82.84 212.83 79.32 211.2Z" fill="#FEF2F2"/>
<path d="M74.99 220.66C76.68 221.44 78.69 220.7 79.47 219.01C80.25 217.32 79.51 215.31 77.82 214.53C76.13 213.75 74.12 214.49 73.34 216.18C72.56 217.87 73.3 219.88 74.99 220.66Z" fill="#FECACA"/>
<path d="M51 272.55C53.72 273.81 54.92 277.05 53.66 279.77C52.4 282.49 49.16 283.69 46.44 282.43C43.72 281.17 42.52 277.93 43.78 275.21C45.04 272.49 48.28 271.29 51 272.55ZM51.66 271.11C48.14 269.48 43.97 271.02 42.34 274.54C40.71 278.06 42.25 282.23 45.77 283.86C49.29 285.49 53.46 283.95 55.09 280.43C56.72 276.91 55.18 272.74 51.66 271.11Z" fill="#FEF2F2"/>
<path d="M47.33 280.57C49.02 281.35 51.03 280.61 51.81 278.92C52.59 277.23 51.85 275.22 50.16 274.44C48.47 273.66 46.46 274.4 45.68 276.09C44.9 277.78 45.64 279.79 47.33 280.57Z" fill="#FECACA"/>
<path d="M79.63 234.83L60.26 225.89C58.99 225.3 57.49 225.86 56.9 227.13L43.46 256.24C42.87 257.51 43.43 259.01 44.7 259.6L64.07 268.54C65.34 269.13 66.84 268.57 67.43 267.3L80.87 238.19C81.46 236.92 80.9 235.42 79.63 234.83Z" fill="#FEE2E2"/>
<path d="M59.77 232.12C60.41 232.42 61.18 232.14 61.48 231.49C61.78 230.85 61.5 230.08 60.85 229.78C60.2 229.48 59.44 229.76 59.14 230.41C58.84 231.06 59.12 231.82 59.77 232.12Z" fill="#7F1D1D"/>
<path d="M64.92 234.49C65.57 234.79 66.33 234.51 66.63 233.86C66.93 233.21 66.65 232.45 66 232.15C65.36 231.85 64.59 232.13 64.29 232.78C63.99 233.43 64.27 234.19 64.92 234.49Z" fill="#7F1D1D"/>
<path d="M70.07 236.87C70.72 237.17 71.48 236.89 71.78 236.24C72.08 235.59 71.8 234.83 71.15 234.53C70.5 234.23 69.74 234.51 69.44 235.16C69.14 235.81 69.42 236.57 70.07 236.87Z" fill="#7F1D1D"/>
<path d="M75.22 239.25C75.87 239.55 76.63 239.27 76.93 238.62C77.23 237.97 76.95 237.21 76.3 236.91C75.65 236.61 74.89 236.89 74.59 237.54C74.29 238.19 74.57 238.95 75.22 239.25Z" fill="#7F1D1D"/>
<path d="M60.81 237.78C61.46 238.08 62.22 237.8 62.52 237.15C62.82 236.5 62.54 235.74 61.89 235.44C61.25 235.14 60.48 235.42 60.18 236.07C59.88 236.72 60.16 237.48 60.81 237.78Z" fill="#7F1D1D"/>
<path d="M65.95 240.16C66.6 240.46 67.36 240.18 67.66 239.53C67.96 238.89 67.68 238.12 67.03 237.82C66.38 237.52 65.62 237.8 65.32 238.45C65.02 239.1 65.3 239.86 65.95 240.16Z" fill="#7F1D1D"/>
<path d="M71.11 242.54C71.76 242.84 72.52 242.56 72.82 241.91C73.12 241.26 72.84 240.5 72.19 240.2C71.54 239.9 70.78 240.18 70.48 240.83C70.18 241.48 70.46 242.24 71.11 242.54Z" fill="#7F1D1D"/>
<path d="M55.82 240.66C56.47 240.96 57.23 240.68 57.53 240.03C57.83 239.39 57.55 238.62 56.9 238.32C56.26 238.02 55.49 238.3 55.19 238.95C54.89 239.6 55.17 240.36 55.82 240.66Z" fill="#7F1D1D"/>
<path d="M60.97 243.04C61.62 243.34 62.38 243.06 62.68 242.41C62.98 241.76 62.7 241 62.05 240.7C61.41 240.4 60.64 240.68 60.34 241.33C60.04 241.98 60.32 242.74 60.97 243.04Z" fill="#7F1D1D"/>
<path d="M66.13 245.42C66.78 245.72 67.54 245.44 67.84 244.79C68.14 244.14 67.86 243.38 67.21 243.08C66.56 242.78 65.8 243.06 65.5 243.71C65.2 244.35 65.48 245.12 66.13 245.42Z" fill="#7F1D1D"/>
<path d="M71.28 247.8C71.93 248.1 72.69 247.82 72.99 247.17C73.29 246.53 73.01 245.76 72.36 245.46C71.71 245.16 70.95 245.44 70.65 246.09C70.35 246.74 70.63 247.5 71.28 247.8Z" fill="#7F1D1D"/>
<path d="M56.86 246.33C57.51 246.63 58.27 246.35 58.57 245.7C58.87 245.05 58.59 244.29 57.94 243.99C57.29 243.69 56.53 243.97 56.23 244.62C55.93 245.26 56.21 246.03 56.86 246.33Z" fill="#7F1D1D"/>
<path d="M62.01 248.71C62.66 249.01 63.42 248.73 63.72 248.08C64.02 247.44 63.74 246.67 63.09 246.37C62.44 246.07 61.68 246.35 61.38 247C61.08 247.65 61.36 248.41 62.01 248.71Z" fill="#7F1D1D"/>
<path d="M67.16 251.08C67.81 251.38 68.57 251.1 68.87 250.45C69.17 249.8 68.89 249.04 68.24 248.74C67.59 248.44 66.83 248.72 66.53 249.37C66.23 250.02 66.51 250.78 67.16 251.08Z" fill="#7F1D1D"/>
<path d="M51.88 249.21C52.53 249.51 53.29 249.23 53.59 248.58C53.89 247.93 53.61 247.17 52.96 246.87C52.31 246.57 51.55 246.85 51.25 247.5C50.95 248.15 51.23 248.91 51.88 249.21Z" fill="#7F1D1D"/>
<path d="M57.03 251.59C57.68 251.89 58.44 251.61 58.74 250.96C59.04 250.31 58.76 249.55 58.11 249.25C57.46 248.95 56.7 249.23 56.4 249.88C56.1 250.53 56.38 251.29 57.03 251.59Z" fill="#7F1D1D"/>
<path d="M62.18 253.97C62.82 254.27 63.59 253.99 63.89 253.34C64.19 252.7 63.91 251.93 63.26 251.63C62.61 251.33 61.85 251.61 61.55 252.26C61.25 252.91 61.53 253.67 62.18 253.97Z" fill="#7F1D1D"/>
<path d="M67.33 256.35C67.98 256.65 68.74 256.37 69.04 255.72C69.34 255.07 69.06 254.31 68.41 254.01C67.76 253.71 67 253.99 66.7 254.64C66.4 255.29 66.68 256.05 67.33 256.35Z" fill="#7F1D1D"/>
<path d="M47.93 257.76C48.58 258.06 49.34 257.78 49.64 257.13C49.94 256.48 49.66 255.72 49.01 255.42C48.36 255.12 47.6 255.4 47.3 256.05C47 256.7 47.28 257.46 47.93 257.76Z" fill="#7F1D1D"/>
<path d="M53.08 260.14C53.73 260.44 54.49 260.16 54.79 259.51C55.09 258.86 54.81 258.1 54.16 257.8C53.51 257.5 52.75 257.78 52.45 258.43C52.15 259.07 52.43 259.84 53.08 260.14Z" fill="#7F1D1D"/>
<path d="M58.23 262.52C58.88 262.82 59.64 262.54 59.94 261.89C60.24 261.24 59.96 260.48 59.31 260.18C58.67 259.88 57.9 260.16 57.6 260.81C57.3 261.46 57.58 262.22 58.23 262.52Z" fill="#7F1D1D"/>
<path d="M63.38 264.9C64.03 265.2 64.79 264.92 65.09 264.27C65.39 263.62 65.11 262.86 64.46 262.56C63.82 262.26 63.05 262.54 62.75 263.19C62.45 263.84 62.73 264.6 63.38 264.9Z" fill="#7F1D1D"/>
<path d="M52.91 254.88C53.56 255.18 54.32 254.9 54.62 254.25C54.92 253.6 54.64 252.84 53.99 252.54C53.34 252.24 52.58 252.52 52.28 253.17C51.98 253.81 52.26 254.58 52.91 254.88Z" fill="#7F1D1D"/>
<path d="M58.06 257.25C58.7 257.55 59.47 257.27 59.77 256.62C60.07 255.98 59.79 255.21 59.14 254.91C58.49 254.61 57.73 254.89 57.43 255.54C57.13 256.19 57.41 256.95 58.06 257.25Z" fill="#7F1D1D"/>
<path d="M63.21 259.63C63.85 259.93 64.62 259.65 64.92 259C65.22 258.35 64.94 257.59 64.29 257.29C63.64 256.99 62.88 257.27 62.58 257.92C62.28 258.57 62.56 259.33 63.21 259.63Z" fill="#7F1D1D"/>
<path d="M248.534 255.548L240 270L231.452 255.548L217 247L231.452 238.466L240 224L248.534 238.466L263 247L248.534 255.548Z" fill="white"/>
<path d="M114.803 70.4014L103.401 59L92 70.4014L103.401 81.8028L114.803 70.4014Z" fill="white"/>
<path d="M252.599 30.7993L242.799 21L233 30.7993L242.799 40.5986L252.599 30.7993Z" fill="white"/>
<path d="M7.14 179.6C4.84 181.51 2.46 183.26 0 184.89V189.64C3.38 187.55 6.62 185.23 9.69 182.68C24.51 170.38 35.29 153.21 40.88 133.03C45.45 116.53 46.23 98.93 43.3 82.07C44.07 81.02 44.81 79.95 45.52 78.86C62.13 53.17 57.08 20.63 52.27 0H48.16C52.88 19.95 58.13 51.89 42.2 76.6C41.31 72.66 40.22 68.76 38.92 64.95C31.55 43.3 18.14 25.53 0 13.19V18.07C16.28 29.84 28.36 46.33 35.14 66.24C36.79 71.07 38.09 76.03 39.04 81.05C30.26 92.32 17.19 101.07 0 107.23V111.47C17.15 105.52 30.51 97.11 39.91 86.28C42.06 101.48 41.11 117.17 37.02 131.95C31.65 151.34 21.32 167.81 7.13 179.59L7.14 179.6Z" fill="black"/>
<path d="M157.48 26.7C169.81 52.7 164.85 87.97 156.53 103.42L160.05 105.32C168.44 89.73 174.58 53.42 161.09 24.99C156.11 14.47 148.98 6.13 139.81 0H131.91C143.27 5.9 151.84 14.82 157.48 26.7Z" fill="black"/>
<path d="M156.19 128.59L158.89 122.75L157.48 122.1L165.3 99.34L157.85 96.06L146.02 116.81L144.6 116.15L141.9 121.99L143.32 122.65L142.94 123.48L141.52 122.82L134.19 138.7L135.61 139.36L132.7 145.65L144.16 150.94L147.07 144.65L148.48 145.3L155.81 129.42L154.4 128.77L154.78 127.94L156.19 128.59Z" fill="url(#paint0_linear_56_2)"/>
<path d="M107.81 296H111.67L171.76 165.84L168.59 164.37L107.81 296Z" fill="white"/>
<path d="M320.39 283.59L319.99 296H323.35L320.39 283.59Z" fill="#FDE68A"/>
<path d="M392.26 250.88C384.02 254.78 377.95 262.14 375.7 270.97L406.06 296.01H446.98L392.26 250.89V250.88Z" fill="#6366F1"/>
</g>
<defs>
<linearGradient id="paint0_linear_56_2" x1="142.12" y1="118.57" x2="160.93" y2="129.32" gradientUnits="userSpaceOnUse">
<stop stop-color="#160204"/>
<stop offset="1" stop-color="#1C398B"/>
</linearGradient>
<clipPath id="clip0_56_2">
<rect width="529" height="296" fill="white"/>
</clipPath>
</defs>
</svg>
