<svg width="529" height="296" viewBox="0 0 529 296" fill="none" xmlns="http://www.w3.org/2000/svg">
<g clip-path="url(#clip0_66_53)">
<rect width="529" height="296" fill="white"/>
<path d="M529 0H0V296H529V0Z" fill="#002694"/>
<g clip-path="url(#clip1_66_53)">
<path d="M314.8 102.58C310.74 98.03 284.93 114.46 257.16 139.28C229.39 164.09 210.17 187.89 214.23 192.44" stroke="white" stroke-width="5" stroke-miterlimit="10"/>
<path d="M325.03 127.33H284.69V87H244.34V127.33H204V167.69H244.34V208.02H284.69V167.69H325.03V127.33Z" fill="url(#paint0_angular_66_53)"/>
<path d="M322.5 129.658H282.336V89.5H246.664V129.658H206.5V165.342H246.664V205.5H282.336V165.342H322.5V129.658Z" fill="#00FFE3"/>
<path d="M214.23 192.44C218.29 196.99 244.1 180.56 271.87 155.74C299.64 130.93 318.86 107.13 314.8 102.58" stroke="white" stroke-width="5" stroke-miterlimit="10"/>
<path d="M301.28 133.33C304.826 133.33 307.7 130.456 307.7 126.91C307.7 123.364 304.826 120.49 301.28 120.49C297.734 120.49 294.86 123.364 294.86 126.91C294.86 130.456 297.734 133.33 301.28 133.33Z" fill="#FF00A4" stroke="white" stroke-width="5" stroke-miterlimit="10"/>
<path d="M555.82 530.64C661.759 530.64 747.64 444.759 747.64 338.82C747.64 232.881 661.759 147 555.82 147C449.881 147 364 232.881 364 338.82C364 444.759 449.881 530.64 555.82 530.64Z" fill="#001A67"/>
<path d="M65.4999 104.74C121.761 104.74 167.37 59.1313 167.37 2.87C167.37 -53.3912 121.761 -99 65.4999 -99C9.23864 -99 -36.3701 -53.3912 -36.3701 2.87C-36.3701 59.1313 9.23864 104.74 65.4999 104.74Z" fill="#001A67"/>
<path d="M94.9073 74.5544C163.717 44.5923 206.713 -9.05908 190.941 -45.2792C175.17 -81.4994 106.603 -86.5725 37.7935 -56.6103C-31.0161 -26.6482 -74.012 27.0032 -58.2405 63.2233C-42.469 99.4434 26.0976 104.517 94.9073 74.5544Z" stroke="#002694" stroke-width="5" stroke-miterlimit="10"/>
<path d="M114.534 216.548L106 231L97.4517 216.548L83 208L97.4517 199.466L106 185L114.534 199.466L129 208L114.534 216.548Z" fill="white"/>
<path d="M471.599 104.799L461.799 95L452 104.799L461.799 114.599L471.599 104.799Z" fill="white"/>
<path d="M363.599 35.7993L353.799 26L344 35.7993L353.799 45.5986L363.599 35.7993Z" fill="white"/>
</g>
</g>
<defs>
<radialGradient id="paint0_angular_66_53" cx="0" cy="0" r="1" gradientUnits="userSpaceOnUse" gradientTransform="translate(241.5 124.5) rotate(179.727) scale(105.001 105.01)">
<stop offset="0.092855" stop-color="#14B8A6"/>
<stop offset="0.225481" stop-color="#00FFE3"/>
</radialGradient>
<clipPath id="clip0_66_53">
<rect width="529" height="296" fill="white"/>
</clipPath>
<clipPath id="clip1_66_53">
<rect width="783.39" height="623.2" fill="white" transform="translate(-64 -99)"/>
</clipPath>
</defs>
</svg>
