<svg width="529" height="296" viewBox="0 0 529 296" fill="none" xmlns="http://www.w3.org/2000/svg">
<g clip-path="url(#clip0_75_365)">
<rect width="529" height="296" fill="black"/>
<path d="M376.622 132.97C376.605 122.885 326.668 114.938 265.092 115.23C203.527 115.51 153.635 123.911 153.652 133.996" stroke="white" stroke-width="5" stroke-miterlimit="10"/>
<mask id="path-2-inside-1_75_365" fill="white">
<path fill-rule="evenodd" clip-rule="evenodd" d="M204.52 153.867C188.079 137.426 188.079 110.771 204.52 94.3305C220.961 77.8897 247.617 77.8898 264.057 94.3309L264.692 94.9659L265.327 94.3309C281.768 77.8898 308.424 77.8897 324.865 94.3305C341.305 110.771 341.305 137.426 324.865 153.867L324.227 154.505L324.227 154.505L264.691 214.04L205.154 154.503L205.155 154.502L204.52 153.867Z"/>
</mask>
<path fill-rule="evenodd" clip-rule="evenodd" d="M204.52 153.867C188.079 137.426 188.079 110.771 204.52 94.3305C220.961 77.8897 247.617 77.8898 264.057 94.3309L264.692 94.9659L265.327 94.3309C281.768 77.8898 308.424 77.8897 324.865 94.3305C341.305 110.771 341.305 137.426 324.865 153.867L324.227 154.505L324.227 154.505L264.691 214.04L205.154 154.503L205.155 154.502L204.52 153.867Z" fill="url(#paint0_radial_75_365)"/>
<path d="M204.52 94.3305L210.177 99.9874L210.177 99.9874L204.52 94.3305ZM204.52 153.867L210.177 148.21L210.177 148.21L204.52 153.867ZM264.057 94.3309L269.714 88.6741L269.714 88.6741L264.057 94.3309ZM264.692 94.9659L259.035 100.623L264.692 106.28L270.349 100.623L264.692 94.9659ZM265.327 94.3309L259.67 88.6741L259.67 88.6741L265.327 94.3309ZM324.865 94.3305L330.522 88.6737L330.522 88.6737L324.865 94.3305ZM324.865 153.867L330.522 159.524L330.522 159.524L324.865 153.867ZM324.227 154.505L318.52 160.112L324.177 165.869L329.884 160.162L324.227 154.505ZM324.227 154.505L329.933 148.898L324.277 143.141L318.57 148.848L324.227 154.505ZM264.691 214.04L259.034 219.697L264.691 225.354L270.348 219.697L264.691 214.04ZM205.154 154.503L199.51 148.833L193.827 154.49L199.497 160.16L205.154 154.503ZM205.155 154.502L210.799 160.172L216.482 154.516L210.812 148.846L205.155 154.502ZM198.863 88.6737C179.298 108.238 179.298 139.959 198.863 159.524L210.177 148.21C196.86 134.894 196.86 113.304 210.177 99.9874L198.863 88.6737ZM269.714 88.6741C250.15 69.1088 218.428 69.1086 198.863 88.6737L210.177 99.9874C223.493 86.6708 245.084 86.6709 258.4 99.9877L269.714 88.6741ZM270.349 89.3091L269.714 88.6741L258.4 99.9877L259.035 100.623L270.349 89.3091ZM259.67 88.6741L259.035 89.3091L270.349 100.623L270.984 99.9877L259.67 88.6741ZM330.522 88.6737C310.957 69.1086 279.235 69.1088 259.67 88.6741L270.984 99.9877C284.301 86.6709 305.891 86.6708 319.208 99.9874L330.522 88.6737ZM330.522 159.524C350.087 139.959 350.086 108.238 330.522 88.6737L319.208 99.9874C332.524 113.304 332.524 134.894 319.208 148.21L330.522 159.524ZM329.884 160.162L330.522 159.524L319.208 148.21L318.57 148.848L329.884 160.162ZM318.52 160.111L318.52 160.112L329.934 148.899L329.933 148.898L318.52 160.111ZM270.348 219.697L329.884 160.162L318.57 148.848L259.034 208.384L270.348 219.697ZM199.497 160.16L259.034 219.697L270.348 208.384L210.811 148.846L199.497 160.16ZM199.511 148.833L199.51 148.833L210.798 160.173L210.799 160.172L199.511 148.833ZM198.863 159.524L199.498 160.159L210.812 148.846L210.177 148.21L198.863 159.524Z" fill="url(#paint1_linear_75_365)" mask="url(#path-2-inside-1_75_365)"/>
<path d="M79.6485 118.51L82.4652 127.62C84.5679 134.319 87.9998 140.525 92.5559 145.868C98.6012 153.3 103.568 161.548 107.308 170.367C107.623 171.092 108.095 171.738 108.691 172.256C109.287 172.775 109.992 173.154 110.753 173.365C111.515 173.576 112.314 173.613 113.092 173.475C113.87 173.337 114.607 173.026 115.249 172.566C116.171 171.903 116.853 170.959 117.195 169.877C117.537 168.794 117.52 167.63 117.147 166.557C114.551 159.031 108.221 141.815 101.582 130.977L95.6062 96.347L79.6485 118.51Z" fill="#A47D6C"/>
<path d="M86.9267 107.505L89.7433 116.615C91.846 123.314 95.2781 129.521 99.8341 134.863C105.879 142.295 110.846 150.543 114.587 159.363C114.9 160.085 115.371 160.728 115.965 161.246C116.559 161.763 117.261 162.142 118.02 162.354C118.779 162.565 119.575 162.605 120.351 162.47C121.127 162.335 121.864 162.028 122.506 161.573V161.573C123.431 160.909 124.117 159.965 124.462 158.88C124.808 157.796 124.795 156.629 124.425 155.553C121.807 148.037 115.499 130.81 108.871 119.994L102.874 85.3743L86.9267 107.505Z" fill="#A47D6C"/>
<path d="M100.37 44.2888C94.7997 51.75 89.8588 59.6613 85.5986 67.9408L56.3111 124.86C56.0947 125.504 55.919 126.16 55.7852 126.826L49.3793 159.732C49.2349 160.486 49.2409 161.261 49.3971 162.012C49.5533 162.764 49.8565 163.477 50.2893 164.111C50.7221 164.744 51.276 165.286 51.919 165.705C52.562 166.124 53.2817 166.412 54.0363 166.552C55.4819 166.81 56.9717 166.512 58.2072 165.719C59.4428 164.925 60.3327 163.693 60.6985 162.271L66.4109 139.872C68.0508 133.462 71.2756 127.566 75.7888 122.728L93.9809 103.188C94.71 102.389 95.6504 101.814 96.6931 101.528C97.7357 101.242 98.838 101.256 99.8725 101.571C100.907 101.885 101.831 102.486 102.539 103.303C103.246 104.121 103.707 105.122 103.869 106.191L108.703 133.977C108.93 135.275 109.449 136.505 110.221 137.574C110.992 138.643 111.996 139.523 113.156 140.148C114.317 140.773 115.604 141.127 116.921 141.183C118.238 141.239 119.55 140.996 120.76 140.472C122.269 139.803 123.558 138.723 124.48 137.354C125.402 135.986 125.919 134.385 125.972 132.735L125.16 117.856C124.869 112.531 125.86 107.213 128.048 102.35V102.35C132.222 93.0756 132.15 82.4439 127.852 73.2269L126.64 70.6295L197.5 -7.5L186.827 -71.5144L100.37 44.2888Z" fill="#A47D6C"/>
<path d="M79.647 118.511L93.7239 102.967C97.3249 98.9655 105.568 101.288 106.138 106.65L107.28 117.481L100.028 120.762L98.0614 111L82.3676 127.643L79.647 118.511Z" fill="#624439"/>
<path d="M114.585 159.363C114.585 159.363 106.32 137.432 101.539 131.053C100.645 122.752 99.1263 114.531 96.9962 106.458" stroke="#624439" stroke-width="3.0675" stroke-miterlimit="10" stroke-linecap="round"/>
<path d="M118.938 140.921C118.938 140.921 111.89 142.087 109.266 136.082C106.643 130.078 104.897 109.621 104.897 109.621" stroke="#624439" stroke-width="3.0675" stroke-miterlimit="10" stroke-linecap="round"/>
<path d="M442.903 177.399L440.087 168.289C437.984 161.59 434.552 155.384 429.996 150.041C423.951 142.61 418.984 134.362 415.243 125.542C414.929 124.817 414.457 124.172 413.861 123.653C413.265 123.134 412.56 122.756 411.799 122.545C411.037 122.334 410.238 122.296 409.46 122.434C408.682 122.572 407.945 122.883 407.303 123.343C406.381 124.006 405.699 124.95 405.357 126.033C405.015 127.115 405.031 128.28 405.405 129.352C408.001 136.879 414.331 154.094 420.969 164.932L426.946 199.562L442.903 177.399Z" fill="#FFEEE7"/>
<path d="M435.625 188.404L432.808 179.294C430.706 172.595 427.274 166.389 422.718 161.046C416.672 153.614 411.706 145.366 407.965 136.547C407.651 135.824 407.18 135.181 406.587 134.663C405.993 134.146 405.291 133.767 404.532 133.556C403.773 133.344 402.976 133.304 402.2 133.439C401.424 133.574 400.688 133.881 400.046 134.337V134.337C399.121 135.001 398.435 135.945 398.09 137.029C397.744 138.113 397.757 139.28 398.126 140.357C400.744 147.872 407.053 165.099 413.68 175.916L419.678 210.535L435.625 188.404Z" fill="#FFEEE7"/>
<path d="M424.038 250.67C430.663 241.911 436.414 232.524 441.209 222.643L466.241 171.049C466.457 170.406 466.633 169.749 466.767 169.083L473.172 136.177C473.317 135.423 473.311 134.649 473.155 133.897C472.998 133.146 472.695 132.433 472.262 131.799C471.83 131.165 471.276 130.623 470.633 130.204C469.99 129.785 469.27 129.498 468.515 129.358C467.07 129.099 465.58 129.397 464.345 130.191C463.109 130.985 462.219 132.216 461.853 133.638L456.141 156.037C454.501 162.448 451.276 168.343 446.763 173.182L428.571 192.722C427.842 193.52 426.901 194.095 425.859 194.382C424.816 194.668 423.714 194.653 422.679 194.339C421.645 194.024 420.72 193.424 420.013 192.606C419.306 191.788 418.844 190.787 418.682 189.718L413.849 161.933C413.622 160.634 413.103 159.404 412.331 158.336C411.56 157.267 410.556 156.387 409.396 155.761C408.235 155.136 406.948 154.782 405.631 154.726C404.314 154.67 403.001 154.913 401.792 155.438C400.283 156.106 398.994 157.187 398.072 158.555C397.15 159.924 396.633 161.525 396.58 163.174L397.392 178.053C397.683 183.379 396.692 188.696 394.503 193.56V193.56C390.33 202.834 390.402 213.466 394.7 222.682L395.911 225.28L312 310L335.725 367.424L424.038 250.67Z" fill="#FFEEE7"/>
<path d="M442.905 177.398L428.828 192.942C425.227 196.944 416.984 194.621 416.414 189.259L415.272 178.428L422.524 175.147L424.49 184.909L440.184 168.266L442.905 177.398Z" fill="#D29073"/>
<path d="M407.967 136.546C407.967 136.546 416.232 158.478 421.013 164.856C421.907 173.157 423.425 181.379 425.556 189.451" stroke="#D29073" stroke-width="3.0675" stroke-miterlimit="10" stroke-linecap="round"/>
<path d="M403.613 154.989C403.613 154.989 410.662 153.822 413.285 159.827C415.909 165.832 417.655 186.288 417.655 186.288" stroke="#D29073" stroke-width="3.0675" stroke-miterlimit="10" stroke-linecap="round"/>
<path d="M153.899 133.877C153.916 143.961 203.854 151.909 265.43 151.616C326.995 151.336 376.887 142.935 376.869 132.851" stroke="white" stroke-width="5" stroke-miterlimit="10"/>
<path d="M325.723 157.021C329.996 160.943 336.638 160.658 340.559 156.386C344.48 152.114 344.196 145.472 339.924 141.551C335.652 137.629 329.01 137.914 325.088 142.186C321.167 146.458 321.451 153.1 325.723 157.021Z" fill="#9E00FF" stroke="white" stroke-width="5" stroke-miterlimit="10"/>
</g>
<defs>
<radialGradient id="paint0_radial_75_365" cx="0" cy="0" r="1" gradientUnits="userSpaceOnUse" gradientTransform="translate(265 93) rotate(66.9087) scale(70.1178 77.0028)">
<stop stop-color="#FFAEAE"/>
<stop offset="1" stop-color="#FF4F8E"/>
</radialGradient>
<linearGradient id="paint1_linear_75_365" x1="264.692" y1="50" x2="264.692" y2="214.04" gradientUnits="userSpaceOnUse">
<stop stop-color="#FF4F8F"/>
<stop offset="0.566113" stop-color="#FF4F8F" stop-opacity="0"/>
</linearGradient>
<clipPath id="clip0_75_365">
<rect width="529" height="296" fill="white"/>
</clipPath>
</defs>
</svg>
