<svg width="529" height="296" viewBox="0 0 529 296" fill="none" xmlns="http://www.w3.org/2000/svg">
<g clip-path="url(#clip0_64_270)">
<rect width="529" height="296" fill="white"/>
<path d="M529 0H0V296H529V0Z" fill="#14B8A6"/>
<g clip-path="url(#clip1_64_270)">
<path d="M216.887 297.956H-43.6055V-2.18317H280.788L216.887 297.956Z" fill="#313A53"/>
<path d="M291.708 -2.18317H280.788L216.887 297.956H228L291.708 -2.18317Z" fill="#0D162F"/>
<path d="M277.842 20.3352L92.0144 -22.0884L90.9379 -17.3731L276.765 25.0506L277.842 20.3352Z" fill="#0D162F"/>
<path d="M265.535 74.2432L79.7075 31.8195L78.631 36.5349L264.458 78.9585L265.535 74.2432Z" fill="#0D162F"/>
<path d="M255.07 125.901L69.2422 83.477L68.1657 88.1924L253.993 130.616L255.07 125.901Z" fill="#0D162F"/>
<path d="M245.643 178.695L59.8159 136.271L58.7394 140.987L244.567 183.41L245.643 178.695Z" fill="#0D162F"/>
<path d="M232.657 230.032L46.8296 187.608L45.7531 192.324L231.58 234.747L232.657 230.032Z" fill="#0D162F"/>
<path d="M224.791 277.656L38.9634 235.232L37.8869 239.947L223.714 282.371L224.791 277.656Z" fill="#0D162F"/>
<path d="M10.3587 -18.8834L-62.1917 -22.0977L-67.9714 211.169L170.081 187.117L10.3587 -18.8834Z" fill="#0D162F"/>
<path d="M219.472 -29.2607L-7.15283 -80.9982L-56.5523 135.385L170.072 187.123L219.472 -29.2607Z" fill="#F59E0B"/>
<path d="M121.052 -51.7296L91.2671 -58.5294L41.8676 157.854L71.6526 164.654L121.052 -51.7296Z" fill="#D97706"/>
<path d="M170.07 187.113L170.716 184.286L-55.9092 132.548L-56.5547 135.375L170.07 187.113Z" fill="#D97706"/>
<path d="M107.568 -54.8079L104.741 -55.4533L55.3415 160.93L58.1688 161.576L107.568 -54.8079Z" fill="#B45309"/>
<path d="M158.431 128.955L157.488 126.076C156.757 123.835 154.354 122.618 152.113 123.348L149.933 124.058" stroke="#EF4444" stroke-width="1.01398" stroke-miterlimit="10" stroke-linecap="round"/>
<path d="M136.488 128.448L133.71 129.351C131.469 130.081 130.252 132.484 130.982 134.725L131.925 137.605" stroke="#EF4444" stroke-width="1.01398" stroke-miterlimit="10" stroke-linecap="round"/>
<path d="M133.963 143.871L134.906 146.751C135.636 148.992 138.039 150.208 140.28 149.478L143.059 148.576" stroke="#EF4444" stroke-width="1.01398" stroke-miterlimit="10" stroke-linecap="round"/>
<path d="M156.504 144.185L158.684 143.475C160.925 142.745 162.142 140.342 161.412 138.101L160.469 135.222" stroke="#EF4444" stroke-width="1.01398" stroke-miterlimit="10" stroke-linecap="round"/>
<path d="M141.891 131.185C141.627 130.376 140.757 129.934 139.948 130.198C139.139 130.463 138.697 131.333 138.961 132.142L142.78 143.834C143.045 144.643 143.915 145.084 144.724 144.82C145.533 144.556 145.975 143.686 145.711 142.876L141.891 131.185Z" fill="#EF4444"/>
<path d="M148.473 129.035C148.209 128.226 147.339 127.784 146.53 128.048C145.72 128.312 145.279 129.183 145.543 129.992L149.362 141.683C149.626 142.493 150.497 142.934 151.306 142.67C152.115 142.406 152.557 141.535 152.292 140.726L148.473 129.035Z" fill="#EF4444"/>
<path d="M150.746 127.444C150.621 127.061 150.209 126.851 149.825 126.977C149.442 127.102 149.233 127.514 149.358 127.897L153.681 141.131C153.806 141.514 154.218 141.724 154.602 141.598C154.985 141.473 155.194 141.061 155.069 140.678L150.746 127.444Z" fill="#EF4444"/>
<path d="M144.155 129.597C144.029 129.214 143.617 129.005 143.234 129.13C142.851 129.255 142.642 129.667 142.767 130.05L147.09 143.284C147.215 143.668 147.627 143.877 148.01 143.752C148.394 143.626 148.603 143.214 148.478 142.831L144.155 129.597Z" fill="#EF4444"/>
<path d="M137.573 131.747C137.448 131.364 137.036 131.155 136.652 131.28C136.269 131.405 136.06 131.817 136.185 132.201L140.508 145.434C140.633 145.818 141.045 146.027 141.429 145.902C141.812 145.776 142.021 145.364 141.896 144.981L137.573 131.747Z" fill="#EF4444"/>
<path d="M135.053 132.562C134.928 132.178 134.515 131.969 134.132 132.094C133.749 132.219 133.54 132.632 133.665 133.015L137.988 146.249C138.113 146.632 138.525 146.841 138.909 146.716C139.292 146.591 139.501 146.179 139.376 145.795L135.053 132.562Z" fill="#EF4444"/>
<path d="M155.061 126.882C154.797 126.073 153.927 125.631 153.118 125.895C152.309 126.16 151.867 127.03 152.131 127.839L155.95 139.531C156.215 140.34 157.085 140.782 157.894 140.517C158.703 140.253 159.145 139.383 158.88 138.574L155.061 126.882Z" fill="#EF4444"/>
<path d="M159 235.627L-67.6252 183.89L-117.025 400.273L109.6 452.011L159 235.627Z" fill="#F59E0B"/>
<path d="M60.5796 213.159L30.7947 206.359L-18.6048 422.742L11.1802 429.542L60.5796 213.159Z" fill="#D97706"/>
<path d="M158.361 238.434L159.007 235.607L-67.6182 183.869L-68.2637 186.697L158.361 238.434Z" fill="#D97706"/>
<path d="M47.0958 210.08L44.2686 209.435L-5.13091 425.818L-2.30366 426.464L47.0958 210.08Z" fill="#B45309"/>
<path d="M139.246 296.343L140.737 293.707C141.893 291.659 141.173 289.063 139.125 287.897L137.127 286.771" stroke="#EF4444" stroke-width="1.01398" stroke-miterlimit="10" stroke-linecap="round"/>
<path d="M124.827 279.795L122.292 278.355C120.244 277.199 117.648 277.919 116.482 279.968L114.992 282.604" stroke="#EF4444" stroke-width="1.01398" stroke-miterlimit="10" stroke-linecap="round"/>
<path d="M111.747 288.323L110.256 290.959C109.1 293.007 109.82 295.603 111.868 296.769L114.403 298.209" stroke="#EF4444" stroke-width="1.01398" stroke-miterlimit="10" stroke-linecap="round"/>
<path d="M126.407 285.636C126.827 284.895 126.566 283.955 125.826 283.535C125.085 283.116 124.145 283.376 123.725 284.117L117.663 294.819C117.243 295.559 117.503 296.5 118.244 296.919C118.985 297.339 119.925 297.079 120.345 296.338L126.407 285.636Z" fill="#EF4444"/>
<path d="M132.437 289.053C132.857 288.313 132.597 287.372 131.856 286.952C131.115 286.533 130.175 286.793 129.755 287.534L123.693 298.236C123.273 298.976 123.534 299.917 124.274 300.336C125.015 300.756 125.956 300.496 126.375 299.755L132.437 289.053Z" fill="#EF4444"/>
<path d="M135.139 289.647C135.338 289.296 135.215 288.85 134.864 288.651C134.513 288.453 134.067 288.576 133.869 288.927L127.007 301.04C126.808 301.391 126.931 301.837 127.282 302.035C127.633 302.234 128.079 302.111 128.277 301.76L135.139 289.647Z" fill="#EF4444"/>
<path d="M129.114 286.238C129.312 285.887 129.189 285.442 128.838 285.243C128.488 285.044 128.042 285.168 127.843 285.519L120.981 297.632C120.783 297.983 120.906 298.428 121.257 298.627C121.608 298.826 122.053 298.703 122.252 298.352L129.114 286.238Z" fill="#EF4444"/>
<path d="M123.084 282.826C123.283 282.476 123.16 282.03 122.809 281.831C122.458 281.633 122.013 281.756 121.814 282.107L114.952 294.22C114.753 294.571 114.877 295.016 115.228 295.215C115.578 295.414 116.024 295.291 116.223 294.94L123.084 282.826Z" fill="#EF4444"/>
<path d="M120.775 281.512C120.973 281.161 120.85 280.716 120.499 280.517C120.148 280.318 119.703 280.442 119.504 280.792L112.642 292.906C112.444 293.257 112.567 293.702 112.918 293.901C113.269 294.1 113.714 293.976 113.913 293.626L120.775 281.512Z" fill="#EF4444"/>
<path d="M138.467 292.465C138.886 291.724 138.626 290.784 137.885 290.364C137.145 289.945 136.204 290.205 135.785 290.946L129.722 301.648C129.303 302.388 129.563 303.329 130.304 303.748C131.044 304.168 131.985 303.908 132.404 303.167L138.467 292.465Z" fill="#EF4444"/>
<path d="M319.208 -2.18317H291.708L227.919 297.956H255.418L319.208 -2.18317Z" fill="#6366F1"/>
</g>
<path d="M361.599 143.799L351.799 134L342 143.799L351.799 153.599L361.599 143.799Z" fill="white"/>
<path d="M431.599 72.7993L421.799 63L412 72.7993L421.799 82.5986L431.599 72.7993Z" fill="white"/>
<path d="M453.534 223.548L445 238L436.452 223.548L422 215L436.452 206.466L445 192L453.534 206.466L468 215L453.534 223.548Z" fill="white"/>
</g>
<defs>
<clipPath id="clip0_64_270">
<rect width="529" height="296" fill="white"/>
</clipPath>
<clipPath id="clip1_64_270">
<rect width="436.215" height="533" fill="white" transform="translate(-117.008 -81)"/>
</clipPath>
</defs>
</svg>
