<svg width="529" height="296" viewBox="0 0 529 296" fill="none" xmlns="http://www.w3.org/2000/svg">
<g clip-path="url(#clip0_69_222)">
<rect width="529" height="296" fill="white"/>
<path d="M529 0H0V296H529V0Z" fill="#FFFBEB"/>
<path d="M261.5 73C274.479 73 285 62.4787 285 49.5C285 36.5213 274.479 26 261.5 26C248.521 26 238 36.5213 238 49.5C238 62.4787 248.521 73 261.5 73Z" fill="white" stroke="#6100FF" stroke-width="5" stroke-miterlimit="10"/>
<path d="M248.403 50.6831C248.218 50.4339 248.052 50.2046 247.908 50C248.052 49.7954 248.218 49.5661 248.403 49.3169C249.197 48.2462 250.343 46.8247 251.75 45.4109C254.651 42.4967 258.28 40 262 40C265.72 40 269.349 42.4967 272.25 45.4109C273.657 46.8247 274.803 48.2462 275.597 49.3169C275.782 49.5661 275.948 49.7954 276.092 50C275.948 50.2046 275.782 50.4339 275.597 50.6831C274.803 51.7538 273.657 53.1753 272.25 54.5891C269.349 57.5033 265.72 60 262 60C258.28 60 254.651 57.5033 251.75 54.5891C250.343 53.1753 249.197 51.7538 248.403 50.6831Z" stroke="#6100FF" stroke-width="4"/>
<circle cx="262" cy="50" r="6" fill="#6100FF" stroke="#6100FF" stroke-width="4"/>
<path d="M278.5 214C295.345 214 309 200.345 309 183.5C309 166.655 295.345 153 278.5 153C261.655 153 248 166.655 248 183.5C248 200.345 261.655 214 278.5 214Z" fill="white" stroke="#6100FF" stroke-width="6.48936" stroke-miterlimit="10"/>
<path fill-rule="evenodd" clip-rule="evenodd" d="M262.987 187.102C258.749 182.864 258.749 175.992 262.987 171.753C267.226 167.515 274.098 167.515 278.336 171.753L278.5 171.917L278.5 171.917L278.501 171.917L278.665 171.753C282.903 167.515 289.775 167.515 294.013 171.753C298.252 175.992 298.252 182.864 294.014 187.102L293.849 187.266L293.849 187.266L278.5 202.615L263.152 187.266L263.152 187.266L262.987 187.102Z" fill="#6100FF"/>
<path d="M441 172C455.912 172 468 159.912 468 145C468 130.088 455.912 118 441 118C426.088 118 414 130.088 414 145C414 159.912 426.088 172 441 172Z" fill="white" stroke="#6100FF" stroke-width="5.74468" stroke-miterlimit="10"/>
<path d="M454.787 136.957V149.596L447.85 154.085C445.994 155.285 444.472 156.935 443.424 158.881L441.732 162.023C441.281 162.861 440.407 163.383 439.456 163.383C437.858 163.383 436.643 161.949 436.906 160.373L438.128 153.043L429.528 152.261C427.411 152.068 425.972 150.025 426.503 147.967L428.973 138.394C429.628 135.858 431.916 134.085 434.535 134.085H439.318C444.607 134.085 449.851 135.059 454.787 136.957Z" fill="#6100FF"/>
<path d="M343 139C360.673 139 375 124.673 375 107C375 89.3269 360.673 75 343 75C325.327 75 311 89.3269 311 107C311 124.673 325.327 139 343 139Z" fill="white" stroke="#6100FF" stroke-width="6.80851" stroke-miterlimit="10"/>
<path d="M335.511 117.894H350.489V122.66C350.489 126.796 347.136 130.149 343 130.149C338.864 130.149 335.511 126.796 335.511 122.66V117.894Z" fill="#6100FF"/>
<path d="M338.234 121.979V118.132C338.234 114.795 336.883 111.6 334.489 109.275V109.275C332.095 106.95 330.745 103.755 330.745 100.418V99.5106C330.745 92.7422 336.232 87.2553 343 87.2553V87.2553C349.768 87.2553 355.255 92.7422 355.255 99.5106V100.418C355.255 103.755 353.904 106.95 351.511 109.275V109.275C349.117 111.6 347.766 114.795 347.766 118.132V121.979" stroke="#6100FF" stroke-width="5.44681"/>
<path d="M476.5 83C496.106 83 512 67.1061 512 47.5C512 27.8939 496.106 12 476.5 12C456.894 12 441 27.8939 441 47.5C441 67.1061 456.894 83 476.5 83Z" fill="white" stroke="#6100FF" stroke-width="7.55319" stroke-miterlimit="10"/>
<path d="M495.383 47.5L464.792 65.1614L464.792 29.8386L495.383 47.5Z" fill="#6100FF"/>
<path d="M369.5 41C382.479 41 393 30.4787 393 17.5C393 4.52131 382.479 -6 369.5 -6C356.521 -6 346 4.52131 346 17.5C346 30.4787 356.521 41 369.5 41Z" fill="white" stroke="#6100FF" stroke-width="5" stroke-miterlimit="10"/>
<path d="M357 27V16L363.038 12.0931C364.653 11.048 365.978 9.6119 366.89 7.91806L368.363 5.18329C368.755 4.45448 369.516 4 370.344 4C371.734 4 372.792 5.24847 372.563 6.61993L371.5 13L378.985 13.6804C380.827 13.8479 382.08 15.6266 381.618 17.4177L379.468 25.7494C378.898 27.9573 376.907 29.5 374.627 29.5H370.464C365.861 29.5 361.297 28.6525 357 27Z" fill="#6100FF"/>
<path fill-rule="evenodd" clip-rule="evenodd" d="M289.515 0L199 89L266.5 210.5L529 141.717V296H0V0H289.515Z" fill="#31014F"/>
<rect x="190.986" y="86.9426" width="8" height="150" rx="4" transform="rotate(-29.5266 190.986 86.9426)" fill="#2DD4BF"/>
<path d="M97.3914 183.448L193.943 92.1634L261.953 212.241L134.012 248.105L97.3914 183.448Z" fill="#CCFBF1"/>
<path d="M60.0116 235.139C53.795 224.163 57.1359 210.248 67.658 203.292L97.4674 183.582L133.937 247.972L101.704 263.402C90.3263 268.849 76.6742 264.558 70.4577 253.583L60.0116 235.139Z" fill="#2DD4BF"/>
<path d="M154.703 327.121L96.9292 259.738L133.937 247.972L139.994 259.059C141.193 261.253 143.119 262.96 145.441 263.886L147.773 264.817C150.321 265.833 152.026 268.262 152.115 271.004C152.204 273.746 153.908 276.175 156.456 277.192L158.25 277.907C160.833 278.938 162.738 281.183 163.335 283.899C163.931 286.616 165.836 288.861 168.42 289.892L169.545 290.341C172.55 291.539 174.678 294.263 175.114 297.469L175.156 297.77C175.625 301.222 178.148 304.041 181.526 304.89C183.787 305.459 185.717 306.929 186.867 308.958L187.505 310.085C190.65 315.637 188.698 322.687 183.146 325.832L158.263 339.925C157.305 340.468 156.124 340.434 155.198 339.837C153.904 339.003 153.465 337.315 154.188 335.956L155.422 333.639C156.546 331.526 156.261 328.939 154.703 327.121Z" fill="#2DD4BF"/>
<path d="M391.534 254.548L383 269L374.452 254.548L360 246L374.452 237.466L383 223L391.534 237.466L406 246L391.534 254.548Z" fill="white"/>
<path d="M154.599 39.7993L144.799 30L135 39.7993L144.799 49.5986L154.599 39.7993Z" fill="white"/>
<path d="M81.5986 117.799L71.7993 108L62 117.799L71.7993 127.599L81.5986 117.799Z" fill="white"/>
</g>
<defs>
<clipPath id="clip0_69_222">
<rect width="529" height="296" fill="white"/>
</clipPath>
</defs>
</svg>
