<svg width="529" height="296" viewBox="0 0 529 296" fill="none" xmlns="http://www.w3.org/2000/svg">
<g clip-path="url(#clip0_68_77)">
<rect width="529" height="296" fill="white"/>
<path d="M529 0H0V296H529V0Z" fill="#FFF500"/>
<path d="M321.357 43.89H48.1015C44.4328 43.89 41.4586 46.8624 41.4586 50.529L14 227.251C14 230.918 16.9741 233.89 20.6429 233.89L321.357 206.145C325.026 206.145 328 203.172 328 199.506V50.529C328 46.8624 325.026 43.89 321.357 43.89Z" fill="url(#paint0_radial_68_77)"/>
<path d="M402.155 77H202.87C200.195 77 198.026 79.9724 198.026 83.639L178 260.361C178 264.028 180.169 267 182.845 267L402.155 239.255C404.831 239.255 407 236.282 407 232.616V83.639C407 79.9724 404.831 77 402.155 77Z" fill="url(#paint1_radial_68_77)"/>
<path d="M323.55 33H45.6C42.2089 33 39.46 35.749 39.46 39.14V202.58C39.46 205.971 42.2089 208.72 45.6 208.72H323.55C326.941 208.72 329.69 205.971 329.69 202.58V39.14C329.69 35.749 326.941 33 323.55 33Z" fill="black"/>
<path d="M117.42 62.23H78.22C76.9829 62.23 75.98 63.2329 75.98 64.47V67.65C75.98 68.8871 76.9829 69.89 78.22 69.89H117.42C118.657 69.89 119.66 68.8871 119.66 67.65V64.47C119.66 63.2329 118.657 62.23 117.42 62.23Z" fill="#E8EEFF"/>
<path d="M149 87.97H78.22C76.9829 87.97 75.98 88.9729 75.98 90.21V93.39C75.98 94.6271 76.9829 95.63 78.22 95.63H149C150.237 95.63 151.24 94.6271 151.24 93.39V90.21C151.24 88.9729 150.237 87.97 149 87.97Z" fill="#99F6E4"/>
<path d="M219.84 87.97H165.24C164.003 87.97 163 88.9729 163 90.21V93.39C163 94.6271 164.003 95.63 165.24 95.63H219.84C221.077 95.63 222.08 94.6271 222.08 93.39V90.21C222.08 88.9729 221.077 87.97 219.84 87.97Z" fill="#FEF3C7"/>
<path d="M149 122.74H78.22C76.9829 122.74 75.98 123.743 75.98 124.98V128.16C75.98 129.397 76.9829 130.4 78.22 130.4H149C150.237 130.4 151.24 129.397 151.24 128.16V124.98C151.24 123.743 150.237 122.74 149 122.74Z" fill="#FECACA"/>
<path d="M198.39 122.74H165.24C164.003 122.74 163 123.743 163 124.98V128.16C163 129.397 164.003 130.4 165.24 130.4H198.39C199.627 130.4 200.63 129.397 200.63 128.16V124.98C200.63 123.743 199.627 122.74 198.39 122.74Z" fill="#E8EEFF"/>
<path d="M122.26 105.35H78.22C76.9829 105.35 75.98 106.353 75.98 107.59V110.77C75.98 112.007 76.9829 113.01 78.22 113.01H122.26C123.497 113.01 124.5 112.007 124.5 110.77V107.59C124.5 106.353 123.497 105.35 122.26 105.35Z" fill="#E8EEFF"/>
<path d="M181.26 105.35H137.22C135.983 105.35 134.98 106.353 134.98 107.59V110.77C134.98 112.007 135.983 113.01 137.22 113.01H181.26C182.497 113.01 183.5 112.007 183.5 110.77V107.59C183.5 106.353 182.497 105.35 181.26 105.35Z" fill="#E8EEFF"/>
<path d="M122.26 153.36H78.22C76.9829 153.36 75.98 154.363 75.98 155.6V158.78C75.98 160.017 76.9829 161.02 78.22 161.02H122.26C123.497 161.02 124.5 160.017 124.5 158.78V155.6C124.5 154.363 123.497 153.36 122.26 153.36Z" fill="#E8EEFF"/>
<path d="M181.26 153.36H137.22C135.983 153.36 134.98 154.363 134.98 155.6V158.78C134.98 160.017 135.983 161.02 137.22 161.02H181.26C182.497 161.02 183.5 160.017 183.5 158.78V155.6C183.5 154.363 182.497 153.36 181.26 153.36Z" fill="#99F6E4"/>
<path d="M247.42 105.35H203.38C202.143 105.35 201.14 106.353 201.14 107.59V110.77C201.14 112.007 202.143 113.01 203.38 113.01H247.42C248.657 113.01 249.66 112.007 249.66 110.77V107.59C249.66 106.353 248.657 105.35 247.42 105.35Z" fill="#99F6E4"/>
<path d="M188.14 65.5L405.36 65.5C406.818 65.5 408 66.682 408 68.14V231.86C408 233.318 406.818 234.5 405.36 234.5L188.14 234.5C186.682 234.5 185.5 233.318 185.5 231.86V68.14C185.5 66.682 186.682 65.5 188.14 65.5Z" fill="#F1F5F9" stroke="#6100FF" stroke-width="7"/>
<rect x="233" y="69" width="2" height="162" fill="#9CA4BA"/>
<path d="M235 153H404.5V155H235V153Z" fill="#9CA4BA"/>
<path d="M226.76 73.08L195.24 73C194.003 73 193 74.0029 193 75.24V78.42C193 79.6571 194.003 80.66 195.24 80.66L226.76 80.74C227.997 80.74 229 79.7371 229 78.5V75.32C229 74.0829 227.997 73.08 226.76 73.08Z" fill="#9CA4BA"/>
<path d="M226.76 84.08L195.24 84C194.003 84 193 85.0029 193 86.24V89.42C193 90.6571 194.003 91.66 195.24 91.66L226.76 91.74C227.997 91.74 229 90.7371 229 89.5V86.32C229 85.0829 227.997 84.08 226.76 84.08Z" fill="#9CA4BA"/>
<path d="M226.76 95.08L195.24 95C194.003 95 193 96.0029 193 97.24V100.42C193 101.657 194.003 102.66 195.24 102.66L226.76 102.74C227.997 102.74 229 101.737 229 100.5V97.32C229 96.0829 227.997 95.08 226.76 95.08Z" fill="#9CA4BA"/>
<path d="M293.071 168.083L265.929 168C264.864 168 264 169.037 264 170.315V173.602C264 174.881 264.864 175.917 265.929 175.917L293.071 176C294.136 176 295 174.963 295 173.685V170.398C295 169.119 294.136 168.083 293.071 168.083Z" fill="#9CA4BA"/>
<path d="M316.618 199.917L339.382 200C340.276 200 341 198.963 341 197.685L341 194.398C341 193.119 340.276 192.083 339.382 192.083L316.618 192C315.724 192 315 193.037 315 194.315L315 197.602C315 198.881 315.724 199.917 316.618 199.917Z" fill="#9CA4BA"/>
<path d="M353.64 168.083L306.36 168C304.504 168 303 169.037 303 170.315V173.602C303 174.881 304.504 175.917 306.36 175.917L353.64 176C355.496 176 357 174.963 357 173.685V170.398C357 169.119 355.496 168.083 353.64 168.083Z" fill="#9CA4BA"/>
<path d="M266.8 199.917L306.2 200C307.746 200 309 198.963 309 197.685L309 194.398C309 193.119 307.746 192.083 306.2 192.083L266.8 192C265.254 192 264 193.037 264 194.315L264 197.602C264 198.881 265.254 199.917 266.8 199.917Z" fill="#9CA4BA"/>
<rect x="244" y="79" width="149" height="28" fill="#6100FF"/>
<rect x="244" y="164" width="15" height="15" rx="4" fill="#6100FF"/>
<rect x="244" y="188" width="15" height="15" rx="4" fill="#6100FF"/>
<g filter="url(#filter0_d_68_77)">
<rect x="244" y="116" width="70" height="28" fill="white"/>
</g>
<g filter="url(#filter1_d_68_77)">
<rect x="323" y="116" width="70" height="28" fill="white"/>
</g>
<path d="M486.534 231.548L478 246L469.452 231.548L455 223L469.452 214.466L478 200L486.534 214.466L501 223L486.534 231.548Z" fill="white"/>
<path d="M134.599 247.799L124.799 238L115 247.799L124.799 257.599L134.599 247.799Z" fill="white"/>
<path d="M454.599 51.7993L444.799 42L435 51.7993L444.799 61.5986L454.599 51.7993Z" fill="white"/>
</g>
<defs>
<filter id="filter0_d_68_77" x="239" y="113" width="80" height="38" filterUnits="userSpaceOnUse" color-interpolation-filters="sRGB">
<feFlood flood-opacity="0" result="BackgroundImageFix"/>
<feColorMatrix in="SourceAlpha" type="matrix" values="0 0 0 0 0 0 0 0 0 0 0 0 0 0 0 0 0 0 127 0" result="hardAlpha"/>
<feOffset dy="2"/>
<feGaussianBlur stdDeviation="2.5"/>
<feComposite in2="hardAlpha" operator="out"/>
<feColorMatrix type="matrix" values="0 0 0 0 0 0 0 0 0 0 0 0 0 0 0 0 0 0 0.1 0"/>
<feBlend mode="normal" in2="BackgroundImageFix" result="effect1_dropShadow_68_77"/>
<feBlend mode="normal" in="SourceGraphic" in2="effect1_dropShadow_68_77" result="shape"/>
</filter>
<filter id="filter1_d_68_77" x="318" y="113" width="80" height="38" filterUnits="userSpaceOnUse" color-interpolation-filters="sRGB">
<feFlood flood-opacity="0" result="BackgroundImageFix"/>
<feColorMatrix in="SourceAlpha" type="matrix" values="0 0 0 0 0 0 0 0 0 0 0 0 0 0 0 0 0 0 127 0" result="hardAlpha"/>
<feOffset dy="2"/>
<feGaussianBlur stdDeviation="2.5"/>
<feComposite in2="hardAlpha" operator="out"/>
<feColorMatrix type="matrix" values="0 0 0 0 0 0 0 0 0 0 0 0 0 0 0 0 0 0 0.1 0"/>
<feBlend mode="normal" in2="BackgroundImageFix" result="effect1_dropShadow_68_77"/>
<feBlend mode="normal" in="SourceGraphic" in2="effect1_dropShadow_68_77" result="shape"/>
</filter>
<radialGradient id="paint0_radial_68_77" cx="0" cy="0" r="1" gradientUnits="userSpaceOnUse" gradientTransform="translate(99.8813 127.212) rotate(128.924) scale(136.898 486.922)">
<stop stop-color="#DFA100"/>
<stop offset="0.871469" stop-color="#FFF500"/>
</radialGradient>
<radialGradient id="paint1_radial_68_77" cx="0" cy="0" r="1" gradientUnits="userSpaceOnUse" gradientTransform="translate(240.633 160.322) rotate(120.497) scale(123.604 393.305)">
<stop stop-color="#DFA100"/>
<stop offset="0.871469" stop-color="#FFF500"/>
</radialGradient>
<clipPath id="clip0_68_77">
<rect width="529" height="296" fill="white"/>
</clipPath>
</defs>
</svg>
