<svg width="529" height="296" viewBox="0 0 529 296" fill="none" xmlns="http://www.w3.org/2000/svg">
<g clip-path="url(#clip0_59_456)">
<rect width="529" height="296" fill="white"/>
<path d="M529 0H0V296H529V0Z" fill="#FF6FDF"/>
<path d="M400.357 48H127.102C123.433 48 120.459 51.7859 120.459 56.456L101 263.544C101 268.214 103.974 272 107.643 272L400.357 254.661C404.026 254.661 407 250.875 407 246.205V56.456C407 51.7859 404.026 48 400.357 48Z" fill="url(#paint0_radial_59_456)"/>
<path d="M403.865 41H126.135C122.747 41 120 44.3478 120 48.4776V247.522C120 251.652 122.747 255 126.135 255H403.865C407.253 255 410 251.652 410 247.522V48.4776C410 44.3478 407.253 41 403.865 41Z" fill="#ECEFF7"/>
<path fill-rule="evenodd" clip-rule="evenodd" d="M410.23 60H120V47.14C120 43.749 122.749 41 126.14 41H404.09C407.481 41 410.23 43.749 410.23 47.14V60Z" fill="#9CA4BA"/>
<path d="M244.136 95.1299H182.656C176.474 95.1299 171.463 100.141 171.463 106.323V186.126C171.463 192.307 176.474 197.319 182.656 197.319H244.136C250.318 197.319 255.329 192.307 255.329 186.126V106.323C255.329 100.141 250.318 95.1299 244.136 95.1299Z" fill="white"/>
<path d="M347.981 95.1299H286.5C280.318 95.1299 275.307 100.141 275.307 106.323V186.126C275.307 192.307 280.318 197.319 286.5 197.319H347.981C354.162 197.319 359.174 192.307 359.174 186.126V106.323C359.174 100.141 354.162 95.1299 347.981 95.1299Z" fill="black"/>
<path d="M244.113 95.1299H182.632C179.663 95.1299 176.816 96.3091 174.717 98.4082C172.618 100.507 171.439 103.354 171.439 106.323V143.583H255.305V106.36C255.31 104.887 255.024 103.427 254.464 102.065C253.904 100.703 253.08 99.4645 252.04 98.4212C251 97.378 249.765 96.5502 248.404 95.9854C247.044 95.4206 245.586 95.1299 244.113 95.1299Z" fill="#463AFF"/>
<path d="M230.346 153.582H185.535C184.308 153.582 183.313 154.196 183.313 154.954V155.903C183.313 156.661 184.308 157.276 185.535 157.276H230.346C231.572 157.276 232.567 156.661 232.567 155.903V154.954C232.567 154.196 231.572 153.582 230.346 153.582Z" fill="#CBD8FF"/>
<path d="M215.582 160.97H185.522C184.302 160.97 183.313 161.584 183.313 162.342V163.291C183.313 164.049 184.302 164.664 185.522 164.664H215.582C216.802 164.664 217.791 164.049 217.791 163.291V162.342C217.791 161.584 216.802 160.97 215.582 160.97Z" fill="#CBD8FF"/>
<path d="M241.86 126.061C241.941 125.798 241.964 125.52 241.928 125.247C241.893 124.974 241.799 124.712 241.653 124.478C241.507 124.245 241.312 124.045 241.082 123.893C240.852 123.742 240.593 123.641 240.321 123.598C223.082 121.062 209.266 111.47 205.301 108.478C205.154 108.366 204.985 108.288 204.806 108.246C204.626 108.204 204.44 108.2 204.259 108.235C204.078 108.27 203.906 108.343 203.755 108.448C203.603 108.553 203.476 108.689 203.38 108.847L202.223 110.768C201.947 111.228 201.77 111.74 201.702 112.272C201.634 112.804 201.677 113.344 201.829 113.858L201.989 114.425C195.697 119.018 192.803 115.853 191.018 111.962C190.648 111.05 190.013 110.269 189.195 109.721C188.934 109.565 188.632 109.493 188.329 109.512C188.025 109.532 187.735 109.643 187.496 109.831C187.257 110.019 187.081 110.275 186.991 110.566C186.901 110.856 186.901 111.167 186.991 111.457C187.79 114.212 187.571 117.162 186.376 119.769C185.569 121.714 185.285 123.837 185.551 125.926L206.163 132.402L229.83 133.141L241.404 128.819L241.86 126.061Z" fill="#FCD34D"/>
<path d="M185.55 125.865L183.654 129.115C183.526 129.33 183.453 129.572 183.442 129.822C183.431 130.071 183.483 130.319 183.592 130.544C184.136 131.504 184.884 132.333 185.784 132.972C186.685 133.61 187.715 134.042 188.801 134.238C193.726 135.531 202.407 134.385 209.524 134.841C216.161 135.272 235.53 138.338 243.078 128.253C243.242 128.039 243.339 127.781 243.359 127.512C243.379 127.243 243.32 126.974 243.189 126.738C243.059 126.501 242.862 126.308 242.624 126.182C242.386 126.055 242.116 126.001 241.847 126.025C241.847 126.025 241.428 129.608 227.145 130.248C215.398 130.778 216.358 129.165 208.576 127.786C205.505 127.262 202.395 127.003 199.279 127.01C195.475 127.059 188.752 126.911 185.55 125.865Z" fill="#FFFBEB"/>
<path d="M201.988 114.376L204.561 112.578C205.162 112.156 205.867 111.909 206.6 111.863C207.332 111.818 208.063 111.976 208.711 112.32C212.503 114.327 220.446 118.353 225.359 119.511" stroke="#F59E0B" stroke-width="1.23134" stroke-miterlimit="10" stroke-linecap="round"/>
<path d="M197.949 127.047L195.351 122.01C194.788 120.922 193.936 120.011 192.888 119.375L187.36 115.94" stroke="#F59E0B" stroke-width="1.23134" stroke-miterlimit="10" stroke-linecap="round"/>
<path d="M200.659 127.047L198.492 122.614C198.344 122.311 198.316 121.964 198.414 121.641C198.513 121.319 198.73 121.046 199.021 120.878L207.247 116.199C207.527 116.036 207.839 115.935 208.162 115.903C208.485 115.871 208.811 115.909 209.118 116.014L224.67 121.333C225.219 121.519 225.791 121.627 226.369 121.653C227.219 121.653 228.216 121.518 228.389 120.619" stroke="#F59E0B" stroke-width="1.23134" stroke-miterlimit="10" stroke-linecap="round"/>
<path d="M207.948 115.94L204.574 112.578" stroke="#F59E0B" stroke-width="1.23134" stroke-miterlimit="10" stroke-linecap="round"/>
<path d="M209.069 117.738L200.979 122.515L204.156 123.476L212.049 118.649L209.069 117.738Z" fill="#F59E0B"/>
<path d="M213.797 119.203L205.707 123.98L208.884 124.941L216.777 120.126L213.797 119.203Z" fill="#F59E0B"/>
<path d="M218.76 120.607L210.67 125.384L213.847 126.345L221.74 121.518L218.76 120.607Z" fill="#F59E0B"/>
<path d="M255.305 255V227.233C255.305 224.265 254.126 221.418 252.027 219.319C249.928 217.22 247.081 216.04 244.113 216.04H182.632C179.663 216.04 176.816 217.22 174.717 219.319C172.618 221.418 171.439 224.265 171.439 227.233V255H255.305Z" fill="#463AFF"/>
<path d="M358.59 255V227.233C358.59 224.265 357.411 221.418 355.312 219.319C353.212 217.22 350.365 216.04 347.397 216.04H285.916C282.948 216.04 280.101 217.22 278.002 219.319C275.903 221.418 274.723 224.265 274.723 227.233V255H358.59Z" fill="#463AFF"/>
<path d="M356.853 106.532L296.836 119.87C290.802 121.211 286.997 127.191 288.338 133.225L305.652 211.127C306.993 217.162 312.972 220.966 319.006 219.625L379.023 206.287C385.057 204.946 388.862 198.967 387.521 192.932L370.207 115.03C368.866 108.996 362.887 105.191 356.853 106.532Z" fill="white"/>
<path d="M356.854 106.507L296.839 119.904C295.403 120.223 294.045 120.822 292.841 121.666C291.637 122.51 290.612 123.583 289.823 124.824C289.034 126.065 288.497 127.449 288.243 128.897C287.989 130.345 288.023 131.829 288.342 133.264L296.432 169.638L378.304 151.439L370.214 114.979C369.564 112.085 367.792 109.567 365.287 107.979C362.782 106.39 359.749 105.861 356.854 106.507Z" fill="#463AFF"/>
<path d="M305.421 153.619L306.148 156.882C306.215 157.2 306.385 157.487 306.632 157.699C306.88 157.91 307.19 158.034 307.514 158.052C309.711 158.188 311.917 158.014 314.065 157.535L349.06 149.752C354.321 148.592 359.243 146.232 363.442 142.857C363.739 142.625 363.947 142.297 364.032 141.93C364.118 141.562 364.074 141.177 363.91 140.838L362.284 137.488C358.086 141.035 353.079 143.492 347.705 144.642C338.79 146.625 314.102 152.24 305.926 152.966C305.848 152.97 305.771 152.991 305.701 153.027C305.632 153.063 305.571 153.114 305.523 153.176C305.475 153.238 305.441 153.31 305.423 153.386C305.406 153.463 305.405 153.542 305.421 153.619Z" fill="#F0FDFA"/>
<path d="M353.936 136.343L358.565 136.133C359.239 136.104 359.912 136.207 360.546 136.437C361.18 136.667 361.762 137.02 362.259 137.476C360.615 138.911 358.809 140.15 356.878 141.17C355.512 136.626 353.936 136.343 353.936 136.343Z" fill="#F0FDFA"/>
<path d="M347.693 144.63C338.815 146.6 314.274 152.178 306 152.942C305.205 149.265 305.03 145.482 305.482 141.749C305.499 141.636 305.546 141.53 305.618 141.441C305.689 141.352 305.783 141.285 305.89 141.244C305.997 141.204 306.112 141.193 306.224 141.213C306.337 141.232 306.442 141.281 306.529 141.355C309.657 144.051 317.611 142.857 320.813 138.67C322.572 136.13 324.99 134.117 327.807 132.846C327.979 132.147 328.21 131.463 328.496 130.802C328.588 130.605 328.721 130.43 328.886 130.289C329.052 130.147 329.245 130.044 329.454 129.984C329.664 129.924 329.883 129.911 330.098 129.943C330.313 129.976 330.518 130.055 330.7 130.174C340.809 136.676 353.936 136.331 353.936 136.331C353.936 136.331 355.512 136.614 356.891 141.158C354.002 142.739 350.906 143.907 347.693 144.63Z" fill="#5EEAD4"/>
<path d="M362.272 137.476C360.708 139.012 358.887 140.262 356.891 141.17" stroke="#5EEAD4" stroke-width="1.23134" stroke-miterlimit="10" stroke-linecap="round"/>
<path d="M355.918 141.392C355.918 141.392 354.613 137.254 348.838 137.242C343.063 137.23 327.807 132.846 327.807 132.846" stroke="#14B8A6" stroke-width="1.23134" stroke-miterlimit="10" stroke-linecap="round"/>
<path d="M355.289 140.271C355.289 140.271 353.393 139.471 346.473 139.656C339.553 139.84 326.205 139.298 323.841 135.358" stroke="#14B8A6" stroke-width="1.23134" stroke-miterlimit="10" stroke-linecap="round"/>
<path d="M339.603 137.771C339.56 137.176 339.648 136.579 339.86 136.022C340.073 135.464 340.406 134.96 340.835 134.545" stroke="#14B8A6" stroke-width="1.23134" stroke-miterlimit="10" stroke-linecap="round"/>
<path d="M336.032 137.267C336.032 137.267 336.34 134.003 337.596 133.573" stroke="#14B8A6" stroke-width="1.23134" stroke-miterlimit="10" stroke-linecap="round"/>
<path d="M332.622 136.762C332.622 136.762 332.708 133.523 334.382 132.206" stroke="#14B8A6" stroke-width="1.23134" stroke-miterlimit="10" stroke-linecap="round"/>
<path d="M343.183 169.195L312.616 175.988C311.435 176.251 310.614 177.081 310.783 177.843L310.995 178.796C311.164 179.557 312.259 179.962 313.441 179.699L344.008 172.906C345.19 172.643 346.01 171.813 345.841 171.051L345.629 170.098C345.46 169.337 344.365 168.932 343.183 169.195Z" fill="#CBD8FF"/>
<path d="M364.29 172.527L314.743 183.539C313.562 183.801 312.736 184.606 312.898 185.337L313.101 186.251C313.263 186.982 314.353 187.361 315.535 187.098L365.081 176.087C366.263 175.824 367.089 175.019 366.927 174.288L366.724 173.374C366.562 172.644 365.472 172.265 364.29 172.527Z" fill="#CBD8FF"/>
<path d="M254.545 226.091C259.265 226.091 263.091 222.265 263.091 217.545C263.091 212.826 259.265 209 254.545 209C249.826 209 246 212.826 246 217.545C246 222.265 249.826 226.091 254.545 226.091Z" fill="white"/>
<path d="M367.689 115.911C372.268 114.768 375.054 110.129 373.911 105.55C372.768 100.971 368.129 98.1856 363.55 99.3286C358.971 100.472 356.186 105.11 357.329 109.689C358.472 114.268 363.11 117.054 367.689 115.911Z" fill="white"/>
<path d="M258.683 216.684C258.688 216.195 258.536 215.718 258.251 215.322C257.965 214.926 257.56 214.631 257.096 214.482C256.631 214.332 256.13 214.334 255.667 214.489C255.204 214.644 254.802 214.942 254.521 215.341C254.202 214.884 253.728 214.559 253.187 214.426C252.645 214.294 252.074 214.363 251.581 214.621C251.087 214.88 250.704 215.309 250.504 215.829C250.304 216.349 250.301 216.925 250.494 217.447C250.544 217.58 250.605 217.708 250.679 217.829C251.188 218.643 251.81 219.381 252.526 220.021L254.299 221.535C254.36 221.59 254.439 221.62 254.521 221.62C254.603 221.62 254.682 221.59 254.743 221.535L256.38 220.107C257.139 219.44 257.795 218.664 258.326 217.804C258.391 217.689 258.448 217.57 258.498 217.447C258.602 217.205 258.665 216.947 258.683 216.684Z" fill="#FCA5A5"/>
<path d="M369.425 105.781C369.312 105.306 369.049 104.88 368.676 104.565C368.303 104.25 367.839 104.062 367.352 104.029C366.865 103.996 366.38 104.12 365.968 104.382C365.556 104.645 365.239 105.032 365.062 105.487C364.642 105.121 364.103 104.92 363.546 104.923C362.989 104.925 362.452 105.131 362.035 105.501C361.618 105.871 361.351 106.38 361.283 106.933C361.215 107.486 361.351 108.045 361.665 108.505C361.745 108.622 361.836 108.731 361.937 108.831C362.628 109.498 363.41 110.064 364.26 110.51L366.347 111.55C366.419 111.588 366.503 111.598 366.583 111.579C366.662 111.559 366.731 111.51 366.777 111.443L368.02 109.66C368.595 108.83 369.043 107.918 369.35 106.955C369.385 106.827 369.412 106.698 369.431 106.567C369.473 106.307 369.471 106.041 369.425 105.781Z" fill="#FCA5A5"/>
<path d="M359.395 77.2387V60H265.197H171V77.2387C171 78.5988 172.103 79.7014 173.463 79.7014H356.932C358.292 79.7014 359.395 78.5988 359.395 77.2387Z" fill="#463AFF"/>
<path d="M210.403 176.977H185.776C184.416 176.977 183.313 178.08 183.313 179.44V184.365C183.313 185.725 184.416 186.828 185.776 186.828H210.403C211.763 186.828 212.865 185.725 212.865 184.365V179.44C212.865 178.08 211.763 176.977 210.403 176.977Z" fill="#7FA0FF"/>
<path d="M210.403 176.977H185.776C184.416 176.977 183.313 178.08 183.313 179.44V184.365C183.313 185.725 184.416 186.828 185.776 186.828H210.403C211.763 186.828 212.865 185.725 212.865 184.365V179.44C212.865 178.08 211.763 176.977 210.403 176.977Z" fill="url(#paint1_linear_59_456)"/>
<path d="M342.066 193.376L318.056 198.853C316.73 199.155 315.9 200.475 316.202 201.801L317.298 206.603C317.6 207.929 318.92 208.759 320.246 208.457L344.256 202.98C345.582 202.678 346.412 201.358 346.11 200.032L345.014 195.23C344.712 193.904 343.392 193.074 342.066 193.376Z" fill="#7FA0FF"/>
<path d="M342.066 193.376L318.056 198.853C316.73 199.155 315.9 200.475 316.202 201.801L317.298 206.603C317.6 207.929 318.92 208.759 320.246 208.457L344.256 202.98C345.582 202.678 346.412 201.358 346.11 200.032L345.014 195.23C344.712 193.904 343.392 193.074 342.066 193.376Z" fill="url(#paint2_linear_59_456)"/>
<path d="M380.943 53.8858C382.568 53.8858 383.886 52.5682 383.886 50.9429C383.886 49.3176 382.568 48 380.943 48C379.318 48 378 49.3176 378 50.9429C378 52.5682 379.318 53.8858 380.943 53.8858Z" fill="#E0E3ED"/>
<path d="M400.066 53.8858C401.691 53.8858 403.009 52.5682 403.009 50.9429C403.009 49.3176 401.691 48 400.066 48C398.441 48 397.123 49.3176 397.123 50.9429C397.123 52.5682 398.441 53.8858 400.066 53.8858Z" fill="#FCA5A5"/>
<path d="M390.498 53.8858C392.123 53.8858 393.441 52.5682 393.441 50.9429C393.441 49.3176 392.123 48 390.498 48C388.873 48 387.555 49.3176 387.555 50.9429C387.555 52.5682 388.873 53.8858 390.498 53.8858Z" fill="#E0E3ED"/>
<rect x="161" y="48" width="207" height="6" rx="2" fill="#E0E3ED"/>
<path d="M376.771 194.144C377.471 193.884 378.861 194.044 379.231 194.834C379.601 195.624 379.821 196.654 379.831 196.404C379.801 195.644 379.871 194.894 380.021 194.144C380.181 193.674 380.561 193.294 381.031 193.134C381.471 192.994 381.931 192.964 382.381 193.044C382.831 193.134 383.241 193.404 383.511 193.774C383.851 194.624 384.051 195.534 384.081 196.454C384.121 195.674 384.251 194.894 384.481 194.144C384.721 193.804 385.081 193.554 385.491 193.444C385.971 193.354 386.471 193.354 386.961 193.444C387.361 193.574 387.711 193.824 387.961 194.164C388.271 194.944 388.461 195.764 388.521 196.594C388.521 196.804 388.621 196.024 388.941 195.514C389.201 194.744 390.031 194.334 390.801 194.594C391.571 194.854 391.981 195.684 391.721 196.454V199.764C391.671 200.624 391.551 201.474 391.371 202.314C391.121 203.054 390.761 203.764 390.321 204.404C389.611 205.194 389.021 206.094 388.581 207.054C388.471 207.534 388.421 208.024 388.431 208.524C388.431 208.984 388.491 209.434 388.611 209.874C388.011 209.934 387.411 209.934 386.811 209.874C386.241 209.784 385.541 208.644 385.341 208.294C385.251 208.104 385.051 207.984 384.841 207.984C384.631 207.984 384.441 208.104 384.341 208.294C384.021 208.854 383.301 209.864 382.871 209.924C381.891 210.044 379.851 209.924 378.271 209.924C378.271 209.924 378.551 208.454 377.931 207.934C377.311 207.414 376.711 206.794 376.261 206.384L375.041 205.034C374.181 204.234 373.561 203.224 373.221 202.104C372.911 200.724 372.941 200.064 373.221 199.514C373.501 199.054 373.951 198.714 374.471 198.564C374.901 198.484 375.341 198.514 375.761 198.654C376.051 198.774 376.301 198.974 376.481 199.224C376.821 199.674 376.931 199.894 376.791 199.404C376.651 198.914 376.321 198.544 376.161 197.934C375.851 197.224 375.661 196.464 375.601 195.694C375.661 195.004 376.141 194.414 376.821 194.224" fill="white"/>
<path d="M376.771 194.144C377.471 193.884 378.861 194.044 379.231 194.834C379.601 195.624 379.821 196.654 379.831 196.404C379.801 195.644 379.871 194.894 380.021 194.144C380.181 193.674 380.561 193.294 381.031 193.134C381.471 192.994 381.931 192.964 382.381 193.044C382.831 193.134 383.241 193.404 383.511 193.774C383.851 194.624 384.051 195.534 384.081 196.454C384.121 195.674 384.251 194.894 384.481 194.144C384.721 193.804 385.081 193.554 385.491 193.444C385.971 193.354 386.471 193.354 386.961 193.444C387.361 193.574 387.711 193.824 387.961 194.164C388.271 194.944 388.461 195.764 388.521 196.594C388.521 196.804 388.621 196.024 388.941 195.514C389.201 194.744 390.031 194.334 390.801 194.594C391.571 194.854 391.981 195.684 391.721 196.454V199.764C391.671 200.624 391.551 201.474 391.371 202.314C391.121 203.054 390.761 203.764 390.321 204.404C389.611 205.194 389.021 206.094 388.581 207.054C388.471 207.534 388.421 208.024 388.431 208.524C388.431 208.984 388.491 209.434 388.611 209.874C388.011 209.934 387.411 209.934 386.811 209.874C386.241 209.784 385.541 208.644 385.341 208.294C385.251 208.104 385.051 207.984 384.841 207.984C384.631 207.984 384.441 208.104 384.341 208.294C384.021 208.854 383.301 209.864 382.871 209.924C381.891 210.044 379.851 209.924 378.271 209.924C378.271 209.924 378.551 208.454 377.931 207.934C377.311 207.414 376.711 206.794 376.261 206.384L375.041 205.034C374.181 204.234 373.561 203.224 373.221 202.104C372.911 200.724 372.941 200.064 373.221 199.514C373.501 199.054 373.951 198.714 374.471 198.564C374.901 198.484 375.341 198.514 375.761 198.654C376.051 198.774 376.301 198.974 376.481 199.224C376.821 199.674 376.931 199.894 376.791 199.404C376.651 198.914 376.321 198.544 376.161 197.934C375.851 197.224 375.661 196.464 375.601 195.694C375.631 194.994 376.101 194.384 376.771 194.174V194.144Z" stroke="black" stroke-width="2" stroke-linejoin="round"/>
<path d="M387.071 204.984V199.924C387.071 199.624 386.821 199.374 386.521 199.374C386.221 199.374 385.971 199.624 385.971 199.924V204.984C385.971 205.284 386.221 205.534 386.521 205.534C386.821 205.534 387.071 205.284 387.071 204.984Z" fill="black"/>
<path d="M384.161 204.984L384.131 199.924C384.131 199.624 383.881 199.374 383.581 199.384C383.281 199.384 383.031 199.634 383.031 199.934L383.061 204.994C383.061 205.294 383.311 205.544 383.611 205.534C383.911 205.524 384.161 205.284 384.161 204.984Z" fill="black"/>
<path d="M380.111 199.944L380.141 204.994C380.141 205.304 380.391 205.544 380.691 205.544C380.991 205.544 381.241 205.294 381.241 204.984L381.211 199.934C381.211 199.624 380.961 199.384 380.661 199.384C380.361 199.384 380.111 199.634 380.111 199.944Z" fill="black"/>
<path d="M66.5337 88.5483L58 103L49.4517 88.5483L35 80L49.4517 71.4663L58 57L66.5337 71.4663L81 80L66.5337 88.5483Z" fill="white"/>
<path d="M479.599 135.799L469.799 126L460 135.799L469.799 145.599L479.599 135.799Z" fill="white"/>
<path d="M90.5986 182.799L80.7993 173L71 182.799L80.7993 192.599L90.5986 182.799Z" fill="white"/>
</g>
<defs>
<radialGradient id="paint0_radial_59_456" cx="0" cy="0" r="1" gradientUnits="userSpaceOnUse" gradientTransform="translate(178.881 154.126) rotate(122.377) scale(160.623 528.581)">
<stop stop-color="#FF00C6"/>
<stop offset="0.871469" stop-color="#FF6FDF"/>
</radialGradient>
<linearGradient id="paint1_linear_59_456" x1="183.72" y1="186.558" x2="213.801" y2="179.527" gradientUnits="userSpaceOnUse">
<stop stop-color="#7FA0FF"/>
<stop offset="1" stop-color="#CBD8FF" stop-opacity="0.4"/>
</linearGradient>
<linearGradient id="paint2_linear_59_456" x1="318.796" y1="208.572" x2="346.56" y2="195.028" gradientUnits="userSpaceOnUse">
<stop stop-color="#7FA0FF"/>
<stop offset="1" stop-color="#CBD8FF" stop-opacity="0.4"/>
</linearGradient>
<clipPath id="clip0_59_456">
<rect width="529" height="296" fill="white"/>
</clipPath>
</defs>
</svg>
