<svg width="529" height="296" viewBox="0 0 529 296" fill="none" xmlns="http://www.w3.org/2000/svg">
<g clip-path="url(#clip0_69_306)">
<rect width="529" height="296" fill="white"/>
<path d="M529 0H0V296H529V0Z" fill="#00FFFF"/>
<path d="M102.199 21.6917L150.365 23.057L253.3 393.227L16.7248 317.812L102.199 21.6917Z" fill="#01AFC6"/>
<path d="M270.994 149.583C302.995 218.676 277.378 296.79 216.335 325.062C155.292 353.333 79.1471 322.35 47.1468 253.257C15.1466 184.164 40.7638 106.05 101.806 77.7785C162.849 49.5067 238.994 80.4899 270.994 149.583Z" fill="#C5FFFF" stroke="#01AFC6" stroke-width="20"/>
<path d="M235.456 166.043C257.486 213.607 239.697 266.9 198.282 286.081C156.866 305.262 104.715 284.362 82.686 236.798C60.6565 189.233 78.4453 135.94 119.86 116.759C161.276 97.5776 213.427 118.478 235.456 166.043Z" stroke="#01AFC6" stroke-width="20"/>
<path d="M195.79 184.414C206.69 207.95 197.639 233.538 178.131 242.573C158.623 251.608 133.253 241.962 122.353 218.426C111.452 194.89 120.503 169.302 140.011 160.267C159.519 151.232 184.889 160.878 195.79 184.414Z" stroke="#01AFC6" stroke-width="20"/>
<ellipse cx="159.071" cy="201.42" rx="10.991" ry="12.0554" transform="rotate(-24.8511 159.071 201.42)" fill="#FF5977"/>
<path d="M159 200.5L268 37" stroke="#FF5977" stroke-width="7" stroke-linecap="round"/>
<path fill-rule="evenodd" clip-rule="evenodd" d="M235 43L242 78.5L246.664 71.301L240.114 35.226L235 43ZM255.396 57.8237L251.427 63.949L244.894 27.9616L248.875 21.9094L255.396 57.8237ZM260.159 50.4716L265 43L260 5L253.655 14.645L260.159 50.4716Z" fill="#FF5977"/>
<path fill-rule="evenodd" clip-rule="evenodd" d="M274.438 68.5271L239.045 76.0526L243.83 68.933L279.574 60.7675L274.438 68.5271ZM252.787 55.6045L248.716 61.6622L284.373 53.5165L288.372 47.4753L252.787 55.6045ZM257.673 48.3337L262.639 40.9446L299.544 30.5971L293.171 40.2243L257.673 48.3337Z" fill="#FF5977"/>
<path d="M236 41.5L254.5 13.5L258.5 15L238 45L236 41.5Z" fill="#FF5977"/>
<path d="M272 65L290.5 37L297 34.5L275.5 67L272 65Z" fill="#FF5977"/>
<path d="M386.534 233.548L378 248L369.452 233.548L355 225L369.452 216.466L378 202L386.534 216.466L401 225L386.534 233.548Z" fill="white"/>
<path d="M481.599 137.799L471.799 128L462 137.799L471.799 147.599L481.599 137.799Z" fill="white"/>
<path d="M354.599 94.7993L344.799 85L335 94.7993L344.799 104.599L354.599 94.7993Z" fill="white"/>
</g>
<defs>
<clipPath id="clip0_69_306">
<rect width="529" height="296" fill="white"/>
</clipPath>
</defs>
</svg>
