<svg width="529" height="296" viewBox="0 0 529 296" fill="none" xmlns="http://www.w3.org/2000/svg">
<g clip-path="url(#clip0_62_2)">
<rect width="529" height="296" fill="white"/>
<path d="M529 0H0V296H529V0Z" fill="#FF559C"/>
<path d="M125 306.5L337.5 242L15 303.5L125 306.5Z" fill="url(#paint0_linear_62_2)"/>
<path d="M334.437 242.997L-27.2535 312.034C-29.6329 312.488 -31.9396 310.969 -32.4663 308.607L-60.8913 180.989C-61.4422 178.519 -59.8439 176.091 -57.3556 175.613L312.181 105.08C314.663 104.608 317.049 106.279 317.442 108.773L338.021 237.893C338.402 240.285 336.816 242.543 334.437 242.997Z" fill="black"/>
<path d="M3.93217 215.091L-9.8824 217.728C-11.5476 218.046 -12.6397 219.654 -12.3218 221.319L-9.78846 234.587C-9.47051 236.252 -7.86287 237.344 -6.1977 237.026L7.61688 234.388C9.28205 234.07 10.3742 232.463 10.0562 230.798L7.52293 217.53C7.20498 215.865 5.59735 214.773 3.93217 215.091Z" fill="url(#paint1_linear_62_2)"/>
<path d="M9.5999 189.645L-4.21467 192.282C-5.87985 192.6 -6.97199 194.208 -6.65404 195.873L-4.12073 209.141C-3.80278 210.806 -2.19515 211.898 -0.529972 211.58L13.2846 208.942C14.9498 208.624 16.0419 207.017 15.724 205.352L13.1907 192.084C12.8727 190.419 11.2651 189.327 9.5999 189.645Z" fill="url(#paint2_linear_62_2)"/>
<path d="M5.14238 166.136L-8.67219 168.773C-10.3374 169.091 -11.4295 170.699 -11.1116 172.364L-8.57825 185.632C-8.2603 187.297 -6.65266 188.389 -4.98749 188.071L8.82708 185.433C10.4923 185.115 11.5844 183.508 11.2664 181.842L8.73314 168.575C8.41519 166.91 6.80755 165.818 5.14238 166.136Z" fill="url(#paint3_linear_62_2)"/>
<path d="M28.5936 161.659L14.779 164.296C13.1138 164.614 12.0217 166.222 12.3396 167.887L14.8729 181.155C15.1909 182.82 16.7985 183.912 18.4637 183.594L32.2783 180.956C33.9434 180.638 35.0356 179.031 34.7176 177.365L32.1843 164.098C31.8664 162.433 30.2587 161.341 28.5936 161.659Z" fill="url(#paint4_linear_62_2)"/>
<path d="M2.65412 216.045L-9.75105 218.414C-11.4162 218.732 -12.5084 220.339 -12.1904 222.005L-9.91941 233.898C-9.60146 235.563 -7.99382 236.656 -6.32865 236.338L6.07652 233.969C7.74169 233.651 8.83383 232.043 8.51588 230.378L6.24488 218.485C5.92693 216.819 4.31929 215.727 2.65412 216.045Z" fill="#697087"/>
<path d="M13.7535 236.88L-0.0611099 239.518C-1.72628 239.836 -2.81842 241.443 -2.50047 243.108L0.0328317 256.376C0.350782 258.041 1.95842 259.133 3.62359 258.815L17.4382 256.177C19.1033 255.859 20.1955 254.252 19.8775 252.587L17.3442 239.319C17.0263 237.654 15.4186 236.562 13.7535 236.88Z" fill="url(#paint5_linear_62_2)"/>
<path d="M12.4766 237.84L0.0714585 240.209C-1.59371 240.527 -2.68586 242.134 -2.36791 243.799L-0.096902 255.693C0.221048 257.358 1.82869 258.451 3.49386 258.133L15.899 255.764C17.5642 255.446 18.6563 253.838 18.3384 252.173L16.0674 240.279C15.7494 238.614 14.1418 237.522 12.4766 237.84Z" fill="#697087"/>
<path d="M30.5748 258.045L16.7602 260.683C15.095 261.001 14.0029 262.609 14.3208 264.274L16.8541 277.541C17.1721 279.206 18.7797 280.299 20.4449 279.981L34.2595 277.343C35.9246 277.025 37.0168 275.417 36.6988 273.752L34.1655 260.485C33.8476 258.82 32.2399 257.727 30.5748 258.045Z" fill="url(#paint6_linear_62_2)"/>
<path d="M29.3038 259.004L16.8986 261.373C15.2334 261.691 14.1413 263.299 14.4592 264.964L16.7302 276.858C17.0482 278.523 18.6558 279.615 20.321 279.297L32.7262 276.928C34.3913 276.61 35.4835 275.003 35.1655 273.338L32.8945 261.444C32.5766 259.779 30.9689 258.687 29.3038 259.004Z" fill="#697087"/>
<path d="M53.5337 253.666L39.7192 256.303C38.054 256.621 36.9619 258.229 37.2798 259.894L39.8131 273.162C40.1311 274.827 41.7387 275.919 43.4039 275.601L57.2184 272.963C58.8836 272.645 59.9758 271.038 59.6578 269.373L57.1245 256.105C56.8065 254.44 55.1989 253.348 53.5337 253.666Z" fill="url(#paint7_linear_62_2)"/>
<path d="M192.394 250.804L56.3117 276.788C54.6465 277.106 53.5544 278.713 53.8723 280.378L56.4056 293.646C56.7236 295.311 58.3312 296.403 59.9964 296.085L196.079 270.101C197.744 269.784 198.836 268.176 198.518 266.511L195.985 253.243C195.667 251.578 194.059 250.486 192.394 250.804Z" fill="url(#paint8_linear_62_2)"/>
<path d="M52.5999 254.551L40.1948 256.919C38.5296 257.237 37.4374 258.845 37.7554 260.51L40.0264 272.404C40.3443 274.069 41.952 275.161 43.6172 274.843L56.0223 272.474C57.6875 272.156 58.7796 270.549 58.4617 268.884L56.1907 256.99C55.8727 255.325 54.2651 254.233 52.5999 254.551Z" fill="#697087"/>
<path d="M191.831 251.621L57.3608 277.297C55.6956 277.615 54.6034 279.223 54.9214 280.888L57.1924 292.782C57.5104 294.447 59.118 295.539 60.7832 295.221L195.254 269.545C196.919 269.227 198.011 267.619 197.693 265.954L195.422 254.06C195.104 252.395 193.497 251.303 191.831 251.621Z" fill="#697087"/>
<path d="M77.4903 249.09L63.6757 251.728C62.0105 252.046 60.9184 253.654 61.2363 255.319L63.7696 268.586C64.0876 270.251 65.6952 271.344 67.3604 271.026L81.175 268.388C82.8402 268.07 83.9323 266.462 83.6144 264.797L81.0811 251.53C80.7631 249.864 79.1555 248.772 77.4903 249.09Z" fill="url(#paint9_linear_62_2)"/>
<path d="M76.5577 249.981L64.1525 252.35C62.4873 252.668 61.3952 254.275 61.7132 255.94L63.9842 267.834C64.3021 269.499 65.9097 270.591 67.5749 270.273L79.9801 267.905C81.6453 267.587 82.7374 265.979 82.4194 264.314L80.1484 252.42C79.8305 250.755 78.2228 249.663 76.5577 249.981Z" fill="#697087"/>
<path d="M100.874 244.626L87.059 247.263C85.3938 247.581 84.3017 249.189 84.6196 250.854L87.1529 264.122C87.4709 265.787 89.0785 266.879 90.7437 266.561L104.558 263.923C106.223 263.605 107.316 261.998 106.998 260.332L104.464 247.065C104.146 245.4 102.539 244.308 100.874 244.626Z" fill="url(#paint10_linear_62_2)"/>
<path d="M99.941 245.516L87.5358 247.885C85.8706 248.203 84.7785 249.811 85.0965 251.476L87.3675 263.369C87.6854 265.035 89.293 266.127 90.9582 265.809L103.363 263.44C105.029 263.122 106.121 261.515 105.803 259.849L103.532 247.956C103.214 246.291 101.606 245.198 99.941 245.516Z" fill="#697087"/>
<path d="M124.458 240.125L110.643 242.763C108.978 243.081 107.886 244.689 108.204 246.354L110.737 259.621C111.055 261.286 112.663 262.378 114.328 262.061L128.143 259.423C129.808 259.105 130.9 257.497 130.582 255.832L128.049 242.565C127.731 240.899 126.123 239.807 124.458 240.125Z" fill="url(#paint11_linear_62_2)"/>
<path d="M123.887 240.943L111.482 243.312C109.817 243.63 108.725 245.237 109.042 246.903L111.313 258.796C111.631 260.462 113.239 261.554 114.904 261.236L127.309 258.867C128.975 258.549 130.067 256.941 129.749 255.276L127.478 243.383C127.16 241.717 125.552 240.625 123.887 240.943Z" fill="#697087"/>
<path d="M147.646 235.697L133.831 238.335C132.166 238.653 131.074 240.261 131.392 241.926L133.925 255.193C134.243 256.859 135.851 257.951 137.516 257.633L151.33 254.995C152.996 254.677 154.088 253.069 153.77 251.404L151.237 238.137C150.919 236.472 149.311 235.379 147.646 235.697Z" fill="url(#paint12_linear_62_2)"/>
<path d="M147.075 236.515L134.669 238.884C133.004 239.202 131.912 240.809 132.23 242.475L134.501 254.368C134.819 256.034 136.427 257.126 138.092 256.808L150.497 254.439C152.162 254.121 153.254 252.514 152.936 250.848L150.665 238.955C150.347 237.289 148.74 236.197 147.075 236.515Z" fill="#697087"/>
<path d="M170.752 231.284L156.937 233.922C155.272 234.24 154.18 235.847 154.498 237.513L157.031 250.78C157.349 252.445 158.957 253.537 160.622 253.219L174.437 250.582C176.102 250.264 177.194 248.656 176.876 246.991L174.343 233.723C174.025 232.058 172.417 230.966 170.752 231.284Z" fill="url(#paint13_linear_62_2)"/>
<path d="M170.181 232.102L157.776 234.471C156.111 234.789 155.019 236.396 155.337 238.061L157.608 249.955C157.926 251.62 159.533 252.713 161.198 252.395L173.604 250.026C175.269 249.708 176.361 248.1 176.043 246.435L173.772 234.541C173.454 232.876 171.846 231.784 170.181 232.102Z" fill="#697087"/>
<path d="M194.441 226.765L180.626 229.403C178.961 229.721 177.869 231.328 178.187 232.993L180.72 246.261C181.038 247.926 182.646 249.018 184.311 248.7L198.125 246.062C199.791 245.744 200.883 244.137 200.565 242.472L198.031 229.204C197.714 227.539 196.106 226.447 194.441 226.765Z" fill="url(#paint14_linear_62_2)"/>
<path d="M193.864 227.584L181.458 229.952C179.793 230.27 178.701 231.878 179.019 233.543L181.29 245.437C181.608 247.102 183.216 248.194 184.881 247.876L197.286 245.508C198.951 245.19 200.043 243.582 199.725 241.917L197.454 230.023C197.136 228.358 195.529 227.266 193.864 227.584Z" fill="#697087"/>
<path d="M217.749 222.315L203.934 224.952C202.269 225.27 201.177 226.878 201.495 228.543L204.028 241.811C204.346 243.476 205.954 244.568 207.619 244.25L221.433 241.612C223.098 241.294 224.191 239.687 223.873 238.021L221.339 224.754C221.021 223.089 219.414 221.997 217.749 222.315Z" fill="url(#paint15_linear_62_2)"/>
<path d="M217.172 223.134L204.767 225.502C203.101 225.82 202.009 227.428 202.327 229.093L204.598 240.987C204.916 242.652 206.524 243.744 208.189 243.426L220.594 241.058C222.259 240.74 223.351 239.132 223.033 237.467L220.762 225.573C220.445 223.908 218.837 222.816 217.172 223.134Z" fill="#697087"/>
<path d="M240.821 217.902L227.006 220.54C225.341 220.858 224.249 222.465 224.567 224.131L227.1 237.398C227.418 239.063 229.026 240.155 230.691 239.837L244.505 237.2C246.17 236.882 247.263 235.274 246.945 233.609L244.411 220.341C244.093 218.676 242.486 217.584 240.821 217.902Z" fill="url(#paint16_linear_62_2)"/>
<path d="M240.657 218.644L228.252 221.013C226.587 221.331 225.495 222.938 225.813 224.603L228.084 236.497C228.402 238.162 230.009 239.254 231.675 238.937L244.08 236.568C245.745 236.25 246.837 234.642 246.519 232.977L244.248 221.083C243.93 219.418 242.322 218.326 240.657 218.644Z" fill="#697087"/>
<path d="M305.315 205.594L291.501 208.232C289.835 208.55 288.743 210.158 289.061 211.823L291.595 225.09C291.913 226.755 293.52 227.847 295.185 227.53L309 224.892C310.665 224.574 311.757 222.966 311.439 221.301L308.906 208.034C308.588 206.368 306.98 205.276 305.315 205.594Z" fill="url(#paint17_linear_62_2)"/>
<path d="M305.445 206.277L293.04 208.645C291.375 208.963 290.283 210.571 290.601 212.236L292.872 224.13C293.19 225.795 294.797 226.887 296.463 226.569L308.868 224.2C310.533 223.883 311.625 222.275 311.307 220.61L309.036 208.716C308.718 207.051 307.111 205.959 305.445 206.277Z" fill="#697087"/>
<path d="M309.669 228.408L295.854 231.046C294.189 231.364 293.097 232.972 293.415 234.637L295.948 247.904C296.266 249.569 297.874 250.662 299.539 250.344L313.354 247.706C315.019 247.388 316.111 245.78 315.793 244.115L313.26 230.848C312.942 229.182 311.334 228.09 309.669 228.408Z" fill="url(#paint18_linear_62_2)"/>
<path d="M309.799 229.097L297.394 231.466C295.729 231.784 294.636 233.391 294.954 235.056L297.225 246.95C297.543 248.615 299.151 249.707 300.816 249.389L313.221 247.021C314.886 246.703 315.979 245.095 315.661 243.43L313.39 231.536C313.072 229.871 311.464 228.779 309.799 229.097Z" fill="#697087"/>
<path d="M333.3 223.905L319.486 226.543C317.82 226.861 316.728 228.468 317.046 230.133L319.579 243.401C319.897 245.066 321.505 246.158 323.17 245.84L336.985 243.203C338.65 242.885 339.742 241.277 339.424 239.612L336.891 226.344C336.573 224.679 334.965 223.587 333.3 223.905Z" fill="url(#paint19_linear_62_2)"/>
<path d="M333.43 224.587L321.025 226.956C319.36 227.274 318.268 228.882 318.586 230.547L320.857 242.441C321.175 244.106 322.782 245.198 324.447 244.88L336.853 242.511C338.518 242.193 339.61 240.586 339.292 238.92L337.021 227.027C336.703 225.362 335.095 224.269 333.43 224.587Z" fill="#697087"/>
<path d="M285.637 233.003L271.822 235.641C270.157 235.959 269.065 237.566 269.383 239.232L271.916 252.499C272.234 254.164 273.842 255.256 275.507 254.938L289.322 252.301C290.987 251.983 292.079 250.375 291.761 248.71L289.228 235.442C288.91 233.777 287.302 232.685 285.637 233.003Z" fill="url(#paint20_linear_62_2)"/>
<path d="M285.353 233.763L272.948 236.131C271.283 236.449 270.191 238.057 270.509 239.722L272.78 251.616C273.098 253.281 274.705 254.373 276.371 254.055L288.776 251.687C290.441 251.369 291.533 249.761 291.215 248.096L288.944 236.202C288.626 234.537 287.019 233.445 285.353 233.763Z" fill="#697087"/>
<path d="M37.2979 232.386L23.4833 235.024C21.8181 235.342 20.726 236.95 21.044 238.615L23.5773 251.882C23.8952 253.547 25.5028 254.639 27.168 254.321L40.9826 251.684C42.6478 251.366 43.7399 249.758 43.422 248.093L40.8887 234.826C40.5707 233.16 38.9631 232.068 37.2979 232.386Z" fill="url(#paint21_linear_62_2)"/>
<path d="M36.0206 233.346L23.6154 235.715C21.9502 236.033 20.8581 237.641 21.176 239.306L23.447 251.2C23.765 252.865 25.3726 253.957 27.0378 253.639L39.443 251.27C41.1081 250.952 42.2003 249.345 41.8823 247.68L39.6113 235.786C39.2934 234.121 37.6857 233.028 36.0206 233.346Z" fill="#697087"/>
<path d="M60.7847 227.903L46.9701 230.541C45.305 230.859 44.2128 232.467 44.5308 234.132L47.0641 247.399C47.382 249.065 48.9897 250.157 50.6548 249.839L64.4694 247.201C66.1346 246.883 67.2267 245.275 66.9088 243.61L64.3755 230.343C64.0575 228.678 62.4499 227.586 60.7847 227.903Z" fill="url(#paint22_linear_62_2)"/>
<path d="M60.0003 228.76L47.5951 231.129C45.93 231.447 44.8378 233.055 45.1558 234.72L47.4268 246.614C47.7447 248.279 49.3524 249.371 51.0175 249.053L63.4227 246.684C65.0879 246.366 66.18 244.759 65.8621 243.094L63.5911 231.2C63.2731 229.535 61.6655 228.443 60.0003 228.76Z" fill="#697087"/>
<path d="M84.4256 223.386L70.611 226.024C68.9458 226.342 67.8537 227.95 68.1716 229.615L70.705 242.882C71.0229 244.547 72.6305 245.639 74.2957 245.321L88.1103 242.684C89.7755 242.366 90.8676 240.758 90.5496 239.093L88.0163 225.826C87.6984 224.16 86.0908 223.068 84.4256 223.386Z" fill="url(#paint23_linear_62_2)"/>
<path d="M83.6419 224.249L71.2367 226.618C69.5716 226.936 68.4794 228.543 68.7974 230.208L71.0684 242.102C71.3863 243.767 72.994 244.859 74.6591 244.542L87.0643 242.173C88.7295 241.855 89.8216 240.247 89.5037 238.582L87.2327 226.688C86.9147 225.023 85.3071 223.931 83.6419 224.249Z" fill="#697087"/>
<path d="M107.505 218.984L93.6901 221.622C92.0249 221.94 90.9328 223.548 91.2507 225.213L93.7841 238.48C94.102 240.145 95.7096 241.238 97.3748 240.92L111.189 238.282C112.855 237.964 113.947 236.356 113.629 234.691L111.095 221.424C110.778 219.758 109.17 218.666 107.505 218.984Z" fill="url(#paint24_linear_62_2)"/>
<path d="M106.726 219.84L94.3207 222.209C92.6555 222.527 91.5634 224.134 91.8814 225.799L94.1524 237.693C94.4703 239.358 96.078 240.451 97.7431 240.133L110.148 237.764C111.813 237.446 112.906 235.838 112.588 234.173L110.317 222.279C109.999 220.614 108.391 219.522 106.726 219.84Z" fill="#697087"/>
<path d="M131.364 214.427L117.549 217.064C115.884 217.382 114.792 218.99 115.11 220.655L117.643 233.923C117.961 235.588 119.569 236.68 121.234 236.362L135.048 233.724C136.713 233.406 137.806 231.799 137.488 230.133L134.954 216.866C134.636 215.201 133.029 214.109 131.364 214.427Z" fill="url(#paint25_linear_62_2)"/>
<path d="M130.787 215.252L118.382 217.62C116.717 217.938 115.625 219.546 115.943 221.211L118.214 233.105C118.532 234.77 120.139 235.862 121.805 235.544L134.21 233.176C135.875 232.858 136.967 231.25 136.649 229.585L134.378 217.691C134.06 216.026 132.453 214.934 130.787 215.252Z" fill="#697087"/>
<path d="M154.585 209.992L140.771 212.63C139.106 212.948 138.014 214.556 138.332 216.221L140.865 229.488C141.183 231.154 142.79 232.246 144.456 231.928L158.27 229.29C159.935 228.972 161.028 227.364 160.71 225.699L158.176 212.432C157.858 210.767 156.251 209.674 154.585 209.992Z" fill="url(#paint26_linear_62_2)"/>
<path d="M154.014 210.81L141.609 213.179C139.944 213.497 138.852 215.104 139.17 216.769L141.441 228.663C141.759 230.328 143.367 231.421 145.032 231.103L157.437 228.734C159.102 228.416 160.194 226.808 159.876 225.143L157.605 213.249C157.287 211.584 155.68 210.492 154.014 210.81Z" fill="#697087"/>
<path d="M177.688 205.58L163.873 208.218C162.208 208.536 161.116 210.143 161.434 211.808L163.967 225.076C164.285 226.741 165.893 227.833 167.558 227.515L181.372 224.877C183.037 224.56 184.13 222.952 183.812 221.287L181.278 208.019C180.96 206.354 179.353 205.262 177.688 205.58Z" fill="url(#paint27_linear_62_2)"/>
<path d="M177.116 206.398L164.711 208.767C163.046 209.085 161.954 210.692 162.272 212.357L164.543 224.251C164.861 225.916 166.468 227.008 168.134 226.69L180.539 224.322C182.204 224.004 183.296 222.396 182.978 220.731L180.707 208.837C180.389 207.172 178.781 206.08 177.116 206.398Z" fill="#697087"/>
<path d="M200.984 201.132L187.169 203.77C185.504 204.088 184.412 205.695 184.73 207.361L187.263 220.628C187.581 222.293 189.189 223.385 190.854 223.067L204.668 220.43C206.334 220.112 207.426 218.504 207.108 216.839L204.574 203.571C204.256 201.906 202.649 200.814 200.984 201.132Z" fill="url(#paint28_linear_62_2)"/>
<path d="M200.413 201.956L188.008 204.324C186.343 204.642 185.251 206.25 185.569 207.915L187.84 219.809C188.158 221.474 189.765 222.566 191.431 222.248L203.836 219.88C205.501 219.562 206.593 217.954 206.275 216.289L204.004 204.395C203.686 202.73 202.079 201.638 200.413 201.956Z" fill="#697087"/>
<path d="M224.379 196.666L210.564 199.304C208.899 199.622 207.807 201.23 208.125 202.895L210.658 216.162C210.976 217.827 212.584 218.919 214.249 218.602L228.063 215.964C229.729 215.646 230.821 214.038 230.503 212.373L227.969 199.106C227.652 197.44 226.044 196.348 224.379 196.666Z" fill="url(#paint29_linear_62_2)"/>
<path d="M223.801 197.485L211.396 199.854C209.731 200.172 208.639 201.78 208.957 203.445L211.228 215.338C211.546 217.004 213.153 218.096 214.819 217.778L227.224 215.409C228.889 215.091 229.981 213.484 229.663 211.818L227.392 199.925C227.074 198.26 225.467 197.167 223.801 197.485Z" fill="#697087"/>
<path d="M247.968 192.159L234.154 194.796C232.489 195.114 231.396 196.722 231.714 198.387L234.248 211.655C234.566 213.32 236.173 214.412 237.838 214.094L251.653 211.456C253.318 211.138 254.41 209.531 254.092 207.866L251.559 194.598C251.241 192.933 249.633 191.841 247.968 192.159Z" fill="url(#paint30_linear_62_2)"/>
<path d="M247.811 192.9L235.405 195.268C233.74 195.586 232.648 197.194 232.966 198.859L235.237 210.753C235.555 212.418 237.163 213.51 238.828 213.192L251.233 210.824C252.898 210.506 253.99 208.898 253.672 207.233L251.401 195.339C251.083 193.674 249.476 192.582 247.811 192.9Z" fill="#697087"/>
<path d="M27.0794 210.671L13.2648 213.308C11.5996 213.626 10.5075 215.234 10.8255 216.899L13.3588 230.167C13.6767 231.832 15.2843 232.924 16.9495 232.606L30.7641 229.968C32.4293 229.65 33.5214 228.043 33.2035 226.378L30.6702 213.11C30.3522 211.445 28.7446 210.353 27.0794 210.671Z" fill="url(#paint31_linear_62_2)"/>
<path d="M25.8011 211.625L13.3959 213.994C11.7307 214.312 10.6386 215.919 10.9566 217.585L13.2276 229.478C13.5455 231.143 15.1532 232.236 16.8183 231.918L29.2235 229.549C30.8887 229.231 31.9808 227.623 31.6629 225.958L29.3919 214.064C29.0739 212.399 27.4663 211.307 25.8011 211.625Z" fill="#697087"/>
<path d="M50.1468 206.271L36.3322 208.909C34.667 209.227 33.5749 210.835 33.8928 212.5L36.4261 225.767C36.7441 227.432 38.3517 228.524 40.0169 228.207L53.8315 225.569C55.4967 225.251 56.5888 223.643 56.2708 221.978L53.7375 208.711C53.4196 207.045 51.812 205.953 50.1468 206.271Z" fill="url(#paint32_linear_62_2)"/>
<path d="M49.3226 207.136L36.9174 209.505C35.2522 209.823 34.1601 211.43 34.478 213.095L36.749 224.989C37.067 226.654 38.6746 227.746 40.3398 227.428L52.745 225.06C54.4102 224.742 55.5023 223.134 55.1843 221.469L52.9133 209.575C52.5954 207.91 50.9878 206.818 49.3226 207.136Z" fill="#697087"/>
<path d="M73.563 201.795L59.7485 204.433C58.0833 204.751 56.9911 206.358 57.3091 208.024L59.8424 221.291C60.1604 222.956 61.768 224.048 63.4332 223.73L77.2477 221.093C78.9129 220.775 80.0051 219.167 79.6871 217.502L77.1538 204.234C76.8359 202.569 75.2282 201.477 73.563 201.795Z" fill="url(#paint33_linear_62_2)"/>
<path d="M72.7464 202.665L60.3412 205.033C58.6761 205.351 57.5839 206.959 57.9019 208.624L60.1729 220.518C60.4908 222.183 62.0985 223.275 63.7636 222.957L76.1688 220.588C77.834 220.27 78.9261 218.663 78.6082 216.998L76.3372 205.104C76.0192 203.439 74.4116 202.347 72.7464 202.665Z" fill="#697087"/>
<path d="M97.4578 197.231L83.6432 199.868C81.9781 200.186 80.8859 201.794 81.2039 203.459L83.7372 216.727C84.0551 218.392 85.6628 219.484 87.3279 219.166L101.143 216.528C102.808 216.21 103.9 214.603 103.582 212.937L101.049 199.67C100.731 198.005 99.123 196.913 97.4578 197.231Z" fill="url(#paint34_linear_62_2)"/>
<path d="M96.6338 198.101L84.2287 200.47C82.5635 200.788 81.4714 202.396 81.7893 204.061L84.0603 215.954C84.3783 217.62 85.9859 218.712 87.6511 218.394L100.056 216.025C101.721 215.707 102.814 214.1 102.496 212.434L100.225 200.541C99.9067 198.875 98.299 197.783 96.6338 198.101Z" fill="#697087"/>
<path d="M120.686 192.801L106.871 195.439C105.206 195.757 104.114 197.364 104.432 199.029L106.965 212.297C107.283 213.962 108.891 215.054 110.556 214.736L124.371 212.099C126.036 211.781 127.128 210.173 126.81 208.508L124.277 195.24C123.959 193.575 122.351 192.483 120.686 192.801Z" fill="url(#paint35_linear_62_2)"/>
<path d="M120.109 193.62L107.704 195.989C106.038 196.307 104.946 197.914 105.264 199.58L107.535 211.473C107.853 213.138 109.461 214.231 111.126 213.913L123.531 211.544C125.196 211.226 126.288 209.618 125.97 207.953L123.699 196.059C123.382 194.394 121.774 193.302 120.109 193.62Z" fill="#697087"/>
<path d="M144.275 188.323L130.46 190.961C128.795 191.279 127.703 192.887 128.021 194.552L130.554 207.819C130.872 209.485 132.48 210.577 134.145 210.259L147.96 207.621C149.625 207.303 150.717 205.695 150.399 204.03L147.866 190.763C147.548 189.098 145.94 188.005 144.275 188.323Z" fill="url(#paint36_linear_62_2)"/>
<path d="M143.704 189.141L131.299 191.51C129.634 191.828 128.541 193.435 128.859 195.101L131.13 206.994C131.448 208.659 133.056 209.752 134.721 209.434L147.126 207.065C148.791 206.747 149.884 205.139 149.566 203.474L147.295 191.58C146.977 189.915 145.369 188.823 143.704 189.141Z" fill="#697087"/>
<path d="M167.606 183.869L153.791 186.506C152.126 186.824 151.034 188.432 151.352 190.097L153.885 203.365C154.203 205.03 155.811 206.122 157.476 205.804L171.29 203.166C172.956 202.848 174.048 201.241 173.73 199.576L171.197 186.308C170.879 184.643 169.271 183.551 167.606 183.869Z" fill="url(#paint37_linear_62_2)"/>
<path d="M167.029 184.688L154.623 187.056C152.958 187.374 151.866 188.982 152.184 190.647L154.455 202.541C154.773 204.206 156.381 205.298 158.046 204.98L170.451 202.612C172.116 202.294 173.208 200.686 172.89 199.021L170.619 187.127C170.301 185.462 168.694 184.37 167.029 184.688Z" fill="#697087"/>
<path d="M190.938 179.415L177.123 182.053C175.458 182.371 174.366 183.979 174.684 185.644L177.217 198.911C177.535 200.576 179.143 201.668 180.808 201.351L194.622 198.713C196.288 198.395 197.38 196.787 197.062 195.122L194.529 181.855C194.211 180.189 192.603 179.097 190.938 179.415Z" fill="url(#paint38_linear_62_2)"/>
<path d="M190.367 180.233L177.961 182.602C176.296 182.92 175.204 184.527 175.522 186.193L177.793 198.086C178.111 199.751 179.719 200.844 181.384 200.526L193.789 198.157C195.454 197.839 196.546 196.231 196.228 194.566L193.957 182.672C193.639 181.007 192.032 179.915 190.367 180.233Z" fill="#697087"/>
<path d="M214.332 174.942L200.517 177.58C198.852 177.898 197.76 179.506 198.078 181.171L200.611 194.438C200.929 196.103 202.537 197.196 204.202 196.878L218.016 194.24C219.681 193.922 220.774 192.314 220.456 190.649L217.922 177.382C217.604 175.716 215.997 174.624 214.332 174.942Z" fill="url(#paint39_linear_62_2)"/>
<path d="M213.754 175.761L201.349 178.13C199.684 178.448 198.592 180.056 198.91 181.721L201.181 193.614C201.499 195.28 203.106 196.372 204.771 196.054L217.177 193.685C218.842 193.367 219.934 191.76 219.616 190.094L217.345 178.201C217.027 176.536 215.419 175.443 213.754 175.761Z" fill="#697087"/>
<path d="M237.99 170.429L224.176 173.066C222.511 173.384 221.418 174.992 221.736 176.657L224.27 189.925C224.588 191.59 226.195 192.682 227.86 192.364L241.675 189.726C243.34 189.408 244.432 187.801 244.114 186.135L241.581 172.868C241.263 171.203 239.655 170.111 237.99 170.429Z" fill="url(#paint40_linear_62_2)"/>
<path d="M237.77 171.182L225.365 173.551C223.7 173.868 222.607 175.476 222.925 177.141L225.196 189.035C225.514 190.7 227.122 191.792 228.787 191.474L241.192 189.106C242.857 188.788 243.95 187.18 243.632 185.515L241.361 173.621C241.043 171.956 239.435 170.864 237.77 171.182Z" fill="#697087"/>
<path d="M261.039 166.025L247.225 168.663C245.56 168.981 244.467 170.589 244.785 172.254L247.319 185.521C247.637 187.186 249.244 188.279 250.909 187.961L264.724 185.323C266.389 185.005 267.481 183.397 267.163 181.732L264.63 168.465C264.312 166.799 262.705 165.707 261.039 166.025Z" fill="url(#paint41_linear_62_2)"/>
<path d="M260.819 166.779L248.414 169.147C246.749 169.465 245.656 171.073 245.974 172.738L248.245 184.632C248.563 186.297 250.171 187.389 251.836 187.071L264.241 184.702C265.906 184.384 266.999 182.777 266.681 181.112L264.41 169.218C264.092 167.553 262.484 166.461 260.819 166.779Z" fill="#697087"/>
<path d="M8.73493 190.522L-3.67024 192.891C-5.33541 193.209 -6.42755 194.816 -6.1096 196.482L-3.8386 208.375C-3.52065 210.041 -1.91301 211.133 -0.247839 210.815L12.1573 208.446C13.8225 208.128 14.9146 206.52 14.5967 204.855L12.3257 192.962C12.0077 191.296 10.4001 190.204 8.73493 190.522Z" fill="#697087"/>
<path d="M33.0806 185.162L19.266 187.8C17.6009 188.118 16.5087 189.726 16.8267 191.391L19.36 204.658C19.6779 206.323 21.2856 207.416 22.9507 207.098L36.7653 204.46C38.4305 204.142 39.5226 202.534 39.2047 200.869L36.6714 187.602C36.3534 185.936 34.7458 184.844 33.0806 185.162Z" fill="url(#paint42_linear_62_2)"/>
<path d="M32.2222 186.04L19.8171 188.408C18.1519 188.726 17.0598 190.334 17.3777 191.999L19.6487 203.893C19.9667 205.558 21.5743 206.65 23.2395 206.332L35.6446 203.964C37.3098 203.646 38.4019 202.038 38.084 200.373L35.813 188.479C35.495 186.814 33.8874 185.722 32.2222 186.04Z" fill="#697087"/>
<path d="M56.9349 180.612L43.1203 183.249C41.4551 183.567 40.363 185.175 40.6809 186.84L43.2142 200.108C43.5322 201.773 45.1398 202.865 46.805 202.547L60.6196 199.909C62.2847 199.591 63.3769 197.984 63.0589 196.319L60.5256 183.051C60.2077 181.386 58.6 180.294 56.9349 180.612Z" fill="url(#paint43_linear_62_2)"/>
<path d="M56.0762 181.483L43.6711 183.852C42.0059 184.17 40.9138 185.777 41.2317 187.443L43.5027 199.336C43.8207 201.001 45.4283 202.094 47.0935 201.776L59.4986 199.407C61.1638 199.089 62.256 197.481 61.938 195.816L59.667 183.923C59.349 182.257 57.7414 181.165 56.0762 181.483Z" fill="#697087"/>
<path d="M80.1678 176.17L66.3532 178.808C64.688 179.126 63.5959 180.733 63.9138 182.399L66.4471 195.666C66.7651 197.331 68.3727 198.423 70.0379 198.105L83.8525 195.468C85.5177 195.15 86.6098 193.542 86.2918 191.877L83.7585 178.609C83.4406 176.944 81.8329 175.852 80.1678 176.17Z" fill="url(#paint44_linear_62_2)"/>
<path d="M79.598 176.994L67.1928 179.363C65.5276 179.68 64.4355 181.288 64.7534 182.953L67.0244 194.847C67.3424 196.512 68.95 197.604 70.6152 197.286L83.0204 194.918C84.6855 194.6 85.7777 192.992 85.4597 191.327L83.1887 179.433C82.8708 177.768 81.2631 176.676 79.598 176.994Z" fill="#697087"/>
<path d="M103.977 171.627L90.162 174.265C88.4969 174.583 87.4047 176.191 87.7227 177.856L90.256 191.123C90.5739 192.789 92.1816 193.881 93.8467 193.563L107.661 190.925C109.326 190.607 110.419 188.999 110.101 187.334L107.567 174.067C107.249 172.402 105.642 171.309 103.977 171.627Z" fill="url(#paint45_linear_62_2)"/>
<path d="M103.406 172.445L91.0004 174.814C89.3352 175.132 88.2431 176.739 88.5611 178.405L90.8321 190.298C91.15 191.963 92.7576 193.056 94.4228 192.738L106.828 190.369C108.493 190.051 109.585 188.443 109.267 186.778L106.996 174.885C106.678 173.219 105.071 172.127 103.406 172.445Z" fill="#697087"/>
<path d="M127.284 167.177L113.47 169.815C111.805 170.133 110.713 171.741 111.031 173.406L113.564 186.673C113.882 188.338 115.489 189.43 117.155 189.113L130.969 186.475C132.634 186.157 133.726 184.549 133.409 182.884L130.875 169.617C130.557 167.951 128.95 166.859 127.284 167.177Z" fill="url(#paint46_linear_62_2)"/>
<path d="M126.713 167.995L114.308 170.364C112.643 170.682 111.551 172.289 111.869 173.955L114.14 185.848C114.458 187.513 116.066 188.606 117.731 188.288L130.136 185.919C131.801 185.601 132.893 183.993 132.575 182.328L130.304 170.434C129.986 168.769 128.379 167.677 126.713 167.995Z" fill="#697087"/>
<path d="M150.719 162.704L136.904 165.341C135.239 165.659 134.147 167.267 134.465 168.932L136.998 182.2C137.316 183.865 138.924 184.957 140.589 184.639L154.404 182.001C156.069 181.683 157.161 180.076 156.843 178.41L154.31 165.143C153.992 163.478 152.384 162.386 150.719 162.704Z" fill="url(#paint47_linear_62_2)"/>
<path d="M150.148 163.522L137.743 165.89C136.078 166.208 134.986 167.816 135.303 169.481L137.574 181.375C137.892 183.04 139.5 184.132 141.165 183.814L153.57 181.445C155.236 181.127 156.328 179.52 156.01 177.855L153.739 165.961C153.421 164.296 151.813 163.204 150.148 163.522Z" fill="#697087"/>
<path d="M174.412 158.177L160.598 160.815C158.933 161.133 157.841 162.741 158.158 164.406L160.692 177.673C161.01 179.338 162.617 180.43 164.283 180.113L178.097 177.475C179.762 177.157 180.854 175.549 180.536 173.884L178.003 160.617C177.685 158.951 176.078 157.859 174.412 158.177Z" fill="url(#paint48_linear_62_2)"/>
<path d="M173.835 158.996L161.43 161.365C159.765 161.683 158.673 163.29 158.991 164.956L161.262 176.849C161.58 178.515 163.187 179.607 164.853 179.289L177.258 176.92C178.923 176.602 180.015 174.994 179.697 173.329L177.426 161.436C177.108 159.77 175.5 158.678 173.835 158.996Z" fill="#697087"/>
<path d="M198.094 153.652L184.279 156.29C182.614 156.608 181.522 158.215 181.84 159.881L184.373 173.148C184.691 174.813 186.299 175.905 187.964 175.587L201.778 172.95C203.443 172.632 204.536 171.024 204.218 169.359L201.684 156.091C201.366 154.426 199.759 153.334 198.094 153.652Z" fill="url(#paint49_linear_62_2)"/>
<path d="M197.523 154.476L185.118 156.844C183.453 157.162 182.361 158.77 182.679 160.435L184.95 172.329C185.268 173.994 186.876 175.086 188.541 174.768L200.946 172.4C202.611 172.082 203.703 170.474 203.385 168.809L201.114 156.915C200.796 155.25 199.189 154.158 197.523 154.476Z" fill="#697087"/>
<path d="M221.656 149.161L207.841 151.799C206.176 152.117 205.084 153.724 205.402 155.39L207.935 168.657C208.253 170.322 209.861 171.414 211.526 171.096L225.34 168.459C227.005 168.141 228.098 166.533 227.78 164.868L225.246 151.6C224.928 149.935 223.321 148.843 221.656 149.161Z" fill="url(#paint50_linear_62_2)"/>
<path d="M221.079 149.98L208.674 152.349C207.008 152.667 205.916 154.274 206.234 155.939L208.505 167.833C208.823 169.498 210.431 170.59 212.096 170.272L224.501 167.904C226.166 167.586 227.258 165.978 226.94 164.313L224.669 152.419C224.351 150.754 222.744 149.662 221.079 149.98Z" fill="#697087"/>
<path d="M245.216 144.659L231.402 147.297C229.737 147.615 228.644 149.222 228.962 150.888L231.496 164.155C231.814 165.82 233.421 166.912 235.086 166.594L248.901 163.957C250.566 163.639 251.658 162.031 251.34 160.366L248.807 147.098C248.489 145.433 246.882 144.341 245.216 144.659Z" fill="url(#paint51_linear_62_2)"/>
<path d="M245.008 145.41L232.603 147.779C230.938 148.097 229.845 149.704 230.163 151.369L232.434 163.263C232.752 164.928 234.36 166.02 236.025 165.703L248.43 163.334C250.095 163.016 251.188 161.408 250.87 159.743L248.599 147.849C248.281 146.184 246.673 145.092 245.008 145.41Z" fill="#697087"/>
<path d="M4.14582 167.038L-8.25935 169.406C-9.92452 169.724 -11.0167 171.332 -10.6987 172.997L-8.42771 184.891C-8.10976 186.556 -6.50212 187.648 -4.83695 187.33L7.56822 184.961C9.23339 184.643 10.3255 183.036 10.0076 181.371L7.73658 169.477C7.41863 167.812 5.81099 166.72 4.14582 167.038Z" fill="#697087"/>
<path d="M27.7362 162.536L15.331 164.905C13.6658 165.223 12.5737 166.83 12.8916 168.495L15.1626 180.389C15.4806 182.054 17.0882 183.146 18.7534 182.829L31.1586 180.46C32.8237 180.142 33.9159 178.534 33.5979 176.869L31.3269 164.975C31.009 163.31 29.4013 162.218 27.7362 162.536Z" fill="#697087"/>
<path d="M52.0279 157.179L38.2133 159.817C36.5481 160.135 35.456 161.742 35.7739 163.408L38.3072 176.675C38.6252 178.34 40.2328 179.432 41.898 179.114L55.7126 176.477C57.3778 176.159 58.4699 174.551 58.1519 172.886L55.6186 159.618C55.3007 157.953 53.6931 156.861 52.0279 157.179Z" fill="url(#paint52_linear_62_2)"/>
<path d="M75.6758 152.666L61.8613 155.304C60.1961 155.622 59.1039 157.23 59.4219 158.895L61.9552 172.162C62.2731 173.828 63.8808 174.92 65.546 174.602L79.3605 171.964C81.0257 171.646 82.1179 170.038 81.7999 168.373L79.2666 155.106C78.9486 153.441 77.341 152.348 75.6758 152.666Z" fill="url(#paint53_linear_62_2)"/>
<path d="M51.1707 158.062L38.7655 160.431C37.1004 160.749 36.0082 162.357 36.3262 164.022L38.5972 175.916C38.9151 177.581 40.5228 178.673 42.1879 178.355L54.5931 175.986C56.2583 175.668 57.3504 174.061 57.0325 172.396L54.7615 160.502C54.4435 158.837 52.8359 157.745 51.1707 158.062Z" fill="#697087"/>
<path d="M75.1048 153.484L62.6996 155.853C61.0345 156.171 59.9423 157.779 60.2603 159.444L62.5313 171.338C62.8492 173.003 64.4569 174.095 66.122 173.777L78.5272 171.408C80.1924 171.09 81.2845 169.483 80.9666 167.817L78.6956 155.924C78.3776 154.259 76.77 153.166 75.1048 153.484Z" fill="#697087"/>
<path d="M99.4895 148.118L85.675 150.755C84.0098 151.073 82.9177 152.681 83.2356 154.346L85.7689 167.614C86.0869 169.279 87.6945 170.371 89.3597 170.053L103.174 167.415C104.839 167.097 105.932 165.49 105.614 163.824L103.08 150.557C102.762 148.892 101.155 147.8 99.4895 148.118Z" fill="url(#paint54_linear_62_2)"/>
<path d="M98.9185 148.936L86.5133 151.304C84.8482 151.622 83.756 153.23 84.074 154.895L86.345 166.789C86.6629 168.454 88.2706 169.546 89.9358 169.228L102.341 166.859C104.006 166.541 105.098 164.934 104.78 163.269L102.509 151.375C102.191 149.71 100.584 148.618 98.9185 148.936Z" fill="#697087"/>
<path d="M122.798 143.668L108.983 146.305C107.318 146.623 106.226 148.231 106.544 149.896L109.077 163.164C109.395 164.829 111.003 165.921 112.668 165.603L126.483 162.965C128.148 162.647 129.24 161.04 128.922 159.374L126.389 146.107C126.071 144.442 124.463 143.35 122.798 143.668Z" fill="url(#paint55_linear_62_2)"/>
<path d="M122.226 144.486L109.821 146.854C108.156 147.172 107.064 148.78 107.382 150.445L109.653 162.339C109.971 164.004 111.578 165.096 113.244 164.778L125.649 162.409C127.314 162.091 128.406 160.484 128.088 158.819L125.817 146.925C125.499 145.26 123.892 144.168 122.226 144.486Z" fill="#697087"/>
<path d="M146.232 139.194L132.418 141.832C130.752 142.15 129.66 143.757 129.978 145.423L132.512 158.69C132.83 160.355 134.437 161.447 136.102 161.129L149.917 158.492C151.582 158.174 152.674 156.566 152.356 154.901L149.823 141.633C149.505 139.968 147.897 138.876 146.232 139.194Z" fill="url(#paint56_linear_62_2)"/>
<path d="M145.662 140.018L133.257 142.386C131.592 142.704 130.5 144.312 130.818 145.977L133.089 157.871C133.407 159.536 135.014 160.628 136.679 160.31L149.085 157.942C150.75 157.624 151.842 156.016 151.524 154.351L149.253 142.457C148.935 140.792 147.327 139.7 145.662 140.018Z" fill="#697087"/>
<path d="M169.927 134.674L156.112 137.311C154.447 137.629 153.355 139.237 153.673 140.902L156.206 154.17C156.524 155.835 158.132 156.927 159.797 156.609L173.611 153.971C175.276 153.653 176.369 152.046 176.051 150.38L173.517 137.113C173.199 135.448 171.592 134.356 169.927 134.674Z" fill="url(#paint57_linear_62_2)"/>
<path d="M169.349 135.493L156.944 137.861C155.279 138.179 154.187 139.787 154.505 141.452L156.776 153.346C157.094 155.011 158.701 156.103 160.367 155.785L172.772 153.417C174.437 153.099 175.529 151.491 175.211 149.826L172.94 137.932C172.622 136.267 171.015 135.175 169.349 135.493Z" fill="#697087"/>
<path d="M193.608 130.148L179.793 132.786C178.128 133.104 177.036 134.712 177.354 136.377L179.887 149.644C180.205 151.309 181.813 152.402 183.478 152.084L197.293 149.446C198.958 149.128 200.05 147.52 199.732 145.855L197.199 132.588C196.881 130.922 195.273 129.83 193.608 130.148Z" fill="url(#paint58_linear_62_2)"/>
<path d="M193.031 130.967L180.626 133.336C178.96 133.654 177.868 135.262 178.186 136.927L180.457 148.82C180.775 150.486 182.383 151.578 184.048 151.26L196.453 148.891C198.118 148.573 199.211 146.966 198.893 145.3L196.622 133.407C196.304 131.742 194.696 130.649 193.031 130.967Z" fill="#697087"/>
<path d="M217.168 125.651L203.354 128.289C201.689 128.607 200.597 130.215 200.915 131.88L203.448 145.147C203.766 146.813 205.373 147.905 207.039 147.587L220.853 144.949C222.518 144.631 223.611 143.023 223.293 141.358L220.759 128.091C220.441 126.426 218.834 125.333 217.168 125.651Z" fill="url(#paint59_linear_62_2)"/>
<path d="M216.592 126.47L204.186 128.839C202.521 129.157 201.429 130.765 201.747 132.43L204.018 144.324C204.336 145.989 205.944 147.081 207.609 146.763L220.014 144.394C221.679 144.076 222.771 142.469 222.453 140.803L220.182 128.91C219.864 127.245 218.257 126.152 216.592 126.47Z" fill="#697087"/>
<path d="M240.724 121.149L226.909 123.787C225.244 124.105 224.152 125.713 224.47 127.378L227.003 140.645C227.321 142.311 228.929 143.403 230.594 143.085L244.408 140.447C246.074 140.129 247.166 138.521 246.848 136.856L244.314 123.589C243.996 121.924 242.389 120.831 240.724 121.149Z" fill="url(#paint60_linear_62_2)"/>
<path d="M240.521 121.9L228.116 124.269C226.45 124.587 225.358 126.195 225.676 127.86L227.947 139.754C228.265 141.419 229.873 142.511 231.538 142.193L243.943 139.824C245.608 139.506 246.701 137.899 246.383 136.234L244.112 124.34C243.794 122.675 242.186 121.582 240.521 121.9Z" fill="#697087"/>
<path d="M263.676 116.771L249.862 119.409C248.197 119.727 247.104 121.334 247.422 123L249.956 136.267C250.274 137.932 251.881 139.024 253.546 138.706L267.361 136.069C269.026 135.751 270.118 134.143 269.8 132.478L267.267 119.21C266.949 117.545 265.342 116.453 263.676 116.771Z" fill="url(#paint61_linear_62_2)"/>
<path d="M263.472 117.516L251.067 119.885C249.402 120.203 248.31 121.81 248.628 123.475L250.899 135.369C251.217 137.034 252.825 138.127 254.49 137.809L266.895 135.44C268.56 135.122 269.652 133.514 269.334 131.849L267.063 119.955C266.745 118.29 265.138 117.198 263.472 117.516Z" fill="#9CA4BA"/>
<path d="M7.05704 262.539L-37.265 271.002C-38.9301 271.32 -40.0223 272.928 -39.7043 274.593L-37.171 287.86C-36.8531 289.526 -35.2454 290.618 -33.5803 290.3L10.7417 281.837C12.4069 281.519 13.4991 279.911 13.1811 278.246L10.6478 264.979C10.3299 263.313 8.72221 262.221 7.05704 262.539Z" fill="url(#paint62_linear_62_2)"/>
<path d="M5.6738 263.514L-37.1258 271.686C-38.791 272.004 -39.8831 273.612 -39.5652 275.277L-37.2942 287.171C-36.9762 288.836 -35.3686 289.928 -33.7034 289.61L9.09621 281.438C10.7614 281.12 11.8535 279.512 11.5356 277.847L9.26457 265.953C8.94662 264.288 7.33898 263.196 5.6738 263.514Z" fill="#9CA4BA"/>
<path d="M18.1016 284.084L-1.38631 287.806C-3.05148 288.123 -4.14362 289.731 -3.82567 291.396L-1.29236 304.664C-0.974414 306.329 0.633226 307.421 2.2984 307.103L21.7863 303.382C23.4515 303.064 24.5436 301.456 24.2256 299.791L21.6923 286.524C21.3744 284.859 19.7668 283.767 18.1016 284.084Z" fill="url(#paint63_linear_62_2)"/>
<path d="M16.5091 285.105L-1.25423 288.496C-2.9194 288.814 -4.01154 290.422 -3.69359 292.087L-1.42258 303.981C-1.10463 305.646 0.503005 306.738 2.16818 306.42L19.9315 303.028C21.5966 302.711 22.6888 301.103 22.3708 299.438L20.0998 287.544C19.7819 285.879 18.1742 284.787 16.5091 285.105Z" fill="#9CA4BA"/>
<path d="M47.1792 278.529L27.6913 282.25C26.0262 282.568 24.934 284.176 25.252 285.841L27.7853 299.109C28.1032 300.774 29.7109 301.866 31.376 301.548L50.8639 297.827C52.5291 297.509 53.6212 295.901 53.3033 294.236L50.77 280.969C50.452 279.304 48.8444 278.211 47.1792 278.529Z" fill="url(#paint64_linear_62_2)"/>
<path d="M45.5865 279.549L27.8232 282.941C26.158 283.259 25.0659 284.867 25.3838 286.532L27.6548 298.426C27.9728 300.091 29.5804 301.183 31.2456 300.865L49.0089 297.473C50.674 297.155 51.7662 295.548 51.4482 293.883L49.1772 281.989C48.8593 280.324 47.2516 279.231 45.5865 279.549Z" fill="#9CA4BA"/>
<path d="M287.484 112.223L273.669 114.861C272.004 115.179 270.912 116.787 271.23 118.452L273.763 131.719C274.081 133.385 275.689 134.477 277.354 134.159L291.169 131.521C292.834 131.203 293.926 129.595 293.608 127.93L291.075 114.663C290.757 112.998 289.149 111.906 287.484 112.223Z" fill="url(#paint65_linear_62_2)"/>
<path d="M287.614 112.912L275.209 115.281C273.544 115.599 272.452 117.206 272.77 118.871L275.041 130.765C275.358 132.43 276.966 133.523 278.631 133.205L291.036 130.836C292.702 130.518 293.794 128.91 293.476 127.245L291.205 115.351C290.887 113.686 289.279 112.594 287.614 112.912Z" fill="#9CA4BA"/>
<path d="M311.114 107.714L297.299 110.352C295.634 110.67 294.542 112.278 294.86 113.943L297.393 127.21C297.711 128.876 299.319 129.968 300.984 129.65L314.799 127.012C316.464 126.694 317.556 125.086 317.238 123.421L314.705 110.154C314.387 108.489 312.779 107.396 311.114 107.714Z" fill="url(#paint66_linear_62_2)"/>
<path d="M311.244 108.397L298.839 110.765C297.174 111.083 296.081 112.691 296.399 114.356L298.67 126.25C298.988 127.915 300.596 129.007 302.261 128.689L314.666 126.321C316.332 126.003 317.424 124.395 317.106 122.73L314.835 110.836C314.517 109.171 312.909 108.079 311.244 108.397Z" fill="#9CA4BA"/>
<path d="M315.601 131.218L301.786 133.856C300.121 134.174 299.029 135.781 299.347 137.446L301.88 150.714C302.198 152.379 303.806 153.471 305.471 153.153L319.286 150.515C320.951 150.197 322.043 148.59 321.725 146.925L319.192 133.657C318.874 131.992 317.266 130.9 315.601 131.218Z" fill="url(#paint67_linear_62_2)"/>
<path d="M315.731 131.906L303.326 134.275C301.661 134.593 300.569 136.201 300.886 137.866L303.157 149.76C303.475 151.425 305.083 152.517 306.748 152.199L319.153 149.83C320.819 149.512 321.911 147.905 321.593 146.239L319.322 134.346C319.004 132.681 317.396 131.588 315.731 131.906Z" fill="#9CA4BA"/>
<path d="M320.092 154.75L306.278 157.388C304.613 157.706 303.52 159.313 303.838 160.978L306.372 174.246C306.69 175.911 308.297 177.003 309.962 176.685L323.777 174.047C325.442 173.73 326.534 172.122 326.216 170.457L323.683 157.189C323.365 155.524 321.758 154.432 320.092 154.75Z" fill="url(#paint68_linear_62_2)"/>
<path d="M320.229 155.438L307.823 157.807C306.158 158.125 305.066 159.733 305.384 161.398L307.655 173.292C307.973 174.957 309.581 176.049 311.246 175.731L323.651 173.362C325.316 173.044 326.408 171.437 326.09 169.772L323.819 157.878C323.501 156.213 321.894 155.121 320.229 155.438Z" fill="#9CA4BA"/>
<path d="M324.45 177.558L310.635 180.196C308.97 180.514 307.878 182.122 308.196 183.787L310.729 197.054C311.047 198.72 312.655 199.812 314.32 199.494L328.134 196.856C329.8 196.538 330.892 194.93 330.574 193.265L328.041 179.998C327.723 178.333 326.115 177.24 324.45 177.558Z" fill="url(#paint69_linear_62_2)"/>
<path d="M324.58 178.247L312.175 180.616C310.51 180.934 309.418 182.541 309.736 184.206L312.007 196.1C312.325 197.765 313.932 198.857 315.597 198.539L328.003 196.171C329.668 195.853 330.76 194.245 330.442 192.58L328.171 180.686C327.853 179.021 326.245 177.929 324.58 178.247Z" fill="#9CA4BA"/>
<path d="M328.945 201.079L315.131 203.717C313.465 204.034 312.373 205.642 312.691 207.307L315.224 220.575C315.542 222.24 317.15 223.332 318.815 223.014L332.63 220.376C334.295 220.058 335.387 218.451 335.069 216.786L332.536 203.518C332.218 201.853 330.61 200.761 328.945 201.079Z" fill="url(#paint70_linear_62_2)"/>
<path d="M329.075 201.761L316.67 204.13C315.005 204.448 313.913 206.055 314.23 207.721L316.501 219.614C316.819 221.28 318.427 222.372 320.092 222.054L332.497 219.685C334.163 219.367 335.255 217.759 334.937 216.094L332.666 204.201C332.348 202.535 330.74 201.443 329.075 201.761Z" fill="#9CA4BA"/>
<path d="M215.948 246.304L202.133 248.942C200.468 249.26 199.376 250.867 199.694 252.533L202.227 265.8C202.545 267.465 204.153 268.557 205.818 268.239L219.632 265.602C221.298 265.284 222.39 263.676 222.072 262.011L219.539 248.743C219.221 247.078 217.613 245.986 215.948 246.304Z" fill="url(#paint71_linear_62_2)"/>
<path d="M215.371 247.123L202.966 249.492C201.301 249.81 200.208 251.417 200.526 253.082L202.797 264.976C203.115 266.641 204.723 267.733 206.388 267.416L218.793 265.047C220.458 264.729 221.551 263.121 221.233 261.456L218.962 249.562C218.644 247.897 217.036 246.805 215.371 247.123Z" fill="#9CA4BA"/>
<path d="M239.055 241.897L225.241 244.535C223.576 244.853 222.484 246.46 222.802 248.125L225.335 261.393C225.653 263.058 227.26 264.15 228.926 263.832L242.74 261.194C244.405 260.877 245.497 259.269 245.18 257.604L242.646 244.336C242.328 242.671 240.721 241.579 239.055 241.897Z" fill="url(#paint72_linear_62_2)"/>
<path d="M238.932 242.632L226.527 245.001C224.862 245.319 223.77 246.926 224.088 248.591L226.359 260.485C226.677 262.15 228.284 263.243 229.95 262.925L242.355 260.556C244.02 260.238 245.112 258.63 244.794 256.965L242.523 245.071C242.205 243.406 240.598 242.314 238.932 242.632Z" fill="#9CA4BA"/>
<path d="M262.553 237.406L248.738 240.044C247.073 240.362 245.981 241.969 246.299 243.634L248.832 256.902C249.15 258.567 250.758 259.659 252.423 259.341L266.238 256.704C267.903 256.386 268.995 254.778 268.677 253.113L266.144 239.845C265.826 238.18 264.218 237.088 262.553 237.406Z" fill="url(#paint73_linear_62_2)"/>
<path d="M262.43 238.141L250.025 240.51C248.36 240.828 247.268 242.436 247.586 244.101L249.857 255.994C250.175 257.66 251.783 258.752 253.448 258.434L265.853 256.065C267.518 255.747 268.61 254.14 268.292 252.474L266.021 240.581C265.703 238.916 264.096 237.823 262.43 238.141Z" fill="#9CA4BA"/>
<path d="M291.968 135.732L254.717 142.845C253.052 143.163 251.96 144.771 252.278 146.436L254.811 159.703C255.129 161.369 256.737 162.461 258.402 162.143L295.653 155.03C297.318 154.712 298.41 153.104 298.092 151.439L295.559 138.172C295.241 136.507 293.634 135.414 291.968 135.732Z" fill="url(#paint74_linear_62_2)"/>
<path d="M292.103 136.415L256.339 143.244C254.674 143.562 253.581 145.169 253.899 146.835L256.17 158.728C256.488 160.394 258.096 161.486 259.761 161.168L295.526 154.339C297.191 154.021 298.283 152.413 297.965 150.748L295.694 138.854C295.376 137.189 293.768 136.097 292.103 136.415Z" fill="#9CA4BA"/>
<path d="M296.465 159.261L270.887 164.145C269.222 164.463 268.13 166.071 268.448 167.736L270.981 181.003C271.299 182.669 272.907 183.761 274.572 183.443L300.149 178.559C301.814 178.241 302.907 176.633 302.589 174.968L300.055 161.701C299.737 160.036 298.13 158.944 296.465 159.261Z" fill="url(#paint75_linear_62_2)"/>
<path d="M296.594 159.952L272.824 164.49C271.159 164.808 270.067 166.416 270.385 168.081L272.656 179.975C272.974 181.64 274.582 182.732 276.247 182.414L300.016 177.875C301.682 177.558 302.774 175.95 302.456 174.285L300.185 162.391C299.867 160.726 298.259 159.634 296.594 159.952Z" fill="#9CA4BA"/>
<path d="M300.823 182.069L257.114 190.415C255.449 190.733 254.356 192.34 254.674 194.006L257.208 207.273C257.526 208.938 259.133 210.03 260.798 209.712L304.508 201.366C306.173 201.048 307.265 199.441 306.947 197.776L304.414 184.508C304.096 182.843 302.488 181.751 300.823 182.069Z" fill="url(#paint76_linear_62_2)"/>
<path d="M300.955 182.758L258.923 190.784C257.257 191.102 256.165 192.709 256.483 194.374L258.754 206.268C259.072 207.933 260.68 209.025 262.345 208.708L304.377 200.682C306.043 200.364 307.135 198.756 306.817 197.091L304.546 185.197C304.228 183.532 302.62 182.44 300.955 182.758Z" fill="#9CA4BA"/>
<path d="M281.274 210.151L250.273 216.071C248.607 216.388 247.515 217.996 247.833 219.661L250.367 232.929C250.685 234.594 252.292 235.686 253.957 235.368L284.958 229.449C286.624 229.131 287.716 227.523 287.398 225.858L284.864 212.591C284.546 210.925 282.939 209.833 281.274 210.151Z" fill="url(#paint77_linear_62_2)"/>
<path d="M280.569 210.998L252.084 216.437C250.418 216.755 249.326 218.362 249.644 220.028L251.915 231.921C252.233 233.587 253.841 234.679 255.506 234.361L283.992 228.922C285.657 228.604 286.749 226.996 286.431 225.331L284.16 213.437C283.842 211.772 282.234 210.68 280.569 210.998Z" fill="#9CA4BA"/>
<path d="M10 150.5L236.5 71L45 31.5L10 150.5Z" fill="url(#paint78_linear_62_2)"/>
<path d="M42.082 -12.1522L190.582 -46.5098L240.727 56.2836C243.832 62.6495 240.2 70.2482 233.295 71.829L65.6814 110.204C57.9014 111.985 50.3683 106.4 49.8118 98.4379L42.082 -12.1522Z" fill="#697087"/>
<path d="M44 -15.1424L192.5 -49.5L242.645 53.2934C245.75 59.6592 242.118 67.258 235.213 68.8387L65.3209 107.735C58.7377 109.242 52.3636 104.516 51.8928 97.7794L44 -15.1424Z" fill="#9CA4BA"/>
<rect x="-10.8135" y="-1.28479" width="241.95" height="37.7419" transform="rotate(-9.3448 -10.8135 -1.28479)" fill="#1A2136"/>
<rect width="237" height="176.333" rx="8" transform="matrix(0.955542 -0.294854 0.295702 0.95528 311 69.8804)" fill="#312E81"/>
<path d="M315.28 74.6276C314.298 71.456 316.079 68.0924 319.254 67.1221L573.309 -10.5215C576.472 -11.4882 579.823 -9.71366 580.801 -6.55419L628.721 148.253C629.703 151.424 627.922 154.788 624.746 155.758L370.691 233.402C367.528 234.369 364.177 232.594 363.199 229.435L315.28 74.6276Z" fill="#4F46E5"/>
<path d="M-29 39.9429L403.83 -31.2833L499.528 67.9428L-12.6714 139.169L-29 39.9429Z" fill="url(#paint79_linear_62_2)"/>
<path d="M295.534 44.5483L287 59L278.452 44.5483L264 36L278.452 27.4663L287 13L295.534 27.4663L310 36L295.534 44.5483Z" fill="white"/>
<path d="M34.5986 130.799L24.7993 121L15 130.799L24.7993 140.599L34.5986 130.799Z" fill="white"/>
<path d="M416.599 264.799L406.799 255L397 264.799L406.799 274.599L416.599 264.799Z" fill="white"/>
<path d="M535.413 67.9431C551.508 87.5994 554.51 131.914 523.652 140.005C489.615 146.049 460.841 146.628 442.349 146.25C432.137 146.041 424.945 135.511 428.226 125.838C436.295 102.052 440.365 91.1151 449.652 58.0047C474.65 37.536 519.318 48.2868 535.413 67.9431Z" fill="url(#paint80_linear_62_2)"/>
<path d="M540.595 73.7378L502.459 35.9326C497.336 30.8518 489.992 28.6941 482.933 30.194L460.951 34.8585C459.072 35.2596 458.349 37.5552 459.666 38.9586L490.022 71.2973C489.017 72.0714 488.038 72.898 487.093 73.7852C471.345 88.5758 470.558 113.336 485.349 129.092C500.139 144.848 524.903 145.631 540.659 130.841C556.415 116.05 557.198 91.2862 542.408 75.5301C541.82 74.9041 541.212 74.3131 540.595 73.7299L540.595 73.7378Z" fill="url(#paint81_linear_62_2)"/>
<path d="M530.029 63.2448L502.463 35.9211C497.34 30.8402 489.996 28.6826 482.938 30.1824L460.959 34.851C459.08 35.2522 458.36 37.5519 459.674 38.9511L460.999 40.3627L460.929 40.3049L459.759 41.4033L458.496 40.0572C457.182 38.658 454.842 39.2311 454.323 41.0806L448.279 62.7166C446.336 69.6662 448.026 77.1317 452.773 82.5658L478.301 111.802C485.634 120.196 496.058 125.266 507.191 125.844L522.895 126.658L526.145 125.924C534.51 124.036 540.833 117.178 542.038 108.688L542.218 92.9646C542.344 81.8168 537.947 71.0897 530.029 63.2448Z" fill="white"/>
<path d="M523.941 108.251C530.348 102.236 533.941 94.0844 534.052 85.2983C534.163 76.5122 530.783 68.2708 524.535 62.0904L492.374 30.306C491.712 30.1501 491.041 30.0257 490.366 29.9289C490.578 30.1222 490.778 30.3111 490.963 30.4917L523.744 62.8872C529.776 68.8463 533.038 76.7982 532.929 85.2826C532.82 93.7591 529.355 101.629 523.173 107.433C516.991 113.236 508.921 116.2 500.451 115.77C491.984 115.343 484.255 111.585 478.68 105.188L447.987 69.9328C447.827 69.7451 447.662 69.5533 447.502 69.3497C447.525 69.9975 447.592 70.6428 447.675 71.2806L477.831 105.924C483.601 112.553 491.612 116.447 500.392 116.887C509.167 117.332 517.53 114.261 523.937 108.247L523.941 108.251Z" fill="#9CA4BA"/>
<path d="M459.759 41.4033L460.929 40.3048L498.307 80.1227C498.61 80.4459 498.594 80.9536 498.271 81.257C497.948 81.5604 497.44 81.5444 497.137 81.2211L459.759 41.4033Z" fill="#9CA4BA"/>
<path d="M468.821 49.868L468.817 49.8719C467.014 51.5645 466.924 54.3985 468.617 56.2017L476.456 64.5523C478.148 66.3555 480.982 66.4451 482.785 64.7524L482.79 64.7486C484.593 63.0559 484.682 60.222 482.99 58.4188L475.151 50.0681C473.458 48.265 470.624 48.1754 468.821 49.868Z" fill="#F87171"/>
<path d="M476.66 55.3325L473.771 58.044C473.426 58.3685 473.407 58.9109 473.731 59.2555C474.054 59.6001 474.597 59.6164 474.943 59.2919L477.831 56.5804C478.177 56.2558 478.195 55.7134 477.871 55.3688C477.548 55.0242 477.006 55.0079 476.66 55.3325Z" fill="#DC2626"/>
<path d="M474.544 53.078L471.655 55.7895C471.309 56.1141 471.291 56.6565 471.615 57.0011C471.938 57.3457 472.481 57.3619 472.826 57.0374L475.715 54.3259C476.061 54.0014 476.079 53.4589 475.755 53.1143C475.432 52.7697 474.889 52.7535 474.544 53.078Z" fill="#DC2626"/>
<path d="M472.424 50.8195L469.535 53.531C469.189 53.8556 469.171 54.398 469.495 54.7426C469.818 55.0872 470.361 55.1035 470.707 54.7789L473.595 52.0674C473.941 51.7429 473.959 51.2004 473.635 50.8559C473.312 50.5113 472.769 50.495 472.424 50.8195Z" fill="#DC2626"/>
<path d="M478.78 57.591L475.891 60.3025C475.546 60.627 475.528 61.1694 475.851 61.514C476.175 61.8586 476.717 61.8749 477.063 61.5503L479.951 58.8388C480.297 58.5143 480.315 57.9719 479.992 57.6273C479.668 57.2827 479.126 57.2664 478.78 57.591Z" fill="#DC2626"/>
<path d="M480.896 59.8453L478.008 62.5568C477.662 62.8813 477.644 63.4238 477.967 63.7684C478.291 64.1129 478.833 64.1292 479.179 63.8047L482.068 61.0932C482.413 60.7686 482.431 60.2262 482.108 59.8816C481.784 59.537 481.242 59.5208 480.896 59.8453Z" fill="#DC2626"/>
<path d="M467.49 52.2873C467.599 52.6004 467.757 52.8912 467.964 53.1122L472.105 49.2254C471.901 49.0086 471.621 48.833 471.312 48.7001C470.411 48.8146 469.529 49.2035 468.817 49.8718C468.105 50.5401 467.661 51.3955 467.49 52.2873Z" fill="#DC2626"/>
<path d="M480.02 65.9552C481.019 65.8876 482 65.4898 482.786 64.7524C483.571 64.015 484.03 63.0608 484.161 62.0685L483.638 61.5121L479.498 65.3988L480.02 65.9552Z" fill="#DC2626"/>
<path d="M511.402 88.719L504.901 94.8218C503.694 95.9545 503.634 97.8509 504.767 99.0575C505.899 100.264 507.796 100.324 509.002 99.1914L515.504 93.0886C516.71 91.9559 516.77 90.0595 515.638 88.8529C514.505 87.6462 512.609 87.5863 511.402 88.719Z" fill="#9CA4BA"/>
<path d="M498.271 81.257C498.594 80.9537 498.61 80.4459 498.307 80.1228C498.003 79.7996 497.496 79.7836 497.172 80.0869C496.849 80.3902 496.833 80.8981 497.137 81.2212C497.44 81.5443 497.948 81.5604 498.271 81.257Z" fill="#1854FF"/>
</g>
<defs>
<linearGradient id="paint0_linear_62_2" x1="187" y1="255.5" x2="192.5" y2="325.5" gradientUnits="userSpaceOnUse">
<stop stop-color="#D7005A"/>
<stop offset="1" stop-color="#FF559C" stop-opacity="0"/>
</linearGradient>
<linearGradient id="paint1_linear_62_2" x1="-2.97511" y1="216.41" x2="0.70959" y2="235.707" gradientUnits="userSpaceOnUse">
<stop stop-color="#697087"/>
<stop offset="1"/>
</linearGradient>
<linearGradient id="paint2_linear_62_2" x1="2.69261" y1="190.964" x2="6.37731" y2="210.261" gradientUnits="userSpaceOnUse">
<stop stop-color="#697087"/>
<stop offset="1"/>
</linearGradient>
<linearGradient id="paint3_linear_62_2" x1="-1.76491" y1="167.454" x2="1.9198" y2="186.752" gradientUnits="userSpaceOnUse">
<stop stop-color="#697087"/>
<stop offset="1"/>
</linearGradient>
<linearGradient id="paint4_linear_62_2" x1="21.6863" y1="162.977" x2="25.371" y2="182.275" gradientUnits="userSpaceOnUse">
<stop stop-color="#697087"/>
<stop offset="1"/>
</linearGradient>
<linearGradient id="paint5_linear_62_2" x1="6.84618" y1="238.199" x2="10.5309" y2="257.496" gradientUnits="userSpaceOnUse">
<stop stop-color="#697087"/>
<stop offset="1"/>
</linearGradient>
<linearGradient id="paint6_linear_62_2" x1="23.6675" y1="259.364" x2="27.3522" y2="278.662" gradientUnits="userSpaceOnUse">
<stop stop-color="#697087"/>
<stop offset="1"/>
</linearGradient>
<linearGradient id="paint7_linear_62_2" x1="46.6264" y1="254.985" x2="50.3112" y2="274.282" gradientUnits="userSpaceOnUse">
<stop stop-color="#697087"/>
<stop offset="1"/>
</linearGradient>
<linearGradient id="paint8_linear_62_2" x1="124.353" y1="263.796" x2="128.037" y2="283.093" gradientUnits="userSpaceOnUse">
<stop stop-color="#697087"/>
<stop offset="1"/>
</linearGradient>
<linearGradient id="paint9_linear_62_2" x1="70.583" y1="250.409" x2="74.2677" y2="269.707" gradientUnits="userSpaceOnUse">
<stop stop-color="#697087"/>
<stop offset="1"/>
</linearGradient>
<linearGradient id="paint10_linear_62_2" x1="93.9663" y1="245.945" x2="97.651" y2="265.242" gradientUnits="userSpaceOnUse">
<stop stop-color="#697087"/>
<stop offset="1"/>
</linearGradient>
<linearGradient id="paint11_linear_62_2" x1="117.551" y1="241.444" x2="121.235" y2="260.742" gradientUnits="userSpaceOnUse">
<stop stop-color="#697087"/>
<stop offset="1"/>
</linearGradient>
<linearGradient id="paint12_linear_62_2" x1="140.739" y1="237.016" x2="144.423" y2="256.314" gradientUnits="userSpaceOnUse">
<stop stop-color="#697087"/>
<stop offset="1"/>
</linearGradient>
<linearGradient id="paint13_linear_62_2" x1="163.845" y1="232.603" x2="167.529" y2="251.901" gradientUnits="userSpaceOnUse">
<stop stop-color="#697087"/>
<stop offset="1"/>
</linearGradient>
<linearGradient id="paint14_linear_62_2" x1="187.533" y1="228.084" x2="191.218" y2="247.381" gradientUnits="userSpaceOnUse">
<stop stop-color="#697087"/>
<stop offset="1"/>
</linearGradient>
<linearGradient id="paint15_linear_62_2" x1="210.841" y1="223.633" x2="214.526" y2="242.931" gradientUnits="userSpaceOnUse">
<stop stop-color="#697087"/>
<stop offset="1"/>
</linearGradient>
<linearGradient id="paint16_linear_62_2" x1="233.913" y1="219.221" x2="237.598" y2="238.518" gradientUnits="userSpaceOnUse">
<stop stop-color="#697087"/>
<stop offset="1"/>
</linearGradient>
<linearGradient id="paint17_linear_62_2" x1="298.408" y1="206.913" x2="302.093" y2="226.211" gradientUnits="userSpaceOnUse">
<stop stop-color="#697087"/>
<stop offset="1"/>
</linearGradient>
<linearGradient id="paint18_linear_62_2" x1="302.762" y1="229.727" x2="306.446" y2="249.025" gradientUnits="userSpaceOnUse">
<stop stop-color="#697087"/>
<stop offset="1"/>
</linearGradient>
<linearGradient id="paint19_linear_62_2" x1="326.393" y1="225.224" x2="330.078" y2="244.521" gradientUnits="userSpaceOnUse">
<stop stop-color="#697087"/>
<stop offset="1"/>
</linearGradient>
<linearGradient id="paint20_linear_62_2" x1="278.73" y1="234.322" x2="282.414" y2="253.62" gradientUnits="userSpaceOnUse">
<stop stop-color="#697087"/>
<stop offset="1"/>
</linearGradient>
<linearGradient id="paint21_linear_62_2" x1="30.3906" y1="233.705" x2="34.0753" y2="253.003" gradientUnits="userSpaceOnUse">
<stop stop-color="#697087"/>
<stop offset="1"/>
</linearGradient>
<linearGradient id="paint22_linear_62_2" x1="53.8774" y1="229.222" x2="57.5621" y2="248.52" gradientUnits="userSpaceOnUse">
<stop stop-color="#697087"/>
<stop offset="1"/>
</linearGradient>
<linearGradient id="paint23_linear_62_2" x1="77.5183" y1="224.705" x2="81.203" y2="244.003" gradientUnits="userSpaceOnUse">
<stop stop-color="#697087"/>
<stop offset="1"/>
</linearGradient>
<linearGradient id="paint24_linear_62_2" x1="100.597" y1="220.303" x2="104.282" y2="239.601" gradientUnits="userSpaceOnUse">
<stop stop-color="#697087"/>
<stop offset="1"/>
</linearGradient>
<linearGradient id="paint25_linear_62_2" x1="124.456" y1="215.746" x2="128.141" y2="235.043" gradientUnits="userSpaceOnUse">
<stop stop-color="#697087"/>
<stop offset="1"/>
</linearGradient>
<linearGradient id="paint26_linear_62_2" x1="147.678" y1="211.311" x2="151.363" y2="230.609" gradientUnits="userSpaceOnUse">
<stop stop-color="#697087"/>
<stop offset="1"/>
</linearGradient>
<linearGradient id="paint27_linear_62_2" x1="170.78" y1="206.899" x2="174.465" y2="226.196" gradientUnits="userSpaceOnUse">
<stop stop-color="#697087"/>
<stop offset="1"/>
</linearGradient>
<linearGradient id="paint28_linear_62_2" x1="194.076" y1="202.451" x2="197.761" y2="221.748" gradientUnits="userSpaceOnUse">
<stop stop-color="#697087"/>
<stop offset="1"/>
</linearGradient>
<linearGradient id="paint29_linear_62_2" x1="217.471" y1="197.985" x2="221.156" y2="217.283" gradientUnits="userSpaceOnUse">
<stop stop-color="#697087"/>
<stop offset="1"/>
</linearGradient>
<linearGradient id="paint30_linear_62_2" x1="241.061" y1="193.478" x2="244.746" y2="212.775" gradientUnits="userSpaceOnUse">
<stop stop-color="#697087"/>
<stop offset="1"/>
</linearGradient>
<linearGradient id="paint31_linear_62_2" x1="20.1721" y1="211.99" x2="23.8568" y2="231.287" gradientUnits="userSpaceOnUse">
<stop stop-color="#697087"/>
<stop offset="1"/>
</linearGradient>
<linearGradient id="paint32_linear_62_2" x1="43.2395" y1="207.59" x2="46.9242" y2="226.888" gradientUnits="userSpaceOnUse">
<stop stop-color="#697087"/>
<stop offset="1"/>
</linearGradient>
<linearGradient id="paint33_linear_62_2" x1="66.6558" y1="203.114" x2="70.3405" y2="222.412" gradientUnits="userSpaceOnUse">
<stop stop-color="#697087"/>
<stop offset="1"/>
</linearGradient>
<linearGradient id="paint34_linear_62_2" x1="90.5505" y1="198.55" x2="94.2352" y2="217.847" gradientUnits="userSpaceOnUse">
<stop stop-color="#697087"/>
<stop offset="1"/>
</linearGradient>
<linearGradient id="paint35_linear_62_2" x1="113.779" y1="194.12" x2="117.463" y2="213.417" gradientUnits="userSpaceOnUse">
<stop stop-color="#697087"/>
<stop offset="1"/>
</linearGradient>
<linearGradient id="paint36_linear_62_2" x1="137.368" y1="189.642" x2="141.052" y2="208.94" gradientUnits="userSpaceOnUse">
<stop stop-color="#697087"/>
<stop offset="1"/>
</linearGradient>
<linearGradient id="paint37_linear_62_2" x1="160.698" y1="185.188" x2="164.383" y2="204.485" gradientUnits="userSpaceOnUse">
<stop stop-color="#697087"/>
<stop offset="1"/>
</linearGradient>
<linearGradient id="paint38_linear_62_2" x1="184.031" y1="180.734" x2="187.715" y2="200.032" gradientUnits="userSpaceOnUse">
<stop stop-color="#697087"/>
<stop offset="1"/>
</linearGradient>
<linearGradient id="paint39_linear_62_2" x1="207.424" y1="176.261" x2="211.109" y2="195.559" gradientUnits="userSpaceOnUse">
<stop stop-color="#697087"/>
<stop offset="1"/>
</linearGradient>
<linearGradient id="paint40_linear_62_2" x1="231.083" y1="171.748" x2="234.768" y2="191.045" gradientUnits="userSpaceOnUse">
<stop stop-color="#697087"/>
<stop offset="1"/>
</linearGradient>
<linearGradient id="paint41_linear_62_2" x1="254.132" y1="167.344" x2="257.817" y2="186.642" gradientUnits="userSpaceOnUse">
<stop stop-color="#697087"/>
<stop offset="1"/>
</linearGradient>
<linearGradient id="paint42_linear_62_2" x1="26.1733" y1="186.481" x2="29.858" y2="205.779" gradientUnits="userSpaceOnUse">
<stop stop-color="#697087"/>
<stop offset="1"/>
</linearGradient>
<linearGradient id="paint43_linear_62_2" x1="50.0276" y1="181.931" x2="53.7123" y2="201.228" gradientUnits="userSpaceOnUse">
<stop stop-color="#697087"/>
<stop offset="1"/>
</linearGradient>
<linearGradient id="paint44_linear_62_2" x1="73.2605" y1="177.489" x2="76.9452" y2="196.787" gradientUnits="userSpaceOnUse">
<stop stop-color="#697087"/>
<stop offset="1"/>
</linearGradient>
<linearGradient id="paint45_linear_62_2" x1="97.0693" y1="172.946" x2="100.754" y2="192.244" gradientUnits="userSpaceOnUse">
<stop stop-color="#697087"/>
<stop offset="1"/>
</linearGradient>
<linearGradient id="paint46_linear_62_2" x1="120.377" y1="168.496" x2="124.062" y2="187.794" gradientUnits="userSpaceOnUse">
<stop stop-color="#697087"/>
<stop offset="1"/>
</linearGradient>
<linearGradient id="paint47_linear_62_2" x1="143.812" y1="164.022" x2="147.496" y2="183.32" gradientUnits="userSpaceOnUse">
<stop stop-color="#697087"/>
<stop offset="1"/>
</linearGradient>
<linearGradient id="paint48_linear_62_2" x1="167.505" y1="159.496" x2="171.19" y2="178.794" gradientUnits="userSpaceOnUse">
<stop stop-color="#697087"/>
<stop offset="1"/>
</linearGradient>
<linearGradient id="paint49_linear_62_2" x1="191.186" y1="154.971" x2="194.871" y2="174.268" gradientUnits="userSpaceOnUse">
<stop stop-color="#697087"/>
<stop offset="1"/>
</linearGradient>
<linearGradient id="paint50_linear_62_2" x1="214.748" y1="150.48" x2="218.433" y2="169.778" gradientUnits="userSpaceOnUse">
<stop stop-color="#697087"/>
<stop offset="1"/>
</linearGradient>
<linearGradient id="paint51_linear_62_2" x1="238.309" y1="145.978" x2="241.994" y2="165.276" gradientUnits="userSpaceOnUse">
<stop stop-color="#697087"/>
<stop offset="1"/>
</linearGradient>
<linearGradient id="paint52_linear_62_2" x1="45.1206" y1="158.498" x2="48.8053" y2="177.795" gradientUnits="userSpaceOnUse">
<stop stop-color="#697087"/>
<stop offset="1"/>
</linearGradient>
<linearGradient id="paint53_linear_62_2" x1="68.7685" y1="153.985" x2="72.4532" y2="173.283" gradientUnits="userSpaceOnUse">
<stop stop-color="#697087"/>
<stop offset="1"/>
</linearGradient>
<linearGradient id="paint54_linear_62_2" x1="92.5823" y1="149.436" x2="96.267" y2="168.734" gradientUnits="userSpaceOnUse">
<stop stop-color="#697087"/>
<stop offset="1"/>
</linearGradient>
<linearGradient id="paint55_linear_62_2" x1="115.891" y1="144.987" x2="119.575" y2="164.284" gradientUnits="userSpaceOnUse">
<stop stop-color="#697087"/>
<stop offset="1"/>
</linearGradient>
<linearGradient id="paint56_linear_62_2" x1="139.325" y1="140.513" x2="143.01" y2="159.81" gradientUnits="userSpaceOnUse">
<stop stop-color="#697087"/>
<stop offset="1"/>
</linearGradient>
<linearGradient id="paint57_linear_62_2" x1="163.019" y1="135.993" x2="166.704" y2="155.29" gradientUnits="userSpaceOnUse">
<stop stop-color="#697087"/>
<stop offset="1"/>
</linearGradient>
<linearGradient id="paint58_linear_62_2" x1="186.701" y1="131.467" x2="190.385" y2="150.765" gradientUnits="userSpaceOnUse">
<stop stop-color="#697087"/>
<stop offset="1"/>
</linearGradient>
<linearGradient id="paint59_linear_62_2" x1="210.261" y1="126.97" x2="213.946" y2="146.268" gradientUnits="userSpaceOnUse">
<stop stop-color="#697087"/>
<stop offset="1"/>
</linearGradient>
<linearGradient id="paint60_linear_62_2" x1="233.816" y1="122.468" x2="237.501" y2="141.766" gradientUnits="userSpaceOnUse">
<stop stop-color="#697087"/>
<stop offset="1"/>
</linearGradient>
<linearGradient id="paint61_linear_62_2" x1="256.769" y1="118.09" x2="260.454" y2="137.388" gradientUnits="userSpaceOnUse">
<stop stop-color="#9CA4BA"/>
<stop offset="1"/>
</linearGradient>
<linearGradient id="paint62_linear_62_2" x1="-15.104" y1="266.771" x2="-11.4193" y2="286.068" gradientUnits="userSpaceOnUse">
<stop stop-color="#9CA4BA"/>
<stop offset="1"/>
</linearGradient>
<linearGradient id="paint63_linear_62_2" x1="8.35764" y1="285.945" x2="12.0423" y2="305.243" gradientUnits="userSpaceOnUse">
<stop stop-color="#9CA4BA"/>
<stop offset="1"/>
</linearGradient>
<linearGradient id="paint64_linear_62_2" x1="37.4353" y1="280.39" x2="41.12" y2="299.688" gradientUnits="userSpaceOnUse">
<stop stop-color="#9CA4BA"/>
<stop offset="1"/>
</linearGradient>
<linearGradient id="paint65_linear_62_2" x1="280.577" y1="113.542" x2="284.261" y2="132.84" gradientUnits="userSpaceOnUse">
<stop stop-color="#9CA4BA"/>
<stop offset="1"/>
</linearGradient>
<linearGradient id="paint66_linear_62_2" x1="304.207" y1="109.033" x2="307.891" y2="128.331" gradientUnits="userSpaceOnUse">
<stop stop-color="#9CA4BA"/>
<stop offset="1"/>
</linearGradient>
<linearGradient id="paint67_linear_62_2" x1="308.694" y1="132.537" x2="312.378" y2="151.834" gradientUnits="userSpaceOnUse">
<stop stop-color="#9CA4BA"/>
<stop offset="1"/>
</linearGradient>
<linearGradient id="paint68_linear_62_2" x1="313.185" y1="156.069" x2="316.87" y2="175.366" gradientUnits="userSpaceOnUse">
<stop stop-color="#9CA4BA"/>
<stop offset="1"/>
</linearGradient>
<linearGradient id="paint69_linear_62_2" x1="317.542" y1="178.877" x2="321.227" y2="198.175" gradientUnits="userSpaceOnUse">
<stop stop-color="#9CA4BA"/>
<stop offset="1"/>
</linearGradient>
<linearGradient id="paint70_linear_62_2" x1="322.038" y1="202.398" x2="325.723" y2="221.695" gradientUnits="userSpaceOnUse">
<stop stop-color="#9CA4BA"/>
<stop offset="1"/>
</linearGradient>
<linearGradient id="paint71_linear_62_2" x1="209.041" y1="247.623" x2="212.725" y2="266.921" gradientUnits="userSpaceOnUse">
<stop stop-color="#9CA4BA"/>
<stop offset="1"/>
</linearGradient>
<linearGradient id="paint72_linear_62_2" x1="232.148" y1="243.216" x2="235.833" y2="262.513" gradientUnits="userSpaceOnUse">
<stop stop-color="#9CA4BA"/>
<stop offset="1"/>
</linearGradient>
<linearGradient id="paint73_linear_62_2" x1="255.646" y1="238.725" x2="259.33" y2="258.022" gradientUnits="userSpaceOnUse">
<stop stop-color="#9CA4BA"/>
<stop offset="1"/>
</linearGradient>
<linearGradient id="paint74_linear_62_2" x1="273.343" y1="139.289" x2="277.027" y2="158.586" gradientUnits="userSpaceOnUse">
<stop stop-color="#9CA4BA"/>
<stop offset="1"/>
</linearGradient>
<linearGradient id="paint75_linear_62_2" x1="283.676" y1="161.703" x2="287.361" y2="181.001" gradientUnits="userSpaceOnUse">
<stop stop-color="#9CA4BA"/>
<stop offset="1"/>
</linearGradient>
<linearGradient id="paint76_linear_62_2" x1="278.968" y1="186.242" x2="282.653" y2="205.539" gradientUnits="userSpaceOnUse">
<stop stop-color="#9CA4BA"/>
<stop offset="1"/>
</linearGradient>
<linearGradient id="paint77_linear_62_2" x1="265.773" y1="213.111" x2="269.458" y2="232.408" gradientUnits="userSpaceOnUse">
<stop stop-color="#9CA4BA"/>
<stop offset="1"/>
</linearGradient>
<linearGradient id="paint78_linear_62_2" x1="100" y1="50.5" x2="31.5" y2="141.5" gradientUnits="userSpaceOnUse">
<stop stop-color="#DD0E65"/>
<stop offset="1" stop-color="#DD0E65" stop-opacity="0"/>
</linearGradient>
<linearGradient id="paint79_linear_62_2" x1="120.516" y1="-2.63126" x2="137.068" y2="69.445" gradientUnits="userSpaceOnUse">
<stop stop-color="white"/>
<stop offset="1" stop-color="white" stop-opacity="0"/>
</linearGradient>
<linearGradient id="paint80_linear_62_2" x1="509.652" y1="62.0047" x2="402" y2="165.5" gradientUnits="userSpaceOnUse">
<stop stop-color="#060073"/>
<stop offset="0.740473" stop-color="#4F46E5" stop-opacity="0"/>
</linearGradient>
<linearGradient id="paint81_linear_62_2" x1="540.659" y1="130.841" x2="455.182" y2="39.7815" gradientUnits="userSpaceOnUse">
<stop offset="0.208692" stop-color="white"/>
<stop offset="0.504662" stop-color="#8D8CD5"/>
</linearGradient>
<clipPath id="clip0_62_2">
<rect width="529" height="296" fill="white"/>
</clipPath>
</defs>
</svg>
