<?xml version="1.0" encoding="UTF-8"?>
<svg version="1.1" xmlns="http://www.w3.org/2000/svg" width="221" height="228">
<path d="M0 0 C2.74001256 -0.30220513 5.25512558 -0.40941666 7.99804688 -0.38818359 C9.23724632 -0.39606903 9.23724632 -0.39606903 10.5014801 -0.40411377 C13.24076064 -0.41735123 15.97946323 -0.40856261 18.71875 -0.3984375 C20.61682243 -0.40045716 22.5148941 -0.40336769 24.41296387 -0.40713501 C28.39436213 -0.41156344 32.37555873 -0.40511066 36.35693359 -0.39111328 C41.46861573 -0.3740211 46.57982538 -0.38385951 51.69149017 -0.40183067 C55.61191387 -0.41265453 59.53222495 -0.40922861 63.45265198 -0.4014473 C65.3377742 -0.39944141 67.22290655 -0.4019181 69.10801697 -0.40888596 C71.73960581 -0.41647754 74.37042205 -0.4049289 77.00195312 -0.38818359 C78.17867332 -0.39729263 78.17867332 -0.39729263 79.37916565 -0.40658569 C81.54602051 -0.38095093 81.54602051 -0.38095093 85 0 C87.32441815 3.48662723 87.24401741 4.82577923 87.22705078 8.94018555 C87.22689972 10.16122482 87.22674866 11.3822641 87.22659302 12.64030457 C87.21627045 13.95912125 87.20594788 15.27793793 87.1953125 16.63671875 C87.19158161 18.00006401 87.188735 19.36341196 87.18673706 20.72676086 C87.17910653 24.31234154 87.15946315 27.89775979 87.1373291 31.48327637 C87.11685811 35.14312544 87.10773267 38.80300079 87.09765625 42.46289062 C87.0762166 49.64200107 87.04208779 56.82097776 87 64 C88.25296875 63.96519531 89.5059375 63.93039063 90.796875 63.89453125 C92.44790324 63.86638872 94.09894601 63.83908906 95.75 63.8125 C96.575 63.78736328 97.4 63.76222656 98.25 63.73632812 C99.04921875 63.72666016 99.8484375 63.71699219 100.671875 63.70703125 C101.4050293 63.6913208 102.13818359 63.67561035 102.89355469 63.65942383 C105.7668868 64.12399248 107.01282066 64.86155953 109 67 C109.50120544 69.95335388 109.50120544 69.95335388 109.50170898 73.61108398 C109.50981346 74.6115979 109.50981346 74.6115979 109.51808167 75.63232422 C109.53058953 77.83736545 109.51406459 80.04110593 109.49609375 82.24609375 C109.49624871 83.77922128 109.49773721 85.3123492 109.50050354 86.84547424 C109.5018885 90.05934966 109.48931533 93.27277934 109.46655273 96.48657227 C109.43819125 100.60376477 109.44089739 104.72021522 109.45364285 108.83746243 C109.46060297 112.0039553 109.45280662 115.17027709 109.44038582 118.33674812 C109.43587284 119.8545777 109.43553319 121.37242565 109.43945122 122.89025688 C109.44236622 125.01372686 109.42584379 127.13618008 109.40405273 129.25952148 C109.39864975 130.46736801 109.39324677 131.67521454 109.38768005 132.91966248 C108.95401772 136.36535522 108.40025319 137.54581296 106 140 C103.65583038 140.50057125 103.65583038 140.50057125 100.8380127 140.50120544 C99.23543358 140.51595665 99.23543358 140.51595665 97.60047913 140.53100586 C96.4284343 140.52133789 95.25638947 140.51166992 94.04882812 140.50170898 C92.81450546 140.50711197 91.5801828 140.51251495 90.30845642 140.51808167 C86.92182377 140.52845742 83.53616554 140.52085358 80.14961815 140.50437045 C76.60759445 140.49053137 73.06560053 140.49697872 69.52355957 140.50050354 C63.57503071 140.50320658 57.62670353 140.48972217 51.67822266 140.46655273 C44.7986197 140.43994224 37.91935398 140.43819545 31.0397172 140.4499411 C24.42474454 140.4607163 17.80989399 140.45453389 11.19493103 140.44038582 C8.37838356 140.43462372 5.56192538 140.43471041 2.74537659 140.43945122 C-1.18615504 140.44510481 -5.11734852 140.42591309 -9.04882812 140.40405273 C-10.22087296 140.40855438 -11.39291779 140.41305603 -12.60047913 140.41769409 C-13.6688652 140.40778946 -14.73725128 140.39788483 -15.8380127 140.38768005 C-17.23283245 140.38403521 -17.23283245 140.38403521 -18.65583038 140.38031673 C-21 140 -21 140 -22.79923534 138.71213436 C-24.93313112 135.66947629 -24.40525178 131.97158205 -24.37231445 128.38525391 C-24.37596512 127.50527237 -24.37961578 126.62529083 -24.38337708 125.71864319 C-24.39149473 122.80442104 -24.37786017 119.89075291 -24.36328125 116.9765625 C-24.3627627 114.95258586 -24.36328021 112.92860871 -24.36479187 110.90463257 C-24.36470209 106.65932715 -24.35426173 102.41421139 -24.33618164 98.16894531 C-24.3135233 92.72921575 -24.31294453 87.28976411 -24.31969929 81.85000038 C-24.32304282 77.66868626 -24.31640142 73.48743539 -24.30657005 69.30613327 C-24.30272224 67.30068671 -24.3015681 65.2952331 -24.3031559 63.28978348 C-24.30352717 60.48423142 -24.2908879 57.67903391 -24.2746582 54.87353516 C-24.27713562 54.04530746 -24.27961304 53.21707977 -24.28216553 52.36375427 C-24.243501 48.17124942 -24.07761395 44.76559122 -22 41 C-19.76352369 39.88176185 -18.35108471 39.80603939 -15.8671875 39.68359375 C-14.77833252 39.62643188 -14.77833252 39.62643188 -13.66748047 39.56811523 C-12.28520264 39.50346069 -12.28520264 39.50346069 -10.875 39.4375 C-9.2918145 39.35975974 -7.70864489 39.28169555 -6.12548828 39.20336914 C-4.06274414 39.10168457 -4.06274414 39.10168457 -2 39 C-2.01047363 37.92516357 -2.02094727 36.85032715 -2.03173828 35.74291992 C-2.06792779 31.75662565 -2.09089663 27.77034592 -2.10986328 23.78393555 C-2.11992326 22.05832477 -2.13357276 20.33273105 -2.15087891 18.60717773 C-2.17512754 16.1273986 -2.18648301 13.64784477 -2.1953125 11.16796875 C-2.20563507 10.39599655 -2.21595764 9.62402435 -2.22659302 8.82865906 C-2.22739422 5.00718524 -2.17242595 3.25863893 0 0 Z " fill="#703CBF" transform="translate(68,44)"/>
<path d="M0 0 C0.33 0 0.66 0 1 0 C1.00423194 0.57629622 1.00846388 1.15259245 1.01282406 1.7463522 C1.11599729 15.74999784 1.22467796 29.75359133 1.33933926 43.75714779 C1.39468631 50.52908009 1.44817068 57.30101765 1.49731445 64.07299805 C1.54470218 70.60228433 1.5972219 77.1315174 1.65294075 83.66073799 C1.67339885 86.15792049 1.69210606 88.65511793 1.70907402 91.15232658 C1.73304181 94.6366812 1.76310643 98.1209318 1.79467773 101.60522461 C1.80331093 103.17075577 1.80331093 103.17075577 1.81211853 104.76791382 C1.82190735 105.71167374 1.83169617 106.65543365 1.84178162 107.62779236 C1.84823417 108.45279708 1.85468672 109.2778018 1.8613348 110.12780666 C1.79616529 112.01381395 1.79616529 112.01381395 3 113 C5.58100756 113.10039611 8.13527897 113.13617269 10.71679688 113.12939453 C11.52488297 113.13114685 12.33296906 113.13289917 13.1655426 113.13470459 C15.8499666 113.13912376 18.53432528 113.13618489 21.21875 113.1328125 C23.07580579 113.13348552 24.9328615 113.13445553 26.78991699 113.13571167 C30.68726437 113.13718873 34.58458887 113.13503382 38.48193359 113.13037109 C43.489345 113.1246738 48.49670281 113.12795276 53.50411224 113.13394356 C57.34039721 113.13754895 61.17666937 113.13641069 65.01295471 113.13381577 C66.85982774 113.13314644 68.70670192 113.13397513 70.55357361 113.13629532 C73.13014832 113.13882149 75.70663501 113.13498177 78.28320312 113.12939453 C79.43962059 113.13243088 79.43962059 113.13243088 80.61940002 113.13552856 C84.10086078 113.43896558 84.10086078 113.43896558 87 112 C87.12272849 110.40486107 87.17781043 108.80445068 87.20532227 107.20483398 C87.22526749 106.18385117 87.24521271 105.16286835 87.26576233 104.11094666 C87.28247482 103.0005452 87.29918732 101.89014374 87.31640625 100.74609375 C87.3475779 99.05021873 87.3475779 99.05021873 87.37937927 97.32008362 C87.44499797 93.69262015 87.50381677 90.06508167 87.5625 86.4375 C87.60567351 83.98501814 87.6492874 81.532544 87.69335938 79.08007812 C87.80069184 73.05346573 87.9024349 67.02677799 88 61 C91.08315385 60.91266487 94.16598827 60.85949873 97.25 60.8125 C98.55904297 60.77479492 98.55904297 60.77479492 99.89453125 60.73632812 C101.16103516 60.72182617 101.16103516 60.72182617 102.453125 60.70703125 C103.22817383 60.6913208 104.00322266 60.67561035 104.80175781 60.65942383 C107.73146132 61.11332614 108.98392691 61.81348956 111 64 C111.50120544 66.95335388 111.50120544 66.95335388 111.50170898 70.61108398 C111.50981346 71.6115979 111.50981346 71.6115979 111.51808167 72.63232422 C111.53058953 74.83736545 111.51406459 77.04110593 111.49609375 79.24609375 C111.49624871 80.77922128 111.49773721 82.3123492 111.50050354 83.84547424 C111.5018885 87.05934966 111.48931533 90.27277934 111.46655273 93.48657227 C111.43819125 97.60376477 111.44089739 101.72021522 111.45364285 105.83746243 C111.46060297 109.0039553 111.45280662 112.17027709 111.44038582 115.33674812 C111.43587284 116.8545777 111.43553319 118.37242565 111.43945122 119.89025688 C111.44236622 122.01372686 111.42584379 124.13618008 111.40405273 126.25952148 C111.39864975 127.46736801 111.39324677 128.67521454 111.38768005 129.91966248 C110.95401772 133.36535522 110.40025319 134.54581296 108 137 C105.65583038 137.50057125 105.65583038 137.50057125 102.8380127 137.50120544 C101.23543358 137.51595665 101.23543358 137.51595665 99.60047913 137.53100586 C98.4284343 137.52133789 97.25638947 137.51166992 96.04882812 137.50170898 C94.81450546 137.50711197 93.5801828 137.51251495 92.30845642 137.51808167 C88.92182377 137.52845742 85.53616554 137.52085358 82.14961815 137.50437045 C78.60759445 137.49053137 75.06560053 137.49697872 71.52355957 137.50050354 C65.57503071 137.50320658 59.62670353 137.48972217 53.67822266 137.46655273 C46.7986197 137.43994224 39.91935398 137.43819545 33.0397172 137.4499411 C26.42474454 137.4607163 19.80989399 137.45453389 13.19493103 137.44038582 C10.37838356 137.43462372 7.56192538 137.43471041 4.74537659 137.43945122 C0.81384496 137.44510481 -3.11734852 137.42591309 -7.04882812 137.40405273 C-8.22087296 137.40855438 -9.39291779 137.41305603 -10.60047913 137.41769409 C-11.6688652 137.40778946 -12.73725128 137.39788483 -13.8380127 137.38768005 C-15.23283245 137.38403521 -15.23283245 137.38403521 -16.65583038 137.38031673 C-19 137 -19 137 -20.79923534 135.71213436 C-22.93313112 132.66947629 -22.40525178 128.97158205 -22.37231445 125.38525391 C-22.37596512 124.50527237 -22.37961578 123.62529083 -22.38337708 122.71864319 C-22.39149473 119.80442104 -22.37786017 116.89075291 -22.36328125 113.9765625 C-22.3627627 111.95258586 -22.36328021 109.92860871 -22.36479187 107.90463257 C-22.36470209 103.65932715 -22.35426173 99.41421139 -22.33618164 95.16894531 C-22.3135233 89.72921575 -22.31294453 84.28976411 -22.31969929 78.85000038 C-22.32304282 74.66868626 -22.31640142 70.48743539 -22.30657005 66.30613327 C-22.30272224 64.30068671 -22.3015681 62.2952331 -22.3031559 60.28978348 C-22.30352717 57.48423142 -22.2908879 54.67903391 -22.2746582 51.87353516 C-22.27713562 51.04530746 -22.27961304 50.21707977 -22.28216553 49.36375427 C-22.243501 45.17124942 -22.07761395 41.76559122 -20 38 C-17.76352369 36.88176185 -16.35108471 36.80603939 -13.8671875 36.68359375 C-12.77833252 36.62643188 -12.77833252 36.62643188 -11.66748047 36.56811523 C-10.28520264 36.50346069 -10.28520264 36.50346069 -8.875 36.4375 C-5.94625 36.293125 -3.0175 36.14875 0 36 C0 24.12 0 12.24 0 0 Z " fill="#6CCFE1" transform="translate(66,47)"/>
<path d="M0 0 C0.82598694 -0.0049649 1.65197388 -0.00992981 2.50299072 -0.01504517 C5.24752623 -0.02970372 7.99200397 -0.03647451 10.73657227 -0.04199219 C12.63607282 -0.04774012 14.53557335 -0.05349789 16.43507385 -0.05926514 C20.42237622 -0.06978532 24.40965835 -0.07562148 28.39697266 -0.07910156 C33.51648346 -0.08459176 38.63572902 -0.1086267 43.75515652 -0.13707352 C47.67984305 -0.15565815 51.60446514 -0.16090323 55.52919197 -0.16243744 C57.41711949 -0.16547341 59.30504563 -0.1735335 61.19293022 -0.18662262 C63.82934885 -0.20359807 66.46511204 -0.20182408 69.1015625 -0.1953125 C69.88761368 -0.20452728 70.67366486 -0.21374207 71.48353577 -0.22323608 C73.6547699 -0.20635986 73.6547699 -0.20635986 77.11547852 0.16113281 C79.43989667 3.64776004 79.35949592 4.98691204 79.3425293 9.10131836 C79.34237823 10.32235764 79.34222717 11.54339691 79.34207153 12.80143738 C79.33174896 14.12025406 79.32142639 15.43907074 79.31079102 16.79785156 C79.30706013 18.16119683 79.30421351 19.52454477 79.30221558 20.88789368 C79.29458505 24.47347436 79.27494167 28.05889261 79.25280762 31.64440918 C79.23233662 35.30425825 79.22321119 38.9641336 79.21313477 42.62402344 C79.19169512 49.80313389 79.15756631 56.98211058 79.11547852 64.16113281 C73.02826621 64.23514493 66.94131426 64.28966927 60.85375977 64.32592773 C58.78177327 64.34103868 56.70981888 64.36152822 54.63793945 64.38745117 C51.66422618 64.42373332 48.69093478 64.44083579 45.71704102 64.45410156 C44.78679108 64.46958542 43.85654114 64.48506927 42.89810181 64.50102234 C42.03736053 64.50124893 41.17661926 64.50147552 40.28979492 64.50170898 C39.53034576 64.50837082 38.77089661 64.51503265 37.98843384 64.52189636 C37.37035858 64.40284439 36.75228333 64.28379242 36.11547852 64.16113281 C33.65858949 60.47579928 33.70900807 57.438626 33.55297852 53.16113281 C33.36503593 47.5820127 33.36503593 47.5820127 32.11547852 42.16113281 C11.82047852 41.66613281 11.82047852 41.66613281 -8.88452148 41.16113281 C-8.90514648 34.58175781 -8.92577148 28.00238281 -8.94702148 21.22363281 C-8.96067749 18.10486694 -8.96067749 18.10486694 -8.97460938 14.9230957 C-8.9775285 13.28499415 -8.98007706 11.64689187 -8.98217773 10.00878906 C-8.9872937 9.15023315 -8.99240967 8.29167725 -8.99768066 7.40710449 C-8.99799058 5.3247723 -8.94694324 3.24252922 -8.88452148 1.16113281 C-6.87093716 -0.85245151 -2.76160058 0.00391724 0 0 Z " fill="#EF509A" transform="translate(75.884521484375,43.8388671875)"/>
</svg>
