<?xml version="1.0" encoding="UTF-8"?>
<svg version="1.1" xmlns="http://www.w3.org/2000/svg" width="256" height="256">
<path d="M0 0 C84.48 0 168.96 0 256 0 C256 84.48 256 168.96 256 256 C171.52 256 87.04 256 0 256 C0 171.52 0 87.04 0 0 Z " fill="#050505" transform="translate(0,0)"/>
<path d="M0 0 C84.48 0 168.96 0 256 0 C256 84.48 256 168.96 256 256 C171.52 256 87.04 256 0 256 C0 171.52 0 87.04 0 0 Z M93 30 C92.27216309 30.26844727 91.54432617 30.53689453 90.79443359 30.81347656 C79.76027823 35.01851657 70.12961399 40.5277962 61 48 C60.47180664 48.43183594 59.94361328 48.86367188 59.39941406 49.30859375 C44.15580082 62.01631833 32.53417896 78.82802289 27 98 C26.81953125 98.61617188 26.6390625 99.23234375 26.453125 99.8671875 C18.77986675 126.93097675 23.03666946 153.39265923 35.609375 178.171875 C48.75977222 200.93761643 70.57454329 219.53970442 96 227 C105.86384924 229.63083597 115.37281191 230.60662182 125.5625 230.5625 C126.25666016 230.5620166 126.95082031 230.5615332 127.66601562 230.56103516 C154.53671829 230.43173068 179.53576598 219.6033902 198.75 200.75 C219.50536143 179.62780536 228.46086381 153.0501056 228.36352539 123.94384766 C227.92658631 96.55068019 216.14274867 73.17005645 197 54 C196.20980469 53.19820312 195.41960937 52.39640625 194.60546875 51.5703125 C184.06734569 41.46909338 170.85943111 34.41547075 157 30 C155.92733887 29.65727051 154.85467773 29.31454102 153.74951172 28.96142578 C144.46650462 26.22554805 135.84166895 25.34525467 126.125 25.5 C125.42622742 25.50620361 124.72745483 25.51240723 124.00750732 25.51879883 C113.26992718 25.63033263 103.15411285 26.19954078 93 30 Z " fill="#FEFEFE" transform="translate(0,0)"/>
<path d="M0 0 C1.22009766 -0.01160156 2.44019531 -0.02320313 3.69726562 -0.03515625 C26.3400432 0.03706952 46.56485884 9.79594928 62.7109375 25.43359375 C80.00230516 42.86953806 87.73337237 64.2442951 87.75 88.4375 C87.76224609 89.37916016 87.77449219 90.32082031 87.78710938 91.29101562 C87.79904583 97.00857768 87.19646539 101.89185131 85.5625 107.375 C77.4126372 108.20983243 72.59535244 106.39731114 65.8125 102 C54.55157243 94.94625522 44.88875842 92.47396456 31.5625 94.375 C26.44457952 95.86119032 22.04375778 98.52704275 17.5625 101.375 C16.7271875 101.88417969 15.891875 102.39335937 15.03125 102.91796875 C13.19650691 104.05138794 11.37769702 105.21053399 9.5625 106.375 C2.89427348 108.59774217 -4.79802641 108.89273149 -11.19140625 105.73046875 C-14.7087718 103.7718342 -18.06393618 101.56949488 -21.4375 99.375 C-31.00237629 94.10243621 -40.62197458 92.86327421 -51.4375 94.375 C-56.534738 95.87186496 -60.95836197 98.5580421 -65.4375 101.375 C-66.2625 101.88417969 -67.0875 102.39335937 -67.9375 102.91796875 C-69.77224791 104.06805889 -71.60505762 105.22123999 -73.4375 106.375 C-76.24551162 107.28281099 -78.74647235 107.48651713 -81.6875 107.4375 C-83.54375 107.4065625 -83.54375 107.4065625 -85.4375 107.375 C-90.77161382 83.08573174 -86.30848095 60.54036211 -73.6328125 39.359375 C-60.20530031 19.65032278 -40.911471 6.6146153 -17.80688477 0.99462891 C-11.87998091 -0.09532704 -6.00922646 -0.05695949 0 0 Z " fill="#FCFCFC" transform="translate(125.4375,40.625)"/>
<path d="M0 0 C5.92000272 2.63355079 11.48759834 5.88557672 17.05859375 9.1796875 C22.81517595 12.54762633 27.52141131 14.28764068 34.25 14.3125 C35.80460937 14.33763672 35.80460937 14.33763672 37.390625 14.36328125 C46.27825603 13.46874696 52.96293169 10.07822649 60.375 5.3125 C67.64723705 0.88145934 73.31737951 -1.9385725 82 0 C82.67546875 0.14179688 83.3509375 0.28359375 84.046875 0.4296875 C88.5571329 1.79021984 92.30278825 4.42308397 96.25 6.9375 C102.26073006 10.75484085 108.15245206 13.12463552 115 15 C113.68925635 19.46182436 111.92933989 22.99618757 109.375 26.875 C108.74335938 27.84179688 108.11171875 28.80859375 107.4609375 29.8046875 C106.97882813 30.52914062 106.49671875 31.25359375 106 32 C102.30542795 31.36121885 99.83145907 29.711588 96.75 27.625 C87.66513979 21.77271571 80.33261934 19.43045608 69.44921875 21.48046875 C60.45594871 24.16889697 53.12462026 30.27415765 45.7265625 35.84838867 C40.82447294 39.11806577 34.62398168 38.73111762 29 38 C25.59391679 36.47162933 22.89328781 34.33708257 20 32 C10.04624842 24.61646596 0.69778809 19.71924328 -12 21 C-19.65190169 22.96627814 -25.77381887 27.28399897 -32 32 C-36.53489335 30.52922378 -38.11004087 26.94703573 -40.25 23 C-40.79527344 22.03707031 -40.79527344 22.03707031 -41.3515625 21.0546875 C-44 16.29546523 -44 16.29546523 -44 14 C-42.7625 13.79375 -41.525 13.5875 -40.25 13.375 C-32.0671843 11.55088724 -24.91732355 7.32099925 -18.0625 2.625 C-12.18229909 -0.81977911 -6.61997905 -2.03925094 0 0 Z " fill="#FAFAFA" transform="translate(90,149)"/>
<path d="M0 0 C6.45624725 2.40741423 11.89129583 6.99574231 17.32421875 11.1328125 C25.48290736 16.82602879 33.23482841 17.84435694 43 17 C51.99257696 14.8927842 58.94960201 8.94385012 66.0859375 3.37109375 C71.49245171 -0.50173582 76.45997848 -1.04716502 83 0 C87.48486612 1.54237466 91.35939905 3.96616588 95 7 C92.67513402 13.97459794 81.91931139 18.69704372 75.48803711 21.9284668 C72.37196701 23.40707902 69.20687399 24.73214642 66 26 C64.91074219 26.43570313 63.82148438 26.87140625 62.69921875 27.3203125 C42.16847366 34.09285356 17.82196575 31.58114062 -1.375 22.1875 C-17.14780143 14.04104525 -17.14780143 14.04104525 -22 7 C-14.87635989 1.59871001 -9.0868836 -1.8987518 0 0 Z " fill="#F9F9F9" transform="translate(89,185)"/>
<path d="M0 0 C0.99 0.33 1.98 0.66 3 1 C3.785457 3.72968706 4.40519428 6.34492297 4.9375 9.125 C6.78726532 18.89744938 6.78726532 18.89744938 12.90234375 26.453125 C19.44468866 29.01481091 26.12085692 30.59652722 33 32 C32.67 33.32 32.34 34.64 32 36 C30.26363281 36.34611328 30.26363281 36.34611328 28.4921875 36.69921875 C26.95292701 37.02771946 25.41387512 37.35719868 23.875 37.6875 C23.11445313 37.83638672 22.35390625 37.98527344 21.5703125 38.13867188 C16.10833584 39.33936502 12.95417063 41.00949702 9 45 C5.81001526 51.61626465 4.53737547 58.84738787 3 66 C1.68 66 0.36 66 -1 66 C-1.32613281 64.75863281 -1.65226562 63.51726562 -1.98828125 62.23828125 C-2.429285 60.59624601 -2.87071367 58.95432486 -3.3125 57.3125 C-3.63250977 56.08756836 -3.63250977 56.08756836 -3.95898438 54.83789062 C-5.5873735 48.83472475 -6.85859369 44.37373235 -12.3125 40.875 C-18.20064263 38.15739571 -24.66282527 37.17486947 -31 36 C-31.33 34.68 -31.66 33.36 -32 32 C-28.7002434 31.02507191 -25.44109285 30.09422544 -22.07421875 29.375 C-14.54817793 27.8984294 -14.54817793 27.8984294 -8.171875 23.91015625 C-5.2456439 19.14039955 -4.29556 13.38246289 -3 8 C-1.21788837 1.21788837 -1.21788837 1.21788837 0 0 Z " fill="#070707" transform="translate(125,56)"/>
</svg>
