<svg version="1.1" id="Layer_1" xmlns="http://www.w3.org/2000/svg" xmlns:xlink="http://www.w3.org/1999/xlink" x="0px" y="0px"
	 width="100%" viewBox="0 0 1024 1024" enable-background="new 0 0 1024 1024" xml:space="preserve">
<path fill="#000000" opacity="1.000000" stroke="none" 
	d="
M570.000000,1025.000000 
	C380.000000,1025.000000 190.500000,1025.000000 1.000000,1025.000000 
	C1.000000,683.666687 1.000000,342.333344 1.000000,1.000000 
	C342.333344,1.000000 683.666687,1.000000 1025.000000,1.000000 
	C1025.000000,342.333344 1025.000000,683.666687 1025.000000,1025.000000 
	C873.500000,1025.000000 722.000000,1025.000000 570.000000,1025.000000 
M161.900650,148.887726 
	C161.900650,148.887726 161.905396,148.706100 161.258972,148.705841 
	C161.067139,149.048630 160.875320,149.391418 160.756958,149.728134 
	C160.756958,149.728134 160.746414,149.655182 160.133316,149.610504 
	C159.979034,149.955643 159.824738,150.300797 159.894699,150.720749 
	C159.894699,150.720749 159.665573,150.630096 159.111237,150.552643 
	C158.971390,150.869873 158.831543,151.187119 158.536774,151.496780 
	C158.536774,151.496780 158.520706,151.651062 158.011383,151.612305 
	C157.896637,151.899490 157.781891,152.186661 157.486115,152.472870 
	C157.486115,152.472870 157.475983,152.653610 156.983841,152.612381 
	C156.619904,152.793198 156.513077,153.072342 156.456741,153.452454 
	C156.456741,153.452454 156.449753,153.658981 155.962753,153.618454 
	C155.603073,153.800858 155.501099,154.078003 155.452881,154.455292 
	C155.452881,154.455292 155.448624,154.659256 154.961853,154.618774 
	C154.602341,154.801239 154.500565,155.078308 154.452087,155.455994 
	C154.452087,155.455994 154.448471,155.660477 153.960587,155.621475 
	C153.600983,155.804947 153.499237,156.082794 153.454102,156.463120 
	C153.454102,156.463120 153.452667,156.664551 152.959381,156.631683 
	C152.598648,156.819183 152.496307,157.100601 152.470276,157.486862 
	C152.470276,157.486862 152.472015,157.669281 151.965500,157.647827 
	C151.860443,157.939056 151.755386,158.230286 151.495499,158.537689 
	C151.495499,158.537689 151.503159,158.693192 150.946579,158.719528 
	C150.840790,159.035431 150.735001,159.351349 150.733658,159.756668 
	C150.733658,159.756668 150.642303,159.679825 150.020523,159.716812 
	C149.900253,160.077393 149.779984,160.437988 149.756348,160.804581 
	C149.756348,160.804581 149.758530,160.707809 149.096100,160.815903 
	C149.034485,161.222687 148.972870,161.629471 148.947632,162.150299 
	C148.947632,162.150299 149.062256,162.115814 149.110611,161.805145 
	C149.110611,161.805145 148.809097,161.710846 148.809097,161.710846 
	C148.809097,161.710846 148.657883,161.987534 148.137924,162.638916 
	C147.114151,163.892136 146.134430,165.184555 145.059769,166.392487 
	C135.110626,177.575470 127.325531,190.247803 120.929184,203.643127 
	C114.432518,217.248581 109.543869,231.578049 107.089821,246.515167 
	C105.272621,257.575928 103.798004,268.746185 103.102417,279.925659 
	C102.044258,296.932037 101.792763,313.988678 101.059181,331.950104 
	C101.089401,341.304016 101.119621,350.657959 101.023941,360.940247 
	C101.016075,412.490540 100.997482,464.040833 101.007637,515.591125 
	C101.010284,529.057678 101.102348,542.524292 100.993095,556.918213 
	C101.049637,585.269165 101.106178,613.620117 100.986153,642.897339 
	C101.065567,664.917908 101.144981,686.938538 101.035950,709.878662 
	C101.356544,715.316406 101.579765,720.761963 102.016068,726.190430 
	C103.299004,742.152832 103.981972,758.202454 106.159782,774.044739 
	C109.509766,798.413879 118.185638,821.068726 131.395691,841.854675 
	C139.163177,854.076782 148.637100,864.863220 159.191010,874.862244 
	C176.876938,891.618347 197.025757,904.097961 219.949432,912.168091 
	C237.248001,918.257935 255.067261,921.924133 273.375916,922.971252 
	C286.914276,923.745422 300.470428,924.207703 314.945190,924.951233 
	C328.631805,924.914673 342.318420,924.878052 356.933350,924.974731 
	C460.625977,924.982910 564.318604,924.991516 668.011230,924.992615 
	C669.006531,924.992615 670.001770,924.892273 671.924133,924.995667 
	C683.944702,924.935547 695.965210,924.875427 708.913513,924.970581 
	C723.308716,924.329102 737.713867,923.856079 752.096680,923.005127 
	C771.639282,921.848877 790.552368,917.750916 809.050476,911.179443 
	C830.010437,903.733459 848.476990,892.356628 864.861694,877.552917 
	C878.946167,864.827515 891.012329,850.353271 899.802917,833.419678 
	C903.829712,825.662903 907.797852,817.799133 910.857910,809.633667 
	C916.685608,794.082642 920.848938,778.050964 922.111023,761.390015 
	C923.005371,749.584106 923.901184,737.778381 924.932434,725.046448 
	C924.902771,706.362122 924.873047,687.677734 924.975037,668.065063 
	C924.983093,564.707581 924.991699,461.350067 924.992798,357.992584 
	C924.992798,356.997162 924.895020,356.001709 925.001709,354.079041 
	C924.935059,336.060638 924.868347,318.042206 924.968140,299.134888 
	C923.856873,281.086548 922.745728,263.086212 919.171875,245.248840 
	C914.786377,223.360321 906.776550,203.014969 894.919800,184.274475 
	C885.107788,168.765839 872.687927,155.419968 858.384216,143.817093 
	C842.916321,131.269836 825.920044,121.486130 807.112122,115.004677 
	C783.256226,106.783623 758.564453,103.407082 733.407593,102.961250 
	C731.211243,102.922325 729.024536,102.332779 726.612183,101.152382 
	C684.871338,101.101608 643.130493,101.031181 601.389648,101.010269 
	C585.926758,101.002525 570.463928,101.111099 554.072876,101.026611 
	C526.048218,101.073280 498.023590,101.119957 469.071991,101.012047 
	C432.789703,101.008049 396.506836,100.879227 360.225281,101.042221 
	C334.341400,101.158516 308.459198,101.659187 282.576904,102.033951 
	C281.714417,102.046432 280.859131,102.555351 279.249146,103.232262 
	C268.832428,104.543701 258.415741,105.855141 247.150040,107.012032 
	C232.760117,109.123520 218.975723,113.178490 205.351532,120.149559 
	C190.248428,127.994865 175.756973,136.775162 162.271286,148.039536 
	C162.087219,148.320053 161.903152,148.600571 161.900650,148.887726 
z"/>
<path fill="#F37021" opacity="1.000000" stroke="none" 
	d="
M314.018677,924.808960 
	C300.470428,924.207703 286.914276,923.745422 273.375916,922.971252 
	C255.067261,921.924133 237.248001,918.257935 219.949432,912.168091 
	C197.025757,904.097961 176.876938,891.618347 159.191010,874.862244 
	C148.637100,864.863220 139.163177,854.076782 131.395691,841.854675 
	C118.185638,821.068726 109.509766,798.413879 106.159782,774.044739 
	C103.981972,758.202454 103.299004,742.152832 102.016068,726.190430 
	C101.579765,720.761963 101.356544,715.316406 101.380226,709.089600 
	C101.762291,686.194580 101.800072,664.088684 101.889313,641.517700 
	C101.968498,614.239136 102.010666,587.425537 101.986549,560.612061 
	C101.985161,559.071350 101.443535,557.531250 101.153343,555.990845 
	C101.102348,542.524292 101.010284,529.057678 101.007637,515.591125 
	C100.997482,464.040833 101.016075,412.490540 101.439812,360.229126 
	C101.636681,350.020020 101.417679,340.521973 101.198677,331.023956 
	C101.792763,313.988678 102.044258,296.932037 103.102417,279.925659 
	C103.798004,268.746185 105.272621,257.575928 107.089821,246.515167 
	C109.543869,231.578049 114.432518,217.248581 120.929184,203.643127 
	C127.325531,190.247803 135.110626,177.575470 145.059769,166.392487 
	C146.134430,165.184555 147.114151,163.892136 148.461761,162.220123 
	C148.785599,161.801315 149.062256,162.115814 149.062256,162.115814 
	C149.062256,162.115814 148.947632,162.150299 149.251297,162.020020 
	C149.622818,161.495758 149.690674,161.101776 149.758530,160.707809 
	C149.758530,160.707809 149.756348,160.804581 150.068436,160.849030 
	C150.467789,160.488922 150.555038,160.084366 150.642303,159.679825 
	C150.642303,159.679825 150.733658,159.756668 151.038101,159.817719 
	C151.396072,159.483566 151.449615,159.088379 151.503159,158.693192 
	C151.503159,158.693192 151.495499,158.537689 151.911957,158.697693 
	C152.376266,158.461563 152.424149,158.065414 152.472015,157.669281 
	C152.472015,157.669281 152.470276,157.486862 152.894531,157.671478 
	C153.363403,157.458908 153.408035,157.061737 153.452667,156.664551 
	C153.452667,156.664551 153.454102,156.463120 153.884430,156.659607 
	C154.359329,156.457550 154.403900,156.059021 154.448471,155.660477 
	C154.448471,155.660477 154.452087,155.455994 154.882950,155.656189 
	C155.358749,155.457336 155.403687,155.058304 155.448624,154.659256 
	C155.448624,154.659256 155.452881,154.455292 155.883331,154.655884 
	C156.359100,154.457306 156.404419,154.058151 156.449753,153.658981 
	C156.449753,153.658981 156.456741,153.452454 156.885529,153.654816 
	C157.368210,153.455978 157.422104,153.054794 157.475983,152.653610 
	C157.475983,152.653610 157.486115,152.472870 157.902832,152.665619 
	C158.386612,152.455948 158.453659,152.053497 158.520706,151.651062 
	C158.520706,151.651062 158.536774,151.496780 158.940460,151.677628 
	C159.451279,151.449020 159.558426,151.039551 159.665573,150.630096 
	C159.665573,150.630096 159.894699,150.720749 160.129395,150.800171 
	C160.491547,150.471451 160.618988,150.063324 160.746414,149.655182 
	C160.746414,149.655182 160.756958,149.728134 161.067444,149.813049 
	C161.553772,149.500671 161.729584,149.103378 161.905396,148.706100 
	C161.905396,148.706100 161.900650,148.887726 162.120087,148.917664 
	C162.505951,148.618546 162.672363,148.289490 162.838776,147.960434 
	C175.756973,136.775162 190.248428,127.994865 206.060593,120.059235 
	C220.512772,115.701469 234.255905,111.434029 247.999023,107.166580 
	C258.415741,105.855141 268.832428,104.543701 280.088837,103.102180 
	C289.678070,102.647781 298.427124,102.057510 307.177185,102.042809 
	C359.572266,101.954742 411.967560,102.007782 464.362732,101.964066 
	C466.241699,101.962502 468.120239,101.444138 469.998962,101.166626 
	C498.023590,101.119957 526.048218,101.073280 554.793579,101.439064 
	C557.509277,101.900726 559.504150,101.992638 561.499084,101.992920 
	C616.610535,102.000641 671.721924,101.999054 726.833374,101.999001 
	C729.024536,102.332779 731.211243,102.922325 733.407593,102.961250 
	C758.564453,103.407082 783.256226,106.783623 807.112122,115.004677 
	C825.920044,121.486130 842.916321,131.269836 858.384216,143.817093 
	C872.687927,155.419968 885.107788,168.765839 894.919800,184.274475 
	C906.776550,203.014969 914.786377,223.360321 919.171875,245.248840 
	C922.745728,263.086212 923.856873,281.086548 924.590210,299.877380 
	C924.137695,318.042084 924.052979,335.464264 924.024902,352.886566 
	C924.023804,353.592712 924.558105,354.299713 924.842896,355.006287 
	C924.895020,356.001709 924.992798,356.997162 924.992798,357.992584 
	C924.991699,461.350067 924.983093,564.707581 924.559753,668.779541 
	C924.121338,687.569946 924.089539,705.645813 924.105774,723.721741 
	C924.106445,724.472168 924.555908,725.222290 924.796326,725.972534 
	C923.901184,737.778381 923.005371,749.584106 922.111023,761.390015 
	C920.848938,778.050964 916.685608,794.082642 910.857910,809.633667 
	C907.797852,817.799133 903.829712,825.662903 899.802917,833.419678 
	C891.012329,850.353271 878.946167,864.827515 864.861694,877.552917 
	C848.476990,892.356628 830.010437,903.733459 809.050476,911.179443 
	C790.552368,917.750916 771.639282,921.848877 752.096680,923.005127 
	C737.713867,923.856079 723.308716,924.329102 708.169006,924.577026 
	C696.984436,924.119202 686.544312,924.015625 676.104370,924.030029 
	C674.401611,924.032410 672.699463,924.556091 670.997070,924.838806 
	C670.001770,924.892273 669.006531,924.992615 668.011230,924.992615 
	C564.318604,924.991516 460.625977,924.982910 356.217896,924.559692 
	C344.069946,924.104492 332.637329,924.018982 321.205139,924.060852 
	C318.808777,924.069641 316.414124,924.547302 314.018677,924.808960 
M446.543854,580.909546 
	C457.159424,587.684143 468.536163,593.532349 478.196564,601.469482 
	C490.086121,611.238220 488.208374,626.024353 475.404999,635.002380 
	C465.877441,641.683411 455.010773,643.836182 443.726013,643.892334 
	C410.900635,644.055603 378.073853,644.003357 345.247894,643.918640 
	C335.096649,643.892395 324.943726,643.568237 314.797089,643.220398 
	C311.134430,643.094971 309.327728,644.323364 308.924194,648.183838 
	C308.511047,652.135742 307.415253,656.018188 306.587708,659.924561 
	C301.384216,684.487122 296.154816,709.044250 290.980774,733.612976 
	C290.149048,737.562500 289.551910,741.561401 288.713531,746.285706 
	C291.692261,746.285706 293.816254,746.285278 295.940216,746.285767 
	C327.100037,746.292603 358.264038,745.983765 389.418396,746.399963 
	C417.706390,746.777893 445.998810,748.549683 474.143188,744.081665 
	C498.670654,740.187744 521.286926,731.350891 541.582458,717.076599 
	C572.622925,695.245178 592.423096,666.001709 596.780151,627.852600 
	C601.284485,588.413940 588.111633,555.239868 558.569153,528.658447 
	C538.708008,510.787933 515.167053,498.737915 491.891022,486.177368 
	C479.355469,479.412750 466.881317,472.257935 455.415314,463.864197 
	C443.567749,455.191193 444.054382,441.470947 455.325073,431.993652 
	C464.480621,424.294861 475.575928,420.727478 487.163422,420.653564 
	C532.147156,420.366638 577.135010,420.741119 622.121338,420.784088 
	C625.459534,420.787292 626.706421,421.898743 626.026611,425.208160 
	C622.984131,440.019104 619.960327,454.834045 617.005127,469.662537 
	C616.654724,471.420563 616.766541,473.270691 616.602661,476.160919 
	C669.783020,439.822327 721.866577,404.233215 774.658875,368.159821 
	C735.604980,332.117554 697.403503,296.862061 658.455933,260.917969 
	C657.792725,263.616974 657.478088,264.708099 657.258850,265.818085 
	C654.198730,281.314178 651.007202,296.786682 648.189697,312.326935 
	C647.348328,316.967377 645.130920,317.915710 640.758362,317.891113 
	C592.773987,317.621307 544.788208,317.624023 496.803375,317.417358 
	C472.093414,317.310913 448.078522,320.953186 424.945312,329.838104 
	C403.857361,337.937592 384.939606,349.477905 369.351166,365.941010 
	C350.807739,385.524902 340.040070,408.793304 337.134430,435.718475 
	C334.927551,456.168518 337.475311,475.831604 345.658051,494.746063 
	C355.423553,517.319031 371.619263,534.651428 391.616272,548.082214 
	C409.095062,559.821716 427.746643,569.815063 446.543854,580.909546 
z"/>
<path fill="#FFFFFF" opacity="1.000000" stroke="none" 
	d="
M469.535461,101.089340 
	C468.120239,101.444138 466.241699,101.962502 464.362732,101.964066 
	C411.967560,102.007782 359.572266,101.954742 307.177185,102.042809 
	C298.427124,102.057510 289.678070,102.647781 280.464508,102.902481 
	C280.859131,102.555351 281.714417,102.046432 282.576904,102.033951 
	C308.459198,101.659187 334.341400,101.158516 360.225281,101.042221 
	C396.506836,100.879227 432.789703,101.008049 469.535461,101.089340 
z"/>
<path fill="#FFFFFF" opacity="1.000000" stroke="none" 
	d="
M726.722778,101.575691 
	C671.721924,101.999054 616.610535,102.000641 561.499084,101.992920 
	C559.504150,101.992638 557.509277,101.900726 555.257690,101.509064 
	C570.463928,101.111099 585.926758,101.002525 601.389648,101.010269 
	C643.130493,101.031181 684.871338,101.101608 726.722778,101.575691 
z"/>
<path fill="#F5F5F5" opacity="1.000000" stroke="none" 
	d="
M101.073219,556.454529 
	C101.443535,557.531250 101.985161,559.071350 101.986549,560.612061 
	C102.010666,587.425537 101.968498,614.239136 101.720520,641.515991 
	C101.500252,641.979248 101.162720,641.971069 101.162720,641.971069 
	C101.106178,613.620117 101.049637,585.269165 101.073219,556.454529 
z"/>
<path fill="#DADADA" opacity="1.000000" stroke="none" 
	d="
M101.074432,642.434204 
	C101.162720,641.971069 101.500252,641.979248 101.669052,641.980957 
	C101.800072,664.088684 101.762291,686.194580 101.474449,708.629822 
	C101.144981,686.938538 101.065567,664.917908 101.074432,642.434204 
z"/>
<path fill="#F7F7F7" opacity="1.000000" stroke="none" 
	d="
M924.864380,725.509521 
	C924.555908,725.222290 924.106445,724.472168 924.105774,723.721741 
	C924.089539,705.645813 924.121338,687.569946 924.493896,669.243713 
	C924.873047,687.677734 924.902771,706.362122 924.864380,725.509521 
z"/>
<path fill="#F8F8F8" opacity="1.000000" stroke="none" 
	d="
M924.922302,354.542664 
	C924.558105,354.299713 924.023804,353.592712 924.024902,352.886566 
	C924.052979,335.464264 924.137695,318.042084 924.506958,300.321838 
	C924.868347,318.042206 924.935059,336.060638 924.922302,354.542664 
z"/>
<path fill="#FFFFFF" opacity="1.000000" stroke="none" 
	d="
M247.574524,107.089310 
	C234.255905,111.434029 220.512772,115.701469 206.385437,119.900864 
	C218.975723,113.178490 232.760117,109.123520 247.574524,107.089310 
z"/>
<path fill="#F9F9F9" opacity="1.000000" stroke="none" 
	d="
M314.481934,924.880127 
	C316.414124,924.547302 318.808777,924.069641 321.205139,924.060852 
	C332.637329,924.018982 344.069946,924.104492 355.753723,924.493103 
	C342.318420,924.878052 328.631805,924.914673 314.481934,924.880127 
z"/>
<path fill="#FBFBFB" opacity="1.000000" stroke="none" 
	d="
M671.460571,924.917236 
	C672.699463,924.556091 674.401611,924.032410 676.104370,924.030029 
	C686.544312,924.015625 696.984436,924.119202 707.705139,924.499390 
	C695.965210,924.875427 683.944702,924.935547 671.460571,924.917236 
z"/>
<path fill="#F2F2F2" opacity="1.000000" stroke="none" 
	d="
M101.128929,331.487030 
	C101.417679,340.521973 101.636681,350.020020 101.502762,359.764954 
	C101.119621,350.657959 101.089401,341.304016 101.128929,331.487030 
z"/>
<path fill="#E9E9E9" opacity="1.000000" stroke="none" 
	d="
M155.205231,154.639008 
	C155.403687,155.058304 155.358749,155.457336 154.985168,155.653183 
	C154.500565,155.078308 154.602341,154.801239 155.205231,154.639008 
z"/>
<path fill="#E9E9E9" opacity="1.000000" stroke="none" 
	d="
M154.204529,155.640976 
	C154.403900,156.059021 154.359329,156.457550 153.985077,156.655548 
	C153.499237,156.082794 153.600983,155.804947 154.204529,155.640976 
z"/>
<path fill="#E9E9E9" opacity="1.000000" stroke="none" 
	d="
M153.206024,156.648117 
	C153.408035,157.061737 153.363403,157.458908 152.985565,157.666016 
	C152.496307,157.100601 152.598648,156.819183 153.206024,156.648117 
z"/>
<path fill="#E9E9E9" opacity="1.000000" stroke="none" 
	d="
M152.218750,157.658554 
	C152.424149,158.065414 152.376266,158.461563 151.989365,158.689606 
	C151.755386,158.230286 151.860443,157.939056 152.218750,157.658554 
z"/>
<path fill="#E9E9E9" opacity="1.000000" stroke="none" 
	d="
M151.224869,158.706360 
	C151.449615,159.088379 151.396072,159.483566 150.985886,159.773010 
	C150.735001,159.351349 150.840790,159.035431 151.224869,158.706360 
z"/>
<path fill="#E9E9E9" opacity="1.000000" stroke="none" 
	d="
M150.331421,159.698318 
	C150.555038,160.084366 150.467789,160.488922 150.020126,160.846008 
	C149.779984,160.437988 149.900253,160.077393 150.331421,159.698318 
z"/>
<path fill="#E9E9E9" opacity="1.000000" stroke="none" 
	d="
M149.427307,160.761856 
	C149.690674,161.101776 149.622818,161.495758 149.233124,161.962982 
	C148.972870,161.629471 149.034485,161.222687 149.427307,160.761856 
z"/>
<path fill="#E9E9E9" opacity="1.000000" stroke="none" 
	d="
M149.086426,161.960480 
	C149.062256,162.115814 148.785599,161.801315 148.721741,161.894424 
	C148.657883,161.987534 148.809097,161.710846 148.809097,161.710846 
	C148.809097,161.710846 149.110611,161.805145 149.086426,161.960480 
z"/>
<path fill="#E9E9E9" opacity="1.000000" stroke="none" 
	d="
M156.206253,153.638718 
	C156.404419,154.058151 156.359100,154.457306 155.985291,154.653198 
	C155.501099,154.078003 155.603073,153.800858 156.206253,153.638718 
z"/>
<path fill="#E9E9E9" opacity="1.000000" stroke="none" 
	d="
M157.229919,152.632996 
	C157.422104,153.054794 157.368210,153.455978 156.988861,153.653488 
	C156.513077,153.072342 156.619904,152.793198 157.229919,152.632996 
z"/>
<path fill="#E9E9E9" opacity="1.000000" stroke="none" 
	d="
M158.266052,151.631683 
	C158.453659,152.053497 158.386612,152.455948 157.993362,152.666107 
	C157.781891,152.186661 157.896637,151.899490 158.266052,151.631683 
z"/>
<path fill="#E9E9E9" opacity="1.000000" stroke="none" 
	d="
M159.388397,150.591370 
	C159.558426,151.039551 159.451279,151.449020 159.017914,151.681412 
	C158.831543,151.187119 158.971390,150.869873 159.388397,150.591370 
z"/>
<path fill="#E9E9E9" opacity="1.000000" stroke="none" 
	d="
M160.439865,149.632843 
	C160.618988,150.063324 160.491547,150.471451 160.017273,150.762756 
	C159.824738,150.300797 159.979034,149.955643 160.439865,149.632843 
z"/>
<path fill="#E9E9E9" opacity="1.000000" stroke="none" 
	d="
M161.582184,148.705963 
	C161.729584,149.103378 161.553772,149.500671 161.030731,149.816071 
	C160.875320,149.391418 161.067139,149.048630 161.582184,148.705963 
z"/>
<path fill="#E9E9E9" opacity="1.000000" stroke="none" 
	d="
M162.555023,147.999985 
	C162.672363,148.289490 162.505951,148.618546 162.029327,148.914337 
	C161.903152,148.600571 162.087219,148.320053 162.555023,147.999985 
z"/>
<path fill="#FFFEFD" opacity="1.000000" stroke="none" 
	d="
M446.212006,580.744629 
	C427.746643,569.815063 409.095062,559.821716 391.616272,548.082214 
	C371.619263,534.651428 355.423553,517.319031 345.658051,494.746063 
	C337.475311,475.831604 334.927551,456.168518 337.134430,435.718475 
	C340.040070,408.793304 350.807739,385.524902 369.351166,365.941010 
	C384.939606,349.477905 403.857361,337.937592 424.945312,329.838104 
	C448.078522,320.953186 472.093414,317.310913 496.803375,317.417358 
	C544.788208,317.624023 592.773987,317.621307 640.758362,317.891113 
	C645.130920,317.915710 647.348328,316.967377 648.189697,312.326935 
	C651.007202,296.786682 654.198730,281.314178 657.258850,265.818085 
	C657.478088,264.708099 657.792725,263.616974 658.455933,260.917969 
	C697.403503,296.862061 735.604980,332.117554 774.658875,368.159821 
	C721.866577,404.233215 669.783020,439.822327 616.602661,476.160919 
	C616.766541,473.270691 616.654724,471.420563 617.005127,469.662537 
	C619.960327,454.834045 622.984131,440.019104 626.026611,425.208160 
	C626.706421,421.898743 625.459534,420.787292 622.121338,420.784088 
	C577.135010,420.741119 532.147156,420.366638 487.163422,420.653564 
	C475.575928,420.727478 464.480621,424.294861 455.325073,431.993652 
	C444.054382,441.470947 443.567749,455.191193 455.415314,463.864197 
	C466.881317,472.257935 479.355469,479.412750 491.891022,486.177368 
	C515.167053,498.737915 538.708008,510.787933 558.569153,528.658447 
	C588.111633,555.239868 601.284485,588.413940 596.780151,627.852600 
	C592.423096,666.001709 572.622925,695.245178 541.582458,717.076599 
	C521.286926,731.350891 498.670654,740.187744 474.143188,744.081665 
	C445.998810,748.549683 417.706390,746.777893 389.418396,746.399963 
	C358.264038,745.983765 327.100037,746.292603 295.940216,746.285767 
	C293.816254,746.285278 291.692261,746.285706 288.713531,746.285706 
	C289.551910,741.561401 290.149048,737.562500 290.980774,733.612976 
	C296.154816,709.044250 301.384216,684.487122 306.587708,659.924561 
	C307.415253,656.018188 308.511047,652.135742 308.924194,648.183838 
	C309.327728,644.323364 311.134430,643.094971 314.797089,643.220398 
	C324.943726,643.568237 335.096649,643.892395 345.247894,643.918640 
	C378.073853,644.003357 410.900635,644.055603 443.726013,643.892334 
	C455.010773,643.836182 465.877441,641.683411 475.404999,635.002380 
	C488.208374,626.024353 490.086121,611.238220 478.196564,601.469482 
	C468.536163,593.532349 457.159424,587.684143 446.212006,580.744629 
z"/>
</svg>