<svg width="529" height="296" viewBox="0 0 529 296" fill="none" xmlns="http://www.w3.org/2000/svg">
<rect width="529" height="296" fill="#FFF500"/>
<path d="M389.5 70.89L143.102 70.89C139.433 70.89 136.459 73.8624 136.459 77.529L109 254.251C109 257.918 111.974 260.89 115.643 260.89L389.5 233.145C393.169 233.145 396.143 230.172 396.143 226.506V77.529C396.143 73.8624 393.169 70.89 389.5 70.89Z" fill="url(#paint0_radial_113_493)"/>
<path d="M390.457 60H139.543C136.482 60 134 62.7534 134 66.1498V229.85C134 233.247 136.482 236 139.543 236H390.457C393.518 236 396 233.247 396 229.85V66.1498C396 62.7534 393.518 60 390.457 60Z" fill="black"/>
<path d="M482.534 174.548L474 189L465.452 174.548L451 166L465.452 157.466L474 143L482.534 157.466L497 166L482.534 174.548Z" fill="white"/>
<path d="M78.8027 100.401L67.4014 89L56 100.401L67.4014 111.803L78.8027 100.401Z" fill="white"/>
<path d="M375.803 261.401L364.401 250L353 261.401L364.401 272.803L375.803 261.401Z" fill="white"/>
<circle cx="364.469" cy="90.7401" r="4.74014" fill="#80A1FF"/>
<circle cx="364.469" cy="147.622" r="4.74014" fill="#A9BEFD"/>
<circle cx="364.469" cy="176.063" r="4.74014" fill="#80A1FF"/>
<circle cx="364.469" cy="204.504" r="4.74014" fill="#80A1FF"/>
<circle cx="342.349" cy="90.7401" r="4.74014" fill="#4B79FE"/>
<circle cx="342.349" cy="147.622" r="4.74014" fill="#4B79FE"/>
<circle cx="231.102" cy="147.622" r="4.74014" fill="#4B79FE"/>
<circle cx="342.349" cy="176.063" r="4.74014" fill="#A9BEFD"/>
<circle cx="231.102" cy="176.063" r="4.74014" fill="#A9BEFD"/>
<circle cx="231.102" cy="90.9838" r="4.74014" fill="#A9BEFD"/>
<circle cx="342.349" cy="204.504" r="4.74014" fill="#4B79FE"/>
<circle cx="231.102" cy="204.504" r="4.74014" fill="#4B79FE"/>
<circle cx="231.102" cy="119.425" r="4.74014" fill="#4B79FE"/>
<circle cx="320.228" cy="90.7401" r="4.74014" fill="#80A1FF"/>
<circle cx="320.228" cy="147.622" r="4.74014" fill="#80A1FF"/>
<circle cx="208.982" cy="147.622" r="4.74014" fill="#80A1FF"/>
<circle cx="320.228" cy="176.063" r="4.74014" fill="#80A1FF"/>
<circle cx="208.982" cy="176.063" r="4.74014" fill="#80A1FF"/>
<circle cx="208.982" cy="90.9838" r="4.74014" fill="#80A1FF"/>
<circle cx="320.228" cy="204.504" r="4.74014" fill="#A9BEFD"/>
<circle cx="208.982" cy="204.504" r="4.74014" fill="#A9BEFD"/>
<circle cx="208.982" cy="119.425" r="4.74014" fill="#A9BEFD"/>
<circle cx="298.108" cy="90.7401" r="4.74014" fill="#A9BEFD"/>
<circle cx="298.108" cy="147.622" r="4.74014" fill="#A9BEFD"/>
<circle cx="186.861" cy="147.622" r="4.74014" fill="#A9BEFD"/>
<circle cx="298.108" cy="176.063" r="4.74014" fill="#4B79FE"/>
<circle cx="186.861" cy="176.063" r="4.74014" fill="#4B79FE"/>
<circle cx="186.861" cy="90.9838" r="4.74014" fill="#4B79FE"/>
<circle cx="298.108" cy="204.504" r="4.74014" fill="#80A1FF"/>
<circle cx="186.861" cy="204.504" r="4.74014" fill="#80A1FF"/>
<circle cx="186.861" cy="119.425" r="4.74014" fill="#80A1FF"/>
<circle cx="275.987" cy="90.7401" r="4.74014" fill="#A9BEFD"/>
<circle cx="275.987" cy="147.622" r="4.74014" fill="#80A1FF"/>
<circle cx="164.74" cy="147.622" r="4.74014" fill="#80A1FF"/>
<circle cx="275.987" cy="176.063" r="4.74014" fill="#80A1FF"/>
<circle cx="164.74" cy="176.063" r="4.74014" fill="#80A1FF"/>
<circle cx="164.74" cy="90.9838" r="4.74014" fill="#80A1FF"/>
<circle cx="275.987" cy="204.504" r="4.74014" fill="#A9BEFD"/>
<circle cx="164.74" cy="204.504" r="4.74014" fill="#A9BEFD"/>
<circle cx="164.74" cy="119.425" r="4.74014" fill="#A9BEFD"/>
<circle cx="275.987" cy="119.181" r="4.74014" fill="#4B79FE"/>
<circle cx="253.866" cy="90.7401" r="4.74014" fill="#4B79FE"/>
<circle cx="253.866" cy="147.622" r="4.74014" fill="#4B79FE"/>
<circle cx="253.866" cy="176.063" r="4.74014" fill="#A9BEFD"/>
<circle cx="253.866" cy="204.504" r="4.74014" fill="#4B79FE"/>
<circle cx="253.866" cy="119.181" r="4.74014" fill="#80A1FF"/>
<path d="M306.008 119.181C306.008 112.2 311.667 106.54 318.648 106.54H341.219L366.05 106.54C373.031 106.54 378.69 112.2 378.69 119.181V119.181C378.69 126.162 373.031 131.821 366.05 131.821H341.219H318.648C311.667 131.821 306.008 126.162 306.008 119.181V119.181Z" fill="white" stroke="#6366F1" stroke-width="6.32019"/>
<circle cx="364.469" cy="119.181" r="4.74014" fill="#712EFF"/>
<circle cx="342.349" cy="119.181" r="4.74014" fill="#BEA9FD"/>
<circle cx="320.228" cy="119.181" r="4.74014" fill="#5200FF"/>
<defs>
<radialGradient id="paint0_radial_113_493" cx="0" cy="0" r="1" gradientUnits="userSpaceOnUse" gradientTransform="translate(194.881 154.212) rotate(128.924) scale(136.898 486.922)">
<stop stop-color="#FF9900"/>
<stop offset="0.871469" stop-color="#FFF500"/>
</radialGradient>
</defs>
</svg>
