<svg width="529" height="296" viewBox="0 0 529 296" fill="none" xmlns="http://www.w3.org/2000/svg">
<g clip-path="url(#clip0_96_2)">
<rect width="529" height="296" fill="#ADE862"/>
<circle cx="163.67" cy="210.27" r="38.17" fill="url(#paint0_radial_96_2)" stroke="white" stroke-width="5"/>
<circle cx="481.67" cy="47.67" r="38.17" fill="url(#paint1_radial_96_2)" stroke="white" stroke-width="5"/>
<circle cx="16.5" cy="80.5" r="51" fill="url(#paint2_radial_96_2)" stroke="white" stroke-width="5"/>
<circle cx="417.5" cy="315.5" r="51" fill="url(#paint3_radial_96_2)" stroke="white" stroke-width="5"/>
<circle cx="206.72" cy="88.5001" r="22.18" fill="url(#paint4_radial_96_2)" stroke="white" stroke-width="5"/>
<circle cx="42.68" cy="233.68" r="22.18" fill="url(#paint5_radial_96_2)" stroke="white" stroke-width="5"/>
<circle cx="332.18" cy="179.52" r="22.18" fill="url(#paint6_radial_96_2)" stroke="white" stroke-width="5"/>
<circle cx="388.68" cy="-7.32" r="22.18" fill="url(#paint7_radial_96_2)" stroke="white" stroke-width="5"/>
<circle cx="297.74" cy="73.7401" r="32.02" fill="url(#paint8_radial_96_2)" stroke="white" stroke-width="5"/>
<circle cx="481.52" cy="199.52" r="32.02" fill="url(#paint9_radial_96_2)" stroke="white" stroke-width="5"/>
<circle cx="134.52" cy="2.52" r="32.02" fill="url(#paint10_radial_96_2)" stroke="white" stroke-width="5"/>
<circle cx="252.23" cy="153.69" r="16.03" fill="url(#paint11_radial_96_2)" stroke="white" stroke-width="5"/>
<circle cx="388.53" cy="110.53" r="16.03" fill="url(#paint12_radial_96_2)" stroke="white" stroke-width="5"/>
<path d="M180 175.42L200.91 109" stroke="white" stroke-width="5"/>
<path d="M212.5 335L182.91 242" stroke="white" stroke-width="5"/>
<path d="M38 211.5L22.91 131" stroke="white" stroke-width="5"/>
<path d="M260.84 141.39L284.21 102.03" stroke="white" stroke-width="5"/>
<path d="M320 49.36L368.5 4" stroke="white" stroke-width="5"/>
<path d="M300.2 238.56L323.57 199.2" stroke="white" stroke-width="5"/>
<path d="M248 316.36L271.37 277" stroke="white" stroke-width="5"/>
<path d="M242.39 140.16L219.02 105.72" stroke="white" stroke-width="5"/>
<path d="M275.6 253.32L253.46 169.68" stroke="white" stroke-width="5"/>
<path d="M328.49 156.15L314.96 100.8" stroke="white" stroke-width="5"/>
<path d="M459.5 175.5L401 120" stroke="white" stroke-width="5"/>
<path d="M193.19 71.28L157.52 27" stroke="white" stroke-width="5"/>
<path d="M105.5 18.5L58.5 51" stroke="white" stroke-width="5"/>
<path d="M133 187L53 115.5" stroke="white" stroke-width="5"/>
<path d="M138 320.5L58 249" stroke="white" stroke-width="5"/>
<path d="M294 41.5L268 -49.5" stroke="white" stroke-width="5"/>
<path d="M389 96V15" stroke="white" stroke-width="5"/>
<path d="M482 167V86" stroke="white" stroke-width="5"/>
<path d="M451.5 25L409.5 0" stroke="white" stroke-width="5"/>
<path d="M310.04 174.6L265.76 159.84" stroke="white" stroke-width="5"/>
<path d="M448.5 200.5L353.5 185" stroke="white" stroke-width="5"/>
<path d="M258.5 246L199 224" stroke="white" stroke-width="5"/>
<path d="M370 301.5L307 268" stroke="white" stroke-width="5"/>
<path d="M394.5 269.5L345 199.5" stroke="white" stroke-width="5"/>
<path d="M548.5 296L499 226" stroke="white" stroke-width="5"/>
<path d="M266.99 79.89L228.86 86.04" stroke="white" stroke-width="5"/>
<path d="M557.13 36L519 42.15" stroke="white" stroke-width="5"/>
<path d="M577.5 73L505.5 178.5" stroke="white" stroke-width="5"/>
<path d="M374 100.8L327.26 79.89" stroke="white" stroke-width="5"/>
<path d="M239.93 164.76L199.34 196.74" stroke="white" stroke-width="5"/>
<path d="M25 247.5L-14.5 276.5" stroke="white" stroke-width="5"/>
<path d="M126 220L64.5 231" stroke="white" stroke-width="5"/>
<circle cx="283.5" cy="254.5" r="26" fill="url(#paint13_radial_96_2)" stroke="white" stroke-width="5"/>
<path d="M136.534 109.548L128 124L119.452 109.548L105 101L119.452 92.4663L128 78L136.534 92.4663L151 101L136.534 109.548Z" fill="white"/>
<path d="M247.803 30.4014L236.401 19L225 30.4014L236.401 41.8028L247.803 30.4014Z" fill="white"/>
<path d="M429.803 230.401L418.401 219L407 230.401L418.401 241.803L429.803 230.401Z" fill="white"/>
</g>
<defs>
<radialGradient id="paint0_radial_96_2" cx="0" cy="0" r="1" gradientUnits="userSpaceOnUse" gradientTransform="translate(150.699 198.92) rotate(47.0454) scale(64.2437)">
<stop stop-color="#8B44FF"/>
<stop offset="1" stop-color="#5800E8"/>
</radialGradient>
<radialGradient id="paint1_radial_96_2" cx="0" cy="0" r="1" gradientUnits="userSpaceOnUse" gradientTransform="translate(468.699 36.3205) rotate(47.0454) scale(64.2437)">
<stop stop-color="#8B44FF"/>
<stop offset="1" stop-color="#5800E8"/>
</radialGradient>
<radialGradient id="paint2_radial_96_2" cx="0" cy="0" r="1" gradientUnits="userSpaceOnUse" gradientTransform="translate(-1.13637 65.0682) rotate(47.0454) scale(87.3512)">
<stop stop-color="#8B44FF"/>
<stop offset="1" stop-color="#5800E8"/>
</radialGradient>
<radialGradient id="paint3_radial_96_2" cx="0" cy="0" r="1" gradientUnits="userSpaceOnUse" gradientTransform="translate(399.864 300.068) rotate(47.0454) scale(87.3512)">
<stop stop-color="#8B44FF"/>
<stop offset="1" stop-color="#5800E8"/>
</radialGradient>
<radialGradient id="paint4_radial_96_2" cx="0" cy="0" r="1" gradientUnits="userSpaceOnUse" gradientTransform="translate(199.564 82.2383) rotate(47.0454) scale(35.4448)">
<stop stop-color="#8B44FF"/>
<stop offset="1" stop-color="#5800E8"/>
</radialGradient>
<radialGradient id="paint5_radial_96_2" cx="0" cy="0" r="1" gradientUnits="userSpaceOnUse" gradientTransform="translate(35.5236 227.418) rotate(47.0454) scale(35.4448)">
<stop stop-color="#8B44FF"/>
<stop offset="1" stop-color="#5800E8"/>
</radialGradient>
<radialGradient id="paint6_radial_96_2" cx="0" cy="0" r="1" gradientUnits="userSpaceOnUse" gradientTransform="translate(325.024 173.258) rotate(47.0454) scale(35.4448)">
<stop stop-color="#8B44FF"/>
<stop offset="1" stop-color="#5800E8"/>
</radialGradient>
<radialGradient id="paint7_radial_96_2" cx="0" cy="0" r="1" gradientUnits="userSpaceOnUse" gradientTransform="translate(381.524 -13.5818) rotate(47.0454) scale(35.4448)">
<stop stop-color="#8B44FF"/>
<stop offset="1" stop-color="#5800E8"/>
</radialGradient>
<radialGradient id="paint8_radial_96_2" cx="0" cy="0" r="1" gradientUnits="userSpaceOnUse" gradientTransform="translate(287.005 64.3474) rotate(47.0454) scale(53.1672)">
<stop stop-color="#8B44FF"/>
<stop offset="1" stop-color="#5800E8"/>
</radialGradient>
<radialGradient id="paint9_radial_96_2" cx="0" cy="0" r="1" gradientUnits="userSpaceOnUse" gradientTransform="translate(470.785 190.127) rotate(47.0454) scale(53.1672)">
<stop stop-color="#8B44FF"/>
<stop offset="1" stop-color="#5800E8"/>
</radialGradient>
<radialGradient id="paint10_radial_96_2" cx="0" cy="0" r="1" gradientUnits="userSpaceOnUse" gradientTransform="translate(123.785 -6.87273) rotate(47.0454) scale(53.1672)">
<stop stop-color="#8B44FF"/>
<stop offset="1" stop-color="#5800E8"/>
</radialGradient>
<radialGradient id="paint11_radial_96_2" cx="0" cy="0" r="1" gradientUnits="userSpaceOnUse" gradientTransform="translate(247.31 149.385) rotate(47.0454) scale(24.3683)">
<stop stop-color="#8B44FF"/>
<stop offset="1" stop-color="#5800E8"/>
</radialGradient>
<radialGradient id="paint12_radial_96_2" cx="0" cy="0" r="1" gradientUnits="userSpaceOnUse" gradientTransform="translate(383.61 106.225) rotate(47.0454) scale(24.3683)">
<stop stop-color="#8B44FF"/>
<stop offset="1" stop-color="#5800E8"/>
</radialGradient>
<radialGradient id="paint13_radial_96_2" cx="0" cy="0" r="1" gradientUnits="userSpaceOnUse" gradientTransform="translate(274.955 247.023) rotate(47.0454) scale(42.3248)">
<stop stop-color="#8B44FF"/>
<stop offset="1" stop-color="#5800E8"/>
</radialGradient>
<clipPath id="clip0_96_2">
<rect width="529" height="296" fill="white"/>
</clipPath>
</defs>
</svg>
