<svg width="529" height="296" viewBox="0 0 529 296" fill="none" xmlns="http://www.w3.org/2000/svg">
<g clip-path="url(#clip0_96_256)">
<rect width="529" height="296" fill="#14B8A6"/>
<circle cx="68.5" cy="147.5" r="26" fill="url(#paint0_radial_96_256)" stroke="white" stroke-width="5"/>
<circle cx="166.5" cy="147.5" r="26" fill="url(#paint1_radial_96_256)" stroke="white" stroke-width="5"/>
<circle cx="264.5" cy="147.5" r="26" fill="url(#paint2_radial_96_256)" stroke="white" stroke-width="5"/>
<path d="M69.09 123.5L113 -67.5" stroke="white"/>
<path d="M-108 395.5L52.5 169" stroke="white"/>
<path d="M-107 396.5L148.5 164" stroke="white"/>
<path d="M-104 400L246.5 164" stroke="white"/>
<path d="M-6.5 398L247.5 168" stroke="white"/>
<path d="M70.5 416.5L251 170.5" stroke="white"/>
<path d="M168 416.5L257 172.5" stroke="white"/>
<path d="M365 416.5L273.5 172" stroke="white"/>
<path d="M267 416.5L264 173.5" stroke="white"/>
<path d="M-18.5 390.5L58 172" stroke="white"/>
<path d="M-16.5 392L153.5 170" stroke="white"/>
<path d="M81.5 391.5L159 172.5" stroke="white"/>
<path d="M170 389.5L165.5 173.5" stroke="white"/>
<path d="M256 391.5L175.5 172" stroke="white"/>
<path d="M350.5 392.5L184 167" stroke="white"/>
<path d="M70.5 389.5L67.5 173.5" stroke="white"/>
<path d="M158.5 391L79 171.5" stroke="white"/>
<path d="M253.5 391.5L87 166" stroke="white"/>
<path d="M345 398L91.5 160" stroke="white"/>
<path d="M85 128L213.5 -68.5" stroke="white"/>
<path d="M89.5 132.5L297 -74.5" stroke="white"/>
<path d="M92.5 136L391 -76" stroke="white"/>
<path d="M247 127L131 -71" stroke="white"/>
<path d="M256 122L219.5 -68" stroke="white"/>
<path d="M270 121L307.5 -69" stroke="white"/>
<path d="M281 127.5L398.5 -72" stroke="white"/>
<path d="M157.5 122L121.5 -68.5" stroke="white"/>
<path d="M171.5 121L210 -69" stroke="white"/>
<path d="M182.5 126L300 -72" stroke="white"/>
<path d="M187 129.5L394 -74.5" stroke="white"/>
<path d="M45.8027 68.4014L34.4014 57L23 68.4014L34.4014 79.8028L45.8027 68.4014Z" fill="white"/>
<path d="M399.534 205.548L391 220L382.452 205.548L368 197L382.452 188.466L391 174L399.534 188.466L414 197L399.534 205.548Z" fill="white"/>
<path d="M455.803 100.401L444.401 89L433 100.401L444.401 111.803L455.803 100.401Z" fill="white"/>
</g>
<defs>
<radialGradient id="paint0_radial_96_256" cx="0" cy="0" r="1" gradientUnits="userSpaceOnUse" gradientTransform="translate(59.9545 140.023) rotate(47.0454) scale(42.3248)">
<stop stop-color="#CE44FF"/>
<stop offset="1" stop-color="#9000E8"/>
</radialGradient>
<radialGradient id="paint1_radial_96_256" cx="0" cy="0" r="1" gradientUnits="userSpaceOnUse" gradientTransform="translate(157.955 140.023) rotate(47.0454) scale(42.3248)">
<stop stop-color="#44A5FF"/>
<stop offset="1" stop-color="#0041E8"/>
</radialGradient>
<radialGradient id="paint2_radial_96_256" cx="0" cy="0" r="1" gradientUnits="userSpaceOnUse" gradientTransform="translate(255.955 140.023) rotate(47.0454) scale(42.3248)">
<stop stop-color="#44FFC7"/>
<stop offset="1" stop-color="#00B0E8"/>
</radialGradient>
<clipPath id="clip0_96_256">
<rect width="529" height="296" fill="white"/>
</clipPath>
</defs>
</svg>
