<svg width="529" height="296" viewBox="0 0 529 296" fill="none" xmlns="http://www.w3.org/2000/svg">
<rect width="529" height="296" fill="#5061FF"/>
<path d="M262.167 142.883C267.358 131.415 280.862 126.326 292.33 131.517L346.318 155.953C357.786 161.144 362.875 174.648 357.684 186.116L333.248 240.104C328.058 251.572 314.553 256.661 303.085 251.471L249.097 227.034C237.629 221.844 232.54 208.339 237.731 196.871L262.167 142.883Z" fill="url(#paint0_radial_113_409)" stroke="white" stroke-width="9.11704"/>
<path fill-rule="evenodd" clip-rule="evenodd" d="M315.216 169.396C316.254 167.102 315.236 164.401 312.942 163.363C310.649 162.325 307.948 163.343 306.91 165.636L305.03 169.789L288.418 162.27C286.125 161.232 283.424 162.25 282.386 164.544C281.348 166.837 282.365 169.538 284.659 170.576L305.381 179.955L305.424 179.975L305.466 179.994L313.133 183.464C309.493 188.491 303.442 194.519 295.13 198.684C293.799 193.197 293.479 187.797 293.757 182.9C293.899 180.386 291.977 178.233 289.463 178.091C286.95 177.948 284.797 179.87 284.654 182.384C284.316 188.353 284.748 195.098 286.564 201.988C281.132 203.495 275.009 204.138 268.222 203.42C265.718 203.154 263.474 204.969 263.209 207.473C262.944 209.976 264.758 212.221 267.262 212.486C275.557 213.364 283.012 212.532 289.598 210.627C292.306 216.702 296.285 222.687 301.954 228.152C303.767 229.899 306.653 229.847 308.4 228.034C310.147 226.221 310.094 223.336 308.282 221.588C303.69 217.162 300.411 212.323 298.138 207.377C309.298 202.054 317.176 193.828 321.572 187.284L326.188 189.373C328.482 190.411 331.183 189.394 332.221 187.1C333.259 184.807 332.241 182.106 329.948 181.067L321.656 177.314L321.621 177.298L313.336 173.549L315.216 169.396Z" fill="#1854FF"/>
<path d="M286.772 101.283L297.671 96.197C315.506 87.8737 334.796 104.549 329.141 123.401L326.659 131.673" stroke="white" stroke-width="7.59753" stroke-linecap="round"/>
<path fill-rule="evenodd" clip-rule="evenodd" d="M291.652 126.355L293.13 133.91C296.755 152.441 284.673 170.402 266.142 174.027L240.825 178.981L258.015 141.003C263.861 128.087 278.497 121.914 291.652 126.355Z" fill="url(#paint1_radial_113_409)"/>
<path d="M167.339 97.8494C164.922 85.4957 172.978 73.5215 185.331 71.1044L243.489 59.7255C255.843 57.3084 267.817 65.3637 270.234 77.7175L281.613 135.875C284.03 148.229 275.975 160.203 263.621 162.62L205.463 173.999C193.11 176.416 181.135 168.361 178.718 156.007L167.339 97.8494Z" fill="url(#paint2_radial_113_409)" stroke="white" stroke-width="9.11704"/>
<path d="M247.571 140.213C246.634 140.397 245.683 139.977 245.186 139.161L237.687 126.838L217.931 130.703L215.63 144.944C215.478 145.887 214.754 146.634 213.817 146.818L209.247 147.712C208.324 147.892 207.498 147.108 207.631 146.177L215.612 90.0943C215.749 89.1337 216.479 88.365 217.431 88.1786L222.265 87.2329C223.218 87.0464 224.185 87.4844 224.673 88.3241L253.135 137.275C253.608 138.088 253.138 139.124 252.215 139.305L247.571 140.213ZM226.255 107.15C226.009 106.653 225.592 105.917 225.005 104.942C224.456 103.91 223.908 102.878 223.359 101.846C222.801 100.766 222.356 99.8865 222.025 99.208C221.973 100.209 221.893 101.315 221.783 102.526C221.711 103.679 221.625 104.761 221.526 105.772C221.417 106.734 221.323 107.521 221.244 108.131L218.905 123.526L234.223 120.529L226.255 107.15Z" fill="#1854FF"/>
<path d="M286.654 105.082C286.654 111.376 281.552 116.478 275.258 116.478C268.964 116.478 263.862 111.376 263.862 105.082C263.862 98.7879 268.964 93.6856 275.258 93.6856C281.552 93.6856 286.654 98.7879 286.654 105.082ZM332.357 141.17C332.357 147.464 327.255 152.566 320.961 152.566C314.667 152.566 309.564 147.464 309.564 141.17C309.564 134.876 314.667 129.774 320.961 129.774C327.255 129.774 332.357 134.876 332.357 141.17Z" fill="#1854FF" stroke="white" stroke-width="7.59753"/>
<path d="M127.534 218.548L119 233L110.452 218.548L96 210L110.452 201.466L119 187L127.534 201.466L142 210L127.534 218.548Z" fill="white"/>
<path d="M438.803 148.401L427.401 137L416 148.401L427.401 159.803L438.803 148.401Z" fill="white"/>
<path d="M372.803 61.4014L361.401 50L350 61.4014L361.401 72.8028L372.803 61.4014Z" fill="white"/>
<defs>
<radialGradient id="paint0_radial_113_409" cx="0" cy="0" r="1" gradientUnits="userSpaceOnUse" gradientTransform="translate(270.232 114.009) rotate(69.3526) scale(161.168)">
<stop stop-color="#EFF6FF"/>
<stop offset="0.0001" stop-color="#CBD8FF"/>
<stop offset="1" stop-color="#EFF6FF"/>
</radialGradient>
<radialGradient id="paint1_radial_113_409" cx="0" cy="0" r="1" gradientUnits="userSpaceOnUse" gradientTransform="translate(161.305 69.0407) rotate(34.5191) scale(168.667 170.044)">
<stop offset="0.601749" stop-color="#4B79FE"/>
<stop offset="1" stop-color="#EFF6FF" stop-opacity="0"/>
</radialGradient>
<radialGradient id="paint2_radial_113_409" cx="0" cy="0" r="1" gradientUnits="userSpaceOnUse" gradientTransform="translate(159.413 69.2081) rotate(33.9296) scale(161.168)">
<stop stop-color="#CBD8FF"/>
<stop offset="1" stop-color="#EFF6FF"/>
</radialGradient>
</defs>
</svg>
