<svg width="529" height="296" viewBox="0 0 529 296" fill="none" xmlns="http://www.w3.org/2000/svg">
<g clip-path="url(#clip0_96_117)">
<rect width="529" height="296" fill="#FF559C"/>
<path d="M287.291 6.61126L266.485 69.0308H259.951L241.491 5.74192C237.012 -9.61529 248.53 -24.9725 264.527 -24.9725C280.906 -24.9725 292.471 -8.92668 287.291 6.61126Z" stroke="url(#paint0_linear_96_117)" stroke-width="8.54576"/>
<path d="M474.767 70.4911L425.538 114.145L419.879 110.878L435.537 46.8382C439.337 31.2989 456.99 23.7581 470.844 31.7567C485.028 39.9459 487.021 59.6245 474.767 70.4911Z" stroke="url(#paint1_linear_96_117)" stroke-width="8.54576"/>
<path d="M599.74 219.859L535.28 233.05L532.013 227.391L577.593 179.76C588.653 168.203 607.712 170.499 615.71 184.353C623.9 198.537 615.786 216.575 599.74 219.859Z" stroke="url(#paint2_linear_96_117)" stroke-width="8.54576"/>
<path d="M-70.3725 219.859L-5.9123 233.05L-2.64517 227.391L-48.2253 179.76C-59.2855 168.203 -78.3442 170.499 -86.3427 184.353C-94.5319 198.537 -86.4184 216.575 -70.3725 219.859Z" stroke="url(#paint3_linear_96_117)" stroke-width="8.54576"/>
<path d="M51.3537 70.4911L100.582 114.145L106.241 110.878L90.5831 46.8382C86.7835 31.2989 69.1302 23.7581 55.2763 31.7567C41.0921 39.9459 39.0993 59.6245 51.3537 70.4911Z" stroke="url(#paint4_linear_96_117)" stroke-width="8.54576"/>
<path fill-rule="evenodd" clip-rule="evenodd" d="M229.909 102.043C229.302 102.801 228.972 103.742 228.972 104.713V197.217C228.972 199.577 230.885 201.49 233.245 201.49H293.065C295.425 201.49 297.338 199.577 297.338 197.217V104.713C297.338 103.742 297.008 102.801 296.402 102.043L266.492 64.6556C264.781 62.5175 261.529 62.5175 259.819 64.6556L229.909 102.043ZM263.155 96.8045C266.695 96.8045 269.565 93.935 269.565 90.3952C269.565 86.8555 266.695 83.9859 263.155 83.9859C259.616 83.9859 256.746 86.8555 256.746 90.3952C256.746 93.935 259.616 96.8045 263.155 96.8045Z" fill="url(#paint5_linear_96_117)"/>
<path fill-rule="evenodd" clip-rule="evenodd" d="M377.356 124.447C376.452 124.8 375.695 125.45 375.21 126.29L328.958 206.401C327.778 208.445 328.478 211.058 330.522 212.238L382.328 242.148C384.371 243.328 386.985 242.628 388.165 240.584L434.417 160.473C434.902 159.633 435.087 158.653 434.941 157.693L427.731 110.36C427.319 107.653 424.503 106.027 421.952 107.023L377.356 124.447ZM408.767 136.533C411.833 138.303 415.753 137.253 417.523 134.187C419.293 131.122 418.242 127.202 415.177 125.432C412.111 123.662 408.191 124.712 406.421 127.778C404.652 130.843 405.702 134.763 408.767 136.533Z" fill="url(#paint6_linear_96_117)"/>
<path fill-rule="evenodd" clip-rule="evenodd" d="M488.402 217.88C487.443 217.734 486.462 217.919 485.622 218.404L405.511 264.656C403.467 265.836 402.767 268.45 403.947 270.493L433.857 322.299C435.037 324.343 437.65 325.043 439.694 323.863L519.805 277.611C520.645 277.126 521.296 276.369 521.649 275.465L539.072 230.869C540.069 228.318 538.443 225.502 535.736 225.09L488.402 217.88ZM509.562 244.054C511.332 247.119 515.252 248.17 518.318 246.4C521.383 244.63 522.433 240.71 520.664 237.644C518.894 234.579 514.974 233.529 511.908 235.298C508.843 237.068 507.792 240.988 509.562 244.054Z" fill="url(#paint7_linear_96_117)"/>
<path fill-rule="evenodd" clip-rule="evenodd" d="M40.9658 217.88C41.925 217.734 42.9053 217.919 43.7456 218.404L123.857 264.656C125.901 265.836 126.601 268.45 125.421 270.493L95.5107 322.299C94.3308 324.343 91.7175 325.043 89.6738 323.863L9.56257 277.611C8.72231 277.126 8.07217 276.369 7.71909 275.465L-9.70452 230.869C-10.701 228.318 -9.07495 225.502 -6.36797 225.09L40.9658 217.88ZM19.8054 244.054C18.0356 247.119 14.1157 248.17 11.0501 246.4C7.98462 244.63 6.93429 240.71 8.70418 237.644C10.4741 234.579 14.3939 233.529 17.4595 235.298C20.525 237.068 21.5753 240.988 19.8054 244.054Z" fill="url(#paint8_linear_96_117)"/>
<path fill-rule="evenodd" clip-rule="evenodd" d="M148.765 124.447C149.669 124.8 150.425 125.45 150.91 126.29L197.163 206.401C198.343 208.445 197.642 211.058 195.599 212.238L143.793 242.148C141.749 243.328 139.136 242.628 137.956 240.584L91.7036 160.473C91.2185 159.633 91.0338 158.653 91.1799 157.693L98.389 110.36C98.8012 107.653 101.618 106.027 104.168 107.023L148.765 124.447ZM117.353 136.533C114.287 138.303 110.367 137.253 108.598 134.187C106.828 131.122 107.878 127.202 110.944 125.432C114.009 123.662 117.929 124.712 119.699 127.778C121.469 130.843 120.418 134.763 117.353 136.533Z" fill="url(#paint9_linear_96_117)"/>
<path d="M263.155 98.941C267.875 98.941 271.701 95.115 271.701 90.3953C271.701 85.6756 267.875 81.8495 263.155 81.8495C258.436 81.8495 254.61 85.6756 254.61 90.3953C254.61 95.115 258.436 98.941 263.155 98.941Z" stroke="#E9FFAC" stroke-width="4.27288"/>
<path d="M407.699 138.383C411.787 140.742 417.013 139.342 419.373 135.255C421.733 131.167 420.332 125.941 416.245 123.581C412.158 121.221 406.931 122.621 404.571 126.709C402.211 130.796 403.612 136.023 407.699 138.383Z" stroke="#FFC6C6" stroke-width="4.27288"/>
<path d="M507.712 245.121C510.072 249.208 515.299 250.609 519.386 248.249C523.474 245.889 524.874 240.663 522.514 236.575C520.154 232.488 514.928 231.087 510.84 233.447C506.753 235.807 505.353 241.034 507.712 245.121Z" stroke="#CCACFF" stroke-width="4.27288"/>
<path d="M21.6553 245.121C19.2954 249.208 14.0689 250.609 9.98157 248.249C5.8942 245.889 4.49376 240.663 6.85361 236.575C9.21345 232.488 14.44 231.087 18.5273 233.447C22.6147 235.807 24.0151 241.034 21.6553 245.121Z" stroke="#00FFF0" stroke-width="4.27288"/>
<path d="M118.421 138.383C114.334 140.742 109.107 139.342 106.748 135.255C104.388 131.167 105.788 125.941 109.875 123.581C113.963 121.221 119.189 122.621 121.549 126.709C123.909 130.796 122.509 136.023 118.421 138.383Z" stroke="#6FC2FF" stroke-width="4.27288"/>
<path d="M254.61 69.0308L258.882 83.9858" stroke="white" stroke-width="8.54576" stroke-linecap="round"/>
<path d="M415.253 108.207L411.476 123.295" stroke="white" stroke-width="8.54576" stroke-linecap="round"/>
<path d="M529.342 222.766L518.527 233.944" stroke="white" stroke-width="8.54576" stroke-linecap="round"/>
<path d="M0.0255127 222.766L10.8405 233.944" stroke="white" stroke-width="8.54576" stroke-linecap="round"/>
<path d="M110.867 108.207L114.644 123.295" stroke="white" stroke-width="8.54576" stroke-linecap="round"/>
<path d="M271.701 69.0308L267.428 83.9858" stroke="white" stroke-width="8.54576" stroke-linecap="round"/>
<path d="M430.055 116.753L418.877 127.568" stroke="white" stroke-width="8.54576" stroke-linecap="round"/>
<path d="M537.888 237.567L522.8 241.344" stroke="white" stroke-width="8.54576" stroke-linecap="round"/>
<path d="M-8.52032 237.567L6.56759 241.344" stroke="white" stroke-width="8.54576" stroke-linecap="round"/>
<path d="M96.0653 116.753L107.243 127.568" stroke="white" stroke-width="8.54576" stroke-linecap="round"/>
<path d="M184.534 75.5483L176 90L167.452 75.5483L153 67L167.452 58.4663L176 44L184.534 58.4663L199 67L184.534 75.5483Z" fill="white"/>
<path d="M501.803 164.401L490.401 153L479 164.401L490.401 175.803L501.803 164.401Z" fill="white"/>
<path d="M308.803 255.401L297.401 244L286 255.401L297.401 266.803L308.803 255.401Z" fill="white"/>
</g>
<defs>
<linearGradient id="paint0_linear_96_117" x1="265.292" y1="-29.2454" x2="265.292" y2="73.3037" gradientUnits="userSpaceOnUse">
<stop offset="0.675241" stop-color="white"/>
<stop offset="1" stop-color="#CBD8FF"/>
</linearGradient>
<linearGradient id="paint1_linear_96_117" x1="473.643" y1="28.4385" x2="422.368" y2="117.249" gradientUnits="userSpaceOnUse">
<stop offset="0.675241" stop-color="white"/>
<stop offset="1" stop-color="#CBD8FF"/>
</linearGradient>
<linearGradient id="paint2_linear_96_117" x1="619.793" y1="182.878" x2="530.983" y2="234.153" gradientUnits="userSpaceOnUse">
<stop offset="0.675241" stop-color="white"/>
<stop offset="1" stop-color="#CBD8FF"/>
</linearGradient>
<linearGradient id="paint3_linear_96_117" x1="-90.4254" y1="182.878" x2="-1.61529" y2="234.153" gradientUnits="userSpaceOnUse">
<stop offset="0.675241" stop-color="white"/>
<stop offset="1" stop-color="#CBD8FF"/>
</linearGradient>
<linearGradient id="paint4_linear_96_117" x1="52.4777" y1="28.4385" x2="103.752" y2="117.249" gradientUnits="userSpaceOnUse">
<stop offset="0.675241" stop-color="white"/>
<stop offset="1" stop-color="#CBD8FF"/>
</linearGradient>
<linearGradient id="paint5_linear_96_117" x1="263.155" y1="92.5313" x2="263.155" y2="201.49" gradientUnits="userSpaceOnUse">
<stop stop-color="#262F48"/>
<stop offset="1"/>
</linearGradient>
<linearGradient id="paint6_linear_96_117" x1="410.904" y1="132.832" x2="356.425" y2="227.193" gradientUnits="userSpaceOnUse">
<stop stop-color="#262F48"/>
<stop offset="1"/>
</linearGradient>
<linearGradient id="paint7_linear_96_117" x1="513.263" y1="241.917" x2="418.902" y2="296.396" gradientUnits="userSpaceOnUse">
<stop stop-color="#262F48"/>
<stop offset="1"/>
</linearGradient>
<linearGradient id="paint8_linear_96_117" x1="16.105" y1="241.917" x2="110.466" y2="296.396" gradientUnits="userSpaceOnUse">
<stop stop-color="#262F48"/>
<stop offset="1"/>
</linearGradient>
<linearGradient id="paint9_linear_96_117" x1="115.216" y1="132.832" x2="169.696" y2="227.193" gradientUnits="userSpaceOnUse">
<stop stop-color="#262F48"/>
<stop offset="1"/>
</linearGradient>
<clipPath id="clip0_96_117">
<rect width="529" height="296" fill="white"/>
</clipPath>
</defs>
</svg>
