<svg width="72" height="72" viewBox="0 0 72 72" fill="none" xmlns="http://www.w3.org/2000/svg">
<rect width="72" height="72" fill="url(#paint0_linear_689_452)"/>
<path d="M14 27H58L61.4744 56.5326C61.7542 58.9106 59.8962 61 57.5018 61H14.4982C12.1038 61 10.2458 58.9106 10.5256 56.5326L14 27Z" fill="url(#paint1_linear_689_452)"/>
<rect x="14" y="14" width="44" height="44" rx="4" fill="url(#paint2_linear_689_452)"/>
<path d="M24.5644 41.6666H21L25.0159 29.5H29.5308L33.5468 41.6666H29.9823L27.3209 32.8506H27.2259L24.5644 41.6666ZM23.8991 36.8665H30.6002V39.3378H23.8991V36.8665Z" fill="white"/>
<path d="M34.7186 41.6666V29.5H39.9701C40.8731 29.5 41.6632 29.6782 42.3405 30.0347C43.0177 30.3911 43.5445 30.8921 43.9207 31.5377C44.2969 32.1832 44.4851 32.9377 44.4851 33.8011C44.4851 34.6724 44.291 35.4268 43.9029 36.0645C43.5187 36.7021 42.9781 37.1932 42.2811 37.5378C41.588 37.8823 40.7781 38.0546 39.8513 38.0546H36.7146V35.4882H39.186C39.5741 35.4882 39.9048 35.4209 40.1781 35.2862C40.4553 35.1476 40.6672 34.9516 40.8137 34.6981C40.9642 34.4446 41.0395 34.1456 41.0395 33.8011C41.0395 33.4525 40.9642 33.1555 40.8137 32.91C40.6672 32.6605 40.4553 32.4703 40.1781 32.3397C39.9048 32.205 39.5741 32.1377 39.186 32.1377H38.0216V41.6666H34.7186Z" fill="white"/>
<path d="M49 29.5V41.6666H45.697V29.5H49Z" fill="white"/>
<defs>
<linearGradient id="paint0_linear_689_452" x1="36" y1="0" x2="36" y2="72" gradientUnits="userSpaceOnUse">
<stop stop-color="#F1F0FF"/>
<stop offset="1" stop-color="#E1DDFA"/>
</linearGradient>
<linearGradient id="paint1_linear_689_452" x1="36" y1="27" x2="36" y2="60" gradientUnits="userSpaceOnUse">
<stop offset="0.562874" stop-color="#9B90DF"/>
<stop offset="1" stop-color="#9B90DF" stop-opacity="0"/>
</linearGradient>
<linearGradient id="paint2_linear_689_452" x1="36" y1="14" x2="36" y2="58" gradientUnits="userSpaceOnUse">
<stop stop-color="#6F4BFF"/>
<stop offset="1" stop-color="#4F23FF"/>
</linearGradient>
</defs>
</svg>
