<svg xmlns="http://www.w3.org/2000/svg" width="22" height="22" fill="none"><rect width="22" height="22" fill="#E0E5FF" rx="4"/><path fill="#0041A2" d="M4.59 15H2.944l2.51-7.273h1.982L9.942 15H8.295L6.473 9.39h-.057L4.591 15Zm-.102-2.859H8.38v1.2H4.488v-1.2ZM10.734 15V7.727h2.869c.552 0 1.021.106 1.41.316.388.209.684.499.888.87.206.37.308.796.308 1.279 0 .483-.104.909-.312 1.278-.208.37-.51.657-.905.863-.394.206-.87.309-1.428.309h-1.829V11.41h1.58c.296 0 .54-.051.732-.153.194-.104.338-.247.433-.43.097-.184.146-.396.146-.635 0-.242-.049-.452-.146-.632a.972.972 0 0 0-.433-.423c-.194-.102-.44-.153-.739-.153h-1.037V15h-1.537Zm7.928-7.273V15h-1.538V7.727h1.538Z"/></svg>