<svg width="310" height="310" viewBox="0 0 310 310" fill="none" xmlns="http://www.w3.org/2000/svg">
<rect width="310" height="310" fill="white"/>
<path d="M44.3236 169.779H29.5664V184.558H44.3236V169.779Z" fill="#262739"/>
<path d="M73.8373 140.221H59.0801V155H73.8373V140.221Z" fill="#262739"/>
<path d="M103.351 110.663H88.5938V125.442H103.351V110.663Z" fill="#262739"/>
<path d="M132.865 81.1047H118.107V95.8838H132.865V81.1047Z" fill="#262739"/>
<path d="M59.0805 155H44.3232V169.779H59.0805V155Z" fill="#262739"/>
<path d="M236.163 199.337H221.405V228.895H236.163V199.337Z" fill="#262739"/>
<path d="M103.351 199.337H59.0801V214.116H103.351V199.337Z" fill="#FFEEDD"/>
<path d="M44.3232 199.338H29.5664V228.895H44.3232V199.338Z" fill="#3491FB"/>
<path d="M59.0801 169.781H44.3232V184.559H59.0801V169.781Z" fill="#3491FB"/>
<path d="M73.8369 155H59.0801V169.779H73.8369V155Z" fill="#3491FB"/>
<path d="M88.5937 140.221H73.8369V155H88.5937V140.221Z" fill="#3491FB"/>
<path d="M132.864 95.8838H118.107V110.663H132.864V95.8838Z" fill="#3491FB"/>
<path d="M103.351 125.442H88.5938V140.221H103.351V125.442Z" fill="#3491FB"/>
<path d="M147.621 81.1047H132.864V95.8835H147.621V81.1047Z" fill="#3491FB"/>
<path d="M118.107 110.663H103.351V125.442H118.107V110.663Z" fill="#3491FB"/>
<path d="M265.676 66.3257H147.621V81.1045H265.676V66.3257Z" fill="#3491FB"/>
<path d="M221.405 199.337H206.648V228.895H221.405V199.337Z" fill="#FFDDB5"/>
<path d="M236.129 169.782H221.372V199.339H236.129V169.782Z" fill="#FFDDB5"/>
<path d="M250.919 140.224H236.162V169.782H250.919V140.224Z" fill="#FFDDB5"/>
<path d="M265.609 110.667H250.853V140.224H265.609V110.667Z" fill="#FFDDB5"/>
<path d="M280.433 81.1067H265.676V110.663H280.433V81.1067Z" fill="#FFDDB5"/>
<path d="M44.3232 184.558H29.5664V199.338H44.3232V184.558Z" fill="#74ADFF"/>
<path d="M206.648 184.558H44.3232V199.337H206.648V184.558Z" fill="#74ADFF"/>
<path d="M191.892 199.338H103.351V214.117H191.892V199.338Z" fill="#74ADFF"/>
<path d="M206.648 169.781H59.0801V184.559H206.648V169.781Z" fill="#74ADFF"/>
<path d="M221.405 155.002H73.8369V169.781H221.405V155.002Z" fill="#74ADFF"/>
<path d="M236.162 110.665H118.107V125.443H236.162V110.665Z" fill="#74ADFF"/>
<path d="M221.405 140.221H88.5938V155.002H221.405V140.221Z" fill="#74ADFF"/>
<path d="M250.919 95.8838H132.864V110.665H250.919V95.8838Z" fill="#74ADFF"/>
<path d="M236.162 125.442H103.351V140.223H236.162V125.442Z" fill="#74ADFF"/>
<path d="M213.736 110.665H199.013V125.446H213.736V110.665Z" fill="white"/>
<path d="M199.055 140.225H184.331V155.006H199.055V140.225Z" fill="white"/>
<path d="M199.013 110.665H184.339V125.446H199.013V110.665Z" fill="white"/>
<path d="M184.331 140.225H169.657V155.006H184.331V140.225Z" fill="white"/>
<path d="M184.256 95.886H169.532V110.667H184.256V95.886Z" fill="white"/>
<path d="M169.574 125.446H154.851V140.227H169.574V125.446Z" fill="white"/>
<path d="M169.648 95.886H154.925V110.667H169.648V95.886Z" fill="white"/>
<path d="M154.967 125.446H140.243V140.227H154.967V125.446Z" fill="white"/>
<path d="M250.853 81.1047H147.621V95.886H250.853V81.1047Z" fill="#74ADFF"/>
<path d="M206.648 214.116H118.107V228.895H206.648V214.116Z" fill="#FFEEDD"/>
<path d="M206.648 199.336H191.925V214.115H206.648V199.336Z" fill="#FFEEDD"/>
<path d="M221.372 169.781H206.648V199.336H221.372V169.781Z" fill="#FFEEDD"/>
<path d="M236.162 140.223H221.438V169.778H236.162V140.223Z" fill="#FFEEDD"/>
<path d="M250.853 110.666H236.129V140.221H250.853V110.666Z" fill="#FFEEDD"/>
<path d="M265.676 81.1047H250.952V110.659H265.676V81.1047Z" fill="#FFEEDD"/>
<path d="M280.333 66.3319H265.609V81.1067H280.333V66.3319Z" fill="#FFEEDD"/>
<path d="M44.3232 199.337H59.0801V214.116H103.351V228.895H44.3232V199.337Z" fill="#FFDDB5"/>
<path d="M103.351 214.116H118.107V228.895H206.648V243.673H103.351V214.116Z" fill="#FFDDB5"/>
<path d="M221.406 228.895H206.648V243.674H221.406V228.895Z" fill="#262739"/>
<path d="M88.5942 125.442H73.8369V140.221H88.5942V125.442Z" fill="#262739"/>
<path d="M250.919 169.779H236.162V199.337H250.919V169.779Z" fill="#262739"/>
<path d="M118.108 95.8838H103.351V110.663H118.108V95.8838Z" fill="#262739"/>
<path d="M265.676 140.221H250.919V169.779H265.676V140.221Z" fill="#262739"/>
<path d="M147.621 66.3257H132.864V81.1047H147.621V66.3257Z" fill="#262739"/>
<path d="M280.433 110.663H265.676V140.221H280.433V110.663Z" fill="#262739"/>
<path d="M280.433 51.5466H147.621V66.3257H280.433V51.5466Z" fill="#262739"/>
<path d="M103.351 228.895H29.5664V243.674H103.351V228.895Z" fill="#262739"/>
<path d="M206.648 243.674H103.351V258.453H206.648V243.674Z" fill="#262739"/>
<path d="M295.19 66.3257H280.433V110.663H295.19V66.3257Z" fill="#262739"/>
<path d="M29.5668 184.558H14.8096V228.895H29.5668V184.558Z" fill="#262739"/>
</svg>
