<svg width="226" height="226" viewBox="0 0 226 226" fill="none" xmlns="http://www.w3.org/2000/svg">
<path d="M182.93 57.0699H211.005V141.09H182.93V155.124H84.4697V43.0367H182.93V57.0699Z" fill="#FFDAD6"/>
<path d="M154.828 211.048H140.777V225.099H154.828V211.048Z" fill="#262739"/>
<path d="M140.777 169.157H126.727V211.048H140.777V169.157Z" fill="#262739"/>
<path d="M182.93 169.157H168.879V183.191H182.93V169.157Z" fill="#262739"/>
<path d="M29.0195 127.056H14.9688V141.09H29.0195V127.056Z" fill="#262739"/>
<path d="M14.9688 57.0701H0.917969V127.056H14.9688V57.0701Z" fill="#262739"/>
<path d="M182.93 29.0027H168.879V43.0364H182.93V29.0027Z" fill="#262739"/>
<path d="M112.886 29.0027H98.5205V43.0364H112.886V29.0027Z" fill="#262739"/>
<path d="M43.3848 29.0027H29.0195V43.0364H43.3848V29.0027Z" fill="#262739"/>
<path d="M196.98 155.124H182.93V169.157H196.98V155.124Z" fill="#262739"/>
<path d="M126.937 155.124H84.4697V169.157H126.937V155.124Z" fill="#262739"/>
<path d="M196.98 43.0364H182.93V57.0701H196.98V43.0364Z" fill="#262739"/>
<path d="M98.6777 43.0364H84.4697V57.0701H98.6777V43.0364Z" fill="#262739"/>
<path d="M112.886 43.0364H98.6777V57.0701H112.886V43.0364Z" fill="#FF897D"/>
<path d="M112.886 14.952H98.6777V29.0027H112.886V14.952Z" fill="#FF5449"/>
<path d="M84.4698 43.0364H70.416V57.0701H84.4698V43.0364Z" fill="#FF5449"/>
<path d="M29.0195 43.0364H14.9688V57.0701H29.0195V43.0364Z" fill="#262739"/>
<path d="M211.031 141.09H196.98V155.124H211.031V141.09Z" fill="#262739"/>
<path d="M84.4697 141.09H29.0195V155.124H84.4697V141.09Z" fill="#262739"/>
<path d="M70.4189 71.1038H56.3682V141.09H70.4189V71.1038Z" fill="#262739"/>
<path d="M84.4697 71.1038H70.4189V141.09H84.4697V71.1038Z" fill="#FF897D"/>
<path d="M56.3621 71.1038H42.4639V141.09H56.3621V71.1038Z" fill="#FF5449"/>
<path d="M211.031 57.0701H196.98V71.1038H211.031V57.0701Z" fill="#262739"/>
<path d="M84.4697 57.0701H70.4189V71.1038H84.4697V57.0701Z" fill="#262739"/>
<path d="M98.6777 57.0701H84.4697V71.1038H98.6777V57.0701Z" fill="#FF897D"/>
<path d="M43.3848 43.0364H29.0195V57.0701H43.3848V43.0364Z" fill="#FF897D"/>
<path d="M70.416 29.0027H43.3848V43.0364H70.416V29.0027Z" fill="#FF897D"/>
<path d="M98.6777 14.952H84.4697V29.0027H98.6777V14.952Z" fill="#FF897D"/>
<path d="M29.1768 71.1212H14.9688V99.08H29.1768V71.1212Z" fill="#FF897D"/>
<path d="M29.1768 98.7325H14.9688V127.056H29.1768V98.7325Z" fill="#FFB4AB"/>
<path d="M29.1768 57.0701H14.9688V71.1212H29.1768V57.0701Z" fill="#FFB4AB"/>
<path d="M42.4639 71.1212H29.1768V85.1722H42.4639V71.1212Z" fill="#FFB4AB"/>
<path d="M56.4414 57.0701H42.4639V71.1212H56.4414V57.0701Z" fill="#FFB4AB"/>
<path d="M84.4697 14.9346H70.416V29.0027H84.4697V14.9346Z" fill="#FFB4AB"/>
<path d="M42.4639 112.658H29.0195V141.09H42.4639V112.658Z" fill="#FFB4AB"/>
<path d="M42.4639 85.1722H29.0195V113.604H42.4639V85.1722Z" fill="#FFDAD6"/>
<path d="M42.4639 57.0701H29.0195V71.1212H42.4639V57.0701Z" fill="#FFDAD6"/>
<path d="M70.4189 43.0191H43.3848V57.0701H70.4189V43.0191Z" fill="#FFDAD6"/>
<path d="M84.4697 29.0027H70.416V43.0538H84.4697V29.0027Z" fill="#FFDAD6"/>
<path d="M98.6777 29.0027H84.4697V43.0364H98.6777V29.0027Z" fill="#FF5449"/>
<path d="M70.4161 57.0701H56.3623V71.1038H70.4161V57.0701Z" fill="#FF5449"/>
<path d="M98.6777 141.09H84.4697V155.124H98.6777V141.09Z" fill="#FF897D"/>
<path d="M196.98 141.09H182.93V155.124H196.98V141.09Z" fill="#FF897D"/>
<path d="M140.804 29.0027H126.753V43.0364H140.804V29.0027Z" fill="#FF897D"/>
<path d="M126.937 29.0027H112.886V57.0701H126.937V29.0027Z" fill="#FFB4AB"/>
<path d="M140.804 57.0701H126.937V71.1038H140.804V57.0701Z" fill="#FFB4AB"/>
<path d="M126.937 71.1212H98.6777V85.1548H126.937V71.1212Z" fill="#FFB4AB"/>
<path d="M168.879 71.1212H140.804V85.1548H168.879V71.1212Z" fill="#FFB4AB"/>
<path d="M211.005 71.1212H196.98V85.1548H211.005V71.1212Z" fill="#FFB4AB"/>
<path d="M196.98 85.0463H168.879V99.08H196.98V85.0463Z" fill="#FFB4AB"/>
<path d="M140.987 85.0463H112.886V99.08H140.987V85.0463Z" fill="#FFB4AB"/>
<path d="M112.886 99.08H98.6777V127.056H112.886V99.08Z" fill="#FFB4AB"/>
<path d="M169.142 99.08H154.934V127.056H169.142V99.08Z" fill="#FFB4AB"/>
<path d="M155.012 99.08H140.804V113.479H155.012V99.08Z" fill="#FFB4AB"/>
<path d="M98.6777 112.658H84.4697V127.056H98.6777V112.658Z" fill="#FFB4AB"/>
<path d="M196.98 112.658H182.772V127.056H196.98V112.658Z" fill="#FFB4AB"/>
<path d="M211.005 126.691H196.797V141.09H211.005V126.691Z" fill="#FFB4AB"/>
<path d="M182.93 126.691H168.722V141.09H182.93V126.691Z" fill="#FFB4AB"/>
<path d="M127.094 126.691H112.886V141.09H127.094V126.691Z" fill="#FFB4AB"/>
<path d="M112.808 140.725H98.5996V155.124H112.808V140.725Z" fill="#FFB4AB"/>
<path d="M155.012 140.725H127.094V155.124H155.012V140.725Z" fill="#FFB4AB"/>
<path d="M155.012 196.649H140.987V211.048H155.012V196.649Z" fill="#FFB4AB"/>
<path d="M182.93 57.0701H168.879V71.1038H182.93V57.0701Z" fill="#FFB4AB"/>
<path d="M168.879 29.0027H140.804V57.0701H168.879V29.0027Z" fill="#FFB4AB"/>
<path d="M168.879 169.157H140.777V183.191H168.879V169.157Z" fill="#FF5449"/>
<path d="M182.93 155.124H126.937V169.157H182.93V155.124Z" fill="#FF897D"/>
<path d="M154.828 183.191H140.777V196.649H154.828V183.191Z" fill="#FF897D"/>
<path d="M225.082 71.1038H211.031V141.09H225.082V71.1038Z" fill="#262739"/>
<path d="M168.879 183.191H154.828V211.048H168.879V183.191Z" fill="#262739"/>
<path d="M112.886 14.952L112.886 29.0027L168.879 29.0027L168.879 14.952L112.886 14.952Z" fill="#262739"/>
<path d="M43.3848 14.952L43.3848 29.0027L70.4189 29.0027L70.4189 14.952L43.3848 14.952Z" fill="#262739"/>
<path d="M70.4189 0.901184L70.4189 14.952L126.727 14.952L126.727 0.901182L70.4189 0.901184Z" fill="#262739"/>
</svg>
