<svg width="72" height="72" viewBox="0 0 72 72" fill="none" xmlns="http://www.w3.org/2000/svg">
<rect width="72" height="72" fill="url(#paint0_linear_688_341)"/>
<path opacity="0.5" d="M14 27H58L61.4568 55.5187C61.7456 57.9012 59.8859 60 57.4859 60H14.5141C12.1141 60 10.2544 57.9012 10.5432 55.5187L14 27Z" fill="url(#paint1_linear_688_341)"/>
<rect x="14" y="14" width="44" height="44" rx="4" fill="url(#paint2_linear_688_341)"/>
<path d="M24 46.724V25.1112H30.7374V27.8267H27.5182V44H30.7374V46.724H24Z" fill="white"/>
<path d="M48 25.1112V46.724H41.2626V44H44.4818V27.8267H41.2626V25.1112H48Z" fill="white"/>
<defs>
<linearGradient id="paint0_linear_688_341" x1="36" y1="0" x2="36" y2="72" gradientUnits="userSpaceOnUse">
<stop stop-color="#EAF0FF"/>
<stop offset="1" stop-color="#C1D0F2"/>
</linearGradient>
<linearGradient id="paint1_linear_688_341" x1="36" y1="27" x2="36" y2="60" gradientUnits="userSpaceOnUse">
<stop offset="0.562874" stop-color="#90A6DF"/>
<stop offset="1" stop-color="#90A6DF" stop-opacity="0"/>
</linearGradient>
<linearGradient id="paint2_linear_688_341" x1="36" y1="14" x2="36" y2="58" gradientUnits="userSpaceOnUse">
<stop stop-color="#1D93FF"/>
<stop offset="1" stop-color="#0148FF"/>
</linearGradient>
</defs>
</svg>
