<svg width="72" height="72" viewBox="0 0 72 72" fill="none" xmlns="http://www.w3.org/2000/svg">
<rect width="72" height="72" fill="url(#paint0_linear_688_426)"/>
<path fill-rule="evenodd" clip-rule="evenodd" d="M33.3247 26.7451L25.2129 34.8569L45.0109 54.6549C47.2509 56.895 50.8827 56.895 53.1228 54.6549C55.3628 52.4149 55.3628 48.7831 53.1228 46.5431L33.3247 26.7451ZM50.9318 52.4638C52.0518 51.3438 52.0518 49.5279 50.9318 48.4079C49.8118 47.2879 47.9959 47.2879 46.8759 48.4079C45.7559 49.5279 45.7559 51.3438 46.8759 52.4638C47.9959 53.5838 49.8118 53.5838 50.9318 52.4638Z" fill="#FF5E03"/>
<path fill-rule="evenodd" clip-rule="evenodd" d="M14.2676 22.2895C12.353 26.7098 14.395 30.995 17.5297 34.1297C17.5297 34.1297 23.7418 33.5958 27.9026 29.435C32.0635 25.2742 32.5973 19.0621 32.5973 19.0621C29.4626 15.9273 25.1774 13.8853 20.7571 15.8L27.9027 22.9456L23.4411 31.463L14.2676 22.2895Z" fill="#FF5E03"/>
<path fill-rule="evenodd" clip-rule="evenodd" d="M17.6792 34.2789C14.773 31.3727 14.0157 27.1108 15.3775 23.3993L22.2245 30.2463L26.686 21.7288L21.8668 16.9097C25.5784 15.5478 29.8405 16.305 32.7468 19.2113C35.3318 21.7963 36.2166 25.4538 35.4224 28.8426L53.9341 47.3543C56.1742 49.5943 56.1742 53.2261 53.9341 55.4662C51.6941 57.7062 48.0623 57.7062 45.8223 55.4661L27.3106 36.9544C23.9218 37.7488 20.2642 36.864 17.6792 34.2789ZM51.7431 49.2191C52.8632 50.3391 52.8632 52.155 51.7431 53.275C50.6231 54.395 48.8072 54.395 47.6872 53.275C46.5672 52.155 46.5672 50.3391 47.6872 49.2191C48.8072 48.0991 50.6231 48.0991 51.7431 49.2191Z" fill="url(#paint1_linear_688_426)"/>
<path d="M54.3047 51.5039C54.1445 54.0332 51.9644 55.9537 49.4351 55.7936C46.9059 55.6334 44.9854 53.4533 45.1455 50.924C45.3056 48.3948 47.4858 46.4743 50.015 46.6344C52.5443 46.7945 54.4648 48.9747 54.3047 51.5039Z" stroke="url(#paint2_linear_688_426)" stroke-width="0.573593"/>
<path fill-rule="evenodd" clip-rule="evenodd" d="M27.3105 36.9545C28.5617 36.6612 29.7762 36.1391 30.8866 35.3892C30.4611 36.338 29.8644 37.2079 29.1198 37.9525L28.7142 38.3581L27.3105 36.9545Z" fill="#FF5E03"/>
<path d="M23.4413 31.4631L22.2245 30.2463L26.686 21.7289L27.9028 22.9456L23.4413 31.4631Z" fill="#FF5E03"/>
<defs>
<linearGradient id="paint0_linear_688_426" x1="36" y1="0" x2="36" y2="72" gradientUnits="userSpaceOnUse">
<stop stop-color="#FFF4EA"/>
<stop offset="1" stop-color="#F5E9DD"/>
</linearGradient>
<linearGradient id="paint1_linear_688_426" x1="20.217" y1="21.7492" x2="53.934" y2="55.4661" gradientUnits="userSpaceOnUse">
<stop stop-color="#FFB72D"/>
<stop offset="1" stop-color="#FF8A00"/>
</linearGradient>
<linearGradient id="paint2_linear_688_426" x1="53.8092" y1="54.921" x2="47.8385" y2="49.3703" gradientUnits="userSpaceOnUse">
<stop stop-color="#FF5E03"/>
<stop offset="1" stop-color="#FF5E03" stop-opacity="0"/>
</linearGradient>
</defs>
</svg>
