<svg width="310" height="310" viewBox="0 0 310 310" fill="none" xmlns="http://www.w3.org/2000/svg">
<rect width="310" height="310" fill="white"/>
<path d="M119.654 48.5068L119.654 62.5928L190.346 62.5928L190.346 48.5068L119.654 48.5068Z" fill="#2A2B42"/>
<path d="M90.7651 162.597H77.2026V119.654H90.7651V90.7645H105.209V76.6786H119.654V62.5926H176.304V76.6786H161.859V90.7645H147.415V119.654H133.853V133.969H119.089V148.282H104.595V176.911H90.7651V162.597ZM176.304 148.282H161.859V133.969H147.415V119.654H176.304V148.282Z" fill="#A6C8FF"/>
<path d="M190.346 261.493L190.346 247.407L119.654 247.407L119.654 261.493L190.346 261.493Z" fill="#2A2B42"/>
<path d="M260.969 119.654L246.883 119.654L246.883 190.346L260.969 190.346L260.969 119.654Z" fill="#2A2B42"/>
<path d="M49.0308 190.346L63.1167 190.346L63.1167 119.654L49.0308 119.654L49.0308 190.346Z" fill="#2A2B42"/>
<path d="M90.7647 62.5928L90.7646 76.6787L119.654 76.6787L119.654 62.5928L90.7647 62.5928Z" fill="#2A2B42"/>
<path d="M219.235 247.407L219.235 233.321L190.346 233.321L190.346 247.407L219.235 247.407Z" fill="#2A2B42"/>
<path d="M246.883 90.7647L232.797 90.7646L232.797 119.654L246.883 119.654L246.883 90.7647Z" fill="#2A2B42"/>
<path d="M63.1167 219.235L77.2026 219.235L77.2026 190.346L63.1167 190.346L63.1167 219.235Z" fill="#2A2B42"/>
<path d="M190.346 62.5928L190.346 76.6787L219.235 76.6787L219.235 62.5928L190.346 62.5928Z" fill="#2A2B42"/>
<path d="M119.654 247.407L119.654 233.321L90.7646 233.321L90.7646 247.407L119.654 247.407Z" fill="#2A2B42"/>
<path d="M246.883 190.346L232.797 190.346L232.797 219.235L246.883 219.235L246.883 190.346Z" fill="#2A2B42"/>
<path d="M63.1167 119.654L77.2026 119.654L77.2026 90.7647L63.1167 90.7647L63.1167 119.654Z" fill="#2A2B42"/>
<path d="M219.235 76.6788L219.235 90.7647L232.797 90.7647L232.797 76.6788L219.235 76.6788Z" fill="#2A2B42"/>
<path d="M90.7646 233.321L90.7646 219.235L77.2026 219.235L77.2026 233.321L90.7646 233.321Z" fill="#2A2B42"/>
<path d="M77.2026 76.6787L77.2026 90.7646L90.7646 90.7647L90.7646 76.6787L77.2026 76.6787Z" fill="#2A2B42"/>
<path d="M232.797 233.321L232.797 219.235L219.235 219.235L219.235 233.321L232.797 233.321Z" fill="#2A2B42"/>
<path d="M77.2026 162.598H90.7671V176.911H104.6V190.35H147.574V233.321H119.654V219.235H104.6V204.663H90.7651V190.35H77.2026V176.911H63.1167V119.654H77.2026V162.598ZM204.224 148.267H176.304V133.84H204.224V148.267ZM90.7651 119.654H77.2026V90.7645H90.7651V119.654ZM105.209 90.7645H90.7651V76.6786H105.209V90.7645Z" fill="#74ADFF"/>
<path d="M232.797 176.911H246.883V190.347H232.797V219.235H219.236V233.319H205.209V233.321H190.346V247.398H119.654V233.321H175.484V218.78H190.346V204.703H205.209V190.347H218.771V161.992H232.797V176.911ZM218.771 161.992H204.224V148.263H218.771V161.992Z" fill="#3491FB"/>
<path d="M104.642 219.237H90.7651V204.651H104.642V219.237ZM90.7632 204.651H77.2026V190.347H90.7632V204.651ZM77.2026 190.347H63.1167V176.911H77.2026V190.347ZM161.863 176.911H147.427V162.149H133.53V176.911H104.606V148.263H119.094V133.964H161.863V148.263H176.308V162.149H161.863V176.911ZM190.182 76.6786H219.236V105.209H190.182V119.654H161.82V105.209H147.427V90.7557H161.82V76.6786H176.304V62.5926H190.182V76.6786Z" fill="#85DD2D"/>
<path d="M119.654 233.321H90.7651V219.235H119.654V233.321ZM90.7466 219.237H77.2026V204.653H90.7466V219.237ZM190.75 190.349H176.462V204.434H147.573V190.349H161.86V161.816H176.462V148.379H204.242V161.816H190.75V190.349ZM147.412 133.968H133.857V119.652H147.412V133.968ZM232.797 133.968H176.304V119.659H190.213V105.15H219.236V90.7645H232.797V133.968ZM161.86 119.652H147.412V105.15H161.86V119.652Z" fill="#6BC000"/>
<path d="M218.709 190.347H205.207V204.609H190.346V218.776H175.551V233.321H147.43V204.434H176.304V190.347H190.732V161.819H218.709V190.347ZM147.43 176.911H161.866V190.347H104.616V176.911H133.511V162.043H147.43V176.911ZM246.883 176.575H232.797V161.819H218.711V148.263H204.224V133.961H232.797V119.654H246.883V176.575Z" fill="#5AA200"/>
</svg>
