<svg xmlns="http://www.w3.org/2000/svg" width="310" height="310" fill="none"><path fill="#fff" d="M0 0h310v310H0z"/><path fill="#EDF2FD" d="M186.02 155v37.23h12.41V155h-12.4Zm-12.41 0v62.05h12.41V155h-12.4Z"/><path fill="#EDF2FD" d="M161.2 155v86.87h12.42V155H161.2Zm-37.23-12.4v111.68h37.23V142.59h-37.23Z"/><path fill="#EDF2FD" d="M99.16 130.18v111.69h37.22V130.18H99.16ZM86.75 155v74.46h12.4V155h-12.4Zm-12.41 24.82v49.64h12.4v-49.64h-12.4Zm-12.41 24.82v12.4h12.4v-12.4h-12.4Z"/><path fill="#CAD1E1" d="M61.93 217.05v12.4h12.4v-12.4h-12.4Zm12.41 12.41v12.41h24.81v-12.41h-24.8Zm49.64-99.28v12.41h12.4v-12.4h-12.4Zm12.42 12.41v12.4h24.8v-12.4h-24.8ZM161.2 155v12.4H186V155h-24.8Zm-62.05 86.87v12.41h24.82v-12.41H99.15Zm24.83 12.41v12.4h24.81v-12.4H124Zm24.82 12.41v12.4h12.42v-12.4H148.8Z"/><path fill="#fff" d="M148.8 254.28v12.41h12.4v-12.41h-12.4Z"/><path fill="#A2ABC0" d="M161.22 254.28v24.82h12.4v-24.82h-12.4Zm12.38-24.82v24.82H186v-24.82h-12.4Zm12.43-24.82v24.82h12.4v-24.82h-12.4Zm12.42-24.82v24.82h24.81v-24.82h-24.8ZM210.86 155v24.82h24.8V155h-24.8Zm12.4-24.82V155h24.81v-24.82h-24.8Z"/><path fill="#54617F" d="M223.26 80.54v12.41h12.4v-12.4h-12.4Zm-62.05-12.41v12.41h12.4v-12.4h-12.4Zm12.42-24.82v12.42h12.4V43.3h-12.4Z"/><path fill="#A2ABC0" d="M161.21 55.72v12.41h12.4V55.72h-12.4Z"/><path fill="#A2ABC0" d="M161.21 55.72v12.41h12.4V55.72h-12.4Zm12.42-24.82v12.41h12.4v-12.4h-12.4Z"/><path fill="#fff" d="M161.2 241.87v12.4h12.4v-12.4h-12.4Zm12.4-24.82v12.4H186v-12.4h-12.4Zm12.42-24.82v12.4h12.4v-12.4h-12.4Zm12.4-24.83v12.42h12.4V167.4h-12.4Z"/><path fill="#54617F" d="M210.82 167.4v12.42h12.4V167.4h-12.4Zm12.45-24.8V155h12.4v-12.4h-12.4Z"/><path fill="#fff" d="M210.85 142.59v12.4h12.4v-12.4h-12.4Z"/><path fill="#2B2C43" d="M49.52 217.05v12.4h12.4v-12.4h-12.4Zm124.09 49.64v12.4h12.41v-12.4h-12.4ZM61.93 229.46v12.4h12.4v-12.4h-12.4Zm12.41 12.41v12.4h12.4v-12.4h-12.4Zm49.64 24.82v12.4h12.4v-12.4h-12.4Zm-24.82-12.41v12.4h12.4v-12.4h-12.4Zm49.64 24.82v12.4h12.4v-12.4h-12.4Zm-62.05-37.23v12.4h12.4v-12.4h-12.4Zm49.64 24.82v12.4h12.4v-12.4h-12.4Zm-24.82-12.41v12.4h12.4v-12.4h-12.4Z"/><path fill="#2B2C43" d="M161.2 279.1v12.4h12.42v-12.4H161.2ZM74.34 167.41v12.4h12.4v-12.4h-12.4Zm124.09 49.64v12.4h12.41v-12.4h-12.4Zm-136.5-24.82v12.4h12.4v-12.4h-12.4Zm124.09 49.64v12.4h12.41v-12.4h-12.4Zm-99.27-99.28V155h12.4v-12.41h-12.4Zm124.09 62.05v12.4h12.41v-12.4h-12.4ZM99.16 117.77v12.41h12.4v-12.4h-12.4Zm24.82 0v12.41h12.4v-12.4h-12.4Zm111.68 49.64v12.4h12.41v-12.4h-12.4ZM111.57 92.95v12.41h12.4v-12.4h-12.4Zm136.5 49.64V155h12.41v-12.41h-12.4ZM49.52 204.64v12.4h12.4v-12.4h-12.4Zm124.09 49.64v12.4h12.41v-12.4h-12.4ZM74.34 155v12.41h12.4V155h-12.4Zm74.46 49.64v12.4h12.4v-12.4h-12.4Zm-12.41 24.82v12.4h12.4v-12.4h-12.4Zm-12.41-37.23v12.4h12.4v-12.4h-12.4Zm-12.41 24.82v12.4h12.4v-12.4h-12.4Zm-12.42-37.23v12.41h12.41v-12.41h-12.4Zm-12.4 24.82v12.4h12.4v-12.4h-12.4Zm74.45-24.82v12.4h12.41v-12.4h-12.4Zm-24.81-12.42v12.42h12.4V167.4h-12.4ZM111.57 155v12.41h12.4V155h-12.4Zm86.86 49.64v12.4h12.41v-12.4h-12.4Zm-136.5-24.82v12.4h12.4v-12.4h-12.4Zm124.09 49.64v12.4h12.41v-12.4h-12.4Zm-99.27-99.28v12.41h12.4v-12.4h-12.4Zm136.5 49.64v24.82h12.41v-24.82h-12.4ZM99.16 105.36v12.41h12.4v-12.4h-12.4Zm24.82 0v12.41h12.4v-12.4h-12.4ZM235.66 155v12.41h12.41V155h-12.4ZM111.57 80.54v12.41h12.4v-12.4h-12.4Zm136.5 49.64v12.41h12.41v-12.4h-12.4Zm-12.41-24.82v24.82h12.41v-24.82h-12.4Zm-12.41-12.41v12.41h12.41v-12.4h-12.4Zm-12.41 0v12.41h12.41v-12.4h-12.4Zm0-12.41v12.41h12.41v-12.4h-12.4Zm12.41-12.41v12.41h12.41v-12.4h-12.4Zm12.41 12.41v24.82h12.41V80.54h-12.4Zm-49.64 0v12.41h12.41v-12.4h-12.4Zm12.41 12.41v12.41h12.41v-12.4h-12.4Zm-24.82-12.41v12.41h12.41v-12.4h-12.4Zm.01-12.41v12.41h12.4v-12.4h-12.4ZM161.2 43.31v12.41h12.42v-12.4H161.2Zm0-12.41v12.41h12.42v-12.4H161.2Zm12.41-12.4v12.4h12.41V18.5h-12.4ZM148.8 55.72v12.41h12.4v-12.4h-12.4Z"/><path fill="#2B2C43" d="M161.2 80.54v12.41h12.42v-12.4H161.2Zm-12.4-12.41v12.41h12.4v-12.4h-12.4Zm12.4 37.23v12.41h12.41v-12.4h-12.4Zm0 37.23V155h12.41v-12.41h-12.4Z"/><path fill="#685FFF" d="M161.2 130.18v12.4h12.41v-12.4h-12.4Z"/><path fill="#685FFF" d="M161.2 130.18v12.4h12.41v-12.4h-12.4Z"/><path fill="#A4A1FF" d="M161.2 117.77v12.4h12.41v-12.4h-12.4Z"/><path fill="#2B2C43" d="M173.62 105.36v12.41h12.4v-12.4h-12.4Zm0 37.23V155h12.4v-12.41h-12.4Z"/><path fill="#685FFF" d="M173.62 130.18v12.4h12.4v-12.4h-12.4Z"/><path fill="#685FFF" d="M173.62 130.18v12.4h12.4v-12.4h-12.4Z"/><path fill="#A4A1FF" d="M173.62 117.77v12.4h12.4v-12.4h-12.4Z"/><path fill="#2B2C43" d="M186.02 105.36v12.41h12.41v-12.4h-12.4Zm0 37.23V155h12.41v-12.41h-12.4Z"/><path fill="#685FFF" d="M186.02 130.18v12.4h12.41v-12.4h-12.4Z"/><path fill="#685FFF" d="M186.02 130.18v12.4h12.41v-12.4h-12.4Zm0-12.41v12.4h12.41v-12.4h-12.4Z"/><path fill="#2B2C43" d="M198.43 117.77v24.82h12.41v-24.82h-12.4Zm-62.05-49.64v12.41h12.41v-12.4h-12.4Zm12.42 24.82v12.41h12.4v-12.4h-12.4Z"/><path fill="#EDF2FD" d="M148.8 80.54v12.41h12.4v-12.4h-12.4Zm24.81 12.41v12.41h12.41v-12.4h-12.4Zm37.23 12.41v12.41h12.41v-12.4h-12.4Zm-24.82-12.41v12.41h12.41v-12.4h-12.4Zm37.23 12.41v12.41h12.41v-12.4h-12.4Zm-12.41 12.41v24.82h12.41v-24.82h-12.4Zm-12.41 24.82v24.82h12.41v-24.82h-12.4Z"/><path fill="#2B2C43" d="M148.8 130.18v12.41h12.4v-12.4h-12.4Z"/><path fill="#685FFF" d="M148.8 117.77v12.4h12.4v-12.4h-12.4Z"/><path fill="#685FFF" d="M148.8 117.77v12.4h12.4v-12.4h-12.4Z"/><path fill="#A4A1FF" d="M148.8 105.36v12.4h12.4v-12.4h-12.4Z"/><path fill="#2B2C43" d="M173.61 55.72v12.41h12.41v-12.4h-12.4Zm12.41-12.41v12.41h12.41v-12.4h-12.4Zm0-12.41v12.41h12.41v-12.4h-12.4Zm-62.05 37.23v12.41h12.41v-12.4h-12.4Zm12.41 24.82v12.41h12.41v-12.4h-12.4Z"/><path fill="#EDF2FD" d="M136.38 80.54v12.41h12.41v-12.4h-12.4Zm24.82 12.41v12.41h12.41v-12.4h-12.4Zm37.23 12.41v12.41h12.41v-12.4h-12.4Zm-74.46-24.82v24.82h12.41V80.54h-12.4Zm-12.41 24.82v24.82h12.41v-24.82h-12.4Z"/><path fill="#2B2C43" d="M136.38 130.18v12.41h12.41v-12.4h-12.4Z"/><path fill="#685FFF" d="M136.38 117.77v12.4h12.41v-12.4h-12.4Z"/><path fill="#685FFF" d="M136.38 117.77v12.4h12.41v-12.4h-12.4Z"/><path fill="#A4A1FF" d="M136.38 105.36v12.4h12.41v-12.4h-12.4Z"/><path fill="#fff" d="M223.26 105.36v24.82h12.4v-24.82h-12.4Z"/></svg>