<svg xmlns="http://www.w3.org/2000/svg" width="310" height="310" fill="none"><path fill="#EDF2FD" d="M186.022 155v37.229h12.41V155h-12.41Z"/><path fill="#EDF2FD" d="M173.612 155v62.048h12.41V155h-12.41Z"/><path fill="#EDF2FD" d="M161.205 155v86.867h12.41V155h-12.41Z"/><path fill="#EDF2FD" d="M123.974 142.591v111.686h37.23V142.591h-37.23Z"/><path fill="#EDF2FD" d="m99.1563 130.181-.0001 111.687h37.2278V130.181H99.1563Z"/><path fill="#EDF2FD" d="M86.75 155v74.457h12.4067V155H86.75Z"/><path fill="#EDF2FD" d="M74.3369 179.82v49.637h12.4067l.0001-49.637H74.3369Z"/><path fill="#EDF2FD" d="M61.9302 204.638v12.411h12.4067v-12.411H61.9302Z"/><path fill="#CAD1E1" d="M61.9302 217.049v12.41h12.4067v-12.41H61.9302Z"/><path fill="#CAD1E1" d="M74.3433 229.459v12.411h24.8115v-12.411H74.3433Z"/><path fill="#CAD1E1" d="M123.983 130.183v12.41h12.406v-12.41h-12.406Z"/><path fill="#CAD1E1" d="M136.397 142.586v12.41h24.806v-12.41h-24.806Z"/><path fill="#CAD1E1" d="M161.196 154.996v12.411h24.805v-12.411h-24.805Z"/><path fill="#CAD1E1" d="M99.1548 241.87v12.41h24.8112v-12.41H99.1548Z"/><path fill="#CAD1E1" d="M123.983 254.277v12.41h24.812v-12.41h-24.812Z"/><path fill="#CAD1E1" d="M148.804 266.686v12.411h12.412v-12.411h-12.412Z"/><path fill="#fff" d="M148.804 254.28v12.41h12.399v-12.41h-12.399Z"/><path fill="#A2ABC0" d="M161.216 254.28v24.817h12.399V254.28h-12.399Z"/><path fill="#A2ABC0" d="M173.603 229.463v24.817h12.399v-24.817h-12.399Z"/><path fill="#A2ABC0" d="M186.034 204.638v24.817h12.4v-24.817h-12.4Z"/><path fill="#A2ABC0" d="M198.454 179.823v24.816h24.809v-24.816h-24.809Z"/><path fill="#A2ABC0" d="M210.859 154.999v24.817h24.809v-24.817h-24.809Z"/><path fill="#A2ABC0" d="M223.264 130.18v24.816h24.809V130.18h-24.809Z"/><path fill="#54617F" d="M223.264 80.542v12.4113h12.404V80.542h-12.404Z"/><path fill="#54617F" d="M161.21 68.1307V80.542h12.405V68.1307H161.21Z"/><path fill="#54617F" d="M173.629 43.3146V55.726h12.405V43.3146h-12.405Z"/><path fill="#A2ABC0" d="M161.21 55.7194v12.4113h12.405V55.7194H161.21Z"/><path fill="#A2ABC0" d="M161.21 55.7194v12.4113h12.405V55.7194H161.21Z"/><path fill="#A2ABC0" d="M173.629 30.9033v12.4113h12.405V30.9033h-12.405Z"/><path fill="#fff" d="M161.203 241.867v12.41h12.4v-12.41h-12.4Z"/><path fill="#fff" d="M173.603 217.047v12.41h12.399v-12.41h-12.399Z"/><path fill="#fff" d="M186.022 192.228v12.41h12.4v-12.41h-12.4Z"/><path fill="#fff" d="M198.422 167.408v12.41h12.399v-12.41h-12.399Z"/><path fill="#54617F" d="M210.821 167.408v12.41h12.4v-12.41h-12.4Z"/><path fill="#54617F" d="M223.269 142.593v12.41h12.399v-12.41h-12.399Z"/><path fill="#fff" d="M210.854 142.589v12.41h12.399v-12.41h-12.399Z"/><path fill="#2B2C43" d="M49.5176 217.048v12.41h12.4097v-12.41H49.5176Z"/><path fill="#2B2C43" d="M173.614 266.687v12.41h12.41v-12.41h-12.41Z"/><path fill="#2B2C43" d="M61.9272 229.458v12.41h12.4097v-12.41H61.9272Z"/><path fill="#2B2C43" d="M74.3369 241.868v12.409h12.4097v-12.409H74.3369Z"/><path fill="#2B2C43" d="M123.976 266.687v12.41h12.409v-12.41h-12.409Z"/><path fill="#2B2C43" d="m99.1563 254.277-.0001 12.41h12.4098v-12.41H99.1563Z"/><path fill="#2B2C43" d="M148.795 279.097v12.409h12.41v-12.409h-12.41Z"/><path fill="#2B2C43" d="M86.7466 241.868v12.409h12.4097v-12.409H86.7466Z"/><path fill="#2B2C43" d="M136.386 266.687v12.41h12.409v-12.41h-12.409Z"/><path fill="#2B2C43" d="M111.566 254.277v12.41h12.41v-12.41h-12.41Z"/><path fill="#2B2C43" d="M161.205 279.097v12.409h12.41v-12.409h-12.41Z"/><path fill="#2B2C43" d="M74.3369 167.41v12.409h12.4097V167.41H74.3369Z"/><path fill="#2B2C43" d="M198.434 217.048v12.41h12.409v-12.41h-12.409Z"/><path fill="#2B2C43" d="M61.9272 192.229v12.41h12.4097v-12.41H61.9272Z"/><path fill="#2B2C43" d="M186.024 241.868v12.409h12.41v-12.409h-12.41Z"/><path fill="#2B2C43" d="M86.7466 142.59V155h12.4097v-12.41H86.7466Z"/><path fill="#2B2C43" d="M210.844 204.639v12.409h12.409v-12.409h-12.409Z"/><path fill="#2B2C43" d="m99.1563 117.771-.0001 12.41h12.4098v-12.41H99.1563Z"/><path fill="#2B2C43" d="M123.976 117.771v12.41h12.409v-12.41h-12.409Z"/><path fill="#2B2C43" d="M235.663 167.41v12.409h12.41V167.41h-12.41Z"/><path fill="#2B2C43" d="M111.566 92.9517v12.4093h12.41V92.9517h-12.41Z"/><path fill="#2B2C43" d="M248.072 142.59V155h12.41v-12.41h-12.41Z"/><path fill="#2B2C43" d="M49.5176 204.639v12.409h12.4097v-12.409H49.5176Z"/><path fill="#2B2C43" d="M173.614 254.277v12.41h12.41v-12.41h-12.41Z"/><path fill="#2B2C43" d="M74.3369 155v12.41h12.4097V155H74.3369Z"/><path fill="#2B2C43" d="M148.793 204.639v12.41h12.41v-12.41h-12.41Z"/><path fill="#2B2C43" d="M136.386 229.457v12.41h12.409v-12.41h-12.409Z"/><path fill="#2B2C43" d="M123.976 192.23v12.409h12.409V192.23h-12.409Z"/><path fill="#2B2C43" d="M111.568 217.048v12.41h12.41v-12.41h-12.41Z"/><path fill="#2B2C43" d="M99.1548 179.82v12.41h12.4092v-12.41H99.1548Z"/><path fill="#2B2C43" d="M86.7471 204.638v12.41h12.4096v-12.41H86.7471Z"/><path fill="#2B2C43" d="M161.203 179.818v12.41h12.41v-12.41h-12.41Z"/><path fill="#2B2C43" d="M136.386 167.409v12.409h12.409v-12.409h-12.409Z"/><path fill="#2B2C43" d="M111.566 155v12.41h12.41V155h-12.41Z"/><path fill="#2B2C43" d="M198.434 204.639v12.409h12.409v-12.409h-12.409Z"/><path fill="#2B2C43" d="M61.9272 179.819v12.41h12.4097v-12.41H61.9272Z"/><path fill="#2B2C43" d="M186.024 229.458v12.41h12.41v-12.41h-12.41Z"/><path fill="#2B2C43" d="M86.7466 130.181v12.409h12.4097v-12.409H86.7466Z"/><path fill="#2B2C43" d="M223.253 179.819v24.82h12.41v-24.82h-12.41Z"/><path fill="#2B2C43" d="m99.1563 105.361-.0001 12.41h12.4098v-12.41H99.1563Z"/><path fill="#2B2C43" d="M123.976 105.361v12.41h12.409v-12.41h-12.409Z"/><path fill="#2B2C43" d="M235.663 155v12.41h12.41V155h-12.41Z"/><path fill="#2B2C43" d="M111.566 80.542v12.4097h12.41V80.542h-12.41Z"/><path fill="#2B2C43" d="M248.072 130.181v12.409h12.41v-12.409h-12.41Z"/><path fill="#2B2C43" d="M235.663 105.361v24.82h12.41v-24.82h-12.41Z"/><path fill="#2B2C43" d="M223.253 92.9517v12.4093h12.41V92.9517h-12.41Z"/><path fill="#2B2C43" d="M210.844 92.9517v12.4093h12.409V92.9517h-12.409Z"/><path fill="#2B2C43" d="M210.844 80.542v12.4097h12.409V80.542h-12.409Z"/><path fill="#2B2C43" d="M223.253 68.1323V80.542h12.41V68.1323h-12.41Z"/><path fill="#2B2C43" d="M235.663 80.542v24.819h12.41V80.542h-12.41Z"/><path fill="#2B2C43" d="M186.024 80.542v12.4097h12.41V80.542h-12.41Z"/><path fill="#2B2C43" d="M198.434 92.9517v12.4093h12.409V92.9517h-12.409Z"/><path fill="#2B2C43" d="M173.614 80.542v12.4097h12.41V80.542h-12.41Z"/><path fill="#2B2C43" d="M173.615 68.1323V80.542h12.41V68.1323h-12.41Z"/><path fill="#2B2C43" d="M161.205 43.313v12.4097h12.41V43.313h-12.41Z"/><path fill="#2B2C43" d="M161.205 30.9033V43.313h12.41V30.9033h-12.41Z"/><path fill="#2B2C43" d="M173.614 18.4937v12.4096h12.41V18.4937h-12.41Z"/><path fill="#2B2C43" d="M148.795 55.7227v12.4096h12.41V55.7227h-12.41Z"/><path fill="#2B2C43" d="M161.205 80.542v12.4097h12.41V80.542h-12.41Z"/><path fill="#2B2C43" d="M148.795 68.1323V80.542h12.41V68.1323h-12.41Z"/><path fill="#2B2C43" d="M161.204 105.361v12.41h12.41v-12.41h-12.41Z"/><path fill="#2B2C43" d="M161.204 142.59V155h12.41v-12.41h-12.41Z"/><path fill="#685FFF" d="M161.204 130.178v12.41h12.41v-12.41h-12.41Z"/><path fill="#685FFF" d="M161.204 130.178v12.41h12.41v-12.41h-12.41Z"/><path fill="#A4A1FF" d="M161.204 117.769v12.409h12.41v-12.409h-12.41Z"/><path fill="#2B2C43" d="M173.615 105.361v12.41h12.41v-12.41h-12.41Z"/><path fill="#2B2C43" d="M173.615 142.59V155h12.41v-12.41h-12.41Z"/><path fill="#685FFF" d="M173.615 130.178v12.41h12.41v-12.41h-12.41Z"/><path fill="#685FFF" d="M173.615 130.178v12.41h12.41v-12.41h-12.41Z"/><path fill="#A4A1FF" d="M173.615 117.769v12.409h12.41v-12.409h-12.41Z"/><path fill="#2B2C43" d="M186.024 105.361v12.41h12.41v-12.41h-12.41Z"/><path fill="#2B2C43" d="M186.024 142.59V155h12.41v-12.41h-12.41Z"/><path fill="#685FFF" d="M186.024 130.178v12.41h12.41v-12.41h-12.41Z"/><path fill="#685FFF" d="M186.024 130.178v12.41h12.41v-12.41h-12.41Z"/><path fill="#685FFF" d="M186.024 117.769v12.409h12.41v-12.409h-12.41Z"/><path fill="#2B2C43" d="M198.434 117.771v24.819h12.409v-24.819h-12.409Z"/><path fill="#2B2C43" d="M136.385 68.1323V80.542h12.409V68.1323h-12.409Z"/><path fill="#2B2C43" d="M148.794 92.9517v12.4093h12.41V92.9517h-12.41Z"/><path fill="#EDF2FD" d="M148.794 80.542v12.4097h12.41V80.542h-12.41Z"/><path fill="#EDF2FD" d="M173.613 92.9517v12.4093h12.41V92.9517h-12.41Z"/><path fill="#EDF2FD" d="M210.842 105.362v12.409h12.409v-12.409h-12.409Z"/><path fill="#EDF2FD" d="M186.022 92.9517v12.4093h12.41V92.9517h-12.41Z"/><path fill="#EDF2FD" d="M223.251 105.362v12.409h12.41v-12.409h-12.41Z"/><path fill="#EDF2FD" d="M210.844 117.771v24.819h12.409v-24.819h-12.409Z"/><path fill="#EDF2FD" d="M198.432 142.59v24.819h12.409V142.59h-12.409Z"/><path fill="#2B2C43" d="M148.794 130.181v12.41h12.41v-12.41h-12.41Z"/><path fill="#685FFF" d="M148.794 117.769v12.41h12.41v-12.41h-12.41Z"/><path fill="#685FFF" d="M148.794 117.769v12.41h12.41v-12.41h-12.41Z"/><path fill="#A4A1FF" d="M148.794 105.36v12.409h12.41V105.36h-12.41Z"/><path fill="#2B2C43" d="M173.614 55.7227v12.4096h12.41V55.7227h-12.41Z"/><path fill="#2B2C43" d="M186.024 43.313v12.4097h12.41V43.313h-12.41Z"/><path fill="#2B2C43" d="M186.024 30.9033V43.313h12.41V30.9033h-12.41Z"/><path fill="#2B2C43" d="M123.975 68.1323V80.542h12.41V68.1323h-12.41Z"/><path fill="#2B2C43" d="M136.385 92.9517v12.4093h12.409V92.9517h-12.409Z"/><path fill="#EDF2FD" d="M136.385 80.542v12.4097h12.409V80.542h-12.409Z"/><path fill="#EDF2FD" d="M161.204 92.9517v12.4093h12.41V92.9517h-12.41Z"/><path fill="#EDF2FD" d="M198.433 105.362v12.409h12.409v-12.409h-12.409Z"/><path fill="#EDF2FD" d="M123.974 80.542v24.819h12.41V80.542h-12.41Z"/><path fill="#EDF2FD" d="M111.564 105.361v24.819h12.41v-24.819h-12.41Z"/><path fill="#2B2C43" d="M136.385 130.181v12.41h12.409v-12.41h-12.409Z"/><path fill="#685FFF" d="M136.385 117.769v12.41h12.409v-12.41h-12.409Z"/><path fill="#685FFF" d="M136.385 117.769v12.41h12.409v-12.41h-12.409Z"/><path fill="#A4A1FF" d="M136.385 105.36v12.409h12.409V105.36h-12.409Z"/><path fill="#fff" d="M223.264 105.362v24.82h12.399v-24.82h-12.399Z"/></svg>
