<svg width="72" height="72" viewBox="0 0 72 72" fill="none" xmlns="http://www.w3.org/2000/svg">
<rect width="72" height="72" fill="#DDE6FA"/>
<path fill-rule="evenodd" clip-rule="evenodd" d="M37.2588 55.7583C36.5412 56.6689 36.0993 56.7273 36 56.7273C35.9007 56.7273 35.4588 56.6689 34.7412 55.7583C34.043 54.8723 33.3187 53.455 32.6701 51.5092C32.3495 50.5474 32.057 49.4859 31.7985 48.339C34.5982 48.205 37.4025 48.2045 40.2019 48.3375C39.9432 49.485 39.6506 50.547 39.3299 51.5092C38.6813 53.455 37.957 54.8723 37.2588 55.7583ZM40.631 46.1742C37.546 46.0165 34.4547 46.017 31.3693 46.1758C30.8992 43.4619 30.6073 40.3836 30.5542 37.0909H41.4458C41.3927 40.3829 41.1009 43.4607 40.631 46.1742ZM42.407 48.47C41.7335 51.5779 40.8156 54.1651 39.735 55.9865C41.9772 55.0802 44.0599 53.3608 45.7954 50.931C46.2418 50.306 46.6616 49.6381 47.0513 48.9312C45.5066 48.7364 43.958 48.5827 42.407 48.47ZM48.0569 46.862C46.316 46.628 44.5698 46.4449 42.8207 46.3129C43.291 43.5188 43.5762 40.3965 43.6279 37.0909H50.1623C50.0334 40.6841 49.2719 44.0099 48.0569 46.862ZM49.3497 49.2518C48.3995 51.1246 47.2533 52.7887 45.9529 54.1857C48.1008 53.0077 50.0173 51.4602 51.6169 49.6288C50.8624 49.4932 50.1066 49.3676 49.3497 49.2518ZM53.1191 47.6892C52.1756 47.5074 51.2299 47.3408 50.2824 47.1893C51.4886 44.1781 52.223 40.7465 52.3454 37.0909H56.6991C56.4958 41.0107 55.2036 44.6424 53.1191 47.6892ZM29.1797 46.3152C28.7091 43.5205 28.4238 40.3974 28.3721 37.0909H21.8377C21.9667 40.6858 22.7288 44.0129 23.9447 46.8659C25.6854 46.6313 27.4311 46.4478 29.1797 46.3152ZM21.7195 47.194C20.5122 44.1816 19.7771 40.7484 19.6546 37.0909H15.3009C15.5043 41.0129 16.7979 44.6466 18.8845 47.6945C19.8275 47.5125 20.7726 47.3456 21.7195 47.194ZM20.3873 49.6336C21.1411 49.4979 21.8963 49.3721 22.6525 49.2562C23.6023 51.1271 24.7477 52.7898 26.047 54.1857C23.901 53.0087 21.986 51.4629 20.3873 49.6336ZM24.9507 48.9348C26.495 48.7396 28.0431 48.5854 29.5935 48.4722C30.2669 51.5791 31.1846 54.1656 32.265 55.9865C30.0228 55.0802 27.9401 53.3608 26.2046 50.931C25.7589 50.3071 25.3398 49.6404 24.9507 48.9348ZM41.4458 34.9091H30.5542C30.6073 31.6164 30.8992 28.5381 31.3693 25.8242C34.4547 25.983 37.546 25.9835 40.631 25.8258C41.1009 28.5393 41.3927 31.6171 41.4458 34.9091ZM32.6701 20.4908C32.3495 21.4526 32.057 22.5141 31.7985 23.661C34.5982 23.795 37.4025 23.7955 40.2019 23.6625C39.9432 22.515 39.6506 21.453 39.3299 20.4908C38.6813 18.545 37.957 17.1277 37.2588 16.2417C36.5412 15.3311 36.0993 15.2727 36 15.2727C35.9007 15.2727 35.4588 15.3311 34.7412 16.2417C34.043 17.1277 33.3187 18.545 32.6701 20.4908ZM43.6279 34.9091C43.5762 31.6035 43.291 28.4812 42.8207 25.6871C44.5698 25.5551 46.316 25.372 48.0569 25.138C49.2719 27.9901 50.0334 31.3159 50.1623 34.9091H43.6279ZM42.407 23.53C43.958 23.4173 45.5066 23.2636 47.0513 23.0688C46.6616 22.3619 46.2418 21.6939 45.7954 21.069C44.0599 18.6392 41.9772 16.9198 39.735 16.0135C40.8156 17.8349 41.7335 20.4221 42.407 23.53ZM52.3454 34.9091C52.223 31.2535 51.4886 27.8219 50.2824 24.8107C51.2299 24.6592 52.1756 24.4926 53.1191 24.3108C55.2036 27.3576 56.4958 30.9893 56.6991 34.9091H52.3454ZM49.3497 22.7482C50.1066 22.6324 50.8624 22.5068 51.6169 22.3712C50.0173 20.5398 48.1008 18.9923 45.953 17.8143C47.2533 19.2113 48.3995 20.8754 49.3497 22.7482ZM24.9507 23.0652C26.495 23.2604 28.0431 23.4146 29.5935 23.5278C30.2669 20.4209 31.1846 17.8344 32.265 16.0135C30.0228 16.9198 27.9401 18.6392 26.2046 21.069C25.7589 21.6929 25.3398 22.3596 24.9507 23.0652ZM29.1797 25.6848C27.4311 25.5522 25.6854 25.3687 23.9447 25.1341C22.7288 27.9871 21.9667 31.3142 21.8377 34.9091H28.3721C28.4238 31.6026 28.7091 28.4795 29.1797 25.6848ZM26.047 17.8143C24.7477 19.2102 23.6023 20.8729 22.6525 22.7438C21.8963 22.6279 21.1411 22.5021 20.3873 22.3664C21.986 20.5371 23.901 18.9913 26.047 17.8143ZM21.7195 24.806C20.7726 24.6544 19.8275 24.4875 18.8845 24.3055C16.7979 27.3534 15.5043 30.9871 15.3009 34.9091H19.6546C19.7771 31.2516 20.5122 27.8184 21.7195 24.806ZM60 36C60 49.2548 49.2548 60 36 60C22.7452 60 12 49.2548 12 36C12 22.7452 22.7452 12 36 12C49.2548 12 60 22.7452 60 36Z" fill="url(#paint0_radial_675_3293)"/>
<path fill-rule="evenodd" clip-rule="evenodd" d="M37.2588 55.7583C36.5412 56.6689 36.0993 56.7273 36 56.7273C35.9007 56.7273 35.4588 56.6689 34.7412 55.7583C34.043 54.8723 33.3187 53.455 32.6701 51.5092C32.3495 50.5474 32.057 49.4859 31.7985 48.339C34.5982 48.205 37.4025 48.2045 40.2019 48.3375C39.9432 49.485 39.6506 50.547 39.3299 51.5092C38.6813 53.455 37.957 54.8723 37.2588 55.7583ZM40.631 46.1742C37.546 46.0165 34.4547 46.017 31.3693 46.1758C30.8992 43.4619 30.6073 40.3836 30.5542 37.0909H41.4458C41.3927 40.3829 41.1009 43.4607 40.631 46.1742ZM42.407 48.47C41.7335 51.5779 40.8156 54.1651 39.735 55.9865C41.9772 55.0802 44.0599 53.3608 45.7954 50.931C46.2418 50.306 46.6616 49.6381 47.0513 48.9312C45.5066 48.7364 43.958 48.5827 42.407 48.47ZM48.0569 46.862C46.316 46.628 44.5698 46.4449 42.8207 46.3129C43.291 43.5188 43.5762 40.3965 43.6279 37.0909H50.1623C50.0334 40.6841 49.2719 44.0099 48.0569 46.862ZM49.3497 49.2518C48.3995 51.1246 47.2533 52.7887 45.9529 54.1857C48.1008 53.0077 50.0173 51.4602 51.6169 49.6288C50.8624 49.4932 50.1066 49.3676 49.3497 49.2518ZM53.1191 47.6892C52.1756 47.5074 51.2299 47.3408 50.2824 47.1893C51.4886 44.1781 52.223 40.7465 52.3454 37.0909H56.6991C56.4958 41.0107 55.2036 44.6424 53.1191 47.6892ZM29.1797 46.3152C28.7091 43.5205 28.4238 40.3974 28.3721 37.0909H21.8377C21.9667 40.6858 22.7288 44.0129 23.9447 46.8659C25.6854 46.6313 27.4311 46.4478 29.1797 46.3152ZM21.7195 47.194C20.5122 44.1816 19.7771 40.7484 19.6546 37.0909H15.3009C15.5043 41.0129 16.7979 44.6466 18.8845 47.6945C19.8275 47.5125 20.7726 47.3456 21.7195 47.194ZM20.3873 49.6336C21.1411 49.4979 21.8963 49.3721 22.6525 49.2562C23.6023 51.1271 24.7477 52.7898 26.047 54.1857C23.901 53.0087 21.986 51.4629 20.3873 49.6336ZM24.9507 48.9348C26.495 48.7396 28.0431 48.5854 29.5935 48.4722C30.2669 51.5791 31.1846 54.1656 32.265 55.9865C30.0228 55.0802 27.9401 53.3608 26.2046 50.931C25.7589 50.3071 25.3398 49.6404 24.9507 48.9348ZM41.4458 34.9091H30.5542C30.6073 31.6164 30.8992 28.5381 31.3693 25.8242C34.4547 25.983 37.546 25.9835 40.631 25.8258C41.1009 28.5393 41.3927 31.6171 41.4458 34.9091ZM32.6701 20.4908C32.3495 21.4526 32.057 22.5141 31.7985 23.661C34.5982 23.795 37.4025 23.7955 40.2019 23.6625C39.9432 22.515 39.6506 21.453 39.3299 20.4908C38.6813 18.545 37.957 17.1277 37.2588 16.2417C36.5412 15.3311 36.0993 15.2727 36 15.2727C35.9007 15.2727 35.4588 15.3311 34.7412 16.2417C34.043 17.1277 33.3187 18.545 32.6701 20.4908ZM43.6279 34.9091C43.5762 31.6035 43.291 28.4812 42.8207 25.6871C44.5698 25.5551 46.316 25.372 48.0569 25.138C49.2719 27.9901 50.0334 31.3159 50.1623 34.9091H43.6279ZM42.407 23.53C43.958 23.4173 45.5066 23.2636 47.0513 23.0688C46.6616 22.3619 46.2418 21.6939 45.7954 21.069C44.0599 18.6392 41.9772 16.9198 39.735 16.0135C40.8156 17.8349 41.7335 20.4221 42.407 23.53ZM52.3454 34.9091C52.223 31.2535 51.4886 27.8219 50.2824 24.8107C51.2299 24.6592 52.1756 24.4926 53.1191 24.3108C55.2036 27.3576 56.4958 30.9893 56.6991 34.9091H52.3454ZM49.3497 22.7482C50.1066 22.6324 50.8624 22.5068 51.6169 22.3712C50.0173 20.5398 48.1008 18.9923 45.953 17.8143C47.2533 19.2113 48.3995 20.8754 49.3497 22.7482ZM24.9507 23.0652C26.495 23.2604 28.0431 23.4146 29.5935 23.5278C30.2669 20.4209 31.1846 17.8344 32.265 16.0135C30.0228 16.9198 27.9401 18.6392 26.2046 21.069C25.7589 21.6929 25.3398 22.3596 24.9507 23.0652ZM29.1797 25.6848C27.4311 25.5522 25.6854 25.3687 23.9447 25.1341C22.7288 27.9871 21.9667 31.3142 21.8377 34.9091H28.3721C28.4238 31.6026 28.7091 28.4795 29.1797 25.6848ZM26.047 17.8143C24.7477 19.2102 23.6023 20.8729 22.6525 22.7438C21.8963 22.6279 21.1411 22.5021 20.3873 22.3664C21.986 20.5371 23.901 18.9913 26.047 17.8143ZM21.7195 24.806C20.7726 24.6544 19.8275 24.4875 18.8845 24.3055C16.7979 27.3534 15.5043 30.9871 15.3009 34.9091H19.6546C19.7771 31.2516 20.5122 27.8184 21.7195 24.806ZM60 36C60 49.2548 49.2548 60 36 60C22.7452 60 12 49.2548 12 36C12 22.7452 22.7452 12 36 12C49.2548 12 60 22.7452 60 36Z" fill="url(#paint1_radial_675_3293)"/>
<circle cx="36" cy="36" r="23.4545" stroke="#ADABFF" stroke-width="1.09091"/>
<defs>
<radialGradient id="paint0_radial_675_3293" cx="0" cy="0" r="1" gradientUnits="userSpaceOnUse" gradientTransform="translate(31.6364 27.2727) rotate(64.0935) scale(42.4474)">
<stop stop-color="#E1E0FF"/>
<stop offset="1" stop-color="#807AFF"/>
</radialGradient>
<radialGradient id="paint1_radial_675_3293" cx="0" cy="0" r="1" gradientUnits="userSpaceOnUse" gradientTransform="translate(32.7273 28.9091) rotate(48.743) scale(41.3575)">
<stop stop-color="#817EFF"/>
<stop offset="0.641096" stop-color="#3A36FF"/>
</radialGradient>
</defs>
</svg>
