<svg width="310" height="310" viewBox="0 0 310 310" fill="none" xmlns="http://www.w3.org/2000/svg">
<rect width="310" height="310" fill="white"/>
<path d="M56.6445 260.381L56.6445 274.432L70.6953 274.432L70.6953 260.381L56.6445 260.381Z" fill="#262739"/>
<path d="M169.051 260.381L169.051 274.432L183.102 274.432L183.102 260.381L169.051 260.381Z" fill="#262739"/>
<path d="M112.848 260.381L112.848 274.432L126.898 274.432L126.898 260.381L112.848 260.381Z" fill="#262739"/>
<path d="M225.254 260.381L225.254 274.432L239.305 274.432L239.305 260.381L225.254 260.381Z" fill="#262739"/>
<path d="M84.7461 260.381L84.7461 274.432L98.7969 274.432L98.7969 260.381L84.7461 260.381Z" fill="#262739"/>
<path d="M197.152 260.381L197.152 274.432L211.203 274.432L211.203 260.381L197.152 260.381Z" fill="#262739"/>
<path d="M140.949 260.381L140.949 274.432L155 274.432L155 260.381L140.949 260.381Z" fill="#262739"/>
<path d="M253.355 260.381L253.355 274.432L267.406 274.432L267.406 260.381L253.355 260.381Z" fill="#262739"/>
<path d="M70.6953 260.381L70.6953 274.432L84.7461 274.432L84.7461 260.381L70.6953 260.381Z" fill="#262739"/>
<path d="M183.102 260.381L183.102 274.432L197.152 274.432L197.152 260.381L183.102 260.381Z" fill="#262739"/>
<path d="M126.898 260.381L126.898 274.432L140.949 274.432L140.949 260.381L126.898 260.381Z" fill="#262739"/>
<path d="M239.305 260.381L239.305 274.432L253.355 274.432L253.355 260.381L239.305 260.381Z" fill="#262739"/>
<path d="M98.7969 260.381L98.7969 274.432L112.848 274.432L112.848 260.381L98.7969 260.381Z" fill="#262739"/>
<path d="M211.203 260.381L211.203 274.432L225.254 274.432L225.254 260.381L211.203 260.381Z" fill="#262739"/>
<path d="M155 260.381L155 274.432L169.051 274.432L169.051 260.381L155 260.381Z" fill="#262739"/>
<path d="M267.406 246.33L267.406 260.381L281.457 260.381L281.457 246.33L267.406 246.33Z" fill="#262739"/>
<path d="M281.457 232.279L281.457 246.33L295.508 246.33L295.508 232.279L281.457 232.279Z" fill="#262739"/>
<path d="M281.457 176.076L281.457 190.127L295.508 190.127L295.508 176.076L281.457 176.076Z" fill="#262739"/>
<path d="M281.457 204.178L281.457 218.229L295.508 218.229L295.508 204.178L281.457 204.178Z" fill="#262739"/>
<path d="M281.457 147.975L281.457 162.025L295.508 162.025L295.508 147.975L281.457 147.975Z" fill="#262739"/>
<path d="M281.457 105.822L281.457 119.873L295.508 119.873L295.508 105.822L281.457 105.822Z" fill="#262739"/>
<path d="M281.457 218.229L281.457 232.279L295.508 232.279L295.508 218.229L281.457 218.229Z" fill="#262739"/>
<path d="M281.457 162.025L281.457 176.076L295.508 176.076L295.508 162.025L281.457 162.025Z" fill="#262739"/>
<path d="M281.457 119.873L281.457 133.924L295.508 133.924L295.508 119.873L281.457 119.873Z" fill="#262739"/>
<path d="M14.4922 119.873L14.4922 133.924L28.543 133.924L28.543 119.873L14.4922 119.873Z" fill="#262739"/>
<path d="M14.4922 162.025L14.4922 176.076L28.543 176.076L28.543 162.025L14.4922 162.025Z" fill="#262739"/>
<path d="M28.543 218.229L28.543 232.279L42.5937 232.279L42.5937 218.229L28.543 218.229Z" fill="#262739"/>
<path d="M14.4922 133.924L14.4922 147.975L28.543 147.975L28.543 133.924L14.4922 133.924Z" fill="#262739"/>
<path d="M28.543 176.076L28.543 190.127L42.5937 190.127L42.5937 176.076L28.543 176.076Z" fill="#262739"/>
<path d="M42.5937 232.279L42.5938 246.33L56.6445 246.33L56.6445 232.279L42.5937 232.279Z" fill="#262739"/>
<path d="M14.4922 147.975L14.4922 162.025L28.543 162.025L28.543 147.975L14.4922 147.975Z" fill="#262739"/>
<path d="M28.543 190.127L28.543 204.178L42.5937 204.178L42.5937 190.127L28.543 190.127Z" fill="#262739"/>
<path d="M28.543 204.178L28.543 218.229L42.5937 218.229L42.5937 204.178L28.543 204.178Z" fill="#262739"/>
<path d="M42.5937 246.33L42.5938 260.381L56.6445 260.381L56.6445 246.33L42.5937 246.33Z" fill="#262739"/>
<path d="M28.543 105.822L28.543 119.873L42.5937 119.873L42.5937 105.822L28.543 105.822Z" fill="#262739"/>
<path d="M225.254 105.822L225.254 119.872L239.305 119.872L239.305 105.822L225.254 105.822Z" fill="#CAA800"/>
<path d="M253.355 77.7207L253.355 91.7715L267.406 91.7715L267.406 77.7207L253.355 77.7207Z" fill="#CAA800"/>
<path d="M253.355 176.076L253.355 232.279L267.406 232.279L267.406 176.076L253.355 176.076Z" fill="#CAA800"/>
<path d="M239.305 119.873L239.305 176.076L253.355 176.076L253.355 119.873L239.305 119.873Z" fill="#CAA800"/>
<path d="M267.406 91.7715L267.406 246.33L281.457 246.33L281.457 91.7715L267.406 91.7715Z" fill="#CAA800"/>
<path d="M225.254 119.873H239.305V176.076H253.355V232.28H267.406V260.381H56.6445V232.28H42.5938V176.075L28.543 176.076V119.873L225.254 119.872V119.873ZM225.254 119.872H42.5938V105.822H225.254V119.872Z" fill="#FEE17B"/>
<path d="M281.457 190.127L281.457 204.178L295.508 204.178L295.508 190.127L281.457 190.127Z" fill="#262739"/>
<path d="M281.457 133.924L281.457 147.975L295.508 147.975L295.508 133.924L281.457 133.924Z" fill="#262739"/>
<path d="M281.457 91.7715L281.457 105.822L295.508 105.822L295.508 91.7715L281.457 91.7715Z" fill="#262739"/>
<path d="M267.406 77.7207L267.406 91.7715L281.457 91.7715L281.457 77.7207L267.406 77.7207Z" fill="#262739"/>
<path d="M253.355 63.6699L253.355 77.7207L267.406 77.7207L267.406 63.6699L253.355 63.6699Z" fill="#262739"/>
<path d="M211.203 63.6699L211.203 77.7207L225.254 77.7207L225.254 63.6699L211.203 63.6699Z" fill="#262739"/>
<path d="M239.305 63.6699L239.305 77.7207L253.355 77.7207L253.355 63.6699L239.305 63.6699Z" fill="#262739"/>
<path d="M197.152 63.6699L197.152 77.7207L211.203 77.7207L211.203 63.6699L197.152 63.6699Z" fill="#262739"/>
<path d="M225.254 63.6699L225.254 77.7207L239.305 77.7207L239.305 63.6699L225.254 63.6699Z" fill="#262739"/>
<path d="M183.102 63.6699L183.102 77.7207L197.152 77.7207L197.152 63.6699L183.102 63.6699Z" fill="#262739"/>
<path d="M169.051 63.6699L169.051 77.7207L183.102 77.7207L183.102 63.6699L169.051 63.6699Z" fill="#262739"/>
<path d="M155 49.6191L155 63.6699L169.051 63.6699L169.051 49.6191L155 49.6191Z" fill="#262739"/>
<path d="M140.949 35.5684L140.949 49.6191L155 49.6191L155 35.5684L140.949 35.5684Z" fill="#262739"/>
<path d="M84.7461 35.5684L84.7461 49.6191L98.7969 49.6191L98.7969 35.5684L84.7461 35.5684Z" fill="#262739"/>
<path d="M112.848 35.5684L112.848 49.6191L126.898 49.6191L126.898 35.5684L112.848 35.5684Z" fill="#262739"/>
<path d="M56.6445 35.5684L56.6445 49.6191L70.6953 49.6191L70.6953 35.5684L56.6445 35.5684Z" fill="#262739"/>
<path d="M126.898 35.5684L126.898 49.6191L140.949 49.6191L140.949 35.5684L126.898 35.5684Z" fill="#262739"/>
<path d="M70.6953 35.5684L70.6953 49.6191L84.7461 49.6191L84.7461 35.5684L70.6953 35.5684Z" fill="#262739"/>
<path d="M98.7969 35.5684L98.7969 49.6191L112.848 49.6191L112.848 35.5684L98.7969 35.5684Z" fill="#262739"/>
<path d="M42.5937 49.6191L42.5938 105.822L56.6445 105.822L56.6445 49.6191L42.5937 49.6191Z" fill="#262739"/>
<path d="M155 63.6702H169.051V77.7209H253.355V91.7717H267.406V176.076H253.355V119.872H239.305V105.822H225.254V91.7717H56.6445V49.6194H155V63.6702Z" fill="#FEE17B"/>
<path d="M56.6445 91.7715L56.6445 105.822L225.254 105.822L225.254 91.7715L56.6445 91.7715Z" fill="#CAA800"/>
</svg>
