<svg width="72" height="72" viewBox="0 0 72 72" fill="none" xmlns="http://www.w3.org/2000/svg">
<rect width="72" height="72" fill="#DDE6FA"/>
<path opacity="0.5" d="M14 27H58L61.4568 55.5187C61.7456 57.9012 59.8859 60 57.4859 60H14.5141C12.1141 60 10.2544 57.9012 10.5432 55.5187L14 27Z" fill="url(#paint0_linear_675_3478)"/>
<rect x="14" y="14" width="44" height="44" rx="4" fill="url(#paint1_linear_675_3478)"/>
<path d="M22 36.0739V34.3267C23.0025 34.3267 23.6979 34.1268 24.0861 33.727C24.4744 33.3271 24.6685 32.681 24.6685 31.7886V29.8676C24.6685 28.7956 24.8163 27.938 25.1118 27.2947C25.4131 26.6457 25.8304 26.1561 26.3635 25.8258C26.9024 25.4955 27.5398 25.2753 28.2758 25.1652C29.0117 25.0551 29.8172 25 30.6922 25V27.7641C30.0084 27.7641 29.4869 27.8539 29.1276 28.0336C28.7741 28.2074 28.5336 28.4798 28.4062 28.8507C28.2787 29.2157 28.2149 29.6793 28.2149 30.2414V32.7795C28.2149 33.2199 28.1338 33.6401 27.9716 34.0399C27.8093 34.434 27.508 34.7845 27.0676 35.0917C26.6272 35.393 25.9984 35.6335 25.1814 35.8131C24.3643 35.987 23.3038 36.0739 22 36.0739ZM30.6922 47C29.8172 47 29.0117 46.9449 28.2758 46.8348C27.5398 46.7247 26.9024 46.5045 26.3635 46.1742C25.8304 45.8439 25.4131 45.3543 25.1118 44.7053C24.8163 44.062 24.6685 43.2044 24.6685 42.1324V40.2027C24.6685 39.3103 24.4744 38.6642 24.0861 38.2643C23.6979 37.8645 23.0025 37.6646 22 37.6646V35.9174C23.3038 35.9174 24.3643 36.0072 25.1814 36.1869C25.9984 36.3607 26.6272 36.6012 27.0676 36.9083C27.508 37.2097 27.8093 37.5603 27.9716 37.9601C28.1338 38.3541 28.2149 38.7743 28.2149 39.2205V41.7586C28.2149 42.3149 28.2787 42.7756 28.4062 43.1407C28.5336 43.5115 28.7741 43.7839 29.1276 43.9577C29.4869 44.1374 30.0084 44.2272 30.6922 44.2272V47ZM22 37.6646V34.3267H25.1205V37.6646H22Z" fill="white"/>
<path d="M50 35.9174V37.6646C49.0033 37.6646 48.3079 37.8645 47.9138 38.2643C47.5256 38.6642 47.3314 39.3103 47.3314 40.2027V42.1324C47.3314 43.2044 47.1808 44.062 46.8795 44.7053C46.5839 45.3543 46.1667 45.8439 45.6278 46.1742C45.0947 46.5045 44.4601 46.7247 43.7242 46.8348C42.994 46.9449 42.1886 47 41.3077 47V44.2272C41.9915 44.2272 42.5102 44.1374 42.8636 43.9577C43.2229 43.7839 43.4663 43.5115 43.5938 43.1407C43.7213 42.7756 43.785 42.3149 43.785 41.7586V39.2205C43.785 38.7743 43.8662 38.3541 44.0284 37.9601C44.1907 37.5603 44.492 37.2097 44.9324 36.9083C45.3728 36.6012 46.0015 36.3607 46.8186 36.1869C47.6357 36.0072 48.6961 35.9174 50 35.9174ZM41.3077 25C42.1886 25 42.994 25.0551 43.7242 25.1652C44.4601 25.2753 45.0947 25.4955 45.6278 25.8258C46.1667 26.1561 46.5839 26.6457 46.8795 27.2947C47.1808 27.938 47.3314 28.7956 47.3314 29.8676V31.7886C47.3314 32.681 47.5256 33.3271 47.9138 33.727C48.3079 34.1268 49.0033 34.3267 50 34.3267V36.0739C48.6961 36.0739 47.6357 35.987 46.8186 35.8131C46.0015 35.6335 45.3728 35.393 44.9324 35.0917C44.492 34.7845 44.1907 34.434 44.0284 34.0399C43.8662 33.6401 43.785 33.2199 43.785 32.7795V30.2414C43.785 29.6793 43.7213 29.2157 43.5938 28.8507C43.4663 28.4798 43.2229 28.2074 42.8636 28.0336C42.5102 27.8539 41.9915 27.7641 41.3077 27.7641V25ZM50 34.3267V37.6646H46.8795V34.3267H50Z" fill="white"/>
<defs>
<linearGradient id="paint0_linear_675_3478" x1="36" y1="27" x2="36" y2="60" gradientUnits="userSpaceOnUse">
<stop offset="0.562874" stop-color="#90B0DF"/>
<stop offset="1" stop-color="#90B0DF" stop-opacity="0"/>
</linearGradient>
<linearGradient id="paint1_linear_675_3478" x1="36" y1="14" x2="36" y2="58" gradientUnits="userSpaceOnUse">
<stop stop-color="#1D93FF"/>
<stop offset="1" stop-color="#0148FF"/>
</linearGradient>
</defs>
</svg>
