<svg xmlns="http://www.w3.org/2000/svg" width="160" height="160"><path d="M75 0c6.31 1.343 11.019 6.092 16 10l2.809 2.176C118.188 31.53 118.188 31.53 121 46c.047 2.136.038 4.274-.008 6.41l-.05 3.748a1318.65 1318.65 0 0 1-.157 7.82l-.043 3.745-.067 3.43c.093 2.845.093 2.845 1.677 4.755 1.686 1.366 1.686 1.366 4.273.842 2.306-.527 2.306-.527 3.375-1.75.23-1.347.412-2.704.563-4.063L131 67l3-1c8.422 14.98 12.597 32.722 8 49.691-3.037 6.617-7.774 11.788-12.828 16.934-1.919 2.098-3.089 3.775-4.172 6.375l6-1c-.133 1.754-.133 1.754-1 4-18.947 14.573-41.58 19.49-65 18-4.41-.74-7.997-2.04-12-4l-3.59-1.625C39.956 149.878 31.926 143.884 25 136v-3l10 4c-2.18-4.1-4.458-7.622-7.438-11.188C19.663 115.7 17.657 105.517 19 93c1.992-9.406 6.547-19.76 13-27h3l.332 3.14.48 4.11.213 2.066C36.513 79.331 37.06 82.131 40 85c2.954 1.076 2.954 1.076 6 1 2.106-1.555 2.89-2.552 3.52-5.106l.218-2.437.287-2.731.288-2.913C51.484 62.74 53.987 54.258 58 45c.797-1.998 1.59-3.998 2.375-6 .54-1.334 1.08-2.668 1.625-4l3.813.188c3.222.016 3.222.016 6.062-1.376 2.724-4.388 3.369-8.07 3.32-13.207l-.02-3.642-.05-3.776-.027-3.833C75.074 6.235 75.04 3.118 75 0Z" fill="#FEAF36"/><path d="M75 0c6.31 1.343 11.019 6.092 16 10l2.809 2.176C118.188 31.53 118.188 31.53 121 46c.047 2.136.038 4.274-.008 6.41l-.05 3.748a1318.65 1318.65 0 0 1-.157 7.82l-.043 3.745-.067 3.43c.093 2.845.093 2.845 1.677 4.755 1.686 1.366 1.686 1.366 4.273.842 2.306-.527 2.306-.527 3.375-1.75.23-1.347.412-2.704.563-4.063L131 67l3-1c8.422 14.98 12.597 32.722 8 49.691-3.468 7.558-9.183 13.473-15 19.309l-2.18 2.188L123 139c-1.972 1.972-2.832 3.509-4 6l-1 2h-2v2l-2-1c.14-6.265 2.698-10.002 6.145-15.133 2.66-4.11 4.772-8.442 6.855-12.867h-8c-1.515-3.03-1.17-5.651-1-9l.938-2.313c1.618-4.095 1.74-8.322 2.062-12.687-2.919-.253-2.919-.253-4.813 1.063-3.18 1.363-4.926 1.024-8.187-.063-3.604-4.09-4.71-7.603-5-13 .15-.859.3-1.717.453-2.602.711-4.418.904-8.807 1.11-13.273l.13-2.664c.106-2.154.207-4.307.307-6.461h-2l-.191-1.766C101.264 46.896 95.999 37.727 88 31l-3-1 .313 3.375c-.04 7.548-4.03 13.473-9.126 18.75-8.036 8.524-14.126 21.634-14.687 33.313-.888 12.412-.888 12.412-6.5 17.374A609.02 609.02 0 0 1 51 106l-2 2c-5.224-.243-8.665-2.313-13-5-.475 8.26.897 14.92 4.055 22.547 3.193 7.878 3.717 15.02 3.945 23.453-5.862-1.25-9.151-3.313-13.438-7.438l-1.638-1.486c-1.377-1.29-2.659-2.678-3.924-4.076v-3l10 4c-2.18-4.1-4.458-7.622-7.438-11.188C19.663 115.7 17.657 105.517 19 93c1.992-9.406 6.547-19.76 13-27h3l.332 3.14.48 4.11.213 2.066C36.513 79.331 37.06 82.131 40 85c2.954 1.076 2.954 1.076 6 1 2.106-1.555 2.89-2.552 3.52-5.106l.218-2.437.287-2.731.288-2.913C51.484 62.74 53.987 54.258 58 45c.797-1.998 1.59-3.998 2.375-6 .54-1.334 1.08-2.668 1.625-4l3.813.188c3.222.016 3.222.016 6.062-1.376 2.724-4.388 3.369-8.07 3.32-13.207l-.02-3.642-.05-3.776-.027-3.833C75.074 6.235 75.04 3.118 75 0Z" fill="#FC5426"/><path d="M82.883 109.418c3.499.962 6.121 2.542 9.117 4.582v2h2l1 6h2c3.689 7.115 4.937 12.004 3.438 20-1.737 3.624-4.042 6.157-6.75 9.098-1.9 2.141-3.346 4.376-4.688 6.902l3.25-1.063c3.537-.884 4.498-.966 7.75.063-7.929 2.865-15.453 3.302-23.813 3.313l-3 .015C67.746 160.277 63.143 159.8 58 158v-1l15 1c-2.39-4.48-5.033-8.325-8.188-12.313-3.156-4.34-5.135-7.723-5.23-13.152 1.43-8.673 7.276-15.41 13.832-20.902 3.317-2.095 5.594-2.622 9.469-2.215Z" fill="#FCFBD2"/><path d="M79 14h1c.78 16.437.78 16.437-4 24-1 1-1 1-3.285 1.098l-2.778-.035-2.785-.028L65 39l.25 2.313c-.297 4.383-1.6 7.833-3.18 11.906L61 56l-1.102 2.855c-1.047 3.667-1.267 7.175-1.398 10.958-.786 15.497-.786 15.497-4.21 18.874C49.81 91.255 44.952 91.017 40 90c-4.9-3.415-7.694-8.197-9-14-1.566 6.068-2.185 12.449 1 18h3l1 5h-1c-.723 10.308 2.328 20.029 6.188 29.5 2.567 6.655 2.621 13.434 2.812 20.5-5.862-1.25-9.151-3.313-13.438-7.438l-1.638-1.486c-1.377-1.29-2.659-2.678-3.924-4.076v-3l10 4c-2.18-4.1-4.458-7.622-7.438-11.188C19.663 115.7 17.657 105.517 19 93c1.992-9.406 6.547-19.76 13-27h3l.332 3.14.48 4.11.213 2.066C36.513 79.331 37.06 82.131 40 85c2.954 1.076 2.954 1.076 6 1 2.161-1.582 2.9-2.61 3.568-5.217l.276-2.572.34-2.856.316-2.98C52.206 56.684 52.206 56.684 55 52c2.104-.74 2.104-.74 4-1l1-7h2l1-7 12-1c2.21-7.4 3.568-14.292 4-22Z" fill="#EF420E"/><path d="M82 20h1v7l4 2-2 1 .313 3.375c-.04 7.548-4.03 13.473-9.126 18.75-8.036 8.524-14.126 21.634-14.687 33.313-.888 12.412-.888 12.412-6.5 17.374A609.02 609.02 0 0 1 51 106l-2 2c-5.224-.243-8.665-2.313-13-5l-1 5h-1a700.574 700.574 0 0 1-.063-4.813l-.035-2.707C34 98 34 98 35 95l-1-1-2 2c-3.56-5.786-3.81-10.822-2.543-17.355.466-1.895.998-3.772 1.543-5.645h1l.227 1.723c.868 5.102 2.144 9.19 5.722 13.027C42.173 90.325 47.266 89.772 52 89c3.594-2.396 3.792-3.96 4.613-8.063.375-2.848.523-5.659.624-8.529C57.674 60.605 61.297 50.793 66 40l2.336-.113 3.039-.2 3.023-.175L77 39c2.403-3.604 2.91-7.007 3.625-11.188l.406-2.271c.33-1.846.65-3.693.969-5.541Z" fill="#FF6F2D"/><path d="m89 77-.219 1.984C87.731 89.314 87.308 98.906 90 109h2l1.367 1.418c1.89 1.83 3.245 2.213 5.758 2.894 2.148.747 2.148.747 3.875 1.688.75 2.875.75 2.875 1 6l2.188 2.25c2.11 3.202 1.988 3.909 1.374 7.563C106.326 135.781 104.207 140 101 144h-1l.105-2.633c.248-8.588.248-8.588-3.105-16.367v-3h-2l-1-6h-2l-1-2c-4.287-2.552-7.98-4.17-13-4-5.161 2.974-9.72 7.02-13 12l-1.156 1.664c-3.685 6.05-2.887 11.53-1.844 18.336-5.48-5.186-7.24-10.545-8-18l9-1c1.303-3.037 2.357-6.094 3.297-9.258C69.029 104.557 71.913 96.202 77 88l1-2h2l.688-1.688C82.504 81.112 85.05 77 89 77Z" fill="#FFDE58"/><path d="M97 21c5.706-.104 8.46.908 12.625 4.875 7.203 7.79 11.596 15.903 11.367 26.535l-.05 3.748a1318.65 1318.65 0 0 1-.157 7.82l-.043 3.745-.067 3.43c.093 2.837.093 2.837 1.65 4.724 2.548 1.708 4.69 1.377 7.675 1.123l2-1c-1.875 4.875-1.875 4.875-3 6-4.797.56-9.558.624-14-1.438-4.085-3.489-4.568-6.346-5-11.562-.453-8.095-.453-8.095 1-11 .349-5.13-.14-9.945-1-15-.083-2.673-.046-5.324 0-8h-2v-2l-3-1c-2.043-2.25-2.043-2.25-4.188-5l-2.167-2.75C97 22 97 22 97 21Z" fill="#FB4213"/><path d="M82.883 109.418c3.499.962 6.121 2.542 9.117 4.582v2h2l1 6h2c3.692 7.12 5.008 12.062 3.375 20.063-1.832 3.913-4.43 6.808-7.375 9.937l-2-2 2-2.25c3.184-4.781 2.609-10.247 2-15.75-.71-2.838-1.742-5.365-3-8-3-6.824-3-6.824-3-9-5.827.549-5.827.549-10.57 3.621a101.512 101.512 0 0 0-2.383 3.781C74.699 124.46 73.18 124.945 71 126c-5.155 5.45-4.786 11.783-5 19h2l-1 4c-4.04-5.115-7.09-9.743-7.348-16.395 1.16-8.691 7.26-15.525 13.762-20.972 3.317-2.095 5.594-2.622 9.469-2.215Z" fill="#FEF37B"/><path d="M82 20h1v7l4 2-2 1 .313 3.375c-.04 7.548-4.03 13.473-9.126 18.75-4.882 5.142-7.55 11.146-10.523 17.496C64 73 64 73 62 75c-.843-6.093-1.273-11.416.32-17.387.918-3.529 1.604-7.099 2.305-10.675l.79-3.973c.192-.979.386-1.957.585-2.965l2.336-.113 3.039-.2 3.023-.175L77 39c2.403-3.604 2.91-7.007 3.625-11.188l.406-2.271c.33-1.846.65-3.693.969-5.541Z" fill="#FF7543"/><path d="M79 14h1c.78 16.437.78 16.437-4 24-1 1-1 1-3.285 1.098l-2.778-.035-2.785-.028L65 39l.25 2.313c-.297 4.383-1.6 7.833-3.18 11.906L61 56l-1.102 2.855c-1.047 3.667-1.267 7.175-1.398 10.958-.783 15.434-.783 15.434-4.184 18.906-3.014 1.667-5.143 1.58-8.566 1.469l-3.266-.083L40 90l-1-3 11 1c2.3-6.602 2.113-12.52 1.834-19.441C51.707 62.862 51.95 56.994 55 52c2.11-.746 2.11-.746 4-1l1-7h2l1-7 12-1c2.21-7.4 3.568-14.292 4-22Z" fill="#FB3C02"/><path d="M135 72c1.623 2.434 2.617 4.313 3.625 7 .26.68.52 1.361.79 2.063C140 83 140 83 140 86h2c.926 3.139 1.117 5.937 1.098 9.203l-.01 2.969-.025 3.078-.014 3.125c-.012 2.542-.028 5.083-.049 7.625h-2l-1 2v-7l-5 5-2-1 .324-1.766c1.128-7.71.588-15.98-3.933-22.586L128 85l6-6c.368-2.328.702-4.662 1-7Z" fill="#EF2600"/><path d="M80 116c2.188.313 2.188.313 4 1l-1.875.688C79.318 119.42 79.159 120.931 78 124a149.965 149.965 0 0 1-2.563 3.188C72.284 131.492 71.704 135.733 72 141c.923 4.013 2.577 7.296 4.688 10.813C78 154 78 154 78 157l11-1v2l3.25-1.063c3.537-.884 4.498-.966 7.75.063-7.929 2.865-15.453 3.302-23.813 3.313l-3 .015C67.746 160.277 63.143 159.8 58 158v-1l15 1-1.938-3.438-1.09-1.933c-.87-1.608-.87-1.608-1.972-2.629a99.984 99.984 0 0 1 0-5h-2c-1.033-12.552-1.033-12.552 2.688-17.5A80.054 80.054 0 0 1 72 124l2.688-2.813L77 119l1.563-1.875L80 116Z" fill="#FBF9B9"/><path d="m41 130 3 2v3l1.813.813C48.028 137.014 49.3 138.159 51 140l2.188 2.063C55 144 55 144 55 146l2.215.746c3.93 1.77 6.517 4.52 9.601 7.477 2.162 1.759 3.466 2.376 6.184 2.777v1c-13.1.24-21.975-1.861-33-9l3-1c-.14-2.438-.288-4.875-.438-7.313l-.119-2.091c-.192-3.068-.466-5.666-1.443-8.596Z" fill="#F69D12"/><path d="M29 77c1.085 3.7 1.003 6.96.84 10.781.18 2.505.91 4.063 2.16 6.219h3l1 5h-1v13c-6 0-6 0-8.688-2.188L24 107l-1.875-2.25C19.787 99.035 21.742 92.53 24 87a365.824 365.824 0 0 1 5-10Z" fill="#F13900"/><path d="M111 33c4.915 3.98 6.276 10.111 6.924 16.104l.201 2.209.236 2.325C119.178 62.074 119.62 70.535 120 79c1.626-.309 3.25-.622 4.875-.938l2.742-.527C130 77.1 130 77.1 132 76c-1.875 4.875-1.875 4.875-3 6-3.382.438-6.623.482-10 0-2.824-2.19-4.415-3.83-6-7-.062-2.254-.06-4.51-.027-6.766l.037-4.136c.024-2.17.052-4.34.086-6.51.03-2.097.048-4.194.064-6.291l.051-3.802c-.213-3.523-1.004-6.2-2.211-9.495-.125-2.875-.125-2.875 0-5Z" fill="#F72C04"/><path d="M32 66h3l.332 3.14.48 4.11.213 2.066C36.513 79.331 37.06 82.131 40 85c2.954 1.076 2.954 1.076 6 1 1.976-1.499 2.861-2.497 3.524-4.901l.206-2.11.245-2.296.212-2.38.249-2.417c.2-1.964.383-3.93.564-5.896h1c1.702 15.93 1.702 15.93-2 22-10.518.906-10.518.906-13.84-1.125C33.392 83.644 32.26 79.983 31 76c-4.613 7.178-8.072 13.438-9 22h-1v14c-3.55-5.326-2.597-12.755-2-19 1.936-9.392 6.57-19.784 13-27Z" fill="#F4493F"/><path d="M37 35h2c2.197 4.394 1.5 9.911.387 14.566C37.05 56.144 33.197 61.344 28 66h-2c-.776-9.298-.056-14.824 6-22 2.282-2.913 3.738-5.505 5-9Z" fill="#FB5F4C"/><path d="M82.27 111.488c3.008.564 4.499 1.452 6.73 3.512l-1.793.191c-4.867.689-4.867.689-8.777 3.43a101.512 101.512 0 0 0-2.383 3.781C74.699 124.46 73.18 124.945 71 126c-5.155 5.45-4.786 11.783-5 19h2l-1 4c-4.284-4.82-4.442-8.758-4.434-15.098.943-6.31 5.602-10.647 9.746-15.214l1.686-1.956c4.186-4.604 4.186-4.604 8.272-5.244Z" fill="#FCF690"/><path d="m89 115 3 2v2h2c4.177 3.475 6.525 8.842 7.324 14.156.208 8.324-2.863 13.04-8.324 18.844l-2-2 2-2.25c3.184-4.781 2.609-10.247 2-15.75-.71-2.838-1.742-5.365-3-8-3-6.824-3-6.824-3-9Z" fill="#FCF9A3"/><path d="M108 28c2.67.363 3.773.746 5.598 2.785l1.465 2.277 1.472 2.223c4.644 8.607 4.764 15.338 4.465 25.028-.076 2.516-.14 5.033-.188 7.55l-.105 3.353c.05 2.79.05 2.79 1.668 4.593 1.792 1.314 3.6 2.283 5.625 3.191h-8c-1.177-2.353-1.264-4.076-1.465-6.7l-.231-2.894-.242-3.094c-.179-2.099-.36-4.198-.542-6.296a988.445 988.445 0 0 1-.71-8.44c-.609-7.565-1.195-13.334-6.47-19.06C109 31 109 31 108 28Z" fill="#ED443A"/><path d="m76 1 2 1c2.557 10.774 2.513 24.181-3 34-2.525 1.262-4.312 1.099-7.125 1.063l-2.758-.028L63 37l-1 7h-2l-1 7-3 1a365.55 365.55 0 0 1 6-17l3.813.188c3.222.016 3.222.016 6.062-1.376 2.64-4.253 3.392-8.017 3.54-12.988l.116-3.506.094-3.63.117-3.69c.094-3 .18-5.998.258-8.998Z" fill="#F2392E"/><path d="M64 45c.913 3.03 1.066 5.48.75 8.625l-.203 2.352C64 58 64 58 61 60c-.494 2.661-.494 2.661-.477 5.777l-.093 3.494-.055 3.666a2245.06 2245.06 0 0 1-.164 7.153l-.053 3.214C60 86 60 86 59 89c-3.906 2.87-6.424 4.392-11.313 3.875C44 92 44 92 42 90l2.082-.148 2.73-.227 2.708-.21c2.724-.281 2.724-.281 5.48-2.415 1.528-4.923 2.055-9.445 2.238-14.593C57.596 62.66 59.593 53.813 64 45Z" fill="#FF541B"/><path d="M28 83h1l.402 1.898.535 2.477.528 2.46C30.923 92.03 30.923 92.03 32 94h3l1 5h-1v13c-5-1-5-1-6.3-2.71-.84-2.75-.926-5.053-.895-7.93l.02-3.243.05-3.367.027-3.414c.024-2.779.057-5.557.098-8.336Z" fill="#FC5605"/><path d="M121 120h6c-.567 4.23-2.021 6.964-4.375 10.5-5.434 8.1-5.434 8.1-7.625 17.5l-3 1v2h-5v2l-3-1h2l.188-2.125c1.416-5.011 5.213-8.276 8.812-11.875 2.075-2.82 2.075-2.82 2.875-5.688 1.352-3.98 3.18-7.593 5.125-11.312l-2-1Z" fill="#F89002"/><path d="m125 135 1 2-1 2 6-1c-.133 1.754-.133 1.754-1 4-8.186 6.296-19.59 13.156-30 14l-1-2c2.709-1.354 5.01-1.065 8-1v-2l3-1 2 1v-2h4v-2l2-2 .813-2.313c1.467-3.322 3.536-5.246 6.187-7.687Z" fill="#F25F1E"/><path d="m41 130 3 2v3l1.875.813C48 137 48 137 50 140c.195 2.918.195 2.918.125 6.188l-.055 3.292L50 152c-6.523-.615-6.523-.615-8.938-2.563L40 148h3c-.14-2.438-.288-4.875-.438-7.313l-.119-2.091c-.192-3.068-.466-5.666-1.443-8.596Z" fill="#F17100"/><path d="M79 14h1c.78 16.437.78 16.437-4 24-1 1-1 1-3.285 1.098l-2.778-.035-2.785-.028L65 39l-.379 2.16c-.632 2.888-1.519 5.512-2.558 8.278-1.425 3.834-2.8 7.67-4.063 11.562-2.29-3.435-2.178-4.985-2-9l3-1 1-7h2l1-7 12-1c2.21-7.4 3.568-14.292 4-22Z" fill="#EF3102"/><path d="M111 33c4.335 3.51 5.693 8.02 6.516 13.324.658 6.733 1.078 11.82-2.516 17.676l-2 2c.01-.635.02-1.27.032-1.924.042-2.9.067-5.8.093-8.701l.05-3.027c.035-5.235-.181-9.426-2.175-14.348-.125-2.875-.125-2.875 0-5Z" fill="#FA3202"/><path d="M123 129c1.675.286 3.344.618 5 1-.483 4.343-1.745 6.14-5 9-1.972 1.972-2.832 3.509-4 6l-1 2h-2v2l-2-1c.159-7.144 3.952-13.952 9-19Z" fill="#F16D01"/><path d="m113 139 2 1-2.313 1.75c-4.162 3.438-4.162 3.438-6 8.313-.687 1.937-.687 1.937-3.5 3.562L100 155l-1.938 1.125c-2.944 1.25-5.902 1.51-9.062 1.875 1.486-4.593 3.85-7.436 7-11l1 2-4 6 2.773-2.188L99.375 150l1.828-1.445C105.773 145 105.773 145 108 145l.813-1.875C110 141 110 141 113 139Z" fill="#FEC10B"/><path d="M136 75c2.313 2.313 2.496 3.479 3.125 6.625l.508 2.477L140 86h2c.926 3.139 1.117 5.937 1.098 9.203l-.01 2.969-.025 3.078-.014 3.125c-.012 2.542-.028 5.083-.049 7.625h-2l-1 2 .105-3.156c.236-10.386-.912-19.696-3.105-29.844a426.216 426.216 0 0 1-1-6Z" fill="#EB2924"/><path d="M55 52h1c.195 1.79.38 3.583.563 5.375l.316 3.023C57 63 57 63 56 65c-.03 3.088.067 6.163.16 9.25C56 77 56 77 54 79c-3.487-5.23-2.43-11.898-2-18 .732-3.236 1.708-5.93 3-9Z" fill="#EF3605"/><path d="M132 66h2c7.418 14.327 7.418 14.327 6 20l-4-11-2 5h-3v-3h-3l2-2c.421-1.94.421-1.94.563-4.063C131 67 131 67 132 66Z" fill="#F46C62"/><path d="M51 66h1c1.702 15.93 1.702 15.93-2 22-1.937.081-3.875.14-5.813.188l-3.269.105C38 88 38 88 36.125 86.75 34.116 83.626 34.822 80.626 35 77l.813 1.75c2.466 4.827 2.466 4.827 7.187 7.188 2.945.371 2.945.371 4.642-1.183 1.58-2.041 1.84-3.219 2.088-5.767l.245-2.295.212-2.38.249-2.417c.2-1.964.383-3.93.564-5.896Z" fill="#F05D49"/><path d="M89 156v2l3.25-1.063c3.537-.884 4.498-.966 7.75.063-7.929 2.865-15.453 3.302-23.813 3.313l-3 .015C67.746 160.277 63.143 159.8 58 158v-1c6.625-.125 6.625-.125 10 1 1.892.222 3.789.406 5.688.563l3.011.253L79 159v-2c6.625-1 6.625-1 10-1Z" fill="#F7D9B7"/><path d="M102 120c5.91 5.91 5.91 5.91 6 9-1.093 5.465-2.363 7.454-6 12v-21Z" fill="#FFED51"/><path d="m26 80 2 1-1.875 2.875C23.545 88.331 22.771 92.96 22 98h-1v14c-2.394-3.592-2.384-6.278-2.375-10.438l.003-2.144C18.77 92.96 19.895 86.742 23 81l3-1Z" fill="#F15749"/><path d="M75 27h1c.366 6.47.366 6.47-1.188 8.719-2.44 1.724-4.043 1.584-7 1.468l-2.73-.082L63 37l-1 7h-2l-1 7-3 1a365.55 365.55 0 0 1 6-17l3.813.188c3.222.016 3.222.016 6.062-1.376C73.231 31.628 74.148 29.425 75 27Z" fill="#F0716F"/><path d="M53 71h1l.438 2.75c.43 3.086.43 3.086 1.312 5.25.47 3.766-1.81 6.778-4.035 9.672-2.363 1.83-3.954 1.63-6.903 1.516l-2.73-.083L40 90l-1-3 11 1c1.842-5.648 2.548-11.085 3-17Z" fill="#F03C00"/><path d="m76 110 2 1-1.426 1.61-1.886 2.14-1.864 2.11c-1.856 2.1-1.856 2.1-3.367 4.406L68 123h-3l-.402 1.734c-.592 2.243-1.33 4.352-2.16 6.516l-.817 2.14L61 135h-1c-.435-6.369 2.44-10.89 6-16 3.144-3.252 6.47-6.175 10-9Z" fill="#FFF06C"/><path d="M141 112c1 3 1 3 .031 5.2-3.519 5.717-7.232 11.067-12.031 15.8h-1c-.313-2.25-.313-2.25 0-5a207.388 207.388 0 0 1 5-4c1.838-2.57 3.405-5.275 5-8 2-3 2-3 3-4Z" fill="#ED4E3F"/><path d="M118 61h1l1 18c6.167-.964 6.167-.964 12-3-1.75 3.875-1.75 3.875-4 5-6.104.452-6.104.452-9.207-1.113C117 78 117 78 116.574 75.004l.114-3.442.074-3.433c.193-2.533.507-4.71 1.238-7.129Z" fill="#ED1502"/><path d="m25 133 10 4v-2h3l1 4c-2 1-2 1-6 1l-1 3a335.157 335.157 0 0 1-3.5-3.313l-1.969-1.863C25 136 25 136 25 133Z" fill="#F4734F"/><path d="M90 10c5.088 3.18 9.682 6.825 14 11v1c-3.153.054-5.1.08-8-1-2.781-2.98-6-6.775-6-11Z" fill="#F04C35"/><path d="M79 37v3c-3.767 2.968-7.298 3.539-12 4l-.375 3.875C66.25 51.75 66.25 51.75 64 54c.142-1.584.289-3.167.438-4.75.08-.882.162-1.763.246-2.672A44.11 44.11 0 0 1 66 40l2.336-.148 3.039-.227c.998-.07 1.995-.14 3.023-.21 2.757-.179 2.757-.179 4.602-2.415Z" fill="#FF6539"/><path d="M80 16h1c.382 15.118.382 15.118-2 22-2 2-2 2-4.602 2.195l-3.023-.07-3.04-.055L66 40l-1 4v-5l10-1c3.871-7.368 4.744-13.72 5-22Z" fill="#FE461C"/><path d="M58 148c4.331 1.274 6.567 3.368 9.473 6.66 1.795 1.575 3.2 1.935 5.527 2.34v1c-4.073.207-7.042.354-10.875-1.063-2.89-2.635-3.344-5.173-4.125-8.937Z" fill="#FCBF05"/><path d="m48 139 2 1v12c-6.523-.615-6.523-.615-8.938-2.563L40 148l7 1-.063-3.875c-.062-3.875-.062-3.875 1.063-6.125Z" fill="#F27F1A"/><path d="m63 124-2 1.938c-2.682 4.107-2.374 7.296-2 12.062-2.323-2.323-2.725-3.873-3.625-7-.26-.887-.52-1.774-.79-2.688C54 126 54 126 54 124c6.75-1.125 6.75-1.125 9 0Z" fill="#FFE137"/><path d="M116 147h5c-5.89 4.729-13.414 8.385-21 9l-1-2c2.709-1.354 5.01-1.065 8-1v-2l3-1 2 1v-2h4v-2Z" fill="#F7A44C"/><path d="M68 149c1.875.25 1.875.25 4 1 .684 1.325 1.35 2.659 2 4 1.325.683 2.658 1.35 4 2l1 3H68v-1h5l-1.938-3.375c-1.067-1.86-2.103-3.706-3.062-5.625Z" fill="#FBF69D"/><path d="m123 129 5 1c-.483 4.343-1.745 6.14-5 9l-2 2a280.282 280.282 0 0 1-.125-4.313l-.07-2.425C121 132 121 132 123 129Z" fill="#EE5109"/><path d="M79 14h1c.78 16.437.78 16.437-4 24-1 1-1 1-3.563 1.063L70 39c1.375-1.5 1.375-1.5 3-3h2c2.258-7.341 3.57-14.33 4-22Z" fill="#F73402"/><path d="M95 132h1c1.034 11.485 1.034 11.485-3 16.75a75.086 75.086 0 0 1-3 3.25l-1-2a604.378 604.378 0 0 1 2.941-5.625C93.705 140.417 94.337 136.26 95 132Z" fill="#FBFABD"/><path d="m97 120 2 4 2-1 1 5h1a789.932 789.932 0 0 1-.375 6.875c-.07 1.276-.14 2.552-.21 3.867C102 142 102 142 100 144l.105-2.633c.15-6.349.239-10.794-3.105-16.367-.188-2.875-.188-2.875 0-5Z" fill="#FEF46B"/><path d="M65 119c0 3.25-.402 3.82-2.063 6.438C60.053 130.853 61.1 136.13 62 142c-2.89-2.397-3.527-4.173-3.938-7.875-.27-3.65-.296-4.75 1.688-7.938L62 124a155.71 155.71 0 0 0 3-5Z" fill="#FFED53"/><path d="M97 125c3.367 3.074 3.96 5.18 4.188 9.813-.061 4.731-.75 8.75-4.188 12.187l.5-2.25c.858-6.435 1.395-13.463-.5-19.75Z" fill="#FDF884"/><path d="m69 125 2 1-1.938 2.375C66.22 132.554 66.195 137.076 66 142l-2-1c-.558-9.484-.558-9.484 3-14l2-2Z" fill="#FCF9A1"/><path d="M51 66h1c.222 2.416.428 4.832.625 7.25l.195 2.066c.296 3.807.356 6.462-1.82 9.684h-2l2-19Z" fill="#F1685F"/><path d="m113 139 2 1-2.313 1.75c-3.646 3.053-5.84 5.51-6.687 10.25l-4 1 4-8h2l.813-1.875C110 141 110 141 113 139Z" fill="#FCB807"/><path d="M63 37h9c-2 2-2 2-4.625 2.125L65 39l-.438 2.375C64 44 64 44 63 46h-3v-2h2l1-7Z" fill="#EF1E04"/><path d="M75 0c3.567.892 4.956 1.467 7.75 3.563l1.86 1.378L86 6l-2 1c-5.727-2.455-5.727-2.455-7-5l-1 8h-1V0Z" fill="#F16B69"/><path d="m104 123 4 3-2 10h-1l-1-13Z" fill="#FFE540"/><path d="M134 79c.688 1.75.688 1.75 1 4-1.375 2.125-1.375 2.125-3 4l-1 2-3-4 6-6Z" fill="#FE390F"/><path d="M119 64h1l.113 2.082.2 2.73.175 2.708c.584 2.83 1.27 3.722 3.512 5.48 2.1 1.176 2.1 1.176 4 2h-8c-1.442-2.884-1.094-5.417-1.063-8.625l.028-3.602L119 64Z" fill="#F26A68"/><path d="m107 33 1 2h2l1 13-2-4-1.125-1.813c-1.235-3.087-1.001-5.9-.875-9.187Z" fill="#FF4B20"/><path d="m89 115 3 2v2h2c1.625 1.5 1.625 1.5 3 3l-1 3c-2.938-1.625-2.938-1.625-6-4-.875-3.25-.875-3.25-1-6Z" fill="#FDF68D"/><path d="M86 9c1.828.215 1.828.215 4 1 1.484 2.066 1.484 2.066 2.75 4.563l1.297 2.503L95 19c-3.334-1.58-5.582-3.165-8-6-.75-2.25-.75-2.25-1-4Z" fill="#F73809"/><path d="m96 147 1 2-4 6 2 1h-3v2h-3c1.486-4.593 3.85-7.436 7-11Z" fill="#FEE523"/><path d="M112 141c0 3.867-1.42 6.509-3 10h-2v2l-3-1h2l.188-2.125c1.104-3.908 3.094-5.879 5.812-8.875Z" fill="#FA9D04"/><path d="M37 35h2c1.262 2.525 1.099 4.312 1.063 7.125l-.028 2.758L40 47h-1l-1-6-3 1 2-7Z" fill="#F29895"/><path d="M141 112c1 3 1 3 .004 5.262l-1.441 2.425-1.434 2.45L137 124c-1.119-3.402-.985-4.043.313-7.688C139 113 139 113 141 112Z" fill="#ED5352"/><path d="M55 52h1l1 10-2-2-2 5c-1.188-3.43-.802-5.378.438-8.75l.87-2.422L55 52Z" fill="#EF6E61"/><path d="M75 27h1c.366 6.46.366 6.46-1.313 8.938C73 37 73 37 70 37v-2l1.375-1.313C73.343 31.645 74.067 29.655 75 27Z" fill="#EF5551"/><path d="M25 133c2.438.75 2.438.75 5 2 .813 2.125.813 2.125 1 4-2.867-.573-3.861-.861-6-3v-3Z" fill="#F47163"/><path d="M30 81c1.743 2.297 3.4 4.599 5 7l-1 3c-2-1.625-2-1.625-4-4-.25-3.25-.25-3.25 0-6Z" fill="#FF843B"/><path d="M31 73h1l2 11-3-1c-1.125-6.625-1.125-6.625 0-10Z" fill="#FF6E48"/><path d="m37 39 2 2c-.023 2.164-.023 2.164-.375 4.625l-.336 2.477L38 50h-1c-1.443-8.115-1.443-8.115 0-11Z" fill="#FD342E"/><path d="M73 155c2.468 1.152 4.048 2.048 6 4H68v-1h5v-3Z" fill="#FCDD7D"/><path d="m32 139 7 2v2h-3l-1 2c-3-4.875-3-4.875-3-6Z" fill="#F74F31"/><path d="m39 87 9 1v2h-8l-1-3Z" fill="#F02902"/><path d="m125 135 1 2-1 2 6-1-1 4-1-2h-5l1-5Z" fill="#F4B194"/><path d="m115 37 3 1c.625 2.875.625 2.875 1 6l-2 2-2-9Z" fill="#ED2924"/><path d="M82 6c2.352.599 4.686 1.27 7 2l1 2h-3l-1 2c-4-4.875-4-4.875-4-6Z" fill="#F44C2F"/></svg>