<svg width="72" height="72" viewBox="0 0 72 72" fill="none" xmlns="http://www.w3.org/2000/svg">
<rect width="72" height="72" fill="#DDE6FA"/>
<path opacity="0.5" d="M14 27H58L61.4568 55.5187C61.7456 57.9012 59.8859 60 57.4859 60H14.5141C12.1141 60 10.2544 57.9012 10.5432 55.5187L14 27Z" fill="url(#paint0_linear_675_3312)"/>
<rect x="14" y="14" width="44" height="44" rx="4" fill="url(#paint1_linear_675_3312)"/>
<path d="M35.8049 32.9834V38.8873H44.0094C43.6491 40.7859 42.568 42.3936 40.9465 43.4746L45.8941 47.3136C48.7767 44.6527 50.4398 40.7445 50.4398 36.1018C50.4398 35.0208 50.3428 33.9813 50.1626 32.9836L35.8049 32.9834Z" fill="#C0BEFF"/>
<path d="M27.2613 38.6569L26.1454 39.511L22.1956 42.5877C24.704 47.5629 29.8453 51 35.8045 51C39.9205 51 43.3713 49.6418 45.8937 47.3136L40.9461 43.4747C39.5879 44.3893 37.8556 44.9437 35.8045 44.9437C31.8409 44.9437 28.4733 42.269 27.2675 38.6657L27.2613 38.6569Z" fill="#E3E2FF"/>
<path d="M22.1955 28.9229C21.1562 30.9739 20.5603 33.2883 20.5603 35.7552C20.5603 38.222 21.1562 40.5365 22.1955 42.5875C22.1955 42.6013 27.268 38.6516 27.268 38.6516C26.9631 37.7369 26.7829 36.7669 26.7829 35.755C26.7829 34.7432 26.9631 33.7731 27.268 32.8585L22.1955 28.9229Z" fill="#C0BEFF"/>
<path d="M35.8048 26.5807C38.05 26.5807 40.0457 27.3568 41.6394 28.8535L46.0049 24.488C43.3579 22.0212 39.921 20.5105 35.8048 20.5105C29.8456 20.5105 24.704 23.9336 22.1956 28.9228L27.2678 32.8588C28.4735 29.2554 31.8412 26.5807 35.8048 26.5807Z" fill="#E3E2FF"/>
<defs>
<linearGradient id="paint0_linear_675_3312" x1="36" y1="27" x2="36" y2="60" gradientUnits="userSpaceOnUse">
<stop offset="0.562874" stop-color="#90B0DF"/>
<stop offset="1" stop-color="#90B0DF" stop-opacity="0"/>
</linearGradient>
<linearGradient id="paint1_linear_675_3312" x1="36" y1="14" x2="36" y2="58" gradientUnits="userSpaceOnUse">
<stop stop-color="#6F4BFF"/>
<stop offset="1" stop-color="#4F23FF"/>
</linearGradient>
</defs>
</svg>
