<svg width="72" height="72" viewBox="0 0 72 72" fill="none" xmlns="http://www.w3.org/2000/svg">
<rect width="72" height="72" fill="url(#paint0_linear_1092_219)"/>
<path opacity="0.5" d="M14 27H58L61.4568 55.5187C61.7456 57.9012 59.8859 60 57.4859 60H14.5141C12.1141 60 10.2544 57.9012 10.5432 55.5187L14 27Z" fill="url(#paint1_linear_1092_219)"/>
<rect x="14" y="14" width="44" height="44" rx="4" fill="url(#paint2_linear_1092_219)"/>
<path fill-rule="evenodd" clip-rule="evenodd" d="M38.1394 34.9711H34.4072V46.6293H34.4071V47.8028C34.4071 48.9291 33.4941 49.8421 32.3679 49.8421H32.1314C31.6407 49.8421 31.1811 49.6022 30.9004 49.1996L30.0473 47.976L27.0005 49.842L27.4619 50.5627C28.7754 52.6144 31.2047 53.6609 33.598 53.2061L34.1026 53.1102C36.4446 52.6651 38.1393 50.6179 38.1393 48.234V46.8987H38.1394V34.9711Z" fill="white"/>
<path d="M51.9134 37.7798L49.0277 39.6074C47.5849 37.0488 44.8914 38.1645 44.8721 39.6074C44.8529 41.0503 46.1034 41.358 49.0277 42.6662C51.3671 43.7128 52.3879 45.2826 52.6058 45.9367C54.1141 50.4923 51.0411 52.4648 49.3161 52.8816C43.9294 54.2668 40.9924 51.1887 40.1973 49.4765L43.1599 47.7258C45.507 51.4388 49.3161 49.7458 49.3161 48.303C49.3161 46.8601 48.7967 46.61 45.0837 45.0133C42.1134 43.7359 41.3196 41.326 41.294 40.2807C41.2362 37.6451 42.4096 35.2403 46.1034 34.8363C49.4315 34.4723 51.3619 36.664 51.9134 37.7798Z" fill="white"/>
<defs>
<linearGradient id="paint0_linear_1092_219" x1="36" y1="0" x2="36" y2="72" gradientUnits="userSpaceOnUse">
<stop stop-color="#FFF4EA"/>
<stop offset="1" stop-color="#F5E9DD"/>
</linearGradient>
<linearGradient id="paint1_linear_1092_219" x1="36" y1="27" x2="36" y2="60" gradientUnits="userSpaceOnUse">
<stop offset="0.562874" stop-color="#DFBF90"/>
<stop offset="1" stop-color="#DFBF90" stop-opacity="0"/>
</linearGradient>
<linearGradient id="paint2_linear_1092_219" x1="36" y1="14" x2="36" y2="58" gradientUnits="userSpaceOnUse">
<stop stop-color="#FFB72D"/>
<stop offset="1" stop-color="#FF8A00"/>
</linearGradient>
</defs>
</svg>
