<svg width="72" height="72" viewBox="0 0 72 72" fill="none" xmlns="http://www.w3.org/2000/svg">
<path d="M48.4583 41.7609C49.4879 41.166 49.4879 39.6802 48.4583 39.0883L39.2135 33.7523C37.1851 32.5809 35.4989 30.8946 34.3275 28.8663L28.9914 19.6184C28.3965 18.5888 26.9107 18.5888 26.3188 19.6184L20.9828 28.8632C19.8113 30.8916 18.1251 32.5778 16.0968 33.7492L6.84886 39.0883C5.81926 39.6832 5.81926 41.1691 6.84886 41.7609L16.0937 47.097C18.1221 48.2684 19.8083 49.9546 20.9797 51.983L26.3157 61.2278C26.9107 62.2574 28.3965 62.2574 28.9884 61.2278L34.3244 51.983C35.4958 49.9546 37.182 48.2684 39.2104 47.097L48.4583 41.7609Z" fill="#3F3BFF"/>
<path d="M64.5021 23.499C65.0637 23.1745 65.0637 22.364 64.5021 22.0412L59.4594 19.1306C58.353 18.4917 57.4333 17.5719 56.7943 16.4655L53.8838 11.4212C53.5593 10.8596 52.7488 10.8596 52.426 11.4212L49.5154 16.4638C48.8764 17.5702 47.9567 18.49 46.8503 19.1289L41.806 22.0412C41.2444 22.3657 41.2444 23.1761 41.806 23.499L46.8486 26.4095C47.955 27.0485 48.8748 27.9682 49.5137 29.0746L52.4243 34.1173C52.7488 34.6789 53.5593 34.6789 53.8821 34.1173L56.7927 29.0746C57.4316 27.9682 58.3514 27.0485 59.4577 26.4095L64.5021 23.499Z" fill="#3F3BFF"/>
<rect x="54.6919" y="45.8416" width="11.4242" height="11.4242" transform="rotate(45 54.6919 45.8416)" fill="#3F3BFF"/>
</svg>
