<svg width="72" height="72" viewBox="0 0 72 72" fill="none" xmlns="http://www.w3.org/2000/svg">
<g clip-path="url(#clip0_2066_14)">
<rect width="72" height="72" fill="url(#paint0_linear_2066_14)"/>
<path fill-rule="evenodd" clip-rule="evenodd" d="M29.1851 8.46381C25.6794 8.46381 22.8374 11.3058 22.8374 14.8115C22.8374 15.9157 23.1193 16.954 23.6151 17.8585L18.3773 23.2314C17.5365 22.8202 16.5914 22.5895 15.5924 22.5895C12.0866 22.5895 9.24463 25.4314 9.24463 28.9372C9.24463 31.7189 11.0339 34.0827 13.5244 34.9405V51.1852C11.0339 52.0429 9.24463 54.4067 9.24463 57.1885C9.24463 60.6942 12.0866 63.5362 15.5924 63.5362C18.4705 63.5362 20.9012 61.6208 21.6793 58.9951H36.6905C37.4686 61.6208 39.8993 63.5362 42.7774 63.5362C46.2832 63.5362 49.1252 60.6942 49.1252 57.1885C49.1252 56.0764 48.8392 55.0312 48.3368 54.1222L53.5932 48.7727C54.4319 49.1813 55.374 49.4106 56.3697 49.4106C59.8755 49.4106 62.7174 46.5686 62.7174 43.0628C62.7174 40.281 60.9281 37.9172 58.4375 37.0595V20.8149C60.9281 19.9572 62.7174 17.5933 62.7174 14.8115C62.7174 11.3058 59.8755 8.46381 56.3697 8.46381C53.4604 8.46381 51.0082 10.421 50.258 13.0905L35.2968 13.0905C34.5466 10.421 32.0944 8.46381 29.1851 8.46381ZM54.4375 37.0145V20.8598C54.213 20.7882 53.994 20.7044 53.7811 20.6092L48.4331 26.052C48.8756 26.9176 49.1252 27.8983 49.1252 28.9372C49.1252 31.7442 47.3032 34.1256 44.7773 34.9635V51.1622C44.9896 51.2326 45.1969 51.3139 45.3985 51.4054L50.7302 45.9793C50.5784 45.6864 50.4487 45.3802 50.3435 45.0629H46.1502V41.0629L50.3435 41.0628C50.9802 39.1433 52.5085 37.6303 54.4375 37.0145ZM50.4434 17.0905L35.1115 17.0905C34.4325 18.8551 32.9881 20.2397 31.1851 20.8378V25.5525H27.1851V20.8378C26.9656 20.7649 26.7514 20.6805 26.5432 20.5851L21.2362 26.029C21.3997 26.3457 21.5374 26.6779 21.6463 27.0228H36.7235C37.5354 24.4527 39.9388 22.5895 42.7774 22.5895C43.7856 22.5895 44.7389 22.8245 45.5855 23.2428L50.8272 17.9082C50.6807 17.6465 50.5522 17.3734 50.4434 17.0905ZM36.8188 54.9951C37.4836 53.1898 38.9453 51.77 40.7773 51.1623V34.9634C38.909 34.3436 37.4258 32.8793 36.7803 31.0228H21.5895C20.9362 32.9017 19.4248 34.379 17.5244 34.9856V51.1401C17.7524 51.2129 17.9747 51.2981 18.1906 51.3951L23.5196 45.9287C23.0833 45.0678 22.8374 44.094 22.8374 43.0628C22.8374 40.2559 24.6593 37.8745 27.1851 37.0366V32.4861H31.1851V37.0366C33.0821 37.6658 34.5821 39.1658 35.2114 41.0629L39.4156 41.0629V45.0629H35.2114C34.3735 47.5886 31.9921 49.4106 29.1851 49.4106C28.1693 49.4106 27.2091 49.1719 26.3577 48.7477L21.1396 54.1004C21.2988 54.3858 21.4367 54.6848 21.551 54.9951H36.8188ZM32.2709 14.8115C32.2709 16.5052 30.898 17.8782 29.2043 17.8782C27.5107 17.8782 26.1377 16.5052 26.1377 14.8115C26.1377 13.1179 27.5107 11.7449 29.2043 11.7449C30.898 11.7449 32.2709 13.1179 32.2709 14.8115ZM15.612 32.0038C17.3057 32.0038 18.6786 30.6308 18.6786 28.9372C18.6786 27.2435 17.3057 25.8706 15.612 25.8706C13.9184 25.8706 12.5454 27.2435 12.5454 28.9372C12.5454 30.6308 13.9184 32.0038 15.612 32.0038ZM32.2709 43.0628C32.2709 44.7565 30.898 46.1295 29.2043 46.1295C27.5107 46.1295 26.1377 44.7565 26.1377 43.0628C26.1377 41.3692 27.5107 39.9962 29.2043 39.9962C30.898 39.9962 32.2709 41.3692 32.2709 43.0628ZM15.612 60.2551C17.3057 60.2551 18.6786 58.8821 18.6786 57.1885C18.6786 55.4948 17.3057 54.1219 15.612 54.1219C13.9184 54.1219 12.5454 55.4948 12.5454 57.1885C12.5454 58.8821 13.9184 60.2551 15.612 60.2551ZM59.4555 14.8115C59.4555 16.5052 58.0825 17.8782 56.3889 17.8782C54.6952 17.8782 53.3223 16.5052 53.3223 14.8115C53.3223 13.1179 54.6952 11.7449 56.3889 11.7449C58.0825 11.7449 59.4555 13.1179 59.4555 14.8115ZM42.7966 32.0038C44.4902 32.0038 45.8632 30.6308 45.8632 28.9372C45.8632 27.2435 44.4902 25.8706 42.7966 25.8706C41.103 25.8706 39.73 27.2435 39.73 28.9372C39.73 30.6308 41.103 32.0038 42.7966 32.0038ZM59.4555 43.0628C59.4555 44.7565 58.0825 46.1295 56.3889 46.1295C54.6952 46.1295 53.3223 44.7565 53.3223 43.0628C53.3223 41.3692 54.6952 39.9962 56.3889 39.9962C58.0825 39.9962 59.4555 41.3692 59.4555 43.0628ZM42.7966 60.2551C44.4902 60.2551 45.8632 58.8821 45.8632 57.1885C45.8632 55.4948 44.4902 54.1219 42.7966 54.1219C41.103 54.1219 39.73 55.4948 39.73 57.1885C39.73 58.8821 41.103 60.2551 42.7966 60.2551Z" fill="url(#paint1_linear_2066_14)"/>
<ellipse cx="29.2031" cy="14.8155" rx="3.06641" ry="3.06387" fill="white"/>
<ellipse cx="15.6113" cy="28.9318" rx="3.06641" ry="3.06387" fill="white"/>
<ellipse cx="29.2031" cy="43.048" rx="3.06641" ry="3.06387" fill="white"/>
<ellipse cx="15.6113" cy="57.1642" rx="3.06641" ry="3.06387" fill="white"/>
<ellipse cx="56.3872" cy="14.8155" rx="3.06641" ry="3.06387" fill="white"/>
<ellipse cx="42.7949" cy="28.9318" rx="3.06641" ry="3.06387" fill="white"/>
<ellipse cx="56.3872" cy="43.048" rx="3.06641" ry="3.06387" fill="white"/>
<ellipse cx="42.7949" cy="57.1642" rx="3.06641" ry="3.06387" fill="white"/>
<path fill-rule="evenodd" clip-rule="evenodd" d="M14.9691 59.2867C16.6627 59.2867 18.0355 57.9149 18.0355 56.2228C18.0355 55.7881 17.9449 55.3745 17.7815 54.9999C18.3353 55.5542 18.6776 56.3193 18.6776 57.1643C18.6776 58.8565 17.3048 60.2282 15.6112 60.2282C14.3528 60.2282 13.2714 59.4708 12.7988 58.3872C13.3539 58.9429 14.1213 59.2867 14.9691 59.2867Z" fill="#D4D1CB"/>
<path fill-rule="evenodd" clip-rule="evenodd" d="M28.5614 45.1705C30.255 45.1705 31.6278 43.7987 31.6278 42.1066C31.6278 41.6719 31.5372 41.2583 31.3738 40.8837C31.9275 41.438 32.2699 42.2031 32.2699 43.0481C32.2699 44.7402 30.897 46.112 29.2035 46.112C27.9451 46.112 26.8637 45.3545 26.3911 44.271C26.9462 44.8267 27.7136 45.1705 28.5614 45.1705Z" fill="#D4D1CB"/>
<path fill-rule="evenodd" clip-rule="evenodd" d="M42.1527 59.2867C43.8463 59.2867 45.2191 57.9149 45.2191 56.2228C45.2191 55.7881 45.1285 55.3745 44.9651 54.9999C45.5189 55.5542 45.8612 56.3193 45.8612 57.1643C45.8612 58.8565 44.4884 60.2282 42.7948 60.2282C41.5364 60.2282 40.455 59.4708 39.9824 58.3872C40.5375 58.9429 41.3049 59.2867 42.1527 59.2867Z" fill="#D4D1CB"/>
<path fill-rule="evenodd" clip-rule="evenodd" d="M55.745 45.1705C57.4385 45.1705 58.8114 43.7987 58.8114 42.1066C58.8114 41.6719 58.7208 41.2583 58.5574 40.8837C59.1111 41.438 59.4535 42.2031 59.4535 43.0481C59.4535 44.7402 58.0806 46.112 56.3871 46.112C55.1287 46.112 54.0473 45.3545 53.5747 44.271C54.1298 44.8267 54.8972 45.1705 55.745 45.1705Z" fill="#D4D1CB"/>
<path fill-rule="evenodd" clip-rule="evenodd" d="M14.9691 31.0542C16.6627 31.0542 18.0355 29.6824 18.0355 27.9903C18.0355 27.5556 17.9449 27.142 17.7815 26.7674C18.3353 27.3217 18.6776 28.0868 18.6776 28.9318C18.6776 30.624 17.3048 31.9957 15.6112 31.9957C14.3528 31.9957 13.2714 31.2383 12.7988 30.1548C13.3539 30.7104 14.1213 31.0542 14.9691 31.0542Z" fill="#D4D1CB"/>
<path fill-rule="evenodd" clip-rule="evenodd" d="M28.5614 16.9379C30.255 16.9379 31.6278 15.5662 31.6278 13.874C31.6278 13.4393 31.5372 13.0257 31.3738 12.6511C31.9275 13.2054 32.2699 13.9705 32.2699 14.8156C32.2699 16.5077 30.897 17.8794 29.2035 17.8794C27.9451 17.8794 26.8637 17.122 26.3911 16.0385C26.9462 16.5941 27.7136 16.9379 28.5614 16.9379Z" fill="#D4D1CB"/>
<path fill-rule="evenodd" clip-rule="evenodd" d="M42.1527 31.0542C43.8463 31.0542 45.2191 29.6824 45.2191 27.9903C45.2191 27.5556 45.1285 27.142 44.9651 26.7674C45.5189 27.3217 45.8612 28.0868 45.8612 28.9318C45.8612 30.624 44.4884 31.9957 42.7948 31.9957C41.5364 31.9957 40.455 31.2383 39.9824 30.1548C40.5375 30.7104 41.3049 31.0542 42.1527 31.0542Z" fill="#D4D1CB"/>
<path fill-rule="evenodd" clip-rule="evenodd" d="M55.745 16.9379C57.4385 16.9379 58.8114 15.5662 58.8114 13.874C58.8114 13.4393 58.7208 13.0257 58.5574 12.6511C59.1111 13.2054 59.4535 13.9705 59.4535 14.8156C59.4535 16.5077 58.0806 17.8794 56.3871 17.8794C55.1287 17.8794 54.0473 17.122 53.5747 16.0385C54.1298 16.5941 54.8972 16.9379 55.745 16.9379Z" fill="#D4D1CB"/>
</g>
<defs>
<linearGradient id="paint0_linear_2066_14" x1="36" y1="0" x2="36" y2="72" gradientUnits="userSpaceOnUse">
<stop stop-color="#FFF4EA"/>
<stop offset="1" stop-color="#F5E9DD"/>
</linearGradient>
<linearGradient id="paint1_linear_2066_14" x1="35.981" y1="8.46381" x2="35.981" y2="63.5362" gradientUnits="userSpaceOnUse">
<stop stop-color="#FFAA20"/>
<stop offset="1" stop-color="#FF7C03"/>
</linearGradient>
<clipPath id="clip0_2066_14">
<rect width="72" height="72" fill="white"/>
</clipPath>
</defs>
</svg>
