<svg width="72" height="72" viewBox="0 0 72 72" fill="none" xmlns="http://www.w3.org/2000/svg">
<g clip-path="url(#clip0_1862_115)">
<rect width="72" height="72" fill="url(#paint0_linear_1862_115)"/>
<rect x="11.2227" y="10.6245" width="25.1216" height="18.3433" fill="white"/>
<rect x="37.835" y="22.8955" width="21.4517" height="23.7185" fill="white"/>
<rect x="19.7183" y="47.5028" width="22.8257" height="10.2167" fill="white"/>
<path fill-rule="evenodd" clip-rule="evenodd" d="M15.6239 5.08457C11.8399 5.09348 8.77969 8.1682 8.7886 11.9521L8.82463 27.2524C8.83354 31.0363 11.9083 34.0966 15.6922 34.0877L30.9925 34.0516C34.7764 34.0427 37.8367 30.968 37.8277 27.1841L37.7917 11.8838C37.7828 8.09989 34.7081 5.03963 30.9241 5.04854L15.6239 5.08457ZM29.6871 23.5822C29.3691 23.583 29.0581 23.5535 28.7569 23.4964C28.1506 24.5825 26.9911 25.3181 25.6587 25.3212C25.1027 25.3226 24.5762 25.1962 24.107 24.9697C23.5133 26.4515 22.0655 27.4995 20.3712 27.5035C18.663 27.5076 17.2004 26.4491 16.6089 24.9508C16.3946 24.9877 16.1744 25.0072 15.9497 25.0078C13.7933 25.0128 12.0412 23.2689 12.0361 21.1126C12.0328 19.705 12.7747 18.4697 13.89 17.7801C13.6606 17.2496 13.5328 16.6648 13.5313 16.0501C13.5256 13.627 15.4854 11.658 17.9085 11.6523C19.333 11.6489 20.6006 12.3248 21.4046 13.3748C22.131 12.601 23.1624 12.1166 24.3075 12.1139C25.8029 12.1104 27.1082 12.9292 27.7955 14.1442C28.371 13.9052 29.002 13.7726 29.6639 13.771C32.3732 13.7647 34.5747 15.9558 34.5811 18.6651C34.5875 21.3744 32.3963 23.5758 29.6871 23.5822Z" fill="url(#paint1_linear_1862_115)"/>
<path fill-rule="evenodd" clip-rule="evenodd" d="M37.8147 21.6378C35.292 22.0474 33.3085 24.1317 33.0953 26.7555L32.5171 33.8705C34.8669 33.3582 36.7795 31.8293 37.8339 29.8064L37.8147 21.6378Z" fill="url(#paint2_linear_1862_115)"/>
<path fill-rule="evenodd" clip-rule="evenodd" d="M41.0072 20.5165C37.2232 20.5254 34.163 23.6001 34.1719 27.384L34.2079 42.6843C34.2168 46.4682 37.2916 49.5285 41.0755 49.5196L56.3758 49.4835C60.1597 49.4746 63.22 46.3999 63.211 42.616L63.175 27.3157C63.1661 23.5318 60.0914 20.4715 56.3074 20.4804L41.0072 20.5165ZM43.4819 26.6198C43.4824 26.8149 43.457 27.004 43.4089 27.1839L50.4519 32.289C50.9111 32.0704 51.4069 31.9134 51.9281 31.8293L51.922 29.2561C51.2982 28.9293 50.8719 28.2763 50.8701 27.5231C50.8676 26.4404 51.7432 25.5607 52.8259 25.5581C53.9085 25.5556 54.7883 26.4312 54.7908 27.5139C54.7927 28.3059 54.3246 28.9893 53.6493 29.3002L53.6553 31.8215C56.2263 32.2127 58.196 34.3746 58.2022 36.9877C58.209 39.8827 55.803 42.2354 52.8282 42.2424C51.6535 42.2451 50.5658 41.8817 49.6791 41.2627L47.5609 43.4082C47.6056 43.5584 47.6298 43.7175 47.6302 43.8822C47.6324 44.8052 46.8859 45.5552 45.963 45.5573C45.04 45.5595 44.29 44.8131 44.2879 43.8901C44.2857 42.9671 45.0321 42.2171 45.9551 42.215C46.0667 42.2147 46.1757 42.2254 46.2812 42.246L48.4404 40.0589C47.8065 39.2015 47.4322 38.1499 47.4295 37.013C47.4261 35.5847 48.01 34.2884 48.9598 33.3407L42.3298 28.535C42.0308 28.6929 41.6901 28.7826 41.3284 28.7835C40.1363 28.7863 39.1675 27.8221 39.1647 26.63C39.1619 25.4378 40.1261 24.4691 41.3182 24.4663C42.5104 24.4635 43.4791 25.4276 43.4819 26.6198ZM55.6114 36.9938C55.6147 38.3921 54.4328 39.6478 52.8221 39.6516C51.2113 39.6554 50.0236 38.4053 50.0203 37.0069C50.017 35.6086 51.1989 34.3529 52.8096 34.3491C54.4203 34.3453 55.6081 35.5954 55.6114 36.9938Z" fill="url(#paint3_linear_1862_115)"/>
<path fill-rule="evenodd" clip-rule="evenodd" d="M39.2597 36.9022H34.1831V42.703L39.6811 43.6754L40.7097 49.5039H47.2363L46.5904 45.4339C46.3967 45.513 46.1848 45.5568 45.9627 45.5573C45.0398 45.5595 44.2898 44.813 44.2876 43.8901C44.2854 42.9671 45.0319 42.2171 45.9548 42.215C45.9882 42.2149 46.0213 42.2158 46.0542 42.2176C45.2887 39.1207 42.5007 36.9022 39.2597 36.9022Z" fill="url(#paint4_linear_1862_115)"/>
<path fill-rule="evenodd" clip-rule="evenodd" d="M23.2157 37.3354C19.4317 37.3443 16.3715 40.419 16.3804 44.2029L16.4164 59.5032C16.4253 63.2871 19.5001 66.3474 23.284 66.3385L38.5843 66.3024C42.3682 66.2935 45.4284 63.2188 45.4195 59.4349L45.3835 44.1346C45.3746 40.3507 42.2999 37.2904 38.5159 37.2993L23.2157 37.3354ZM29.373 55.165C29.5229 55.2305 29.6786 55.2621 29.8322 55.2617C30.2653 55.2607 30.6798 55.0102 30.8684 54.5867L32.2837 51.3905C32.4765 50.9535 32.3703 50.4577 32.0541 50.1359L35.1217 49.7115C35.1436 49.7094 35.1656 49.7074 35.1875 49.7073C35.2913 49.7071 35.3912 49.7408 35.4771 49.8044C35.4876 49.8123 35.4973 49.821 35.5066 49.8294L35.518 49.8396C35.3248 50.0435 35.2063 50.319 35.207 50.6212L35.2152 54.1174C35.2153 54.1415 35.2161 54.1655 35.2177 54.1892L32.2672 54.5974C32.1416 54.6157 32.0158 54.582 31.9138 54.5044C31.8118 54.4268 31.7457 54.3153 31.7295 54.1876L31.567 53.0126L31.0628 54.1492L31.0811 54.2769C31.1217 54.5761 31.278 54.8432 31.5199 55.0242C31.7198 55.1754 31.9575 55.2547 32.2049 55.2541C32.2568 55.254 32.3087 55.2499 32.3606 55.2437L35.4606 54.818C35.669 55.0806 35.9912 55.2491 36.3514 55.2482L39.8476 55.24C40.4722 55.2385 40.9799 54.7285 40.9784 54.1038L40.9702 50.6076C40.9687 49.983 40.4587 49.4753 39.8341 49.4768L36.3378 49.485C36.2559 49.4852 36.1761 49.4942 36.0991 49.5109C36.0354 49.4244 35.9601 49.3476 35.871 49.2807C35.6291 49.0977 35.3316 49.0205 35.0324 49.0611L31.5652 49.5403C31.4296 49.5587 31.3006 49.6008 31.1832 49.6639L28.5092 48.4798C27.9378 48.2277 27.2659 48.4868 27.0138 49.0581L25.5985 52.2543C25.3464 52.8257 25.6054 53.4976 26.1768 53.7497L26.3759 53.8378C26.3052 53.9479 26.1902 54.0286 26.0518 54.0513L22.6007 54.6181C22.4751 54.6384 22.3473 54.6088 22.2433 54.5352C22.1394 54.4616 22.0713 54.35 22.051 54.2243L21.4841 50.7733C21.4639 50.6476 21.4935 50.5198 21.5671 50.4159C21.6407 50.312 21.7523 50.2438 21.878 50.2236L25.329 49.6567C25.3549 49.6526 25.3809 49.6506 25.4048 49.6505C25.6343 49.65 25.8402 49.8171 25.8787 50.0525L26.067 51.1936L26.5513 50.1008L26.525 49.9472C26.4238 49.3308 25.8401 48.9111 25.2237 49.0124L21.7727 49.5793C21.4754 49.6259 21.2124 49.7881 21.0374 50.034C20.8604 50.2799 20.7912 50.5794 20.8398 50.8786L21.4067 54.3296C21.4553 54.6288 21.6176 54.8899 21.8634 55.0669C22.0573 55.2081 22.287 55.2794 22.5245 55.2789C22.5843 55.2787 22.6462 55.2746 22.708 55.2645L26.159 54.6976C26.5235 54.6377 26.8192 54.4092 26.9791 54.1049L29.373 55.165ZM36.3498 54.5937C36.3305 54.5937 36.3113 54.5926 36.2925 54.5904C36.3969 54.5207 36.4898 54.4331 36.5671 54.3298C36.7501 54.0879 36.8272 53.7904 36.7866 53.4912L36.3238 50.1399L36.3394 50.1396L39.8356 50.1313C40.099 50.1307 40.315 50.3457 40.3157 50.6092L40.3239 54.1054C40.3245 54.3688 40.1095 54.5848 39.8461 54.5855L36.3498 54.5937ZM35.8639 50.6177C35.8635 50.447 35.9536 50.2962 36.0888 50.2115C35.9523 50.2964 35.8611 50.448 35.8615 50.6196L35.8697 54.0781C35.939 54.0458 35.9996 53.9967 36.0473 53.9339C36.1249 53.832 36.1585 53.7062 36.1403 53.5805L35.8662 51.6015L35.8639 50.6177ZM30.702 50.1672L28.2432 49.0791C28.0015 48.9719 27.7183 49.0824 27.6111 49.3221L26.2714 52.3476L26.2772 52.3365L26.7457 51.2818L27.0939 53.3963C27.0965 53.4119 27.0987 53.4276 27.1006 53.4433L29.637 54.5657C29.8787 54.6729 30.1619 54.5625 30.2691 54.3227L30.8905 52.9193L30.5983 50.8177C30.5677 50.5922 30.604 50.3677 30.702 50.1672ZM31.3034 50.4334C31.2534 50.5231 31.2338 50.6258 31.2487 50.7284L31.3945 51.7811L31.6844 51.1265C31.7916 50.8848 31.6811 50.6016 31.4414 50.4945L31.3034 50.4334ZM26.383 53.1209L26.2601 52.3732L26.1958 52.5184C26.0973 52.7405 26.1826 52.9975 26.383 53.1209Z" fill="url(#paint5_linear_1862_115)"/>
</g>
<defs>
<linearGradient id="paint0_linear_1862_115" x1="36" y1="0" x2="36" y2="72" gradientUnits="userSpaceOnUse">
<stop stop-color="#FFF4EA"/>
<stop offset="1" stop-color="#F5E9DD"/>
</linearGradient>
<linearGradient id="paint1_linear_1862_115" x1="23.274" y1="5.06656" x2="23.3423" y2="34.0697" gradientUnits="userSpaceOnUse">
<stop stop-color="#FFB72D"/>
<stop offset="1" stop-color="#FF8B01"/>
</linearGradient>
<linearGradient id="paint2_linear_1862_115" x1="35.1755" y1="21.6378" x2="35.1755" y2="33.8705" gradientUnits="userSpaceOnUse">
<stop stop-color="#FF8C02"/>
<stop offset="1" stop-color="#C66C00"/>
</linearGradient>
<linearGradient id="paint3_linear_1862_115" x1="48.6573" y1="20.4984" x2="48.7256" y2="49.5015" gradientUnits="userSpaceOnUse">
<stop stop-color="#FFB72D"/>
<stop offset="1" stop-color="#FF8B01"/>
</linearGradient>
<linearGradient id="paint4_linear_1862_115" x1="40.7097" y1="36.9022" x2="40.7097" y2="49.5039" gradientUnits="userSpaceOnUse">
<stop stop-color="#FF8C02"/>
<stop offset="1" stop-color="#C66C00"/>
</linearGradient>
<linearGradient id="paint5_linear_1862_115" x1="30.8658" y1="37.3173" x2="30.9341" y2="66.3205" gradientUnits="userSpaceOnUse">
<stop stop-color="#FFB72D"/>
<stop offset="1" stop-color="#FF8B01"/>
</linearGradient>
<clipPath id="clip0_1862_115">
<rect width="72" height="72" fill="white"/>
</clipPath>
</defs>
</svg>
