<svg width="44" height="44" viewBox="0 0 44 44" fill="none" xmlns="http://www.w3.org/2000/svg">
<path fill-rule="evenodd" clip-rule="evenodd" d="M37.5563 6.44365C28.9648 -2.14788 15.0352 -2.14788 6.44365 6.44365C-2.14788 15.0352 -2.14788 28.9648 6.44365 37.5563C15.0352 46.1479 28.9648 46.1479 37.5563 37.5563C46.1479 28.9648 46.1479 15.0352 37.5563 6.44365ZM24.3823 26.8935C24.3242 26.8876 24.2649 26.8801 24.2044 26.8708C23.0848 26.6992 21.6017 25.9358 19.6293 23.9747C17.6576 22.0142 16.8878 20.5378 16.7144 19.4202C16.6257 18.8487 16.6964 18.3872 16.8284 18.0371C16.893 17.8655 16.9692 17.729 17.0391 17.6258C17.074 17.5744 17.1072 17.5314 17.1364 17.4964C17.1511 17.4789 17.1648 17.4635 17.1772 17.4499L17.195 17.4311L17.2031 17.4228L17.207 17.4188L17.2088 17.417L17.5812 17.0468C18.1348 16.4963 18.2123 15.5825 17.6911 14.8863L16.0624 12.7106C15.408 11.8365 14.1883 11.767 13.5015 12.4499L11.4741 14.4658C11.048 14.8895 10.8429 15.3565 10.8683 15.8035C10.9715 17.6178 11.7998 21.7997 16.8003 26.7719C20.9603 30.9082 24.8682 31.8624 27.2418 31.9932C27.8615 32.0273 28.3766 32.0053 28.7643 31.9692C29.1469 31.9335 29.5275 31.7347 29.8825 31.3817L31.7173 29.5572C32.4633 28.8157 32.2987 27.4653 31.2424 26.891L28.7747 25.5496C28.0932 25.1791 27.2948 25.3013 26.7988 25.7945L26.2106 26.3795L26.2068 26.3831L26.1944 26.3951L26.1756 26.4127C26.162 26.4251 26.1464 26.4386 26.129 26.4532C26.0938 26.4823 26.0507 26.5151 25.9991 26.5497C25.8957 26.619 25.7591 26.6944 25.5875 26.7582C25.2747 26.8747 24.8727 26.943 24.3823 26.8935ZM20.4251 19.8363C20.2493 19.5704 20.1412 19.3632 20.0752 19.2122C21.683 17.4493 21.7502 14.8019 20.3329 12.9086L18.7041 10.733C16.9057 8.33074 13.3514 7.94542 11.1747 10.1098L9.14732 12.1257C8.25741 13.0105 7.48022 14.3467 7.57365 15.9908C7.72219 18.6042 8.88664 23.5568 14.4735 29.112C20.5342 35.1383 26.4068 35.5033 29.0708 35.2549C30.4141 35.1297 31.4712 34.4557 32.2094 33.7217L34.0439 31.8976C36.4377 29.5178 35.7137 25.5657 32.8184 23.9916L30.3507 22.6502C28.4399 21.6116 26.0437 21.8917 24.4718 23.4546L24.4121 23.514C24.0108 23.3435 23.2081 22.8795 21.9561 21.6345C21.1863 20.8692 20.7142 20.2734 20.4251 19.8363Z" fill="url(#paint0_linear_1542_209)"/>
<defs>
<linearGradient id="paint0_linear_1542_209" x1="43.9999" y1="-9.17912e-06" x2="-9.57251e-05" y2="44" gradientUnits="userSpaceOnUse">
<stop stop-color="#704CFF"/>
<stop offset="1" stop-color="#5125FF"/>
</linearGradient>
</defs>
</svg>
