<svg width="72" height="72" viewBox="0 0 72 72" fill="none" xmlns="http://www.w3.org/2000/svg">
<rect width="72" height="72" fill="url(#paint0_linear_1542_59)"/>
<path d="M14.5 32.1127L15.75 38.6127L19 45.1127L27.5 52.1127L36 56.1127L44.5 52.1127L51 47.1127L55.25 39.6127L57.5 32.1127L58.8551 36.9134C63.1325 52.0675 51.7462 67.1127 36 67.1127V67.1127C20.2537 67.1127 8.86741 52.0674 13.1449 36.9133L14.5 32.1127Z" fill="url(#paint1_linear_1542_59)"/>
<path fill-rule="evenodd" clip-rule="evenodd" d="M51.5563 20.5563C42.9648 11.9648 29.0352 11.9648 20.4437 20.5563C11.8521 29.1479 11.8521 43.0775 20.4437 51.669C29.0352 60.2606 42.9648 60.2606 51.5563 51.669C60.1479 43.0775 60.1479 29.1479 51.5563 20.5563ZM38.8607 41.0062C38.8027 41.0003 38.7434 40.9928 38.683 40.9835C37.5633 40.8119 36.0802 40.0485 34.1079 38.0874C32.1361 36.1269 31.3664 34.6505 31.193 33.5329C31.1043 32.9614 31.175 32.4999 31.3069 32.1498C31.3716 31.9782 31.4478 31.8417 31.5177 31.7385C31.5526 31.6871 31.5857 31.6441 31.615 31.6091C31.6297 31.5916 31.6434 31.5762 31.6558 31.5626L31.6736 31.5438L31.6817 31.5355L31.6855 31.5315L31.6874 31.5297L31.6893 31.5278L32.0597 31.1595C32.6134 30.609 32.6909 29.6952 32.1697 28.999L30.5409 26.8233C29.8865 25.9492 28.6669 25.8797 27.9801 26.5626L25.9527 28.5785C25.5266 29.0022 25.3215 29.4692 25.3469 29.9162C25.45 31.7305 26.2784 35.9124 31.2789 40.8846C35.4387 45.0208 39.3466 45.9751 41.7202 46.1059L43.5491 49.3676C40.8851 49.616 35.0128 49.251 28.9521 43.2247C23.3652 37.6695 22.2008 32.7169 22.0522 30.1035L22.0522 30.1035C21.9588 28.4594 22.736 27.1232 23.6259 26.2384L25.6533 24.2225L25.6533 24.2225C27.83 22.0581 31.3843 22.4434 33.1827 24.8457L34.8114 27.0213L34.8115 27.0213C36.2288 28.9146 36.1616 31.562 34.5538 33.325C34.6198 33.4759 34.7279 33.6831 34.9036 33.9489L36.1004 36.0834L38.8607 41.0062ZM38.8609 41.0062L36.1005 36.0833L34.9037 33.949C35.1927 34.3861 35.6649 34.9819 36.4346 35.7472C37.6867 36.9922 38.4894 37.4562 38.8907 37.6267L38.9504 37.5673L38.9507 37.567C40.5225 36.0042 42.9184 35.7243 44.8293 36.7629L44.8293 36.763L47.297 38.1043L47.2972 38.1044C50.1925 39.6785 50.9163 43.6305 48.5225 46.0103L46.688 47.8344L46.6878 47.8347C45.9495 48.5686 44.8927 49.2424 43.5493 49.3676L41.7204 46.1059C42.3401 46.14 42.8552 46.118 43.2429 46.0819C43.6255 46.0462 44.006 45.8474 44.3611 45.4944L46.1959 43.6699C46.9419 42.9284 46.7773 41.578 45.721 41.0037L43.2533 39.6623C42.5718 39.2918 41.7734 39.414 41.2774 39.9072L40.6892 40.4922L40.6873 40.494L40.6854 40.4958L40.6814 40.4997L40.673 40.5078L40.6542 40.5254C40.6406 40.5378 40.625 40.5513 40.6075 40.5659C40.5724 40.595 40.5293 40.6278 40.4777 40.6624C40.3743 40.7317 40.2377 40.8071 40.0661 40.8709C39.7533 40.9874 39.3513 41.0557 38.8609 41.0062ZM38.8609 41.0062C38.8608 41.0062 38.8608 41.0062 38.8607 41.0062L41.7202 46.1059C41.7203 46.1059 41.7203 46.1059 41.7204 46.1059L38.8609 41.0062ZM34.9037 33.949L34.5538 33.325L34.9036 33.9489C34.9037 33.949 34.9037 33.949 34.9037 33.949Z" fill="url(#paint2_linear_1542_59)"/>
<defs>
<linearGradient id="paint0_linear_1542_59" x1="36" y1="0" x2="36" y2="72" gradientUnits="userSpaceOnUse">
<stop stop-color="#6366F1"/>
<stop offset="1" stop-color="#3F33FF"/>
</linearGradient>
<linearGradient id="paint1_linear_1542_59" x1="35.9999" y1="26.0782" x2="35.9999" y2="65.9058" gradientUnits="userSpaceOnUse">
<stop offset="0.562874" stop-color="#4035FF"/>
<stop offset="1" stop-color="#3F34FF" stop-opacity="0"/>
</linearGradient>
<linearGradient id="paint2_linear_1542_59" x1="51.5564" y1="20.5564" x2="20.4437" y2="51.669" gradientUnits="userSpaceOnUse">
<stop stop-color="white"/>
<stop offset="1" stop-color="#E8E2FF"/>
</linearGradient>
</defs>
</svg>
