<svg width="72" height="72" viewBox="0 0 72 72" fill="none" xmlns="http://www.w3.org/2000/svg">
<rect width="72" height="72" fill="url(#paint0_linear_1092_220)"/>
<path opacity="0.5" d="M14 27H58L61.4568 55.5187C61.7456 57.9012 59.8859 60 57.4859 60H14.5141C12.1141 60 10.2544 57.9012 10.5432 55.5187L14 27Z" fill="url(#paint1_linear_1092_220)"/>
<rect x="14" y="14" width="44" height="44" rx="4" fill="url(#paint2_linear_1092_220)"/>
<path fill-rule="evenodd" clip-rule="evenodd" d="M42 27C42 25.3431 39.3137 24 36 24C32.6863 24 30 25.3431 30 27V29.4H36V30H30H27C25.3431 30 24 32.6863 24 36C24 39.3137 25.3431 42 27 42H29.4C29.4 40.4921 29.4938 39.338 29.7136 38.4585C29.9347 37.5742 30.2891 36.9445 30.8251 36.5157C31.3567 36.0905 32.0303 35.8926 32.828 35.7959C33.6194 35.7 34.5718 35.7 35.6834 35.7H35.6834H35.6835H35.7C36.9809 35.7 38.0123 35.6996 38.8502 35.608C39.6876 35.5165 40.2906 35.3373 40.7339 35.0089C41.1695 34.6863 41.487 34.1922 41.6957 33.393C41.9061 32.5869 42 31.4926 42 30V27ZM42.6 30C42.6 31.5074 42.5064 32.6631 42.2762 33.5445C42.0443 34.4328 41.668 35.0637 41.0911 35.4911C40.5219 35.9127 39.7936 36.1085 38.9154 36.2045C38.0413 36.3 36.9779 36.3 35.7156 36.3H35.7156H35.7C34.5687 36.3 33.6517 36.3005 32.9002 36.3916C32.151 36.4824 31.6058 36.6595 31.1999 36.9843C30.7984 37.3055 30.4965 37.8008 30.2957 38.604C30.0937 39.412 30 40.5079 30 42V45C30 46.6569 32.6863 48 36 48C39.3137 48 42 46.6569 42 45V42.6H36V42H42H45C46.6569 42 48 39.3137 48 36C48 32.6863 46.6569 30 45 30H42.6ZM33.8098 27C33.8098 27.6131 33.3129 28.11 32.6998 28.11C32.0868 28.11 31.5898 27.6131 31.5898 27C31.5898 26.387 32.0868 25.89 32.6998 25.89C33.3129 25.89 33.8098 26.387 33.8098 27ZM40.4098 45C40.4098 45.6131 39.9129 46.11 39.2998 46.11C38.6868 46.11 38.1898 45.6131 38.1898 45C38.1898 44.387 38.6868 43.89 39.2998 43.89C39.9129 43.89 40.4098 44.387 40.4098 45Z" fill="white"/>
<defs>
<linearGradient id="paint0_linear_1092_220" x1="36" y1="0" x2="36" y2="72" gradientUnits="userSpaceOnUse">
<stop stop-color="#EAF0FF"/>
<stop offset="1" stop-color="#C1D0F2"/>
</linearGradient>
<linearGradient id="paint1_linear_1092_220" x1="36" y1="27" x2="36" y2="60" gradientUnits="userSpaceOnUse">
<stop offset="0.562874" stop-color="#90B0DF"/>
<stop offset="1" stop-color="#90B0DF" stop-opacity="0"/>
</linearGradient>
<linearGradient id="paint2_linear_1092_220" x1="36" y1="14" x2="36" y2="58" gradientUnits="userSpaceOnUse">
<stop stop-color="#1D93FF"/>
<stop offset="1" stop-color="#0148FF"/>
</linearGradient>
</defs>
</svg>
