<svg width="310" height="310" viewBox="0 0 310 310" fill="none" xmlns="http://www.w3.org/2000/svg">
<rect width="310" height="310" fill="white"/>
<path d="M186.022 155L186.022 192.229L198.432 192.229L198.432 155L186.022 155Z" fill="#D4D4D4"/>
<path d="M173.612 155L173.612 217.048L186.022 217.048L186.022 155L173.612 155Z" fill="#D4D4D4"/>
<path d="M161.205 155L161.205 241.867L173.615 241.867L173.615 155L161.205 155Z" fill="#D4D4D4"/>
<path d="M123.974 142.591L123.974 254.277L161.204 254.277L161.204 142.591L123.974 142.591Z" fill="#D4D4D4"/>
<path d="M99.1563 130.181L99.1562 241.868L136.384 241.868L136.384 130.181L99.1563 130.181Z" fill="#D4D4D4"/>
<path d="M86.75 155L86.75 229.457L99.1567 229.457L99.1567 155L86.75 155Z" fill="#D4D4D4"/>
<path d="M74.3369 179.82L74.3369 229.457L86.7436 229.457L86.7437 179.82L74.3369 179.82Z" fill="#D4D4D4"/>
<path d="M61.9302 204.638L61.9302 217.049L74.3369 217.049L74.3369 204.638L61.9302 204.638Z" fill="#D4D4D4"/>
<path d="M61.9302 217.049L61.9302 229.459L74.3369 229.459L74.3369 217.049L61.9302 217.049Z" fill="#A3A3A3"/>
<path d="M74.3433 229.459L74.3433 241.87L99.1548 241.87L99.1548 229.459L74.3433 229.459Z" fill="#A3A3A3"/>
<path d="M123.983 130.183L123.983 142.593L136.389 142.593L136.389 130.183L123.983 130.183Z" fill="#A3A3A3"/>
<path d="M136.397 142.586L136.397 154.996L161.203 154.996L161.203 142.586L136.397 142.586Z" fill="#A3A3A3"/>
<path d="M161.196 154.996L161.196 167.407L186.001 167.407L186.001 154.996L161.196 154.996Z" fill="#A3A3A3"/>
<path d="M99.1548 241.87L99.1548 254.28L123.966 254.28L123.966 241.87L99.1548 241.87Z" fill="#A3A3A3"/>
<path d="M123.983 254.277L123.983 266.687L148.795 266.687L148.795 254.277L123.983 254.277Z" fill="#A3A3A3"/>
<path d="M148.804 266.686L148.804 279.097L161.216 279.097L161.216 266.686L148.804 266.686Z" fill="#A3A3A3"/>
<path d="M148.804 254.28L148.804 266.69L161.203 266.69L161.203 254.28L148.804 254.28Z" fill="#E5E5E5"/>
<path d="M161.216 254.28L161.216 279.097L173.615 279.097L173.615 254.28L161.216 254.28Z" fill="#737373"/>
<path d="M173.603 229.463L173.603 254.28L186.002 254.28L186.002 229.463L173.603 229.463Z" fill="#737373"/>
<path d="M186.034 204.638L186.034 229.455L198.434 229.455L198.434 204.638L186.034 204.638Z" fill="#737373"/>
<path d="M198.454 179.823L198.454 204.639L223.263 204.639L223.263 179.823L198.454 179.823Z" fill="#737373"/>
<path d="M210.859 154.999L210.859 179.816L235.668 179.816L235.668 154.999L210.859 154.999Z" fill="#737373"/>
<path d="M223.264 130.18L223.264 154.996L248.073 154.996L248.073 130.18L223.264 130.18Z" fill="#737373"/>
<path d="M223.264 80.542L223.264 92.9533L235.668 92.9533L235.668 80.542L223.264 80.542Z" fill="#525252"/>
<path d="M161.21 68.1307L161.21 80.542L173.615 80.542L173.615 68.1307L161.21 68.1307Z" fill="#525252"/>
<path d="M173.629 43.3146L173.629 55.726L186.034 55.726L186.034 43.3146L173.629 43.3146Z" fill="#525252"/>
<path d="M161.21 55.7194L161.21 68.1307L173.615 68.1307L173.615 55.7194L161.21 55.7194Z" fill="#737373"/>
<path d="M161.21 55.7194L161.21 68.1307L173.615 68.1307L173.615 55.7194L161.21 55.7194Z" fill="#737373"/>
<path d="M173.629 30.9033L173.629 43.3146L186.034 43.3146L186.034 30.9033L173.629 30.9033Z" fill="#737373"/>
<path d="M161.203 241.867L161.203 254.277L173.603 254.277L173.603 241.867L161.203 241.867Z" fill="#E5E5E5"/>
<path d="M173.603 217.047L173.603 229.457L186.002 229.457L186.002 217.047L173.603 217.047Z" fill="#E5E5E5"/>
<path d="M186.022 192.228L186.022 204.638L198.422 204.638L198.422 192.228L186.022 192.228Z" fill="#E5E5E5"/>
<path d="M198.422 167.408L198.422 179.818L210.821 179.818L210.821 167.408L198.422 167.408Z" fill="#E5E5E5"/>
<path d="M210.821 167.408L210.821 179.818L223.221 179.818L223.221 167.408L210.821 167.408Z" fill="#525252"/>
<path d="M223.269 142.593L223.269 155.003L235.668 155.003L235.668 142.593L223.269 142.593Z" fill="#525252"/>
<path d="M210.854 142.589L210.854 154.999L223.253 154.999L223.253 142.589L210.854 142.589Z" fill="#E5E5E5"/>
<path d="M49.5176 217.048L49.5176 229.458L61.9273 229.458L61.9273 217.048L49.5176 217.048Z" fill="#2B2C43"/>
<path d="M173.614 266.687L173.614 279.097L186.024 279.097L186.024 266.687L173.614 266.687Z" fill="#2B2C43"/>
<path d="M61.9272 229.458L61.9272 241.868L74.3369 241.868L74.3369 229.458L61.9272 229.458Z" fill="#2B2C43"/>
<path d="M74.3369 241.868L74.3369 254.277L86.7466 254.277L86.7466 241.868L74.3369 241.868Z" fill="#2B2C43"/>
<path d="M123.976 266.687L123.976 279.097L136.385 279.097L136.385 266.687L123.976 266.687Z" fill="#2B2C43"/>
<path d="M99.1563 254.277L99.1562 266.687L111.566 266.687L111.566 254.277L99.1563 254.277Z" fill="#2B2C43"/>
<path d="M148.795 279.097L148.795 291.506L161.205 291.506L161.205 279.097L148.795 279.097Z" fill="#2B2C43"/>
<path d="M86.7466 241.868L86.7466 254.277L99.1563 254.277L99.1563 241.868L86.7466 241.868Z" fill="#2B2C43"/>
<path d="M136.386 266.687L136.386 279.097L148.795 279.097L148.795 266.687L136.386 266.687Z" fill="#2B2C43"/>
<path d="M111.566 254.277L111.566 266.687L123.976 266.687L123.976 254.277L111.566 254.277Z" fill="#2B2C43"/>
<path d="M161.205 279.097L161.205 291.506L173.615 291.506L173.615 279.097L161.205 279.097Z" fill="#2B2C43"/>
<path d="M74.3369 167.41L74.3369 179.819L86.7466 179.819L86.7466 167.41L74.3369 167.41Z" fill="#2B2C43"/>
<path d="M198.434 217.048L198.434 229.458L210.843 229.458L210.843 217.048L198.434 217.048Z" fill="#2B2C43"/>
<path d="M61.9272 192.229L61.9272 204.639L74.3369 204.639L74.3369 192.229L61.9272 192.229Z" fill="#2B2C43"/>
<path d="M186.024 241.868L186.024 254.277L198.434 254.277L198.434 241.868L186.024 241.868Z" fill="#2B2C43"/>
<path d="M86.7466 142.59L86.7466 155L99.1563 155L99.1563 142.59L86.7466 142.59Z" fill="#2B2C43"/>
<path d="M210.844 204.639L210.844 217.048L223.253 217.048L223.253 204.639L210.844 204.639Z" fill="#2B2C43"/>
<path d="M99.1563 117.771L99.1562 130.181L111.566 130.181L111.566 117.771L99.1563 117.771Z" fill="#2B2C43"/>
<path d="M123.976 117.771L123.976 130.181L136.385 130.181L136.385 117.771L123.976 117.771Z" fill="#2B2C43"/>
<path d="M235.663 167.41L235.663 179.819L248.073 179.819L248.073 167.41L235.663 167.41Z" fill="#2B2C43"/>
<path d="M111.566 92.9517L111.566 105.361L123.976 105.361L123.976 92.9517L111.566 92.9517Z" fill="#2B2C43"/>
<path d="M248.072 142.59L248.072 155L260.482 155L260.482 142.59L248.072 142.59Z" fill="#2B2C43"/>
<path d="M49.5176 204.639L49.5176 217.048L61.9273 217.048L61.9273 204.639L49.5176 204.639Z" fill="#2B2C43"/>
<path d="M173.614 254.277L173.614 266.687L186.024 266.687L186.024 254.277L173.614 254.277Z" fill="#2B2C43"/>
<path d="M74.3369 155L74.3369 167.41L86.7466 167.41L86.7466 155L74.3369 155Z" fill="#2B2C43"/>
<path d="M148.793 204.639L148.793 217.049L161.203 217.049L161.203 204.639L148.793 204.639Z" fill="#2B2C43"/>
<path d="M136.386 229.457L136.386 241.867L148.795 241.867L148.795 229.457L136.386 229.457Z" fill="#2B2C43"/>
<path d="M123.976 192.23L123.976 204.639L136.385 204.639L136.385 192.23L123.976 192.23Z" fill="#2B2C43"/>
<path d="M111.568 217.048L111.568 229.458L123.978 229.458L123.978 217.048L111.568 217.048Z" fill="#2B2C43"/>
<path d="M99.1548 179.82L99.1548 192.23L111.564 192.23L111.564 179.82L99.1548 179.82Z" fill="#2B2C43"/>
<path d="M86.7471 204.638L86.7471 217.048L99.1567 217.048L99.1567 204.638L86.7471 204.638Z" fill="#2B2C43"/>
<path d="M161.203 179.818L161.203 192.228L173.613 192.228L173.613 179.818L161.203 179.818Z" fill="#2B2C43"/>
<path d="M136.386 167.409L136.386 179.818L148.795 179.818L148.795 167.409L136.386 167.409Z" fill="#2B2C43"/>
<path d="M111.566 155L111.566 167.41L123.976 167.41L123.976 155L111.566 155Z" fill="#2B2C43"/>
<path d="M198.434 204.639L198.434 217.048L210.843 217.048L210.843 204.639L198.434 204.639Z" fill="#2B2C43"/>
<path d="M61.9272 179.819L61.9272 192.229L74.3369 192.229L74.3369 179.819L61.9272 179.819Z" fill="#2B2C43"/>
<path d="M186.024 229.458L186.024 241.868L198.434 241.868L198.434 229.458L186.024 229.458Z" fill="#2B2C43"/>
<path d="M86.7466 130.181L86.7466 142.59L99.1563 142.59L99.1563 130.181L86.7466 130.181Z" fill="#2B2C43"/>
<path d="M223.253 179.819L223.253 204.639L235.663 204.639L235.663 179.819L223.253 179.819Z" fill="#2B2C43"/>
<path d="M99.1563 105.361L99.1562 117.771L111.566 117.771L111.566 105.361L99.1563 105.361Z" fill="#2B2C43"/>
<path d="M123.976 105.361L123.976 117.771L136.385 117.771L136.385 105.361L123.976 105.361Z" fill="#2B2C43"/>
<path d="M235.663 155L235.663 167.41L248.073 167.41L248.073 155L235.663 155Z" fill="#2B2C43"/>
<path d="M111.566 80.542L111.566 92.9517L123.976 92.9517L123.976 80.542L111.566 80.542Z" fill="#2B2C43"/>
<path d="M248.072 130.181L248.072 142.59L260.482 142.59L260.482 130.181L248.072 130.181Z" fill="#2B2C43"/>
<path d="M235.663 105.361L235.663 130.181L248.073 130.181L248.073 105.361L235.663 105.361Z" fill="#2B2C43"/>
<path d="M223.253 92.9517L223.253 105.361L235.663 105.361L235.663 92.9517L223.253 92.9517Z" fill="#2B2C43"/>
<path d="M210.844 92.9517L210.844 105.361L223.253 105.361L223.253 92.9517L210.844 92.9517Z" fill="#2B2C43"/>
<path d="M210.844 80.542L210.844 92.9517L223.253 92.9517L223.253 80.542L210.844 80.542Z" fill="#2B2C43"/>
<path d="M223.253 68.1323L223.253 80.542L235.663 80.542L235.663 68.1323L223.253 68.1323Z" fill="#2B2C43"/>
<path d="M235.663 80.542L235.663 105.361L248.073 105.361L248.073 80.542L235.663 80.542Z" fill="#2B2C43"/>
<path d="M186.024 80.542L186.024 92.9517L198.434 92.9517L198.434 80.542L186.024 80.542Z" fill="#2B2C43"/>
<path d="M198.434 92.9517L198.434 105.361L210.843 105.361L210.843 92.9517L198.434 92.9517Z" fill="#2B2C43"/>
<path d="M173.614 80.542L173.614 92.9517L186.024 92.9517L186.024 80.542L173.614 80.542Z" fill="#2B2C43"/>
<path d="M173.615 68.1323L173.615 80.542L186.025 80.542L186.025 68.1323L173.615 68.1323Z" fill="#2B2C43"/>
<path d="M161.205 43.313L161.205 55.7227L173.615 55.7227L173.615 43.313L161.205 43.313Z" fill="#2B2C43"/>
<path d="M161.205 30.9033L161.205 43.313L173.615 43.313L173.615 30.9033L161.205 30.9033Z" fill="#2B2C43"/>
<path d="M173.614 18.4937L173.614 30.9033L186.024 30.9033L186.024 18.4937L173.614 18.4937Z" fill="#2B2C43"/>
<path d="M148.795 55.7227L148.795 68.1323L161.205 68.1323L161.205 55.7227L148.795 55.7227Z" fill="#2B2C43"/>
<path d="M161.205 80.542L161.205 92.9517L173.615 92.9517L173.615 80.542L161.205 80.542Z" fill="#2B2C43"/>
<path d="M148.795 68.1323L148.795 80.542L161.205 80.542L161.205 68.1323L148.795 68.1323Z" fill="#2B2C43"/>
<path d="M161.204 105.361L161.204 117.771L173.614 117.771L173.614 105.361L161.204 105.361Z" fill="#2B2C43"/>
<path d="M161.204 142.59L161.204 155L173.614 155L173.614 142.59L161.204 142.59Z" fill="#2B2C43"/>
<path d="M161.204 130.178L161.204 142.588L173.614 142.588L173.614 130.178L161.204 130.178Z" fill="#34C36C"/>
<path d="M161.204 130.178L161.204 142.588L173.614 142.588L173.614 130.178L161.204 130.178Z" fill="#34C36C"/>
<path d="M161.204 117.769L161.204 130.178L173.614 130.178L173.614 117.769L161.204 117.769Z" fill="#ACF3BA"/>
<path d="M173.615 105.361L173.615 117.771L186.025 117.771L186.025 105.361L173.615 105.361Z" fill="#2B2C43"/>
<path d="M173.615 142.59L173.615 155L186.025 155L186.025 142.59L173.615 142.59Z" fill="#2B2C43"/>
<path d="M173.615 130.178L173.615 142.588L186.025 142.588L186.025 130.178L173.615 130.178Z" fill="#34C36C"/>
<path d="M173.615 130.178L173.615 142.588L186.025 142.588L186.025 130.178L173.615 130.178Z" fill="#34C36C"/>
<path d="M173.615 117.769L173.615 130.178L186.025 130.178L186.025 117.769L173.615 117.769Z" fill="#ACF3BA"/>
<path d="M186.024 105.361L186.024 117.771L198.434 117.771L198.434 105.361L186.024 105.361Z" fill="#2B2C43"/>
<path d="M186.024 142.59L186.024 155L198.434 155L198.434 142.59L186.024 142.59Z" fill="#2B2C43"/>
<path d="M186.024 130.178L186.024 142.588L198.434 142.588L198.434 130.178L186.024 130.178Z" fill="#34C36C"/>
<path d="M186.024 130.178L186.024 142.588L198.434 142.588L198.434 130.178L186.024 130.178Z" fill="#34C36C"/>
<path d="M186.024 117.769L186.024 130.178L198.434 130.178L198.434 117.769L186.024 117.769Z" fill="#34C36C"/>
<path d="M198.434 117.771L198.434 142.59L210.843 142.59L210.843 117.771L198.434 117.771Z" fill="#2B2C43"/>
<path d="M136.385 68.1323L136.385 80.542L148.794 80.542L148.794 68.1323L136.385 68.1323Z" fill="#2B2C43"/>
<path d="M148.794 92.9517L148.794 105.361L161.204 105.361L161.204 92.9517L148.794 92.9517Z" fill="#2B2C43"/>
<path d="M148.794 80.542L148.794 92.9517L161.204 92.9517L161.204 80.542L148.794 80.542Z" fill="#D4D4D4"/>
<path d="M173.613 92.9517L173.613 105.361L186.023 105.361L186.023 92.9517L173.613 92.9517Z" fill="#D4D4D4"/>
<path d="M210.842 105.362L210.842 117.771L223.251 117.771L223.251 105.362L210.842 105.362Z" fill="#D4D4D4"/>
<path d="M186.022 92.9517L186.022 105.361L198.432 105.361L198.432 92.9517L186.022 92.9517Z" fill="#D4D4D4"/>
<path d="M223.251 105.362L223.251 117.771L235.661 117.771L235.661 105.362L223.251 105.362Z" fill="#D4D4D4"/>
<path d="M210.844 117.771L210.844 142.59L223.253 142.59L223.253 117.771L210.844 117.771Z" fill="#D4D4D4"/>
<path d="M198.432 142.59L198.432 167.409L210.841 167.409L210.841 142.59L198.432 142.59Z" fill="#D4D4D4"/>
<path d="M148.794 130.181L148.794 142.591L161.204 142.591L161.204 130.181L148.794 130.181Z" fill="#2B2C43"/>
<path d="M148.794 117.769L148.794 130.179L161.204 130.179L161.204 117.769L148.794 117.769Z" fill="#34C36C"/>
<path d="M148.794 117.769L148.794 130.179L161.204 130.179L161.204 117.769L148.794 117.769Z" fill="#34C36C"/>
<path d="M148.794 105.36L148.794 117.769L161.204 117.769L161.204 105.36L148.794 105.36Z" fill="#ACF3BA"/>
<path d="M173.614 55.7227L173.614 68.1323L186.024 68.1323L186.024 55.7227L173.614 55.7227Z" fill="#2B2C43"/>
<path d="M186.024 43.313L186.024 55.7227L198.434 55.7227L198.434 43.313L186.024 43.313Z" fill="#2B2C43"/>
<path d="M186.024 30.9033L186.024 43.313L198.434 43.313L198.434 30.9033L186.024 30.9033Z" fill="#2B2C43"/>
<path d="M123.975 68.1323L123.975 80.542L136.385 80.542L136.385 68.1323L123.975 68.1323Z" fill="#2B2C43"/>
<path d="M136.385 92.9517L136.385 105.361L148.794 105.361L148.794 92.9517L136.385 92.9517Z" fill="#2B2C43"/>
<path d="M136.385 80.542L136.385 92.9517L148.794 92.9517L148.794 80.542L136.385 80.542Z" fill="#D4D4D4"/>
<path d="M161.204 92.9517L161.204 105.361L173.614 105.361L173.614 92.9517L161.204 92.9517Z" fill="#D4D4D4"/>
<path d="M198.433 105.362L198.433 117.771L210.842 117.771L210.842 105.362L198.433 105.362Z" fill="#D4D4D4"/>
<path d="M123.974 80.542L123.974 105.361L136.384 105.361L136.384 80.542L123.974 80.542Z" fill="#D4D4D4"/>
<path d="M111.564 105.361L111.564 130.18L123.974 130.18L123.974 105.361L111.564 105.361Z" fill="#D4D4D4"/>
<path d="M136.385 130.181L136.385 142.591L148.794 142.591L148.794 130.181L136.385 130.181Z" fill="#2B2C43"/>
<path d="M136.385 117.769L136.385 130.179L148.794 130.179L148.794 117.769L136.385 117.769Z" fill="#34C36C"/>
<path d="M136.385 117.769L136.385 130.179L148.794 130.179L148.794 117.769L136.385 117.769Z" fill="#34C36C"/>
<path d="M136.385 105.36L136.385 117.769L148.794 117.769L148.794 105.36L136.385 105.36Z" fill="#ACF3BA"/>
<path d="M223.264 105.362L223.264 130.182L235.663 130.182L235.663 105.362L223.264 105.362Z" fill="#E5E5E5"/>
</svg>
