<svg width="72" height="72" viewBox="0 0 72 72" fill="none" xmlns="http://www.w3.org/2000/svg">
<rect width="72" height="72" fill="url(#paint0_linear_688_364)"/>
<path opacity="0.5" d="M14 27H58L61.4568 55.5187C61.7456 57.9012 59.8859 60 57.4859 60H14.5141C12.1141 60 10.2544 57.9012 10.5432 55.5187L14 27Z" fill="url(#paint1_linear_688_364)"/>
<rect x="14" y="14" width="44" height="44" rx="4" fill="url(#paint2_linear_688_364)"/>
<path d="M26.3307 47.3178C25.4818 47.3178 24.789 47.024 24.2521 46.4363C23.7225 45.8414 23.5012 45.1196 23.5883 44.2707C23.6753 43.4437 24.049 42.7363 24.7092 42.1486C25.3766 41.561 26.1348 41.2671 26.9836 41.2671C27.7889 41.2671 28.46 41.561 28.9969 42.1486C29.541 42.7363 29.7695 43.4437 29.6825 44.2707C29.6244 44.8366 29.4249 45.3517 29.0839 45.816C28.7502 46.2731 28.3367 46.6395 27.8433 46.9152C27.3572 47.1836 26.853 47.3178 26.3307 47.3178Z" fill="white"/>
<path d="M38.641 37.2189L39.6422 33.3882L36.0727 35.6082L34.8538 32.5611L38.5974 30.9505L35.3762 29.3399L37.6398 26.2928L40.4257 28.5128L40.7304 24.6822H44.2128L43.2116 28.5128L46.7811 26.2928L47.9999 29.3399L44.2563 30.9505L47.4776 32.5611L45.214 35.6082L42.4281 33.3882L42.1234 37.2189H38.641Z" fill="white"/>
<defs>
<linearGradient id="paint0_linear_688_364" x1="36" y1="0" x2="36" y2="72" gradientUnits="userSpaceOnUse">
<stop stop-color="#EAF0FF"/>
<stop offset="1" stop-color="#C1D0F2"/>
</linearGradient>
<linearGradient id="paint1_linear_688_364" x1="36" y1="27" x2="36" y2="60" gradientUnits="userSpaceOnUse">
<stop offset="0.562874" stop-color="#90A6DF"/>
<stop offset="1" stop-color="#90A6DF" stop-opacity="0"/>
</linearGradient>
<linearGradient id="paint2_linear_688_364" x1="36" y1="14" x2="36" y2="58" gradientUnits="userSpaceOnUse">
<stop stop-color="#1D93FF"/>
<stop offset="1" stop-color="#0148FF"/>
</linearGradient>
</defs>
</svg>
