<svg width="72" height="72" viewBox="0 0 72 72" fill="none" xmlns="http://www.w3.org/2000/svg">
<rect width="72" height="72" fill="url(#paint0_linear_688_402)"/>
<path opacity="0.5" fill-rule="evenodd" clip-rule="evenodd" d="M27.9293 36.1037C27.8268 36.2123 27.7198 36.318 27.6081 36.4205C27.4962 36.5231 27.3816 36.6208 27.2644 36.7136L35.0014 45.1456C35.1039 45.0369 35.211 44.9311 35.3228 44.8285C35.4346 44.726 35.5492 44.6284 35.6662 44.5357L27.9293 36.1037ZM37.9122 47.6701C37.9153 47.6672 37.9184 47.6643 37.9215 47.6614C38.1046 47.4928 38.1174 47.2063 37.9488 47.0233L37.4173 46.444C37.2958 46.5304 37.1784 46.6252 37.0658 46.7285C36.9533 46.8317 36.8488 46.9404 36.7524 47.0539L37.2843 47.6336C37.4498 47.8132 37.7288 47.8289 37.9122 47.6701ZM39.6639 49.5604C40.7145 48.5959 40.9288 47.0561 40.266 45.8605C40.9726 46.0117 41.6405 46.3756 42.165 46.9476L50.4058 55.9286C51.7516 57.3948 51.6535 59.6829 50.1867 61.0277C48.7204 62.3735 46.4323 62.2755 45.0875 60.8086L36.8467 51.8277C36.3221 51.2562 36.0169 50.5597 35.9266 49.843C37.0613 50.6055 38.6134 50.5249 39.6639 49.5604ZM38.0905 43.3657L29.3032 33.789C29.9735 31.733 29.5472 29.3826 27.9842 27.6784L19.7434 18.6975C17.4364 16.1836 13.5157 16.0153 11.0013 18.3213C8.48743 20.6283 8.31909 24.549 10.6251 27.0634L18.8659 36.0444C20.4291 37.7477 22.7333 38.3742 24.8388 37.8837L33.6272 47.4616C32.9576 49.5172 33.384 51.8668 34.9467 53.5707L43.1875 62.5516C45.4945 65.0654 49.4152 65.2338 51.9296 62.9277C54.4435 60.6207 54.6118 56.7 52.3058 54.1856L44.065 45.2047C42.5013 43.5009 40.1965 42.8745 38.0905 43.3657ZM26.1783 34.1954C26.0819 34.3088 25.9775 34.4174 25.8651 34.5205C25.7524 34.6239 25.6348 34.7187 25.5132 34.805L24.8168 34.0461C24.6482 33.863 24.661 33.5765 24.844 33.4079C24.8689 33.385 24.8957 33.3654 24.9239 33.3492C25.1027 33.2466 25.3358 33.2779 25.4812 33.4358L26.1783 34.1954ZM23.0976 31.5123C22.0012 32.5216 21.8185 34.1585 22.5962 35.3729C21.915 35.2133 21.2734 34.8549 20.7659 34.3014L12.5251 25.3205C11.1793 23.8542 11.2774 21.5661 12.7442 20.2213C14.2105 18.8755 16.4986 18.9736 17.8434 20.4404L26.0842 29.4213C26.5927 29.9754 26.8951 30.6467 26.9954 31.3402C25.9937 30.569 24.6052 30.5038 23.5369 31.1761C23.3843 31.2721 23.2382 31.3832 23.1007 31.5095C23.0997 31.5104 23.0986 31.5113 23.0976 31.5123Z" fill="url(#paint1_radial_688_402)"/>
<path d="M43.6575 45.4559C44.8881 44.3261 44.9712 42.407 43.8414 41.1763L31.3738 27.5888C30.244 26.3582 28.3249 26.2751 27.0942 27.4049C25.8636 28.5347 25.7805 30.4538 26.9103 31.6845L39.3779 45.272C40.5077 46.5026 42.4268 46.5857 43.6575 45.4559ZM28.8376 29.3034C29.0207 29.1348 29.3072 29.1476 29.4758 29.3306L41.9433 42.9182C42.1119 43.1012 42.0991 43.3877 41.916 43.5563C41.733 43.7249 41.4465 43.7121 41.2779 43.529L28.8103 29.9415C28.6417 29.7585 28.6545 29.472 28.8376 29.3034Z" fill="#FF8A00"/>
<path d="M31.6015 32.316C34.1153 30.009 34.2837 26.0883 31.9777 23.5738L23.7368 14.5929C21.4298 12.0791 17.5091 11.9108 14.9947 14.2168C12.4809 16.5238 12.3125 20.4445 14.6186 22.9589L22.8594 31.9398C25.1664 34.4537 29.0871 34.622 31.6015 32.316ZM16.7377 16.1168C18.2039 14.771 20.492 14.869 21.8368 16.3359L30.0777 25.3168C31.4234 26.7831 31.3254 29.0712 29.8585 30.416C28.3917 31.7608 26.1042 31.6637 24.7594 30.1969L16.5186 21.216C15.1728 19.7497 15.2708 17.4616 16.7377 16.1168Z" fill="url(#paint2_linear_688_402)"/>
<path d="M55.923 58.8232C58.4369 56.5162 58.6052 52.5955 56.2992 50.081L48.0584 41.1001C45.7514 38.5863 41.8307 38.418 39.3162 40.724C36.8024 43.031 36.6341 46.9517 38.9401 49.4661L47.1809 58.447C49.4879 60.9609 53.4086 61.1292 55.923 58.8232ZM41.0592 42.624C42.5255 41.2782 44.8136 41.3762 46.1584 42.8431L54.3992 51.824C55.745 53.2903 55.6469 55.5784 54.1801 56.9232C52.7138 58.269 50.4257 58.1709 49.0809 56.7041L40.8401 47.7232C39.4943 46.2569 39.5924 43.9688 41.0592 42.624Z" fill="url(#paint3_linear_688_402)"/>
<path d="M43.6575 45.4559C44.8881 44.3261 44.9712 42.407 43.8414 41.1763L31.3738 27.5888C30.244 26.3582 28.3249 26.2751 27.0942 27.4049C26.57 27.8858 26.535 28.7013 27.0159 29.2256C27.4968 29.7499 28.3123 29.7848 28.8366 29.3039C29.0197 29.1353 29.3062 29.1481 29.4748 29.3312L41.9423 42.9187C42.1109 43.1018 42.0981 43.3883 41.9151 43.5569C41.3908 44.0378 41.3559 44.8533 41.8367 45.3776C42.3176 45.9019 43.1332 45.9368 43.6575 45.4559Z" fill="#FFB72D"/>
<defs>
<linearGradient id="paint0_linear_688_402" x1="36" y1="0" x2="36" y2="72" gradientUnits="userSpaceOnUse">
<stop stop-color="#FFF4EA"/>
<stop offset="1" stop-color="#F5E9DD"/>
</linearGradient>
<radialGradient id="paint1_radial_688_402" cx="0" cy="0" r="1" gradientUnits="userSpaceOnUse" gradientTransform="translate(31.4654 40.6245) rotate(77.2523) scale(26.0143 24.4238)">
<stop stop-color="#DFBF90"/>
<stop offset="0.939152" stop-color="#DFBF90" stop-opacity="0"/>
</radialGradient>
<linearGradient id="paint2_linear_688_402" x1="17.2296" y1="12.7555" x2="29.3666" y2="33.7773" gradientUnits="userSpaceOnUse">
<stop stop-color="#FFB72D"/>
<stop offset="1" stop-color="#FF8A00"/>
</linearGradient>
<linearGradient id="paint3_linear_688_402" x1="41.5512" y1="39.2627" x2="53.6881" y2="60.2845" gradientUnits="userSpaceOnUse">
<stop stop-color="#FFB72D"/>
<stop offset="1" stop-color="#FF8A00"/>
</linearGradient>
</defs>
</svg>
