<svg width="45" height="45" viewBox="0 0 45 45" fill="none" xmlns="http://www.w3.org/2000/svg">
<circle cx="22" cy="23" r="19" fill="white"/>
<path fill-rule="evenodd" clip-rule="evenodd" d="M37.6691 6.55635C29.0776 -2.03518 15.148 -2.03518 6.55644 6.55635C-2.03509 15.1479 -2.03509 29.0775 6.55644 37.6691C15.148 46.2606 29.0776 46.2606 37.6691 37.6691C46.2607 29.0775 46.2607 15.1479 37.6691 6.55635ZM18.9697 7.26807C18.8069 7.26807 18.675 7.40001 18.675 7.56276V9.86496C18.675 10.0277 18.8069 10.1596 18.9697 10.1596H20.6995V11.3859C14.6838 12.0342 10 17.1283 10 23.3163C10 29.9437 15.3726 35.3163 22 35.3163C28.6274 35.3163 34 29.9437 34 23.3163C34 20.5889 33.0901 18.074 31.5573 16.0586L32.8214 14.7944C33.0516 14.5643 33.0516 14.1911 32.8214 13.9609L31.4058 12.5453C31.1757 12.3151 30.8025 12.3151 30.5723 12.5453L29.3149 13.8028C27.6867 12.549 25.7276 11.7038 23.591 11.4208V10.1596H25.0309C25.1937 10.1596 25.3256 10.0277 25.3256 9.86496V7.56276C25.3256 7.40001 25.1937 7.26807 25.0309 7.26807H18.9697ZM22.0002 23.3163V14.497C26.8709 14.4971 30.8193 18.4456 30.8193 23.3163L22.0002 23.3163Z" fill="url(#paint0_linear_1252_1007)"/>
<defs>
<linearGradient id="paint0_linear_1252_1007" x1="37.6691" y1="6.55635" x2="6.55644" y2="37.669" gradientUnits="userSpaceOnUse">
<stop stop-color="#6366F2"/>
<stop offset="1" stop-color="#4137FF"/>
</linearGradient>
</defs>
</svg>
