<svg width="72" height="72" viewBox="0 0 72 72" fill="none" xmlns="http://www.w3.org/2000/svg">
<rect width="72" height="72" fill="url(#paint0_linear_1244_457)"/>
<path d="M14.5 32.1127L15.75 38.6127L19 45.1127L27.5 52.1127L36 56.1127L44.5 52.1127L51 47.1127L55.25 39.6127L57.5 32.1127L58.8551 36.9134C63.1325 52.0675 51.7462 67.1127 36 67.1127V67.1127C20.2537 67.1127 8.86741 52.0674 13.1449 36.9133L14.5 32.1127Z" fill="url(#paint1_linear_1244_457)"/>
<path fill-rule="evenodd" clip-rule="evenodd" d="M51.5564 20.5563C42.9648 11.9648 29.0352 11.9648 20.4437 20.5563C11.8521 29.1479 11.8521 43.0775 20.4437 51.669C29.0352 60.2606 42.9648 60.2606 51.5564 51.669C60.1479 43.0775 60.1479 29.1479 51.5564 20.5563ZM32.813 20C32.6502 20 32.5183 20.1319 32.5183 20.2947V22.6522C32.5183 22.8149 32.6502 22.9468 32.813 22.9468H34.581V24.1966C28.4507 24.8577 23.6777 30.0489 23.6777 36.355C23.6777 43.1091 29.153 48.5843 35.9071 48.5843C42.6612 48.5843 48.1365 43.1091 48.1365 36.355C48.1365 33.5754 47.2092 31.0125 45.6471 28.9586L46.9434 27.6622C47.1736 27.4321 47.1736 27.0589 46.9434 26.8288L45.4848 25.3701C45.2546 25.14 44.8815 25.14 44.6513 25.3701L43.3618 26.6596C41.7023 25.3817 39.7055 24.5204 37.5279 24.232V22.9468H39.0013C39.1641 22.9468 39.296 22.8149 39.296 22.6522V20.2947C39.296 20.1319 39.1641 20 39.0013 20H32.813ZM35.9073 36.3549V27.3671C40.8711 27.3672 44.895 31.3912 44.895 36.3549H35.9073Z" fill="url(#paint2_linear_1244_457)"/>
<defs>
<linearGradient id="paint0_linear_1244_457" x1="36" y1="0" x2="36" y2="72" gradientUnits="userSpaceOnUse">
<stop stop-color="#6366F1"/>
<stop offset="1" stop-color="#3F33FF"/>
</linearGradient>
<linearGradient id="paint1_linear_1244_457" x1="35.9999" y1="26.0782" x2="35.9999" y2="65.9058" gradientUnits="userSpaceOnUse">
<stop offset="0.562874" stop-color="#4035FF"/>
<stop offset="1" stop-color="#3F34FF" stop-opacity="0"/>
</linearGradient>
<linearGradient id="paint2_linear_1244_457" x1="67.1127" y1="5" x2="4.8873" y2="67.2254" gradientUnits="userSpaceOnUse">
<stop stop-color="white"/>
<stop offset="1" stop-color="#E8E2FF"/>
</linearGradient>
</defs>
</svg>
