<svg width="72" height="72" viewBox="0 0 72 72" fill="none" xmlns="http://www.w3.org/2000/svg">
<rect width="72" height="72" fill="url(#paint0_linear_1724_59)"/>
<path d="M14.5 32L27.5 52H44.5L57.5 32L58.8551 36.8007C63.1325 51.9548 51.7462 67 36 67V67C20.2537 67 8.86741 51.9547 13.1449 36.8006L14.5 32Z" fill="url(#paint1_linear_1724_59)"/>
<path d="M14.5 32.1127L27.5 52.1127L36 56.3008L44.5 52.1127L57.5 32.1127L58.8551 36.9134C63.1325 52.0675 51.7462 67.1127 36 67.1127V67.1127C20.2537 67.1127 8.86741 52.0674 13.1449 36.9133L14.5 32.1127Z" fill="url(#paint2_linear_1724_59)"/>
<path fill-rule="evenodd" clip-rule="evenodd" d="M51.5563 20.5563C42.9648 11.9648 29.0352 11.9648 20.4437 20.5563C11.8521 29.1479 11.8521 43.0775 20.4437 51.669C29.0352 60.2606 42.9648 60.2606 51.5563 51.669C60.1479 43.0775 60.1479 29.1479 51.5563 20.5563ZM48.0007 24.7732H23.9743L35.9401 34.403L48.0007 24.7732ZM22.0732 26.4523V42.3479C22.0732 43.0385 22.633 43.5983 23.3236 43.5983H48.6768C49.3673 43.5983 49.9271 43.0385 49.9271 42.3479L49.9269 26.4344L36.8334 36.8889C36.3078 37.3086 35.5613 37.3072 35.0373 36.8855L22.0732 26.4523ZM36 44.9854C36.6904 44.9854 37.25 45.545 37.25 46.2354V52.9784C37.25 53.6688 36.6904 54.2284 36 54.2284C35.3096 54.2284 34.75 53.6688 34.75 52.9784V46.2354C34.75 45.545 35.3096 44.9854 36 44.9854ZM43.8755 46.2354C43.8755 45.545 43.3158 44.9854 42.6255 44.9854C41.9351 44.9854 41.3755 45.545 41.3755 46.2354V49.3325C41.3755 50.0228 41.9351 50.5825 42.6255 50.5825C43.3158 50.5825 43.8755 50.0228 43.8755 49.3325V46.2354ZM29.3745 44.9854C30.0649 44.9854 30.6245 45.545 30.6245 46.2354V49.3325C30.6245 50.0228 30.0649 50.5825 29.3745 50.5825C28.6842 50.5825 28.1245 50.0228 28.1245 49.3325V46.2354C28.1245 45.545 28.6842 44.9854 29.3745 44.9854Z" fill="url(#paint3_linear_1724_59)"/>
<defs>
<linearGradient id="paint0_linear_1724_59" x1="36" y1="0" x2="36" y2="72" gradientUnits="userSpaceOnUse">
<stop stop-color="#6366F1"/>
<stop offset="1" stop-color="#3F33FF"/>
</linearGradient>
<linearGradient id="paint1_linear_1724_59" x1="35.9999" y1="25.9655" x2="35.9999" y2="65.7931" gradientUnits="userSpaceOnUse">
<stop offset="0.562874" stop-color="#4035FF"/>
<stop offset="1" stop-color="#3F34FF" stop-opacity="0"/>
</linearGradient>
<linearGradient id="paint2_linear_1724_59" x1="35.9999" y1="26.0782" x2="35.9999" y2="65.9058" gradientUnits="userSpaceOnUse">
<stop offset="0.562874" stop-color="#4035FF"/>
<stop offset="1" stop-color="#3F34FF" stop-opacity="0"/>
</linearGradient>
<linearGradient id="paint3_linear_1724_59" x1="51.5564" y1="20.5564" x2="20.4437" y2="51.669" gradientUnits="userSpaceOnUse">
<stop stop-color="white"/>
<stop offset="1" stop-color="#E8E2FF"/>
</linearGradient>
</defs>
</svg>
