<svg width="44" height="45" viewBox="0 0 44 45" fill="none" xmlns="http://www.w3.org/2000/svg">
<path fill-rule="evenodd" clip-rule="evenodd" d="M37.5564 6.55635C28.9648 -2.03518 15.0352 -2.03518 6.44365 6.55635C-2.14788 15.1479 -2.14788 29.0775 6.44365 37.669C15.0352 46.2606 28.9648 46.2606 37.5564 37.669C46.1479 29.0775 46.1479 15.1479 37.5564 6.55635ZM34.0007 10.7732H9.97431L21.9401 20.403L34.0007 10.7732ZM8.07324 12.4523V28.348C8.07324 29.0385 8.63303 29.5983 9.32357 29.5983H34.6768C35.3673 29.5983 35.9271 29.0385 35.9271 28.3479L35.9269 12.4344L22.8334 22.8889C22.3078 23.3086 21.5613 23.3072 21.0373 22.8855L8.07324 12.4523ZM22 30.9854C22.6904 30.9854 23.25 31.545 23.25 32.2354V38.9784C23.25 39.6688 22.6904 40.2284 22 40.2284C21.3096 40.2284 20.75 39.6688 20.75 38.9784V32.2354C20.75 31.545 21.3096 30.9854 22 30.9854ZM29.8755 32.2354C29.8755 31.545 29.3158 30.9854 28.6255 30.9854C27.9351 30.9854 27.3755 31.545 27.3755 32.2354V35.3325C27.3755 36.0228 27.9351 36.5825 28.6255 36.5825C29.3158 36.5825 29.8755 36.0228 29.8755 35.3325V32.2354ZM15.3745 30.9854C16.0649 30.9854 16.6245 31.545 16.6245 32.2354V35.3325C16.6245 36.0228 16.0649 36.5825 15.3745 36.5825C14.6842 36.5825 14.1245 36.0228 14.1245 35.3325V32.2354C14.1245 31.545 14.6842 30.9854 15.3745 30.9854Z" fill="url(#paint0_linear_1724_208)"/>
<defs>
<linearGradient id="paint0_linear_1724_208" x1="37.5564" y1="6.55635" x2="6.44365" y2="37.6691" gradientUnits="userSpaceOnUse">
<stop stop-color="#704CFF"/>
<stop offset="1" stop-color="#5125FF"/>
</linearGradient>
</defs>
</svg>
