<svg width="72" height="72" viewBox="0 0 72 72" fill="none" xmlns="http://www.w3.org/2000/svg">
<rect width="72" height="72" fill="url(#paint0_linear_688_387)"/>
<path opacity="0.5" d="M22 16H43.5L53.5 25V36H22V16Z" fill="url(#paint1_linear_688_387)"/>
<path opacity="0.5" d="M22 39H43.5H53.5V59H22V39Z" fill="url(#paint2_linear_688_387)"/>
<path d="M20 14.7869L44.7593 14.7217L51.9664 21.8909L52 34.6699L20.0526 34.754L20 14.7869Z" fill="url(#paint3_linear_688_387)"/>
<path d="M44.7783 21.9099L44.7594 14.7217L51.9665 21.8909L44.7783 21.9099Z" fill="#0057FF"/>
<path d="M51.9688 22.6897L44.7786 21.9099L51.9667 21.891L51.9688 22.6897Z" fill="#003AAA"/>
<path d="M25.6056 20.363C25.6045 19.9219 25.9611 19.5633 26.4022 19.5622L44.772 19.5138L44.7762 21.1112L26.4064 21.1595C25.9653 21.1607 25.6068 20.8041 25.6056 20.363V20.363Z" fill="white"/>
<path d="M25.6182 25.1551C25.617 24.714 25.9737 24.3554 26.4148 24.3543L45.5833 24.3038C46.0244 24.3026 46.3829 24.6593 46.384 25.1004V25.1004C46.3852 25.5415 46.0286 25.9 45.5875 25.9012L26.419 25.9517C25.9779 25.9528 25.6194 25.5962 25.6182 25.1551V25.1551Z" fill="white"/>
<path d="M25.631 29.9472C25.6298 29.5061 25.9865 29.1476 26.4276 29.1465L45.5961 29.096C46.0372 29.0948 46.3957 29.4515 46.3969 29.8926V29.8926C46.398 30.3337 46.0414 30.6922 45.6003 30.6934L26.4318 30.7438C25.9907 30.745 25.6322 30.3883 25.631 29.9472V29.9472Z" fill="white"/>
<path d="M20 37.0328H51.9476V57H20V37.0328Z" fill="url(#paint4_linear_688_387)"/>
<path d="M25.5909 41.8249C25.5909 41.3838 25.9485 41.0262 26.3896 41.0262H45.5582C45.9993 41.0262 46.3569 41.3838 46.3569 41.8249V41.8249C46.3569 42.266 45.9993 42.6236 45.5582 42.6236H26.3896C25.9485 42.6236 25.5909 42.266 25.5909 41.8249V41.8249Z" fill="white"/>
<path d="M25.5909 46.617C25.5909 46.1759 25.9485 45.8184 26.3896 45.8184H45.5582C45.9993 45.8184 46.3569 46.1759 46.3569 46.617V46.617C46.3569 47.0582 45.9993 47.4157 45.5582 47.4157H26.3896C25.9485 47.4157 25.5909 47.0582 25.5909 46.617V46.617Z" fill="white"/>
<path d="M25.5909 51.4092C25.5909 50.9681 25.9485 50.6105 26.3896 50.6105H45.5582C45.9993 50.6105 46.3569 50.9681 46.3569 51.4092V51.4092C46.3569 51.8503 45.9993 52.2079 45.5582 52.2079H26.3896C25.9485 52.2079 25.5909 51.8503 25.5909 51.4092V51.4092Z" fill="white"/>
<defs>
<linearGradient id="paint0_linear_688_387" x1="36" y1="0" x2="36" y2="72" gradientUnits="userSpaceOnUse">
<stop stop-color="#EAF0FF"/>
<stop offset="1" stop-color="#C1D0F2"/>
</linearGradient>
<linearGradient id="paint1_linear_688_387" x1="35.5" y1="24" x2="40" y2="41" gradientUnits="userSpaceOnUse">
<stop stop-color="#90A6DF"/>
<stop offset="1" stop-color="#90A6DF" stop-opacity="0"/>
</linearGradient>
<linearGradient id="paint2_linear_688_387" x1="35.5" y1="47" x2="40" y2="64" gradientUnits="userSpaceOnUse">
<stop stop-color="#90A6DF"/>
<stop offset="1" stop-color="#90A6DF" stop-opacity="0"/>
</linearGradient>
<linearGradient id="paint3_linear_688_387" x1="33.977" y1="14.7501" x2="34.0906" y2="57.8791" gradientUnits="userSpaceOnUse">
<stop stop-color="#1E91FF"/>
<stop offset="1" stop-color="#0A5DFF"/>
</linearGradient>
<linearGradient id="paint4_linear_688_387" x1="33.9771" y1="13.8708" x2="33.9771" y2="57" gradientUnits="userSpaceOnUse">
<stop stop-color="#1D91FF"/>
<stop offset="1" stop-color="#0A5DFF"/>
</linearGradient>
</defs>
</svg>
