<svg width="72" height="72" viewBox="0 0 72 72" fill="none" xmlns="http://www.w3.org/2000/svg">
<rect width="72" height="72" fill="#DDE6FA"/>
<path opacity="0.5" d="M22 16H43.5L53.5 25V36H22V16Z" fill="url(#paint0_linear_675_3384)"/>
<path opacity="0.5" d="M22 39H43.5H53.5V59H22V39Z" fill="url(#paint1_linear_675_3384)"/>
<path d="M20 14.7869L44.7593 14.7217L51.9664 21.8909L52 34.6699L20.0526 34.754L20 14.7869Z" fill="url(#paint2_linear_675_3384)"/>
<path d="M44.7782 21.9099L44.7593 14.7217L51.9664 21.8909L44.7782 21.9099Z" fill="#0057FF"/>
<path d="M51.9688 22.6897L44.7786 21.9099L51.9667 21.891L51.9688 22.6897Z" fill="#003AAA"/>
<path d="M25.6056 20.363C25.6045 19.9219 25.9611 19.5634 26.4022 19.5622L44.772 19.5139L44.7762 21.1112L26.4064 21.1596C25.9653 21.1608 25.6068 20.8041 25.6056 20.363V20.363Z" fill="white"/>
<path d="M25.6183 25.1551C25.6172 24.714 25.9738 24.3555 26.4149 24.3543L45.5834 24.3039C46.0245 24.3027 46.383 24.6594 46.3842 25.1005V25.1005C46.3853 25.5416 46.0287 25.9001 45.5876 25.9012L26.4191 25.9517C25.978 25.9529 25.6195 25.5962 25.6183 25.1551V25.1551Z" fill="white"/>
<path d="M25.631 29.9472C25.6298 29.5061 25.9865 29.1476 26.4276 29.1465L45.5961 29.096C46.0372 29.0948 46.3957 29.4515 46.3969 29.8926V29.8926C46.398 30.3337 46.0414 30.6922 45.6003 30.6934L26.4318 30.7438C25.9907 30.745 25.6322 30.3883 25.631 29.9472V29.9472Z" fill="white"/>
<path d="M20 37.0327H51.9476V57H20V37.0327Z" fill="url(#paint3_linear_675_3384)"/>
<path d="M25.5908 41.8248C25.5908 41.3837 25.9484 41.0261 26.3895 41.0261H45.5581C45.9992 41.0261 46.3567 41.3837 46.3567 41.8248V41.8248C46.3567 42.2659 45.9992 42.6235 45.5581 42.6235H26.3895C25.9484 42.6235 25.5908 42.2659 25.5908 41.8248V41.8248Z" fill="white"/>
<path d="M25.5908 46.6169C25.5908 46.1758 25.9484 45.8182 26.3895 45.8182H45.5581C45.9992 45.8182 46.3567 46.1758 46.3567 46.6169V46.6169C46.3567 47.058 45.9992 47.4156 45.5581 47.4156H26.3895C25.9484 47.4156 25.5908 47.058 25.5908 46.6169V46.6169Z" fill="white"/>
<path d="M25.5908 51.4092C25.5908 50.9681 25.9484 50.6105 26.3895 50.6105H45.5581C45.9992 50.6105 46.3567 50.9681 46.3567 51.4092V51.4092C46.3567 51.8503 45.9992 52.2079 45.5581 52.2079H26.3895C25.9484 52.2079 25.5908 51.8503 25.5908 51.4092V51.4092Z" fill="white"/>
<defs>
<linearGradient id="paint0_linear_675_3384" x1="35.5" y1="24" x2="40" y2="41" gradientUnits="userSpaceOnUse">
<stop stop-color="#90B0DF"/>
<stop offset="1" stop-color="#90B0DF" stop-opacity="0"/>
</linearGradient>
<linearGradient id="paint1_linear_675_3384" x1="35.5" y1="47" x2="40" y2="64" gradientUnits="userSpaceOnUse">
<stop stop-color="#90B0DF"/>
<stop offset="1" stop-color="#90B0DF" stop-opacity="0"/>
</linearGradient>
<linearGradient id="paint2_linear_675_3384" x1="33.977" y1="14.7501" x2="34.0906" y2="57.8791" gradientUnits="userSpaceOnUse">
<stop stop-color="#1E91FF"/>
<stop offset="1" stop-color="#0A5DFF"/>
</linearGradient>
<linearGradient id="paint3_linear_675_3384" x1="33.9771" y1="13.8707" x2="33.9771" y2="57" gradientUnits="userSpaceOnUse">
<stop stop-color="#1D91FF"/>
<stop offset="1" stop-color="#0A5DFF"/>
</linearGradient>
</defs>
</svg>
