<svg width="310" height="310" viewBox="0 0 310 310" fill="none" xmlns="http://www.w3.org/2000/svg">
<rect width="310" height="310" fill="white"/>
<path d="M147.974 119.764L147.974 190.127L196.278 190.127L196.278 119.764L147.974 119.764Z" fill="#FAFAFB"/>
<path d="M77.7207 218.228L77.7207 232.28L91.7715 232.28L91.7715 218.228L77.7207 218.228Z" fill="#E8E8E9"/>
<path d="M91.7715 232.279L91.7715 246.33L176.075 246.33L176.075 232.279L91.7715 232.279Z" fill="#E8E8E9"/>
<path d="M147.976 218.229L147.976 232.28L190.126 232.28L190.126 218.229L147.976 218.229Z" fill="#E8E8E9"/>
<path d="M164.156 190.127L164.156 218.229L204.178 218.229L204.178 190.127L164.156 190.127Z" fill="#E8E8E9"/>
<path d="M178.207 161.917L178.207 204.178L218.229 204.178L218.229 161.917L178.207 161.917Z" fill="#E8E8E9"/>
<path d="M190.126 133.815L190.126 161.917L218.228 161.917L218.228 133.815L190.126 133.815Z" fill="#E8E8E9"/>
<path d="M190.127 119.873L190.127 147.866L204.177 147.866L204.177 119.873L190.127 119.873Z" fill="#E8E8E9"/>
<path d="M176.075 105.823L176.075 119.873L190.127 119.873L190.127 105.823L176.075 105.823Z" fill="#E8E8E9"/>
<path d="M147.974 91.6627L147.974 105.714L162.025 105.714L162.025 91.6627L147.974 91.6627Z" fill="#E8E8E9"/>
<path d="M133.924 91.6627L133.924 162.026L147.976 162.026L147.976 91.6627L133.924 91.6627Z" fill="#FAFAFB"/>
<path d="M105.822 105.714L105.822 232.279L133.924 232.279L133.924 105.713L105.822 105.714Z" fill="#FAFAFB"/>
<path d="M77.7207 119.873L77.7207 218.229L105.822 218.229L105.822 119.873L77.7207 119.873Z" fill="#FAFAFB"/>
<path d="M63.6699 147.866L63.6699 190.127L77.7207 190.127L77.7207 147.866L63.6699 147.866Z" fill="#FAFAFB"/>
<path d="M162.025 105.768L162.025 176.131L176.075 176.131L176.075 105.768L162.025 105.768Z" fill="#FAFAFB"/>
<path d="M133.924 190.127L133.924 232.389L147.976 232.389L147.976 190.127L133.924 190.127Z" fill="#FAFAFB"/>
<path d="M144.747 190.128L144.747 218.229L164.156 218.229L164.156 190.128L144.747 190.128Z" fill="#FAFAFB"/>
<path d="M133.924 274.432L133.924 288.482L147.975 288.482L147.975 274.432L133.924 274.432Z" fill="#262739"/>
<path d="M260.381 147.975L246.33 147.975L246.33 162.025L260.381 162.025V147.975Z" fill="#262739"/>
<path d="M147.975 274.432L147.975 288.482L162.025 288.482L162.025 274.432L147.975 274.432Z" fill="#262739"/>
<path d="M260.381 162.025L246.33 162.025L246.33 176.076L260.381 176.076V162.025Z" fill="#262739"/>
<path d="M162.025 274.432L162.025 288.482L176.076 288.482L176.076 274.432L162.025 274.432Z" fill="#262739"/>
<path d="M260.381 176.076L246.33 176.076L246.33 190.127L260.381 190.127V176.076Z" fill="#262739"/>
<path d="M176.076 260.381L176.076 274.432L190.127 274.432L190.127 260.381L176.076 260.381Z" fill="#262739"/>
<path d="M77.7207 246.33L77.7207 260.381L91.7715 260.381L91.7715 246.33L77.7207 246.33Z" fill="#262739"/>
<path d="M91.7715 260.381L91.7715 274.432L105.822 274.432L105.822 260.381L91.7715 260.381Z" fill="#262739"/>
<path d="M119.873 232.279L119.873 246.33L133.924 246.33L133.924 232.279L119.873 232.279Z" fill="#262739"/>
<path d="M147.975 232.279L147.975 246.33L162.025 246.33L162.025 232.279L147.975 232.279Z" fill="#262739"/>
<path d="M176.076 204.177L176.076 218.228L190.127 218.228L190.127 204.177L176.076 204.177Z" fill="#262739"/>
<path d="M190.126 176.076L190.126 190.126L204.177 190.126L204.177 176.076L190.126 176.076Z" fill="#262739"/>
<path d="M190.126 147.866L190.126 161.917L204.177 161.917L204.177 147.866L190.126 147.866Z" fill="#262739"/>
<path d="M176.075 119.873L176.075 133.924L190.126 133.924L190.126 119.873L176.075 119.873Z" fill="#262739"/>
<path d="M147.975 105.714L147.975 119.764L162.025 119.764L162.025 105.714L147.975 105.714Z" fill="#262739"/>
<path d="M190.127 260.381L190.127 274.432L204.178 274.432L204.178 260.381L190.127 260.381Z" fill="#262739"/>
<path d="M204.178 246.33L204.178 260.381L218.229 260.381L218.229 246.33L204.178 246.33Z" fill="#262739"/>
<path d="M218.229 232.279L218.229 246.33L232.279 246.33L232.279 232.279L218.229 232.279Z" fill="#262739"/>
<path d="M63.6699 232.279L63.6699 246.33L77.7207 246.33L77.7207 232.279L63.6699 232.279Z" fill="#262739"/>
<path d="M49.6191 218.229L49.6191 232.279L63.6699 232.279L63.6699 218.229L49.6191 218.229Z" fill="#262739"/>
<path d="M91.7715 218.229L91.7715 232.279L105.822 232.279L105.822 218.229L91.7715 218.229Z" fill="#262739"/>
<path d="M49.6191 190.127L49.6191 204.178L63.6699 204.178L63.6699 190.127L49.6191 190.127Z" fill="#262739"/>
<path d="M77.7207 190.127L77.7207 204.178L91.7715 204.178L91.7715 190.127L77.7207 190.127Z" fill="#262739"/>
<path d="M49.6191 204.178L49.6191 218.229L63.6699 218.229L63.6699 204.178L49.6191 204.178Z" fill="#262739"/>
<path d="M232.279 218.229L232.279 232.279L246.33 232.279L246.33 218.229L232.279 218.229Z" fill="#262739"/>
<path d="M232.279 204.178L232.279 218.229L246.33 218.229L246.33 204.178L232.279 204.178Z" fill="#262739"/>
<path d="M246.33 190.127L246.33 204.178L260.381 204.178L260.381 190.127L246.33 190.127Z" fill="#262739"/>
<path d="M49.6191 176.076L49.6191 190.127L63.6699 190.127L63.6699 176.076L49.6191 176.076Z" fill="#262739"/>
<path d="M49.6191 162.025L49.6191 176.076L63.6699 176.076L63.6699 162.025L49.6191 162.025Z" fill="#262739"/>
<path d="M77.7207 162.025L77.7207 176.076L91.7715 176.076L91.7715 162.025L77.7207 162.025Z" fill="#262739"/>
<path d="M133.924 176.076L133.924 190.127L147.975 190.127L147.975 176.076L133.924 176.076Z" fill="#262739"/>
<path d="M119.873 119.873L119.873 162.026L133.924 162.026L133.924 119.873L119.873 119.873Z" fill="#262739"/>
<path d="M133.924 162.025L133.924 176.076L147.975 176.076L147.975 162.025L133.924 162.025Z" fill="#262739"/>
<path d="M49.6191 147.974L49.6191 162.025L63.6699 162.025L63.6699 147.974L49.6191 147.974Z" fill="#262739"/>
<path d="M63.6699 133.815L63.6699 147.866L77.7207 147.866L77.7207 133.815L63.6699 133.815Z" fill="#262739"/>
<path d="M91.7715 133.815L91.7715 147.866L105.822 147.866L105.822 133.815L91.7715 133.815Z" fill="#262739"/>
<path d="M119.873 274.432L119.873 288.482L133.924 288.482L133.924 274.432L119.873 274.432Z" fill="#262739"/>
<path d="M260.381 133.924L246.33 133.924L246.33 147.975L260.381 147.975V133.924Z" fill="#262739"/>
<path d="M105.822 274.432L105.822 288.482L119.873 288.482L119.873 274.432L105.822 274.432Z" fill="#262739"/>
<path d="M246.33 119.873L232.279 119.873L232.279 133.924L246.33 133.924L246.33 119.873Z" fill="#262739"/>
<path d="M77.7207 119.873L63.6699 119.873L63.6699 133.924L77.7207 133.924L77.7207 119.873Z" fill="#262739"/>
<path d="M246.33 105.822L232.279 105.822L232.279 119.873L246.33 119.873L246.33 105.822Z" fill="#262739"/>
<path d="M91.7715 105.822L77.7207 105.822L77.7207 119.873L91.7715 119.873L91.7715 105.822Z" fill="#262739"/>
<path d="M232.279 91.7715L218.229 91.7715L218.229 105.822L232.279 105.822L232.279 91.7715Z" fill="#262739"/>
<path d="M105.822 91.7715L91.7715 91.7715L91.7715 105.822L105.822 105.822L105.822 91.7715Z" fill="#262739"/>
<path d="M246.33 77.7207L232.279 77.7207L232.279 91.7715L246.33 91.7715L246.33 77.7207Z" fill="#262739"/>
<path d="M232.279 63.6699L218.229 63.6699L218.229 77.7207L232.279 77.7207L232.279 63.6699Z" fill="#262739"/>
<path d="M218.229 77.7207L204.178 77.7207L204.178 91.7715L218.229 91.7715L218.229 77.7207Z" fill="#262739"/>
<path d="M204.178 77.7207L190.127 77.7207L190.127 91.7715L204.178 91.7715L204.178 77.7207Z" fill="#262739"/>
<path d="M133.924 77.7207L119.873 77.7207L119.873 91.7715L133.924 91.7715L133.924 77.7207Z" fill="#262739"/>
<path d="M190.127 77.7207L176.076 77.7207L176.076 91.7715L190.127 91.7715L190.127 77.7207Z" fill="#262739"/>
<path d="M119.873 77.7207L105.822 77.7207L105.822 91.7715L119.873 91.7715L119.873 77.7207Z" fill="#262739"/>
<path d="M176.076 63.6699L162.025 63.6699L162.025 77.7207L176.076 77.7207L176.076 63.6699Z" fill="#262739"/>
<path d="M190.127 49.6191L176.076 49.6191L176.076 63.6699L190.127 63.6699L190.127 49.6191Z" fill="#262739"/>
<path d="M190.127 35.5684L176.076 35.5684L176.076 49.6191L190.127 49.6191L190.127 35.5684Z" fill="#262739"/>
<path d="M176.076 21.5176L162.025 21.5176L162.025 35.5684L176.076 35.5684L176.076 21.5176Z" fill="#262739"/>
<path d="M162.025 21.5176L147.975 21.5176L147.975 35.5684L162.025 35.5684L162.025 21.5176Z" fill="#262739"/>
<path d="M147.975 35.5684L133.924 35.5684L133.924 49.6191L147.975 49.6191L147.975 35.5684Z" fill="#262739"/>
<path d="M147.975 49.6191L133.924 49.6191L133.924 63.6699L147.975 63.6699L147.975 49.6191Z" fill="#262739"/>
<path d="M147.975 63.6699L133.924 63.6699L133.924 77.7207L147.975 77.7207L147.975 63.6699Z" fill="#262739"/>
<path d="M147.975 63.6699L147.975 77.7207L162.025 77.7207L162.025 63.6699L147.975 63.6699Z" fill="#CAA800"/>
<path d="M147.975 35.5684L147.975 63.6699L162.025 63.6699L162.025 35.5684L147.975 35.5684Z" fill="#FFF0C5"/>
<path d="M147.975 35.5684L147.975 63.6699L162.025 63.6699L162.025 35.5684L147.975 35.5684Z" fill="#FFF0C5"/>
<path d="M133.924 77.7207L133.924 91.7715L162.025 91.7715L162.025 77.7207L133.924 77.7207Z" fill="#EAC300"/>
<path d="M162.025 35.5684L162.025 63.6699L176.076 63.6699L176.076 35.5684L162.025 35.5684Z" fill="#EAC300"/>
<path d="M162.025 77.7207L162.025 91.7715L176.076 91.7715L176.076 77.7207L162.025 77.7207Z" fill="#CAA800"/>
<path d="M204.178 91.7715L204.178 105.822L218.229 105.822L218.229 91.7715L204.178 91.7715Z" fill="#CAA800"/>
<path d="M218.229 105.822L218.229 119.873L232.279 119.873L232.279 105.822L218.229 105.822Z" fill="#CAA800"/>
<path d="M232.279 147.975L232.279 204.178L246.33 204.178L246.33 147.975L232.279 147.975Z" fill="#CAA800"/>
<path d="M218.229 218.229L218.229 232.28L232.279 232.28L232.279 218.229L218.229 218.229Z" fill="#CAA800"/>
<path d="M204.178 232.279L204.178 246.33L218.229 246.33L218.229 232.279L204.178 232.279Z" fill="#CAA800"/>
<path d="M190.127 246.33L190.127 260.381L204.178 260.381L204.178 246.33L190.127 246.33Z" fill="#CAA800"/>
<path d="M119.873 260.381L119.873 274.432L176.076 274.432L176.076 260.381L119.873 260.381Z" fill="#CAA800"/>
<path d="M218.229 77.7207L218.229 91.7715L232.279 91.7715L232.279 77.7207L218.229 77.7207Z" fill="#EAC300"/>
<path d="M105.822 91.7715L105.822 105.822L133.924 105.822L133.924 91.7715L105.822 91.7715Z" fill="#EAC300"/>
<path d="M91.7715 105.822L91.7715 119.873L105.822 119.873L105.822 105.822L91.7715 105.822Z" fill="#EAC300"/>
<path d="M162.025 91.7715L162.025 105.822L204.178 105.822L204.178 91.7715L162.025 91.7715Z" fill="#EAC300"/>
<path d="M190.127 105.822L190.127 119.873L218.229 119.873L218.229 105.822L190.127 105.822Z" fill="#EAC300"/>
<path d="M218.229 119.873L218.229 190.127L232.279 190.127L232.279 119.873L218.229 119.873Z" fill="#EAC300"/>
<path d="M218.229 190.127L218.229 218.229L232.279 218.229L232.279 190.127L218.229 190.127Z" fill="#EAC300"/>
<path d="M204.178 204.178L204.178 232.279L218.229 232.279L218.229 204.178L204.178 204.178Z" fill="#EAC300"/>
<path d="M190.127 218.229L190.127 246.33L204.178 246.33L204.178 218.229L190.127 218.229Z" fill="#EAC300"/>
<path d="M176.076 246.33L190.126 246.33L190.126 232.279L176.076 232.279L176.076 246.33Z" fill="#EAC300"/>
<path d="M77.7207 232.279L77.7207 246.33L91.7715 246.33L91.7715 232.279L77.7207 232.279Z" fill="#EAC300"/>
<path d="M63.6699 218.229L63.6699 232.279L77.7207 232.279L77.7207 218.229L63.6699 218.229Z" fill="#EAC300"/>
<path d="M63.6699 190.127L63.6699 218.228L77.7207 218.228L77.7207 190.127L63.6699 190.127Z" fill="#E8E8E9"/>
<path d="M105.822 260.381L105.822 274.432L119.873 274.432L119.873 260.381L105.822 260.381Z" fill="#EAC300"/>
<path d="M91.7715 246.33L91.7715 260.38L190.127 260.38L190.127 246.33L91.7715 246.33Z" fill="#EAC300"/>
<path d="M232.279 133.924L232.279 147.975L246.33 147.975L246.33 133.924L232.279 133.924Z" fill="#EAC300"/>
<path d="M204.178 119.764L204.178 133.815L218.229 133.815L218.229 119.764L204.178 119.764Z" fill="#EAC300"/>
</svg>
