<svg width="310" height="310" viewBox="0 0 310 310" fill="none" xmlns="http://www.w3.org/2000/svg">
<rect width="310" height="310" fill="white"/>
<path d="M112.848 232.28L112.848 246.331L126.898 246.331L126.898 232.28L112.848 232.28Z" fill="#262739"/>
<path d="M98.7969 176.077L98.7969 190.128L112.848 190.128L112.848 176.077L98.7969 176.077Z" fill="#262739"/>
<path d="M84.7461 119.874L84.7461 133.925L98.7969 133.925L98.7969 119.874L84.7461 119.874Z" fill="#262739"/>
<path d="M112.848 204.179L112.848 218.23L126.898 218.23L126.898 204.179L112.848 204.179Z" fill="#262739"/>
<path d="M98.7969 147.975L98.7969 162.026L112.848 162.026L112.848 147.975L98.7969 147.975Z" fill="#262739"/>
<path d="M84.7461 91.7723L84.7461 105.823L98.7969 105.823L98.7969 91.7723L84.7461 91.7723Z" fill="#262739"/>
<path d="M112.848 218.23L112.848 232.28L126.898 232.28L126.898 218.23L112.848 218.23Z" fill="#262739"/>
<path d="M98.7969 162.026L98.7969 176.077L112.848 176.077L112.848 162.026L98.7969 162.026Z" fill="#262739"/>
<path d="M84.7461 105.823L84.7461 119.874L98.7969 119.874L98.7969 105.823L84.7461 105.823Z" fill="#262739"/>
<path d="M112.848 190.128L112.848 204.179L126.898 204.179L126.898 190.128L112.848 190.128Z" fill="#262739"/>
<path d="M98.7969 133.925L98.7969 147.975L112.848 147.975L112.848 133.925L98.7969 133.925Z" fill="#262739"/>
<path d="M169.051 147.976H211.203V190.129H169.051V176.077H112.848V133.925H169.051V147.976Z" fill="#FF897D"/>
<path d="M84.7461 77.7215L84.7461 91.7723L98.7969 91.7723L98.7969 77.7215L84.7461 77.7215Z" fill="#262739"/>
<path d="M155 246.331L155 260.382L169.051 260.382L169.051 246.331L155 246.331Z" fill="#262739"/>
<path d="M112.848 49.6192L112.848 63.67L126.898 63.67L126.898 49.6192L112.848 49.6192Z" fill="#262739"/>
<path d="M126.898 246.331L126.898 260.382L140.949 260.382L140.949 246.331L126.898 246.331Z" fill="#262739"/>
<path d="M169.051 246.331L169.051 260.382L183.102 260.382L183.102 246.331L169.051 246.331Z" fill="#262739"/>
<path d="M126.898 35.5673L126.898 49.6181L155 49.6181L155 35.5673L126.898 35.5673Z" fill="#262739"/>
<path d="M140.949 246.331L140.949 260.382L155 260.382L155 246.331L140.949 246.331Z" fill="#262739"/>
<path d="M98.7969 63.6705L98.7969 77.7213L112.848 77.7213L112.848 63.6705L98.7969 63.6705Z" fill="#262739"/>
<path d="M183.102 260.382L183.102 274.433L197.152 274.433L197.152 260.382L183.102 260.382Z" fill="#262739"/>
<path d="M197.152 260.382L197.152 274.433L211.203 274.433L211.203 260.382L197.152 260.382Z" fill="#262739"/>
<path d="M155 49.6181L155 63.6689L169.051 63.6689L169.051 49.6181L155 49.6181Z" fill="#262739"/>
<path d="M211.203 260.382L211.203 274.433L225.254 274.433L225.254 260.382L211.203 260.382Z" fill="#262739"/>
<path d="M169.051 63.6705L169.051 77.7213L183.102 77.7213L183.102 63.6705L169.051 63.6705Z" fill="#262739"/>
<path d="M140.949 77.7219L140.949 91.7726L155 91.7726L155 77.7219L140.949 77.7219Z" fill="#262739"/>
<path d="M225.254 246.331L225.254 260.382L239.305 260.382L239.305 246.331L225.254 246.331Z" fill="#262739"/>
<path d="M211.203 190.128L211.203 204.179L225.254 204.179L225.254 190.128L211.203 190.128Z" fill="#262739"/>
<path d="M197.152 133.925L197.152 147.975L211.203 147.975L211.203 133.925L197.152 133.925Z" fill="#262739"/>
<path d="M225.254 218.23L225.254 232.28L239.305 232.28L239.305 218.23L225.254 218.23Z" fill="#262739"/>
<path d="M211.203 162.026L211.203 176.077L225.254 176.077L225.254 162.026L211.203 162.026Z" fill="#262739"/>
<path d="M197.152 105.823L197.152 119.874L211.203 119.874L211.203 105.823L197.152 105.823Z" fill="#262739"/>
<path d="M225.254 232.28L225.254 246.331L239.305 246.331L239.305 232.28L225.254 232.28Z" fill="#262739"/>
<path d="M211.203 176.077L211.203 190.128L225.254 190.128L225.254 176.077L211.203 176.077Z" fill="#262739"/>
<path d="M197.152 119.874L197.152 133.925L211.203 133.925L211.203 119.874L197.152 119.874Z" fill="#262739"/>
<path d="M225.254 204.179L225.254 218.23L239.305 218.23L239.305 204.179L225.254 204.179Z" fill="#262739"/>
<path d="M211.203 147.975L211.203 162.026L225.254 162.026L225.254 147.975L211.203 147.975Z" fill="#262739"/>
<path d="M197.152 91.7723L197.152 105.823L211.203 105.823L211.203 91.7723L197.152 91.7723Z" fill="#262739"/>
<path d="M183.102 77.7219L183.102 91.7726L197.152 91.7726L197.152 77.7219L183.102 77.7219Z" fill="#262739"/>
<path d="M112.848 147.975L112.848 162.026L126.898 162.026L126.898 147.975L112.848 147.975Z" fill="#FF5449"/>
<path d="M112.848 162.026L112.848 176.077L126.898 176.077L126.898 162.026L112.848 162.026Z" fill="#FF5449"/>
<path d="M112.848 176.078L112.848 190.129L126.898 190.129L126.898 176.078L112.848 176.078Z" fill="#CAA800"/>
<path d="M126.898 190.128L126.898 246.331L140.949 246.331L140.949 190.128L126.898 190.128Z" fill="#CAA800"/>
<path d="M98.7969 77.7219L98.7969 133.925L112.848 133.925L112.848 77.7219L98.7969 77.7219Z" fill="#CAA800"/>
<path d="M183.102 91.7723H155V77.7234H140.949V105.823H169.051V91.7733H197.152V147.976H169.051V133.926H112.848V77.7215H126.898V63.6746H140.949V49.6258H155V63.6746H169.051V77.7234H183.102V91.7723Z" fill="#EAC300"/>
<path d="M112.848 133.925L112.848 147.975L126.898 147.975L126.898 133.925L112.848 133.925Z" fill="#FF5449"/>
<path d="M169.051 190.128H211.203V204.179H225.254V260.382H183.102V246.331H140.949V190.129H126.898V176.08H169.051V190.128Z" fill="#EAC300"/>
<path d="M135.301 232.28L135.301 246.331L169.051 246.331L169.051 232.28L135.301 232.28Z" fill="#CAA800"/>
<path d="M183.102 246.331L183.102 260.382L197.152 260.382L197.152 246.331L183.102 246.331Z" fill="#CAA800"/>
<path d="M155 77.7219L155 91.7726L169.051 91.7726L169.051 77.7219L155 77.7219Z" fill="#CAA800"/>
<path d="M112.848 63.6689L112.848 77.7197L126.898 77.7197L126.898 63.6689L112.848 63.6689Z" fill="#CAA800"/>
<path d="M126.898 49.6258L126.898 63.6766L140.949 63.6766L140.949 49.6258L126.898 49.6258Z" fill="#CAA800"/>
<path d="M140.949 91.7726L140.949 105.823L169.051 105.823L169.051 91.7726L140.949 91.7726Z" fill="#262739"/>
</svg>
