<svg width="64" height="63" viewBox="0 0 64 63" fill="none" xmlns="http://www.w3.org/2000/svg">
<circle cx="32" cy="32" r="19" fill="white"/>
<path fill-rule="evenodd" clip-rule="evenodd" d="M47.5563 15.5563C38.9648 6.96482 25.0352 6.96482 16.4437 15.5563C7.85212 24.1479 7.85212 38.0775 16.4437 46.669C25.0352 55.2606 38.9648 55.2606 47.5563 46.669C56.1479 38.0775 56.1479 24.1479 47.5563 15.5563ZM31.5532 19.8921L44.3136 18.799L43.2205 31.5594L28.934 45.8458L17.2668 34.1786L31.5532 19.8921ZM40.6013 25.163C39.8691 25.8952 38.6819 25.8952 37.9496 25.163C37.2174 24.4307 37.2174 23.2435 37.9496 22.5113C38.6819 21.7791 39.8691 21.7791 40.6013 22.5113C41.3335 23.2435 41.3335 24.4307 40.6013 25.163Z" fill="url(#paint0_linear_1252_952)"/>
<defs>
<linearGradient id="paint0_linear_1252_952" x1="47.5563" y1="15.5563" x2="16.4437" y2="46.669" gradientUnits="userSpaceOnUse">
<stop stop-color="#6366F2"/>
<stop offset="1" stop-color="#4035FF"/>
</linearGradient>
</defs>
</svg>
