<svg width="72" height="72" viewBox="0 0 72 72" fill="none" xmlns="http://www.w3.org/2000/svg">
<rect width="72" height="72" fill="#DDE6FA"/>
<path opacity="0.5" d="M16.7498 28.25H55.2499L56.3467 54.3531C56.4303 56.342 54.8405 58.0001 52.8498 58.0001H19.1501C17.1595 58.0001 15.5697 56.342 15.6532 54.3532L16.7498 28.25Z" fill="url(#paint0_linear_675_3338)"/>
<path d="M16.75 20.2778C16.75 17.9152 18.6652 16 21.0278 16H50.9723C53.3348 16 55.25 17.9152 55.25 20.2778V50.2223C55.25 52.5848 53.3348 54.5 50.9723 54.5H21.0278C18.6652 54.5 16.75 52.5848 16.75 50.2223V20.2778Z" fill="url(#paint1_linear_675_3338)"/>
<circle cx="28.8702" cy="27.132" r="3.56482" fill="white"/>
<path fill-rule="evenodd" clip-rule="evenodd" d="M55.2501 28.1434V50.5258C55.2501 52.8883 53.3349 54.8036 50.9723 54.8036H21.0279C19.7827 54.8036 18.6619 54.2716 17.8801 53.4226L43.1341 28.1349C46.4731 24.7915 51.8902 24.7879 55.2335 28.1268L55.2501 28.1434Z" fill="url(#paint2_linear_675_3338)"/>
<path fill-rule="evenodd" clip-rule="evenodd" d="M43.3346 54.8036H21.0278C18.6652 54.8036 16.75 52.8883 16.75 50.5258V39.8321C20.1045 36.7425 25.33 36.8229 28.5872 40.0758L43.3346 54.8036Z" fill="#FF9ECC"/>
<defs>
<linearGradient id="paint0_linear_675_3338" x1="35.9998" y1="28.25" x2="35.9998" y2="57.1251" gradientUnits="userSpaceOnUse">
<stop offset="0.562874" stop-color="#90B0DF"/>
<stop offset="1" stop-color="#90B0DF" stop-opacity="0"/>
</linearGradient>
<linearGradient id="paint1_linear_675_3338" x1="36" y1="16.4375" x2="36" y2="54.9375" gradientUnits="userSpaceOnUse">
<stop stop-color="#C51589"/>
<stop offset="0.600425" stop-color="#F94FA0"/>
</linearGradient>
<linearGradient id="paint2_linear_675_3338" x1="42.6475" y1="53.3158" x2="42.6475" y2="25.0491" gradientUnits="userSpaceOnUse">
<stop stop-color="#FF9ECC"/>
<stop offset="0.594473" stop-color="#FF6AB1"/>
</linearGradient>
</defs>
</svg>
