<svg width="310" height="310" viewBox="0 0 310 310" fill="none" xmlns="http://www.w3.org/2000/svg">
<path d="M167.41 61.9298V74.34H192.229V86.7492H217.048V99.1593H241.868V172.81H68.1323V99.1593H92.9517V86.7492H117.771V74.34H142.59V61.9298H167.41Z" fill="#3491FB"/>
<path d="M68.1323 99.1588H55.7227V210.841H68.1323V99.1588Z" fill="#2A2B42"/>
<path d="M254.277 99.1588H241.868V210.841H254.277V99.1588Z" fill="#2A2B42"/>
<path d="M155 248.07H142.59V260.48H155V248.07Z" fill="#2A2B42"/>
<path d="M155 61.9298L167.41 61.9298L167.41 49.5201L155 49.5201L155 61.9298Z" fill="#2A2B42"/>
<path d="M130.181 235.661H117.771V248.07H130.181V235.661Z" fill="#2A2B42"/>
<path d="M179.819 74.3395L192.229 74.3395L192.229 61.9298L179.819 61.9298L179.819 74.3395Z" fill="#2A2B42"/>
<path d="M179.819 235.661H167.41V248.07H179.819V235.661Z" fill="#2A2B42"/>
<path d="M130.181 74.3395L142.59 74.3395L142.59 61.9298L130.181 61.9298L130.181 74.3395Z" fill="#2A2B42"/>
<path d="M179.819 136.392H167.41V148.802L155 148.801V148.802L142.59 148.801L142.591 136.392H167.409L167.41 123.982H179.819V136.392ZM142.591 136.392H130.181V123.982H142.591V136.392ZM130.181 111.569L117.771 111.568V123.978H92.9512L92.9521 111.568H117.771L117.771 99.1588H130.181V111.569ZM229.458 111.569L217.049 111.568V123.978H192.229L192.229 111.568H217.048L217.049 99.1588H229.458V111.569ZM92.9521 111.569L80.542 111.568V99.1588H92.9521V111.569ZM192.229 111.569L179.819 111.568V99.1588H192.229V111.569ZM179.819 86.7496L167.41 86.7487V99.1588H142.59L142.591 86.7487H167.409L167.41 74.3395H179.819V86.7496ZM142.591 86.7496L130.181 86.7487V74.3395H142.591V86.7496Z" fill="#004787"/>
<path d="M204.639 223.251H192.229V235.661H204.639V223.251Z" fill="#2A2B42"/>
<path d="M105.361 86.7491L117.771 86.7491L117.771 74.3395L105.361 74.3395L105.361 86.7491Z" fill="#2A2B42"/>
<path d="M229.458 210.841H217.048V223.251H229.458V210.841Z" fill="#2A2B42"/>
<path d="M80.542 99.1588L92.9517 99.1588L92.9517 86.7491L80.542 86.7491L80.542 99.1588Z" fill="#2A2B42"/>
<path d="M105.361 223.251H92.9517V235.661H105.361V223.251Z" fill="#2A2B42"/>
<path d="M204.639 86.7491L217.048 86.7491L217.048 74.3395L204.639 74.3395L204.639 86.7491Z" fill="#2A2B42"/>
<path d="M80.542 210.841H68.1323V223.251H80.542V210.841Z" fill="#2A2B42"/>
<path d="M92.9517 136.374H117.771V148.789H142.59V161.094L142.608 161.194H155V248.07H142.59V235.665H117.771V223.251H92.9517V210.841H68.1323V123.965H92.9517V136.374Z" fill="#74ADFF"/>
<path d="M217.048 136.374H192.229V148.789H167.41V161.094L167.392 161.194H155V248.07H167.41V235.665H192.229V223.251H217.048V210.841H241.868V123.965H217.048V136.374Z" fill="#0077DC"/>
<path d="M229.458 99.1588L241.868 99.1588L241.868 86.7491L229.458 86.7491L229.458 99.1588Z" fill="#2A2B42"/>
<path d="M167.41 248.07H155V260.48H167.41V248.07Z" fill="#2A2B42"/>
<path d="M142.59 61.9298L155 61.9298L155 49.5201L142.59 49.5201L142.59 61.9298Z" fill="#2A2B42"/>
<path d="M142.59 235.661H130.181V248.07H142.59V235.661Z" fill="#2A2B42"/>
<path d="M167.41 74.3395L179.819 74.3395L179.819 61.9298L167.41 61.9298L167.41 74.3395Z" fill="#2A2B42"/>
<path d="M192.229 235.661H179.819V248.07H192.229V235.661Z" fill="#2A2B42"/>
<path d="M117.771 74.3395L130.181 74.3395L130.181 61.9298L117.771 61.9298L117.771 74.3395Z" fill="#2A2B42"/>
<path d="M192.229 235.661H179.819V248.07H192.229V235.661Z" fill="#2A2B42"/>
<path d="M117.771 74.3395L130.181 74.3395L130.181 61.9298L117.771 61.9298L117.771 74.3395Z" fill="#2A2B42"/>
<path d="M217.048 223.251H204.639V235.661H217.048V223.251Z" fill="#2A2B42"/>
<path d="M92.9517 86.7491L105.361 86.7491L105.361 74.3395L92.9517 74.3395L92.9517 86.7491Z" fill="#2A2B42"/>
<path d="M241.868 210.841H229.458V223.251H241.868V210.841Z" fill="#2A2B42"/>
<path d="M68.1323 99.1588L80.542 99.1588L80.542 86.7491L68.1323 86.7491L68.1323 99.1588Z" fill="#2A2B42"/>
<path d="M117.771 223.251H105.361V235.661H117.771V223.251Z" fill="#2A2B42"/>
<path d="M192.229 86.7491L204.639 86.7491L204.639 74.3395L192.229 74.3395L192.229 86.7491Z" fill="#2A2B42"/>
<path d="M92.9517 210.841H80.542V223.251H92.9517V210.841Z" fill="#2A2B42"/>
<path d="M217.048 99.1588L229.458 99.1588L229.458 86.7491L217.048 86.7491L217.048 99.1588Z" fill="#2A2B42"/>
</svg>
