<svg width="72" height="72" viewBox="0 0 72 72" fill="none" xmlns="http://www.w3.org/2000/svg">
<rect width="72" height="72" fill="#DDE6FA"/>
<path opacity="0.5" d="M22.7119 32C22.7119 27.5817 26.2937 24 30.7119 24H49.7624C53.8715 24 57.3123 27.1129 57.7225 31.2014L59.7433 51.3452C60.2455 56.3503 56.0586 60.5714 51.0496 60.11L29.9782 58.1693C25.8616 57.7901 22.7119 54.337 22.7119 50.203V32Z" fill="url(#paint0_radial_675_3348)"/>
<path d="M37.3377 31.5282L51.681 31.5301C55.0832 31.5305 57.8409 34.2889 57.8405 37.6911L57.8386 52.0345C57.8382 55.4367 55.0798 58.1944 51.6776 58.1939L37.3342 58.1921C33.932 58.1916 31.1743 55.4332 31.1748 52.031L31.1766 37.6877C31.1771 34.2855 33.9355 31.5278 37.3377 31.5282Z" fill="url(#paint1_radial_675_3348)" stroke="white" stroke-width="0.919443"/>
<path fill-rule="evenodd" clip-rule="evenodd" d="M46.1632 38.2413C46.1633 37.6319 45.6693 37.1379 45.06 37.1378C44.4506 37.1377 43.9566 37.6317 43.9565 38.241L43.9564 39.3443L39.543 39.3438C38.9336 39.3437 38.4396 39.8376 38.4395 40.447C38.4394 41.0563 38.9333 41.5504 39.5427 41.5504L47.1077 41.5514C46.8065 43.0232 46.0736 44.9562 44.6562 46.704C43.8151 45.6267 43.2058 44.4679 42.7782 43.3601C42.5588 42.7916 41.9201 42.5087 41.3517 42.7281C40.7832 42.9475 40.5002 43.5862 40.7196 44.1547C41.2406 45.5047 42.0088 46.9489 43.0968 48.2871C42.0493 49.1614 40.7634 49.9142 39.195 50.4329C38.6165 50.6242 38.3026 51.2483 38.4939 51.8269C38.6853 52.4054 39.3094 52.7193 39.8879 52.5279C41.8047 51.894 43.3655 50.9667 44.6279 49.8894C45.8312 50.9589 47.3057 51.8817 49.1011 52.5211C49.6751 52.7255 50.3062 52.4259 50.5106 51.8519C50.7151 51.2779 50.4154 50.6468 49.8414 50.4423C48.3874 49.9245 47.1815 49.1845 46.1869 48.3207C48.1167 46.0335 49.0332 43.4334 49.3496 41.5517L50.576 41.5519C51.1854 41.552 51.6794 41.058 51.6795 40.4487C51.6796 39.8393 51.1856 39.3453 50.5763 39.3452L48.3784 39.3449L48.359 39.3449L46.163 39.3446L46.1632 38.2413Z" fill="white"/>
<path fill-rule="evenodd" clip-rule="evenodd" d="M43.3319 31.0694L43.3302 35.0784C43.3282 39.6486 39.6218 43.3519 35.0517 43.3499L30.7161 43.3481L30.7168 37.6877C30.7173 34.0316 33.6815 31.0681 37.3377 31.0686L43.3319 31.0694Z" fill="url(#paint2_radial_675_3348)"/>
<path d="M19.6166 13.4625L33.9599 13.4686C37.3622 13.47 40.119 16.2292 40.1176 19.6314L40.1116 33.9748C40.1101 37.377 37.3509 40.1339 33.9487 40.1324L19.6054 40.1264C16.2031 40.1249 13.4463 37.3657 13.4477 33.9635L13.4538 19.6202C13.4552 16.218 16.2144 13.4611 19.6166 13.4625Z" fill="url(#paint3_radial_675_3348)" stroke="white" stroke-width="0.919443"/>
<path d="M31.1773 33.201C30.9463 33.2009 30.7398 33.0568 30.6599 32.84L29.4527 29.5637L24.5804 29.5616L23.3705 32.837C23.2904 33.0537 23.0838 33.1976 22.8527 33.1975L21.7256 33.197C21.4979 33.1969 21.3382 32.9722 21.4131 32.7572L25.921 19.8085C25.9982 19.5867 26.2073 19.4381 26.4422 19.4382L27.6344 19.4387C27.8694 19.4388 28.0786 19.5879 28.1555 19.81L32.6357 32.7623C32.7101 32.9773 32.5503 33.2016 32.3227 33.2015L31.1773 33.201ZM27.6543 24.3552C27.619 24.2257 27.5544 24.0315 27.4604 23.7725C27.3781 23.5018 27.2958 23.2311 27.2135 22.9604C27.1313 22.6779 27.0667 22.4484 27.0197 22.2718C26.9607 22.5072 26.89 22.7661 26.8075 23.0485C26.7368 23.3191 26.666 23.5721 26.5953 23.8075C26.5246 24.0311 26.4657 24.2135 26.4186 24.3547L25.146 27.9024L28.9238 27.904L27.6543 24.3552Z" fill="white"/>
<defs>
<radialGradient id="paint0_radial_675_3348" cx="0" cy="0" r="1" gradientUnits="userSpaceOnUse" gradientTransform="translate(59 58) rotate(-138.366) scale(24.0832 24.7341)">
<stop stop-color="#90B0DF"/>
<stop offset="1" stop-color="#90B0DF" stop-opacity="0"/>
</radialGradient>
<radialGradient id="paint1_radial_675_3348" cx="0" cy="0" r="1" gradientUnits="userSpaceOnUse" gradientTransform="translate(30.7178 30.516) rotate(45.0074) scale(39.0087)">
<stop stop-color="#F94FA0"/>
<stop offset="1" stop-color="#C51589"/>
</radialGradient>
<radialGradient id="paint2_radial_675_3348" cx="0" cy="0" r="1" gradientUnits="userSpaceOnUse" gradientTransform="translate(34.592 29.0904) rotate(55.8893) scale(16.5598 16.5602)">
<stop stop-color="#C51589"/>
<stop offset="1" stop-color="#C51589" stop-opacity="0"/>
</radialGradient>
<radialGradient id="paint3_radial_675_3348" cx="0" cy="0" r="1" gradientUnits="userSpaceOnUse" gradientTransform="translate(13.5487 12.4486) rotate(45.0242) scale(39.0087)">
<stop stop-color="#F94FA0"/>
<stop offset="1" stop-color="#C51589"/>
</radialGradient>
</defs>
</svg>
