<svg width="72" height="72" viewBox="0 0 72 72" fill="none" xmlns="http://www.w3.org/2000/svg">
<g clip-path="url(#clip0_688_349)">
<rect width="72" height="72" fill="url(#paint0_linear_688_349)"/>
<path opacity="0.5" fill-rule="evenodd" clip-rule="evenodd" d="M35.5919 29.4871C35.565 27.6331 35.2846 25.7355 34.7239 23.877C32.2932 15.819 25.5153 11.547 19.585 14.3353C13.6548 17.1236 10.8179 25.9163 13.2486 33.9744C15.5178 41.4968 21.5755 45.7198 27.1953 43.9794L31.4787 57.5516C29.7023 59.4122 29.0089 62.7193 29.9383 65.8C31.0916 69.6234 34.3076 71.6504 37.1215 70.3274C39.9353 69.0044 41.2813 64.8323 40.128 61.0089C39.9694 60.4831 39.7718 59.9913 39.5416 59.5376L50.777 43.5184C52.6629 44.9387 54.9424 45.3284 57.0557 44.3347C60.8995 42.5274 62.7383 36.8282 61.1628 31.6053C59.5873 26.3823 55.194 23.6134 51.3502 25.4207C48.9388 26.5545 47.3164 29.2201 46.8313 32.3389L35.5919 29.4871ZM37.5048 57.052L48.634 41.1842C48.0605 40.3031 47.5854 39.2845 47.2432 38.1501C47.0216 37.4157 46.8676 36.6718 46.7772 35.9307L35.33 33.0261C34.6423 37.1818 32.6414 40.7961 29.6769 42.7847L33.8986 56.1616C35.1437 55.9039 36.4126 56.2429 37.5048 57.052Z" fill="url(#paint1_linear_688_349)"/>
<path fill-rule="evenodd" clip-rule="evenodd" d="M35.3437 26.8638C35.5112 25.3176 35.4009 23.7148 34.9742 22.1224C33.1241 15.2178 26.0271 11.1203 19.1225 12.9704C12.218 14.8205 8.12053 21.9175 9.97059 28.822C11.6977 35.2676 17.9974 39.2669 24.4444 38.265L27.7714 49.9095C25.5941 51.3178 24.4693 54.0167 25.1766 56.6563C26.0545 59.9324 29.4219 61.8766 32.698 60.9988C35.9741 60.121 37.9183 56.7535 37.0405 53.4774C36.9197 53.0268 36.7519 52.6014 36.5437 52.205L50.7684 39.7584C52.7184 41.0915 55.2167 41.5975 57.6773 40.9382C62.1526 39.739 64.8084 35.139 63.6093 30.6637C62.4101 26.1883 57.81 23.5325 53.3347 24.7316C50.5271 25.484 48.4355 27.5748 47.5627 30.1337L35.3437 26.8638ZM34.5389 49.9729L48.6292 37.6438C48.0841 36.8644 47.6632 35.9782 47.4027 35.0062C47.2341 34.3769 47.1417 33.7451 47.1199 33.1207L34.6749 29.7904C33.4661 33.1966 30.8516 36.0474 27.3366 37.4676L30.6157 48.9444C32.0304 48.8289 33.4081 49.2122 34.5389 49.9729Z" fill="url(#paint2_linear_688_349)"/>
</g>
<defs>
<linearGradient id="paint0_linear_688_349" x1="36" y1="0" x2="36" y2="72" gradientUnits="userSpaceOnUse">
<stop stop-color="#EAF0FF"/>
<stop offset="1" stop-color="#C1D0F2"/>
</linearGradient>
<linearGradient id="paint1_linear_688_349" x1="35.1778" y1="12.3113" x2="40.7153" y2="70.237" gradientUnits="userSpaceOnUse">
<stop stop-color="#90A6DF"/>
<stop offset="1" stop-color="#90A6DF" stop-opacity="0"/>
</linearGradient>
<linearGradient id="paint2_linear_688_349" x1="36.7118" y1="12.5262" x2="36.7118" y2="61.2096" gradientUnits="userSpaceOnUse">
<stop stop-color="#2C66FF"/>
<stop offset="1" stop-color="#3A36FF"/>
</linearGradient>
<clipPath id="clip0_688_349">
<rect width="72" height="72" fill="white"/>
</clipPath>
</defs>
</svg>
