<svg width="72" height="72" viewBox="0 0 72 72" fill="none" xmlns="http://www.w3.org/2000/svg">
<rect width="72" height="72" fill="url(#paint0_linear_1092_177)"/>
<path fill-rule="evenodd" clip-rule="evenodd" d="M37.1539 54.1118C36.4961 54.9465 36.091 55 36 55C35.909 55 35.5039 54.9465 34.8461 54.1118C34.2061 53.2996 33.5422 52.0004 32.9476 50.2168C32.6537 49.3352 32.3856 48.3621 32.1486 47.3107C34.715 47.1879 37.2856 47.1875 39.8517 47.3094C39.6146 48.3612 39.3464 49.3348 39.0524 50.2168C38.4578 52.0004 37.7939 53.2996 37.1539 54.1118ZM40.2451 45.3264C37.4172 45.1818 34.5835 45.1822 31.7552 45.3278C31.3243 42.84 31.0567 40.0183 31.008 37H40.992C40.9433 40.0177 40.6758 42.839 40.2451 45.3264ZM41.8731 47.4308C41.2557 50.2797 40.4143 52.6514 39.4238 54.321C41.4791 53.4902 43.3882 51.9141 44.9791 49.6868C45.3883 49.1139 45.7732 48.5016 46.1303 47.8536C44.7144 47.675 43.2948 47.5341 41.8731 47.4308ZM47.0522 45.9568C45.4563 45.7423 43.8557 45.5745 42.2523 45.4534C42.6834 42.8923 42.9449 40.0301 42.9922 37H48.9821C48.8639 40.2938 48.1659 43.3424 47.0522 45.9568ZM48.2372 48.1475C47.3662 49.8642 46.3155 51.3897 45.1235 52.6702C47.0924 51.5904 48.8492 50.1719 50.3155 48.4931C49.6239 48.3688 48.9311 48.2536 48.2372 48.1475ZM51.6925 46.7151C50.8276 46.5485 49.9607 46.3957 49.0922 46.2569C50.1979 43.4966 50.8711 40.351 50.9833 37H54.9741C54.7878 40.5931 53.6033 43.9222 51.6925 46.7151ZM29.748 45.4556C29.3167 42.8938 29.0552 40.0309 29.0078 37H23.0179C23.1361 40.2953 23.8347 43.3452 24.9493 45.9604C26.5449 45.7454 28.1452 45.5771 29.748 45.4556ZM22.9095 46.2611C21.8028 43.4998 21.129 40.3527 21.0167 37H17.0259C17.2123 40.5952 18.3981 43.926 20.3108 46.7199C21.1752 46.5531 22.0415 46.4002 22.9095 46.2611ZM21.6883 48.4975C22.3794 48.3731 23.0716 48.2577 23.7648 48.1515C24.6354 49.8665 25.6854 51.3907 26.8765 52.6702C24.9093 51.5913 23.1538 50.1743 21.6883 48.4975ZM25.8715 47.8569C27.2871 47.678 28.7062 47.5366 30.1273 47.4329C30.7447 50.2808 31.5859 52.6518 32.5762 54.321C30.5209 53.4902 28.6118 51.9141 27.0209 49.6868C26.6124 49.1149 26.2281 48.5037 25.8715 47.8569ZM40.992 35H31.008C31.0567 31.9817 31.3243 29.16 31.7552 26.6722C34.5835 26.8177 37.4172 26.8182 40.2451 26.6736C40.6758 29.161 40.9433 31.9823 40.992 35ZM32.9476 21.7832C32.6537 22.6648 32.3856 23.6379 32.1486 24.6893C34.715 24.8121 37.2856 24.8125 39.8517 24.6906C39.6146 23.6388 39.3464 22.6652 39.0524 21.7832C38.4578 19.9996 37.7939 18.7004 37.1539 17.8882C36.4961 17.0535 36.091 17 36 17C35.909 17 35.5039 17.0535 34.8461 17.8882C34.2061 18.7004 33.5422 19.9996 32.9476 21.7832ZM42.9922 35C42.9449 31.9699 42.6834 29.1077 42.2523 26.5466C43.8557 26.4255 45.4563 26.2577 47.0522 26.0432C48.1659 28.6576 48.8639 31.7062 48.9821 35H42.9922ZM41.8731 24.5692C43.2948 24.4659 44.7144 24.325 46.1303 24.1464C45.7732 23.4984 45.3883 22.8861 44.9791 22.3132C43.3882 20.0859 41.4791 18.5098 39.4238 17.679C40.4143 19.3486 41.2557 21.7203 41.8731 24.5692ZM50.9833 35C50.8711 31.649 50.1979 28.5034 49.0922 25.7431C49.9607 25.6043 50.8276 25.4515 51.6925 25.2849C53.6033 28.0778 54.7878 31.4069 54.9741 35H50.9833ZM48.2372 23.8525C48.9311 23.7464 49.6239 23.6312 50.3155 23.5069C48.8492 21.8281 47.0924 20.4096 45.1235 19.3298C46.3155 20.6103 47.3662 22.1358 48.2372 23.8525ZM25.8715 24.1431C27.2871 24.322 28.7062 24.4634 30.1273 24.5671C30.7447 21.7192 31.5859 19.3482 32.5762 17.679C30.5209 18.5098 28.6118 20.0859 27.0209 22.3132C26.6124 22.8851 26.2281 23.4963 25.8715 24.1431ZM29.748 26.5444C28.1452 26.4229 26.5449 26.2546 24.9493 26.0396C23.8347 28.6548 23.1361 31.7047 23.0179 35H29.0078C29.0552 31.9691 29.3167 29.1062 29.748 26.5444ZM26.8765 19.3298C25.6854 20.6093 24.6354 22.1335 23.7648 23.8485C23.0716 23.7423 22.3794 23.6269 21.6883 23.5025C23.1538 21.8257 24.9093 20.4087 26.8765 19.3298ZM22.9095 25.7389C22.0415 25.5998 21.1752 25.4469 20.3108 25.2801C18.3981 28.074 17.2123 31.4048 17.0259 35H21.0167C21.129 31.6473 21.8028 28.5002 22.9095 25.7389ZM58 36C58 48.1503 48.1503 58 36 58C23.8497 58 14 48.1503 14 36C14 23.8497 23.8497 14 36 14C48.1503 14 58 23.8497 58 36Z" fill="url(#paint1_radial_1092_177)"/>
<path fill-rule="evenodd" clip-rule="evenodd" d="M37.1539 54.1118C36.4961 54.9465 36.091 55 36 55C35.909 55 35.5039 54.9465 34.8461 54.1118C34.2061 53.2996 33.5422 52.0004 32.9476 50.2168C32.6537 49.3352 32.3856 48.3621 32.1486 47.3107C34.715 47.1879 37.2856 47.1875 39.8517 47.3094C39.6146 48.3612 39.3464 49.3348 39.0524 50.2168C38.4578 52.0004 37.7939 53.2996 37.1539 54.1118ZM40.2451 45.3264C37.4172 45.1818 34.5835 45.1822 31.7552 45.3278C31.3243 42.84 31.0567 40.0183 31.008 37H40.992C40.9433 40.0177 40.6758 42.839 40.2451 45.3264ZM41.8731 47.4308C41.2557 50.2797 40.4143 52.6514 39.4238 54.321C41.4791 53.4902 43.3882 51.9141 44.9791 49.6868C45.3883 49.1139 45.7732 48.5016 46.1303 47.8536C44.7144 47.675 43.2948 47.5341 41.8731 47.4308ZM47.0522 45.9568C45.4563 45.7423 43.8557 45.5745 42.2523 45.4534C42.6834 42.8923 42.9449 40.0301 42.9922 37H48.9821C48.8639 40.2938 48.1659 43.3424 47.0522 45.9568ZM48.2372 48.1475C47.3662 49.8642 46.3155 51.3897 45.1235 52.6702C47.0924 51.5904 48.8492 50.1719 50.3155 48.4931C49.6239 48.3688 48.9311 48.2536 48.2372 48.1475ZM51.6925 46.7151C50.8276 46.5485 49.9607 46.3957 49.0922 46.2569C50.1979 43.4966 50.8711 40.351 50.9833 37H54.9741C54.7878 40.5931 53.6033 43.9222 51.6925 46.7151ZM29.748 45.4556C29.3167 42.8938 29.0552 40.0309 29.0078 37H23.0179C23.1361 40.2953 23.8347 43.3452 24.9493 45.9604C26.5449 45.7454 28.1452 45.5771 29.748 45.4556ZM22.9095 46.2611C21.8028 43.4998 21.129 40.3527 21.0167 37H17.0259C17.2123 40.5952 18.3981 43.926 20.3108 46.7199C21.1752 46.5531 22.0415 46.4002 22.9095 46.2611ZM21.6883 48.4975C22.3794 48.3731 23.0716 48.2577 23.7648 48.1515C24.6354 49.8665 25.6854 51.3907 26.8765 52.6702C24.9093 51.5913 23.1538 50.1743 21.6883 48.4975ZM25.8715 47.8569C27.2871 47.678 28.7062 47.5366 30.1273 47.4329C30.7447 50.2808 31.5859 52.6518 32.5762 54.321C30.5209 53.4902 28.6118 51.9141 27.0209 49.6868C26.6124 49.1149 26.2281 48.5037 25.8715 47.8569ZM40.992 35H31.008C31.0567 31.9817 31.3243 29.16 31.7552 26.6722C34.5835 26.8177 37.4172 26.8182 40.2451 26.6736C40.6758 29.161 40.9433 31.9823 40.992 35ZM32.9476 21.7832C32.6537 22.6648 32.3856 23.6379 32.1486 24.6893C34.715 24.8121 37.2856 24.8125 39.8517 24.6906C39.6146 23.6388 39.3464 22.6652 39.0524 21.7832C38.4578 19.9996 37.7939 18.7004 37.1539 17.8882C36.4961 17.0535 36.091 17 36 17C35.909 17 35.5039 17.0535 34.8461 17.8882C34.2061 18.7004 33.5422 19.9996 32.9476 21.7832ZM42.9922 35C42.9449 31.9699 42.6834 29.1077 42.2523 26.5466C43.8557 26.4255 45.4563 26.2577 47.0522 26.0432C48.1659 28.6576 48.8639 31.7062 48.9821 35H42.9922ZM41.8731 24.5692C43.2948 24.4659 44.7144 24.325 46.1303 24.1464C45.7732 23.4984 45.3883 22.8861 44.9791 22.3132C43.3882 20.0859 41.4791 18.5098 39.4238 17.679C40.4143 19.3486 41.2557 21.7203 41.8731 24.5692ZM50.9833 35C50.8711 31.649 50.1979 28.5034 49.0922 25.7431C49.9607 25.6043 50.8276 25.4515 51.6925 25.2849C53.6033 28.0778 54.7878 31.4069 54.9741 35H50.9833ZM48.2372 23.8525C48.9311 23.7464 49.6239 23.6312 50.3155 23.5069C48.8492 21.8281 47.0924 20.4096 45.1235 19.3298C46.3155 20.6103 47.3662 22.1358 48.2372 23.8525ZM25.8715 24.1431C27.2871 24.322 28.7062 24.4634 30.1273 24.5671C30.7447 21.7192 31.5859 19.3482 32.5762 17.679C30.5209 18.5098 28.6118 20.0859 27.0209 22.3132C26.6124 22.8851 26.2281 23.4963 25.8715 24.1431ZM29.748 26.5444C28.1452 26.4229 26.5449 26.2546 24.9493 26.0396C23.8347 28.6548 23.1361 31.7047 23.0179 35H29.0078C29.0552 31.9691 29.3167 29.1062 29.748 26.5444ZM26.8765 19.3298C25.6854 20.6093 24.6354 22.1335 23.7648 23.8485C23.0716 23.7423 22.3794 23.6269 21.6883 23.5025C23.1538 21.8257 24.9093 20.4087 26.8765 19.3298ZM22.9095 25.7389C22.0415 25.5998 21.1752 25.4469 20.3108 25.2801C18.3981 28.074 17.2123 31.4048 17.0259 35H21.0167C21.129 31.6473 21.8028 28.5002 22.9095 25.7389ZM58 36C58 48.1503 48.1503 58 36 58C23.8497 58 14 48.1503 14 36C14 23.8497 23.8497 14 36 14C48.1503 14 58 23.8497 58 36Z" fill="url(#paint2_radial_1092_177)"/>
<circle cx="36" cy="36" r="21.5" stroke="#ADABFF"/>
<defs>
<linearGradient id="paint0_linear_1092_177" x1="36" y1="0" x2="36" y2="72" gradientUnits="userSpaceOnUse">
<stop stop-color="#F1F0FF"/>
<stop offset="1" stop-color="#E1DDFA"/>
</linearGradient>
<radialGradient id="paint1_radial_1092_177" cx="0" cy="0" r="1" gradientUnits="userSpaceOnUse" gradientTransform="translate(32 28) rotate(64.0935) scale(38.9102)">
<stop stop-color="#E1E0FF"/>
<stop offset="1" stop-color="#807AFF"/>
</radialGradient>
<radialGradient id="paint2_radial_1092_177" cx="0" cy="0" r="1" gradientUnits="userSpaceOnUse" gradientTransform="translate(33 29.5) rotate(48.743) scale(37.9111)">
<stop stop-color="#817EFF"/>
<stop offset="0.641096" stop-color="#3A36FF"/>
</radialGradient>
</defs>
</svg>
