<svg width="258" height="258" viewBox="0 0 258 258" fill="none" xmlns="http://www.w3.org/2000/svg">
<path d="M57.6459 228.905H43.3857V243.175H57.6559V228.935H71.916V214.665H57.6459V228.905Z" fill="#928F9A"/>
<path d="M86.1962 200.385H71.926V214.655H86.1962V200.385Z" fill="#928F9A"/>
<path d="M100.47 186.11H86.1997V200.381H100.47V186.11Z" fill="#928F9A"/>
<path d="M114.747 171.832H100.477V186.103H114.747V171.832Z" fill="#928F9A"/>
<path d="M128.983 157.541H114.72V171.814H129.024V157.574H143.279V143.301H128.983V157.541Z" fill="#928F9A"/>
<path d="M157.544 129.023H143.26V143.294H157.544V129.023Z" fill="#928F9A"/>
<path d="M228.892 100.462H214.621V114.732H228.892V100.462Z" fill="#928F9A"/>
<path d="M243.178 86.1912H228.908V100.461H243.178V86.1912Z" fill="#928F9A"/>
<path d="M186.071 57.6607H171.801V71.9464H186.071V57.6607Z" fill="#928F9A"/>
<path d="M186.071 29.238H200.345V14.8386H186.071V29.1171H171.801V43.3906H186.071V29.238Z" fill="#928F9A"/>
<path d="M171.807 43.3485H157.537V57.661H171.807V43.3485Z" fill="#928F9A"/>
<path d="M171.808 100.489H157.506V129.019H171.808V100.489Z" fill="#928F9A"/>
<path d="M214.615 114.71H166.384V129.067H214.615V114.71Z" fill="#928F9A"/>
<path d="M43.3857 228.859H14.8152V243.177H43.3857V228.859Z" fill="#C8C5D0"/>
<path d="M57.6391 214.572H29.1055V228.899H57.6391V214.572Z" fill="#C8C5D0"/>
<path d="M71.9282 200.282H43.3723V214.666H71.9282V200.282Z" fill="#C8C5D0"/>
<path d="M86.1957 185.995H57.6489V200.389H86.1957V185.995Z" fill="#C8C5D0"/>
<path d="M100.476 171.708H71.9158V186.117H100.476V171.708Z" fill="#C8C5D0"/>
<path d="M114.71 157.418H86.1763V171.832H114.71V157.418Z" fill="#C8C5D0"/>
<path d="M128.99 143.131H100.443V157.538H128.99V143.131Z" fill="#C8C5D0"/>
<path d="M143.25 128.841H114.717V143.3H143.25V128.841Z" fill="#C8C5D0"/>
<path d="M186.104 14.8336H171.804V29.1038H186.104V14.8336Z" fill="#C8C5D0"/>
<path d="M186.071 86.1813V71.9077H171.817V57.6605H157.574V43.3909H171.817V29.1173H157.517V43.3606H143.274V94.7931V100.455H143.25V114.554H128.983V129.039H157.517V114.728V114.554V100.468H171.817V114.728H214.615V100.468H228.895V84.7125" fill="#C8C5D0"/>
<path d="M243.178 71.9076H214.615V86.1778H243.178V71.9076Z" fill="#C8C5D0"/>
<path d="M228.912 57.6206V80.6371L243.178 71.8942V57.6206H228.912Z" fill="#C8C5D0"/>
<path d="M143.274 43.3605H129.004V100.458L114.717 100.472V114.745L100.456 114.732V129.005H86.1863V143.275L71.8993 143.289V157.559L57.6392 157.549V171.819H43.369V186.093L29.0854 186.106V200.376L14.8253 200.366V214.636L14.8152 228.86L29.1055 228.843V214.573L43.3724 214.556V200.282L57.6493 200.265V185.995L71.9161 185.978V171.708L86.1762 171.688V157.418L100.443 157.401V143.131L114.717 143.111V128.841L128.983 128.824V114.554H143.25L143.274 43.3605Z" fill="#E8E8E9"/>
<path d="M157.544 14.83L171.804 14.8334L171.817 29.117H157.517V43.3603H143.274V29.1036L157.517 29.117L157.544 14.83Z" fill="#E8E8E9"/>
<path d="M29.0818 200.376H14.822V243.17H57.6423V228.909H71.9128V243.18H57.6521V257.441H14.8113V243.18H0.551514V200.365H14.8113V186.106H29.0818V200.376ZM86.196 228.897H71.9255V214.626H86.196V228.897ZM114.73 200.363H100.467V214.623H86.196V200.353H100.46V186.092H114.73V200.363ZM43.3689 186.089H29.0984V171.819H43.3689V186.089ZM129.013 186.079H114.743V171.809H129.013V186.079ZM71.8992 157.559H57.6394V171.819H43.3689V157.549H57.6287V143.288H71.8992V157.559ZM157.544 157.545H143.284V171.809H129.013V157.538H143.273V143.275H157.544V157.545ZM86.1863 143.276H71.9158V129.005H86.1863V143.276ZM214.615 143.272H157.544V129.001H214.615V143.272ZM114.717 114.741H100.456V129.002H86.1863V114.732H100.446V100.471H114.717V114.741ZM228.891 128.991H214.621V114.721H228.891V128.991ZM243.178 114.755H228.908V100.485H243.178V114.755ZM257.449 100.468H243.178V57.6165H257.449V100.468ZM129 100.458H114.73V43.3469H129V100.458ZM200.357 71.9172H214.615V86.1877H200.344V71.9446H186.088V57.6741H200.357V71.9172ZM228.901 71.8977H214.632V57.6272H228.901V71.8977ZM186.071 57.6604H171.801V43.3909H186.071V57.6604ZM243.178 57.6174H228.908V43.3469H243.178V57.6174ZM200.341 43.387H186.071V29.1174H200.341V43.387ZM143.273 43.3743H129.004V29.1038H143.273V43.3743ZM157.544 29.0999H143.273V14.8303H157.544V29.0999ZM214.628 29.0999H200.358V14.8303H214.628V29.0999ZM200.358 14.8303H157.544V0.559814H200.358V14.8303Z" fill="#2A2B42"/>
<path d="M200.358 71.9571H186.087V86.2273H200.358V71.9571Z" fill="#928F9A"/>
</svg>
