<svg width="102" height="70" viewBox="0 0 102 70" fill="none" xmlns="http://www.w3.org/2000/svg">
<g clip-path="url(#clip0_888_2518)">
<path opacity="0.5" d="M82.9939 56.9675L90.0001 45.2114L52.2193 31.991L10.2944 35.559L29.155 70.0002L82.9939 56.9675Z" fill="url(#paint0_radial_888_2518)"/>
<g clip-path="url(#clip1_888_2518)">
<path d="M49.2701 0.418213L38.0879 10.2986L49.2701 15.9021L60.4523 6.0217L49.2701 0.418213Z" fill="url(#paint1_linear_888_2518)"/>
<path d="M49.2701 40.4182L38.0879 34.8148V10.2986L49.2701 15.9021V40.4182Z" fill="url(#paint2_linear_888_2518)"/>
<path d="M49.27 40.472L60.4522 34.8685V6.02271L49.27 15.9023V40.472Z" fill="url(#paint3_linear_888_2518)"/>
<path d="M21.1822 41.2882L10 35.6855V15.449L21.1822 21.0525V41.2882Z" fill="url(#paint4_linear_888_2518)"/>
<path d="M21.1816 41.2882L32.3639 35.6855V15.449L21.1816 21.0525V41.2882Z" fill="url(#paint5_linear_888_2518)"/>
<path d="M10 15.4487L21.1822 21.0522L15.5907 11.4697L10 15.4487Z" fill="url(#paint6_linear_888_2518)"/>
<path d="M26.7725 5.86646L15.5903 11.4699L21.1818 21.0524L32.364 15.449L26.7725 5.86646Z" fill="url(#paint7_linear_888_2518)"/>
<path d="M26.8466 32.0522V30.1929L24.9902 31.121V33.0111L26.8466 32.0522Z" fill="#AD1212"/>
<path d="M27.0708 31.9361L28.9279 30.9764V29.1523L27.0708 30.0805V31.9361Z" fill="#AD1212"/>
<path d="M26.8466 32.3059L24.9902 33.2648V35.0889L26.8466 34.1607V32.3059Z" fill="#AD1212"/>
<path d="M27.0708 32.1894V34.048L28.9279 33.1198V31.2297L27.0708 32.1894Z" fill="#AD1212"/>
<path d="M26.8466 23.9516V22.093L24.9902 23.0212V24.9113L26.8466 23.9516Z" fill="#AD1212"/>
<path d="M27.0708 23.8355L28.9279 22.8765V21.0525L27.0708 21.9807V23.8355Z" fill="#AD1212"/>
<path d="M26.8466 24.2051L24.9902 25.164V26.9888L26.8466 26.0607V24.2051Z" fill="#AD1212"/>
<path d="M27.0708 24.0888V25.9481L28.9279 25.0192V23.1299L27.0708 24.0888Z" fill="#AD1212"/>
<path d="M19.4808 40.4539L17.6162 39.5175V35.4185L19.4808 36.3541V40.4539Z" fill="#7380A1"/>
<path d="M15.8622 35.8909L14.5049 35.19V33.856L15.8622 34.535V35.8909Z" fill="white"/>
<path d="M12.7499 34.3408L11.3926 33.6393V32.3059L12.7499 32.9842V34.3408Z" fill="white"/>
<path d="M15.8622 29.0398L14.5049 28.3382V27.0042L15.8622 27.6832V29.0398Z" fill="white"/>
<path d="M15.8622 32.5217L14.5049 31.8202V30.4861L15.8622 31.1651V32.5217Z" fill="white"/>
<path d="M15.8622 25.9636L14.5049 25.2621V23.928L15.8622 24.607V25.9636Z" fill="white"/>
<path d="M19.4814 30.8591L18.124 30.1576V28.8242L19.4814 29.5025V30.8591Z" fill="white"/>
<path d="M19.4814 34.3413L18.124 33.6397V32.3064L19.4814 32.9847V34.3413Z" fill="white"/>
<path d="M19.4814 27.6343L18.124 26.9327V25.5994L19.4814 26.2777V27.6343Z" fill="white"/>
<path d="M12.7499 27.4888L11.3926 26.7872V25.4539L12.7499 26.1322V27.4888Z" fill="white"/>
<path d="M12.7499 30.9707L11.3926 30.2691V28.9358L12.7499 29.6141V30.9707Z" fill="white"/>
<path d="M12.7499 24.283L11.3926 23.5814V22.2481L12.7499 22.9264V24.283Z" fill="white"/>
<path d="M15.8622 22.6836L14.5049 21.9828V20.6487L15.8622 21.3277V22.6836Z" fill="white"/>
<path d="M19.4814 24.5039L18.124 23.8023V22.469L19.4814 23.1473V24.5039Z" fill="white"/>
<path d="M12.7499 21.1333L11.3926 20.4317V19.0984L12.7499 19.7767V21.1333Z" fill="white"/>
<path d="M35.4144 48.3969L24.2329 42.7934V22.7896L35.4144 28.393V48.3969Z" fill="url(#paint8_linear_888_2518)"/>
<path d="M35.4136 48.3969L46.5958 42.7934V22.7896L35.4136 28.393V48.3969Z" fill="url(#paint9_linear_888_2518)"/>
<path d="M30.596 45.9603L28.7314 45.0239V40.9248L30.596 41.8612V45.9603Z" fill="#7380A1"/>
<path d="M26.9218 37.7717L25.5645 37.0702V35.7361L26.9218 36.4151V37.7717Z" fill="white"/>
<path d="M33.87 41.2407L32.5127 40.5399V39.2058L33.87 39.8849V41.2407Z" fill="white"/>
<path d="M26.9218 41.4712L25.5645 40.7696V39.4363L26.9218 40.1146V41.4712Z" fill="white"/>
<path d="M33.87 44.9407L32.5127 44.2391V42.905L33.87 43.5841V44.9407Z" fill="white"/>
<path d="M30.3964 39.5144L29.0391 38.8136V37.4795L30.3964 38.1578V39.5144Z" fill="white"/>
<path d="M26.9218 34.2642L25.5645 33.5626V32.2285L26.9218 32.9076V34.2642Z" fill="white"/>
<path d="M33.87 37.7336L32.5127 37.0321V35.698L33.87 36.377V37.7336Z" fill="white"/>
<path d="M30.3964 36.0066L29.0391 35.3058V33.9717L30.3964 34.6507V36.0066Z" fill="white"/>
<path d="M26.9218 30.7563L25.5645 30.0548V28.7214L26.9218 29.3997V30.7563Z" fill="white"/>
<path d="M33.87 34.2261L32.5127 33.5245V32.1912L33.87 32.8695V34.2261Z" fill="white"/>
<path d="M30.3964 32.4995L29.0391 31.798V30.4639L30.3964 31.1429V32.4995Z" fill="white"/>
<path d="M26.9218 27.2485L25.5645 26.5477V25.2136L26.9218 25.8919V27.2485Z" fill="white"/>
<path d="M33.87 30.7185L32.5127 30.0177V28.6836L33.87 29.3619V30.7185Z" fill="white"/>
<path d="M30.3964 28.9917L29.0391 28.2901V26.9568L30.3964 27.6351V28.9917Z" fill="white"/>
<path d="M43.9834 37.7717L45.3408 37.0702V35.7361L43.9834 36.4151V37.7717Z" fill="white"/>
<path d="M37.0347 41.2407L38.392 40.5399V39.2058L37.0347 39.8849V41.2407Z" fill="white"/>
<path d="M40.5093 39.5144L41.8666 38.8136V37.4795L40.5093 38.1578V39.5144Z" fill="white"/>
<path d="M43.9834 41.2793L45.3408 40.5785V39.2444L43.9834 39.9227V41.2793Z" fill="white"/>
<path d="M37.0347 44.7485L38.392 44.0477V42.7136L37.0347 43.3919V44.7485Z" fill="white"/>
<path d="M40.5093 43.0217L41.8666 42.3202V40.9868L40.5093 41.6651V43.0217Z" fill="white"/>
<path d="M57.6147 26.9656L58.788 26.3599V25.2068L57.6147 25.7931V26.9656Z" fill="white"/>
<path d="M51.6084 29.9647L52.7816 29.3589V28.2058L51.6084 28.7921V29.9647Z" fill="white"/>
<path d="M54.6113 28.4718L55.7845 27.8654V26.7129L54.6113 27.2992V28.4718Z" fill="white"/>
<path d="M57.6147 32.5994L58.788 31.9937V30.8406L57.6147 31.4269V32.5994Z" fill="white"/>
<path d="M51.6084 35.5985L52.7816 34.9927V33.8396L51.6084 34.4259V35.5985Z" fill="white"/>
<path d="M54.6113 34.1055L55.7845 33.4991V32.3467L54.6113 32.933V34.1055Z" fill="white"/>
<path d="M43.9834 34.2642L45.3408 33.5626V32.2285L43.9834 32.9076V34.2642Z" fill="white"/>
<path d="M37.0347 37.7336L38.392 37.0321V35.698L37.0347 36.377V37.7336Z" fill="white"/>
<path d="M40.5093 36.0066L41.8666 35.3058V33.9717L40.5093 34.6507V36.0066Z" fill="white"/>
<path d="M57.6147 21.3325L58.788 20.7261V19.573L57.6147 20.1599V21.3325Z" fill="white"/>
<path d="M51.6084 24.3315L52.7816 23.7251V22.572L51.6084 23.159V24.3315Z" fill="white"/>
<path d="M54.6113 22.8389L55.7845 22.2332V21.0801L54.6113 21.667V22.8389Z" fill="white"/>
<path d="M57.6147 18.5249L58.788 17.9185V16.7654L57.6147 17.3524V18.5249Z" fill="white"/>
<path d="M51.6084 21.5298L52.7816 20.9234V19.7703L51.6084 20.3572V21.5298Z" fill="white"/>
<path d="M54.6113 20.0267L55.7845 19.421V18.2679L54.6113 18.8548V20.0267Z" fill="white"/>
<path d="M57.6147 24.1853L58.788 23.5789V22.4258L57.6147 23.0127V24.1853Z" fill="white"/>
<path d="M51.6084 27.1037L52.7816 26.4973V25.3442L51.6084 25.9311V27.1037Z" fill="white"/>
<path d="M54.6113 25.6868L55.7845 25.0811V23.928L54.6113 24.5149V25.6868Z" fill="white"/>
<path d="M57.6147 29.6938L58.788 29.0874V27.9343L57.6147 28.5213V29.6938Z" fill="white"/>
<path d="M51.6084 32.6929L52.7816 32.0865V30.9333L51.6084 31.5203V32.6929Z" fill="white"/>
<path d="M54.6113 31.2L55.7845 30.5943V29.4412L54.6113 30.0281V31.2Z" fill="white"/>
<path d="M43.9834 30.7563L45.3408 30.0548V28.7214L43.9834 29.3997V30.7563Z" fill="white"/>
<path d="M37.0347 34.2261L38.392 33.5245V32.1912L37.0347 32.8695V34.2261Z" fill="white"/>
<path d="M40.5093 32.4995L41.8666 31.798V30.4639L40.5093 31.1429V32.4995Z" fill="white"/>
<path d="M43.9834 27.2485L45.3408 26.5477V25.2136L43.9834 25.8919V27.2485Z" fill="white"/>
<path d="M37.0347 30.7185L38.392 30.0177V28.6836L37.0347 29.3619V30.7185Z" fill="white"/>
<path d="M40.5093 28.9917L41.8666 28.2901V26.9568L40.5093 27.6351V28.9917Z" fill="white"/>
<path d="M57.6147 15.6981L58.788 15.0923V13.9392L57.6147 14.5255V15.6981Z" fill="white"/>
<path d="M51.6084 18.6971L52.7816 18.0913V16.9382L51.6084 17.5245V18.6971Z" fill="white"/>
<path d="M54.6113 17.2044L55.7845 16.598V15.4456L54.6113 16.0318V17.2044Z" fill="white"/>
<path d="M40.9043 15.6981L39.7311 15.0923V13.9392L40.9043 14.5255V15.6981Z" fill="white"/>
<path d="M47.1016 18.6971L45.9283 18.0913V16.9382L47.1016 17.5245V18.6971Z" fill="white"/>
<path d="M43.7678 17.2044L42.5946 16.598V15.4456L43.7678 16.0318V17.2044Z" fill="white"/>
<path d="M44.8348 19.9841L35.4136 24.5214V28.3931L46.5958 22.7896L44.8348 19.9841Z" fill="url(#paint10_linear_888_2518)"/>
<path d="M25.9939 19.9841L35.4144 24.5214V28.3931L24.2329 22.7896L25.9939 19.9841Z" fill="url(#paint11_linear_888_2518)"/>
<path d="M25.9937 19.9839L35.4141 15.2778L44.8353 19.9839L35.4141 24.5212L25.9937 19.9839Z" fill="url(#paint12_linear_888_2518)"/>
<path fill-rule="evenodd" clip-rule="evenodd" d="M60.3141 10.2656L49.2964 15.9334V15.7863L60.3141 6.052V10.2656Z" fill="url(#paint13_linear_888_2518)"/>
</g>
</g>
<defs>
<radialGradient id="paint0_radial_888_2518" cx="0" cy="0" r="1" gradientUnits="userSpaceOnUse" gradientTransform="translate(38.1691 28.31) rotate(85.3645) scale(41.827 59.8752)">
<stop stop-color="#B9C8E8"/>
<stop offset="0.871359" stop-color="#B9C8E8" stop-opacity="0"/>
</radialGradient>
<linearGradient id="paint1_linear_888_2518" x1="49.2701" y1="0.418213" x2="49.2701" y2="15.9021" gradientUnits="userSpaceOnUse">
<stop stop-color="#3A6BFF"/>
<stop offset="1" stop-color="#5460FF"/>
</linearGradient>
<linearGradient id="paint2_linear_888_2518" x1="43.679" y1="10.2986" x2="43.679" y2="40.4182" gradientUnits="userSpaceOnUse">
<stop stop-color="#CDD6EB"/>
<stop offset="1" stop-color="#909BB8"/>
</linearGradient>
<linearGradient id="paint3_linear_888_2518" x1="54.8611" y1="6.02271" x2="54.8611" y2="40.472" gradientUnits="userSpaceOnUse">
<stop stop-color="#B3C3E4"/>
<stop offset="1" stop-color="#808EAE"/>
</linearGradient>
<linearGradient id="paint4_linear_888_2518" x1="15.5911" y1="15.449" x2="15.5911" y2="41.2882" gradientUnits="userSpaceOnUse">
<stop stop-color="#E1E6F2"/>
<stop offset="1" stop-color="#A8B2CC"/>
</linearGradient>
<linearGradient id="paint5_linear_888_2518" x1="26.7727" y1="15.449" x2="26.7727" y2="41.2882" gradientUnits="userSpaceOnUse">
<stop stop-color="#CAD5F0"/>
<stop offset="1" stop-color="#98A2BB"/>
</linearGradient>
<linearGradient id="paint6_linear_888_2518" x1="15.5911" y1="11.4697" x2="15.5911" y2="21.0522" gradientUnits="userSpaceOnUse">
<stop stop-color="#949AFF"/>
<stop offset="1" stop-color="#787FFF"/>
</linearGradient>
<linearGradient id="paint7_linear_888_2518" x1="23.9772" y1="5.86646" x2="23.9772" y2="21.0524" gradientUnits="userSpaceOnUse">
<stop stop-color="#3A6BFF"/>
<stop offset="1" stop-color="#5460FF"/>
</linearGradient>
<linearGradient id="paint8_linear_888_2518" x1="29.8236" y1="22.7896" x2="29.8236" y2="48.3969" gradientUnits="userSpaceOnUse">
<stop stop-color="#E1E6F2"/>
<stop offset="1" stop-color="#A8B2CC"/>
</linearGradient>
<linearGradient id="paint9_linear_888_2518" x1="41.0047" y1="22.7896" x2="41.0047" y2="48.3969" gradientUnits="userSpaceOnUse">
<stop stop-color="#CAD6F0"/>
<stop offset="1" stop-color="#97A2BA"/>
</linearGradient>
<linearGradient id="paint10_linear_888_2518" x1="41.0047" y1="19.9841" x2="41.0047" y2="28.3931" gradientUnits="userSpaceOnUse">
<stop stop-color="#3037DF"/>
<stop offset="1" stop-color="#3632EF"/>
</linearGradient>
<linearGradient id="paint11_linear_888_2518" x1="29.8236" y1="19.9841" x2="29.8236" y2="28.3931" gradientUnits="userSpaceOnUse">
<stop stop-color="#949AFF"/>
<stop offset="1" stop-color="#7980FF"/>
</linearGradient>
<linearGradient id="paint12_linear_888_2518" x1="35.4145" y1="15.2778" x2="35.4145" y2="24.5212" gradientUnits="userSpaceOnUse">
<stop stop-color="#3A6BFF"/>
<stop offset="1" stop-color="#5460FF"/>
</linearGradient>
<linearGradient id="paint13_linear_888_2518" x1="45.2809" y1="7.57846" x2="54.9269" y2="15.7902" gradientUnits="userSpaceOnUse">
<stop stop-color="#134F95"/>
<stop offset="1" stop-color="#3531EE"/>
</linearGradient>
<clipPath id="clip0_888_2518">
<rect width="102" height="70" rx="13" fill="white"/>
</clipPath>
<clipPath id="clip1_888_2518">
<rect width="50.2475" height="50.5094" fill="white" transform="translate(10 -2.11279)"/>
</clipPath>
</defs>
</svg>
