<svg width="529" height="296" viewBox="0 0 529 296" fill="none" xmlns="http://www.w3.org/2000/svg">
<g clip-path="url(#clip0_55_245)">
<path d="M529 0H0V296H529V0Z" fill="#0D162F"/>
<path d="M65.99 111.28L60.14 121.18L54.29 111.28L44.4 105.44L54.29 99.59L60.14 89.7L65.99 99.59L75.88 105.44L65.99 111.28Z" fill="white"/>
<path d="M468.619 36.0814L464.207 31.669L459.794 36.0814L464.207 40.4937L468.619 36.0814Z" fill="white"/>
<path d="M352.283 152.411L347.871 147.999L343.459 152.411L347.871 156.824L352.283 152.411Z" fill="white"/>
<path d="M406.59 204.27L310.41 180.88L308.12 174.44C306.76 170.62 303.63 167.7 299.73 166.61L277.29 160.35C276.59 160.15 275.88 160.06 275.18 160.06C271.98 160.06 269.01 162.03 267.84 165.16L266 170.09L254.79 167.36C254.01 167.17 253.23 167.08 252.47 167.08C247.24 167.08 242.74 171.32 242.74 176.84V296.01H246.74V176.84C246.74 173.67 249.31 171.08 252.47 171.08C252.93 171.08 253.39 171.14 253.85 171.25L265.06 173.98L268.51 174.82L269.75 171.49L271.59 166.56C272.15 165.07 273.59 164.07 275.18 164.06C275.53 164.06 275.87 164.11 276.21 164.2L298.65 170.46C301.3 171.2 303.43 173.19 304.35 175.78L306.64 182.22L307.36 184.26L309.46 184.77L405.64 208.16C412.18 209.75 416.74 215.56 416.74 222.29V296.01H420.74V222.29C420.74 213.74 414.89 206.3 406.58 204.28L406.59 204.27Z" fill="url(#paint0_linear_55_245)"/>
<path d="M381.24 296V176.83C381.24 173.66 383.81 171.07 386.97 171.07C387.43 171.07 387.89 171.13 388.35 171.24L399.56 173.97L403.01 174.81L404.25 171.48L406.09 166.55C406.65 165.06 408.09 164.05 409.68 164.05C410.03 164.05 410.37 164.1 410.71 164.19L433.15 170.45C435.8 171.19 437.93 173.18 438.85 175.77L441.14 182.21L441.86 184.25L443.96 184.76L529 205.44V201.32L444.9 180.87L442.61 174.43C441.25 170.61 438.12 167.69 434.22 166.6L411.78 160.34C411.08 160.14 410.37 160.05 409.67 160.05C406.47 160.05 403.5 162.02 402.33 165.15L400.49 170.08L389.28 167.35C388.5 167.16 387.72 167.07 386.96 167.07C381.73 167.07 377.23 171.31 377.23 176.83V296H381.23H381.24Z" fill="url(#paint1_linear_55_245)"/>
<path d="M272.1 204.27L175.92 180.88L173.63 174.44C172.27 170.62 169.14 167.7 165.24 166.61L142.8 160.35C138.88 159.26 134.78 161.35 133.36 165.16L131.52 170.09L120.31 167.36C114.17 165.87 108.25 170.52 108.25 176.84V296.01H286.25V222.29C286.25 213.74 280.4 206.3 272.09 204.28L272.1 204.27Z" fill="url(#paint2_linear_55_245)"/>
<path d="M137.6 204.27L41.42 180.88L39.13 174.44C37.77 170.62 34.64 167.7 30.74 166.61L8.29999 160.35C7.59999 160.15 6.88999 160.06 6.18999 160.06C3.75999 160.06 1.46999 161.2 -0.0100098 163.12V173.57L0.75999 171.49L2.59999 166.56C3.15999 165.07 4.59999 164.06 6.18999 164.06C6.53999 164.06 6.87999 164.11 7.21999 164.2L29.66 170.46C32.31 171.2 34.44 173.19 35.36 175.78L37.65 182.22L38.37 184.26L40.47 184.77L136.65 208.16C143.19 209.75 147.75 215.56 147.75 222.29V296.01H151.75V222.29C151.75 213.74 145.9 206.3 137.59 204.28L137.6 204.27Z" fill="url(#paint3_linear_55_245)"/>
<path d="M219.031 189.675L208.644 179.287L198.256 189.675L208.644 200.062L219.031 189.675Z" fill="#6100FF"/>
<path d="M208.64 85.78C219.741 85.78 228.74 76.7809 228.74 65.68C228.74 54.5791 219.741 45.58 208.64 45.58C197.539 45.58 188.54 54.5791 188.54 65.68C188.54 76.7809 197.539 85.78 208.64 85.78Z" fill="white" stroke="#6100FF" stroke-width="5" stroke-miterlimit="10"/>
<path d="M208.64 68.85C210.391 68.85 211.81 67.4307 211.81 65.68C211.81 63.9293 210.391 62.51 208.64 62.51C206.889 62.51 205.47 63.9293 205.47 65.68C205.47 67.4307 206.889 68.85 208.64 68.85Z" fill="#6100FF"/>
<path d="M216.89 68.85C218.641 68.85 220.06 67.4307 220.06 65.68C220.06 63.9293 218.641 62.51 216.89 62.51C215.139 62.51 213.72 63.9293 213.72 65.68C213.72 67.4307 215.139 68.85 216.89 68.85Z" fill="#6100FF"/>
<path d="M200.39 68.85C202.141 68.85 203.56 67.4307 203.56 65.68C203.56 63.9293 202.141 62.51 200.39 62.51C198.639 62.51 197.22 63.9293 197.22 65.68C197.22 67.4307 198.639 68.85 200.39 68.85Z" fill="#6100FF"/>
<path d="M211.27 161.11C211.27 159.652 210.09 158.47 208.635 158.47C207.18 158.47 206 159.652 206 161.11V168.75C206 170.208 207.18 171.39 208.635 171.39C210.09 171.39 211.27 170.208 211.27 168.75V161.11Z" fill="#6100FF"/>
<path d="M211.27 139.71C211.27 138.252 210.09 137.07 208.635 137.07C207.18 137.07 206 138.252 206 139.71V147.35C206 148.808 207.18 149.99 208.635 149.99C210.09 149.99 211.27 148.808 211.27 147.35V139.71Z" fill="#6100FF"/>
<path d="M211.27 118.31C211.27 116.852 210.09 115.67 208.635 115.67C207.18 115.67 206 116.852 206 118.31V125.95C206 127.408 207.18 128.59 208.635 128.59C210.09 128.59 211.27 127.408 211.27 125.95V118.31Z" fill="#6100FF"/>
<path d="M211.27 96.91C211.27 95.452 210.09 94.27 208.635 94.27C207.18 94.27 206 95.452 206 96.91V104.55C206 106.008 207.18 107.19 208.635 107.19C210.09 107.19 211.27 106.008 211.27 104.55V96.91Z" fill="#6100FF"/>
<path d="M411.18 43.11H255C251.117 43.11 247.97 46.2574 247.97 50.14V106.17C247.97 110.053 251.117 113.2 255 113.2H411.18C415.063 113.2 418.21 110.053 418.21 106.17V50.14C418.21 46.2574 415.063 43.11 411.18 43.11Z" fill="#6100FF"/>
<path d="M296.93 54.09H264.51C263.273 54.09 262.27 55.0929 262.27 56.33V58.4C262.27 59.6371 263.273 60.64 264.51 60.64H296.93C298.167 60.64 299.17 59.6371 299.17 58.4V56.33C299.17 55.0929 298.167 54.09 296.93 54.09Z" fill="#E8EEFF"/>
<path d="M296.93 94.27H264.51C263.273 94.27 262.27 95.2729 262.27 96.51V98.58C262.27 99.8171 263.273 100.82 264.51 100.82H296.93C298.167 100.82 299.17 99.8171 299.17 98.58V96.51C299.17 95.2729 298.167 94.27 296.93 94.27Z" fill="#FECACA"/>
<path d="M347.85 94.27H305.59C304.353 94.27 303.35 95.2729 303.35 96.51V98.58C303.35 99.8171 304.353 100.82 305.59 100.82H347.85C349.087 100.82 350.09 99.8171 350.09 98.58V96.51C350.09 95.2729 349.087 94.27 347.85 94.27Z" fill="#E8EEFF"/>
<path d="M317.69 68.86H264.51C263.273 68.86 262.27 69.8629 262.27 71.1V73.17C262.27 74.4071 263.273 75.41 264.51 75.41H317.69C318.927 75.41 319.93 74.4071 319.93 73.17V71.1C319.93 69.8629 318.927 68.86 317.69 68.86Z" fill="#E8EEFF"/>
<path d="M339.83 79.24H264.51C263.273 79.24 262.27 80.2429 262.27 81.48V83.55C262.27 84.7871 263.273 85.79 264.51 85.79H339.83C341.067 85.79 342.07 84.7871 342.07 83.55V81.48C342.07 80.2429 341.067 79.24 339.83 79.24Z" fill="#E8EEFF"/>
<path d="M360.59 68.86H327.7C326.463 68.86 325.46 69.8629 325.46 71.1V73.17C325.46 74.4071 326.463 75.41 327.7 75.41H360.59C361.827 75.41 362.83 74.4071 362.83 73.17V71.1C362.83 69.8629 361.827 68.86 360.59 68.86Z" fill="#99F6E4"/>
</g>
<defs>
<linearGradient id="paint0_linear_55_245" x1="331.74" y1="160.06" x2="331.74" y2="296.01" gradientUnits="userSpaceOnUse">
<stop offset="0.348958" stop-color="white"/>
<stop offset="0.9375" stop-color="white" stop-opacity="0"/>
</linearGradient>
<linearGradient id="paint1_linear_55_245" x1="453.115" y1="160.05" x2="453.115" y2="296" gradientUnits="userSpaceOnUse">
<stop offset="0.348958" stop-color="white"/>
<stop offset="0.9375" stop-color="white" stop-opacity="0"/>
</linearGradient>
<linearGradient id="paint2_linear_55_245" x1="197.25" y1="160.062" x2="197.25" y2="296.01" gradientUnits="userSpaceOnUse">
<stop stop-color="#FFB800"/>
<stop offset="1" stop-color="#FF7F23"/>
</linearGradient>
<linearGradient id="paint3_linear_55_245" x1="75.87" y1="160.06" x2="75.87" y2="296.01" gradientUnits="userSpaceOnUse">
<stop offset="0.348958" stop-color="white"/>
<stop offset="0.9375" stop-color="white" stop-opacity="0"/>
</linearGradient>
<clipPath id="clip0_55_245">
<rect width="529" height="296" fill="white"/>
</clipPath>
</defs>
</svg>
