<svg width="529" height="296" viewBox="0 0 529 296" fill="none" xmlns="http://www.w3.org/2000/svg">
<g clip-path="url(#clip0_55_321)">
<path d="M529 0H0V296H529V0Z" fill="#8000FF"/>
<circle cx="263.5" cy="155.5" r="95.5" fill="url(#paint0_linear_55_321)"/>
<path d="M87.58 195.59L81.74 205.48L75.89 195.59L66 189.74L75.89 183.9L81.74 174L87.58 183.9L97.48 189.74L87.58 195.59Z" fill="white"/>
<path d="M456.825 139.412L452.412 135L448 139.412L452.412 143.825L456.825 139.412Z" fill="white"/>
<path d="M401.825 231.412L397.412 227L393 231.412L397.412 235.825L401.825 231.412Z" fill="white"/>
<path d="M257.41 236.32C306.188 236.32 345.73 196.778 345.73 148C345.73 99.2222 306.188 59.68 257.41 59.68C208.632 59.68 169.09 99.2222 169.09 148C169.09 196.778 208.632 236.32 257.41 236.32Z" fill="#14B8A6"/>
<path d="M257.41 148V59.68C241.02 59.68 225.68 64.16 212.52 71.94L257.41 148Z" fill="black"/>
<path d="M321.63 87.4C305.53 70.34 282.72 59.68 257.41 59.68V148L321.63 87.4Z" fill="#CCFBF1"/>
<path d="M257.41 148L344.14 164.67C345.17 159.27 345.73 153.7 345.73 148C345.73 124.53 336.56 103.22 321.63 87.4L257.41 148Z" fill="#99F6E4"/>
<path d="M216.04 226.03C228.38 232.59 242.46 236.32 257.41 236.32C300.49 236.32 336.34 205.48 344.14 164.67L257.41 148L216.04 226.03Z" fill="#5EEAD4"/>
<path d="M257.41 240.72C206.29 240.72 164.69 199.13 164.69 148C164.69 96.87 206.28 55.28 257.41 55.28C308.54 55.28 350.13 96.87 350.13 148C350.13 199.13 308.54 240.72 257.41 240.72ZM257.41 64.08C211.13 64.08 173.48 101.73 173.48 148.01C173.48 194.29 211.13 231.94 257.41 231.94C303.69 231.94 341.34 194.29 341.34 148.01C341.34 101.73 303.69 64.08 257.41 64.08Z" fill="white"/>
<path opacity="0.25" d="M176.9 102.05L206 144L201.8 73.81C191.7 81.4 183.21 91.02 176.9 102.04V102.05Z" fill="url(#paint1_linear_55_321)"/>
<path d="M206.27 144.42L173.62 62.35C158.39 68.41 145.79 78.24 136.44 90.34L206.26 144.42H206.27Z" fill="#F87171"/>
<path d="M160.66 108.77C161.36 108.51 162.75 108.67 163.12 109.46C163.49 110.25 163.71 111.28 163.72 111.03C163.69 110.27 163.76 109.52 163.91 108.77C164.07 108.3 164.45 107.92 164.92 107.76C165.36 107.62 165.82 107.59 166.27 107.67C166.72 107.76 167.13 108.03 167.4 108.4C167.74 109.25 167.94 110.16 167.97 111.08C168.01 110.3 168.14 109.52 168.37 108.77C168.61 108.43 168.97 108.18 169.38 108.07C169.86 107.98 170.36 107.98 170.85 108.07C171.25 108.2 171.6 108.45 171.85 108.79C172.16 109.57 172.35 110.39 172.41 111.22C172.41 111.43 172.51 110.65 172.83 110.14C173.09 109.37 173.92 108.96 174.69 109.22C175.46 109.48 175.87 110.31 175.61 111.08V114.39C175.56 115.25 175.44 116.1 175.26 116.94C175.01 117.68 174.65 118.39 174.21 119.03C173.5 119.82 172.91 120.72 172.47 121.68C172.36 122.16 172.31 122.65 172.32 123.15C172.32 123.61 172.38 124.06 172.5 124.5C171.9 124.56 171.3 124.56 170.7 124.5C170.13 124.41 169.43 123.27 169.23 122.92C169.14 122.73 168.94 122.61 168.73 122.61C168.52 122.61 168.33 122.73 168.23 122.92C167.91 123.48 167.19 124.49 166.76 124.55C165.78 124.67 163.74 124.55 162.16 124.55C162.16 124.55 162.44 123.08 161.82 122.56C161.2 122.04 160.6 121.42 160.15 121.01L158.93 119.66C158.07 118.86 157.45 117.85 157.11 116.73C156.8 115.35 156.83 114.69 157.11 114.14C157.39 113.68 157.84 113.34 158.36 113.19C158.79 113.11 159.23 113.14 159.65 113.28C159.94 113.4 160.19 113.6 160.37 113.85C160.71 114.3 160.82 114.52 160.68 114.03C160.54 113.54 160.21 113.17 160.05 112.56C159.74 111.85 159.55 111.09 159.49 110.32C159.55 109.63 160.03 109.04 160.71 108.85" fill="white"/>
<path d="M160.66 108.77C161.36 108.51 162.75 108.67 163.12 109.46C163.49 110.25 163.71 111.28 163.72 111.03C163.69 110.27 163.76 109.52 163.91 108.77C164.07 108.3 164.45 107.92 164.92 107.76C165.36 107.62 165.82 107.59 166.27 107.67C166.72 107.76 167.13 108.03 167.4 108.4C167.74 109.25 167.94 110.16 167.97 111.08C168.01 110.3 168.14 109.52 168.37 108.77C168.61 108.43 168.97 108.18 169.38 108.07C169.86 107.98 170.36 107.98 170.85 108.07C171.25 108.2 171.6 108.45 171.85 108.79C172.16 109.57 172.35 110.39 172.41 111.22C172.41 111.43 172.51 110.65 172.83 110.14C173.09 109.37 173.92 108.96 174.69 109.22C175.46 109.48 175.87 110.31 175.61 111.08V114.39C175.56 115.25 175.44 116.1 175.26 116.94C175.01 117.68 174.65 118.39 174.21 119.03C173.5 119.82 172.91 120.72 172.47 121.68C172.36 122.16 172.31 122.65 172.32 123.15C172.32 123.61 172.38 124.06 172.5 124.5C171.9 124.56 171.3 124.56 170.7 124.5C170.13 124.41 169.43 123.27 169.23 122.92C169.14 122.73 168.94 122.61 168.73 122.61C168.52 122.61 168.33 122.73 168.23 122.92C167.91 123.48 167.19 124.49 166.76 124.55C165.78 124.67 163.74 124.55 162.16 124.55C162.16 124.55 162.44 123.08 161.82 122.56C161.2 122.04 160.6 121.42 160.15 121.01L158.93 119.66C158.07 118.86 157.45 117.85 157.11 116.73C156.8 115.35 156.83 114.69 157.11 114.14C157.39 113.68 157.84 113.34 158.36 113.19C158.79 113.11 159.23 113.14 159.65 113.28C159.94 113.4 160.19 113.6 160.37 113.85C160.71 114.3 160.82 114.52 160.68 114.03C160.54 113.54 160.21 113.17 160.05 112.56C159.74 111.85 159.55 111.09 159.49 110.32C159.52 109.62 159.99 109.01 160.66 108.8V108.77Z" stroke="black" stroke-width="2" stroke-linejoin="round"/>
<path d="M170.96 119.61V114.55C170.96 114.25 170.71 114 170.41 114C170.11 114 169.86 114.25 169.86 114.55V119.61C169.86 119.91 170.11 120.16 170.41 120.16C170.71 120.16 170.96 119.91 170.96 119.61Z" fill="black"/>
<path d="M168.05 119.61L168.02 114.55C168.02 114.25 167.77 114 167.47 114.01C167.17 114.01 166.92 114.26 166.92 114.56L166.95 119.62C166.95 119.92 167.2 120.17 167.5 120.16C167.8 120.15 168.05 119.91 168.05 119.61Z" fill="black"/>
<path d="M164 114.57L164.03 119.62C164.03 119.93 164.28 120.17 164.58 120.17C164.88 120.17 165.13 119.92 165.13 119.61L165.1 114.56C165.1 114.25 164.85 114.01 164.55 114.01C164.25 114.01 164 114.26 164 114.57Z" fill="black"/>
<path d="M89.33 113.59C102.309 113.59 112.83 103.069 112.83 90.09C112.83 77.1113 102.309 66.59 89.33 66.59C76.3513 66.59 65.83 77.1113 65.83 90.09C65.83 103.069 76.3513 113.59 89.33 113.59Z" fill="white" stroke="#F87171" stroke-width="5" stroke-miterlimit="10"/>
<path d="M114.12 97.99L129.11 90.09L114.12 82.19V97.99Z" fill="#F87171"/>
<path d="M97.5 75.24L89.05 83.69L80.81 75.45C78.05 77.06 75.78 79.43 74.3 82.28L82.38 90.36L74.49 98.25C76.04 101.05 78.35 103.37 81.16 104.92L89.05 97.03L97.13 105.11C99.98 103.63 102.34 101.36 103.96 98.6L95.72 90.36L104.17 81.91C102.62 79.11 100.31 76.79 97.5 75.24Z" fill="#F87171"/>
</g>
<defs>
<linearGradient id="paint0_linear_55_321" x1="138" y1="-26.5" x2="316.5" y2="218.5" gradientUnits="userSpaceOnUse">
<stop/>
<stop offset="1" stop-opacity="0"/>
</linearGradient>
<linearGradient id="paint1_linear_55_321" x1="199.5" y1="137.5" x2="195" y2="57" gradientUnits="userSpaceOnUse">
<stop offset="0.286569"/>
<stop offset="0.672099" stop-opacity="0"/>
</linearGradient>
<clipPath id="clip0_55_321">
<rect width="529" height="296" fill="white"/>
</clipPath>
</defs>
</svg>
