<svg width="529" height="296" viewBox="0 0 529 296" fill="none" xmlns="http://www.w3.org/2000/svg">
<g clip-path="url(#clip0_55_344)">
<path d="M529 0H0V296H529V0Z" fill="#FFA800"/>
<path d="M185.25 49.07L179.4 58.97L173.56 49.07L163.66 43.23L173.56 37.38L179.4 27.49L185.25 37.38L195.14 43.23L185.25 49.07Z" fill="white"/>
<path d="M329.825 250.412L325.412 246L321 250.412L325.412 254.825L329.825 250.412Z" fill="white"/>
<path d="M475.698 57.7811L471.286 53.3688L466.873 57.7811L471.286 62.1935L475.698 57.7811Z" fill="white"/>
<path d="M56.47 158.41L82.67 139.82V158.41H56.47Z" fill="#4B79FE"/>
<path d="M167.92 218.24H71.3699C69.1699 218.24 67.3699 216.46 67.3699 214.24V84.47C67.3699 82.27 69.1499 80.47 71.3699 80.47H150.01L171.91 104.11V214.24C171.91 216.44 170.13 218.24 167.91 218.24H167.92Z" fill="white"/>
<path d="M147.87 125.5H91.0499C89.8699 125.5 88.9099 126.46 88.9099 127.64C88.9099 128.83 89.8699 129.79 91.0499 129.79H147.87C149.05 129.79 150.01 128.83 150.01 127.65C150.01 126.46 149.05 125.5 147.87 125.5Z" fill="#4F46E5"/>
<path d="M147.87 148.23H91.0499C89.8699 148.23 88.9099 149.19 88.9099 150.37C88.9099 151.56 89.8699 152.52 91.0499 152.52H147.87C149.05 152.52 150.01 151.56 150.01 150.38C150.01 149.19 149.05 148.23 147.87 148.23Z" fill="#4F46E5"/>
<path d="M131.33 170.96H91.0499C89.8699 170.96 88.9099 171.92 88.9099 173.1C88.9099 174.29 89.8699 175.25 91.0499 175.25H131.33C132.51 175.25 133.47 174.29 133.47 173.11C133.47 171.92 132.51 170.96 131.33 170.96Z" fill="#4F46E5"/>
<path d="M171.91 104.11H153.87C151.74 104.11 150.01 102.38 150.01 100.25V80.47L171.91 104.11Z" fill="#3F71FF"/>
<path d="M56.47 158.44H107.47C109.85 158.44 111.79 160.37 111.79 162.76V201.23C111.79 203.61 109.86 205.55 107.47 205.55H60.79C58.41 205.55 56.47 203.62 56.47 201.23V158.44Z" fill="#80A1FF"/>
<path d="M84.1998 182.72L79.3598 194.41H75.1398L69.8398 172.39H74.6199L77.9598 187.03L84.1898 172.02L90.4198 187.03L93.7598 172.39H98.5398L93.2398 194.41H89.0198L84.1798 182.72H84.1998Z" fill="white"/>
<path d="M94.1899 205.35L67.3799 210.82V205.35H94.1899Z" fill="url(#paint0_linear_55_344)"/>
<path d="M159.31 104.11L171.91 106.52V104.11H159.31Z" fill="url(#paint1_linear_55_344)"/>
<path d="M201.32 158.31L227.52 139.73V158.31H201.32Z" fill="#0D9488"/>
<path d="M312.76 218.3H216.21C214.01 218.3 212.21 216.52 212.21 214.3V84.53C212.21 82.33 213.99 80.53 216.21 80.53H294.85L316.75 104.17V214.3C316.75 216.5 314.97 218.3 312.75 218.3H312.76Z" fill="white"/>
<path d="M316.75 104.18H298.71C296.58 104.18 294.85 102.45 294.85 100.32V80.54L316.75 104.18Z" fill="#0D9488"/>
<path d="M239.03 205.4L212.22 210.87V205.4H239.03Z" fill="url(#paint2_linear_55_344)"/>
<path d="M304.15 104.18L316.75 106.58V104.18H304.15Z" fill="url(#paint3_linear_55_344)"/>
<path d="M233.74 115.96H275.36V124.43H228.97V120.73C228.97 118.09 231.11 115.95 233.75 115.95H233.74V115.96Z" fill="#E0E7FF"/>
<path d="M300.02 115.96H270.63V124.43H300.02V115.96Z" fill="#C7D2FE"/>
<path d="M316.75 115.96H300.02V124.43H316.75V115.96Z" fill="#E0E7FF"/>
<path d="M275.37 124.43H228.97V132.9H275.37V124.43Z" fill="#C7D2FE"/>
<path d="M300.02 124.43H270.63V132.9H300.02V124.43Z" fill="#E0E7FF"/>
<path d="M316.75 124.43H300.02V132.9H316.75V124.43Z" fill="#C7D2FE"/>
<path d="M275.37 132.9H228.97V141.37H275.37V132.9Z" fill="#E0E7FF"/>
<path d="M300.02 132.9H270.63V141.37H300.02V132.9Z" fill="#C7D2FE"/>
<path d="M316.75 132.9H300.02V141.37H316.75V132.9Z" fill="#E0E7FF"/>
<path d="M275.37 141.37H228.97V149.84H275.37V141.37Z" fill="#C7D2FE"/>
<path d="M300.02 141.37H270.63V149.84H300.02V141.37Z" fill="#E0E7FF"/>
<path d="M316.75 141.37H300.02V149.84H316.75V141.37Z" fill="#C7D2FE"/>
<path d="M275.37 149.83H228.97V158.3H275.37V149.83Z" fill="#E0E7FF"/>
<path d="M300.02 149.83H270.63V158.3H300.02V149.83Z" fill="#C7D2FE"/>
<path d="M316.75 149.83H300.02V158.3H316.75V149.83Z" fill="#E0E7FF"/>
<path d="M275.37 158.31H228.97V166.78H275.37V158.31Z" fill="#C7D2FE"/>
<path d="M300.02 158.31H270.63V166.78H300.02V158.31Z" fill="#E0E7FF"/>
<path d="M316.75 158.31H300.02V166.78H316.75V158.31Z" fill="#C7D2FE"/>
<path d="M275.37 166.77H228.97V175.24H275.37V166.77Z" fill="#E0E7FF"/>
<path d="M300.02 166.77H270.63V175.24H300.02V166.77Z" fill="#C7D2FE"/>
<path d="M316.75 166.77H300.02V175.24H316.75V166.77Z" fill="#E0E7FF"/>
<path d="M275.37 175.25H228.97V183.72H275.37V175.25Z" fill="#C7D2FE"/>
<path d="M300.02 175.25H270.63V183.72H300.02V175.25Z" fill="#E0E7FF"/>
<path d="M316.75 175.25H300.02V183.72H316.75V175.25Z" fill="#C7D2FE"/>
<path d="M275.37 183.72H228.97V192.19H275.37V183.72Z" fill="#E0E7FF"/>
<path d="M300.02 183.72H270.63V192.19H300.02V183.72Z" fill="#C7D2FE"/>
<path d="M316.75 183.72H300.02V192.19H316.75V183.72Z" fill="#E0E7FF"/>
<path d="M275.37 192.18H228.97V200.65H275.37V192.18Z" fill="#C7D2FE"/>
<path d="M300.02 192.18H270.63V200.65H300.02V192.18Z" fill="#E0E7FF"/>
<path d="M316.75 192.18H300.02V200.65H316.75V192.18Z" fill="#C7D2FE"/>
<path d="M201.32 158.31H252.32C254.7 158.31 256.64 160.24 256.64 162.63V201.1C256.64 203.48 254.71 205.42 252.32 205.42H205.64C203.26 205.42 201.32 203.49 201.32 201.1V158.31Z" fill="#2DD4BF"/>
<path d="M214.28 181.8C214.28 184.65 216.45 186.88 219.43 186.88C221.66 186.88 223.65 185.46 224.19 183.37H222.02C221.61 184.35 220.54 184.95 219.43 184.95C217.55 184.95 216.3 183.57 216.3 181.81C216.3 180.05 217.54 178.67 219.43 178.67C220.54 178.67 221.6 179.26 222.02 180.25H224.19C223.65 178.16 221.66 176.74 219.43 176.74C216.46 176.74 214.28 178.97 214.28 181.82V181.8Z" fill="white"/>
<path d="M225.85 183.67C225.93 185.29 227.27 186.88 229.63 186.88C231.69 186.88 233.05 185.63 233.05 183.96C233.05 182.44 232.1 181.43 230.5 180.99L229.35 180.67C228.55 180.43 228.11 180.1 228.12 179.49C228.13 178.91 228.69 178.58 229.39 178.58C229.97 178.58 230.62 178.88 230.84 179.71H232.83C232.76 178.24 231.5 176.72 229.39 176.72C227.43 176.72 226.08 177.81 226.1 179.62C226.11 181.11 227.12 182.08 228.67 182.52L229.71 182.82C230.65 183.08 231.02 183.48 231.02 184.01C231.02 184.63 230.43 185.01 229.62 185.01C228.75 185.01 227.99 184.54 227.85 183.65H225.84L225.85 183.67Z" fill="white"/>
<path d="M238.16 186.71H239.94L244.01 176.89H241.8L239.06 183.71L236.28 176.89H234.11L238.16 186.71Z" fill="white"/>
<path d="M346.16 158.25L372.36 139.67V158.25H346.16Z" fill="#DC2626"/>
<path d="M457.61 218.24H361.06C358.86 218.24 357.06 216.46 357.06 214.24V84.47C357.06 82.27 358.84 80.47 361.06 80.47H439.7L461.6 104.11V214.24C461.6 216.44 459.82 218.24 457.6 218.24H457.61Z" fill="white"/>
<path d="M404.58 114.62H370.07C369.1 114.62 368.32 115.4 368.32 116.37V196.58C368.32 197.55 369.1 198.33 370.07 198.33H404.58C405.55 198.33 406.33 197.55 406.33 196.58V116.37C406.33 115.4 405.55 114.62 404.58 114.62Z" fill="#A5B4FC"/>
<path d="M428.41 89.95H370.07C369.1 89.95 368.32 90.73 368.32 91.7V105.05C368.32 106.02 369.1 106.8 370.07 106.8H428.41C429.38 106.8 430.16 106.02 430.16 105.05V91.7C430.16 90.73 429.38 89.95 428.41 89.95Z" fill="#A5B4FC"/>
<path d="M448.58 114.62H414.07C413.1 114.62 412.32 115.4 412.32 116.37V131.6C412.32 132.57 413.1 133.35 414.07 133.35H448.58C449.55 133.35 450.33 132.57 450.33 131.6V116.37C450.33 115.4 449.55 114.62 448.58 114.62Z" fill="#A5B4FC"/>
<path d="M448.19 139.63H414.45C413.27 139.63 412.31 140.59 412.31 141.77C412.31 142.96 413.27 143.92 414.45 143.92H448.19C449.37 143.92 450.33 142.96 450.33 141.78C450.33 140.59 449.37 139.63 448.19 139.63Z" fill="#4F46E5"/>
<path d="M448.19 152.3H414.45C413.27 152.3 412.31 153.26 412.31 154.44C412.31 155.63 413.27 156.59 414.45 156.59H448.19C449.37 156.59 450.33 155.63 450.33 154.45C450.33 153.26 449.37 152.3 448.19 152.3Z" fill="#4F46E5"/>
<path d="M448.19 164.97H414.45C413.27 164.97 412.31 165.93 412.31 167.11C412.31 168.3 413.27 169.26 414.45 169.26H448.19C449.37 169.26 450.33 168.3 450.33 167.12C450.33 165.93 449.37 164.97 448.19 164.97Z" fill="#4F46E5"/>
<path d="M435.82 177.64H414.46C413.28 177.64 412.32 178.6 412.32 179.78C412.32 180.97 413.28 181.93 414.46 181.93H435.82C437 181.93 437.96 180.97 437.96 179.79C437.96 178.6 437 177.64 435.82 177.64Z" fill="#4F46E5"/>
<path d="M461.59 104.11H443.55C441.42 104.11 439.69 102.38 439.69 100.25V80.47L461.59 104.11Z" fill="#DC2626"/>
<path d="M346.16 158.25H397.16C399.54 158.25 401.48 160.18 401.48 162.57V201.04C401.48 203.42 399.55 205.36 397.16 205.36H350.48C348.1 205.36 346.16 203.43 346.16 201.04V158.25Z" fill="#F87171"/>
<path d="M388.24 186.78C385.91 184.37 379.56 185.35 378.05 185.53C375.82 183.38 374.3 180.79 373.75 179.9C374.55 177.48 375.1 175.07 375.18 172.47C375.18 170.24 374.28 167.82 371.78 167.82C370.88 167.82 370.08 168.35 369.63 169.07C368.56 170.95 369 174.7 370.7 178.55C369.72 181.32 368.82 184 366.32 188.74C363.72 189.81 358.27 192.32 357.82 195C357.64 195.8 357.91 196.61 358.54 197.23C359.17 197.76 359.97 198.03 360.77 198.03C364.08 198.03 367.3 193.47 369.53 189.62C371.41 188.99 374.36 188.1 377.31 187.57C380.79 190.62 383.84 191.05 385.45 191.05C387.6 191.05 388.4 190.15 388.67 189.35C389.12 188.45 388.85 187.47 388.22 186.75H388.23L388.24 186.78ZM386.01 188.31C385.92 188.94 385.11 189.56 383.68 189.21C381.98 188.76 380.46 187.96 379.12 186.88C380.28 186.7 382.87 186.43 384.75 186.79C385.47 186.97 386.18 187.42 386 188.31H386.01ZM371.07 169.89C371.25 169.62 371.52 169.44 371.79 169.44C372.59 169.44 372.77 170.42 372.77 171.22C372.68 173.1 372.32 174.97 371.7 176.77C370.35 173.19 370.63 170.69 371.07 169.89ZM370.89 187.24C371.61 185.81 372.59 183.31 372.94 182.23C373.74 183.58 375.09 185.18 375.8 185.9C375.8 185.99 373.03 186.53 370.88 187.25L370.89 187.24ZM365.61 190.82C363.56 194.22 361.41 196.37 360.25 196.37C360.07 196.37 359.9 196.28 359.72 196.19C359.45 196.01 359.37 195.74 359.45 195.39C359.72 194.14 362.05 192.44 365.62 190.83L365.61 190.82Z" fill="white"/>
<path d="M449 104.11L461.6 106.52V104.11H449Z" fill="url(#paint4_linear_55_344)"/>
<path d="M384.03 205.4L357.22 210.87V205.4H384.03Z" fill="url(#paint5_linear_55_344)"/>
</g>
<defs>
<linearGradient id="paint0_linear_55_344" x1="80.7799" y1="205.34" x2="80.7799" y2="210.81" gradientUnits="userSpaceOnUse">
<stop stop-color="#C7D2FE"/>
<stop offset="1" stop-color="#E8EEFF" stop-opacity="0"/>
</linearGradient>
<linearGradient id="paint1_linear_55_344" x1="165.61" y1="104.11" x2="165.61" y2="106.53" gradientUnits="userSpaceOnUse">
<stop stop-color="#C7D2FE"/>
<stop offset="1" stop-color="#E8EEFF" stop-opacity="0"/>
</linearGradient>
<linearGradient id="paint2_linear_55_344" x1="225.62" y1="205.4" x2="225.62" y2="210.87" gradientUnits="userSpaceOnUse">
<stop stop-color="#C7D2FE"/>
<stop offset="1" stop-color="#E8EEFF" stop-opacity="0"/>
</linearGradient>
<linearGradient id="paint3_linear_55_344" x1="310.45" y1="104.18" x2="310.45" y2="106.58" gradientUnits="userSpaceOnUse">
<stop stop-color="#C7D2FE"/>
<stop offset="1" stop-color="#E8EEFF" stop-opacity="0"/>
</linearGradient>
<linearGradient id="paint4_linear_55_344" x1="455.29" y1="104.11" x2="455.29" y2="106.53" gradientUnits="userSpaceOnUse">
<stop stop-color="#C7D2FE"/>
<stop offset="1" stop-color="#E8EEFF" stop-opacity="0"/>
</linearGradient>
<linearGradient id="paint5_linear_55_344" x1="370.62" y1="205.4" x2="370.62" y2="210.87" gradientUnits="userSpaceOnUse">
<stop stop-color="#C7D2FE"/>
<stop offset="1" stop-color="#E8EEFF" stop-opacity="0"/>
</linearGradient>
<clipPath id="clip0_55_344">
<rect width="529" height="296" fill="white"/>
</clipPath>
</defs>
</svg>
