<svg width="529" height="296" viewBox="0 0 529 296" fill="none" xmlns="http://www.w3.org/2000/svg">
<g clip-path="url(#clip0_55_271)">
<path d="M529 0H0V296H529V0Z" fill="#2CFBE1"/>
<path d="M468.58 168.59L462.74 178.48L456.89 168.59L447 162.74L456.89 156.9L462.74 147L468.58 156.9L478.48 162.74L468.58 168.59Z" fill="white"/>
<path d="M55.2734 72.4123L50.861 68L46.4487 72.4123L50.861 76.8247L55.2734 72.4123Z" fill="white"/>
<path d="M324.825 260.412L320.412 256L316 260.412L320.412 264.825L324.825 260.412Z" fill="white"/>
<path d="M374.357 54H101.102C97.4328 54 94.4586 56.9724 94.4586 60.639L67 237.361C67 241.028 69.9741 244 73.6429 244L374.357 216.255C378.026 216.255 381 213.282 381 209.616V60.639C381 56.9724 378.026 54 374.357 54Z" fill="url(#paint0_radial_55_271)"/>
<path d="M376.55 43.11H98.6C95.209 43.11 92.46 45.859 92.46 49.25V212.69C92.46 216.081 95.209 218.83 98.6 218.83H376.55C379.941 218.83 382.69 216.081 382.69 212.69V49.25C382.69 45.859 379.941 43.11 376.55 43.11Z" fill="black"/>
<path d="M337.6 125.4C350.579 125.4 361.1 114.879 361.1 101.9C361.1 88.9213 350.579 78.4 337.6 78.4C324.621 78.4 314.1 88.9213 314.1 101.9C314.1 114.879 324.621 125.4 337.6 125.4Z" fill="white" stroke="#6100FF" stroke-width="5" stroke-miterlimit="10"/>
<path d="M312.81 94L297.81 101.9L312.81 109.81V94Z" fill="#6100FF"/>
<path d="M294.14 190.8C307.119 190.8 317.64 180.279 317.64 167.3C317.64 154.321 307.119 143.8 294.14 143.8C281.161 143.8 270.64 154.321 270.64 167.3C270.64 180.279 281.161 190.8 294.14 190.8Z" fill="white" stroke="#6100FF" stroke-width="5" stroke-miterlimit="10"/>
<path d="M269.35 159.4L254.35 167.3L269.35 175.2V159.4Z" fill="#6100FF"/>
<path d="M170.42 72.34H131.22C129.983 72.34 128.98 73.3429 128.98 74.58V77.76C128.98 78.9971 129.983 80 131.22 80H170.42C171.657 80 172.66 78.9971 172.66 77.76V74.58C172.66 73.3429 171.657 72.34 170.42 72.34Z" fill="#E8EEFF"/>
<path d="M202 98.08H131.22C129.983 98.08 128.98 99.0829 128.98 100.32V103.5C128.98 104.737 129.983 105.74 131.22 105.74H202C203.237 105.74 204.24 104.737 204.24 103.5V100.32C204.24 99.0829 203.237 98.08 202 98.08Z" fill="#99F6E4"/>
<path d="M272.84 98.08H218.24C217.003 98.08 216 99.0829 216 100.32V103.5C216 104.737 217.003 105.74 218.24 105.74H272.84C274.077 105.74 275.08 104.737 275.08 103.5V100.32C275.08 99.0829 274.077 98.08 272.84 98.08Z" fill="#FEF3C7"/>
<path d="M202 132.85H131.22C129.983 132.85 128.98 133.853 128.98 135.09V138.27C128.98 139.507 129.983 140.51 131.22 140.51H202C203.237 140.51 204.24 139.507 204.24 138.27V135.09C204.24 133.853 203.237 132.85 202 132.85Z" fill="#FECACA"/>
<path d="M251.39 132.85H218.24C217.003 132.85 216 133.853 216 135.09V138.27C216 139.507 217.003 140.51 218.24 140.51H251.39C252.627 140.51 253.63 139.507 253.63 138.27V135.09C253.63 133.853 252.627 132.85 251.39 132.85Z" fill="#E8EEFF"/>
<path d="M175.26 115.46H131.22C129.983 115.46 128.98 116.463 128.98 117.7V120.88C128.98 122.117 129.983 123.12 131.22 123.12H175.26C176.497 123.12 177.5 122.117 177.5 120.88V117.7C177.5 116.463 176.497 115.46 175.26 115.46Z" fill="#E8EEFF"/>
<path d="M234.26 115.46H190.22C188.983 115.46 187.98 116.463 187.98 117.7V120.88C187.98 122.117 188.983 123.12 190.22 123.12H234.26C235.497 123.12 236.5 122.117 236.5 120.88V117.7C236.5 116.463 235.497 115.46 234.26 115.46Z" fill="#E8EEFF"/>
<path d="M175.26 163.47H131.22C129.983 163.47 128.98 164.473 128.98 165.71V168.89C128.98 170.127 129.983 171.13 131.22 171.13H175.26C176.497 171.13 177.5 170.127 177.5 168.89V165.71C177.5 164.473 176.497 163.47 175.26 163.47Z" fill="#E8EEFF"/>
<path d="M234.26 163.47H190.22C188.983 163.47 187.98 164.473 187.98 165.71V168.89C187.98 170.127 188.983 171.13 190.22 171.13H234.26C235.497 171.13 236.5 170.127 236.5 168.89V165.71C236.5 164.473 235.497 163.47 234.26 163.47Z" fill="#99F6E4"/>
<path d="M292.42 115.46H248.38C247.143 115.46 246.14 116.463 246.14 117.7V120.88C246.14 122.117 247.143 123.12 248.38 123.12H292.42C293.657 123.12 294.66 122.117 294.66 120.88V117.7C294.66 116.463 293.657 115.46 292.42 115.46Z" fill="#99F6E4"/>
<path d="M304.14 157.18H284.14C283.096 157.18 282.25 158.026 282.25 159.07V159.72C282.25 160.764 283.096 161.61 284.14 161.61H304.14C305.184 161.61 306.03 160.764 306.03 159.72V159.07C306.03 158.026 305.184 157.18 304.14 157.18Z" fill="#6100FF"/>
<path d="M304.14 165.09H284.14C283.096 165.09 282.25 165.936 282.25 166.98V167.63C282.25 168.674 283.096 169.52 284.14 169.52H304.14C305.184 169.52 306.03 168.674 306.03 167.63V166.98C306.03 165.936 305.184 165.09 304.14 165.09Z" fill="#6100FF"/>
<path d="M295.89 172.99H284.14C283.096 172.99 282.25 173.836 282.25 174.88V175.53C282.25 176.574 283.096 177.42 284.14 177.42H295.89C296.934 177.42 297.78 176.574 297.78 175.53V174.88C297.78 173.836 296.934 172.99 295.89 172.99Z" fill="#6100FF"/>
<path d="M337.03 100.5C332.89 96.36 326.17 96.36 322.03 100.5L320.43 102.1C320.54 111.49 328.17 119.08 337.59 119.08C342.54 119.08 346.99 116.97 350.13 113.61L337.02 100.5H337.03Z" fill="#6100FF"/>
<path d="M345.6 97.93C347.771 97.93 349.53 96.1705 349.53 94C349.53 91.8295 347.771 90.07 345.6 90.07C343.43 90.07 341.67 91.8295 341.67 94C341.67 96.1705 343.43 97.93 345.6 97.93Z" fill="#6100FF"/>
<path d="M352.37 110.63C353.89 108.07 354.77 105.09 354.77 101.9C354.77 101.14 354.7 100.39 354.61 99.66L346.88 105.13L352.38 110.63H352.37Z" fill="#6100FF"/>
</g>
<defs>
<radialGradient id="paint0_radial_55_271" cx="0" cy="0" r="1" gradientUnits="userSpaceOnUse" gradientTransform="translate(152.881 137.322) rotate(128.924) scale(136.898 486.922)">
<stop stop-color="#0D9488"/>
<stop offset="0.871469" stop-color="#0D9488" stop-opacity="0"/>
</radialGradient>
<clipPath id="clip0_55_271">
<rect width="529" height="296" fill="white"/>
</clipPath>
</defs>
</svg>
