<svg width="529" height="296" viewBox="0 0 529 296" fill="none" xmlns="http://www.w3.org/2000/svg">
<g clip-path="url(#clip0_55_301)">
<path d="M529 0H0V296H529V0Z" fill="#001AFF"/>
<path d="M435.17 229.41L429.33 239.3L423.48 229.41L413.59 223.56L423.48 217.72L429.33 207.82L435.17 217.72L445.07 223.56L435.17 229.41Z" fill="white"/>
<path d="M86.73 68.8463L82.3176 64.4339L77.9053 68.8463L82.3176 73.2586L86.73 68.8463Z" fill="white"/>
<path d="M115.42 212.94L111.008 208.528L106.595 212.94L111.008 217.353L115.42 212.94Z" fill="white"/>
<path d="M413.59 152.42C413.59 152.42 346.84 236.51 264.5 236.51C182.16 236.51 115.41 152.42 115.41 152.42C115.41 152.42 182.16 68.33 264.5 68.33C346.84 68.33 413.59 152.42 413.59 152.42Z" fill="white"/>
<path d="M262.25 217.37C298.121 217.37 327.2 188.291 327.2 152.42C327.2 116.549 298.121 87.47 262.25 87.47C226.379 87.47 197.3 116.549 197.3 152.42C197.3 188.291 226.379 217.37 262.25 217.37Z" fill="url(#paint0_linear_55_301)"/>
<path d="M262.25 217.37C298.121 217.37 327.2 188.291 327.2 152.42C327.2 116.549 298.121 87.47 262.25 87.47C226.379 87.47 197.3 116.549 197.3 152.42C197.3 188.291 226.379 217.37 262.25 217.37Z" fill="url(#paint1_radial_55_301)"/>
<path d="M325 152.5C325 187.018 297.018 215 262.5 215C227.982 215 200 187.018 200 152.5C200 117.982 227.982 90 262.5 90C297.018 90 325 117.982 325 152.5Z" stroke="url(#paint2_linear_55_301)" stroke-width="2"/>
<path d="M262.5 176C275.479 176 286 165.479 286 152.5C286 139.521 275.479 129 262.5 129C249.521 129 239 139.521 239 152.5C239 165.479 249.521 176 262.5 176Z" fill="url(#paint3_radial_55_301)"/>
<path d="M283.5 145C288.747 145 293 140.747 293 135.5C293 130.253 288.747 126 283.5 126C278.253 126 274 130.253 274 135.5C274 140.747 278.253 145 283.5 145Z" fill="url(#paint4_radial_55_301)"/>
<path d="M243.5 175C247.09 175 250 172.09 250 168.5C250 164.91 247.09 162 243.5 162C239.91 162 237 164.91 237 168.5C237 172.09 239.91 175 243.5 175Z" fill="url(#paint5_radial_55_301)"/>
</g>
<defs>
<linearGradient id="paint0_linear_55_301" x1="262.25" y1="87.47" x2="262.25" y2="217.37" gradientUnits="userSpaceOnUse">
<stop offset="0.0001" stop-color="#FF7A00"/>
<stop offset="1" stop-color="#FCD34D"/>
</linearGradient>
<radialGradient id="paint1_radial_55_301" cx="0" cy="0" r="1" gradientUnits="userSpaceOnUse" gradientTransform="translate(286 136) rotate(144.583) scale(55.2177 55.2178)">
<stop stop-color="white" stop-opacity="0.67"/>
<stop offset="1" stop-color="#FCD34D" stop-opacity="0"/>
</radialGradient>
<linearGradient id="paint2_linear_55_301" x1="262.5" y1="89" x2="262.5" y2="216" gradientUnits="userSpaceOnUse">
<stop stop-color="white" stop-opacity="0"/>
<stop offset="1" stop-color="white"/>
</linearGradient>
<radialGradient id="paint3_radial_55_301" cx="0" cy="0" r="1" gradientUnits="userSpaceOnUse" gradientTransform="translate(277.5 134) rotate(109.654) scale(44.5982 59.7584)">
<stop stop-color="#1C398B"/>
<stop offset="1"/>
</radialGradient>
<radialGradient id="paint4_radial_55_301" cx="0" cy="0" r="1" gradientUnits="userSpaceOnUse" gradientTransform="translate(284 131) rotate(105.255) scale(17.1026)">
<stop offset="0.395833" stop-color="white"/>
<stop offset="1" stop-color="white" stop-opacity="0.51"/>
</radialGradient>
<radialGradient id="paint5_radial_55_301" cx="0" cy="0" r="1" gradientUnits="userSpaceOnUse" gradientTransform="translate(244.5 166.5) rotate(110.854) scale(11.2361)">
<stop offset="0.446226" stop-color="white"/>
<stop offset="1" stop-color="white" stop-opacity="0"/>
</radialGradient>
<clipPath id="clip0_55_301">
<rect width="529" height="296" fill="white"/>
</clipPath>
</defs>
</svg>
