<svg width="529" height="296" viewBox="0 0 529 296" fill="none" xmlns="http://www.w3.org/2000/svg">
<g clip-path="url(#clip0_55_435)">
<path d="M529 0H0V296H529V0Z" fill="#00C2FF"/>
<path d="M132.58 73.58L126.74 83.48L120.89 73.58L111 67.74L120.89 61.89L126.74 52L132.58 61.89L142.48 67.74L132.58 73.58Z" fill="white"/>
<path d="M436.825 72.4124L432.412 68L428 72.4123L432.412 76.8247L436.825 72.4124Z" fill="white"/>
<path d="M221.825 229.412L217.412 225L213 229.412L217.412 233.825L221.825 229.412Z" fill="white"/>
<g filter="url(#filter0_d_55_435)">
<rect x="43" y="114.744" width="67.7419" height="67.7419" rx="9.56357" fill="black"/>
<path d="M89.457 127.495H64.2825C59.5676 127.495 55.7502 131.312 55.7502 136.027V161.207C55.7502 165.917 59.5676 169.734 64.2825 169.734H89.4623C94.172 169.734 97.9946 165.917 97.9946 161.202V136.027C97.9893 131.312 94.172 127.495 89.457 127.495Z" fill="#18BFFB"/>
<path d="M76.6903 137.199L77.5457 135.721C78.0737 134.797 79.2511 134.486 80.1751 135.014C81.099 135.542 81.4105 136.719 80.8826 137.643L72.6407 151.909H78.6016C80.5341 151.909 81.6165 154.18 80.777 155.753H63.3005C62.234 155.753 61.3787 154.898 61.3787 153.831C61.3787 152.765 62.234 151.909 63.3005 151.909H68.2003L74.4728 141.038L72.5139 137.638C71.9859 136.714 72.2975 135.547 73.2214 135.008C74.1454 134.48 75.3123 134.792 75.8508 135.716L76.6903 137.199ZM69.2774 157.733L67.4294 160.938C66.9014 161.862 65.724 162.173 64.8 161.645C63.876 161.117 63.5645 159.94 64.0925 159.016L65.4653 156.64C67.0176 156.16 68.2795 156.529 69.2774 157.733ZM85.1909 151.92H90.191C91.2575 151.92 92.1129 152.775 92.1129 153.842C92.1129 154.908 91.2575 155.764 90.191 155.764H87.4138L89.2881 159.016C89.8161 159.94 89.5046 161.107 88.5806 161.645C87.6566 162.173 86.4898 161.862 85.9512 160.938C82.7939 155.463 80.4232 151.365 78.8498 148.636C77.2394 145.858 78.3904 143.071 79.5256 142.126C80.7875 144.29 82.6724 147.559 85.1909 151.92Z" fill="white"/>
</g>
<g filter="url(#filter1_d_55_435)">
<rect x="136.783" y="114.514" width="67.7419" height="67.7419" rx="9.56357" fill="black"/>
<path d="M163.614 169.505C167.5 169.505 170.654 166.351 170.654 162.465V155.425H163.614C159.728 155.425 156.574 158.579 156.574 162.465C156.574 166.351 159.728 169.505 163.614 169.505Z" fill="#0ACF83"/>
<path d="M156.574 148.385C156.574 144.499 159.728 141.346 163.614 141.346H170.654V155.425H163.614C159.728 155.425 156.574 152.271 156.574 148.385Z" fill="#A259FF"/>
<path d="M156.574 134.306C156.574 130.42 159.728 127.266 163.614 127.266H170.654V141.346H163.614C159.728 141.346 156.574 138.192 156.574 134.306Z" fill="#F24E1E"/>
<path d="M170.654 127.266H177.694C181.58 127.266 184.734 130.42 184.734 134.306C184.734 138.192 181.58 141.346 177.694 141.346H170.654V127.266Z" fill="#FF7262"/>
<path d="M184.734 148.385C184.734 152.271 181.58 155.425 177.694 155.425C173.808 155.425 170.654 152.271 170.654 148.385C170.654 144.499 173.808 141.346 177.694 141.346C181.58 141.346 184.734 144.499 184.734 148.385Z" fill="#1ABCFE"/>
</g>
<g filter="url(#filter2_d_55_435)">
<rect x="230.93" y="114.744" width="67.7419" height="67.7419" rx="9.56357" fill="black"/>
<path fill-rule="evenodd" clip-rule="evenodd" d="M247.586 129.71C247.131 130.199 246.869 130.952 246.869 131.93V166.729C246.869 167.708 247.131 168.461 247.603 168.933L247.726 169.037L267.225 149.538V149.1L247.709 129.606L247.586 129.71Z" fill="#00A0FF"/>
<path fill-rule="evenodd" clip-rule="evenodd" d="M273.712 156.063L267.208 149.557V149.102L273.714 142.596L273.854 142.684L281.549 147.056C283.753 148.298 283.753 150.344 281.549 151.603L273.854 155.976C273.852 155.976 273.712 156.063 273.712 156.063Z" fill="#FFE000"/>
<path fill-rule="evenodd" clip-rule="evenodd" d="M273.853 155.976L267.208 149.33L247.586 168.952C248.303 169.722 249.509 169.809 250.857 169.056L273.853 155.976Z" fill="#FF3A44"/>
<path fill-rule="evenodd" clip-rule="evenodd" d="M273.853 142.686L250.857 129.623C249.511 128.853 248.303 128.957 247.586 129.727L267.206 149.33L273.853 142.686Z" fill="#00E382"/>
<path opacity="0.2" fill-rule="evenodd" clip-rule="evenodd" d="M273.712 155.836L250.874 168.812C249.598 169.545 248.46 169.494 247.727 168.829L247.603 168.952L247.727 169.056C248.46 169.72 249.598 169.773 250.874 169.039L273.87 155.976L273.712 155.836Z" fill="black"/>
<path opacity="0.12" fill-rule="evenodd" clip-rule="evenodd" d="M281.547 151.376L273.695 155.836L273.835 155.976L281.53 151.603C282.632 150.974 283.174 150.153 283.174 149.33C283.104 150.083 282.545 150.8 281.547 151.376Z" fill="black"/>
<path opacity="0.25" fill-rule="evenodd" clip-rule="evenodd" d="M250.857 129.85L281.547 147.286C282.545 147.845 283.104 148.579 283.191 149.332C283.191 148.511 282.649 147.688 281.547 147.058L250.857 129.623C248.654 128.364 246.869 129.412 246.869 131.93V132.158C246.869 129.64 248.654 128.608 250.857 129.85Z" fill="white"/>
</g>
<g filter="url(#filter3_d_55_435)">
<rect x="325.209" y="114.514" width="67.7419" height="67.7419" rx="9.56357" fill="black"/>
<path d="M335.764 155.38C338.769 165.401 348.064 172.708 359.064 172.708C372.497 172.708 383.387 161.819 383.387 148.385C383.387 134.952 372.497 124.062 359.064 124.062C346.174 124.062 335.626 134.09 334.793 146.769C336.37 149.412 336.982 151.047 335.762 155.38H335.764Z" fill="#003ACE"/>
<path d="M357.811 142.293L357.813 142.413L351.862 151.059C350.898 151.015 349.931 151.185 349.013 151.563C348.613 151.725 348.231 151.929 347.874 152.171L334.804 146.784C334.804 146.784 334.502 151.759 335.762 155.467L345.002 159.28C345.458 161.353 346.887 163.172 348.986 164.046C350.638 164.732 352.494 164.735 354.148 164.053C355.802 163.372 357.117 162.062 357.806 160.411C358.173 159.532 358.35 158.585 358.325 157.632L366.833 151.547L367.042 151.551C372.139 151.551 376.281 147.397 376.281 142.293C376.281 137.19 372.146 133.051 367.042 133.04C361.948 133.04 357.803 137.19 357.803 142.293H357.811ZM356.382 159.813C355.277 162.474 352.227 163.726 349.577 162.621C348.401 162.127 347.447 161.217 346.898 160.066L349.906 161.312C350.37 161.506 350.869 161.606 351.372 161.607C351.875 161.607 352.374 161.509 352.839 161.317C353.304 161.125 353.727 160.843 354.083 160.488C354.44 160.133 354.723 159.71 354.916 159.246C355.307 158.307 355.309 157.251 354.922 156.31C354.535 155.369 353.791 154.62 352.852 154.228L349.736 152.94C350.935 152.484 352.299 152.469 353.574 152.998C354.866 153.533 355.854 154.539 356.383 155.826C356.912 157.113 356.909 158.532 356.376 159.813M367.051 148.461C365.417 148.457 363.853 147.806 362.699 146.65C361.545 145.494 360.897 143.928 360.895 142.295C360.897 140.662 361.546 139.096 362.7 137.941C363.853 136.785 365.418 136.134 367.051 136.13C368.684 136.134 370.249 136.785 371.403 137.94C372.557 139.096 373.206 140.662 373.207 142.295C373.206 143.928 372.557 145.494 371.403 146.65C370.249 147.806 368.684 148.457 367.051 148.461ZM362.438 142.285C362.437 141.058 362.923 139.881 363.79 139.012C364.657 138.143 365.833 137.654 367.06 137.652C369.61 137.652 371.684 139.727 371.684 142.285C371.685 143.512 371.198 144.689 370.331 145.558C369.464 146.426 368.287 146.915 367.06 146.916C365.833 146.914 364.657 146.426 363.79 145.557C362.923 144.689 362.438 143.512 362.438 142.285Z" fill="white"/>
</g>
<g filter="url(#filter4_d_55_435)">
<rect x="418.992" y="114.744" width="67.7419" height="67.7419" rx="9.56357" fill="black"/>
<path d="M473.045 138.471C472.553 136.651 471.134 135.226 469.314 134.74C466.87 133.796 443.197 133.334 436.33 134.767C434.51 135.259 433.085 136.678 432.599 138.498C431.496 143.337 431.412 153.8 432.626 158.748C433.118 160.568 434.537 161.992 436.357 162.479C441.196 163.593 464.204 163.75 469.341 162.479C471.161 161.987 472.585 160.568 473.072 158.748C474.248 153.476 474.332 143.662 473.045 138.471Z" fill="#FF0000"/>
<path d="M459.797 148.609L448.766 142.283V154.936L459.797 148.609Z" fill="white"/>
</g>
</g>
<defs>
<filter id="filter0_d_55_435" x="28" y="103.744" width="97.7419" height="97.7419" filterUnits="userSpaceOnUse" color-interpolation-filters="sRGB">
<feFlood flood-opacity="0" result="BackgroundImageFix"/>
<feColorMatrix in="SourceAlpha" type="matrix" values="0 0 0 0 0 0 0 0 0 0 0 0 0 0 0 0 0 0 127 0" result="hardAlpha"/>
<feOffset dy="4"/>
<feGaussianBlur stdDeviation="7.5"/>
<feComposite in2="hardAlpha" operator="out"/>
<feColorMatrix type="matrix" values="0 0 0 0 0.149913 0 0 0 0 0.50289 0 0 0 0 0.654167 0 0 0 1 0"/>
<feBlend mode="normal" in2="BackgroundImageFix" result="effect1_dropShadow_55_435"/>
<feBlend mode="normal" in="SourceGraphic" in2="effect1_dropShadow_55_435" result="shape"/>
</filter>
<filter id="filter1_d_55_435" x="121.783" y="103.514" width="97.7419" height="97.7419" filterUnits="userSpaceOnUse" color-interpolation-filters="sRGB">
<feFlood flood-opacity="0" result="BackgroundImageFix"/>
<feColorMatrix in="SourceAlpha" type="matrix" values="0 0 0 0 0 0 0 0 0 0 0 0 0 0 0 0 0 0 127 0" result="hardAlpha"/>
<feOffset dy="4"/>
<feGaussianBlur stdDeviation="7.5"/>
<feComposite in2="hardAlpha" operator="out"/>
<feColorMatrix type="matrix" values="0 0 0 0 0.149913 0 0 0 0 0.50289 0 0 0 0 0.654167 0 0 0 1 0"/>
<feBlend mode="normal" in2="BackgroundImageFix" result="effect1_dropShadow_55_435"/>
<feBlend mode="normal" in="SourceGraphic" in2="effect1_dropShadow_55_435" result="shape"/>
</filter>
<filter id="filter2_d_55_435" x="215.93" y="103.744" width="97.7419" height="97.7419" filterUnits="userSpaceOnUse" color-interpolation-filters="sRGB">
<feFlood flood-opacity="0" result="BackgroundImageFix"/>
<feColorMatrix in="SourceAlpha" type="matrix" values="0 0 0 0 0 0 0 0 0 0 0 0 0 0 0 0 0 0 127 0" result="hardAlpha"/>
<feOffset dy="4"/>
<feGaussianBlur stdDeviation="7.5"/>
<feComposite in2="hardAlpha" operator="out"/>
<feColorMatrix type="matrix" values="0 0 0 0 0.149913 0 0 0 0 0.50289 0 0 0 0 0.654167 0 0 0 1 0"/>
<feBlend mode="normal" in2="BackgroundImageFix" result="effect1_dropShadow_55_435"/>
<feBlend mode="normal" in="SourceGraphic" in2="effect1_dropShadow_55_435" result="shape"/>
</filter>
<filter id="filter3_d_55_435" x="310.209" y="103.514" width="97.7419" height="97.7419" filterUnits="userSpaceOnUse" color-interpolation-filters="sRGB">
<feFlood flood-opacity="0" result="BackgroundImageFix"/>
<feColorMatrix in="SourceAlpha" type="matrix" values="0 0 0 0 0 0 0 0 0 0 0 0 0 0 0 0 0 0 127 0" result="hardAlpha"/>
<feOffset dy="4"/>
<feGaussianBlur stdDeviation="7.5"/>
<feComposite in2="hardAlpha" operator="out"/>
<feColorMatrix type="matrix" values="0 0 0 0 0.149913 0 0 0 0 0.50289 0 0 0 0 0.654167 0 0 0 1 0"/>
<feBlend mode="normal" in2="BackgroundImageFix" result="effect1_dropShadow_55_435"/>
<feBlend mode="normal" in="SourceGraphic" in2="effect1_dropShadow_55_435" result="shape"/>
</filter>
<filter id="filter4_d_55_435" x="403.992" y="103.744" width="97.7419" height="97.7419" filterUnits="userSpaceOnUse" color-interpolation-filters="sRGB">
<feFlood flood-opacity="0" result="BackgroundImageFix"/>
<feColorMatrix in="SourceAlpha" type="matrix" values="0 0 0 0 0 0 0 0 0 0 0 0 0 0 0 0 0 0 127 0" result="hardAlpha"/>
<feOffset dy="4"/>
<feGaussianBlur stdDeviation="7.5"/>
<feComposite in2="hardAlpha" operator="out"/>
<feColorMatrix type="matrix" values="0 0 0 0 0.149913 0 0 0 0 0.50289 0 0 0 0 0.654167 0 0 0 1 0"/>
<feBlend mode="normal" in2="BackgroundImageFix" result="effect1_dropShadow_55_435"/>
<feBlend mode="normal" in="SourceGraphic" in2="effect1_dropShadow_55_435" result="shape"/>
</filter>
<clipPath id="clip0_55_435">
<rect width="529" height="296" fill="white"/>
</clipPath>
</defs>
</svg>
