<svg version="1.1" xmlns="http://www.w3.org/2000/svg" style="display: block;" viewBox="0 0 2048 2048" width="1024" height="1024">
<path transform="translate(0,0)" fill="rgb(213,81,73)" d="M 0 0 L 2048 0 L 2048 2048 L 0 2048 L 0 0 z"/>
<path transform="translate(0,0)" fill="rgb(254,254,254)" d="M 1227.09 217.827 C 1229.4 217.765 1231.9 217.713 1234.04 218.787 C 1236.13 219.843 1237.04 221.745 1237.5 223.921 C 1239.08 231.299 1239.4 274.443 1237.6 282.293 C 1237.19 284.096 1236.13 285.497 1235.06 286.966 C 1232.8 287.153 1230.84 286.969 1228.6 286.715 C 1226.43 285.114 1225.4 284.404 1224.77 281.694 C 1223.01 274.133 1223.06 232.548 1224.67 223.781 C 1225.06 221.656 1226.06 219.705 1227.09 217.827 z"/>
<path transform="translate(0,0)" fill="rgb(254,254,254)" d="M 1262.23 218.111 A 80.9635 80.9635 0 0 1 1267.13 217.923 C 1272.57 217.882 1282.85 219.867 1286.34 224.507 C 1287.77 226.395 1288.02 228.198 1287.39 230.432 C 1286.65 233.105 1285.18 234.496 1282.97 235.905 C 1277.19 235.882 1273.7 230.085 1268.19 229.492 C 1265.76 229.232 1263.85 230.34 1262.35 232.188 C 1260.78 234.129 1260.72 236.025 1261.03 238.356 C 1265.07 244.478 1274 246.245 1280.22 249.51 C 1285.14 252.091 1289.34 255.21 1290.88 260.807 C 1292.37 266.232 1291.32 272.934 1288.32 277.677 C 1283.96 284.578 1277.88 286.491 1270.43 288.229 A 98.0524 98.0524 0 0 1 1267.5 287.958 C 1261.32 287.273 1251.96 284.444 1248.28 278.951 C 1246.83 276.795 1246.14 274.821 1246.75 272.23 C 1247.48 269.115 1250.78 267.257 1253.2 265.496 C 1259 271.46 1264.16 274.994 1272.86 274.657 C 1275.64 274.55 1276.55 274.033 1278.28 271.956 C 1280.23 258.956 1256.67 257.072 1248.54 242.927 C 1246.33 239.072 1245.22 234.961 1246.77 230.659 C 1248.83 224.913 1256.92 220.162 1262.23 218.111 z"/>
<path transform="translate(0,0)" fill="rgb(254,254,254)" d="M 1160.2 217.524 C 1161.44 218.612 1162.42 219.959 1163.16 221.437 C 1168.79 232.695 1183.53 265.412 1186.2 276.201 C 1187.05 279.641 1187.26 282.218 1186.31 285.628 C 1184.34 287.164 1183.63 287.119 1181.11 287.444 C 1176.26 285.628 1175.69 279.711 1172.17 276.456 C 1169.7 274.172 1166.28 274.962 1163.16 274.967 L 1150.88 275.001 C 1149.61 277.968 1148.43 281.254 1146.83 284.051 C 1145.4 286.535 1143.8 288.066 1140.83 288.515 C 1138.42 288.879 1137.72 287.849 1136.22 286.323 C 1133.09 275.144 1154.48 230.34 1160.2 217.524 z"/>
<path transform="translate(0,0)" fill="rgb(213,81,73)" d="M 1160.66 248.621 C 1161.01 248.953 1161.4 249.249 1161.71 249.618 C 1164.11 252.473 1166.74 259.105 1166.59 262.789 L 1164.74 263.7 C 1161.93 263.833 1159.42 264.286 1156.95 262.659 C 1155.93 258.223 1159.02 252.916 1160.66 248.621 z"/>
<path transform="translate(0,0)" fill="rgb(254,254,254)" d="M 981.339 217.6 C 986.004 221.405 1004.08 265.854 1006.9 274.461 C 1008.27 278.671 1009.37 282.496 1007.38 286.617 L 1004.23 287.146 C 999.076 285.524 996.593 279.344 992.589 275.947 C 990.25 273.961 987.041 274.557 984.171 274.696 L 982.75 274.776 L 971.011 274.73 C 969.905 277.59 968.709 281.817 966.768 284.117 C 964.857 286.382 962.494 287.462 959.56 287.665 C 957.704 287.794 957.64 287.267 956.301 286.195 C 952.608 274.864 975.557 230.702 981.339 217.6 z"/>
<path transform="translate(0,0)" fill="rgb(213,81,73)" d="M 981.256 248.5 C 981.669 248.863 982.126 249.182 982.494 249.59 C 984.875 252.227 987.064 258.948 987.249 262.399 L 985.222 263.434 C 982.374 263.451 979.943 263.71 977.41 262.177 C 976.229 257.974 979.567 252.522 981.256 248.5 z"/>
<path transform="translate(0,0)" fill="rgb(254,254,254)" d="M 762.116 218.104 C 771.398 217.824 781.205 216.801 790.444 217.408 C 795.091 217.713 798.333 218.3 801.546 221.877 C 802.325 224.61 802.583 225.117 801.809 227.807 C 795.864 232.948 779.655 230.691 771.813 230.572 L 771.74 245.442 C 778.88 245.551 787.845 243.028 794.223 246.628 C 796.354 250.178 795.771 253.017 795.742 257.035 C 788.534 257.233 780.053 254.989 773.486 258.282 C 771.304 261.625 771.912 264.381 771.927 268.25 L 772.156 272.004 C 776.966 276.181 790.103 273.655 796.675 274.448 C 799.78 274.823 801.421 275.53 803.302 278.005 C 803.187 280.302 802.629 281.647 801.326 283.492 C 799.743 285.733 798.227 286.404 795.571 286.75 C 789.14 287.588 765.657 288.055 761.068 284.711 C 759.665 281.258 759.271 277.748 759.086 274.048 C 758.722 266.764 757.334 225.241 759.701 220.782 C 760.264 219.72 761.311 218.997 762.116 218.104 z"/>
<path transform="translate(0,0)" fill="rgb(254,254,254)" d="M 912.69 218.164 C 925.148 217.636 938.615 216.078 948.761 224.975 C 953.366 229.013 956.463 234.745 956.685 240.925 A 20.4683 20.4683 0 0 1 950.982 255.647 C 944.134 262.855 936.134 264.033 926.754 264.191 C 926.249 264.168 925.743 264.078 925.239 264.122 C 919.562 264.617 923.956 281.884 919.243 286.851 C 916.946 287.91 915.796 287.873 913.308 287.539 C 909.861 283.944 909.281 278.514 909.04 273.728 C 908.493 262.856 907.172 231.35 909.618 222.536 C 910.188 220.485 911.29 219.709 912.69 218.164 z"/>
<path transform="translate(0,0)" fill="rgb(213,81,73)" d="M 922.101 229.843 C 926.474 229.822 930.792 229.741 934.98 231.209 C 938.376 232.399 941.832 234.299 943.01 237.96 C 944.236 241.771 942.828 245.143 941.059 248.459 C 934.917 251.588 928.807 251.142 922.104 251.136 L 922.101 229.843 z"/>
<path transform="translate(0,0)" fill="rgb(254,254,254)" d="M 1017.94 216.597 C 1029.74 222.664 1048.25 246.976 1057.9 257.753 C 1057.74 248.438 1057.01 238.682 1057.67 229.407 C 1057.98 225.067 1058.44 220.897 1061.9 217.913 C 1064.05 217.64 1065.28 217.186 1067.07 218.797 C 1074.71 225.663 1071.46 276.262 1071.05 287.952 C 1061.1 284.916 1038.56 255.654 1030.85 246.963 C 1030.97 255.486 1033.61 278.568 1028.63 285.629 C 1027.21 287.649 1026.69 287.671 1024.43 287.964 C 1022.75 287.314 1021.5 286.802 1020.31 285.346 C 1014.95 278.782 1017.37 227.491 1017.94 216.597 z"/>
<path transform="translate(0,0)" fill="rgb(254,254,254)" d="M 705.625 218.097 C 713.27 217.664 722.01 216.902 729.537 218.186 C 736.004 219.29 742.489 222.632 746.175 228.217 C 749.203 232.804 749.989 238.488 748.817 243.812 C 747.203 251.142 743.121 255.389 736.945 259.261 C 740.892 264.506 746.01 269.315 749.244 275.04 C 751.115 278.351 751.521 280.578 750.48 284.229 C 748.428 286.241 747.237 286.843 744.456 287.548 C 741.711 286.641 741.11 285.677 739.187 283.588 C 735.836 278.554 732.533 273.43 728.849 268.631 C 725.52 264.296 723.177 260.819 717.598 260.074 C 712.295 266.655 718.722 279.124 712.547 286.823 C 709.798 287.696 709.353 287.59 706.528 286.899 C 703.976 284.204 703.286 280.826 702.757 277.245 C 701.421 268.213 700.576 230.948 702.915 222.639 C 703.406 220.894 704.542 219.506 705.625 218.097 z"/>
<path transform="translate(0,0)" fill="rgb(213,81,73)" d="M 715.894 230.032 C 720.508 230.07 725.966 229.512 730.416 230.72 C 732.675 231.333 735.204 232.778 736.183 234.962 C 737.995 239.005 736.503 242.389 734.974 246.21 C 728.687 249.541 722.83 249.086 715.909 249.02 L 715.894 230.032 z"/>
<path transform="translate(0,0)" fill="rgb(254,254,254)" d="M 971.592 584.325 C 975.046 572.398 985.472 539.918 994.576 532.586 C 997.046 530.597 1000.21 529.571 1003.37 530.048 C 1006.61 530.535 1008.36 532.056 1010.24 534.585 C 1012.01 543.988 1003.13 557.026 998.866 565.415 C 989.641 585.755 981.303 606.493 971.939 626.77 C 967.061 619.369 930.114 540.414 930.846 535.599 C 932.722 532.695 934.838 531.631 937.769 530.032 C 939.902 530.212 942.505 530.315 944.525 531.017 C 953.331 534.078 967.476 574.388 971.592 584.325 z"/>
<path transform="translate(0,0)" fill="rgb(254,254,254)" d="M 1086.24 218.385 C 1099.34 217.793 1113.15 217.832 1123.59 227.058 A 31.5713 31.5713 0 0 1 1134.47 250.103 C 1134.67 261.869 1128.97 271.836 1120.91 279.942 C 1108.66 287.738 1094.74 286.235 1080.94 285.777 C 1080.06 276.889 1078.52 228.699 1080.9 222.773 C 1082.13 219.697 1083.37 219.642 1086.24 218.385 z"/>
<path transform="translate(0,0)" fill="rgb(213,81,73)" d="M 1093.58 230.893 C 1101.7 230.857 1107.65 231.014 1114.12 236.671 C 1118.22 240.246 1120.99 245.333 1121.32 250.804 C 1121.73 257.896 1119.02 263.323 1114.41 268.459 C 1107.43 272.807 1101.27 273.235 1093.3 273.822 C 1093.63 259.523 1093.53 245.196 1093.58 230.893 z"/>
<path transform="translate(0,0)" fill="rgb(254,254,254)" d="M 815.664 217.995 C 830.759 217.551 846.629 216.215 858.522 227.501 A 32.4926 32.4926 0 0 1 868.518 250.802 C 868.641 262.25 863.63 271.117 855.79 278.959 C 850.126 283.06 843.838 285.765 836.851 286.517 C 830.815 287.167 817.771 289.001 812.828 285.062 C 808.861 274.729 809.729 239.127 810.91 226.869 C 811.335 222.456 812.271 220.834 815.664 217.995 z"/>
<path transform="translate(0,0)" fill="rgb(213,81,73)" d="M 823.902 230.535 C 833.007 230.468 840.449 230.571 848.12 236.348 C 852.304 239.498 855.584 244.107 856.134 249.421 C 856.833 256.172 853.718 262.098 849.677 267.227 C 841.558 273.856 833.879 273.937 823.834 274.068 L 823.902 230.535 z"/>
<path transform="translate(0,0)" fill="rgb(254,254,254)" d="M 1062.81 529.383 C 1065.08 529.362 1067.35 529.347 1069.62 529.491 C 1078.18 530.035 1086.74 533.496 1092.42 540.107 C 1096.37 544.698 1098.66 550.553 1098.02 556.651 C 1097.13 565.156 1091.79 570.217 1085.49 575.195 C 1091.89 578.823 1097.69 582.86 1099.85 590.27 C 1101.9 597.282 1100.64 606.008 1096.85 612.226 C 1092.35 619.592 1084.06 623.471 1075.87 625.117 C 1064.51 627.399 1049.24 626.271 1039.56 619.285 C 1036.58 617.133 1033.65 613.954 1033.39 610.093 C 1033.1 605.656 1036.18 603.087 1039.08 600.29 C 1045.53 599.798 1052.23 604.686 1058.49 606.582 C 1063.73 608.165 1069.71 609.257 1074.69 606.326 C 1077.82 604.488 1081.72 599.591 1082.03 595.856 C 1083.19 581.745 1062.41 587.62 1056.77 580.673 C 1054.62 578.019 1053.28 573.919 1053.7 570.561 C 1057.66 565.079 1065.34 566.534 1071.34 564.605 C 1073.35 563.96 1075.39 562.65 1076.27 560.682 C 1077.46 558.007 1077.32 555.144 1076.03 552.522 C 1071.02 542.295 1049.95 556.62 1040.7 553.648 C 1038.74 552.058 1037.33 550.611 1036.86 548.003 C 1036.4 545.407 1037.45 543.048 1039.01 541.057 C 1044.69 533.808 1054.05 530.483 1062.81 529.383 z"/>
<path transform="translate(0,0)" fill="rgb(254,254,254)" d="M 1362.85 333.5 C 1370.32 333.405 1382.27 331.71 1388.38 336.458 A 13.6259 13.6259 0 0 1 1393.67 346.244 C 1393.97 349.964 1392.72 353.763 1390.03 356.398 C 1383.48 362.827 1366.78 360.304 1358.04 360.132 L 1358.5 433.713 C 1358.57 446.622 1359.71 460.635 1357.96 473.397 C 1357.57 476.248 1356.96 479.101 1354.74 481.141 C 1351.78 483.864 1346.76 484.587 1342.92 484.018 C 1338.42 483.352 1335.94 480.569 1333.38 477.132 C 1330.28 463.803 1331.92 447.392 1331.92 433.651 L 1331.97 360.333 C 1322.33 360.098 1304.5 363.179 1296.86 356.474 C 1294.21 354.142 1293.17 350.94 1293.02 347.492 C 1292.87 344.132 1293.54 340.936 1295.94 338.404 C 1303.32 330.609 1350.87 333.519 1362.85 333.5 z"/>
<path transform="translate(0,0)" fill="rgb(254,254,254)" d="M 1211.64 333.239 C 1225.88 332.754 1270.05 330.279 1281.26 335.861 C 1284.48 337.465 1287.44 339.928 1288.21 343.635 C 1288.88 346.862 1287.4 351.782 1285.14 354.177 C 1275.94 363.898 1243.33 360.075 1229.99 359.946 L 1230.04 393.377 C 1241.56 393.445 1258.16 390.8 1268.88 394.962 C 1272.84 396.5 1277.14 399.568 1278.54 403.792 C 1279.4 406.399 1279.46 409.201 1278.11 411.668 C 1275.5 416.428 1271.28 418.678 1266.21 420.031 L 1230.01 420.179 C 1230.1 434.144 1232.01 461.198 1229.86 473.666 C 1229.39 476.377 1228.23 478.649 1226.23 480.55 A 13.3254 13.3254 0 0 1 1216.03 484.177 C 1212.22 483.893 1208.52 482.026 1206.24 478.926 C 1204.11 476.04 1203.69 472.949 1203.36 469.481 C 1201.33 448.691 1203.01 426.159 1203.02 405.194 C 1203.03 387.542 1201.2 359.835 1203.86 343.193 C 1204.66 338.22 1207.76 335.94 1211.64 333.239 z"/>
<path transform="translate(0,0)" fill="rgb(254,254,254)" d="M 897.422 333.243 C 906.526 332.152 914.842 332.68 923.664 335.076 C 933.085 337.634 947.006 343.039 951.671 352.1 C 953.132 354.937 952.959 358.042 951.978 360.996 C 950.654 364.981 947.834 368.655 943.879 370.274 C 936.04 373.483 924.432 364.01 916.946 361.414 C 906.751 357.88 893.166 360.5 883.763 365.214 C 872.311 370.956 863.868 381.558 860.076 393.73 C 856.256 405.992 857.156 419.239 863.216 430.61 A 50.4648 50.4648 0 0 0 894.936 455.467 C 911.727 459.977 925.205 451.896 939.284 444.1 C 941.22 444.453 943.21 444.776 945.002 445.635 C 948.616 447.366 953.678 450.513 954.683 454.708 C 955.4 457.699 954.174 460.799 952.54 463.268 C 945.726 473.558 931.787 478.905 920.138 481.428 C 900.224 485.743 879.712 481.376 862.685 470.274 C 846.731 459.872 836.327 444.215 832.427 425.611 A 78.8021 78.8021 0 0 1 843.944 365.75 C 856.602 347.006 875.705 337.336 897.422 333.243 z"/>
<path transform="translate(0,0)" fill="rgb(254,254,254)" d="M 1126.32 335.778 C 1127.24 335.766 1128.67 335.714 1129.54 335.865 C 1132.27 336.34 1133.81 337.735 1135.29 339.971 C 1139.49 346.297 1142.1 354.659 1145.09 361.656 L 1163.7 405.376 C 1172.2 425.255 1183.06 445.378 1189.72 465.867 C 1190.85 469.32 1191.41 472.267 1190.42 475.855 C 1189.44 479.4 1186.44 482.369 1183.27 484.108 C 1181.05 485.328 1178.42 485.766 1176 484.851 C 1166.21 481.147 1161.75 463.509 1158.34 454.48 C 1150.74 454.243 1143.1 454.347 1135.5 454.299 L 1103.21 454.195 C 1101.3 459.376 1099.53 464.768 1097.19 469.77 C 1094.58 475.364 1090.35 482.093 1084.06 483.983 C 1081.06 484.887 1078.05 484.503 1075.44 482.674 C 1072.62 480.703 1070.77 476.729 1070.35 473.364 C 1069.98 470.459 1070.63 467.903 1071.52 465.157 C 1076.9 448.622 1119.68 344.097 1126.32 335.778 z"/>
<path transform="translate(0,0)" fill="rgb(213,81,73)" d="M 1130.04 389.523 C 1135.51 395.918 1143.94 420.631 1147.14 429.358 C 1142.19 429.602 1137.21 429.645 1132.25 429.777 L 1112.05 429.853 C 1118.49 416.649 1123.04 402.394 1130.04 389.523 z"/>
<path transform="translate(0,0)" fill="rgb(254,254,254)" d="M 746.504 333.326 C 759.154 332.974 771.869 333.44 784.529 333.373 C 793.551 333.325 803.117 332.432 812.075 333.45 C 815.369 333.824 818.679 334.477 821.187 336.809 C 824.078 339.497 825.487 343.518 825.441 347.413 C 825.395 351.284 824.037 355.033 821.155 357.689 C 819.158 359.53 816.657 360.432 813.996 360.808 C 808.526 361.582 802.583 360.778 797.054 360.74 L 762.791 360.687 L 762.679 393.156 C 773.981 393.031 797.921 389.663 806.652 396.912 C 809.274 399.089 810.447 402.018 810.576 405.361 C 810.72 409.086 809.613 412.892 806.919 415.56 C 798.902 423.499 774.007 420.091 762.958 420.008 L 762.771 450.25 C 762.775 451.958 762.96 453.061 763.352 454.694 C 770.567 458.757 797.224 455.306 806.75 455.59 C 812.417 455.759 819.121 456.432 823.083 461.021 C 825.422 463.73 826.58 468.05 825.834 471.574 C 824.624 477.289 820.073 480.068 815.441 482.979 C 799.57 483.039 755.464 485.449 742.996 481.806 C 739.533 480.794 737.304 478.114 735.841 474.921 C 734.582 472.172 734.272 469.192 734.094 466.21 C 733.31 453.087 732.935 349.067 735.939 341.636 C 737.764 337.124 742.178 334.824 746.504 333.326 z"/>
<path transform="translate(0,0)" fill="rgb(254,254,254)" d="M 979.263 333.437 C 995.263 333.336 1014.83 331.251 1030.17 336.263 A 49.4257 49.4257 0 0 1 1058.6 361.031 C 1064.57 372.923 1065.6 388.007 1061.06 400.547 C 1056.2 413.96 1046.88 420.725 1034.56 426.583 C 1044.44 440.446 1056.71 454.662 1063.49 470.334 C 1061.91 474.629 1060.08 478.696 1056.26 481.46 C 1053.9 483.166 1051.14 483.856 1048.25 483.316 C 1041.82 482.116 1037.84 476.434 1034.18 471.543 C 1024.55 457.94 1015.06 444.108 1006.51 429.798 L 995.891 427.663 C 995.466 441.047 998.742 463.637 993.593 475.345 C 992.067 478.815 989.062 481.703 985.495 483.021 A 13.4849 13.4849 0 0 1 974.912 482.517 C 971.578 480.875 969.371 477.982 968.255 474.476 C 966.411 468.687 966.969 358.832 968.196 344.452 C 968.376 342.343 968.817 340.243 969.948 338.41 C 972.117 334.89 975.52 334.162 979.263 333.437 z"/>
<path transform="translate(0,0)" fill="rgb(213,81,73)" d="M 995.101 361.058 C 1006.07 360.979 1020.13 359.256 1029.21 366.599 C 1034.08 370.54 1036.94 376.379 1037.53 382.57 C 1038.18 389.586 1035.77 393.869 1031.57 399.233 C 1020.41 406.455 1007.76 404.69 995.109 404.264 L 995.101 361.058 z"/>
<path transform="translate(0,0)" fill="rgb(254,254,254)" d="M 639.882 333.505 C 654.512 333.326 670.786 331.749 684.943 335.846 C 697.446 339.464 708.165 347.743 714.245 359.316 A 50.2862 50.2862 0 0 1 717.1 398.53 C 712.28 412.377 703.007 419.964 690.417 426.349 C 699.237 436.749 718.272 459.744 719.536 472.947 C 719.813 475.849 719.489 479.114 717.3 481.267 C 714.242 484.275 708.689 484.371 704.703 483.901 C 697.666 483.07 693.364 476.607 689.313 471.456 C 682.544 461.731 667.187 435.216 658.798 428.874 C 656.839 427.392 656.477 427.348 654.174 427.627 C 645.479 438.271 655.257 463.57 647.645 477.282 C 645.826 480.559 643.008 482.98 639.294 483.771 C 635.951 484.484 631.955 484.064 629.206 481.934 C 624.432 478.236 622.707 471.435 622.126 465.719 C 619.881 443.601 622.103 416.081 622.167 393.405 C 622.206 379.444 620.452 364.665 621.699 350.835 C 622.106 346.321 623.399 341.457 626.485 337.998 C 630.122 333.92 634.757 333.824 639.882 333.505 z"/>
<path transform="translate(0,0)" fill="rgb(213,81,73)" d="M 650.611 360.652 C 660.362 360.488 673.887 358.693 682.266 364.386 C 688.935 368.917 690.684 376.03 692.259 383.423 C 690.969 389.147 689.308 393.346 685.879 398.166 C 675.239 406.952 663.415 405.294 650.457 405.334 C 650.892 390.464 650.618 375.529 650.611 360.652 z"/>
<path transform="translate(0,0)" fill="rgb(86,11,60)" d="M 870.445 653.197 C 875.276 652.809 880.354 652.669 885.124 653.647 C 891.903 655.038 897.689 658.722 901.298 664.697 C 911.522 681.625 904.807 704.493 900.038 722.096 C 957.545 718.266 1014.54 720.709 1070.42 736.01 C 1084.08 739.751 1098.01 743.839 1110.51 750.582 C 1152.04 738.009 1267.09 718.088 1305.55 736.01 C 1313.01 739.485 1317.69 745.023 1320.48 752.725 C 1332.19 784.997 1306.44 864.166 1293.96 896.606 C 1286.28 916.568 1277.29 935.883 1268.08 955.175 C 1271.18 964.449 1275.43 973.547 1280.17 982.092 C 1289.81 999.492 1307.22 1023.59 1327.75 1028.62 C 1334.78 1030.34 1343.07 1027.89 1349.75 1030.07 C 1352 1030.81 1354.33 1032.95 1355.23 1035.21 C 1356.07 1037.34 1355.83 1039.55 1355.06 1041.66 C 1348.1 1060.65 1310 1080.65 1292.42 1089.57 A 188.724 188.724 0 0 0 1317.84 1105.32 C 1328.24 1110.76 1345.22 1115.23 1352.63 1124.63 C 1352.88 1126.68 1352.81 1128.14 1352.02 1130.03 C 1348.37 1138.85 1338.79 1146.85 1332.08 1153.49 C 1285.04 1200 1226.57 1234.22 1166.6 1261.14 C 1180.36 1285.28 1197.06 1307.88 1211.27 1331.82 C 1265.68 1423.44 1313.2 1523.85 1329.21 1630.2 C 1339.02 1614.27 1348.58 1598.05 1360.14 1583.3 C 1415.83 1512.21 1509.2 1442.32 1595.11 1413.12 C 1663.25 1389.95 1750.81 1391.91 1815.17 1423.97 C 1850.17 1441.41 1885.08 1473.4 1897.52 1511.36 C 1917.83 1573.38 1904 1648.72 1875.18 1705.91 C 1823.54 1808.4 1727.27 1878.51 1619.9 1913.94 C 1528.95 1943.95 1414.37 1951.54 1321.63 1925.29 C 1294.56 1917.63 1269.92 1906.4 1244.85 1893.73 C 1207.39 1925.09 1161.06 1946.55 1114.53 1960.81 C 1100.43 1966.36 1084.58 1969.77 1069.87 1973.38 C 1010.94 1987.81 950.707 1995.59 890.526 2002.64 C 860.414 2006.16 826.396 2013.19 796.348 2007.58 C 764.702 2001.67 744.174 1978.99 726.886 1953.61 A 3594.15 3594.15 0 0 0 670.447 1959.41 C 650.435 1961.6 628.458 1965.94 608.443 1962.74 C 583.089 1958.67 564.421 1944.08 549.784 1923.53 C 520.203 1882 514.695 1829.64 522.963 1780.51 C 479.867 1774.73 436.844 1766.99 393.849 1760.35 L 337.589 1751.43 C 326.076 1749.56 314.246 1748.17 302.984 1745.11 C 295.63 1732.22 291.505 1714.88 286.548 1700.77 L 254.081 1609.02 L 138.6 1287.2 C 149.346 1275.78 163.685 1263.35 177.076 1255.19 C 197.16 1256.16 217.579 1259.8 237.493 1262.54 L 351.286 1278.7 L 538.178 1303.15 C 550.431 1304.76 607.882 1310.56 616.57 1314.93 C 619.603 1316.46 621.168 1318.52 622.59 1321.52 C 631.891 1341.19 638.312 1366.85 645.142 1387.79 A 4902.24 4902.24 0 0 0 689.253 1520.75 C 704.903 1494.82 723.235 1470.23 739.561 1444.68 C 757.911 1415.95 774.195 1386.21 790.84 1356.5 C 798.525 1342.78 809.138 1327.73 813.907 1312.73 C 770.481 1303.43 729.227 1294.62 689.52 1273.78 C 621.969 1238.32 572.384 1179.61 537.001 1113.14 C 526.719 1093.83 516.966 1074.18 510.379 1053.26 C 514.109 1053.95 517.886 1054.72 521.663 1055.09 C 534.419 1056.35 544.233 1052.11 553.902 1044.22 C 536.908 1027.5 523.785 1011.38 517.029 988.26 A 59.6518 59.6518 0 0 0 561.941 996.219 C 574.835 993.489 587.595 984.732 595.642 974.282 C 604.5 962.78 609.185 946.452 615.141 933.26 C 622.707 916.503 631.649 900.45 639.372 883.793 C 649.617 861.695 657.25 839.363 670.452 818.633 C 709.385 757.498 797.723 669.289 870.445 653.197 z"/>
<path transform="translate(0,0)" fill="rgb(252,165,84)" d="M 768.149 1664.5 C 770.05 1665.79 776.877 1688.69 779.732 1693.92 C 769.528 1695.6 759.332 1696.45 749.031 1697.2 C 744.39 1694.06 739.401 1674.2 737.304 1668.28 A 990.066 990.066 0 0 1 768.149 1664.5 z"/>
<path transform="translate(0,0)" fill="rgb(254,254,254)" d="M 1558.27 1448.12 C 1563.91 1453.1 1569.39 1458.27 1574.94 1463.35 C 1555.92 1470.6 1540.63 1482.6 1522.56 1491.11 C 1517.91 1486.34 1513.55 1481.25 1509.1 1476.29 A 427.576 427.576 0 0 1 1558.27 1448.12 z"/>
<path transform="translate(0,0)" fill="rgb(254,254,254)" d="M 1424.56 1540.18 C 1429.98 1545.14 1435.16 1550.4 1440.41 1555.53 C 1425.09 1569.07 1409.15 1581.88 1394.87 1596.56 C 1391.17 1592.55 1387.76 1588.17 1384.27 1583.98 C 1395.27 1567.72 1410.44 1553.71 1424.56 1540.18 z"/>
<path transform="translate(0,0)" fill="rgb(254,254,254)" d="M 1643.69 1420.06 C 1650.03 1424.69 1656.05 1429.72 1662.11 1434.69 C 1652.66 1438.35 1641.9 1439.89 1632.06 1442.41 A 248.878 248.878 0 0 0 1594.89 1455.5 C 1588.54 1450.45 1582.76 1444.85 1576.18 1440.01 C 1597.87 1429.65 1620.12 1424.1 1643.69 1420.06 z"/>
<path transform="translate(0,0)" fill="rgb(254,254,254)" d="M 1438.69 1528.77 C 1454.54 1512.73 1474.52 1497.58 1493.43 1485.32 C 1497 1491.3 1501.94 1496.36 1506.54 1501.56 A 2411.81 2411.81 0 0 0 1453.83 1544.47 L 1438.69 1528.77 z"/>
<path transform="translate(0,0)" fill="rgb(254,254,254)" d="M 789.335 1665.94 C 788.802 1658.49 789.136 1651.66 790.923 1644.38 C 800.555 1605.19 835.415 1587.3 867.251 1568.21 C 871.044 1570.4 874.447 1572.96 877.925 1575.6 C 841.008 1606.52 808.559 1611.75 791.738 1664.45 C 790.888 1665.16 790.432 1665.68 789.335 1665.94 z"/>
<path transform="translate(0,0)" fill="rgb(254,254,254)" d="M 708.28 799.29 C 733.382 761.394 790.202 711.931 830.46 689.482 C 841.05 683.576 868.865 668.633 880.961 672.675 C 884.819 673.964 886.159 676.408 887.932 679.807 C 842.033 680.956 786.969 725.709 755.987 758.306 C 753.11 761.333 750.173 764.363 747.898 767.877 C 737.911 772.778 718.015 791.288 708.28 799.29 z"/>
<path transform="translate(0,0)" fill="rgb(254,254,254)" d="M 997.236 1385.79 C 1003.7 1418.31 983.895 1458.31 966.381 1484.36 C 944.594 1516.76 915.527 1542.37 884.591 1565.74 L 879.013 1559.54 C 924.602 1523.54 965.693 1480.04 986.348 1424.74 C 991.093 1412.03 994.084 1398.95 997.236 1385.79 z"/>
<path transform="translate(0,0)" fill="rgb(254,254,254)" d="M 1033.76 798.29 C 1047.66 785.124 1100.98 771.023 1120.74 766.219 C 1154.68 757.963 1271.8 735.723 1299.34 753.918 C 1303.36 756.574 1304.17 759.533 1305.09 763.982 C 1297.64 761.428 1290.38 758.711 1282.54 757.538 C 1224.04 748.783 1101.52 770.788 1049.07 796.533 C 1044.44 798.809 1040.15 801.61 1035.79 804.36 C 1035.45 802.13 1034.62 800.354 1033.76 798.29 z"/>
<path transform="translate(0,0)" fill="rgb(254,254,254)" d="M 1667.46 1416.28 C 1726.76 1411.02 1792.92 1422.42 1839.65 1461.37 C 1847.52 1467.93 1856.59 1475.88 1861.97 1484.69 C 1851.14 1478.55 1842.37 1468.64 1831.52 1462.23 C 1788.65 1436.91 1737.16 1430.2 1688.12 1433.97 C 1681.19 1428.12 1674.47 1422.04 1667.46 1416.28 z"/>
<path transform="translate(0,0)" fill="rgb(254,254,254)" d="M 833.864 1314.74 C 837.543 1314.96 841.22 1315.71 844.857 1316.31 C 837.423 1331.08 829.067 1345.44 820.998 1359.88 C 798.661 1396.41 777.306 1433.64 754.488 1469.85 C 736.805 1497.91 717.32 1525.08 700.754 1553.8 C 699.523 1549.79 697.792 1546.25 695.864 1542.53 C 746.588 1473.32 795.432 1391.6 833.864 1314.74 z"/>
<path transform="translate(0,0)" fill="rgb(252,165,84)" d="M 679.535 1805.39 L 696.435 1808.14 C 697.811 1813.45 700.023 1818.85 700.769 1824.28 C 702.351 1835.77 698.875 1848.56 699.317 1860.29 C 699.689 1870.17 702.078 1879.85 702.835 1889.67 C 703.88 1903.21 694.24 1926.36 685.17 1936.29 C 682.326 1939.4 680.148 1939.69 676.191 1939.85 L 656.925 1941.85 C 660.997 1937.54 664.823 1933.31 668.057 1928.33 C 692.137 1891.2 688.59 1846.59 679.535 1805.39 z"/>
<path transform="translate(0,0)" fill="rgb(213,81,73)" d="M 747.898 767.877 C 750.173 764.363 753.11 761.333 755.987 758.306 C 786.969 725.709 842.033 680.956 887.932 679.807 C 887.979 694.958 885.466 709.293 880.376 723.569 C 844.64 730.346 811.494 739.006 777.647 752.539 C 767.606 756.554 757.925 764.951 747.898 767.877 z"/>
<path transform="translate(0,0)" fill="rgb(252,165,84)" d="M 974.126 1702.17 C 994.209 1708.71 1015.63 1712.57 1036.23 1717.25 C 1026.37 1719.16 1016.01 1719.64 1006.01 1720.64 L 950.828 1726.25 L 791.314 1743.61 A 489.725 489.725 0 0 1 763.934 1746.24 A 790.912 790.912 0 0 1 753.673 1715.28 C 767.949 1713.81 782.234 1711.61 796.465 1709.7 C 802.968 1714.2 809.572 1718.08 816.943 1721 C 866.073 1740.46 928.078 1722.01 974.126 1702.17 z"/>
<path transform="translate(0,0)" fill="rgb(252,165,84)" d="M 867.804 1793.45 C 869.879 1793.2 871.187 1792.67 873.028 1793.91 C 885.754 1802.42 898.927 1859.66 900.763 1875.96 C 905.393 1917.05 896.02 1954.01 870.047 1986.19 L 849.233 1988.72 C 847.558 1988.93 846.335 1988.93 844.674 1988.82 L 844.989 1987.4 C 861.227 1972.51 871.858 1948.48 876.189 1927.12 A 176.057 176.057 0 0 0 849.865 1795.2 L 867.804 1793.45 z"/>
<path transform="translate(0,0)" fill="rgb(254,254,254)" d="M 1138.28 1273.52 C 1141.5 1272.14 1144.74 1270.54 1148.03 1269.35 C 1166.64 1293.84 1182.7 1320.12 1198.47 1346.49 C 1262.75 1453.99 1330.91 1606.22 1313.57 1734.79 C 1312.48 1742.83 1311.28 1751.62 1308.68 1759.31 C 1305.64 1745.99 1309.09 1725.6 1309.03 1711.52 C 1308.95 1691.96 1306.63 1672.27 1303.6 1652.98 C 1284.08 1529.02 1215.71 1372.55 1138.28 1273.52 z"/>
<path transform="translate(0,0)" fill="rgb(252,165,84)" d="M 182.645 1273.9 C 248.831 1281.81 314.878 1292.06 380.957 1300.91 C 452.19 1310.45 523.625 1318.64 594.633 1329.81 C 590.156 1334.04 585.431 1337.75 580.525 1341.46 C 539.055 1337.28 497.724 1330.09 456.37 1324.75 C 360.147 1312.33 263.747 1299.84 167.742 1285.89 L 182.645 1273.9 z"/>
<path transform="translate(0,0)" fill="rgb(252,165,84)" d="M 1061.85 1731.44 L 1065.06 1731.13 L 1066.36 1732.22 C 1068.14 1739.02 1067.15 1746.83 1067 1753.84 C 1029.47 1757.06 992.089 1761.72 954.639 1765.8 L 775.363 1784.35 C 773.578 1777.58 771.409 1770.98 769.203 1764.34 A 13026.4 13026.4 0 0 0 1061.85 1731.44 z"/>
<path transform="translate(0,0)" fill="rgb(213,81,73)" d="M 1335.84 1693.62 C 1353.2 1711.32 1363.34 1760.51 1363.5 1784.36 C 1363.84 1835.63 1343.81 1866.7 1309.09 1901.93 L 1294.1 1896.26 C 1282.87 1891.38 1271.37 1886.68 1260.83 1880.41 C 1302.02 1840.67 1325.42 1789.36 1333.09 1732.9 C 1334.85 1719.9 1334.54 1706.68 1335.84 1693.62 z"/>
<path transform="translate(0,0)" fill="rgb(213,81,73)" d="M 820.998 1359.88 C 821.598 1368.46 809.134 1387.3 805.539 1396.7 A 929.558 929.558 0 0 0 777.701 1482.52 C 764.014 1534.99 756.284 1592.64 759.249 1646.87 C 750.177 1648.27 741.135 1649.64 731.966 1650.25 C 721.516 1618.33 709.341 1586.2 700.754 1553.8 C 717.32 1525.08 736.805 1497.91 754.488 1469.85 C 777.306 1433.64 798.661 1396.41 820.998 1359.88 z"/>
<path transform="translate(0,0)" fill="rgb(254,254,254)" d="M 553.165 1015.91 C 574.446 1013.27 594.864 1004.54 608.804 987.719 C 621.021 972.979 626.744 951.885 634.774 934.599 C 665.487 868.49 704.935 812.579 770.839 777.395 C 861.727 728.872 984.777 730.864 1081.41 759.853 L 1069.6 763.697 C 976.129 742.85 847.683 738.71 764.014 792.077 C 706.767 828.591 679.201 869.879 652.038 930.764 C 644.032 948.71 635.165 968.381 631.137 987.693 C 630.902 988.818 630.741 989.967 630.591 991.106 C 626.301 1005.17 624.616 1017.53 626.109 1032.2 C 595.583 1047.26 570.282 1070.02 558.816 1102.98 A 86.0988 86.0988 0 0 0 556.962 1108.94 C 550.31 1097.25 544.472 1085.45 539.746 1072.84 A 83.3613 83.3613 0 0 0 582.213 1040.3 C 572.474 1031.74 561.887 1025.9 553.165 1015.91 z"/>
<path transform="translate(0,0)" fill="rgb(252,165,84)" d="M 608.744 1341.9 C 613.056 1346 618.227 1365.67 620.416 1372.09 L 729.014 1700.59 L 745.275 1750.2 C 748.798 1760.62 755.991 1773.86 756.537 1784.78 C 756.678 1787.6 756.127 1790.9 753.868 1792.83 C 750.44 1795.76 744.857 1794.44 740.746 1794 L 736.959 1793.49 C 735.919 1792.62 735.147 1791.86 734.659 1790.56 C 733.199 1786.66 732.587 1782.39 731.369 1778.38 C 728.428 1768.72 725.028 1759.17 721.844 1749.58 A 8905.48 8905.48 0 0 1 681.705 1627.04 A 26856.1 26856.1 0 0 0 591.122 1357.3 C 596.562 1351.82 602.869 1346.93 608.744 1341.9 z"/>
<path transform="translate(0,0)" fill="rgb(252,165,84)" d="M 877.925 1575.6 C 901.353 1600.6 912.921 1635.31 911.7 1669.41 A 130.935 130.935 0 0 1 905.322 1705.64 C 875.826 1712.09 837.844 1714.57 811.224 1697.47 C 799.429 1689.89 792.262 1679.6 789.335 1665.94 C 790.432 1665.68 790.888 1665.16 791.738 1664.45 C 808.559 1611.75 841.008 1606.52 877.925 1575.6 z"/>
<path transform="translate(0,0)" fill="rgb(252,165,84)" d="M 540.891 1783.68 C 553.175 1784.63 565.761 1787.29 577.958 1789.16 A 7024.1 7024.1 0 0 1 660.242 1802.35 C 662.67 1811.92 664.887 1821.56 666.29 1831.34 C 671.017 1864.3 668.467 1898.15 647.965 1925.44 C 644.909 1928.73 641.845 1931.83 638.207 1934.5 C 629.164 1941.14 618.787 1943.62 607.73 1941.75 C 589.206 1938.61 574.593 1926.42 564.159 1911.32 C 538.731 1874.51 533.257 1826.77 540.891 1783.68 z"/>
<path transform="translate(0,0)" fill="rgb(86,11,60)" d="M 594.073 1798.17 C 599.602 1797.61 604.676 1797.38 609.854 1799.75 C 622.43 1805.51 630.017 1818.5 634.299 1831.14 C 640.611 1849.78 641.398 1873.12 632.243 1890.98 C 627.531 1900.17 621.224 1905.86 611.414 1908.95 C 606.643 1909.09 602.21 1909.19 597.684 1907.4 C 586.253 1902.9 578.636 1892.53 573.76 1881.65 C 565.621 1863.49 563.959 1840.72 571.347 1822.03 C 575.92 1810.46 582.824 1803.11 594.073 1798.17 z"/>
<path transform="translate(0,0)" fill="rgb(252,165,84)" d="M 824.749 1797.48 C 826.91 1797.35 827.304 1797.53 829.107 1798.85 C 841.891 1808.21 855.58 1848.03 858.655 1863.64 C 865.166 1896.66 862.212 1935.01 842.831 1963.51 C 835.072 1974.92 823.758 1985.69 809.707 1988.11 C 794.094 1990.81 780.65 1982.79 768.63 1973.97 C 756.718 1964.04 747.251 1951.77 739.828 1938.21 C 717.942 1898.2 712.904 1854.46 725.71 1810.89 A 122.55 122.55 0 0 0 731.354 1811.9 C 748 1814.44 757.845 1813.34 771.637 1803.27 L 824.749 1797.48 z"/>
<path transform="translate(0,0)" fill="rgb(86,11,60)" d="M 784.578 1834.13 C 790.351 1834.19 795.39 1835.2 800.521 1837.96 C 813.26 1844.81 821.172 1858.38 825.393 1871.8 C 831.311 1890.61 831.328 1915.27 821.624 1932.88 C 816.641 1941.92 810.226 1946.61 800.42 1949.37 C 795.075 1949.29 790.505 1948.64 785.644 1946.28 C 771.924 1939.62 763.119 1925.46 758.533 1911.37 C 752.681 1893.39 752.017 1870.75 761.039 1853.7 C 766.387 1843.6 773.685 1837.38 784.578 1834.13 z"/>
<path transform="translate(0,0)" fill="rgb(252,165,84)" d="M 1358.61 1618.81 C 1362.61 1611.6 1367.63 1604.73 1372.9 1598.4 C 1376.3 1601.59 1379.08 1604.84 1381.84 1608.59 C 1429.48 1665.95 1459.78 1738.07 1452.59 1813.7 C 1448.66 1854.96 1433.93 1887.61 1408.26 1919.78 C 1380.67 1918.73 1354.82 1913.88 1328.1 1907.21 C 1361.77 1874.9 1380.62 1836.68 1381.79 1789.6 A 187.157 187.157 0 0 0 1352.09 1684.37 C 1346.06 1675.07 1338.85 1666.77 1332.5 1657.75 C 1340.24 1645.49 1348.41 1628.84 1358.61 1618.81 z"/>
<path transform="translate(0,0)" fill="rgb(254,254,254)" d="M 1358.61 1618.81 C 1362.61 1611.6 1367.63 1604.73 1372.9 1598.4 C 1376.3 1601.59 1379.08 1604.84 1381.84 1608.59 C 1374.46 1616.93 1367.13 1625.26 1360.41 1634.14 C 1354.4 1642.09 1348.88 1650.74 1342.39 1658.27 C 1346.16 1644.28 1355.08 1632.36 1358.61 1618.81 z"/>
<path transform="translate(0,0)" fill="rgb(213,81,73)" d="M 1688.12 1433.97 C 1737.16 1430.2 1788.65 1436.91 1831.52 1462.23 C 1842.37 1468.64 1851.14 1478.55 1861.97 1484.69 C 1871.95 1492.37 1880.92 1519.32 1883.39 1531.47 C 1899.79 1612.17 1873.14 1679.96 1829.59 1745.96 A 339.441 339.441 0 0 0 1828.65 1709.13 A 406.412 406.412 0 0 0 1688.12 1433.97 z"/>
<path transform="translate(0,0)" fill="rgb(252,165,84)" d="M 1662.11 1434.69 C 1749.19 1509.84 1802.05 1597.29 1810.78 1713.92 C 1812.12 1731.85 1815.58 1762.54 1803.37 1776.93 C 1783.6 1800.25 1757.15 1819.82 1732.77 1837.95 C 1736.52 1824.85 1740.51 1811.76 1742.98 1798.35 C 1756.94 1722.56 1740.25 1648.61 1703.29 1581.98 C 1676.06 1532.9 1635.81 1493.21 1594.89 1455.5 A 248.878 248.878 0 0 1 1632.06 1442.41 C 1641.9 1439.89 1652.66 1438.35 1662.11 1434.69 z"/>
<path transform="translate(0,0)" fill="rgb(213,81,73)" d="M 1440.41 1555.53 C 1450.65 1565.4 1460.1 1576.28 1469.46 1586.97 C 1519.61 1644.28 1548.07 1702.22 1549.66 1779.43 C 1550.64 1826.96 1540.27 1875.34 1516.84 1916.94 C 1487.71 1918.34 1459.23 1921.68 1429.92 1921.06 C 1464.77 1877.97 1476.78 1819.87 1470.91 1765.5 C 1464.2 1703.28 1435.5 1643.88 1394.87 1596.56 C 1409.15 1581.88 1425.09 1569.07 1440.41 1555.53 z"/>
<path transform="translate(0,0)" fill="rgb(252,165,84)" d="M 1506.54 1501.56 C 1524.79 1522.09 1543.95 1542.29 1560.72 1564.06 C 1613.19 1632.2 1642.47 1711.94 1637.33 1798.71 C 1635.35 1832.22 1628.84 1864.69 1615.38 1895.57 C 1603.42 1898.68 1591.62 1902.36 1579.58 1905.15 C 1565.97 1908.3 1552.17 1910.47 1538.53 1913.43 C 1573.16 1849.26 1575.52 1766.2 1554.85 1697.09 C 1540.85 1650.3 1515.78 1612.37 1483.59 1576.13 C 1474.01 1565.35 1464.34 1554.36 1453.83 1544.47 A 2411.81 2411.81 0 0 1 1506.54 1501.56 z"/>
<path transform="translate(0,0)" fill="rgb(213,81,73)" d="M 1574.94 1463.35 C 1588.47 1473.13 1600.66 1485.72 1612.59 1497.34 C 1669.24 1552.55 1714.4 1620.76 1727.02 1700.25 A 270.08 270.08 0 0 1 1705.97 1854.43 C 1686.76 1868.93 1660.2 1878.64 1637.85 1887.35 C 1667.21 1805.41 1660.18 1708.77 1623.07 1630.23 C 1606.18 1594.49 1583.36 1561.84 1557.73 1531.86 C 1546.4 1518.6 1532.35 1505.4 1522.56 1491.11 C 1540.63 1482.6 1555.92 1470.6 1574.94 1463.35 z"/>
<path transform="translate(0,0)" fill="rgb(254,254,254)" d="M 983.57 1312.49 L 985.039 1313 C 988.017 1328.96 981.615 1368.83 978.097 1384.5 C 961.806 1457.08 913.672 1512.43 854.229 1554.57 C 818.617 1579.82 797.817 1583.85 777.969 1627.41 C 774.589 1618.52 778.658 1596.97 779.689 1587.21 C 783.209 1553.85 787.454 1520.69 794.875 1487.94 C 808.097 1429.57 829.333 1372.78 848.53 1316.2 C 894.07 1319.73 938.284 1317.35 983.57 1312.49 z"/>
<path transform="translate(0,0)" fill="rgb(213,81,73)" d="M 1035.79 804.36 C 1040.15 801.61 1044.44 798.809 1049.07 796.533 C 1101.52 770.788 1224.04 748.783 1282.54 757.538 C 1290.38 758.711 1297.64 761.428 1305.09 763.982 C 1305.72 827.153 1271.04 913.816 1239.33 967.546 C 1232.4 979.295 1213.18 1000.08 1211.07 1012.32 C 1207.82 1012.77 1204.24 1012.31 1201.02 1011.73 C 1176.54 1007.34 1133.66 969.371 1117.17 951.274 C 1104.18 937.027 1092.56 921.367 1081.74 905.429 C 1069.42 887.286 1032.12 823.551 1035.79 804.36 z"/>
<path transform="translate(0,0)" fill="rgb(86,11,60)" d="M 1220.16 787.581 C 1231.19 786.413 1244.4 785.448 1253.74 792.503 C 1259.48 796.839 1261.62 802.82 1262.47 809.787 C 1266.18 840.146 1228.21 931.818 1208.7 955.741 C 1203.84 961.709 1198.65 966.324 1190.69 966.957 C 1173.52 968.322 1157.22 952.966 1145.13 942.556 C 1123.1 921.267 1080.98 877.686 1077.63 847.809 C 1076.85 840.867 1078.55 834.482 1083.15 829.171 C 1103.01 806.235 1189.35 790.371 1220.16 787.581 z"/>
<path transform="translate(0,0)" fill="rgb(254,254,254)" d="M 1223.74 804.41 C 1229.46 803.772 1236.68 802.733 1241.74 806.145 C 1244.05 807.702 1245.17 809.799 1245.52 812.517 C 1248.12 832.45 1207.94 930.867 1193.92 945.755 C 1191.81 948.001 1189.96 949.132 1186.81 948.945 C 1173.03 948.128 1155.73 928.889 1146.25 919.63 C 1133.38 906.408 1094.95 865.026 1093.01 847.827 C 1092.63 844.419 1093.57 841.782 1095.8 839.247 C 1110.24 822.793 1199.47 806.707 1223.74 804.41 z"/>
<path transform="translate(0,0)" fill="rgb(254,254,254)" d="M 626.109 1032.2 C 628.982 1050.13 633.045 1069.77 648.58 1081.23 C 654.442 1085.55 660.866 1088.06 667.763 1090.21 C 675.879 1090.18 681.833 1087.31 688.338 1082.75 C 737.006 1064.98 780.314 1062.37 828.459 1084.77 C 836.175 1088.36 843.169 1093.15 850.74 1096.85 C 867.802 1110.78 882.907 1119.47 903.799 1126.32 C 942.834 1152.19 969.253 1185.12 978.618 1231.79 C 982.903 1253.15 981.675 1272.69 977.751 1293.97 C 947.419 1298.36 917.229 1299.53 886.622 1299.22 C 804.763 1298.42 697.994 1274.95 638.903 1214.73 C 618.323 1205.08 566.107 1130.88 556.962 1108.94 A 86.0988 86.0988 0 0 1 558.816 1102.98 C 570.282 1070.02 595.583 1047.26 626.109 1032.2 z"/>
<path transform="translate(0,0)" fill="rgb(86,11,60)" d="M 830.012 1183.47 C 831.816 1184.01 833.847 1184.54 835.352 1185.71 C 838.22 1187.95 841.113 1191.59 841.617 1195.21 C 842.387 1200.74 838.45 1206.54 835.36 1210.81 C 824.967 1225.16 808.433 1233.78 791.111 1236.31 C 761.441 1240.66 734.661 1232.89 710.853 1215.28 C 707.301 1212.04 704.202 1208.97 703.464 1204 C 702.965 1200.65 703.685 1198.95 705.761 1196.39 C 709.054 1195.03 712.566 1194.93 715.902 1196.3 C 719.97 1197.98 723.945 1201.48 727.564 1203.99 C 739.636 1212.37 752 1217.34 766.705 1218.8 C 782.457 1220.36 809.253 1217.85 818.259 1202.96 C 822.187 1196.46 823.055 1188.94 829.301 1184.01 C 829.535 1183.82 829.775 1183.65 830.012 1183.47 z"/>
<path transform="translate(0,0)" fill="rgb(86,11,60)" d="M 712.267 1094.42 C 725.259 1094.88 738.494 1096.1 749.842 1103.1 C 756.453 1107.19 761.681 1113.07 763.256 1120.85 C 764.618 1127.58 762.824 1134.45 758.885 1140.01 C 749.666 1153.01 733.361 1156.78 718.569 1158.92 C 703.852 1159.18 689.601 1156.68 677.655 1147.36 C 670.917 1142.1 665.515 1134.81 664.85 1126.05 C 664.376 1119.8 666.621 1113.77 670.668 1109.04 C 680.76 1097.26 697.782 1095.39 712.267 1094.42 z"/>
<path transform="translate(0,0)" fill="rgb(254,254,254)" d="M 686.807 1105.33 C 694.252 1104.45 706.299 1103.4 713.189 1106.55 L 712.832 1108.24 L 710.752 1109.39 A 134.208 134.208 0 0 1 705.177 1109.75 C 700.176 1109.96 689.271 1110.96 685.545 1107.51 L 686.807 1105.33 z"/>
<path transform="translate(0,0)" fill="rgb(213,81,73)" d="M 626.109 1032.2 C 628.982 1050.13 633.045 1069.77 648.58 1081.23 C 654.442 1085.55 660.866 1088.06 667.763 1090.21 C 647.859 1104.82 628.038 1121.57 624.091 1147.33 C 620.349 1171.75 628.375 1193.11 638.903 1214.73 C 618.323 1205.08 566.107 1130.88 556.962 1108.94 A 86.0988 86.0988 0 0 1 558.816 1102.98 C 570.282 1070.02 595.583 1047.26 626.109 1032.2 z"/>
<path transform="translate(0,0)" fill="rgb(252,165,84)" d="M 164.279 1303.29 C 208.709 1310.65 253.332 1316.1 297.947 1322.15 L 572.246 1359.32 C 585.72 1390.64 595.231 1424.85 605.551 1457.37 A 9903.85 9903.85 0 0 0 640.075 1561.49 L 689.824 1712.76 C 698.44 1738.79 708.928 1765.23 715.837 1791.71 C 697.588 1790.6 679.292 1787.09 661.246 1784.24 L 570.785 1769.64 L 407.146 1743.84 C 377.036 1739.12 346.786 1734.92 316.78 1729.6 L 210.847 1432.85 C 195.594 1389.91 177.703 1346.66 164.279 1303.29 z"/>
<path transform="translate(0,0)" fill="rgb(86,11,60)" d="M 423.066 1490.17 C 432.795 1489.66 441.235 1490.48 450.212 1494.53 C 465.415 1501.4 478.847 1515.05 484.703 1530.74 C 488.685 1541.41 489.121 1553.47 484.075 1563.88 C 478.694 1574.97 468.904 1581.2 457.635 1585.08 C 445.355 1586.98 434.282 1585.47 423.272 1579.53 C 408.716 1571.68 397.032 1557.72 392.49 1541.76 C 389.347 1530.71 389.708 1518.11 395.692 1508.05 C 401.836 1497.73 411.873 1492.98 423.066 1490.17 z"/>
<path transform="translate(0,0)" fill="rgb(213,81,73)" d="M 421.874 1508.09 C 426.088 1507.86 430.433 1507.51 434.593 1508.39 C 446.828 1510.97 457.842 1519.63 464.437 1530.08 C 468.479 1536.49 471.389 1544.52 469.364 1552.11 C 467.37 1559.58 461.899 1563.92 455.54 1567.71 C 450.586 1568.3 445.673 1568.68 440.847 1567.18 C 428.561 1563.36 418.146 1553.88 412.239 1542.55 C 408.779 1535.92 406.572 1527.81 409.329 1520.53 C 411.645 1514.42 416.157 1510.83 421.874 1508.09 z"/>
<path transform="translate(0,0)" fill="rgb(213,81,73)" d="M 1001.9 1309.29 C 1043.15 1305.9 1098.95 1287.63 1138.28 1273.52 C 1215.71 1372.55 1284.08 1529.02 1303.6 1652.98 C 1306.63 1672.27 1308.95 1691.96 1309.03 1711.52 C 1309.09 1725.6 1305.64 1745.99 1308.68 1759.31 C 1304.75 1786.73 1282.79 1826.3 1265.23 1847.73 C 1206.33 1919.61 1106.89 1947.22 1019.55 1964.75 A 1591.52 1591.52 0 0 1 892.079 1984.08 C 901.881 1972.22 908.462 1959.93 912.994 1945.19 C 929.091 1892.83 917.574 1837.54 892.369 1790.19 C 907.041 1789.8 922.052 1787.77 936.683 1786.3 A 3626.52 3626.52 0 0 0 1028.03 1775.91 C 1043.9 1773.96 1069.91 1773.23 1083.91 1767.61 C 1087.82 1760.87 1085.49 1722.73 1084.88 1713.42 C 1074.23 1708.35 1061.92 1705.87 1050.53 1702.88 C 1032.58 1698.19 1014.53 1693.77 996.8 1688.31 A 120.76 120.76 0 0 0 1002.28 1684.58 C 1060.68 1643.16 1109.28 1572.9 1121.23 1501.81 C 1122.83 1492.3 1124.27 1472.13 1116.98 1464.28 C 1115.1 1462.25 1114.55 1462.18 1111.98 1462.09 C 1108.46 1465.63 1105.28 1492.04 1103.67 1499.08 A 273.463 273.463 0 0 1 1071.22 1580.48 C 1038.62 1634.65 986.803 1685.77 923.879 1701.35 C 925.739 1690.01 927.09 1678.46 927 1666.96 C 926.697 1628.24 912.232 1592.75 884.591 1565.74 C 915.527 1542.37 944.594 1516.76 966.381 1484.36 C 983.895 1458.31 1003.7 1418.31 997.236 1385.79 C 996.791 1376.15 1000.66 1364.67 1001.75 1354.88 C 1003.43 1339.79 1002.49 1324.41 1001.9 1309.29 z"/>
<path transform="translate(0,0)" fill="rgb(252,165,84)" d="M 630.591 991.106 C 630.741 989.967 630.902 988.818 631.137 987.693 C 635.165 968.381 644.032 948.71 652.038 930.764 C 679.201 869.879 706.767 828.591 764.014 792.077 C 847.683 738.71 976.129 742.85 1069.6 763.697 C 1058.94 768.425 1032.41 778.152 1027.38 788.573 C 1026.32 790.771 1026.24 793.089 1027.39 795.3 C 1028.33 797.103 1031.22 797.737 1033 798.429 L 1033.76 798.29 C 1034.62 800.354 1035.45 802.13 1035.79 804.36 C 1032.12 823.551 1069.42 887.286 1081.74 905.429 C 1092.56 921.367 1104.18 937.027 1117.17 951.274 C 1133.66 969.371 1176.54 1007.34 1201.02 1011.73 C 1204.24 1012.31 1207.82 1012.77 1211.07 1012.32 C 1218.33 1013.17 1221.52 1012.34 1227.25 1007.75 C 1238.64 998.64 1246.55 984.517 1255.64 973.233 C 1271.94 1009.5 1288.26 1032.89 1326.07 1047.92 L 1324.9 1048.87 C 1313.92 1057.63 1300.62 1065.15 1287.85 1070.97 C 1279.45 1074.8 1270.76 1078.02 1262.99 1083.06 C 1262.86 1086.9 1263.78 1089.29 1266.35 1092.05 C 1278.96 1105.65 1310.77 1124.23 1328.04 1131.29 C 1317.48 1141.84 1306 1153.76 1293.87 1162.43 C 1257.89 1192.25 1216.26 1217.28 1173.93 1237.12 C 1159.97 1243.66 1144.9 1248.55 1131.2 1255.37 C 1116.53 1259.84 1102.31 1265.61 1087.66 1270.11 A 687.803 687.803 0 0 1 977.751 1293.97 C 981.675 1272.69 982.903 1253.15 978.618 1231.79 C 969.253 1185.12 942.834 1152.19 903.799 1126.32 C 882.907 1119.47 867.802 1110.78 850.74 1096.85 C 843.169 1093.15 836.175 1088.36 828.459 1084.77 C 780.314 1062.37 737.006 1064.98 688.338 1082.75 C 681.833 1087.31 675.879 1090.18 667.763 1090.21 C 660.866 1088.06 654.442 1085.55 648.58 1081.23 C 633.045 1069.77 628.982 1050.13 626.109 1032.2 C 624.616 1017.53 626.301 1005.17 630.591 991.106 z"/>
<path transform="translate(0,0)" fill="rgb(254,254,254)" d="M 708.919 899.902 C 710.394 899.965 711.869 900.034 713.337 900.199 C 720.64 901.022 726.992 906.62 731.329 912.217 C 739.165 922.33 744.629 937.665 742.615 950.423 C 741.41 958.061 738.278 962.69 732.042 967.092 C 730.211 967.129 728.312 967.184 726.496 966.922 C 720.299 966.028 714.057 960.176 710.362 955.49 C 702.373 945.358 696.311 929.559 698.26 916.598 C 699.41 908.946 702.747 904.336 708.919 899.902 z"/>
<path transform="translate(0,0)" fill="rgb(254,254,254)" d="M 904.181 901.164 C 913.111 900.138 923.294 900.625 931.125 905.587 C 934.633 907.81 936.862 910.995 937.626 915.085 C 939.189 923.465 935.112 932.837 930.607 939.692 C 917.708 959.318 893.478 973.117 870.857 977.773 C 862.399 979.186 853.509 979.748 845.541 975.913 C 841.99 974.204 839.196 971.33 838.15 967.47 C 835.934 959.284 840.416 949.026 844.599 942.146 C 857.747 920.52 880.039 906.986 904.181 901.164 z"/>
<path transform="translate(0,0)" fill="rgb(86,11,60)" d="M 630.591 991.106 C 638.916 980.29 645.221 968.675 660.353 967.095 C 669.018 966.19 676.894 969.518 683.392 975.102 C 698.184 987.814 705.425 1009.43 706.506 1028.41 C 707.527 1046.34 702.436 1067.06 690.274 1080.66 A 101.874 101.874 0 0 1 688.338 1082.75 C 681.833 1087.31 675.879 1090.18 667.763 1090.21 C 660.866 1088.06 654.442 1085.55 648.58 1081.23 C 633.045 1069.77 628.982 1050.13 626.109 1032.2 C 624.616 1017.53 626.301 1005.17 630.591 991.106 z"/>
<path transform="translate(0,0)" fill="rgb(254,254,254)" d="M 664.229 986.986 C 666.519 986.915 668.588 987.057 670.784 987.72 C 677.302 989.688 682.451 995.559 685.412 1001.46 C 690.808 1012.22 692.203 1026.76 688.092 1038.16 C 685.139 1046.35 680.784 1051.04 672.99 1054.7 C 671.54 1054.56 670.089 1054.42 668.652 1054.18 C 662.439 1053.13 656.994 1048.36 653.642 1043.21 C 647.43 1033.66 645.685 1020.11 648.25 1009.11 C 650.592 999.069 655.44 992.228 664.229 986.986 z"/>
<path transform="translate(0,0)" fill="rgb(86,11,60)" d="M 850.74 1096.85 L 848.629 1093.64 C 847.311 1091.64 845.941 1089.66 844.823 1087.54 C 839.943 1078.27 840.18 1067.64 843.383 1057.91 C 850.567 1036.09 869.04 1018.53 889.21 1008.44 C 911.151 997.457 938.739 992.431 962.462 1000.46 C 980.051 1006.41 991.514 1017.97 999.645 1034.52 C 1005.19 1049.56 1004.95 1065.37 999.535 1080.43 C 990.329 1099.18 976.589 1114.79 956.296 1121.63 C 938.317 1127.69 922.139 1125.64 903.799 1126.32 C 882.907 1119.47 867.802 1110.78 850.74 1096.85 z"/>
<path transform="translate(0,0)" fill="rgb(254,254,254)" d="M 913.073 1017.29 C 921.593 1016.46 930.483 1017.63 937.991 1021.93 A 33.7512 33.7512 0 0 1 954.024 1043.86 C 956.342 1054 954.131 1064.49 948.281 1073.05 C 941.165 1083.46 931.361 1088.58 919.303 1090.99 C 909.125 1091.2 900.069 1090.54 891.306 1084.77 A 35.9144 35.9144 0 0 1 875.782 1061.46 A 34.8771 34.8771 0 0 1 881.6 1034.27 C 889.227 1023.68 900.723 1019.39 913.073 1017.29 z"/>
<path transform="translate(0,0)" fill="rgb(254,254,254)" d="M 999.645 1034.52 C 1009.58 1031.69 1018.85 1029.06 1029.32 1030 C 1063.06 1033.03 1136.22 1073.89 1168.82 1092.04 C 1191.9 1104.89 1214.28 1118.98 1237.48 1131.63 C 1254.41 1140.86 1279.47 1150.78 1293.87 1162.43 C 1257.89 1192.25 1216.26 1217.28 1173.93 1237.12 C 1159.97 1243.66 1144.9 1248.55 1131.2 1255.37 C 1116.53 1259.84 1102.31 1265.61 1087.66 1270.11 A 687.803 687.803 0 0 1 977.751 1293.97 C 981.675 1272.69 982.903 1253.15 978.618 1231.79 C 969.253 1185.12 942.834 1152.19 903.799 1126.32 C 922.139 1125.64 938.317 1127.69 956.296 1121.63 C 976.589 1114.79 990.329 1099.18 999.535 1080.43 C 1004.95 1065.37 1005.19 1049.56 999.645 1034.52 z"/>
<path transform="translate(0,0)" fill="rgb(213,81,73)" d="M 999.535 1080.43 C 1032.73 1085.08 1065.02 1114.75 1084.43 1140.34 C 1110.47 1174.68 1122.27 1213.88 1131.2 1255.37 C 1116.53 1259.84 1102.31 1265.61 1087.66 1270.11 A 687.803 687.803 0 0 1 977.751 1293.97 C 981.675 1272.69 982.903 1253.15 978.618 1231.79 C 969.253 1185.12 942.834 1152.19 903.799 1126.32 C 922.139 1125.64 938.317 1127.69 956.296 1121.63 C 976.589 1114.79 990.329 1099.18 999.535 1080.43 z"/>
</svg>