<svg width="724" height="279" viewBox="0 0 724 279" fill="none" xmlns="http://www.w3.org/2000/svg">
<rect x="0.5" y="0.5" width="723" height="278" rx="11.5" fill="white" stroke="black"/>
<path d="M111.276 194H108.182V185.273H111.302C112.18 185.273 112.935 185.447 113.569 185.797C114.202 186.143 114.689 186.642 115.03 187.293C115.374 187.943 115.546 188.722 115.546 189.628C115.546 190.537 115.374 191.318 115.03 191.972C114.689 192.625 114.199 193.126 113.56 193.476C112.924 193.825 112.162 194 111.276 194ZM110.028 192.419H111.199C111.745 192.419 112.204 192.322 112.576 192.129C112.951 191.933 113.232 191.631 113.42 191.222C113.61 190.81 113.705 190.278 113.705 189.628C113.705 188.983 113.61 188.456 113.42 188.047C113.232 187.638 112.952 187.337 112.58 187.143C112.208 186.95 111.749 186.854 111.204 186.854H110.028V192.419ZM119.862 194.128C119.188 194.128 118.609 193.991 118.123 193.719C117.64 193.443 117.268 193.054 117.007 192.551C116.745 192.045 116.615 191.447 116.615 190.757C116.615 190.084 116.745 189.493 117.007 188.984C117.268 188.476 117.636 188.08 118.11 187.795C118.588 187.511 119.147 187.369 119.789 187.369C120.221 187.369 120.623 187.439 120.995 187.578C121.37 187.714 121.697 187.92 121.975 188.196C122.257 188.472 122.475 188.818 122.632 189.236C122.788 189.651 122.866 190.136 122.866 190.693V191.192H117.339V190.067H121.157C121.157 189.805 121.1 189.574 120.987 189.372C120.873 189.17 120.715 189.013 120.514 188.899C120.315 188.783 120.083 188.724 119.819 188.724C119.544 188.724 119.299 188.788 119.086 188.916C118.876 189.041 118.711 189.21 118.592 189.423C118.472 189.634 118.411 189.868 118.409 190.126V191.196C118.409 191.52 118.468 191.8 118.588 192.036C118.71 192.271 118.882 192.453 119.103 192.581C119.325 192.709 119.588 192.773 119.892 192.773C120.093 192.773 120.278 192.744 120.445 192.688C120.613 192.631 120.757 192.545 120.876 192.432C120.995 192.318 121.086 192.179 121.149 192.014L122.828 192.125C122.742 192.528 122.568 192.881 122.303 193.182C122.042 193.48 121.704 193.713 121.289 193.881C120.877 194.045 120.401 194.128 119.862 194.128ZM127.57 187.455V188.818H123.531V187.455H127.57ZM124.455 194V186.982C124.455 186.507 124.548 186.114 124.732 185.801C124.92 185.489 125.176 185.254 125.499 185.098C125.823 184.942 126.191 184.864 126.603 184.864C126.882 184.864 127.136 184.885 127.366 184.928C127.599 184.97 127.772 185.009 127.886 185.043L127.562 186.406C127.491 186.384 127.403 186.362 127.298 186.342C127.195 186.322 127.09 186.312 126.982 186.312C126.715 186.312 126.529 186.375 126.424 186.5C126.319 186.622 126.267 186.794 126.267 187.016V194H124.455ZM128.68 194V187.455H130.495V194H128.68ZM129.591 186.611C129.322 186.611 129.09 186.521 128.897 186.342C128.706 186.161 128.611 185.943 128.611 185.69C128.611 185.44 128.706 185.226 128.897 185.047C129.09 184.865 129.322 184.774 129.591 184.774C129.861 184.774 130.091 184.865 130.282 185.047C130.475 185.226 130.572 185.44 130.572 185.69C130.572 185.943 130.475 186.161 130.282 186.342C130.091 186.521 129.861 186.611 129.591 186.611ZM133.764 190.216V194H131.949V187.455H133.679V188.609H133.756C133.901 188.229 134.144 187.928 134.485 187.706C134.825 187.482 135.239 187.369 135.725 187.369C136.179 187.369 136.575 187.469 136.914 187.668C137.252 187.866 137.514 188.151 137.702 188.52C137.889 188.886 137.983 189.324 137.983 189.832V194H136.168V190.156C136.171 189.756 136.068 189.443 135.861 189.219C135.654 188.991 135.368 188.878 135.004 188.878C134.76 188.878 134.544 188.93 134.357 189.036C134.172 189.141 134.027 189.294 133.922 189.496C133.82 189.695 133.767 189.935 133.764 190.216ZM142.397 194.128C141.724 194.128 141.144 193.991 140.658 193.719C140.175 193.443 139.803 193.054 139.542 192.551C139.28 192.045 139.15 191.447 139.15 190.757C139.15 190.084 139.28 189.493 139.542 188.984C139.803 188.476 140.171 188.08 140.645 187.795C141.123 187.511 141.682 187.369 142.324 187.369C142.756 187.369 143.158 187.439 143.53 187.578C143.905 187.714 144.232 187.92 144.51 188.196C144.792 188.472 145.01 188.818 145.167 189.236C145.323 189.651 145.401 190.136 145.401 190.693V191.192H139.874V190.067H143.692C143.692 189.805 143.635 189.574 143.522 189.372C143.408 189.17 143.251 189.013 143.049 188.899C142.85 188.783 142.618 188.724 142.354 188.724C142.079 188.724 141.834 188.788 141.621 188.916C141.411 189.041 141.246 189.21 141.127 189.423C141.008 189.634 140.947 189.868 140.944 190.126V191.196C140.944 191.52 141.003 191.8 141.123 192.036C141.245 192.271 141.417 192.453 141.638 192.581C141.86 192.709 142.123 192.773 142.427 192.773C142.628 192.773 142.813 192.744 142.981 192.688C143.148 192.631 143.292 192.545 143.411 192.432C143.53 192.318 143.621 192.179 143.684 192.014L145.363 192.125C145.278 192.528 145.103 192.881 144.839 193.182C144.577 193.48 144.239 193.713 143.824 193.881C143.412 194.045 142.937 194.128 142.397 194.128ZM149.397 194V185.273H152.84C153.502 185.273 154.066 185.399 154.532 185.652C154.998 185.902 155.353 186.25 155.597 186.696C155.845 187.139 155.968 187.651 155.968 188.23C155.968 188.81 155.843 189.321 155.593 189.764C155.343 190.207 154.981 190.553 154.507 190.8C154.035 191.047 153.464 191.17 152.794 191.17H150.599V189.692H152.495C152.85 189.692 153.143 189.631 153.373 189.509C153.606 189.384 153.779 189.212 153.893 188.993C154.009 188.771 154.068 188.517 154.068 188.23C154.068 187.94 154.009 187.687 153.893 187.472C153.779 187.253 153.606 187.084 153.373 186.964C153.14 186.842 152.845 186.781 152.487 186.781H151.242V194H149.397ZM157.133 194V187.455H158.893V188.597H158.961C159.08 188.19 159.28 187.884 159.562 187.676C159.843 187.466 160.167 187.361 160.533 187.361C160.624 187.361 160.722 187.366 160.827 187.378C160.932 187.389 161.025 187.405 161.104 187.425V189.036C161.019 189.01 160.901 188.987 160.751 188.967C160.6 188.947 160.462 188.938 160.337 188.938C160.07 188.938 159.831 188.996 159.621 189.112C159.414 189.226 159.249 189.385 159.127 189.589C159.008 189.794 158.948 190.03 158.948 190.297V194H157.133ZM164.695 194.128C164.034 194.128 163.461 193.987 162.978 193.706C162.498 193.422 162.127 193.027 161.866 192.521C161.605 192.013 161.474 191.423 161.474 190.753C161.474 190.077 161.605 189.486 161.866 188.98C162.127 188.472 162.498 188.077 162.978 187.795C163.461 187.511 164.034 187.369 164.695 187.369C165.357 187.369 165.928 187.511 166.409 187.795C166.892 188.077 167.264 188.472 167.525 188.98C167.786 189.486 167.917 190.077 167.917 190.753C167.917 191.423 167.786 192.013 167.525 192.521C167.264 193.027 166.892 193.422 166.409 193.706C165.928 193.987 165.357 194.128 164.695 194.128ZM164.704 192.722C165.005 192.722 165.257 192.636 165.458 192.466C165.66 192.293 165.812 192.057 165.914 191.759C166.019 191.46 166.072 191.121 166.072 190.74C166.072 190.359 166.019 190.02 165.914 189.722C165.812 189.423 165.66 189.187 165.458 189.014C165.257 188.841 165.005 188.754 164.704 188.754C164.4 188.754 164.144 188.841 163.937 189.014C163.732 189.187 163.578 189.423 163.472 189.722C163.37 190.02 163.319 190.359 163.319 190.74C163.319 191.121 163.37 191.46 163.472 191.759C163.578 192.057 163.732 192.293 163.937 192.466C164.144 192.636 164.4 192.722 164.704 192.722ZM169.097 194V187.455H170.828V188.609H170.904C171.041 188.226 171.268 187.923 171.586 187.702C171.904 187.48 172.285 187.369 172.728 187.369C173.177 187.369 173.559 187.482 173.874 187.706C174.19 187.928 174.4 188.229 174.505 188.609H174.573C174.707 188.234 174.948 187.935 175.298 187.71C175.65 187.483 176.066 187.369 176.546 187.369C177.157 187.369 177.653 187.564 178.034 187.953C178.417 188.339 178.609 188.888 178.609 189.598V194H176.798V189.956C176.798 189.592 176.701 189.32 176.508 189.138C176.315 188.956 176.073 188.865 175.784 188.865C175.454 188.865 175.197 188.97 175.012 189.18C174.828 189.388 174.735 189.662 174.735 190.003V194H172.975V189.918C172.975 189.597 172.883 189.341 172.698 189.151C172.517 188.96 172.276 188.865 171.978 188.865C171.776 188.865 171.595 188.916 171.433 189.018C171.274 189.118 171.147 189.259 171.053 189.44C170.96 189.619 170.913 189.83 170.913 190.071V194H169.097ZM180.043 196.455V187.455H181.833V188.554H181.914C181.993 188.378 182.108 188.199 182.259 188.017C182.412 187.832 182.611 187.679 182.855 187.557C183.102 187.432 183.409 187.369 183.776 187.369C184.253 187.369 184.693 187.494 185.097 187.744C185.5 187.991 185.823 188.365 186.064 188.865C186.306 189.362 186.426 189.986 186.426 190.736C186.426 191.466 186.308 192.082 186.073 192.585C185.84 193.085 185.521 193.464 185.118 193.723C184.718 193.979 184.269 194.107 183.771 194.107C183.419 194.107 183.119 194.048 182.872 193.932C182.628 193.815 182.428 193.669 182.271 193.493C182.115 193.314 181.996 193.134 181.914 192.952H181.858V196.455H180.043ZM181.82 190.727C181.82 191.116 181.874 191.456 181.982 191.746C182.09 192.036 182.246 192.261 182.45 192.423C182.655 192.582 182.904 192.662 183.196 192.662C183.492 192.662 183.742 192.581 183.946 192.419C184.151 192.254 184.306 192.027 184.411 191.737C184.519 191.445 184.573 191.108 184.573 190.727C184.573 190.349 184.52 190.017 184.415 189.73C184.31 189.443 184.155 189.219 183.95 189.057C183.746 188.895 183.494 188.814 183.196 188.814C182.901 188.814 182.651 188.892 182.446 189.048C182.244 189.205 182.09 189.426 181.982 189.713C181.874 190 181.82 190.338 181.82 190.727ZM191.118 187.455V188.818H187.176V187.455H191.118ZM188.071 185.886H189.887V191.989C189.887 192.156 189.912 192.287 189.963 192.381C190.014 192.472 190.085 192.536 190.176 192.572C190.27 192.609 190.378 192.628 190.5 192.628C190.585 192.628 190.671 192.621 190.756 192.607C190.841 192.589 190.906 192.577 190.952 192.568L191.237 193.919C191.146 193.947 191.019 193.98 190.854 194.017C190.689 194.057 190.489 194.081 190.253 194.089C189.816 194.107 189.432 194.048 189.102 193.915C188.776 193.781 188.521 193.574 188.34 193.293C188.158 193.011 188.068 192.656 188.071 192.227V185.886Z" fill="#B2BEDC"/>
<path d="M561.159 189.636C561.159 190.588 560.979 191.398 560.618 192.065C560.26 192.733 559.771 193.243 559.152 193.595C558.536 193.945 557.843 194.119 557.073 194.119C556.297 194.119 555.601 193.943 554.985 193.591C554.368 193.239 553.881 192.729 553.523 192.061C553.165 191.393 552.986 190.585 552.986 189.636C552.986 188.685 553.165 187.875 553.523 187.207C553.881 186.54 554.368 186.031 554.985 185.682C555.601 185.33 556.297 185.153 557.073 185.153C557.843 185.153 558.536 185.33 559.152 185.682C559.771 186.031 560.26 186.54 560.618 187.207C560.979 187.875 561.159 188.685 561.159 189.636ZM559.289 189.636C559.289 189.02 559.196 188.5 559.012 188.077C558.83 187.653 558.573 187.332 558.24 187.114C557.908 186.895 557.519 186.786 557.073 186.786C556.627 186.786 556.237 186.895 555.905 187.114C555.573 187.332 555.314 187.653 555.129 188.077C554.948 188.5 554.857 189.02 554.857 189.636C554.857 190.253 554.948 190.773 555.129 191.196C555.314 191.619 555.573 191.94 555.905 192.159C556.237 192.378 556.627 192.487 557.073 192.487C557.519 192.487 557.908 192.378 558.24 192.159C558.573 191.94 558.83 191.619 559.012 191.196C559.196 190.773 559.289 190.253 559.289 189.636ZM566.689 191.213V187.455H568.505V194H566.762V192.811H566.694C566.546 193.195 566.3 193.503 565.956 193.736C565.616 193.969 565.199 194.085 564.708 194.085C564.27 194.085 563.885 193.986 563.553 193.787C563.221 193.588 562.961 193.305 562.773 192.939C562.589 192.572 562.495 192.134 562.492 191.622V187.455H564.307V191.298C564.31 191.685 564.414 191.99 564.618 192.214C564.823 192.439 565.097 192.551 565.441 192.551C565.66 192.551 565.864 192.501 566.055 192.402C566.245 192.3 566.398 192.149 566.515 191.95C566.634 191.751 566.692 191.506 566.689 191.213ZM573.438 187.455V188.818H569.497V187.455H573.438ZM570.392 185.886H572.207V191.989C572.207 192.156 572.232 192.287 572.284 192.381C572.335 192.472 572.406 192.536 572.497 192.572C572.59 192.609 572.698 192.628 572.82 192.628C572.906 192.628 572.991 192.621 573.076 192.607C573.161 192.589 573.227 192.577 573.272 192.568L573.558 193.919C573.467 193.947 573.339 193.98 573.174 194.017C573.009 194.057 572.809 194.081 572.573 194.089C572.136 194.107 571.752 194.048 571.423 193.915C571.096 193.781 570.842 193.574 570.66 193.293C570.478 193.011 570.389 192.656 570.392 192.227V185.886ZM574.621 196.455V187.455H576.411V188.554H576.492C576.571 188.378 576.686 188.199 576.837 188.017C576.99 187.832 577.189 187.679 577.433 187.557C577.681 187.432 577.987 187.369 578.354 187.369C578.831 187.369 579.271 187.494 579.675 187.744C580.078 187.991 580.401 188.365 580.642 188.865C580.884 189.362 581.004 189.986 581.004 190.736C581.004 191.466 580.887 192.082 580.651 192.585C580.418 193.085 580.1 193.464 579.696 193.723C579.296 193.979 578.847 194.107 578.35 194.107C577.997 194.107 577.698 194.048 577.45 193.932C577.206 193.815 577.006 193.669 576.85 193.493C576.693 193.314 576.574 193.134 576.492 192.952H576.436V196.455H574.621ZM576.398 190.727C576.398 191.116 576.452 191.456 576.56 191.746C576.668 192.036 576.824 192.261 577.029 192.423C577.233 192.582 577.482 192.662 577.774 192.662C578.07 192.662 578.32 192.581 578.524 192.419C578.729 192.254 578.884 192.027 578.989 191.737C579.097 191.445 579.151 191.108 579.151 190.727C579.151 190.349 579.098 190.017 578.993 189.73C578.888 189.443 578.733 189.219 578.529 189.057C578.324 188.895 578.073 188.814 577.774 188.814C577.479 188.814 577.229 188.892 577.024 189.048C576.823 189.205 576.668 189.426 576.56 189.713C576.452 190 576.398 190.338 576.398 190.727ZM586.412 191.213V187.455H588.227V194H586.485V192.811H586.416C586.269 193.195 586.023 193.503 585.679 193.736C585.338 193.969 584.922 194.085 584.431 194.085C583.993 194.085 583.608 193.986 583.276 193.787C582.943 193.588 582.683 193.305 582.496 192.939C582.311 192.572 582.218 192.134 582.215 191.622V187.455H584.03V191.298C584.033 191.685 584.137 191.99 584.341 192.214C584.546 192.439 584.82 192.551 585.164 192.551C585.382 192.551 585.587 192.501 585.777 192.402C585.968 192.3 586.121 192.149 586.237 191.95C586.357 191.751 586.415 191.506 586.412 191.213ZM593.161 187.455V188.818H589.219V187.455H593.161ZM590.114 185.886H591.93V191.989C591.93 192.156 591.955 192.287 592.006 192.381C592.057 192.472 592.128 192.536 592.219 192.572C592.313 192.609 592.421 192.628 592.543 192.628C592.628 192.628 592.714 192.621 592.799 192.607C592.884 192.589 592.949 192.577 592.995 192.568L593.28 193.919C593.189 193.947 593.062 193.98 592.897 194.017C592.732 194.057 592.532 194.081 592.296 194.089C591.858 194.107 591.475 194.048 591.145 193.915C590.819 193.781 590.564 193.574 590.383 193.293C590.201 193.011 590.111 192.656 590.114 192.227V185.886Z" fill="#B2BEDC"/>
<rect x="272" y="82" width="180" height="88" rx="9" fill="#E0E3ED"/>
<rect x="60" y="82" width="180" height="88" rx="9" fill="#E0E3ED"/>
<rect x="484" y="82" width="180" height="88" rx="9" fill="#E0E3ED"/>
<rect x="60" y="108" width="180" height="2" fill="#C0C7E6"/>
<rect x="272" y="108" width="180" height="2" fill="#C0C7E6"/>
<rect x="484" y="108" width="180" height="2" fill="#C0C7E6"/>
<path d="M240 125.5H272V126.5H240L240 125.5Z" fill="#7F879F"/>
<path d="M452 125.5H484V126.5H452L452 125.5Z" fill="#7F879F"/>
<circle cx="256" cy="126" r="7.5" fill="white" stroke="#7F879F"/>
<circle cx="468" cy="126" r="7.5" fill="white" stroke="#7F879F"/>
<circle cx="73.5" cy="95.5" r="6.5" fill="white"/>
<circle cx="285.5" cy="95.5" r="6.5" fill="white"/>
<circle cx="497.5" cy="95.5" r="6.5" fill="white"/>
<path d="M256 123C256.276 123 256.5 123.224 256.5 123.5L256.5 128.5C256.5 128.776 256.276 129 256 129V129C255.724 129 255.5 128.776 255.5 128.5L255.5 123.5C255.5 123.224 255.724 123 256 123V123Z" fill="#7F879F"/>
<path d="M468 123C468.276 123 468.5 123.224 468.5 123.5L468.5 128.5C468.5 128.776 468.276 129 468 129V129C467.724 129 467.5 128.776 467.5 128.5L467.5 123.5C467.5 123.224 467.724 123 468 123V123Z" fill="#7F879F"/>
<path d="M259 126C259 126.276 258.776 126.5 258.5 126.5L253.5 126.5C253.224 126.5 253 126.276 253 126V126C253 125.724 253.224 125.5 253.5 125.5L258.5 125.5C258.776 125.5 259 125.724 259 126V126Z" fill="#7F879F"/>
<path d="M471 126C471 126.276 470.776 126.5 470.5 126.5L465.5 126.5C465.224 126.5 465 126.276 465 126V126C465 125.724 465.224 125.5 465.5 125.5L470.5 125.5C470.776 125.5 471 125.724 471 126V126Z" fill="#7F879F"/>
<rect x="84" y="92" width="62" height="8" rx="3" fill="#C0C7E5"/>
<rect x="296" y="92" width="40" height="8" rx="3" fill="#C0C7E5"/>
<rect x="508" y="92" width="92" height="8" rx="3" fill="#C0C7E5"/>
<rect x="342" y="92" width="20" height="8" rx="3" fill="#C0C7E5"/>
<rect x="152" y="92" width="43" height="8" rx="3" fill="#C0C7E5"/>
<path d="M74 122H226V154C226 155.105 225.105 156 224 156H76C74.8954 156 74 155.105 74 154V122Z" fill="white"/>
<path d="M286 122H438V154C438 155.105 437.105 156 436 156H288C286.895 156 286 155.105 286 154V122Z" fill="white"/>
<path d="M498 122H650V154C650 155.105 649.105 156 648 156H500C498.895 156 498 155.105 498 154V122Z" fill="white"/>
<path d="M320.245 194V185.273H322.09V192.479H325.831V194H320.245ZM327.053 194V185.273H328.899V192.479H332.64V194H327.053ZM333.862 185.273H336.138L338.541 191.136H338.643L341.047 185.273H343.322V194H341.532V188.32H341.46L339.202 193.957H337.983L335.724 188.298H335.652V194H333.862V185.273ZM353.032 189.321L351.37 189.423C351.341 189.281 351.28 189.153 351.187 189.04C351.093 188.923 350.969 188.831 350.816 188.763C350.665 188.692 350.485 188.656 350.275 188.656C349.993 188.656 349.756 188.716 349.563 188.835C349.37 188.952 349.273 189.108 349.273 189.304C349.273 189.46 349.336 189.592 349.461 189.7C349.586 189.808 349.8 189.895 350.104 189.96L351.289 190.199C351.925 190.33 352.4 190.54 352.712 190.83C353.025 191.119 353.181 191.5 353.181 191.972C353.181 192.401 353.055 192.777 352.802 193.101C352.552 193.425 352.208 193.678 351.77 193.859C351.336 194.038 350.834 194.128 350.266 194.128C349.4 194.128 348.709 193.947 348.195 193.587C347.684 193.223 347.384 192.729 347.296 192.104L349.081 192.01C349.135 192.274 349.266 192.476 349.474 192.615C349.681 192.751 349.947 192.82 350.27 192.82C350.589 192.82 350.844 192.759 351.037 192.636C351.233 192.511 351.333 192.351 351.336 192.155C351.333 191.99 351.263 191.855 351.127 191.75C350.991 191.642 350.78 191.56 350.496 191.503L349.363 191.277C348.724 191.149 348.248 190.928 347.935 190.612C347.626 190.297 347.471 189.895 347.471 189.406C347.471 188.986 347.584 188.624 347.812 188.32C348.042 188.016 348.364 187.781 348.779 187.616C349.197 187.452 349.685 187.369 350.245 187.369C351.072 187.369 351.722 187.544 352.197 187.893C352.674 188.243 352.952 188.719 353.032 189.321ZM358.521 191.213V187.455H360.337V194H358.594V192.811H358.526C358.378 193.195 358.132 193.503 357.789 193.736C357.448 193.969 357.031 194.085 356.54 194.085C356.102 194.085 355.718 193.986 355.385 193.787C355.053 193.588 354.793 193.305 354.605 192.939C354.421 192.572 354.327 192.134 354.324 191.622V187.455H356.139V191.298C356.142 191.685 356.246 191.99 356.45 192.214C356.655 192.439 356.929 192.551 357.273 192.551C357.492 192.551 357.696 192.501 357.887 192.402C358.077 192.3 358.23 192.149 358.347 191.95C358.466 191.751 358.524 191.506 358.521 191.213ZM361.789 196.455V187.455H363.579V188.554H363.66C363.739 188.378 363.854 188.199 364.005 188.017C364.158 187.832 364.357 187.679 364.601 187.557C364.849 187.432 365.155 187.369 365.522 187.369C365.999 187.369 366.439 187.494 366.843 187.744C367.246 187.991 367.569 188.365 367.81 188.865C368.052 189.362 368.172 189.986 368.172 190.736C368.172 191.466 368.055 192.082 367.819 192.585C367.586 193.085 367.268 193.464 366.864 193.723C366.464 193.979 366.015 194.107 365.518 194.107C365.165 194.107 364.866 194.048 364.618 193.932C364.374 193.815 364.174 193.669 364.018 193.493C363.861 193.314 363.742 193.134 363.66 192.952H363.604V196.455H361.789ZM363.566 190.727C363.566 191.116 363.62 191.456 363.728 191.746C363.836 192.036 363.992 192.261 364.197 192.423C364.401 192.582 364.65 192.662 364.942 192.662C365.238 192.662 365.488 192.581 365.692 192.419C365.897 192.254 366.052 192.027 366.157 191.737C366.265 191.445 366.319 191.108 366.319 190.727C366.319 190.349 366.266 190.017 366.161 189.73C366.056 189.443 365.901 189.219 365.697 189.057C365.492 188.895 365.241 188.814 364.942 188.814C364.647 188.814 364.397 188.892 364.192 189.048C363.991 189.205 363.836 189.426 363.728 189.713C363.62 190 363.566 190.338 363.566 190.727ZM369.383 196.455V187.455H371.172V188.554H371.253C371.333 188.378 371.448 188.199 371.599 188.017C371.752 187.832 371.951 187.679 372.195 187.557C372.442 187.432 372.749 187.369 373.116 187.369C373.593 187.369 374.033 187.494 374.437 187.744C374.84 187.991 375.162 188.365 375.404 188.865C375.645 189.362 375.766 189.986 375.766 190.736C375.766 191.466 375.648 192.082 375.412 192.585C375.18 193.085 374.861 193.464 374.458 193.723C374.057 193.979 373.608 194.107 373.111 194.107C372.759 194.107 372.459 194.048 372.212 193.932C371.968 193.815 371.768 193.669 371.611 193.493C371.455 193.314 371.336 193.134 371.253 192.952H371.198V196.455H369.383ZM371.16 190.727C371.16 191.116 371.214 191.456 371.322 191.746C371.43 192.036 371.586 192.261 371.79 192.423C371.995 192.582 372.243 192.662 372.536 192.662C372.831 192.662 373.081 192.581 373.286 192.419C373.491 192.254 373.645 192.027 373.751 191.737C373.858 191.445 373.912 191.108 373.912 190.727C373.912 190.349 373.86 190.017 373.755 189.73C373.65 189.443 373.495 189.219 373.29 189.057C373.086 188.895 372.834 188.814 372.536 188.814C372.241 188.814 371.991 188.892 371.786 189.048C371.584 189.205 371.43 189.426 371.322 189.713C371.214 190 371.16 190.338 371.16 190.727ZM379.934 194.128C379.272 194.128 378.699 193.987 378.216 193.706C377.736 193.422 377.366 193.027 377.104 192.521C376.843 192.013 376.712 191.423 376.712 190.753C376.712 190.077 376.843 189.486 377.104 188.98C377.366 188.472 377.736 188.077 378.216 187.795C378.699 187.511 379.272 187.369 379.934 187.369C380.596 187.369 381.167 187.511 381.647 187.795C382.13 188.077 382.502 188.472 382.763 188.98C383.025 189.486 383.155 190.077 383.155 190.753C383.155 191.423 383.025 192.013 382.763 192.521C382.502 193.027 382.13 193.422 381.647 193.706C381.167 193.987 380.596 194.128 379.934 194.128ZM379.942 192.722C380.243 192.722 380.495 192.636 380.697 192.466C380.898 192.293 381.05 192.057 381.153 191.759C381.258 191.46 381.31 191.121 381.31 190.74C381.31 190.359 381.258 190.02 381.153 189.722C381.05 189.423 380.898 189.187 380.697 189.014C380.495 188.841 380.243 188.754 379.942 188.754C379.638 188.754 379.383 188.841 379.175 189.014C378.971 189.187 378.816 189.423 378.711 189.722C378.608 190.02 378.557 190.359 378.557 190.74C378.557 191.121 378.608 191.46 378.711 191.759C378.816 192.057 378.971 192.293 379.175 192.466C379.383 192.636 379.638 192.722 379.942 192.722ZM384.336 194V187.455H386.096V188.597H386.164C386.283 188.19 386.483 187.884 386.765 187.676C387.046 187.466 387.37 187.361 387.736 187.361C387.827 187.361 387.925 187.366 388.03 187.378C388.135 187.389 388.228 187.405 388.307 187.425V189.036C388.222 189.01 388.104 188.987 387.954 188.967C387.803 188.947 387.665 188.938 387.54 188.938C387.273 188.938 387.035 188.996 386.824 189.112C386.617 189.226 386.452 189.385 386.33 189.589C386.211 189.794 386.151 190.03 386.151 190.297V194H384.336ZM393.056 187.455V188.818H389.114V187.455H393.056ZM390.009 185.886H391.824V191.989C391.824 192.156 391.85 192.287 391.901 192.381C391.952 192.472 392.023 192.536 392.114 192.572C392.208 192.609 392.316 192.628 392.438 192.628C392.523 192.628 392.608 192.621 392.693 192.607C392.779 192.589 392.844 192.577 392.889 192.568L393.175 193.919C393.084 193.947 392.956 193.98 392.791 194.017C392.627 194.057 392.426 194.081 392.191 194.089C391.753 194.107 391.369 194.048 391.04 193.915C390.713 193.781 390.459 193.574 390.277 193.293C390.095 193.011 390.006 192.656 390.009 192.227V185.886Z" fill="#B2BEDC"/>
<path d="M74.6671 96.6662C75.9556 96.6662 77.0002 95.6216 77.0002 94.3331C77.0002 93.0446 75.9556 92 74.6671 92C73.3785 92 72.334 93.0446 72.334 94.3331C72.334 95.6216 73.3785 96.6662 74.6671 96.6662Z" fill="#C7D2FE"/>
<path d="M71.7031 94.3331H71.4889C70.6664 94.3331 70 95.0002 70 95.822V97.5111C70 98.3336 70.6664 99 71.4889 99H73.178C74.0005 99 74.6669 98.3336 74.6669 97.5111V97.2969C73.0331 97.2969 71.7038 95.9676 71.7038 94.3338L71.7031 94.3331Z" fill="#4F46E5"/>
<path d="M74.6671 96.667V95.8228C74.6671 95.0003 74.0007 94.3339 73.1782 94.3339H72.334C72.334 95.6226 73.3784 96.667 74.6671 96.667Z" fill="#818CF8"/>
<path d="M288.527 94.9885C288.608 94.7426 288.637 94.4821 288.609 94.2244C288.582 93.9667 288.501 93.7178 288.37 93.4942C288.176 93.1562 287.879 92.8887 287.523 92.7301C287.167 92.5715 286.77 92.53 286.389 92.6117C286.172 92.3709 285.896 92.1913 285.588 92.0909C285.28 91.9905 284.952 91.9729 284.635 92.0399C284.318 92.1068 284.024 92.256 283.783 92.4723C283.542 92.6887 283.362 92.9647 283.262 93.2725C283.008 93.3246 282.768 93.4302 282.558 93.5824C282.349 93.7346 282.174 93.9298 282.045 94.155C281.849 94.4924 281.765 94.8834 281.806 95.2716C281.847 95.6598 282.01 96.025 282.271 96.3145C282.189 96.5602 282.161 96.8207 282.188 97.0784C282.215 97.3361 282.296 97.5851 282.427 97.8088C282.621 98.1468 282.918 98.4145 283.274 98.5731C283.631 98.7317 284.028 98.7731 284.409 98.6913C284.581 98.885 284.793 99.0397 285.029 99.1453C285.266 99.2508 285.522 99.3046 285.781 99.3032C286.172 99.3035 286.552 99.1797 286.868 98.9497C287.184 98.7197 287.418 98.3953 287.538 98.0233C287.791 97.9712 288.031 97.8655 288.241 97.7133C288.451 97.5611 288.626 97.366 288.754 97.1408C288.948 96.804 289.03 96.4144 288.99 96.0278C288.949 95.6412 288.787 95.2774 288.527 94.9885ZM285.781 98.8252C285.461 98.8257 285.151 98.7135 284.906 98.5084L284.949 98.484L286.403 97.6447C286.439 97.6234 286.469 97.5932 286.49 97.5568C286.511 97.5205 286.522 97.4793 286.523 97.4373V95.3873L287.137 95.7429C287.14 95.7445 287.143 95.7467 287.145 95.7494C287.147 95.7522 287.148 95.7554 287.149 95.7587V97.4575C287.148 97.82 287.004 98.1674 286.747 98.4237C286.491 98.6801 286.144 98.8244 285.781 98.8252ZM282.842 97.5698C282.681 97.2928 282.623 96.9681 282.679 96.6527L282.722 96.6787L284.178 97.518C284.214 97.5391 284.255 97.5503 284.296 97.5503C284.338 97.5503 284.379 97.5391 284.415 97.518L286.193 96.493V97.2027C286.193 97.2064 286.192 97.21 286.19 97.2132C286.188 97.2165 286.186 97.2193 286.183 97.2214L284.71 98.0708C284.396 98.2519 284.023 98.3008 283.672 98.2069C283.322 98.1129 283.023 97.8838 282.842 97.5698ZM282.459 94.4026C282.62 94.1238 282.875 93.9111 283.178 93.8023V95.5299C283.178 95.5716 283.189 95.6127 283.209 95.6489C283.23 95.6851 283.26 95.7151 283.296 95.7357L285.066 96.7564L284.451 97.112C284.448 97.1138 284.444 97.1147 284.44 97.1147C284.436 97.1147 284.433 97.1138 284.429 97.112L282.96 96.2641C282.646 96.0822 282.417 95.7835 282.323 95.4332C282.229 95.083 282.278 94.7098 282.459 94.3954V94.4026ZM287.509 95.5759L285.734 94.5451L286.347 94.1909C286.35 94.1892 286.354 94.1883 286.358 94.1883C286.362 94.1883 286.365 94.1892 286.369 94.1909L287.838 95.0403C288.063 95.17 288.246 95.3609 288.367 95.5908C288.487 95.8207 288.539 96.0801 288.518 96.3387C288.496 96.5972 288.402 96.8443 288.245 97.0511C288.088 97.2579 287.876 97.4158 287.633 97.5064V95.7789C287.631 95.7372 287.619 95.6966 287.598 95.661C287.576 95.6254 287.545 95.5961 287.509 95.5759ZM288.121 94.656L288.077 94.6301L286.625 93.7836C286.589 93.7623 286.547 93.7511 286.505 93.7511C286.463 93.7511 286.422 93.7623 286.386 93.7836L284.609 94.8086V94.0989C284.609 94.0953 284.61 94.0916 284.611 94.0883C284.613 94.085 284.615 94.0822 284.618 94.0801L286.088 93.2322C286.313 93.1024 286.571 93.0395 286.831 93.0507C287.09 93.0619 287.341 93.1469 287.555 93.2956C287.768 93.4444 287.934 93.6508 288.035 93.8906C288.135 94.1305 288.165 94.394 288.121 94.6502L288.121 94.656ZM284.274 95.9142L283.659 95.56C283.656 95.5582 283.654 95.5557 283.652 95.5527C283.65 95.5497 283.648 95.5463 283.648 95.5428V93.8484C283.648 93.5884 283.722 93.3339 283.862 93.1147C284.002 92.8954 284.201 92.7205 284.436 92.6102C284.672 92.5 284.934 92.4591 285.191 92.4922C285.449 92.5254 285.692 92.6312 285.892 92.7974L285.849 92.8219L284.395 93.6612C284.359 93.6824 284.329 93.7127 284.308 93.749C284.287 93.7854 284.276 93.8265 284.275 93.8685L284.274 95.9142ZM284.608 95.1944L285.4 94.738L286.193 95.1944V96.1071L285.403 96.5635L284.609 96.1071L284.608 95.1944Z" fill="black"/>
<path d="M500.5 95.5C500.5 97.1569 499.157 98.5 497.5 98.5C495.843 98.5 494.5 97.1569 494.5 95.5C494.5 93.8431 495.843 92.5 497.5 92.5C499.157 92.5 500.5 93.8431 500.5 95.5Z" fill="#5EEAD4"/>
<path d="M496 95.5L497 96.5L499 94.5" stroke="white" stroke-width="0.7" stroke-linecap="round" stroke-linejoin="round"/>
<rect x="80" y="128" width="46" height="8" rx="3" fill="#C0C7E5"/>
<rect x="293" y="129" width="34" height="8" rx="3" fill="#C0C7E5"/>
<rect x="505" y="129" width="71" height="8" rx="3" fill="#C0C7E5"/>
<rect x="293" y="141" width="56" height="8" rx="3" fill="#C0C7E5"/>
<rect x="505" y="141" width="40" height="8" rx="3" fill="#C0C7E5"/>
<rect x="551" y="141" width="40" height="8" rx="3" fill="#C0C7E5"/>
<rect x="614" y="129" width="29" height="8" rx="3" fill="#C0C7E5"/>
<rect x="597" y="141" width="46" height="8" rx="3" fill="#C0C7E5"/>
<rect x="582" y="129" width="26" height="8" rx="3" fill="#C0C7E5"/>
<rect x="333" y="129" width="34" height="8" rx="3" fill="#C0C7E5"/>
<rect x="410" y="129" width="21" height="8" rx="3" fill="#C0C7E5"/>
<rect x="132" y="128" width="31" height="8" rx="3" fill="#67EFBE"/>
<rect x="373" y="129" width="31" height="8" rx="3" fill="#67EFBE"/>
</svg>
