<svg width="724" height="279" viewBox="0 0 724 279" fill="none" xmlns="http://www.w3.org/2000/svg">
<rect x="0.5" y="0.5" width="723" height="278" rx="11.5" fill="white" stroke="black"/>
<g filter="url(#filter0_i_370_761)">
<rect x="510" y="60" width="148" height="110" rx="6" fill="white"/>
</g>
<path d="M510 66C510 62.6863 512.686 60 516 60H652C655.314 60 658 62.6863 658 66V72H510V66Z" fill="#E0E3ED"/>
<circle cx="651" cy="66" r="2" fill="#FCA5A5"/>
<circle cx="645" cy="66" r="2" fill="#F9FAFB"/>
<circle cx="639" cy="66" r="2" fill="#F9FAFB"/>
<rect x="520" y="81" width="59" height="4" rx="2" fill="#E0E3ED"/>
<rect x="520" y="91" width="59" height="4" rx="2" fill="#E0E3ED"/>
<rect x="520" y="101" width="59" height="4" rx="2" fill="#E0E3ED"/>
<rect x="520" y="111" width="59" height="4" rx="2" fill="#D5C1FF"/>
<rect x="589" y="81" width="59" height="4" rx="2" fill="#E0E3ED"/>
<rect x="589" y="91" width="59" height="4" rx="2" fill="#E0E3ED"/>
<rect x="589" y="101" width="59" height="4" rx="2" fill="#D5C1FF"/>
<rect x="589" y="111" width="59" height="4" rx="2" fill="#D5C1FF"/>
<path d="M66 70.5804H130.659C132.379 70.5804 133.775 71.9755 133.775 73.6965V156.272C133.775 157.993 132.379 159.388 130.659 159.388H66V70.5804Z" fill="#B7BED2"/>
<path d="M145.363 124.55C145.472 124.126 145.576 123.729 145.676 123.333C145.761 122.989 145.852 122.645 145.916 122.297C146.014 121.751 146.168 121.251 146.527 120.793C146.773 120.476 146.933 120.032 146.977 119.629C147.125 118.239 147.216 116.843 147.303 115.447C147.339 114.889 147.216 114.36 146.917 113.863C146.775 113.629 146.708 113.33 146.679 113.053C146.59 112.219 146.538 111.382 146.471 110.546C146.465 110.464 146.475 110.38 146.479 110.218C146.874 110.422 147.232 110.564 147.545 110.773C148.852 111.64 149.648 112.865 149.813 114.417C149.913 115.36 149.87 116.327 149.808 117.278C149.737 118.347 149.634 119.421 149.437 120.473C149.192 121.771 148.535 122.863 147.478 123.687C146.863 124.167 145.985 124.53 145.366 124.548L145.363 124.55Z" fill="#4F46E5"/>
<path d="M146.025 107.493C145.984 107.395 145.942 107.321 145.922 107.242C145.702 106.372 145.477 105.502 145.275 104.626C145.225 104.412 145.209 104.169 145.261 103.958C145.4 103.385 145.337 102.829 145.119 102.303C144.592 101.038 144.047 99.7811 143.486 98.5319C143.248 97.9987 142.856 97.5834 142.332 97.3C142.205 97.2322 142.079 97.1297 142.003 97.01C141.455 96.135 140.921 95.2506 140.348 94.3118C140.633 94.2886 140.927 94.236 141.22 94.2464C142.647 94.2938 143.831 94.8694 144.787 95.9237C145.577 96.7917 146.061 97.8392 146.519 98.9001C147.013 100.049 147.578 101.179 147.82 102.417C148.198 104.358 147.688 106.031 146.2 107.372C146.157 107.41 146.106 107.438 146.028 107.493L146.025 107.493Z" fill="#4F46E5"/>
<path d="M119.778 149.384C119.716 149.61 119.675 149.831 119.595 150.04C118.876 151.898 117.482 152.98 115.56 153.306C113.6 153.638 111.606 153.752 109.632 153.498C107.625 153.239 106.221 152.101 105.481 150.19C105.466 150.154 105.463 150.115 105.444 150.034C105.541 150.03 105.624 150.015 105.704 150.024C106.634 150.128 107.563 150.231 108.492 150.349C108.659 150.37 108.844 150.432 108.977 150.531C109.493 150.919 110.078 151.065 110.703 151.034C112.142 150.961 113.578 150.877 115.016 150.778C115.493 150.745 115.896 150.509 116.262 150.209C116.365 150.124 116.486 150.036 116.612 150.01C117.625 149.789 118.641 149.583 119.656 149.373C119.683 149.369 119.712 149.378 119.78 149.386L119.778 149.384Z" fill="#4F46E5"/>
<path d="M145.76 108.957C145.897 110.33 146.04 111.705 146.165 113.081C146.204 113.503 146.202 113.928 146.199 114.352C146.196 115.167 145.624 115.769 144.852 115.788C144.122 115.806 143.523 115.199 143.491 114.403C143.41 112.428 143.292 110.455 142.871 108.519C142.6 107.267 142.246 106.032 141.925 104.79C141.82 104.379 141.688 103.973 141.885 103.548C142.129 103.028 142.633 102.706 143.184 102.732C143.735 102.759 144.231 103.162 144.432 103.761C145.004 105.459 145.411 107.197 145.759 108.957L145.76 108.957Z" fill="#4F46E5"/>
<path d="M117.013 146.629C119.562 146.146 122.177 145.348 124.677 144.183C125.071 143.999 125.478 143.879 125.906 144.027C126.433 144.209 126.771 144.567 126.837 145.14C126.905 145.712 126.648 146.251 126.093 146.5C125.005 146.988 123.913 147.466 122.795 147.874C120.574 148.684 118.283 149.24 115.938 149.562C115.555 149.613 115.17 149.643 114.813 149.443C114.339 149.181 114.055 148.65 114.114 148.137C114.178 147.579 114.607 147.063 115.162 146.945C115.722 146.825 116.29 146.751 117.013 146.631L117.013 146.629Z" fill="#4F46E5"/>
<path d="M124.843 81.8471C124.176 81.5841 123.508 81.3193 122.839 81.0599C122.655 80.9879 122.455 80.9552 122.283 80.8637C122.025 80.7291 121.761 80.5885 121.547 80.3979C121.171 80.0653 120.776 79.7689 120.279 79.6673C118.861 79.3761 117.442 79.0853 116.018 78.8336C115.425 78.7287 114.839 78.8282 114.306 79.1471C114.23 79.1929 114.117 79.1926 114.022 79.1892C113.087 79.1572 112.151 79.1218 111.216 79.0827C111.113 79.0791 111.01 79.0508 110.803 79.0159C111.176 78.527 111.458 78.0567 111.832 77.6808C112.952 76.5553 114.362 76.0936 115.909 76.2325C117.843 76.4061 119.764 76.7475 121.594 77.426C123.138 77.9973 124.222 79.0756 124.742 80.6588C124.862 81.0237 124.878 81.4233 124.943 81.8079L124.842 81.8438L124.843 81.8471Z" fill="#4F46E5"/>
<path d="M138.631 92.0504C137.902 91.2508 137.202 90.4898 136.515 89.7199C136.42 89.6137 136.352 89.4666 136.32 89.3274C136.19 88.7657 135.892 88.3052 135.458 87.9458C134.363 87.0401 133.258 86.1465 132.148 85.2588C131.702 84.9014 131.173 84.7668 130.604 84.7381C130.418 84.7291 130.221 84.6557 130.055 84.5631C129.281 84.1281 128.518 83.6755 127.748 83.2346C127.501 83.0929 127.493 83.0333 127.734 82.8833C129.589 81.7378 131.48 81.8089 133.266 82.939C134.469 83.6996 135.553 84.6559 136.654 85.5675C137.167 85.9905 137.665 86.4665 138.054 87.0024C139.103 88.4486 139.417 90.0401 138.772 91.7569C138.736 91.8552 138.682 91.9462 138.633 92.0484L138.631 92.0504Z" fill="#4F46E5"/>
<path d="M122.482 148.564C122.76 148.456 123.04 148.349 123.318 148.24C124.024 147.962 124.727 147.681 125.436 147.406C125.522 147.372 125.628 147.358 125.719 147.372C126.312 147.47 126.898 147.425 127.417 147.133C128.687 146.417 129.943 145.675 131.194 144.926C131.637 144.661 131.927 144.249 132.152 143.784C132.233 143.619 132.335 143.447 132.472 143.33C133.238 142.682 134.019 142.052 134.827 141.389C135.01 141.759 135.07 142.167 135.073 142.576C135.089 144.358 134.309 145.781 132.926 146.825C131.398 147.978 129.749 148.978 127.963 149.675C125.983 150.449 124.123 150.136 122.522 148.66C122.51 148.648 122.508 148.626 122.483 148.562L122.482 148.564Z" fill="#4F46E5"/>
<path d="M144.224 118.882C144.933 118.732 145.914 119.343 145.725 120.446C145.543 121.512 145.338 122.581 145.07 123.629C144.449 126.054 143.535 128.373 142.42 130.614C142.171 131.115 141.808 131.473 141.228 131.506C140.202 131.564 139.526 130.604 139.913 129.637C140.111 129.143 140.352 128.667 140.574 128.182C141.737 125.63 142.563 122.974 143.039 120.208C143.177 119.408 143.572 118.987 144.227 118.879L144.224 118.882Z" fill="#4F46E5"/>
<path d="M136.927 139.364C137.615 138.561 138.277 137.78 138.953 137.011C139.045 136.906 139.192 136.837 139.326 136.785C139.889 136.565 140.336 136.209 140.657 135.701C141.384 134.548 142.11 133.396 142.825 132.237C143.128 131.748 143.263 131.21 143.218 130.625C143.204 130.445 143.238 130.246 143.306 130.078C143.684 129.161 144.081 128.25 144.485 127.309C144.553 127.374 144.635 127.437 144.703 127.514C145.924 128.92 146.104 130.532 145.608 132.257C145.487 132.679 145.308 133.099 145.082 133.475C144.322 134.734 143.568 135.999 142.737 137.21C141.837 138.523 140.61 139.418 138.981 139.582C138.385 139.641 137.769 139.521 137.164 139.472C137.086 139.466 137.013 139.403 136.93 139.363L136.927 139.364Z" fill="#4F46E5"/>
<path d="M141.055 100.118C140.415 100.182 139.915 99.9027 139.541 99.2702C139.09 98.5061 138.653 97.7344 138.175 96.9887C136.901 95.0071 135.385 93.2173 133.727 91.5469C133.136 90.9523 133.005 90.4449 133.311 89.8261C133.71 89.0141 134.657 88.8038 135.348 89.3956C135.669 89.6712 135.952 89.9897 136.251 90.2915C138.52 92.5861 140.399 95.1705 141.95 97.9959C142.373 98.7664 142.212 99.4951 141.545 99.9145C141.399 100.007 141.222 100.052 141.059 100.118L141.055 100.118Z" fill="#4F46E5"/>
<path d="M139.384 134.899C139.44 135.296 139.291 135.671 139.032 136.013C137.819 137.614 136.499 139.121 134.987 140.443C133.851 141.434 132.668 142.369 131.496 143.316C131.172 143.579 130.806 143.774 130.357 143.725C129.784 143.66 129.397 143.344 129.235 142.782C129.072 142.212 129.216 141.721 129.677 141.348C130.25 140.883 130.839 140.437 131.424 139.986C133.497 138.391 135.246 136.485 136.829 134.417C137.152 133.995 137.55 133.72 138.106 133.742C138.755 133.768 139.267 134.219 139.384 134.899Z" fill="#4F46E5"/>
<path d="M130.032 88.1196C129.811 88.1617 129.468 88.0432 129.133 87.843C127.956 87.1372 126.801 86.393 125.59 85.7539C123.86 84.841 122.031 84.15 120.148 83.6144C119.424 83.4078 119.011 82.7174 119.175 81.9848C119.33 81.2884 120.004 80.8173 120.728 81.0239C121.836 81.3388 122.932 81.7063 124.006 82.1226C126.314 83.014 128.51 84.1313 130.56 85.5291C130.957 85.8007 131.28 86.1228 131.328 86.6286C131.399 87.3656 130.933 87.9641 130.031 88.1216L130.032 88.1196Z" fill="#4F46E5"/>
<path d="M118.814 145.702C118.241 145.827 117.697 145.949 117.15 146.064C116.918 146.114 116.683 146.146 116.451 146.195C116.113 146.267 115.815 146.214 115.483 146.081C115.114 145.934 114.677 145.894 114.272 145.902C113.001 145.931 111.729 145.982 110.461 146.075C110.062 146.103 109.674 146.291 109.28 146.406C109.104 146.456 108.924 146.556 108.751 146.543C107.926 146.486 107.102 146.4 106.278 146.316C106.05 146.294 106.058 146.167 106.173 146.01C107.295 144.487 108.695 143.487 110.68 143.473C111.873 143.464 113.064 143.349 114.256 143.308C116.143 143.244 117.594 144.082 118.728 145.542C118.756 145.577 118.773 145.623 118.814 145.702Z" fill="#4F46E5"/>
<path d="M142.657 110.796C142.705 111.082 142.771 111.361 142.795 111.644C142.848 112.243 142.891 112.843 142.913 113.444C142.918 113.602 142.864 113.78 142.783 113.917C142.484 114.425 142.37 114.963 142.343 115.551C142.289 116.7 142.183 117.85 142.077 118.996C142.029 119.513 142.082 119.997 142.336 120.454C142.376 120.526 142.399 120.626 142.383 120.704C142.193 121.58 141.994 122.455 141.795 123.327C141.781 123.389 141.732 123.442 141.686 123.521C140.971 122.93 140.4 122.254 139.998 121.438C139.56 120.546 139.413 119.613 139.508 118.622C139.616 117.505 139.701 116.385 139.762 115.266C139.86 113.464 140.738 112.119 142.153 111.079C142.295 110.973 142.447 110.883 142.597 110.787C142.603 110.783 142.616 110.789 142.655 110.795L142.657 110.796Z" fill="#4F46E5"/>
<path d="M135.704 94.545C133.932 94.9799 132.287 94.9427 130.819 93.8379C129.897 93.1437 129.015 92.3975 128.13 91.6552C127.657 91.2588 127.16 90.8681 126.774 90.3943C126.002 89.4416 125.689 88.3079 125.694 87.0862C125.695 86.8928 125.705 86.6996 125.712 86.4319C125.937 86.5564 126.103 86.6453 126.268 86.7379C126.861 87.0744 127.457 87.4016 128.04 87.7554C128.18 87.8401 128.32 87.9891 128.373 88.1405C128.549 88.6352 128.867 89.0037 129.27 89.3247C130.274 90.122 131.257 90.9473 132.278 91.7225C132.605 91.971 133.028 92.0901 133.405 92.2727C133.578 92.3571 133.778 92.4195 133.905 92.5499C134.434 93.0937 134.941 93.6587 135.454 94.2192C135.533 94.3053 135.595 94.4047 135.702 94.5453L135.704 94.545Z" fill="#4F46E5"/>
<path d="M134.116 136.743C133.83 136.084 133.636 135.444 133.579 134.759C133.466 133.426 133.884 132.264 134.627 131.176C135.21 130.321 135.743 129.431 136.274 128.541C137.298 126.824 138.856 126.036 140.798 125.899C140.823 125.896 140.852 125.91 140.933 125.928C140.827 126.212 140.734 126.491 140.619 126.757C140.376 127.319 140.13 127.879 139.867 128.429C139.805 128.56 139.668 128.656 139.558 128.76C139.233 129.07 138.838 129.331 138.594 129.694C137.859 130.779 137.183 131.904 136.483 133.013C136.242 133.395 136.077 133.795 136.093 134.263C136.098 134.408 136.041 134.587 135.949 134.696C135.406 135.347 134.844 135.983 134.287 136.621C134.256 136.657 134.209 136.679 134.121 136.742L134.116 136.743Z" fill="#4F46E5"/>
<path d="M137.191 96.4737C137.483 96.9075 137.756 97.2903 138.004 97.6859C138.266 98.1038 138.508 98.5319 138.75 98.9616C138.79 99.0317 138.814 99.1322 138.798 99.2079C138.696 99.6933 138.798 100.147 138.989 100.59C139.498 101.775 140.013 102.958 140.511 104.148C140.69 104.578 140.964 104.924 141.299 105.239C141.448 105.38 141.593 105.57 141.647 105.763C141.861 106.523 142.04 107.291 142.229 108.059C142.241 108.112 142.234 108.171 142.238 108.301C141.768 108.143 141.319 108.031 140.905 107.844C139.484 107.202 138.475 106.183 137.939 104.682C137.592 103.711 137.143 102.772 136.71 101.834C135.967 100.225 136.109 98.6552 136.862 97.0999C136.951 96.9143 137.053 96.7353 137.191 96.4754L137.191 96.4737Z" fill="#4F46E5"/>
<path d="M132.285 138.583C131.623 139.113 130.987 139.639 130.328 140.139C130.157 140.27 129.931 140.379 129.72 140.399C129.05 140.465 128.484 140.734 127.922 141.092C127.044 141.653 126.134 142.169 125.217 142.667C124.75 142.923 124.396 143.264 124.109 143.704C124.024 143.834 123.884 143.955 123.741 144.014C122.984 144.325 122.219 144.614 121.457 144.909C121.405 144.93 121.347 144.936 121.243 144.96C121.263 144.767 121.274 144.607 121.298 144.448C121.596 142.559 122.56 141.155 124.269 140.25C125.269 139.72 126.219 139.099 127.202 138.538C128.795 137.631 130.423 137.709 132.064 138.404C132.109 138.422 132.15 138.45 132.192 138.48C132.215 138.497 132.23 138.522 132.282 138.583L132.285 138.583Z" fill="#4F46E5"/>
<path d="M110.84 82.8547C111.304 82.8575 111.693 82.8517 112.082 82.8652C112.623 82.8846 113.165 82.9144 113.706 82.9513C113.795 82.9573 113.904 83.0036 113.963 83.0668C114.381 83.5056 114.912 83.6678 115.49 83.7717C116.546 83.9612 117.6 84.1666 118.643 84.4141C119.234 84.5541 119.804 84.6087 120.392 84.4392C120.53 84.3988 120.698 84.3742 120.827 84.4171C121.693 84.7098 122.551 85.0228 123.431 85.3375C123.388 85.4265 123.378 85.4804 123.346 85.5084C121.84 86.8221 120.162 87.4555 118.138 86.912C117.141 86.6447 116.116 86.4726 115.097 86.3014C113.406 86.0193 112.162 85.1159 111.283 83.6708C111.137 83.4305 111.014 83.1775 110.84 82.853L110.84 82.8547Z" fill="#4F46E5"/>
<path d="M66 70.5804L113.395 56.2181C115.397 55.6117 117.415 57.1093 117.415 59.2003V81.6186C117.415 83.3104 116.914 84.9643 115.976 86.372L114.965 87.888C113.515 90.0635 112.741 92.6195 112.741 95.2341V170.646C112.741 172.772 110.657 174.274 108.64 173.602L66 159.388V70.5804Z" fill="#CED3E2"/>
<g filter="url(#filter1_i_370_761)">
<rect x="253" y="62" width="174" height="107" rx="6" fill="#313A53"/>
</g>
<rect x="268" y="84" width="37" height="4" rx="2" fill="#E0E3ED"/>
<rect x="268" y="94" width="66" height="4" rx="2" fill="#E0E3ED"/>
<rect x="268" y="143" width="66" height="4" rx="2" fill="#E0E3ED"/>
<rect x="268" y="104" width="22" height="4" rx="2" fill="#E0E3ED"/>
<rect x="268" y="133" width="22" height="4" rx="2" fill="#E0E3ED"/>
<rect x="268" y="123" width="45" height="4" rx="2" fill="#FDFF9C"/>
<rect x="313" y="84" width="19" height="4" rx="2" fill="#FDFF9C"/>
<rect x="340" y="84" width="19" height="4" rx="2" fill="#E0E3ED"/>
<rect x="342" y="143" width="19" height="4" rx="2" fill="#E0E3ED"/>
<rect x="342" y="94" width="28" height="4" rx="2" fill="#E0E3ED"/>
<rect x="298" y="104" width="28" height="4" rx="2" fill="#D5C1FF"/>
<rect x="298" y="133" width="28" height="4" rx="2" fill="#09FEFE"/>
<rect x="334" y="104" width="28" height="4" rx="2" fill="#09FEFE"/>
<rect x="321" y="123" width="24" height="4" rx="2" fill="#E0E3ED"/>
<rect x="353" y="123" width="24" height="4" rx="2" fill="#E0E3ED"/>
<circle cx="420" cy="68" r="2" fill="#FCA5A5"/>
<circle cx="414" cy="68" r="2" fill="#F9FAFB"/>
<circle cx="408" cy="68" r="2" fill="#F9FAFB"/>
<path d="M164 115C163.724 115 163.5 115.224 163.5 115.5C163.5 115.776 163.724 116 164 116V115ZM164 116H235V115H164V116Z" fill="#7F879F"/>
<path d="M237 115.5L232.5 118.098L232.5 112.902L237 115.5Z" fill="#7F879F"/>
<path d="M442 115.5C442 117.157 440.657 118.5 439 118.5C437.343 118.5 436 117.157 436 115.5C436 113.843 437.343 112.5 439 112.5C440.657 112.5 442 113.843 442 115.5Z" fill="#9CA4BA"/>
<path d="M461 115.5C461 117.157 459.657 118.5 458 118.5C456.343 118.5 455 117.157 455 115.5C455 113.843 456.343 112.5 458 112.5C459.657 112.5 461 113.843 461 115.5Z" fill="#9CA4BA"/>
<path d="M480 115.5C480 117.157 478.657 118.5 477 118.5C475.343 118.5 474 117.157 474 115.5C474 113.843 475.343 112.5 477 112.5C478.657 112.5 480 113.843 480 115.5Z" fill="#9CA4BA"/>
<path d="M499 115.5C499 117.157 497.657 118.5 496 118.5C494.343 118.5 493 117.157 493 115.5C493 113.843 494.343 112.5 496 112.5C497.657 112.5 499 113.843 499 115.5Z" fill="#9CA4BA"/>
<path d="M69.5202 195.783C69.4862 195.439 69.3398 195.172 69.0813 194.982C68.8228 194.791 68.4719 194.696 68.0288 194.696C67.7276 194.696 67.4734 194.739 67.266 194.824C67.0586 194.906 66.8995 195.021 66.7887 195.169C66.6808 195.317 66.6268 195.484 66.6268 195.672C66.6211 195.828 66.6538 195.964 66.7248 196.081C66.7987 196.197 66.8995 196.298 67.0273 196.384C67.1552 196.466 67.3029 196.538 67.4705 196.601C67.6381 196.661 67.8171 196.712 68.0075 196.754L68.7915 196.942C69.1722 197.027 69.5217 197.141 69.8398 197.283C70.158 197.425 70.4336 197.599 70.6665 197.807C70.8995 198.014 71.0799 198.259 71.2077 198.54C71.3384 198.821 71.4052 199.143 71.408 199.507C71.4052 200.041 71.2688 200.504 70.9989 200.896C70.7319 201.286 70.3455 201.588 69.8398 201.804C69.337 202.017 68.7305 202.124 68.0202 202.124C67.3157 202.124 66.7021 202.016 66.1793 201.8C65.6594 201.584 65.2532 201.264 64.9606 200.841C64.6708 200.415 64.5188 199.888 64.5046 199.26H66.2901C66.31 199.553 66.3938 199.797 66.5415 199.993C66.6921 200.186 66.8924 200.332 67.1424 200.432C67.3952 200.528 67.6808 200.577 67.9989 200.577C68.3114 200.577 68.5827 200.531 68.8129 200.44C69.0458 200.349 69.2262 200.223 69.354 200.061C69.4819 199.899 69.5458 199.713 69.5458 199.503C69.5458 199.307 69.4876 199.142 69.3711 199.009C69.2575 198.875 69.0898 198.761 68.8683 198.668C68.6495 198.574 68.381 198.489 68.0629 198.412L67.1126 198.173C66.3768 197.994 65.7958 197.714 65.3697 197.334C64.9435 196.953 64.7319 196.44 64.7347 195.795C64.7319 195.267 64.8725 194.805 65.1566 194.411C65.4435 194.016 65.837 193.707 66.337 193.486C66.837 193.264 67.4052 193.153 68.0415 193.153C68.6893 193.153 69.2546 193.264 69.7376 193.486C70.2234 193.707 70.6012 194.016 70.8711 194.411C71.141 194.805 71.2802 195.263 71.2887 195.783H69.5202ZM76.0966 195.455V196.818H72.1548V195.455H76.0966ZM73.0497 193.886H74.8651V199.989C74.8651 200.156 74.8906 200.287 74.9418 200.381C74.9929 200.472 75.0639 200.536 75.1548 200.572C75.2486 200.609 75.3565 200.628 75.4787 200.628C75.5639 200.628 75.6491 200.621 75.7344 200.607C75.8196 200.589 75.8849 200.577 75.9304 200.568L76.2159 201.919C76.125 201.947 75.9972 201.98 75.8324 202.017C75.6676 202.057 75.4673 202.081 75.2315 202.089C74.794 202.107 74.4105 202.048 74.081 201.915C73.7543 201.781 73.5 201.574 73.3182 201.293C73.1364 201.011 73.0469 200.656 73.0497 200.227V193.886ZM80.1662 202.128C79.5043 202.128 78.9318 201.987 78.4489 201.706C77.9688 201.422 77.598 201.027 77.3366 200.521C77.0753 200.013 76.9446 199.423 76.9446 198.753C76.9446 198.077 77.0753 197.486 77.3366 196.98C77.598 196.472 77.9688 196.077 78.4489 195.795C78.9318 195.511 79.5043 195.369 80.1662 195.369C80.8281 195.369 81.3991 195.511 81.8793 195.795C82.3622 196.077 82.7344 196.472 82.9957 196.98C83.2571 197.486 83.3878 198.077 83.3878 198.753C83.3878 199.423 83.2571 200.013 82.9957 200.521C82.7344 201.027 82.3622 201.422 81.8793 201.706C81.3991 201.987 80.8281 202.128 80.1662 202.128ZM80.1747 200.722C80.4759 200.722 80.7273 200.636 80.929 200.466C81.1307 200.293 81.2827 200.057 81.3849 199.759C81.4901 199.46 81.5426 199.121 81.5426 198.74C81.5426 198.359 81.4901 198.02 81.3849 197.722C81.2827 197.423 81.1307 197.187 80.929 197.014C80.7273 196.841 80.4759 196.754 80.1747 196.754C79.8707 196.754 79.6151 196.841 79.4077 197.014C79.2031 197.187 79.0483 197.423 78.9432 197.722C78.8409 198.02 78.7898 198.359 78.7898 198.74C78.7898 199.121 78.8409 199.46 78.9432 199.759C79.0483 200.057 79.2031 200.293 79.4077 200.466C79.6151 200.636 79.8707 200.722 80.1747 200.722ZM84.5682 202V195.455H86.3281V196.597H86.3963C86.5156 196.19 86.7159 195.884 86.9972 195.676C87.2784 195.466 87.6023 195.361 87.9688 195.361C88.0597 195.361 88.1577 195.366 88.2628 195.378C88.3679 195.389 88.4602 195.405 88.5398 195.425V197.036C88.4545 197.01 88.3366 196.987 88.1861 196.967C88.0355 196.947 87.8977 196.938 87.7727 196.938C87.5057 196.938 87.267 196.996 87.0568 197.112C86.8494 197.226 86.6847 197.385 86.5625 197.589C86.4432 197.794 86.3835 198.03 86.3835 198.297V202H84.5682ZM92.1566 202.128C91.4833 202.128 90.9038 201.991 90.418 201.719C89.935 201.443 89.5629 201.054 89.3015 200.551C89.0401 200.045 88.9094 199.447 88.9094 198.757C88.9094 198.084 89.0401 197.493 89.3015 196.984C89.5629 196.476 89.9308 196.08 90.4052 195.795C90.8825 195.511 91.4421 195.369 92.0842 195.369C92.516 195.369 92.918 195.439 93.2901 195.578C93.6651 195.714 93.9918 195.92 94.2702 196.196C94.5515 196.472 94.7702 196.818 94.9265 197.236C95.0827 197.651 95.1609 198.136 95.1609 198.693V199.192H89.6339V198.067H93.4521C93.4521 197.805 93.3952 197.574 93.2816 197.372C93.168 197.17 93.0103 197.013 92.8086 196.899C92.6097 196.783 92.3782 196.724 92.114 196.724C91.8384 196.724 91.5941 196.788 91.381 196.916C91.1708 197.041 91.006 197.21 90.8867 197.423C90.7674 197.634 90.7063 197.868 90.7035 198.126V199.196C90.7035 199.52 90.7631 199.8 90.8825 200.036C91.0046 200.271 91.1765 200.453 91.3981 200.581C91.6197 200.709 91.8825 200.773 92.1864 200.773C92.3881 200.773 92.5728 200.744 92.7404 200.688C92.908 200.631 93.0515 200.545 93.1708 200.432C93.2901 200.318 93.381 200.179 93.4435 200.014L95.1225 200.125C95.0373 200.528 94.8626 200.881 94.5984 201.182C94.337 201.48 93.9989 201.713 93.5842 201.881C93.1722 202.045 92.6964 202.128 92.1566 202.128ZM98.7575 202.107C98.2603 202.107 97.81 201.979 97.4066 201.723C97.006 201.464 96.6879 201.085 96.4521 200.585C96.2191 200.082 96.1026 199.466 96.1026 198.736C96.1026 197.986 96.2234 197.362 96.4648 196.865C96.7063 196.365 97.0273 195.991 97.4279 195.744C97.8313 195.494 98.2731 195.369 98.7532 195.369C99.1197 195.369 99.4251 195.432 99.6694 195.557C99.9165 195.679 100.115 195.832 100.266 196.017C100.419 196.199 100.536 196.378 100.615 196.554H100.671V193.273H102.482V202H100.692V200.952H100.615C100.53 201.134 100.409 201.314 100.253 201.493C100.1 201.669 99.8995 201.815 99.6523 201.932C99.408 202.048 99.1097 202.107 98.7575 202.107ZM99.3327 200.662C99.6254 200.662 99.8725 200.582 100.074 200.423C100.279 200.261 100.435 200.036 100.543 199.746C100.654 199.456 100.709 199.116 100.709 198.727C100.709 198.338 100.655 198 100.547 197.713C100.439 197.426 100.283 197.205 100.078 197.048C99.8739 196.892 99.6254 196.814 99.3327 196.814C99.0344 196.814 98.783 196.895 98.5785 197.057C98.3739 197.219 98.2191 197.443 98.114 197.73C98.0089 198.017 97.9563 198.349 97.9563 198.727C97.9563 199.108 98.0089 199.445 98.114 199.737C98.2219 200.027 98.3768 200.254 98.5785 200.419C98.783 200.581 99.0344 200.662 99.3327 200.662ZM114.486 196.328H112.62C112.586 196.087 112.516 195.872 112.411 195.685C112.306 195.494 112.171 195.332 112.006 195.199C111.841 195.065 111.651 194.963 111.435 194.892C111.222 194.821 110.99 194.786 110.74 194.786C110.289 194.786 109.895 194.898 109.56 195.122C109.225 195.344 108.965 195.668 108.78 196.094C108.596 196.517 108.503 197.031 108.503 197.636C108.503 198.259 108.596 198.781 108.78 199.205C108.968 199.628 109.229 199.947 109.564 200.163C109.9 200.379 110.287 200.487 110.728 200.487C110.975 200.487 111.203 200.455 111.414 200.389C111.627 200.324 111.816 200.229 111.98 200.104C112.145 199.976 112.282 199.821 112.39 199.639C112.5 199.457 112.577 199.25 112.62 199.017L114.486 199.026C114.438 199.426 114.317 199.812 114.124 200.185C113.934 200.554 113.676 200.885 113.353 201.178C113.032 201.467 112.648 201.697 112.202 201.868C111.759 202.036 111.257 202.119 110.698 202.119C109.919 202.119 109.223 201.943 108.61 201.591C107.999 201.239 107.516 200.729 107.161 200.061C106.809 199.393 106.632 198.585 106.632 197.636C106.632 196.685 106.811 195.875 107.169 195.207C107.527 194.54 108.013 194.031 108.627 193.682C109.24 193.33 109.931 193.153 110.698 193.153C111.203 193.153 111.672 193.224 112.104 193.366C112.539 193.509 112.924 193.716 113.259 193.989C113.594 194.259 113.867 194.589 114.077 194.982C114.29 195.374 114.426 195.822 114.486 196.328ZM117.591 198.216V202H115.775V193.273H117.539V196.609H117.616C117.764 196.223 118.002 195.92 118.332 195.702C118.662 195.48 119.075 195.369 119.572 195.369C120.027 195.369 120.423 195.469 120.761 195.668C121.102 195.864 121.366 196.146 121.554 196.516C121.744 196.882 121.838 197.321 121.835 197.832V202H120.02V198.156C120.022 197.753 119.92 197.439 119.713 197.214C119.508 196.99 119.221 196.878 118.852 196.878C118.605 196.878 118.386 196.93 118.196 197.036C118.008 197.141 117.86 197.294 117.752 197.496C117.647 197.695 117.593 197.935 117.591 198.216ZM125.13 202.124C124.712 202.124 124.34 202.051 124.013 201.906C123.687 201.759 123.428 201.541 123.238 201.254C123.05 200.964 122.957 200.604 122.957 200.172C122.957 199.808 123.023 199.503 123.157 199.256C123.29 199.009 123.472 198.81 123.702 198.659C123.933 198.509 124.194 198.395 124.487 198.318C124.782 198.241 125.092 198.188 125.415 198.156C125.796 198.116 126.103 198.08 126.336 198.045C126.569 198.009 126.738 197.955 126.843 197.884C126.948 197.812 127.001 197.707 127.001 197.568V197.543C127.001 197.273 126.915 197.064 126.745 196.916C126.577 196.768 126.339 196.695 126.029 196.695C125.702 196.695 125.442 196.767 125.249 196.912C125.056 197.054 124.928 197.233 124.866 197.449L123.187 197.312C123.272 196.915 123.44 196.571 123.69 196.281C123.94 195.989 124.262 195.764 124.657 195.608C125.055 195.449 125.515 195.369 126.038 195.369C126.401 195.369 126.749 195.412 127.082 195.497C127.417 195.582 127.714 195.714 127.972 195.893C128.234 196.072 128.44 196.303 128.59 196.584C128.741 196.862 128.816 197.196 128.816 197.585V202H127.094V201.092H127.043C126.938 201.297 126.798 201.477 126.621 201.634C126.445 201.787 126.234 201.908 125.987 201.996C125.739 202.081 125.454 202.124 125.13 202.124ZM125.65 200.871C125.917 200.871 126.153 200.818 126.357 200.713C126.562 200.605 126.722 200.46 126.839 200.278C126.955 200.097 127.013 199.891 127.013 199.661V198.966C126.957 199.003 126.879 199.037 126.779 199.068C126.683 199.097 126.573 199.124 126.451 199.149C126.329 199.172 126.207 199.193 126.085 199.213C125.962 199.23 125.852 199.246 125.752 199.26C125.539 199.291 125.353 199.341 125.194 199.409C125.035 199.477 124.911 199.57 124.823 199.686C124.735 199.8 124.691 199.942 124.691 200.112C124.691 200.359 124.781 200.548 124.96 200.679C125.141 200.807 125.371 200.871 125.65 200.871ZM130.224 202V195.455H132.04V202H130.224ZM131.136 194.611C130.866 194.611 130.635 194.521 130.442 194.342C130.251 194.161 130.156 193.943 130.156 193.69C130.156 193.44 130.251 193.226 130.442 193.047C130.635 192.865 130.866 192.774 131.136 192.774C131.406 192.774 131.636 192.865 131.827 193.047C132.02 193.226 132.116 193.44 132.116 193.69C132.116 193.943 132.02 194.161 131.827 194.342C131.636 194.521 131.406 194.611 131.136 194.611ZM135.309 198.216V202H133.494V195.455H135.224V196.609H135.301C135.446 196.229 135.689 195.928 136.029 195.706C136.37 195.482 136.784 195.369 137.27 195.369C137.724 195.369 138.12 195.469 138.458 195.668C138.797 195.866 139.059 196.151 139.247 196.52C139.434 196.886 139.528 197.324 139.528 197.832V202H137.713V198.156C137.716 197.756 137.613 197.443 137.406 197.219C137.199 196.991 136.913 196.878 136.549 196.878C136.305 196.878 136.089 196.93 135.902 197.036C135.717 197.141 135.572 197.294 135.467 197.496C135.365 197.695 135.312 197.935 135.309 198.216ZM146.405 197.321L144.743 197.423C144.714 197.281 144.653 197.153 144.56 197.04C144.466 196.923 144.342 196.831 144.189 196.763C144.038 196.692 143.858 196.656 143.648 196.656C143.366 196.656 143.129 196.716 142.936 196.835C142.743 196.952 142.646 197.108 142.646 197.304C142.646 197.46 142.709 197.592 142.834 197.7C142.959 197.808 143.173 197.895 143.477 197.96L144.662 198.199C145.298 198.33 145.773 198.54 146.085 198.83C146.398 199.119 146.554 199.5 146.554 199.972C146.554 200.401 146.428 200.777 146.175 201.101C145.925 201.425 145.581 201.678 145.143 201.859C144.709 202.038 144.207 202.128 143.639 202.128C142.773 202.128 142.082 201.947 141.568 201.587C141.057 201.223 140.757 200.729 140.669 200.104L142.455 200.01C142.509 200.274 142.639 200.476 142.847 200.615C143.054 200.751 143.32 200.82 143.643 200.82C143.962 200.82 144.217 200.759 144.411 200.636C144.607 200.511 144.706 200.351 144.709 200.155C144.706 199.99 144.636 199.855 144.5 199.75C144.364 199.642 144.153 199.56 143.869 199.503L142.736 199.277C142.097 199.149 141.621 198.928 141.308 198.612C140.999 198.297 140.844 197.895 140.844 197.406C140.844 196.986 140.957 196.624 141.185 196.32C141.415 196.016 141.737 195.781 142.152 195.616C142.57 195.452 143.058 195.369 143.618 195.369C144.445 195.369 145.095 195.544 145.57 195.893C146.047 196.243 146.325 196.719 146.405 197.321Z" fill="#B2BEDC"/>
<path d="M543.37 193.273H545.437L547.427 197.031H547.512L549.502 193.273H551.569L548.386 198.915V202H546.553V198.915L543.37 193.273ZM554.129 202.128C553.467 202.128 552.895 201.987 552.412 201.706C551.932 201.422 551.561 201.027 551.3 200.521C551.038 200.013 550.907 199.423 550.907 198.753C550.907 198.077 551.038 197.486 551.3 196.98C551.561 196.472 551.932 196.077 552.412 195.795C552.895 195.511 553.467 195.369 554.129 195.369C554.791 195.369 555.362 195.511 555.842 195.795C556.325 196.077 556.697 196.472 556.959 196.98C557.22 197.486 557.351 198.077 557.351 198.753C557.351 199.423 557.22 200.013 556.959 200.521C556.697 201.027 556.325 201.422 555.842 201.706C555.362 201.987 554.791 202.128 554.129 202.128ZM554.138 200.722C554.439 200.722 554.69 200.636 554.892 200.466C555.094 200.293 555.246 200.057 555.348 199.759C555.453 199.46 555.506 199.121 555.506 198.74C555.506 198.359 555.453 198.02 555.348 197.722C555.246 197.423 555.094 197.187 554.892 197.014C554.69 196.841 554.439 196.754 554.138 196.754C553.834 196.754 553.578 196.841 553.371 197.014C553.166 197.187 553.011 197.423 552.906 197.722C552.804 198.02 552.753 198.359 552.753 198.74C552.753 199.121 552.804 199.46 552.906 199.759C553.011 200.057 553.166 200.293 553.371 200.466C553.578 200.636 553.834 200.722 554.138 200.722ZM562.729 199.213V195.455H564.544V202H562.801V200.811H562.733C562.585 201.195 562.339 201.503 561.996 201.736C561.655 201.969 561.238 202.085 560.747 202.085C560.309 202.085 559.925 201.986 559.592 201.787C559.26 201.588 559 201.305 558.812 200.939C558.628 200.572 558.534 200.134 558.531 199.622V195.455H560.346V199.298C560.349 199.685 560.453 199.99 560.657 200.214C560.862 200.439 561.136 200.551 561.48 200.551C561.699 200.551 561.903 200.501 562.094 200.402C562.284 200.3 562.437 200.149 562.554 199.95C562.673 199.751 562.731 199.506 562.729 199.213ZM565.996 202V195.455H567.756V196.597H567.824C567.943 196.19 568.144 195.884 568.425 195.676C568.706 195.466 569.03 195.361 569.396 195.361C569.487 195.361 569.585 195.366 569.691 195.378C569.796 195.389 569.888 195.405 569.968 195.425V197.036C569.882 197.01 569.764 196.987 569.614 196.967C569.463 196.947 569.325 196.938 569.2 196.938C568.933 196.938 568.695 196.996 568.485 197.112C568.277 197.226 568.112 197.385 567.99 197.589C567.871 197.794 567.811 198.03 567.811 198.297V202H565.996ZM577.203 195.455V196.818H573.164V195.455H577.203ZM574.088 202V194.982C574.088 194.507 574.181 194.114 574.365 193.801C574.553 193.489 574.808 193.254 575.132 193.098C575.456 192.942 575.824 192.864 576.236 192.864C576.514 192.864 576.769 192.885 576.999 192.928C577.232 192.97 577.405 193.009 577.519 193.043L577.195 194.406C577.124 194.384 577.036 194.362 576.931 194.342C576.828 194.322 576.723 194.312 576.615 194.312C576.348 194.312 576.162 194.375 576.057 194.5C575.952 194.622 575.899 194.794 575.899 195.016V202H574.088ZM578.312 202V195.455H580.072V196.597H580.14C580.26 196.19 580.46 195.884 580.741 195.676C581.023 195.466 581.346 195.361 581.713 195.361C581.804 195.361 581.902 195.366 582.007 195.378C582.112 195.389 582.204 195.405 582.284 195.425V197.036C582.199 197.01 582.081 196.987 581.93 196.967C581.78 196.947 581.642 196.938 581.517 196.938C581.25 196.938 581.011 196.996 580.801 197.112C580.594 197.226 580.429 197.385 580.307 197.589C580.187 197.794 580.128 198.03 580.128 198.297V202H578.312ZM585.875 202.128C585.213 202.128 584.641 201.987 584.158 201.706C583.678 201.422 583.307 201.027 583.046 200.521C582.784 200.013 582.654 199.423 582.654 198.753C582.654 198.077 582.784 197.486 583.046 196.98C583.307 196.472 583.678 196.077 584.158 195.795C584.641 195.511 585.213 195.369 585.875 195.369C586.537 195.369 587.108 195.511 587.588 195.795C588.071 196.077 588.443 196.472 588.705 196.98C588.966 197.486 589.097 198.077 589.097 198.753C589.097 199.423 588.966 200.013 588.705 200.521C588.443 201.027 588.071 201.422 587.588 201.706C587.108 201.987 586.537 202.128 585.875 202.128ZM585.884 200.722C586.185 200.722 586.436 200.636 586.638 200.466C586.84 200.293 586.992 200.057 587.094 199.759C587.199 199.46 587.252 199.121 587.252 198.74C587.252 198.359 587.199 198.02 587.094 197.722C586.992 197.423 586.84 197.187 586.638 197.014C586.436 196.841 586.185 196.754 585.884 196.754C585.58 196.754 585.324 196.841 585.117 197.014C584.912 197.187 584.757 197.423 584.652 197.722C584.55 198.02 584.499 198.359 584.499 198.74C584.499 199.121 584.55 199.46 584.652 199.759C584.757 200.057 584.912 200.293 585.117 200.466C585.324 200.636 585.58 200.722 585.884 200.722ZM592.093 198.216V202H590.277V195.455H592.007V196.609H592.084C592.229 196.229 592.472 195.928 592.813 195.706C593.154 195.482 593.567 195.369 594.053 195.369C594.507 195.369 594.904 195.469 595.242 195.668C595.58 195.866 595.843 196.151 596.03 196.52C596.218 196.886 596.311 197.324 596.311 197.832V202H594.496V198.156C594.499 197.756 594.396 197.443 594.189 197.219C593.982 196.991 593.696 196.878 593.333 196.878C593.088 196.878 592.872 196.93 592.685 197.036C592.5 197.141 592.355 197.294 592.25 197.496C592.148 197.695 592.095 197.935 592.093 198.216ZM601.224 195.455V196.818H597.282V195.455H601.224ZM598.177 193.886H599.992V199.989C599.992 200.156 600.018 200.287 600.069 200.381C600.12 200.472 600.191 200.536 600.282 200.572C600.376 200.609 600.483 200.628 600.606 200.628C600.691 200.628 600.776 200.621 600.861 200.607C600.947 200.589 601.012 200.577 601.057 200.568L601.343 201.919C601.252 201.947 601.124 201.98 600.959 202.017C600.795 202.057 600.594 202.081 600.358 202.089C599.921 202.107 599.537 202.048 599.208 201.915C598.881 201.781 598.627 201.574 598.445 201.293C598.263 201.011 598.174 200.656 598.177 200.227V193.886ZM605.319 202.128C604.645 202.128 604.066 201.991 603.58 201.719C603.097 201.443 602.725 201.054 602.464 200.551C602.202 200.045 602.072 199.447 602.072 198.757C602.072 198.084 602.202 197.493 602.464 196.984C602.725 196.476 603.093 196.08 603.567 195.795C604.045 195.511 604.604 195.369 605.246 195.369C605.678 195.369 606.08 195.439 606.452 195.578C606.827 195.714 607.154 195.92 607.432 196.196C607.714 196.472 607.932 196.818 608.089 197.236C608.245 197.651 608.323 198.136 608.323 198.693V199.192H602.796V198.067H606.614C606.614 197.805 606.557 197.574 606.444 197.372C606.33 197.17 606.172 197.013 605.971 196.899C605.772 196.783 605.54 196.724 605.276 196.724C605.001 196.724 604.756 196.788 604.543 196.916C604.333 197.041 604.168 197.21 604.049 197.423C603.93 197.634 603.868 197.868 603.866 198.126V199.196C603.866 199.52 603.925 199.8 604.045 200.036C604.167 200.271 604.339 200.453 604.56 200.581C604.782 200.709 605.045 200.773 605.349 200.773C605.55 200.773 605.735 200.744 605.903 200.688C606.07 200.631 606.214 200.545 606.333 200.432C606.452 200.318 606.543 200.179 606.606 200.014L608.285 200.125C608.199 200.528 608.025 200.881 607.76 201.182C607.499 201.48 607.161 201.713 606.746 201.881C606.334 202.045 605.858 202.128 605.319 202.128ZM611.323 198.216V202H609.508V195.455H611.238V196.609H611.314C611.459 196.229 611.702 195.928 612.043 195.706C612.384 195.482 612.797 195.369 613.283 195.369C613.738 195.369 614.134 195.469 614.472 195.668C614.81 195.866 615.073 196.151 615.26 196.52C615.448 196.886 615.542 197.324 615.542 197.832V202H613.726V198.156C613.729 197.756 613.627 197.443 613.42 197.219C613.212 196.991 612.927 196.878 612.563 196.878C612.319 196.878 612.103 196.93 611.915 197.036C611.731 197.141 611.586 197.294 611.481 197.496C611.378 197.695 611.326 197.935 611.323 198.216ZM619.384 202.107C618.887 202.107 618.437 201.979 618.034 201.723C617.633 201.464 617.315 201.085 617.079 200.585C616.846 200.082 616.73 199.466 616.73 198.736C616.73 197.986 616.85 197.362 617.092 196.865C617.333 196.365 617.654 195.991 618.055 195.744C618.458 195.494 618.9 195.369 619.38 195.369C619.747 195.369 620.052 195.432 620.296 195.557C620.544 195.679 620.742 195.832 620.893 196.017C621.046 196.199 621.163 196.378 621.242 196.554H621.298V193.273H623.109V202H621.319V200.952H621.242C621.157 201.134 621.036 201.314 620.88 201.493C620.727 201.669 620.526 201.815 620.279 201.932C620.035 202.048 619.737 202.107 619.384 202.107ZM619.96 200.662C620.252 200.662 620.499 200.582 620.701 200.423C620.906 200.261 621.062 200.036 621.17 199.746C621.281 199.456 621.336 199.116 621.336 198.727C621.336 198.338 621.282 198 621.174 197.713C621.066 197.426 620.91 197.205 620.705 197.048C620.501 196.892 620.252 196.814 619.96 196.814C619.661 196.814 619.41 196.895 619.205 197.057C619.001 197.219 618.846 197.443 618.741 197.73C618.636 198.017 618.583 198.349 618.583 198.727C618.583 199.108 618.636 199.445 618.741 199.737C618.849 200.027 619.004 200.254 619.205 200.419C619.41 200.581 619.661 200.662 619.96 200.662Z" fill="#B2BEDC"/>
<g filter="url(#filter2_i_370_761)">
<rect x="295" y="188" width="127" height="20" rx="2" fill="white"/>
</g>
<path d="M268.239 202V193.273H271.682C272.341 193.273 272.904 193.391 273.37 193.626C273.838 193.859 274.195 194.19 274.439 194.619C274.686 195.045 274.81 195.547 274.81 196.124C274.81 196.703 274.685 197.202 274.435 197.619C274.185 198.034 273.823 198.352 273.348 198.574C272.877 198.795 272.306 198.906 271.635 198.906H269.33V197.423H271.337C271.689 197.423 271.982 197.375 272.215 197.278C272.448 197.182 272.621 197.037 272.735 196.844C272.851 196.651 272.909 196.411 272.909 196.124C272.909 195.834 272.851 195.589 272.735 195.391C272.621 195.192 272.446 195.041 272.211 194.939C271.978 194.834 271.684 194.781 271.328 194.781H270.084V202H268.239ZM272.952 198.028L275.121 202H273.084L270.962 198.028H272.952ZM280.277 199.213V195.455H282.093V202H280.35V200.811H280.282C280.134 201.195 279.888 201.503 279.544 201.736C279.203 201.969 278.787 202.085 278.296 202.085C277.858 202.085 277.473 201.986 277.141 201.787C276.809 201.588 276.549 201.305 276.361 200.939C276.176 200.572 276.083 200.134 276.08 199.622V195.455H277.895V199.298C277.898 199.685 278.002 199.99 278.206 200.214C278.411 200.439 278.685 200.551 279.029 200.551C279.248 200.551 279.452 200.501 279.642 200.402C279.833 200.3 279.986 200.149 280.103 199.95C280.222 199.751 280.28 199.506 280.277 199.213ZM285.36 198.216V202H283.545V195.455H285.275V196.609H285.352C285.496 196.229 285.739 195.928 286.08 195.706C286.421 195.482 286.835 195.369 287.32 195.369C287.775 195.369 288.171 195.469 288.509 195.668C288.847 195.866 289.11 196.151 289.298 196.52C289.485 196.886 289.579 197.324 289.579 197.832V202H287.763V198.156C287.766 197.756 287.664 197.443 287.457 197.219C287.249 196.991 286.964 196.878 286.6 196.878C286.356 196.878 286.14 196.93 285.952 197.036C285.768 197.141 285.623 197.294 285.518 197.496C285.415 197.695 285.363 197.935 285.36 198.216ZM297.01 221V214.455H298.825V221H297.01ZM297.922 213.611C297.652 213.611 297.42 213.521 297.227 213.342C297.037 213.161 296.941 212.943 296.941 212.69C296.941 212.44 297.037 212.226 297.227 212.047C297.42 211.865 297.652 211.774 297.922 211.774C298.191 211.774 298.422 211.865 298.612 212.047C298.805 212.226 298.902 212.44 298.902 212.69C298.902 212.943 298.805 213.161 298.612 213.342C298.422 213.521 298.191 213.611 297.922 213.611ZM302.094 217.216V221H300.279V214.455H302.009V215.609H302.086C302.231 215.229 302.474 214.928 302.815 214.706C303.156 214.482 303.569 214.369 304.055 214.369C304.509 214.369 304.906 214.469 305.244 214.668C305.582 214.866 305.844 215.151 306.032 215.52C306.219 215.886 306.313 216.324 306.313 216.832V221H304.498V217.156C304.501 216.756 304.398 216.443 304.191 216.219C303.984 215.991 303.698 215.878 303.335 215.878C303.09 215.878 302.874 215.93 302.687 216.036C302.502 216.141 302.357 216.294 302.252 216.496C302.15 216.695 302.097 216.935 302.094 217.216ZM311.642 223.455C311.412 223.455 311.196 223.436 310.994 223.399C310.795 223.365 310.631 223.321 310.5 223.267L310.909 221.912C311.122 221.977 311.314 222.013 311.484 222.018C311.658 222.024 311.807 221.984 311.932 221.899C312.06 221.814 312.163 221.669 312.243 221.464L312.349 221.188L310.001 214.455H311.911L313.266 219.261H313.334L314.702 214.455H316.624L314.08 221.707C313.957 222.06 313.791 222.366 313.581 222.628C313.374 222.892 313.111 223.095 312.793 223.237C312.474 223.382 312.091 223.455 311.642 223.455ZM320.299 221.128C319.637 221.128 319.065 220.987 318.582 220.706C318.102 220.422 317.731 220.027 317.469 219.521C317.208 219.013 317.077 218.423 317.077 217.753C317.077 217.077 317.208 216.486 317.469 215.98C317.731 215.472 318.102 215.077 318.582 214.795C319.065 214.511 319.637 214.369 320.299 214.369C320.961 214.369 321.532 214.511 322.012 214.795C322.495 215.077 322.867 215.472 323.129 215.98C323.39 216.486 323.521 217.077 323.521 217.753C323.521 218.423 323.39 219.013 323.129 219.521C322.867 220.027 322.495 220.422 322.012 220.706C321.532 220.987 320.961 221.128 320.299 221.128ZM320.308 219.722C320.609 219.722 320.86 219.636 321.062 219.466C321.263 219.293 321.415 219.057 321.518 218.759C321.623 218.46 321.675 218.121 321.675 217.74C321.675 217.359 321.623 217.02 321.518 216.722C321.415 216.423 321.263 216.187 321.062 216.014C320.86 215.841 320.609 215.754 320.308 215.754C320.004 215.754 319.748 215.841 319.54 216.014C319.336 216.187 319.181 216.423 319.076 216.722C318.974 217.02 318.923 217.359 318.923 217.74C318.923 218.121 318.974 218.46 319.076 218.759C319.181 219.057 319.336 219.293 319.54 219.466C319.748 219.636 320.004 219.722 320.308 219.722ZM328.898 218.213V214.455H330.714V221H328.971V219.811H328.903C328.755 220.195 328.509 220.503 328.165 220.736C327.825 220.969 327.408 221.085 326.917 221.085C326.479 221.085 326.094 220.986 325.762 220.787C325.43 220.588 325.17 220.305 324.982 219.939C324.798 219.572 324.704 219.134 324.701 218.622V214.455H326.516V218.298C326.519 218.685 326.623 218.99 326.827 219.214C327.032 219.439 327.306 219.551 327.65 219.551C327.869 219.551 328.073 219.501 328.263 219.402C328.454 219.3 328.607 219.149 328.724 218.95C328.843 218.751 328.901 218.506 328.898 218.213ZM332.166 221V214.455H333.926V215.597H333.994C334.113 215.19 334.314 214.884 334.595 214.676C334.876 214.466 335.2 214.361 335.566 214.361C335.657 214.361 335.755 214.366 335.86 214.378C335.966 214.389 336.058 214.405 336.137 214.425V216.036C336.052 216.01 335.934 215.987 335.784 215.967C335.633 215.947 335.495 215.938 335.37 215.938C335.103 215.938 334.865 215.996 334.654 216.112C334.447 216.226 334.282 216.385 334.16 216.589C334.041 216.794 333.981 217.03 333.981 217.297V221H332.166ZM343.335 214.455V215.818H339.393V214.455H343.335ZM340.288 212.886H342.103V218.989C342.103 219.156 342.129 219.287 342.18 219.381C342.231 219.472 342.302 219.536 342.393 219.572C342.487 219.609 342.595 219.628 342.717 219.628C342.802 219.628 342.887 219.621 342.973 219.607C343.058 219.589 343.123 219.577 343.169 219.568L343.454 220.919C343.363 220.947 343.235 220.98 343.071 221.017C342.906 221.057 342.706 221.081 342.47 221.089C342.032 221.107 341.649 221.048 341.319 220.915C340.993 220.781 340.738 220.574 340.556 220.293C340.375 220.011 340.285 219.656 340.288 219.227V212.886ZM347.43 221.128C346.757 221.128 346.177 220.991 345.691 220.719C345.208 220.443 344.836 220.054 344.575 219.551C344.314 219.045 344.183 218.447 344.183 217.757C344.183 217.084 344.314 216.493 344.575 215.984C344.836 215.476 345.204 215.08 345.679 214.795C346.156 214.511 346.716 214.369 347.358 214.369C347.789 214.369 348.191 214.439 348.564 214.578C348.939 214.714 349.265 214.92 349.544 215.196C349.825 215.472 350.044 215.818 350.2 216.236C350.356 216.651 350.434 217.136 350.434 217.693V218.192H344.907V217.067H348.725C348.725 216.805 348.669 216.574 348.555 216.372C348.441 216.17 348.284 216.013 348.082 215.899C347.883 215.783 347.652 215.724 347.387 215.724C347.112 215.724 346.868 215.788 346.654 215.916C346.444 216.041 346.279 216.21 346.16 216.423C346.041 216.634 345.98 216.868 345.977 217.126V218.196C345.977 218.52 346.037 218.8 346.156 219.036C346.278 219.271 346.45 219.453 346.672 219.581C346.893 219.709 347.156 219.773 347.46 219.773C347.662 219.773 347.846 219.744 348.014 219.688C348.181 219.631 348.325 219.545 348.444 219.432C348.564 219.318 348.654 219.179 348.717 219.014L350.396 219.125C350.311 219.528 350.136 219.881 349.872 220.182C349.61 220.48 349.272 220.713 348.858 220.881C348.446 221.045 347.97 221.128 347.43 221.128ZM351.619 221V214.455H353.379V215.597H353.447C353.566 215.19 353.767 214.884 354.048 214.676C354.329 214.466 354.653 214.361 355.02 214.361C355.11 214.361 355.208 214.366 355.314 214.378C355.419 214.389 355.511 214.405 355.591 214.425V216.036C355.505 216.01 355.387 215.987 355.237 215.967C355.086 215.947 354.949 215.938 354.824 215.938C354.556 215.938 354.318 215.996 354.108 216.112C353.9 216.226 353.735 216.385 353.613 216.589C353.494 216.794 353.434 217.03 353.434 217.297V221H351.619ZM356.529 221V214.455H358.259V215.609H358.336C358.472 215.226 358.7 214.923 359.018 214.702C359.336 214.48 359.717 214.369 360.16 214.369C360.609 214.369 360.991 214.482 361.306 214.706C361.621 214.928 361.832 215.229 361.937 215.609H362.005C362.138 215.234 362.38 214.935 362.729 214.71C363.082 214.483 363.498 214.369 363.978 214.369C364.589 214.369 365.085 214.564 365.465 214.953C365.849 215.339 366.04 215.888 366.04 216.598V221H364.229V216.956C364.229 216.592 364.133 216.32 363.94 216.138C363.746 215.956 363.505 215.865 363.215 215.865C362.886 215.865 362.629 215.97 362.444 216.18C362.259 216.388 362.167 216.662 362.167 217.003V221H360.407V216.918C360.407 216.597 360.315 216.341 360.13 216.151C359.948 215.96 359.708 215.865 359.41 215.865C359.208 215.865 359.026 215.916 358.864 216.018C358.705 216.118 358.579 216.259 358.485 216.44C358.391 216.619 358.344 216.83 358.344 217.071V221H356.529ZM367.474 221V214.455H369.29V221H367.474ZM368.386 213.611C368.116 213.611 367.885 213.521 367.692 213.342C367.501 213.161 367.406 212.943 367.406 212.69C367.406 212.44 367.501 212.226 367.692 212.047C367.885 211.865 368.116 211.774 368.386 211.774C368.656 211.774 368.886 211.865 369.077 212.047C369.27 212.226 369.366 212.44 369.366 212.69C369.366 212.943 369.27 213.161 369.077 213.342C368.886 213.521 368.656 213.611 368.386 213.611ZM372.559 217.216V221H370.744V214.455H372.474V215.609H372.551C372.696 215.229 372.939 214.928 373.279 214.706C373.62 214.482 374.034 214.369 374.52 214.369C374.974 214.369 375.37 214.469 375.708 214.668C376.047 214.866 376.309 215.151 376.497 215.52C376.684 215.886 376.778 216.324 376.778 216.832V221H374.963V217.156C374.966 216.756 374.863 216.443 374.656 216.219C374.449 215.991 374.163 215.878 373.799 215.878C373.555 215.878 373.339 215.93 373.152 216.036C372.967 216.141 372.822 216.294 372.717 216.496C372.615 216.695 372.562 216.935 372.559 217.216ZM380.075 221.124C379.658 221.124 379.286 221.051 378.959 220.906C378.632 220.759 378.374 220.541 378.183 220.254C377.996 219.964 377.902 219.604 377.902 219.172C377.902 218.808 377.969 218.503 378.102 218.256C378.236 218.009 378.418 217.81 378.648 217.659C378.878 217.509 379.139 217.395 379.432 217.318C379.727 217.241 380.037 217.188 380.361 217.156C380.741 217.116 381.048 217.08 381.281 217.045C381.514 217.009 381.683 216.955 381.788 216.884C381.893 216.812 381.946 216.707 381.946 216.568V216.543C381.946 216.273 381.861 216.064 381.69 215.916C381.523 215.768 381.284 215.695 380.974 215.695C380.648 215.695 380.388 215.767 380.195 215.912C380.001 216.054 379.874 216.233 379.811 216.449L378.132 216.312C378.217 215.915 378.385 215.571 378.635 215.281C378.885 214.989 379.207 214.764 379.602 214.608C380 214.449 380.46 214.369 380.983 214.369C381.347 214.369 381.695 214.412 382.027 214.497C382.362 214.582 382.659 214.714 382.918 214.893C383.179 215.072 383.385 215.303 383.536 215.584C383.686 215.862 383.761 216.196 383.761 216.585V221H382.04V220.092H381.989C381.884 220.297 381.743 220.477 381.567 220.634C381.391 220.787 381.179 220.908 380.932 220.996C380.685 221.081 380.399 221.124 380.075 221.124ZM380.595 219.871C380.862 219.871 381.098 219.818 381.303 219.713C381.507 219.605 381.668 219.46 381.784 219.278C381.901 219.097 381.959 218.891 381.959 218.661V217.966C381.902 218.003 381.824 218.037 381.724 218.068C381.628 218.097 381.518 218.124 381.396 218.149C381.274 218.172 381.152 218.193 381.03 218.213C380.908 218.23 380.797 218.246 380.697 218.26C380.484 218.291 380.298 218.341 380.139 218.409C379.98 218.477 379.857 218.57 379.768 218.686C379.68 218.8 379.636 218.942 379.636 219.112C379.636 219.359 379.726 219.548 379.905 219.679C380.087 219.807 380.317 219.871 380.595 219.871ZM386.985 212.273V221H385.17V212.273H386.985Z" fill="#B2BEDC"/>
<path d="M306.867 195.544C307.123 195.544 307.419 195.588 307.755 195.676L307.611 197.824H306.795V196.468H306.735C305.759 196.468 305.067 197.164 304.659 198.556V201.22H305.943V202H302.655V201.22H303.651V196.456H302.655V195.676H304.407L304.599 197.176C304.855 196.632 305.159 196.224 305.511 195.952C305.871 195.68 306.323 195.544 306.867 195.544ZM310.594 199.192C310.618 199.888 310.798 200.412 311.134 200.764C311.478 201.116 311.91 201.292 312.43 201.292C312.742 201.292 313.026 201.248 313.282 201.16C313.546 201.064 313.826 200.92 314.122 200.728L314.59 201.4C314.294 201.632 313.954 201.812 313.57 201.94C313.194 202.068 312.814 202.132 312.43 202.132C311.518 202.132 310.806 201.836 310.294 201.244C309.79 200.644 309.538 199.844 309.538 198.844C309.538 198.212 309.65 197.648 309.874 197.152C310.098 196.648 310.418 196.256 310.834 195.976C311.25 195.688 311.734 195.544 312.286 195.544C313.086 195.544 313.714 195.824 314.17 196.384C314.634 196.936 314.866 197.692 314.866 198.652C314.866 198.836 314.858 199.016 314.842 199.192H310.594ZM312.298 196.372C311.81 196.372 311.414 196.548 311.11 196.9C310.806 197.244 310.634 197.752 310.594 198.424H313.882C313.874 197.76 313.73 197.252 313.45 196.9C313.17 196.548 312.786 196.372 312.298 196.372ZM319.457 200.44C319.457 201.008 319.805 201.292 320.501 201.292C320.829 201.292 321.181 201.22 321.557 201.076L321.821 201.808C321.421 202.024 320.921 202.132 320.321 202.132C319.753 202.132 319.297 201.976 318.953 201.664C318.617 201.352 318.449 200.928 318.449 200.392V193.936H316.505V193.132H319.457V200.44ZM324.984 199.192C325.008 199.888 325.188 200.412 325.524 200.764C325.868 201.116 326.3 201.292 326.82 201.292C327.132 201.292 327.416 201.248 327.672 201.16C327.936 201.064 328.216 200.92 328.512 200.728L328.98 201.4C328.684 201.632 328.344 201.812 327.96 201.94C327.584 202.068 327.204 202.132 326.82 202.132C325.908 202.132 325.196 201.836 324.684 201.244C324.18 200.644 323.928 199.844 323.928 198.844C323.928 198.212 324.04 197.648 324.264 197.152C324.488 196.648 324.808 196.256 325.224 195.976C325.64 195.688 326.124 195.544 326.676 195.544C327.476 195.544 328.104 195.824 328.56 196.384C329.024 196.936 329.256 197.692 329.256 198.652C329.256 198.836 329.248 199.016 329.232 199.192H324.984ZM326.688 196.372C326.2 196.372 325.804 196.548 325.5 196.9C325.196 197.244 325.024 197.752 324.984 198.424H328.272C328.264 197.76 328.12 197.252 327.84 196.9C327.56 196.548 327.176 196.372 326.688 196.372ZM334.352 202H333.188L330.896 195.676H331.976L333.8 201.088L335.6 195.676H336.656L334.352 202ZM343.107 200.62C343.107 200.868 343.147 201.052 343.227 201.172C343.307 201.284 343.439 201.368 343.623 201.424L343.371 202.144C342.755 202.064 342.371 201.764 342.219 201.244C341.995 201.532 341.711 201.752 341.367 201.904C341.031 202.056 340.655 202.132 340.239 202.132C339.607 202.132 339.107 201.956 338.739 201.604C338.379 201.252 338.199 200.78 338.199 200.188C338.199 199.54 338.451 199.04 338.955 198.688C339.467 198.336 340.199 198.16 341.151 198.16H342.087V197.644C342.087 197.196 341.959 196.876 341.703 196.684C341.447 196.484 341.075 196.384 340.587 196.384C340.107 196.384 339.559 196.492 338.943 196.708L338.667 195.94C339.411 195.676 340.103 195.544 340.743 195.544C341.511 195.544 342.095 195.724 342.495 196.084C342.903 196.444 343.107 196.944 343.107 197.584V200.62ZM340.491 201.376C340.803 201.376 341.099 201.296 341.379 201.136C341.667 200.976 341.903 200.756 342.087 200.476V198.856H341.175C340.503 198.856 340.019 198.968 339.723 199.192C339.427 199.416 339.279 199.744 339.279 200.176C339.279 200.976 339.683 201.376 340.491 201.376ZM345.766 195.676H346.63L346.714 196.564C346.962 196.244 347.274 195.996 347.65 195.82C348.034 195.636 348.418 195.544 348.802 195.544C349.986 195.544 350.578 196.168 350.578 197.416V202H349.57V198.16C349.57 197.688 349.542 197.328 349.486 197.08C349.438 196.832 349.338 196.648 349.186 196.528C349.034 196.408 348.802 196.348 348.49 196.348C348.146 196.348 347.822 196.452 347.518 196.66C347.214 196.868 346.966 197.116 346.774 197.404V202H345.766V195.676ZM355.83 201.268C356.382 201.268 356.93 201.084 357.474 200.716L357.954 201.376C357.69 201.608 357.362 201.792 356.97 201.928C356.578 202.064 356.198 202.132 355.83 202.132C354.894 202.132 354.162 201.84 353.634 201.256C353.114 200.664 352.854 199.868 352.854 198.868C352.854 198.236 352.97 197.668 353.202 197.164C353.442 196.66 353.786 196.264 354.234 195.976C354.682 195.688 355.214 195.544 355.83 195.544C356.646 195.544 357.35 195.792 357.942 196.288L357.45 196.948C356.898 196.58 356.354 196.396 355.818 196.396C355.25 196.396 354.794 196.608 354.45 197.032C354.114 197.448 353.946 198.06 353.946 198.868C353.946 199.676 354.114 200.28 354.45 200.68C354.794 201.072 355.254 201.268 355.83 201.268ZM360.961 199.192C360.985 199.888 361.165 200.412 361.501 200.764C361.845 201.116 362.277 201.292 362.797 201.292C363.109 201.292 363.393 201.248 363.649 201.16C363.913 201.064 364.193 200.92 364.489 200.728L364.957 201.4C364.661 201.632 364.321 201.812 363.937 201.94C363.561 202.068 363.181 202.132 362.797 202.132C361.885 202.132 361.173 201.836 360.661 201.244C360.157 200.644 359.905 199.844 359.905 198.844C359.905 198.212 360.017 197.648 360.241 197.152C360.465 196.648 360.785 196.256 361.201 195.976C361.617 195.688 362.101 195.544 362.653 195.544C363.453 195.544 364.081 195.824 364.537 196.384C365.001 196.936 365.233 197.692 365.233 198.652C365.233 198.836 365.225 199.016 365.209 199.192H360.961ZM362.665 196.372C362.177 196.372 361.781 196.548 361.477 196.9C361.173 197.244 361.001 197.752 360.961 198.424H364.249C364.241 197.76 364.097 197.252 363.817 196.9C363.537 196.548 363.153 196.372 362.665 196.372ZM379.348 193.132V202H378.46L378.364 201.172C378.132 201.492 377.864 201.732 377.56 201.892C377.256 202.052 376.928 202.132 376.576 202.132C375.776 202.132 375.172 201.84 374.764 201.256C374.364 200.672 374.164 199.868 374.164 198.844C374.164 198.212 374.264 197.648 374.464 197.152C374.664 196.648 374.948 196.256 375.316 195.976C375.692 195.688 376.132 195.544 376.636 195.544C377.332 195.544 377.9 195.796 378.34 196.3V193.012L379.348 193.132ZM376.9 196.36C376.372 196.36 375.964 196.568 375.676 196.984C375.396 197.4 375.256 198.02 375.256 198.844C375.256 199.66 375.384 200.28 375.64 200.704C375.904 201.12 376.284 201.328 376.78 201.328C377.38 201.328 377.9 200.992 378.34 200.32V197.176C378.164 196.912 377.952 196.712 377.704 196.576C377.456 196.432 377.188 196.36 376.9 196.36ZM382.547 199.192C382.571 199.888 382.751 200.412 383.087 200.764C383.431 201.116 383.863 201.292 384.383 201.292C384.695 201.292 384.979 201.248 385.235 201.16C385.499 201.064 385.779 200.92 386.075 200.728L386.543 201.4C386.247 201.632 385.907 201.812 385.523 201.94C385.147 202.068 384.767 202.132 384.383 202.132C383.471 202.132 382.759 201.836 382.247 201.244C381.743 200.644 381.491 199.844 381.491 198.844C381.491 198.212 381.603 197.648 381.827 197.152C382.051 196.648 382.371 196.256 382.787 195.976C383.203 195.688 383.687 195.544 384.239 195.544C385.039 195.544 385.667 195.824 386.123 196.384C386.587 196.936 386.819 197.692 386.819 198.652C386.819 198.836 386.811 199.016 386.795 199.192H382.547ZM384.251 196.372C383.763 196.372 383.367 196.548 383.063 196.9C382.759 197.244 382.587 197.752 382.547 198.424H385.835C385.827 197.76 385.683 197.252 385.403 196.9C385.123 196.548 384.739 196.372 384.251 196.372ZM391.77 195.544C393.298 195.544 394.062 196.64 394.062 198.832C394.062 199.832 393.854 200.632 393.438 201.232C393.022 201.832 392.418 202.132 391.626 202.132C390.938 202.132 390.378 201.892 389.946 201.412V204.424L388.938 204.544V195.676H389.802L389.886 196.564C390.118 196.236 390.394 195.984 390.714 195.808C391.042 195.632 391.394 195.544 391.77 195.544ZM391.53 196.36C391.21 196.36 390.914 196.456 390.642 196.648C390.378 196.84 390.146 197.08 389.946 197.368V200.5C390.114 200.748 390.322 200.944 390.57 201.088C390.826 201.224 391.102 201.292 391.398 201.292C391.926 201.292 392.318 201.092 392.574 200.692C392.838 200.284 392.97 199.664 392.97 198.832C392.97 198 392.854 197.38 392.622 196.972C392.39 196.564 392.026 196.36 391.53 196.36ZM398.606 200.44C398.606 201.008 398.954 201.292 399.65 201.292C399.978 201.292 400.33 201.22 400.706 201.076L400.97 201.808C400.57 202.024 400.07 202.132 399.47 202.132C398.902 202.132 398.446 201.976 398.102 201.664C397.766 201.352 397.598 200.928 397.598 200.392V193.936H395.654V193.132H398.606V200.44ZM405.741 195.544C406.613 195.544 407.281 195.84 407.745 196.432C408.217 197.016 408.453 197.816 408.453 198.832C408.453 199.824 408.213 200.624 407.733 201.232C407.261 201.832 406.593 202.132 405.729 202.132C404.857 202.132 404.185 201.84 403.713 201.256C403.241 200.664 403.005 199.86 403.005 198.844C403.005 197.844 403.241 197.044 403.713 196.444C404.193 195.844 404.869 195.544 405.741 195.544ZM405.741 196.372C405.189 196.372 404.777 196.576 404.505 196.984C404.233 197.392 404.097 198.012 404.097 198.844C404.097 199.676 404.229 200.296 404.493 200.704C404.765 201.104 405.177 201.304 405.729 201.304C406.281 201.304 406.689 201.104 406.953 200.704C407.225 200.296 407.361 199.672 407.361 198.832C407.361 198 407.225 197.384 406.953 196.984C406.689 196.576 406.285 196.372 405.741 196.372ZM413.572 202.036C413.324 202.764 412.984 203.344 412.552 203.776C412.12 204.208 411.516 204.464 410.74 204.544L410.596 203.74C411.02 203.668 411.356 203.556 411.604 203.404C411.86 203.26 412.06 203.076 412.204 202.852C412.348 202.636 412.48 202.352 412.6 202H412.264L410.068 195.676H411.136L412.948 201.232L414.736 195.676H415.78L413.572 202.036Z" fill="#A1A4AB"/>
<defs>
<filter id="filter0_i_370_761" x="510" y="60" width="148" height="110" filterUnits="userSpaceOnUse" color-interpolation-filters="sRGB">
<feFlood flood-opacity="0" result="BackgroundImageFix"/>
<feBlend mode="normal" in="SourceGraphic" in2="BackgroundImageFix" result="shape"/>
<feColorMatrix in="SourceAlpha" type="matrix" values="0 0 0 0 0 0 0 0 0 0 0 0 0 0 0 0 0 0 127 0" result="hardAlpha"/>
<feOffset/>
<feGaussianBlur stdDeviation="5"/>
<feComposite in2="hardAlpha" operator="arithmetic" k2="-1" k3="1"/>
<feColorMatrix type="matrix" values="0 0 0 0 0.325 0 0 0 0 0.5545 0 0 0 0 1 0 0 0 0.25 0"/>
<feBlend mode="normal" in2="shape" result="effect1_innerShadow_370_761"/>
</filter>
<filter id="filter1_i_370_761" x="253" y="62" width="174" height="107" filterUnits="userSpaceOnUse" color-interpolation-filters="sRGB">
<feFlood flood-opacity="0" result="BackgroundImageFix"/>
<feBlend mode="normal" in="SourceGraphic" in2="BackgroundImageFix" result="shape"/>
<feColorMatrix in="SourceAlpha" type="matrix" values="0 0 0 0 0 0 0 0 0 0 0 0 0 0 0 0 0 0 127 0" result="hardAlpha"/>
<feOffset/>
<feGaussianBlur stdDeviation="5"/>
<feComposite in2="hardAlpha" operator="arithmetic" k2="-1" k3="1"/>
<feColorMatrix type="matrix" values="0 0 0 0 0.0396875 0 0 0 0 0.015625 0 0 0 0 0.1875 0 0 0 1 0"/>
<feBlend mode="normal" in2="shape" result="effect1_innerShadow_370_761"/>
</filter>
<filter id="filter2_i_370_761" x="295" y="188" width="127" height="20" filterUnits="userSpaceOnUse" color-interpolation-filters="sRGB">
<feFlood flood-opacity="0" result="BackgroundImageFix"/>
<feBlend mode="normal" in="SourceGraphic" in2="BackgroundImageFix" result="shape"/>
<feColorMatrix in="SourceAlpha" type="matrix" values="0 0 0 0 0 0 0 0 0 0 0 0 0 0 0 0 0 0 127 0" result="hardAlpha"/>
<feOffset/>
<feGaussianBlur stdDeviation="2"/>
<feComposite in2="hardAlpha" operator="arithmetic" k2="-1" k3="1"/>
<feColorMatrix type="matrix" values="0 0 0 0 0 0 0 0 0 0 0 0 0 0 0 0 0 0 0.25 0"/>
<feBlend mode="normal" in2="shape" result="effect1_innerShadow_370_761"/>
</filter>
</defs>
</svg>
