<svg width="724" height="279" viewBox="0 0 724 279" fill="none" xmlns="http://www.w3.org/2000/svg">
<rect x="0.5" y="0.5" width="723" height="278" rx="11.5" fill="white" stroke="black"/>
<path d="M66.2472 177.273H68.3139L70.304 181.031H70.3892L72.3793 177.273H74.446L71.2628 182.915V186H69.4304V182.915L66.2472 177.273ZM77.006 186.128C76.3441 186.128 75.7717 185.987 75.2887 185.706C74.8086 185.422 74.4379 185.027 74.1765 184.521C73.9151 184.013 73.7844 183.423 73.7844 182.753C73.7844 182.077 73.9151 181.486 74.1765 180.98C74.4379 180.472 74.8086 180.077 75.2887 179.795C75.7717 179.511 76.3441 179.369 77.006 179.369C77.668 179.369 78.239 179.511 78.7191 179.795C79.2021 180.077 79.5742 180.472 79.8356 180.98C80.0969 181.486 80.2276 182.077 80.2276 182.753C80.2276 183.423 80.0969 184.013 79.8356 184.521C79.5742 185.027 79.2021 185.422 78.7191 185.706C78.239 185.987 77.668 186.128 77.006 186.128ZM77.0146 184.722C77.3157 184.722 77.5671 184.636 77.7688 184.466C77.9705 184.293 78.1225 184.057 78.2248 183.759C78.3299 183.46 78.3825 183.121 78.3825 182.74C78.3825 182.359 78.3299 182.02 78.2248 181.722C78.1225 181.423 77.9705 181.187 77.7688 181.014C77.5671 180.841 77.3157 180.754 77.0146 180.754C76.7106 180.754 76.4549 180.841 76.2475 181.014C76.043 181.187 75.8881 181.423 75.783 181.722C75.6808 182.02 75.6296 182.359 75.6296 182.74C75.6296 183.121 75.6808 183.46 75.783 183.759C75.8881 184.057 76.043 184.293 76.2475 184.466C76.4549 184.636 76.7106 184.722 77.0146 184.722ZM85.6055 183.213V179.455H87.4208V186H85.6779V184.811H85.6097C85.462 185.195 85.2163 185.503 84.8725 185.736C84.5316 185.969 84.1154 186.085 83.6239 186.085C83.1864 186.085 82.8015 185.986 82.4691 185.787C82.1367 185.588 81.8768 185.305 81.6893 184.939C81.5046 184.572 81.4109 184.134 81.408 183.622V179.455H83.2234V183.298C83.2262 183.685 83.3299 183.99 83.5344 184.214C83.739 184.439 84.0131 184.551 84.3569 184.551C84.5756 184.551 84.7802 184.501 84.9705 184.402C85.1609 184.3 85.3143 184.149 85.4308 183.95C85.5501 183.751 85.6083 183.506 85.6055 183.213ZM88.8729 186V179.455H90.6328V180.597H90.701C90.8203 180.19 91.0206 179.884 91.3018 179.676C91.5831 179.466 91.907 179.361 92.2734 179.361C92.3643 179.361 92.4624 179.366 92.5675 179.378C92.6726 179.389 92.7649 179.405 92.8445 179.425V181.036C92.7592 181.01 92.6413 180.987 92.4908 180.967C92.3402 180.947 92.2024 180.938 92.0774 180.938C91.8104 180.938 91.5717 180.996 91.3615 181.112C91.1541 181.226 90.9893 181.385 90.8672 181.589C90.7479 181.794 90.6882 182.03 90.6882 182.297V186H88.8729ZM102.006 181.321L100.344 181.423C100.316 181.281 100.255 181.153 100.161 181.04C100.067 180.923 99.9439 180.831 99.7905 180.763C99.6399 180.692 99.4595 180.656 99.2493 180.656C98.968 180.656 98.7308 180.716 98.5376 180.835C98.3445 180.952 98.2479 181.108 98.2479 181.304C98.2479 181.46 98.3104 181.592 98.4354 181.7C98.5604 181.808 98.7749 181.895 99.0788 181.96L100.263 182.199C100.9 182.33 101.374 182.54 101.687 182.83C101.999 183.119 102.156 183.5 102.156 183.972C102.156 184.401 102.029 184.777 101.776 185.101C101.526 185.425 101.183 185.678 100.745 185.859C100.31 186.038 99.8089 186.128 99.2408 186.128C98.3743 186.128 97.6839 185.947 97.1697 185.587C96.6584 185.223 96.3587 184.729 96.2706 184.104L98.0561 184.01C98.1101 184.274 98.2408 184.476 98.4482 184.615C98.6555 184.751 98.9212 184.82 99.245 184.82C99.5632 184.82 99.8189 184.759 100.012 184.636C100.208 184.511 100.308 184.351 100.31 184.155C100.308 183.99 100.238 183.855 100.102 183.75C99.9652 183.642 99.755 183.56 99.4709 183.503L98.3374 183.277C97.6982 183.149 97.2223 182.928 96.9098 182.612C96.6001 182.297 96.4453 181.895 96.4453 181.406C96.4453 180.986 96.5589 180.624 96.7862 180.32C97.0163 180.016 97.3388 179.781 97.7536 179.616C98.1712 179.452 98.6598 179.369 99.2195 179.369C100.046 179.369 100.697 179.544 101.171 179.893C101.648 180.243 101.927 180.719 102.006 181.321ZM106.256 186.128C105.594 186.128 105.022 185.987 104.539 185.706C104.059 185.422 103.688 185.027 103.426 184.521C103.165 184.013 103.034 183.423 103.034 182.753C103.034 182.077 103.165 181.486 103.426 180.98C103.688 180.472 104.059 180.077 104.539 179.795C105.022 179.511 105.594 179.369 106.256 179.369C106.918 179.369 107.489 179.511 107.969 179.795C108.452 180.077 108.824 180.472 109.086 180.98C109.347 181.486 109.478 182.077 109.478 182.753C109.478 183.423 109.347 184.013 109.086 184.521C108.824 185.027 108.452 185.422 107.969 185.706C107.489 185.987 106.918 186.128 106.256 186.128ZM106.265 184.722C106.566 184.722 106.817 184.636 107.019 184.466C107.221 184.293 107.373 184.057 107.475 183.759C107.58 183.46 107.632 183.121 107.632 182.74C107.632 182.359 107.58 182.02 107.475 181.722C107.373 181.423 107.221 181.187 107.019 181.014C106.817 180.841 106.566 180.754 106.265 180.754C105.961 180.754 105.705 180.841 105.498 181.014C105.293 181.187 105.138 181.423 105.033 181.722C104.931 182.02 104.88 182.359 104.88 182.74C104.88 183.121 104.931 183.46 105.033 183.759C105.138 184.057 105.293 184.293 105.498 184.466C105.705 184.636 105.961 184.722 106.265 184.722ZM114.855 183.213V179.455H116.671V186H114.928V184.811H114.86C114.712 185.195 114.466 185.503 114.123 185.736C113.782 185.969 113.365 186.085 112.874 186.085C112.436 186.085 112.051 185.986 111.719 185.787C111.387 185.588 111.127 185.305 110.939 184.939C110.755 184.572 110.661 184.134 110.658 183.622V179.455H112.473V183.298C112.476 183.685 112.58 183.99 112.784 184.214C112.989 184.439 113.263 184.551 113.607 184.551C113.826 184.551 114.03 184.501 114.221 184.402C114.411 184.3 114.564 184.149 114.681 183.95C114.8 183.751 114.858 183.506 114.855 183.213ZM118.123 186V179.455H119.883V180.597H119.951C120.07 180.19 120.271 179.884 120.552 179.676C120.833 179.466 121.157 179.361 121.523 179.361C121.614 179.361 121.712 179.366 121.817 179.378C121.923 179.389 122.015 179.405 122.094 179.425V181.036C122.009 181.01 121.891 180.987 121.741 180.967C121.59 180.947 121.452 180.938 121.327 180.938C121.06 180.938 120.822 180.996 120.612 181.112C120.404 181.226 120.239 181.385 120.117 181.589C119.998 181.794 119.938 182.03 119.938 182.297V186H118.123ZM125.686 186.128C125.015 186.128 124.439 185.986 123.956 185.702C123.475 185.415 123.106 185.017 122.848 184.509C122.592 184 122.464 183.415 122.464 182.753C122.464 182.082 122.593 181.494 122.852 180.989C123.113 180.48 123.484 180.084 123.964 179.8C124.444 179.513 125.015 179.369 125.677 179.369C126.248 179.369 126.748 179.473 127.177 179.68C127.606 179.888 127.946 180.179 128.196 180.554C128.446 180.929 128.583 181.369 128.609 181.875H126.896C126.848 181.548 126.72 181.286 126.512 181.087C126.308 180.885 126.039 180.784 125.707 180.784C125.426 180.784 125.18 180.861 124.97 181.014C124.762 181.165 124.6 181.385 124.484 181.675C124.368 181.964 124.309 182.315 124.309 182.727C124.309 183.145 124.366 183.5 124.48 183.793C124.596 184.085 124.76 184.308 124.97 184.462C125.18 184.615 125.426 184.692 125.707 184.692C125.914 184.692 126.1 184.649 126.265 184.564C126.433 184.479 126.571 184.355 126.679 184.193C126.789 184.028 126.862 183.831 126.896 183.601H128.609C128.581 184.101 128.444 184.541 128.2 184.922C127.958 185.3 127.625 185.595 127.199 185.808C126.772 186.021 126.268 186.128 125.686 186.128ZM132.754 186.128C132.081 186.128 131.501 185.991 131.016 185.719C130.533 185.443 130.161 185.054 129.899 184.551C129.638 184.045 129.507 183.447 129.507 182.757C129.507 182.084 129.638 181.493 129.899 180.984C130.161 180.476 130.528 180.08 131.003 179.795C131.48 179.511 132.04 179.369 132.682 179.369C133.114 179.369 133.516 179.439 133.888 179.578C134.263 179.714 134.589 179.92 134.868 180.196C135.149 180.472 135.368 180.818 135.524 181.236C135.68 181.651 135.759 182.136 135.759 182.693V183.192H130.232V182.067H134.05C134.05 181.805 133.993 181.574 133.879 181.372C133.766 181.17 133.608 181.013 133.406 180.899C133.207 180.783 132.976 180.724 132.712 180.724C132.436 180.724 132.192 180.788 131.979 180.916C131.768 181.041 131.604 181.21 131.484 181.423C131.365 181.634 131.304 181.868 131.301 182.126V183.196C131.301 183.52 131.361 183.8 131.48 184.036C131.602 184.271 131.774 184.453 131.996 184.581C132.217 184.709 132.48 184.773 132.784 184.773C132.986 184.773 133.17 184.744 133.338 184.688C133.506 184.631 133.649 184.545 133.768 184.432C133.888 184.318 133.979 184.179 134.041 184.014L135.72 184.125C135.635 184.528 135.46 184.881 135.196 185.182C134.935 185.48 134.597 185.713 134.182 185.881C133.77 186.045 133.294 186.128 132.754 186.128Z" fill="#B2BEDC"/>
<path d="M305.759 232V223.273H309.202C309.861 223.273 310.423 223.391 310.889 223.626C311.358 223.859 311.714 224.19 311.959 224.619C312.206 225.045 312.33 225.547 312.33 226.124C312.33 226.703 312.205 227.202 311.955 227.619C311.705 228.034 311.342 228.352 310.868 228.574C310.396 228.795 309.825 228.906 309.155 228.906H306.849V227.423H308.857C309.209 227.423 309.501 227.375 309.734 227.278C309.967 227.182 310.141 227.037 310.254 226.844C310.371 226.651 310.429 226.411 310.429 226.124C310.429 225.834 310.371 225.589 310.254 225.391C310.141 225.192 309.966 225.041 309.73 224.939C309.497 224.834 309.203 224.781 308.848 224.781H307.604V232H305.759ZM310.472 228.028L312.641 232H310.604L308.482 228.028H310.472ZM316.477 232.128C315.804 232.128 315.224 231.991 314.738 231.719C314.255 231.443 313.883 231.054 313.622 230.551C313.36 230.045 313.23 229.447 313.23 228.757C313.23 228.084 313.36 227.493 313.622 226.984C313.883 226.476 314.251 226.08 314.725 225.795C315.203 225.511 315.762 225.369 316.404 225.369C316.836 225.369 317.238 225.439 317.61 225.578C317.985 225.714 318.312 225.92 318.591 226.196C318.872 226.472 319.091 226.818 319.247 227.236C319.403 227.651 319.481 228.136 319.481 228.693V229.192H313.954V228.067H317.772C317.772 227.805 317.716 227.574 317.602 227.372C317.488 227.17 317.331 227.013 317.129 226.899C316.93 226.783 316.699 226.724 316.434 226.724C316.159 226.724 315.914 226.788 315.701 226.916C315.491 227.041 315.326 227.21 315.207 227.423C315.088 227.634 315.027 227.868 315.024 228.126V229.196C315.024 229.52 315.083 229.8 315.203 230.036C315.325 230.271 315.497 230.453 315.718 230.581C315.94 230.709 316.203 230.773 316.507 230.773C316.708 230.773 316.893 230.744 317.061 230.688C317.228 230.631 317.372 230.545 317.491 230.432C317.61 230.318 317.701 230.179 317.764 230.014L319.443 230.125C319.358 230.528 319.183 230.881 318.919 231.182C318.657 231.48 318.319 231.713 317.904 231.881C317.493 232.045 317.017 232.128 316.477 232.128ZM322.481 223.273V232H320.666V223.273H322.481ZM326.918 232.128C326.245 232.128 325.665 231.991 325.18 231.719C324.697 231.443 324.325 231.054 324.063 230.551C323.802 230.045 323.671 229.447 323.671 228.757C323.671 228.084 323.802 227.493 324.063 226.984C324.325 226.476 324.692 226.08 325.167 225.795C325.644 225.511 326.204 225.369 326.846 225.369C327.278 225.369 327.68 225.439 328.052 225.578C328.427 225.714 328.754 225.92 329.032 226.196C329.313 226.472 329.532 226.818 329.688 227.236C329.844 227.651 329.923 228.136 329.923 228.693V229.192H324.396V228.067H328.214C328.214 227.805 328.157 227.574 328.043 227.372C327.93 227.17 327.772 227.013 327.57 226.899C327.371 226.783 327.14 226.724 326.876 226.724C326.6 226.724 326.356 226.788 326.143 226.916C325.933 227.041 325.768 227.21 325.648 227.423C325.529 227.634 325.468 227.868 325.465 228.126V229.196C325.465 229.52 325.525 229.8 325.644 230.036C325.766 230.271 325.938 230.453 326.16 230.581C326.381 230.709 326.644 230.773 326.948 230.773C327.15 230.773 327.335 230.744 327.502 230.688C327.67 230.631 327.813 230.545 327.933 230.432C328.052 230.318 328.143 230.179 328.205 230.014L329.884 230.125C329.799 230.528 329.624 230.881 329.36 231.182C329.099 231.48 328.761 231.713 328.346 231.881C327.934 232.045 327.458 232.128 326.918 232.128ZM337.034 225.455L334.745 232H332.7L330.412 225.455H332.329L333.689 230.138H333.757L335.112 225.455H337.034ZM339.653 232.124C339.236 232.124 338.864 232.051 338.537 231.906C338.21 231.759 337.952 231.541 337.761 231.254C337.574 230.964 337.48 230.604 337.48 230.172C337.48 229.808 337.547 229.503 337.68 229.256C337.814 229.009 337.996 228.81 338.226 228.659C338.456 228.509 338.717 228.395 339.01 228.318C339.305 228.241 339.615 228.188 339.939 228.156C340.32 228.116 340.626 228.08 340.859 228.045C341.092 228.009 341.261 227.955 341.366 227.884C341.472 227.812 341.524 227.707 341.524 227.568V227.543C341.524 227.273 341.439 227.064 341.268 226.916C341.101 226.768 340.862 226.695 340.553 226.695C340.226 226.695 339.966 226.767 339.773 226.912C339.58 227.054 339.452 227.233 339.389 227.449L337.71 227.312C337.795 226.915 337.963 226.571 338.213 226.281C338.463 225.989 338.786 225.764 339.18 225.608C339.578 225.449 340.038 225.369 340.561 225.369C340.925 225.369 341.273 225.412 341.605 225.497C341.94 225.582 342.237 225.714 342.496 225.893C342.757 226.072 342.963 226.303 343.114 226.584C343.264 226.862 343.339 227.196 343.339 227.585V232H341.618V231.092H341.567C341.462 231.297 341.321 231.477 341.145 231.634C340.969 231.787 340.757 231.908 340.51 231.996C340.263 232.081 339.977 232.124 339.653 232.124ZM340.173 230.871C340.44 230.871 340.676 230.818 340.881 230.713C341.085 230.605 341.246 230.46 341.362 230.278C341.479 230.097 341.537 229.891 341.537 229.661V228.966C341.48 229.003 341.402 229.037 341.303 229.068C341.206 229.097 341.097 229.124 340.974 229.149C340.852 229.172 340.73 229.193 340.608 229.213C340.486 229.23 340.375 229.246 340.276 229.26C340.063 229.291 339.876 229.341 339.717 229.409C339.558 229.477 339.435 229.57 339.347 229.686C339.259 229.8 339.214 229.942 339.214 230.112C339.214 230.359 339.304 230.548 339.483 230.679C339.665 230.807 339.895 230.871 340.173 230.871ZM346.563 228.216V232H344.748V225.455H346.478V226.609H346.555C346.7 226.229 346.942 225.928 347.283 225.706C347.624 225.482 348.038 225.369 348.523 225.369C348.978 225.369 349.374 225.469 349.712 225.668C350.05 225.866 350.313 226.151 350.501 226.52C350.688 226.886 350.782 227.324 350.782 227.832V232H348.967V228.156C348.969 227.756 348.867 227.443 348.66 227.219C348.452 226.991 348.167 226.878 347.803 226.878C347.559 226.878 347.343 226.93 347.156 227.036C346.971 227.141 346.826 227.294 346.721 227.496C346.619 227.695 346.566 227.935 346.563 228.216ZM355.17 232.128C354.5 232.128 353.923 231.986 353.44 231.702C352.96 231.415 352.591 231.017 352.332 230.509C352.076 230 351.949 229.415 351.949 228.753C351.949 228.082 352.078 227.494 352.336 226.989C352.598 226.48 352.968 226.084 353.449 225.8C353.929 225.513 354.5 225.369 355.162 225.369C355.733 225.369 356.233 225.473 356.662 225.68C357.091 225.888 357.43 226.179 357.68 226.554C357.93 226.929 358.068 227.369 358.093 227.875H356.38C356.332 227.548 356.204 227.286 355.997 227.087C355.792 226.885 355.524 226.784 355.191 226.784C354.91 226.784 354.664 226.861 354.454 227.014C354.247 227.165 354.085 227.385 353.968 227.675C353.852 227.964 353.794 228.315 353.794 228.727C353.794 229.145 353.85 229.5 353.964 229.793C354.081 230.085 354.244 230.308 354.454 230.462C354.664 230.615 354.91 230.692 355.191 230.692C355.399 230.692 355.585 230.649 355.75 230.564C355.917 230.479 356.055 230.355 356.163 230.193C356.274 230.028 356.346 229.831 356.38 229.601H358.093C358.065 230.101 357.929 230.541 357.684 230.922C357.443 231.3 357.109 231.595 356.683 231.808C356.257 232.021 355.752 232.128 355.17 232.128ZM362.239 232.128C361.565 232.128 360.986 231.991 360.5 231.719C360.017 231.443 359.645 231.054 359.384 230.551C359.122 230.045 358.991 229.447 358.991 228.757C358.991 228.084 359.122 227.493 359.384 226.984C359.645 226.476 360.013 226.08 360.487 225.795C360.964 225.511 361.524 225.369 362.166 225.369C362.598 225.369 363 225.439 363.372 225.578C363.747 225.714 364.074 225.92 364.352 226.196C364.634 226.472 364.852 226.818 365.009 227.236C365.165 227.651 365.243 228.136 365.243 228.693V229.192H359.716V228.067H363.534C363.534 227.805 363.477 227.574 363.364 227.372C363.25 227.17 363.092 227.013 362.891 226.899C362.692 226.783 362.46 226.724 362.196 226.724C361.92 226.724 361.676 226.788 361.463 226.916C361.253 227.041 361.088 227.21 360.969 227.423C360.849 227.634 360.788 227.868 360.786 228.126V229.196C360.786 229.52 360.845 229.8 360.964 230.036C361.087 230.271 361.259 230.453 361.48 230.581C361.702 230.709 361.964 230.773 362.268 230.773C362.47 230.773 362.655 230.744 362.822 230.688C362.99 230.631 363.134 230.545 363.253 230.432C363.372 230.318 363.463 230.179 363.526 230.014L365.205 230.125C365.119 230.528 364.945 230.881 364.68 231.182C364.419 231.48 364.081 231.713 363.666 231.881C363.254 232.045 362.778 232.128 362.239 232.128ZM370.743 232H368.766L371.779 223.273H374.157L377.165 232H375.188L373.002 225.267H372.934L370.743 232ZM370.62 228.57H375.29V230.01H370.62V228.57ZM380.061 223.273V232H378.216V223.273H380.061Z" fill="#B2BEDC"/>
<path d="M547.066 195.273H549.132L551.122 199.031H551.208L553.198 195.273H555.264L552.081 200.915V204H550.249V200.915L547.066 195.273ZM557.824 204.128C557.162 204.128 556.59 203.987 556.107 203.706C555.627 203.422 555.256 203.027 554.995 202.521C554.733 202.013 554.603 201.423 554.603 200.753C554.603 200.077 554.733 199.486 554.995 198.98C555.256 198.472 555.627 198.077 556.107 197.795C556.59 197.511 557.162 197.369 557.824 197.369C558.486 197.369 559.057 197.511 559.537 197.795C560.02 198.077 560.393 198.472 560.654 198.98C560.915 199.486 561.046 200.077 561.046 200.753C561.046 201.423 560.915 202.013 560.654 202.521C560.393 203.027 560.02 203.422 559.537 203.706C559.057 203.987 558.486 204.128 557.824 204.128ZM557.833 202.722C558.134 202.722 558.385 202.636 558.587 202.466C558.789 202.293 558.941 202.057 559.043 201.759C559.148 201.46 559.201 201.121 559.201 200.74C559.201 200.359 559.148 200.02 559.043 199.722C558.941 199.423 558.789 199.187 558.587 199.014C558.385 198.841 558.134 198.754 557.833 198.754C557.529 198.754 557.273 198.841 557.066 199.014C556.861 199.187 556.706 199.423 556.601 199.722C556.499 200.02 556.448 200.359 556.448 200.74C556.448 201.121 556.499 201.46 556.601 201.759C556.706 202.057 556.861 202.293 557.066 202.466C557.273 202.636 557.529 202.722 557.833 202.722ZM566.424 201.213V197.455H568.239V204H566.496V202.811H566.428C566.28 203.195 566.035 203.503 565.691 203.736C565.35 203.969 564.934 204.085 564.442 204.085C564.005 204.085 563.62 203.986 563.287 203.787C562.955 203.588 562.695 203.305 562.508 202.939C562.323 202.572 562.229 202.134 562.226 201.622V197.455H564.042V201.298C564.045 201.685 564.148 201.99 564.353 202.214C564.557 202.439 564.831 202.551 565.175 202.551C565.394 202.551 565.599 202.501 565.789 202.402C565.979 202.3 566.133 202.149 566.249 201.95C566.368 201.751 566.427 201.506 566.424 201.213ZM569.691 204V197.455H571.451V198.597H571.519C571.639 198.19 571.839 197.884 572.12 197.676C572.401 197.466 572.725 197.361 573.092 197.361C573.183 197.361 573.281 197.366 573.386 197.378C573.491 197.389 573.583 197.405 573.663 197.425V199.036C573.578 199.01 573.46 198.987 573.309 198.967C573.159 198.947 573.021 198.938 572.896 198.938C572.629 198.938 572.39 198.996 572.18 199.112C571.972 199.226 571.808 199.385 571.686 199.589C571.566 199.794 571.507 200.03 571.507 200.297V204H569.691ZM578.917 204H576.94L579.953 195.273H582.33L585.339 204H583.362L581.176 197.267H581.107L578.917 204ZM578.794 200.57H583.464V202.01H578.794V200.57ZM588.235 195.273V204H586.389V195.273H588.235ZM592.496 206.455V197.455H594.286V198.554H594.367C594.446 198.378 594.561 198.199 594.712 198.017C594.865 197.832 595.064 197.679 595.308 197.557C595.556 197.432 595.862 197.369 596.229 197.369C596.706 197.369 597.146 197.494 597.55 197.744C597.953 197.991 598.276 198.365 598.517 198.865C598.759 199.362 598.879 199.986 598.879 200.736C598.879 201.466 598.762 202.082 598.526 202.585C598.293 203.085 597.975 203.464 597.571 203.723C597.171 203.979 596.722 204.107 596.225 204.107C595.872 204.107 595.573 204.048 595.325 203.932C595.081 203.815 594.881 203.669 594.725 203.493C594.568 203.314 594.449 203.134 594.367 202.952H594.311V206.455H592.496ZM594.273 200.727C594.273 201.116 594.327 201.456 594.435 201.746C594.543 202.036 594.699 202.261 594.904 202.423C595.108 202.582 595.357 202.662 595.649 202.662C595.945 202.662 596.195 202.581 596.399 202.419C596.604 202.254 596.759 202.027 596.864 201.737C596.972 201.445 597.026 201.108 597.026 200.727C597.026 200.349 596.973 200.017 596.868 199.73C596.763 199.443 596.608 199.219 596.404 199.057C596.199 198.895 595.948 198.814 595.649 198.814C595.354 198.814 595.104 198.892 594.899 199.048C594.698 199.205 594.543 199.426 594.435 199.713C594.327 200 594.273 200.338 594.273 200.727ZM603.047 204.128C602.385 204.128 601.813 203.987 601.33 203.706C600.85 203.422 600.479 203.027 600.218 202.521C599.956 202.013 599.825 201.423 599.825 200.753C599.825 200.077 599.956 199.486 600.218 198.98C600.479 198.472 600.85 198.077 601.33 197.795C601.813 197.511 602.385 197.369 603.047 197.369C603.709 197.369 604.28 197.511 604.76 197.795C605.243 198.077 605.615 198.472 605.877 198.98C606.138 199.486 606.269 200.077 606.269 200.753C606.269 201.423 606.138 202.013 605.877 202.521C605.615 203.027 605.243 203.422 604.76 203.706C604.28 203.987 603.709 204.128 603.047 204.128ZM603.056 202.722C603.357 202.722 603.608 202.636 603.81 202.466C604.012 202.293 604.164 202.057 604.266 201.759C604.371 201.46 604.423 201.121 604.423 200.74C604.423 200.359 604.371 200.02 604.266 199.722C604.164 199.423 604.012 199.187 603.81 199.014C603.608 198.841 603.357 198.754 603.056 198.754C602.752 198.754 602.496 198.841 602.289 199.014C602.084 199.187 601.929 199.423 601.824 199.722C601.722 200.02 601.671 200.359 601.671 200.74C601.671 201.121 601.722 201.46 601.824 201.759C601.929 202.057 602.084 202.293 602.289 202.466C602.496 202.636 602.752 202.722 603.056 202.722ZM608.576 204L606.795 197.455H608.632L609.646 201.852H609.705L610.762 197.455H612.565L613.639 201.827H613.694L614.691 197.455H616.524L614.747 204H612.825L611.7 199.884H611.619L610.494 204H608.576ZM620.311 204.128C619.638 204.128 619.058 203.991 618.572 203.719C618.089 203.443 617.717 203.054 617.456 202.551C617.194 202.045 617.064 201.447 617.064 200.757C617.064 200.084 617.194 199.493 617.456 198.984C617.717 198.476 618.085 198.08 618.559 197.795C619.037 197.511 619.596 197.369 620.238 197.369C620.67 197.369 621.072 197.439 621.444 197.578C621.819 197.714 622.146 197.92 622.425 198.196C622.706 198.472 622.925 198.818 623.081 199.236C623.237 199.651 623.315 200.136 623.315 200.693V201.192H617.788V200.067H621.606C621.606 199.805 621.55 199.574 621.436 199.372C621.322 199.17 621.165 199.013 620.963 198.899C620.764 198.783 620.532 198.724 620.268 198.724C619.993 198.724 619.748 198.788 619.535 198.916C619.325 199.041 619.16 199.21 619.041 199.423C618.922 199.634 618.861 199.868 618.858 200.126V201.196C618.858 201.52 618.917 201.8 619.037 202.036C619.159 202.271 619.331 202.453 619.552 202.581C619.774 202.709 620.037 202.773 620.341 202.773C620.542 202.773 620.727 202.744 620.895 202.688C621.062 202.631 621.206 202.545 621.325 202.432C621.444 202.318 621.535 202.179 621.598 202.014L623.277 202.125C623.192 202.528 623.017 202.881 622.753 203.182C622.491 203.48 622.153 203.713 621.738 203.881C621.327 204.045 620.851 204.128 620.311 204.128ZM624.5 204V197.455H626.26V198.597H626.328C626.447 198.19 626.648 197.884 626.929 197.676C627.21 197.466 627.534 197.361 627.9 197.361C627.991 197.361 628.089 197.366 628.194 197.378C628.3 197.389 628.392 197.405 628.471 197.425V199.036C628.386 199.01 628.268 198.987 628.118 198.967C627.967 198.947 627.829 198.938 627.704 198.938C627.437 198.938 627.199 198.996 626.988 199.112C626.781 199.226 626.616 199.385 626.494 199.589C626.375 199.794 626.315 200.03 626.315 200.297V204H624.5ZM632.088 204.128C631.415 204.128 630.835 203.991 630.35 203.719C629.867 203.443 629.494 203.054 629.233 202.551C628.972 202.045 628.841 201.447 628.841 200.757C628.841 200.084 628.972 199.493 629.233 198.984C629.494 198.476 629.862 198.08 630.337 197.795C630.814 197.511 631.374 197.369 632.016 197.369C632.448 197.369 632.85 197.439 633.222 197.578C633.597 197.714 633.923 197.92 634.202 198.196C634.483 198.472 634.702 198.818 634.858 199.236C635.014 199.651 635.093 200.136 635.093 200.693V201.192H629.566V200.067H633.384C633.384 199.805 633.327 199.574 633.213 199.372C633.1 199.17 632.942 199.013 632.74 198.899C632.541 198.783 632.31 198.724 632.046 198.724C631.77 198.724 631.526 198.788 631.313 198.916C631.102 199.041 630.938 199.21 630.818 199.423C630.699 199.634 630.638 199.868 630.635 200.126V201.196C630.635 201.52 630.695 201.8 630.814 202.036C630.936 202.271 631.108 202.453 631.33 202.581C631.551 202.709 631.814 202.773 632.118 202.773C632.32 202.773 632.504 202.744 632.672 202.688C632.84 202.631 632.983 202.545 633.102 202.432C633.222 202.318 633.313 202.179 633.375 202.014L635.054 202.125C634.969 202.528 634.794 202.881 634.53 203.182C634.269 203.48 633.931 203.713 633.516 203.881C633.104 204.045 632.628 204.128 632.088 204.128ZM638.689 204.107C638.192 204.107 637.742 203.979 637.338 203.723C636.938 203.464 636.619 203.085 636.384 202.585C636.151 202.082 636.034 201.466 636.034 200.736C636.034 199.986 636.155 199.362 636.396 198.865C636.638 198.365 636.959 197.991 637.36 197.744C637.763 197.494 638.205 197.369 638.685 197.369C639.051 197.369 639.357 197.432 639.601 197.557C639.848 197.679 640.047 197.832 640.198 198.017C640.351 198.199 640.468 198.378 640.547 198.554H640.602V195.273H642.414V204H640.624V202.952H640.547C640.462 203.134 640.341 203.314 640.185 203.493C640.031 203.669 639.831 203.815 639.584 203.932C639.34 204.048 639.041 204.107 638.689 204.107ZM639.264 202.662C639.557 202.662 639.804 202.582 640.006 202.423C640.21 202.261 640.367 202.036 640.475 201.746C640.585 201.456 640.641 201.116 640.641 200.727C640.641 200.338 640.587 200 640.479 199.713C640.371 199.426 640.215 199.205 640.01 199.048C639.806 198.892 639.557 198.814 639.264 198.814C638.966 198.814 638.715 198.895 638.51 199.057C638.306 199.219 638.151 199.443 638.046 199.73C637.941 200.017 637.888 200.349 637.888 200.727C637.888 201.108 637.941 201.445 638.046 201.737C638.154 202.027 638.308 202.254 638.51 202.419C638.715 202.581 638.966 202.662 639.264 202.662ZM573.785 214.455V215.818H569.746V214.455H573.785ZM570.67 221V213.982C570.67 213.507 570.763 213.114 570.947 212.801C571.135 212.489 571.39 212.254 571.714 212.098C572.038 211.942 572.406 211.864 572.818 211.864C573.096 211.864 573.351 211.885 573.581 211.928C573.814 211.97 573.987 212.009 574.101 212.043L573.777 213.406C573.706 213.384 573.618 213.362 573.513 213.342C573.41 213.322 573.305 213.312 573.197 213.312C572.93 213.312 572.744 213.375 572.639 213.5C572.534 213.622 572.481 213.794 572.481 214.016V221H570.67ZM574.894 221V214.455H576.654V215.597H576.722C576.842 215.19 577.042 214.884 577.323 214.676C577.605 214.466 577.928 214.361 578.295 214.361C578.386 214.361 578.484 214.366 578.589 214.378C578.694 214.389 578.786 214.405 578.866 214.425V216.036C578.781 216.01 578.663 215.987 578.512 215.967C578.362 215.947 578.224 215.938 578.099 215.938C577.832 215.938 577.593 215.996 577.383 216.112C577.176 216.226 577.011 216.385 576.889 216.589C576.769 216.794 576.71 217.03 576.71 217.297V221H574.894ZM582.457 221.128C581.795 221.128 581.223 220.987 580.74 220.706C580.26 220.422 579.889 220.027 579.628 219.521C579.366 219.013 579.236 218.423 579.236 217.753C579.236 217.077 579.366 216.486 579.628 215.98C579.889 215.472 580.26 215.077 580.74 214.795C581.223 214.511 581.795 214.369 582.457 214.369C583.119 214.369 583.69 214.511 584.17 214.795C584.653 215.077 585.025 215.472 585.287 215.98C585.548 216.486 585.679 217.077 585.679 217.753C585.679 218.423 585.548 219.013 585.287 219.521C585.025 220.027 584.653 220.422 584.17 220.706C583.69 220.987 583.119 221.128 582.457 221.128ZM582.466 219.722C582.767 219.722 583.018 219.636 583.22 219.466C583.422 219.293 583.574 219.057 583.676 218.759C583.781 218.46 583.834 218.121 583.834 217.74C583.834 217.359 583.781 217.02 583.676 216.722C583.574 216.423 583.422 216.187 583.22 216.014C583.018 215.841 582.767 215.754 582.466 215.754C582.162 215.754 581.906 215.841 581.699 216.014C581.494 216.187 581.339 216.423 581.234 216.722C581.132 217.02 581.081 217.359 581.081 217.74C581.081 218.121 581.132 218.46 581.234 218.759C581.339 219.057 581.494 219.293 581.699 219.466C581.906 219.636 582.162 219.722 582.466 219.722ZM588.675 217.216V221H586.859V214.455H588.589V215.609H588.666C588.811 215.229 589.054 214.928 589.395 214.706C589.736 214.482 590.149 214.369 590.635 214.369C591.089 214.369 591.486 214.469 591.824 214.668C592.162 214.866 592.425 215.151 592.612 215.52C592.8 215.886 592.893 216.324 592.893 216.832V221H591.078V217.156C591.081 216.756 590.979 216.443 590.771 216.219C590.564 215.991 590.278 215.878 589.915 215.878C589.67 215.878 589.454 215.93 589.267 216.036C589.082 216.141 588.937 216.294 588.832 216.496C588.73 216.695 588.677 216.935 588.675 217.216ZM597.806 214.455V215.818H593.864V214.455H597.806ZM594.759 212.886H596.574V218.989C596.574 219.156 596.6 219.287 596.651 219.381C596.702 219.472 596.773 219.536 596.864 219.572C596.958 219.609 597.066 219.628 597.188 219.628C597.273 219.628 597.358 219.621 597.443 219.607C597.529 219.589 597.594 219.577 597.639 219.568L597.925 220.919C597.834 220.947 597.706 220.98 597.541 221.017C597.377 221.057 597.176 221.081 596.941 221.089C596.503 221.107 596.119 221.048 595.79 220.915C595.463 220.781 595.209 220.574 595.027 220.293C594.845 220.011 594.756 219.656 594.759 219.227V212.886ZM601.901 221.128C601.227 221.128 600.648 220.991 600.162 220.719C599.679 220.443 599.307 220.054 599.046 219.551C598.784 219.045 598.654 218.447 598.654 217.757C598.654 217.084 598.784 216.493 599.046 215.984C599.307 215.476 599.675 215.08 600.149 214.795C600.627 214.511 601.186 214.369 601.828 214.369C602.26 214.369 602.662 214.439 603.034 214.578C603.409 214.714 603.736 214.92 604.014 215.196C604.296 215.472 604.514 215.818 604.671 216.236C604.827 216.651 604.905 217.136 604.905 217.693V218.192H599.378V217.067H603.196C603.196 216.805 603.139 216.574 603.026 216.372C602.912 216.17 602.754 216.013 602.553 215.899C602.354 215.783 602.122 215.724 601.858 215.724C601.583 215.724 601.338 215.788 601.125 215.916C600.915 216.041 600.75 216.21 600.631 216.423C600.512 216.634 600.45 216.868 600.448 217.126V218.196C600.448 218.52 600.507 218.8 600.627 219.036C600.749 219.271 600.921 219.453 601.142 219.581C601.364 219.709 601.627 219.773 601.931 219.773C602.132 219.773 602.317 219.744 602.485 219.688C602.652 219.631 602.796 219.545 602.915 219.432C603.034 219.318 603.125 219.179 603.188 219.014L604.867 219.125C604.781 219.528 604.607 219.881 604.343 220.182C604.081 220.48 603.743 220.713 603.328 220.881C602.916 221.045 602.441 221.128 601.901 221.128ZM607.905 217.216V221H606.09V214.455H607.82V215.609H607.896C608.041 215.229 608.284 214.928 608.625 214.706C608.966 214.482 609.379 214.369 609.865 214.369C610.32 214.369 610.716 214.469 611.054 214.668C611.392 214.866 611.655 215.151 611.843 215.52C612.03 215.886 612.124 216.324 612.124 216.832V221H610.308V217.156C610.311 216.756 610.209 216.443 610.002 216.219C609.794 215.991 609.509 215.878 609.145 215.878C608.901 215.878 608.685 215.93 608.497 216.036C608.313 216.141 608.168 216.294 608.063 216.496C607.96 216.695 607.908 216.935 607.905 217.216ZM615.966 221.107C615.469 221.107 615.019 220.979 614.616 220.723C614.215 220.464 613.897 220.085 613.661 219.585C613.428 219.082 613.312 218.466 613.312 217.736C613.312 216.986 613.432 216.362 613.674 215.865C613.915 215.365 614.236 214.991 614.637 214.744C615.04 214.494 615.482 214.369 615.962 214.369C616.329 214.369 616.634 214.432 616.878 214.557C617.126 214.679 617.324 214.832 617.475 215.017C617.628 215.199 617.745 215.378 617.824 215.554H617.88V212.273H619.691V221H617.901V219.952H617.824C617.739 220.134 617.618 220.314 617.462 220.493C617.309 220.669 617.108 220.815 616.861 220.932C616.617 221.048 616.319 221.107 615.966 221.107ZM616.542 219.662C616.834 219.662 617.081 219.582 617.283 219.423C617.488 219.261 617.644 219.036 617.752 218.746C617.863 218.456 617.918 218.116 617.918 217.727C617.918 217.338 617.864 217 617.756 216.713C617.648 216.426 617.492 216.205 617.287 216.048C617.083 215.892 616.834 215.814 616.542 215.814C616.243 215.814 615.992 215.895 615.787 216.057C615.583 216.219 615.428 216.443 615.323 216.73C615.218 217.017 615.165 217.349 615.165 217.727C615.165 218.108 615.218 218.445 615.323 218.737C615.431 219.027 615.586 219.254 615.787 219.419C615.992 219.581 616.243 219.662 616.542 219.662Z" fill="#B2BEDC"/>
<path d="M55 82.4712L110 102.471V167.471L55 147.471V82.4712Z" fill="#E0E3ED"/>
<path d="M145 92.4712L110 102.471V167.471L145 157.471V92.4712Z" fill="#C8CDDD"/>
<path d="M55 82.4712L90 72.4712L145 92.4712L110 102.471L55 82.4712Z" fill="#D6DAE6"/>
<path d="M55 103.471L110 123.471V124.471L55 104.471V103.471Z" fill="#C8CDDD"/>
<path d="M110 146.471V145.471L145 135.744V136.744L110 146.471Z" fill="#E0E3ED"/>
<path d="M55 125.471L110 145.471V146.471L55 126.471V125.471Z" fill="#C8CDDD"/>
<path d="M110 124.471V123.471L145 113.744V114.744L110 124.471Z" fill="#E0E3ED"/>
<ellipse cx="64.3898" cy="96.9709" rx="2" ry="1.5" transform="rotate(53.9431 64.3898 96.9709)" fill="url(#paint0_radial_320_376)"/>
<ellipse cx="64.3898" cy="117.971" rx="2" ry="1.5" transform="rotate(53.9431 64.3898 117.971)" fill="url(#paint1_radial_320_376)"/>
<ellipse cx="64.3898" cy="139.971" rx="2" ry="1.5" transform="rotate(53.9431 64.3898 139.971)" fill="url(#paint2_radial_320_376)"/>
<path d="M69 95.9712L102 108.471V113.471L69 100.971V95.9712Z" fill="#C8CDDD"/>
<path d="M69 117.471L102 129.971V134.971L69 122.471V117.471Z" fill="#C8CDDD"/>
<path d="M69 139.471L102 151.971V156.971L69 144.471V139.471Z" fill="#C8CDDD"/>
<path d="M68 97.9712L103 111.471" stroke="#E0E3ED"/>
<path d="M68 119.471L103 132.971" stroke="#E0E3ED"/>
<path d="M68 141.471L103 154.971" stroke="#E0E3ED"/>
<circle cx="166" cy="125" r="3" fill="#9CA4BA"/>
<circle cx="185" cy="125" r="3" fill="#9CA4BA"/>
<circle cx="204" cy="125" r="3" fill="#9CA4BA"/>
<circle cx="223" cy="125" r="3" fill="#9CA4BA"/>
<g filter="url(#filter0_f_320_376)">
<path d="M428 124H526V128H428V124Z" fill="url(#paint3_linear_320_376)" fill-opacity="0.5"/>
</g>
<ellipse cx="338.5" cy="155.5" rx="132.5" ry="25.5" stroke="#D5C1FF" stroke-width="3"/>
<rect x="249" y="51" width="180" height="148" rx="8" fill="url(#paint4_radial_320_376)"/>
<rect x="249" y="51" width="180" height="148" rx="8" fill="url(#paint5_radial_320_376)" fill-opacity="0.2"/>
<rect x="391" y="63" width="26" height="26" rx="3.12" fill="#534BE6"/>
<path fill-rule="evenodd" clip-rule="evenodd" d="M406.404 69.5785C404.184 69.5785 402.386 71.3774 402.386 73.5964C402.386 75.8155 404.184 77.6144 406.404 77.6144C408.623 77.6144 410.421 75.8155 410.421 73.5964C410.421 71.3774 408.623 69.5785 406.404 69.5785ZM400.807 73.5964C400.807 70.5056 403.313 68 406.404 68C409.494 68 412 70.5056 412 73.5964C412 76.6872 409.494 79.1928 406.404 79.1928C403.313 79.1928 400.807 76.6872 400.807 73.5964Z" fill="#C8D3FF"/>
<path fill-rule="evenodd" clip-rule="evenodd" d="M396 76.6816C396 74.5418 397.735 72.8071 399.874 72.8071H403.318C405.458 72.8071 407.193 74.5418 407.193 76.6816V80.1255C407.193 82.2653 405.458 84 403.318 84H399.874C397.735 84 396 82.2653 396 80.1255V76.6816ZM399.874 74.3856C398.606 74.3856 397.578 75.4135 397.578 76.6816V80.1255C397.578 81.3935 398.606 82.4215 399.874 82.4215H403.318C404.586 82.4215 405.614 81.3935 405.614 80.1255V76.6816C405.614 75.4135 404.586 74.3856 403.318 74.3856H399.874Z" fill="white"/>
<path d="M429 138.5V135.5L431 136V139L429 138.5Z" fill="#977AD5"/>
<path d="M249 138.5V135.5L247 136V139L249 138.5Z" fill="#977AD5"/>
<path fill-rule="evenodd" clip-rule="evenodd" d="M400.862 72.8071C400.826 73.065 400.807 73.3285 400.807 73.5964C400.807 73.8643 400.826 74.1278 400.862 74.3856H402.463C402.412 74.1304 402.386 73.8665 402.386 73.5964C402.386 73.3262 402.412 73.0623 402.463 72.8071H400.862Z" fill="#C7D2FE"/>
<path d="M471 155.5C471 169.583 411.678 181 338.5 181C265.322 181 206 169.583 206 155.5" stroke="#D5C1FF" stroke-width="3"/>
<circle cx="257.5" cy="173.5" r="29" fill="url(#paint6_radial_320_376)" stroke="#D5C1FF" stroke-width="3"/>
<circle cx="419.5" cy="173.5" r="29" fill="url(#paint7_radial_320_376)" stroke="#D5C1FF" stroke-width="3"/>
<g clip-path="url(#clip0_320_376)">
<path d="M402 172.418V176.173L416.799 182.856C418.698 183.713 420.878 183.695 422.761 182.802L437.662 175.746V172.136L422.65 179.23C420.632 180.184 418.292 180.18 416.276 179.219L402 172.418Z" fill="#D82C21"/>
<path d="M402 178.093V181.069C402 181.543 402.278 181.973 402.71 182.169L416.799 188.53C418.698 189.387 420.878 189.368 422.761 188.476L436.972 181.746C437.393 181.546 437.662 181.122 437.662 180.656V177.81L422.65 184.904C420.632 185.857 418.292 185.854 416.276 184.893L402 178.093Z" fill="#D82C21"/>
<path d="M437.05 165.128L422.93 159.472C421.347 158.838 419.583 158.842 418.003 159.484L402.608 165.736C402.24 165.885 402 166.244 402 166.645V170.19L417.766 177.197C419.078 177.779 420.576 177.758 421.87 177.139L437.662 169.58V166.038C437.662 165.637 437.419 165.277 437.05 165.128ZM418.936 162.318L418.014 160.954L420.219 161.882L422.482 161.274L421.844 162.522L424.194 163.536L421.409 163.739L420.742 165.509L419.494 163.39L416.186 163.23L418.936 162.317V162.318ZM407.979 166.103C407.979 165.198 410.011 164.464 412.518 164.464C415.024 164.464 417.056 165.198 417.056 166.103C417.056 167.009 415.024 167.742 412.518 167.742C410.011 167.742 407.979 167.009 407.979 166.103ZM420.479 171.447L415.16 169.087L422.714 168.033L420.479 171.447ZM427.606 168.033L423.102 166.103L428.249 164.019L432.703 165.856L427.606 168.033Z" fill="#D82C21"/>
</g>
<g clip-path="url(#clip1_320_376)">
<path d="M274.642 185.39H269.416L259.699 161H264.926L274.642 185.39Z" fill="#1E1E1E"/>
<path d="M259.699 185.39H264.926L255.211 161H249.716L240 185.39H245.226L247.316 180.146H257.61L259.699 185.39ZM249.071 175.74L252.463 167.224L255.856 175.74H249.072H249.071Z" fill="#1E1E1E"/>
</g>
<rect x="297" y="81" width="84" height="28" rx="3" fill="white"/>
<rect x="297" y="123" width="84" height="36" rx="3" fill="white"/>
<path d="M338.5 108.5H339.5V125.5H338.5V108.5Z" fill="white"/>
<path d="M341 116C341 117.105 340.105 118 339 118C337.895 118 337 117.105 337 116C337 114.895 337.895 114 339 114C340.105 114 341 114.895 341 116Z" fill="white"/>
<path d="M339 115.5V116.5" stroke="#616EE9" stroke-width="0.3"/>
<path d="M339.5 116L338.5 116" stroke="#616EE9" stroke-width="0.3"/>
<rect x="297" y="90" width="84" height="1" fill="#DAE3EC"/>
<rect x="297" y="132" width="84" height="1" fill="#DAE3EC"/>
<circle cx="303" cy="86" r="2" fill="#DAE3EC"/>
<circle cx="303" cy="128" r="2" fill="#DAE3EC"/>
<rect x="307" y="85" width="27" height="2" rx="1" fill="#DAE3EC"/>
<rect x="307" y="127" width="17" height="2" rx="1" fill="#DAE3EC"/>
<rect x="326" y="127" width="23" height="2" rx="1" fill="#DAE3EC"/>
<rect x="301" y="94" width="76" height="11" fill="#DAE3EC"/>
<rect x="301" y="136" width="76" height="19" fill="#DAE3EC"/>
<circle cx="338.5" cy="180.5" r="29" fill="url(#paint8_radial_320_376)" stroke="#D5C1FF" stroke-width="3"/>
<path d="M354.57 176.757C354.989 175.494 355.134 174.156 354.995 172.832C354.856 171.509 354.436 170.23 353.764 169.082C352.766 167.346 351.244 165.972 349.415 165.157C347.587 164.343 345.547 164.13 343.589 164.549C342.477 163.312 341.06 162.39 339.478 161.874C337.897 161.359 336.208 161.268 334.58 161.612C332.953 161.956 331.445 162.722 330.207 163.834C328.969 164.945 328.046 166.362 327.53 167.943C326.226 168.211 324.994 168.753 323.916 169.535C322.839 170.316 321.94 171.319 321.282 172.476C320.273 174.208 319.843 176.217 320.051 178.211C320.26 180.205 321.097 182.08 322.442 183.567C322.021 184.829 321.875 186.167 322.013 187.491C322.15 188.814 322.569 190.093 323.241 191.242C324.239 192.978 325.763 194.353 327.593 195.167C329.423 195.982 331.464 196.194 333.423 195.774C334.306 196.769 335.392 197.564 336.607 198.106C337.822 198.648 339.139 198.925 340.469 198.917C342.475 198.919 344.43 198.283 346.052 197.102C347.673 195.92 348.877 194.254 349.49 192.344C350.794 192.076 352.025 191.533 353.103 190.752C354.18 189.97 355.079 188.968 355.738 187.811C356.734 186.081 357.157 184.08 356.948 182.095C356.738 180.109 355.905 178.241 354.57 176.757ZM340.469 196.462C338.826 196.465 337.235 195.889 335.974 194.835L336.195 194.71L343.663 190.399C343.849 190.29 344.004 190.134 344.111 189.948C344.219 189.761 344.276 189.55 344.277 189.334V178.805L347.434 180.631C347.45 180.639 347.463 180.651 347.474 180.665C347.484 180.679 347.491 180.695 347.494 180.713V189.438C347.49 191.3 346.748 193.084 345.432 194.4C344.115 195.717 342.331 196.458 340.469 196.462ZM325.37 190.014C324.546 188.592 324.251 186.924 324.535 185.304L324.757 185.438L332.232 189.748C332.417 189.857 332.628 189.914 332.842 189.914C333.057 189.914 333.267 189.857 333.452 189.748L342.584 184.484V188.129C342.583 188.148 342.578 188.166 342.569 188.183C342.56 188.2 342.547 188.214 342.532 188.225L334.968 192.588C333.354 193.518 331.436 193.769 329.637 193.287C327.837 192.804 326.303 191.627 325.37 190.014ZM323.404 173.747C324.233 172.316 325.543 171.223 327.101 170.664V179.537C327.098 179.751 327.153 179.963 327.259 180.149C327.366 180.335 327.52 180.489 327.707 180.594L336.794 185.837L333.637 187.663C333.62 187.672 333.601 187.677 333.582 187.677C333.562 187.677 333.543 187.672 333.526 187.663L325.977 183.308C324.366 182.374 323.19 180.84 322.708 179.041C322.225 177.242 322.476 175.325 323.404 173.711V173.747ZM349.342 179.774L340.225 174.48L343.375 172.66C343.392 172.651 343.411 172.647 343.431 172.647C343.45 172.647 343.469 172.651 343.486 172.66L351.035 177.023C352.19 177.689 353.131 178.67 353.748 179.85C354.366 181.031 354.635 182.363 354.525 183.691C354.414 185.019 353.927 186.288 353.122 187.35C352.317 188.412 351.227 189.223 349.978 189.689V180.816C349.971 180.602 349.909 180.393 349.798 180.211C349.686 180.028 349.529 179.877 349.342 179.774ZM352.485 175.049L352.263 174.916L344.802 170.568C344.616 170.459 344.404 170.401 344.188 170.401C343.973 170.401 343.761 170.459 343.575 170.568L334.451 175.833V172.187C334.449 172.169 334.452 172.15 334.46 172.133C334.467 172.116 334.48 172.102 334.495 172.091L342.044 167.736C343.201 167.07 344.524 166.746 345.858 166.804C347.192 166.862 348.482 167.298 349.577 168.062C350.673 168.826 351.528 169.886 352.042 171.118C352.557 172.35 352.711 173.703 352.485 175.019L352.485 175.049ZM332.727 181.511L329.57 179.692C329.555 179.683 329.541 179.67 329.531 179.654C329.521 179.639 329.514 179.622 329.511 179.604V170.901C329.513 169.566 329.894 168.259 330.612 167.133C331.329 166.007 332.352 165.108 333.561 164.542C334.77 163.976 336.115 163.765 337.439 163.936C338.764 164.106 340.012 164.649 341.038 165.503L340.817 165.629L333.349 169.939C333.163 170.048 333.009 170.204 332.901 170.39C332.793 170.577 332.736 170.789 332.735 171.004L332.727 181.511ZM334.443 177.814L338.51 175.47L342.584 177.814V182.502L338.524 184.846L334.45 182.502L334.443 177.814Z" fill="black"/>
<path d="M429 124.5H521V127.5H429V124.5Z" fill="#D5C1FF"/>
<path d="M429 124.5H431V127.5H429V124.5Z" fill="#977AD4"/>
<g filter="url(#filter1_i_320_376)">
<rect x="521" y="71" width="148" height="110" rx="6" fill="white"/>
</g>
<path d="M456 126C456 126.276 455.105 126.5 454 126.5C452.895 126.5 452 126.276 452 126C452 125.724 452.895 125.5 454 125.5C455.105 125.5 456 125.724 456 126Z" fill="#F3EDFF"/>
<path d="M512 126C512 126.276 511.105 126.5 510 126.5C508.895 126.5 508 126.276 508 126C508 125.724 508.895 125.5 510 125.5C511.105 125.5 512 125.724 512 126Z" fill="#F3EDFF"/>
<path d="M498 126C498 126.276 497.105 126.5 496 126.5C494.895 126.5 494 126.276 494 126C494 125.724 494.895 125.5 496 125.5C497.105 125.5 498 125.724 498 126Z" fill="#F3EDFF"/>
<path d="M484 126C484 126.276 483.105 126.5 482 126.5C480.895 126.5 480 126.276 480 126C480 125.724 480.895 125.5 482 125.5C483.105 125.5 484 125.724 484 126Z" fill="#F3EDFF"/>
<path d="M470 126C470 126.276 469.105 126.5 468 126.5C466.895 126.5 466 126.276 466 126C466 125.724 466.895 125.5 468 125.5C469.105 125.5 470 125.724 470 126Z" fill="#F3EDFF"/>
<path d="M442 126C442 126.276 441.105 126.5 440 126.5C438.895 126.5 438 126.276 438 126C438 125.724 438.895 125.5 440 125.5C441.105 125.5 442 125.724 442 126Z" fill="#F3EDFF"/>
<path d="M521 77C521 73.6863 523.686 71 527 71H663C666.314 71 669 73.6863 669 77V83H521V77Z" fill="#E0E3ED"/>
<circle cx="662" cy="77" r="2" fill="#FCA5A5"/>
<circle cx="656" cy="77" r="2" fill="#F9FAFB"/>
<circle cx="650" cy="77" r="2" fill="#F9FAFB"/>
<rect x="531" y="92" width="59" height="4" rx="2" fill="#E0E3ED"/>
<rect x="531" y="102" width="59" height="4" rx="2" fill="#E0E3ED"/>
<rect x="531" y="112" width="59" height="4" rx="2" fill="#E0E3ED"/>
<rect x="531" y="122" width="59" height="4" rx="2" fill="#D5C1FF"/>
<rect x="600" y="92" width="59" height="4" rx="2" fill="#E0E3ED"/>
<rect x="600" y="102" width="59" height="4" rx="2" fill="#E0E3ED"/>
<rect x="600" y="112" width="59" height="4" rx="2" fill="#D5C1FF"/>
<rect x="600" y="122" width="59" height="4" rx="2" fill="#D5C1FF"/>
<defs>
<filter id="filter0_f_320_376" x="424" y="120" width="106" height="12" filterUnits="userSpaceOnUse" color-interpolation-filters="sRGB">
<feFlood flood-opacity="0" result="BackgroundImageFix"/>
<feBlend mode="normal" in="SourceGraphic" in2="BackgroundImageFix" result="shape"/>
<feGaussianBlur stdDeviation="2" result="effect1_foregroundBlur_320_376"/>
</filter>
<filter id="filter1_i_320_376" x="521" y="71" width="148" height="110" filterUnits="userSpaceOnUse" color-interpolation-filters="sRGB">
<feFlood flood-opacity="0" result="BackgroundImageFix"/>
<feBlend mode="normal" in="SourceGraphic" in2="BackgroundImageFix" result="shape"/>
<feColorMatrix in="SourceAlpha" type="matrix" values="0 0 0 0 0 0 0 0 0 0 0 0 0 0 0 0 0 0 127 0" result="hardAlpha"/>
<feOffset/>
<feGaussianBlur stdDeviation="5"/>
<feComposite in2="hardAlpha" operator="arithmetic" k2="-1" k3="1"/>
<feColorMatrix type="matrix" values="0 0 0 0 0.325 0 0 0 0 0.5545 0 0 0 0 1 0 0 0 0.25 0"/>
<feBlend mode="normal" in2="shape" result="effect1_innerShadow_320_376"/>
</filter>
<radialGradient id="paint0_radial_320_376" cx="0" cy="0" r="1" gradientUnits="userSpaceOnUse" gradientTransform="translate(63.8898 96.2209) rotate(48.3665) scale(3.0104 3.23877)">
<stop stop-color="#938CFF"/>
<stop offset="1" stop-color="#4F46E5"/>
</radialGradient>
<radialGradient id="paint1_radial_320_376" cx="0" cy="0" r="1" gradientUnits="userSpaceOnUse" gradientTransform="translate(63.8898 117.221) rotate(48.3665) scale(3.0104 3.23877)">
<stop stop-color="#938CFF"/>
<stop offset="1" stop-color="#4F46E5"/>
</radialGradient>
<radialGradient id="paint2_radial_320_376" cx="0" cy="0" r="1" gradientUnits="userSpaceOnUse" gradientTransform="translate(63.8898 139.221) rotate(48.3665) scale(3.0104 3.23877)">
<stop stop-color="#938CFF"/>
<stop offset="1" stop-color="#4F46E5"/>
</radialGradient>
<linearGradient id="paint3_linear_320_376" x1="423.029" y1="126" x2="528.13" y2="126" gradientUnits="userSpaceOnUse">
<stop stop-color="#93F2FF"/>
<stop offset="0.501184" stop-color="#9593FF"/>
<stop offset="1" stop-color="#E993FF"/>
</linearGradient>
<radialGradient id="paint4_radial_320_376" cx="0" cy="0" r="1" gradientUnits="userSpaceOnUse" gradientTransform="translate(282.5 24) rotate(62.225) scale(243.562 296.224)">
<stop stop-color="#DDD8F3"/>
<stop offset="1" stop-color="#F8F7FF"/>
</radialGradient>
<radialGradient id="paint5_radial_320_376" cx="0" cy="0" r="1" gradientUnits="userSpaceOnUse" gradientTransform="translate(307.5 211) rotate(-43.4594) scale(144.656 175.933)">
<stop stop-color="#BAFFFF"/>
<stop offset="1" stop-color="#EBE7F9"/>
</radialGradient>
<radialGradient id="paint6_radial_320_376" cx="0" cy="0" r="1" gradientUnits="userSpaceOnUse" gradientTransform="translate(257.5 173.5) rotate(90) scale(30.5)">
<stop stop-color="white"/>
<stop offset="1" stop-color="white"/>
</radialGradient>
<radialGradient id="paint7_radial_320_376" cx="0" cy="0" r="1" gradientUnits="userSpaceOnUse" gradientTransform="translate(419.5 173.5) rotate(90) scale(30.5)">
<stop stop-color="white"/>
<stop offset="1" stop-color="white"/>
</radialGradient>
<radialGradient id="paint8_radial_320_376" cx="0" cy="0" r="1" gradientUnits="userSpaceOnUse" gradientTransform="translate(338.5 180.5) rotate(90) scale(30.5)">
<stop stop-color="white"/>
<stop offset="1" stop-color="white"/>
</radialGradient>
<clipPath id="clip0_320_376">
<rect width="35.6619" height="30.16" fill="white" transform="translate(402 159)"/>
</clipPath>
<clipPath id="clip1_320_376">
<rect width="34.6421" height="24.39" fill="white" transform="translate(240 161)"/>
</clipPath>
</defs>
</svg>
